<?xml version="1.0" encoding="UTF-8"?>
<svg width="560px" height="540px" viewBox="0 0 560 540" version="1.1" xmlns="http://www.w3.org/2000/svg" xmlns:xlink="http://www.w3.org/1999/xlink">
    <!-- Generator: Sketch 52 (66869) - http://www.bohemiancoding.com/sketch -->
    <title>molecules / illustration - open_source</title>
    <desc>Created with Sketch.</desc>
    <defs>
        <path d="M210.212744,47.6071582 C184.153163,86.5744181 212.427732,113.287469 162.128901,67.1789634 L162.128901,70.1300797 C111.828039,24.0192808 1.84953315,82.7159897 0.0312338685,157.398651 C-1.78706541,232.085899 76.3896455,269.103879 76.3896455,269.103879 L434.549908,270.40187 C435.514927,269.551067 436.45963,268.686504 437.379954,267.810474 C465.710885,240.905819 477.457708,197.833605 469.353578,157.059247 C457.557997,97.7277413 421.053861,31.9016921 366.675539,7.3797459 C355.302534,2.25199207 345.282587,0 336.369873,0 C288.118915,0.00229327094 230.049063,14.7193596 208.05272,47.6071582 L210.212744,47.6071582 Z" id="path-1"></path>
        <linearGradient x1="84.4828168%" y1="6.37230137%" x2="39.3662574%" y2="57.1036637%" id="linearGradient-3">
            <stop stop-color="#F5F5F9" offset="0%"></stop>
            <stop stop-color="#EFF1F8" offset="30.9117038%"></stop>
            <stop stop-color="#C6CBF0" offset="100%"></stop>
        </linearGradient>
        <path d="M60.8666961,22.3686958 C56.2827914,22.3686958 52.065599,24.0035746 48.6854675,26.7683173 C45.297364,29.53306 42.7534961,33.4191071 41.526604,37.9043243 C41.526604,37.9043243 51.0523567,31.0309856 67.7465393,37.9043243 C67.7465393,37.9043243 70.615665,42.1498735 71.9151024,49.288559 C72.5688071,52.8493422 72.8326805,57.1291297 72.1550598,61.9396108 C76.1243227,59.055034 79.0819378,54.6896508 80.3494871,49.5795846 C80.7887448,47.8077525 81.0191358,45.9332056 81.0191358,44.0158608 C81.0191358,32.0581346 72.0035917,22.3686958 60.8666961,22.3686958" id="path-4"></path>
        <filter x="-260.8%" y="-255.2%" width="621.6%" height="620.6%" filterUnits="objectBoundingBox" id="filter-5">
            <feOffset dx="0" dy="2" in="SourceAlpha" result="shadowOffsetOuter1"></feOffset>
            <feGaussianBlur stdDeviation="34" in="shadowOffsetOuter1" result="shadowBlurOuter1"></feGaussianBlur>
            <feColorMatrix values="0 0 0 0 0.133757597   0 0 0 0 0   0 0 0 0 0.398968963  0 0 0 1 0" type="matrix" in="shadowBlurOuter1"></feColorMatrix>
        </filter>
        <linearGradient x1="10.6769627%" y1="70.468697%" x2="50%" y2="100%" id="linearGradient-6">
            <stop stop-color="#5F64AA" offset="0%"></stop>
            <stop stop-color="#313471" offset="100%"></stop>
        </linearGradient>
        <path d="M17.2279116,0.682028644 C13.407991,0.682028644 9.89366403,2.03801637 7.07688777,4.3311265 C4.25346818,6.62423663 2.13357831,9.84736975 1.11116825,13.5674617 C1.11116825,13.5674617 9.04929549,7.86663376 22.9611143,13.5674617 C22.9611143,13.5674617 25.3520524,17.0887702 26.4349169,23.0096799 C26.9796708,25.9630354 27.1995653,29.5127414 26.6348814,33.5026111 C29.9426005,31.1101092 32.4072797,27.489409 33.4635708,23.2510599 C33.8296189,21.7814816 34.0216114,20.2267103 34.0216114,18.636442 C34.0216114,8.71856322 26.5086579,0.682028644 17.2279116,0.682028644" id="path-7"></path>
        <filter x="-262.8%" y="-257.5%" width="625.7%" height="627.1%" filterUnits="objectBoundingBox" id="filter-8">
            <feOffset dx="0" dy="2" in="SourceAlpha" result="shadowOffsetOuter1"></feOffset>
            <feGaussianBlur stdDeviation="28.5" in="shadowOffsetOuter1" result="shadowBlurOuter1"></feGaussianBlur>
            <feColorMatrix values="0 0 0 0 0.133757597   0 0 0 0 0   0 0 0 0 0.398968963  0 0 0 1 0" type="matrix" in="shadowBlurOuter1"></feColorMatrix>
        </filter>
        <linearGradient x1="0%" y1="19.0297583%" x2="89.0660891%" y2="87.83298%" id="linearGradient-9">
            <stop stop-color="#9C93F3" offset="0%"></stop>
            <stop stop-color="#4B545F" offset="100%"></stop>
        </linearGradient>
        <rect id="path-10" x="0" y="0" width="19.6064401" height="19.5876289" rx="8.97057687"></rect>
        <rect id="path-12" x="-12.5263367" y="-34.5581738" width="4.35698668" height="23.3932253" rx="2.17849334"></rect>
        <filter x="-608.2%" y="-104.7%" width="1316.4%" height="326.6%" filterUnits="objectBoundingBox" id="filter-13">
            <feOffset dx="0" dy="2" in="SourceAlpha" result="shadowOffsetOuter1"></feOffset>
            <feGaussianBlur stdDeviation="8.5" in="shadowOffsetOuter1" result="shadowBlurOuter1"></feGaussianBlur>
            <feColorMatrix values="0 0 0 0 0.229395204   0 0 0 0 0.116315092   0 0 0 0 0.79780506  0 0 0 0.0880038496 0" type="matrix" in="shadowBlurOuter1"></feColorMatrix>
        </filter>
        <rect id="path-14" x="0" y="0" width="19.6064401" height="19.5876289" rx="8.97057687"></rect>
        <rect id="path-16" x="-12.5263367" y="-34.5581738" width="4.35698668" height="23.3932253" rx="2.17849334"></rect>
        <filter x="-608.2%" y="-104.7%" width="1316.4%" height="326.6%" filterUnits="objectBoundingBox" id="filter-17">
            <feOffset dx="0" dy="2" in="SourceAlpha" result="shadowOffsetOuter1"></feOffset>
            <feGaussianBlur stdDeviation="8.5" in="shadowOffsetOuter1" result="shadowBlurOuter1"></feGaussianBlur>
            <feColorMatrix values="0 0 0 0 0.229395204   0 0 0 0 0.116315092   0 0 0 0 0.79780506  0 0 0 0.0880038496 0" type="matrix" in="shadowBlurOuter1"></feColorMatrix>
        </filter>
    </defs>
    <g id="molecules-/-illustration---open_source" stroke="none" stroke-width="1" fill="none" fill-rule="evenodd">
        <g id="Path-7-+-Path-7-Copy-+-Path-9-+-Group-10-+-Group-2-+-Group-2-Mask" transform="translate(6.000000, 71.000000)">
            <polyline id="Path-7" stroke="#FFFFFF" stroke-width="3" stroke-linecap="round" fill-rule="nonzero" points="450 233 443 240.5 450 248"></polyline>
            <polyline id="Path-7-Copy" stroke="#FFFFFF" stroke-width="3" stroke-linecap="round" fill-rule="nonzero" transform="translate(469.500000, 240.500000) scale(-1, 1) translate(-469.500000, -240.500000) " points="473 233 466 240.5 473 248"></polyline>
            <path d="M463,226 L453,253" id="Path-9" stroke="#FFFFFF" stroke-width="3" stroke-linecap="round" fill-rule="nonzero"></path>
            <g id="Group-10">
                <g id="Group-7" transform="translate(0.000000, 48.969072)">
                    <rect id="Rectangle" fill="#EAEAEF" fill-rule="nonzero" x="76.4651163" y="289.896907" width="340.171735" height="15.6701031" rx="7.83200004"></rect>
                    <g id="Group">
                        <g id="Group-167" transform="translate(0.798241, 0.614960)">
                            <path d="M77.3699675,269.382837 C77.3699675,269.382837 -0.806743408,232.364857 1.01155587,157.679902 C2.82985515,82.9949476 76.1570908,71.3038523 126.457953,117.414651 C176.758816,163.52545 225.239347,149.887368 251.298928,110.920108 C277.358509,71.9551412 294.724791,-25.2268016 367.655861,7.66099702 C422.034183,32.18065 458.538319,98.0089924 470.3339,157.340498 C478.43803,198.114856 466.691207,241.187071 438.362307,268.091725 C437.437921,268.965462 436.497281,269.830025 435.53023,270.680828 L77.3699675,269.382837 Z" id="Fill-1" fill="#EAECFC"></path>
                            <g id="Group-5" transform="translate(0.771588, 0.643217)">
                                <mask id="mask-2" fill="white">
                                    <use xlink:href="#path-1"></use>
                                </mask>
                                <g id="Clip-4"></g>
                                <path d="M245.690691,181.145321 C333.507435,108.985258 457.998971,117.153889 460.564907,290.871456 C460.564907,290.871456 505.579496,293.045477 501.581269,205.171921 C497.585074,117.298365 461.611191,-83.4843863 357.683705,-60.92548 C253.756219,-38.3642804 155.826074,108.274344 155.826074,108.274344 C146.817031,106.00837 138.691397,269.069329 245.690691,181.145321 Z" id="Fill-3" fill="#F4F4FF" mask="url(#mask-2)"></path>
                            </g>
                        </g>
                    </g>
                    <g id="Group-101" transform="translate(87.248658, 8.814433)">
                        <path d="M322.337044,245.391643 C338.075929,235.862124 343.0369,215.489502 333.415869,199.893728 C331.270859,196.414345 328.55859,193.499078 325.496614,191.12375 C329.481656,185.536993 334.048189,180.137604 339.232811,175.006169 C341.634002,172.628826 344.073824,170.384453 346.540078,168.234771 C347.528205,169.058782 348.493968,169.910999 349.435333,170.801495 L357.639234,165.833251 C361.835728,163.290703 367.317194,164.600256 369.883074,168.760607 L378.011747,181.938743 C380.577626,186.097079 379.25199,191.528704 375.057529,194.069237 L366.853628,199.037482 C368.695694,205.214544 369.553698,211.542709 369.480503,217.822522 L378.751826,220.387232 C383.489147,221.696785 386.258345,226.564294 384.936775,231.25854 L380.748414,246.137081 C379.424811,250.831326 374.512636,253.575345 369.775315,252.265791 L360.512124,249.705111 C358.054004,253.835241 355.107919,257.717563 351.696235,261.265445 L356.712102,269.392735 C359.277981,273.553086 357.954378,278.98471 353.757884,281.527259 L340.458821,289.582019 C336.262328,292.120538 330.778828,290.810985 328.214982,286.650634 L323.201148,278.523344 C318.398765,279.931618 313.502856,280.745556 308.60898,281.01754 C305.81335,271.091125 304.571074,260.709389 304.94518,250.214829 C310.884113,250.216844 316.898274,248.685674 322.337044,245.391643" id="Fill-1" fill="#8D8FB3"></path>
                        <path d="M299.66867,285 L14.0343713,285 C6.28386544,285 0,278.732297 0,271.001726 L0,76.6786865 C0,68.9481154 6.28386544,62.6804124 14.0343713,62.6804124 L299.66867,62.6804124 C307.419176,62.6804124 313.703041,68.9481154 313.703041,76.6786865 L313.703041,271.001726 C313.703041,278.732297 307.419176,285 299.66867,285" id="Fill-3" fill="#EAEAEF"></path>
                        <path d="M297.664996,281.082474 L14.0794296,281.082474 C7.92903411,281.082474 2.94096601,276.114592 2.94096601,269.989086 L2.94096601,75.7325635 C2.94096601,69.6070576 7.92903411,64.6391753 14.0794296,64.6391753 L297.664996,64.6391753 C303.815392,64.6391753 308.801431,69.6070576 308.801431,75.7325635 L308.801431,269.989086 C308.801431,276.114592 303.815392,281.082474 297.664996,281.082474" id="Fill-5" fill="#FFFFFF"></path>
                        <path d="M289.19324,262.474227 L23.5274505,262.474227 C19.7364266,262.474227 16.6654741,259.415054 16.6654741,255.643084 L16.6654741,82.2435141 C16.6654741,78.4695247 19.7364266,75.4123711 23.5274505,75.4123711 L289.19324,75.4123711 C292.984264,75.4123711 296.057245,78.4695247 296.057245,82.2435141 L296.057245,255.643084 C296.057245,259.415054 292.984264,262.474227 289.19324,262.474227" id="Fill-7" fill="#464769"></path>
                        <path d="M89.2093023,67.575031 L89.2093023,201.069188 C89.2093023,204.150965 91.7188441,206.649485 94.8162431,206.649485 L304.890719,206.649485 C309.216213,206.649485 312.722719,203.142979 312.722719,198.817484 L312.722719,75.6830541 C312.722719,67.9614576 306.434675,61.7010309 298.679015,61.7010309 L95.0833024,61.7010309 C91.8391817,61.7010309 89.2093023,64.3309103 89.2093023,67.575031 Z" id="Fill-13" fill="#D3D3E7"></path>
                        <path d="M326.94937,198.814433 L102.429723,198.814433 C99.4597522,198.814433 97.0518784,196.319663 97.0518784,193.238008 L97.0518784,49.6485901 C97.0518784,46.5689513 99.4597522,44.0721649 102.429723,44.0721649 L326.94937,44.0721649 C329.91934,44.0721649 332.329159,46.5689513 332.329159,49.6485901 L332.329159,193.238008 C332.329159,196.319663 329.91934,198.814433 326.94937,198.814433" id="Fill-15" fill="#E9E9F3"></path>
                        <path d="M346.333632,190 L112.457066,190 C109.363321,190 106.855098,187.503246 106.855098,184.421631 L106.855098,40.8361012 C106.855098,37.7544858 109.363321,35.257732 112.457066,35.257732 L346.333632,35.257732 C349.427377,35.257732 351.935599,37.7544858 351.935599,40.8361012 L351.935599,184.421631 C351.935599,187.503246 349.427377,190 346.333632,190" id="Fill-17" fill="#FFFFFF"></path>
                        <path d="M60.1661876,142.989691 L34.9250467,142.989691 C32.9604754,142.989691 31.3703041,141.421797 31.3703041,139.48475 L31.3703041,113.197691 C31.3703041,111.260643 32.9604754,109.690722 34.9250467,109.690722 L60.1661876,109.690722 C62.1287018,109.690722 63.7209302,111.260643 63.7209302,113.197691 L63.7209302,139.48475 C63.7209302,141.421797 62.1287018,142.989691 60.1661876,142.989691" id="Fill-19" fill="#E3EAFF"></path>
                        <path d="M60.1661876,189.020619 L34.9250467,189.020619 C32.9604754,189.020619 31.3703041,187.450697 31.3703041,185.513649 L31.3703041,159.226591 C31.3703041,157.289543 32.9604754,155.721649 34.9250467,155.721649 L60.1661876,155.721649 C62.1287018,155.721649 63.7209302,157.289543 63.7209302,159.226591 L63.7209302,185.513649 C63.7209302,187.450697 62.1287018,189.020619 60.1661876,189.020619" id="Fill-21" fill="#E3EAFF"></path>
                        <path d="M60.1661876,237.010309 L34.9250467,237.010309 C32.9604754,237.010309 31.3703041,235.440388 31.3703041,233.50334 L31.3703041,207.216281 C31.3703041,205.279233 32.9604754,203.71134 34.9250467,203.71134 L60.1661876,203.71134 C62.1287018,203.71134 63.7209302,205.279233 63.7209302,207.216281 L63.7209302,233.50334 C63.7209302,235.440388 62.1287018,237.010309 60.1661876,237.010309" id="Fill-23" fill="#E3EAFF"></path>
                        <path d="M193.438683,175.309278 L125.165968,175.309278 C123.717366,175.309278 122.54025,174.139285 122.54025,172.694948 L122.54025,54.5215473 C122.54025,53.0772102 123.717366,51.9072165 125.165968,51.9072165 L193.438683,51.9072165 C194.889311,51.9072165 196.064401,53.0772102 196.064401,54.5215473 L196.064401,172.694948 C196.064401,174.139285 194.889311,175.309278 193.438683,175.309278" id="Fill-25" fill="#E3EAFF"></path>
                        <path d="M182.181011,113.608247 L138.382241,113.608247 C137.213129,113.608247 136.264758,112.64398 136.264758,111.453193 L136.264758,104.990106 C136.264758,103.799319 137.213129,102.835052 138.382241,102.835052 L182.181011,102.835052 C183.350122,102.835052 184.300537,103.799319 184.300537,104.990106 L184.300537,111.453193 C184.300537,112.64398 183.350122,113.608247 182.181011,113.608247" id="Fill-27" fill="#03DAC5"></path>
                        <path d="M150.834794,159.639175 L141.303205,159.639175 C139.060719,159.639175 137.245081,157.886001 137.245081,155.722636 C137.245081,153.55927 139.060719,151.804124 141.303205,151.804124 L150.834794,151.804124 C153.075239,151.804124 154.890877,153.55927 154.890877,155.722636 C154.890877,157.886001 153.075239,159.639175 150.834794,159.639175" id="Fill-29" fill="#C5A9FD"></path>
                        <path d="M178.28381,159.639175 L168.750179,159.639175 C166.509735,159.639175 164.694097,157.886001 164.694097,155.722636 C164.694097,153.55927 166.509735,151.804124 168.750179,151.804124 L178.28381,151.804124 C180.524255,151.804124 182.339893,153.55927 182.339893,155.722636 C182.339893,157.886001 180.524255,159.639175 178.28381,159.639175" id="Fill-31" fill="#9570EE"></path>
                        <path d="M135.283114,129.278351 L184.301859,129.278351 C184.842545,129.278351 185.280859,128.840037 185.280859,128.299351 L185.280859,122.422299 C185.280859,121.881612 184.842545,121.443299 184.301859,121.443299 L135.283114,121.443299 C134.742428,121.443299 134.304114,121.881612 134.304114,122.422299 L134.304114,128.299351 C134.304114,128.840037 134.742428,129.278351 135.283114,129.278351 Z" id="Fill-33" fill="#F9FBFC"></path>
                        <path d="M135.283114,142.989691 L184.301859,142.989691 C184.842545,142.989691 185.280859,142.551377 185.280859,142.010691 L185.280859,136.133639 C185.280859,135.592952 184.842545,135.154639 184.301859,135.154639 L135.283114,135.154639 C134.742428,135.154639 134.304114,135.592952 134.304114,136.133639 L134.304114,142.010691 C134.304114,142.551377 134.742428,142.989691 135.283114,142.989691 Z" id="Fill-35" fill="#F9FBFC"></path>
                        <path d="M333.824331,150.824742 L259.270482,150.824742 C254.681743,150.824742 250.962433,147.09759 250.962433,142.499177 C250.962433,137.90241 254.681743,134.175258 259.270482,134.175258 L333.824331,134.175258 C338.411425,134.175258 342.132379,137.90241 342.132379,142.499177 C342.132379,147.09759 338.411425,150.824742 333.824331,150.824742" id="Fill-37" fill="#444565"></path>
                        <path d="M267.999028,65.6185567 L210.400148,65.6185567 C205.731897,65.6185567 201.946333,61.8927979 201.946333,57.2938144 C201.946333,52.6948309 205.731897,48.9690722 210.400148,48.9690722 L267.999028,48.9690722 C272.667279,48.9690722 276.450805,52.6948309 276.450805,57.2938144 C276.450805,61.8927979 272.667279,65.6185567 267.999028,65.6185567" id="Fill-38" fill="#E3EAFF"></path>
                        <path d="M223.513417,57.2938144 C223.513417,58.6465095 222.416606,59.742268 221.062612,59.742268 C219.708618,59.742268 218.611807,58.6465095 218.611807,57.2938144 C218.611807,55.9411194 219.708618,54.8453608 221.062612,54.8453608 C222.416606,54.8453608 223.513417,55.9411194 223.513417,57.2938144" id="Fill-39" fill="#B6B8E2"></path>
                        <path d="M242.139535,57.2938144 C242.139535,58.6465095 241.043147,59.742268 239.689675,59.742268 C238.336203,59.742268 237.237925,58.6465095 237.237925,57.2938144 C237.237925,55.9411194 238.336203,54.8453608 239.689675,54.8453608 C241.043147,54.8453608 242.139535,55.9411194 242.139535,57.2938144" id="Fill-40" fill="#B6B8E2"></path>
                        <path d="M258.805009,57.2938144 C258.805009,58.6465095 257.708198,59.742268 256.354204,59.742268 C255.00021,59.742268 253.903399,58.6465095 253.903399,57.2938144 C253.903399,55.9411194 255.00021,54.8453608 256.354204,54.8453608 C257.708198,54.8453608 258.805009,55.9411194 258.805009,57.2938144" id="Fill-41" fill="#B6B8E2"></path>
                        <path d="M276.264661,120.463918 L228.601171,120.463918 C226.332437,120.463918 224.493739,118.597592 224.493739,116.297284 L224.493739,87.4140564 C224.493739,85.1117111 226.332437,83.2474227 228.601171,83.2474227 L276.264661,83.2474227 C278.533394,83.2474227 280.372093,85.1117111 280.372093,87.4140564 L280.372093,116.297284 C280.372093,118.597592 278.533394,120.463918 276.264661,120.463918" id="Fill-42" fill="#E3EAFF"></path>
                        <path d="M252.487255,100.876289 L252.376853,100.876289 C252.127946,100.876289 251.883055,100.812908 251.666265,100.694069 L230.149911,88.8992868 C229.443338,88.5110791 229.186402,87.6316696 229.579835,86.9305189 C229.973268,86.2333294 230.866521,85.979806 231.575101,86.3680137 L252.433057,97.802317 L273.289007,86.3680137 C273.999594,85.979806 274.89084,86.2313488 275.284273,86.9305189 C275.679713,87.6316696 275.424784,88.5110791 274.714197,88.8992868 L253.197843,100.694069 C252.981053,100.812908 252.736161,100.876289 252.487255,100.876289" id="Fill-43" fill="#9570EE"></path>
                        <path d="M296.778631,116.546392 C294.755656,116.546392 293.116279,114.905398 293.116279,112.880428 L293.116279,30.111284 C293.116279,28.0863138 294.755656,26.443299 296.778631,26.443299 L359.056789,26.443299 C361.079764,26.443299 362.719141,28.0863138 362.719141,30.111284 L362.719141,112.880428 C362.719141,114.905398 361.079764,116.546392 359.056789,116.546392 L296.778631,116.546392 Z" id="Fill-44" fill="#464769"></path>
                        <path d="M371.542039,28.4020619 C371.542039,36.5145463 364.957938,43.0927835 356.838222,43.0927835 C348.71648,43.0927835 342.132379,36.5145463 342.132379,28.4020619 C342.132379,20.2895774 348.71648,13.7113402 356.838222,13.7113402 C364.957938,13.7113402 371.542039,20.2895774 371.542039,28.4020619" id="Fill-91" fill="#02D9C4"></path>
                        <path d="M353.866075,26.7584789 L350.077537,28.4837963 L353.856276,30.1916143 C354.477399,30.4723336 354.876565,31.0907797 354.876565,31.7723932 L354.876565,31.7723932 C354.876565,32.1641014 354.559023,32.4816437 354.167315,32.4816437 C354.062515,32.4816437 353.959017,32.4584189 353.864265,32.4136397 L349.067777,30.1468445 C348.424562,29.8428644 348.014311,29.1952242 348.014311,28.4837963 L348.014311,28.4837963 C348.014311,27.7723986 348.424637,27.1248165 349.0679,26.8210078 L353.872568,24.5517956 C354.22391,24.3858593 354.643246,24.5361601 354.809183,24.8875017 C354.853553,24.981449 354.876565,25.0840576 354.876565,25.1879558 L354.876565,25.1879558 C354.876565,25.8642383 354.481541,26.4781931 353.866075,26.7584789 Z" id="Fill-92" fill="#F9FBFC"></path>
                        <rect id="Rectangle" fill="#8687A2" fill-rule="nonzero" x="301.939177" y="42.1134021" width="5.88193202" height="1.95876289" rx="0.979381443"></rect>
                        <rect id="Rectangle-Copy-10" fill="#8687A2" fill-rule="nonzero" x="301.939177" y="61.7010309" width="5.88193202" height="1.95876289" rx="0.979381443"></rect>
                        <rect id="Rectangle-Copy-20" fill="#8687A2" fill-rule="nonzero" x="301.939177" y="81.2886598" width="5.88193202" height="1.95876289" rx="0.979381443"></rect>
                        <rect id="Rectangle-Copy-5" fill="#8687A2" fill-rule="nonzero" x="309.781753" y="42.1134021" width="13.7245081" height="1.95876289" rx="0.979381443"></rect>
                        <rect id="Rectangle-Copy-11" fill="#8687A2" fill-rule="nonzero" x="309.781753" y="61.7010309" width="13.7245081" height="1.95876289" rx="0.979381443"></rect>
                        <rect id="Rectangle-Copy-21" fill="#8687A2" fill-rule="nonzero" x="309.781753" y="81.2886598" width="13.7245081" height="1.95876289" rx="0.979381443"></rect>
                        <rect id="Rectangle-Copy-6" fill="#8687A2" fill-rule="nonzero" x="325.466905" y="42.1134021" width="13.7245081" height="1.95876289" rx="0.979381443"></rect>
                        <rect id="Rectangle-Copy-12" fill="#8687A2" fill-rule="nonzero" x="325.466905" y="61.7010309" width="13.7245081" height="1.95876289" rx="0.979381443"></rect>
                        <rect id="Rectangle-Copy-22" fill="#8687A2" fill-rule="nonzero" x="325.466905" y="81.2886598" width="13.7245081" height="1.95876289" rx="0.979381443"></rect>
                        <rect id="Rectangle-Copy" fill="#8687A2" fill-rule="nonzero" x="301.939177" y="47.0103093" width="16.6654741" height="1.95876289" rx="0.979381443"></rect>
                        <rect id="Rectangle-Copy-13" fill="#8687A2" fill-rule="nonzero" x="301.939177" y="66.5979381" width="16.6654741" height="1.95876289" rx="0.979381443"></rect>
                        <rect id="Rectangle-Copy-23" fill="#8687A2" fill-rule="nonzero" x="301.939177" y="86.185567" width="16.6654741" height="1.95876289" rx="0.979381443"></rect>
                        <rect id="Rectangle-Copy-3" fill="#8687A2" fill-rule="nonzero" x="301.939177" y="51.9072165" width="23.5277281" height="1.95876289" rx="0.979381443"></rect>
                        <rect id="Rectangle-Copy-14" fill="#8687A2" fill-rule="nonzero" x="301.939177" y="71.4948454" width="27.4490161" height="1.95876289" rx="0.979381443"></rect>
                        <rect id="Rectangle-Copy-24" fill="#8687A2" fill-rule="nonzero" x="301.939177" y="91.0824742" width="23.5277281" height="1.95876289" rx="0.979381443"></rect>
                        <rect id="Rectangle-Copy-30" fill="#8687A2" fill-rule="nonzero" x="301.939177" y="100.876289" width="23.5277281" height="1.95876289" rx="0.979381443"></rect>
                        <rect id="Rectangle-Copy-7" fill="#8687A2" fill-rule="nonzero" x="301.939177" y="56.8041237" width="16.6654741" height="1.95876289" rx="0.979381443"></rect>
                        <rect id="Rectangle-Copy-15" fill="#8687A2" fill-rule="nonzero" x="301.939177" y="76.3917526" width="16.6654741" height="1.95876289" rx="0.979381443"></rect>
                        <rect id="Rectangle-Copy-25" fill="#8687A2" fill-rule="nonzero" x="301.939177" y="95.9793814" width="16.6654741" height="1.95876289" rx="0.979381443"></rect>
                        <rect id="Rectangle-Copy-2" fill="#8687A2" fill-rule="nonzero" x="320.565295" y="47.0103093" width="8.82289803" height="1.95876289" rx="0.979381443"></rect>
                        <rect id="Rectangle-Copy-16" fill="#8687A2" fill-rule="nonzero" x="320.565295" y="66.5979381" width="8.82289803" height="1.95876289" rx="0.979381443"></rect>
                        <rect id="Rectangle-Copy-26" fill="#8687A2" fill-rule="nonzero" x="320.565295" y="86.185567" width="8.82289803" height="1.95876289" rx="0.979381443"></rect>
                        <rect id="Rectangle-Copy-4" fill="#8687A2" fill-rule="nonzero" x="327.427549" y="51.9072165" width="23.5277281" height="1.95876289" rx="0.979381443"></rect>
                        <rect id="Rectangle-Copy-17" fill="#8687A2" fill-rule="nonzero" x="332.329159" y="71.4948454" width="14.7048301" height="1.95876289" rx="0.979381443"></rect>
                        <rect id="Rectangle-Copy-27" fill="#8687A2" fill-rule="nonzero" x="327.427549" y="91.0824742" width="23.5277281" height="1.95876289" rx="0.979381443"></rect>
                        <rect id="Rectangle-Copy-31" fill="#8687A2" fill-rule="nonzero" x="327.427549" y="100.876289" width="17.6457961" height="1.95876289" rx="0.979381443"></rect>
                        <rect id="Rectangle-Copy-8" fill="#8687A2" fill-rule="nonzero" x="320.565295" y="56.8041237" width="4.90161002" height="1.95876289" rx="0.979381443"></rect>
                        <rect id="Rectangle-Copy-18" fill="#8687A2" fill-rule="nonzero" x="320.565295" y="76.3917526" width="4.90161002" height="1.95876289" rx="0.979381443"></rect>
                        <rect id="Rectangle-Copy-28" fill="#8687A2" fill-rule="nonzero" x="320.565295" y="95.9793814" width="4.90161002" height="1.95876289" rx="0.979381443"></rect>
                        <rect id="Rectangle-Copy-9" fill="#8687A2" fill-rule="nonzero" x="327.427549" y="56.8041237" width="8.82289803" height="1.95876289" rx="0.979381443"></rect>
                        <rect id="Rectangle-Copy-19" fill="#8687A2" fill-rule="nonzero" x="327.427549" y="76.3917526" width="8.82289803" height="1.95876289" rx="0.979381443"></rect>
                        <rect id="Rectangle-Copy-29" fill="#8687A2" fill-rule="nonzero" x="327.427549" y="95.9793814" width="8.82289803" height="1.95876289" rx="0.979381443"></rect>
                        <path d="M360.750659,24.5656711 L364.639588,26.7085049 C365.269113,27.0553788 365.660107,27.7172403 365.660107,28.4360056 L365.660107,28.4360056 C365.660107,29.1548016 365.269198,29.816723 364.63974,30.1637816 L360.75867,32.3036504 C360.438871,32.4799752 360.036683,32.3636661 359.860358,32.0438667 C359.806448,31.9460906 359.778175,31.8362556 359.778175,31.7246024 L359.778175,31.7246024 C359.778175,31.0359761 360.159477,30.403965 360.768659,30.0828673 L363.89306,28.4360056 L360.758788,26.7713296 C360.15537,26.4508419 359.778175,25.8234117 359.778175,25.1401651 L359.778175,25.1401651 C359.778175,24.7779034 360.071846,24.4842322 360.434108,24.4842322 C360.544807,24.4842322 360.653705,24.5122483 360.750659,24.5656711 Z" id="Fill-93" fill="#F9FBFC"></path>
                        <path d="M179.39796,0 L79.405024,0 C71.2848494,0 64.7012522,6.5330465 64.7012522,14.5928812 C64.7012522,22.650707 71.2848494,29.1837535 79.405024,29.1837535 L86.7579222,29.1837535 L93.8658587,36.2371134 L100.973795,29.1837535 L179.39796,29.1837535 C187.52016,29.1837535 194.103757,22.650707 194.103757,14.5928812 C194.103757,6.5330465 187.52016,0 179.39796,0" id="Fill-94" fill="#8F56FF"></path>
                        <path d="M151.274041,20.5670103 L84.9835615,20.5670103 C84.0677612,20.5670103 83.3273703,19.908866 83.3273703,19.0988422 C83.3273703,18.2870103 84.0677612,17.628866 84.9835615,17.628866 L151.274041,17.628866 C152.187802,17.628866 152.930233,18.2870103 152.930233,19.0988422 C152.930233,19.908866 152.187802,20.5670103 151.274041,20.5670103" id="Fill-95" fill="#C5A9FD"></path>
                        <path d="M130.682878,10.7731959 L84.9879625,10.7731959 C84.0697286,10.7731959 83.3273703,10.1150515 83.3273703,9.30502776 C83.3273703,8.49319588 84.0697286,7.83505155 84.9879625,7.83505155 L130.682878,7.83505155 C131.601112,7.83505155 132.34347,8.49319588 132.34347,9.30502776 C132.34347,10.1150515 131.601112,10.7731959 130.682878,10.7731959" id="Fill-96" fill="#C5A9FD"></path>
                        <path d="M104.384323,252.733071 L104.384323,252.733071 C104.127682,252.227245 104.329687,251.609143 104.835514,251.352502 C104.839106,251.350679 104.84271,251.348877 104.846324,251.347097 L129.361173,239.269633 L161.463843,239.78692 L196.31875,226.848758 L222.943293,226.848758 L251.367532,217.509634 L251.598574,217.535598 L274.394713,220.088079 L286.3199,213.978534 C286.832142,213.716101 287.460186,213.914114 287.729278,214.422889 L287.729278,214.422889 C287.993923,214.923257 287.802832,215.543422 287.302465,215.808067 C287.298577,215.810123 287.294676,215.812154 287.290762,215.81416 L274.798023,222.217144 L274.47578,222.181193 L251.592494,219.618726 L223.113535,228.917905 L196.513311,228.917905 L161.830673,241.866054 L161.632058,241.862059 L129.841497,241.348767 L105.786691,253.200512 C105.270103,253.455034 104.64489,253.246636 104.384323,252.733071 Z" id="Fill-98" fill="#F9FBFC"></path>
                        <path d="M132.34347,240.438144 C132.34347,242.331595 130.807145,243.865979 128.911298,243.865979 C127.015452,243.865979 125.481216,242.331595 125.481216,240.438144 C125.481216,238.546781 127.015452,237.010309 128.911298,237.010309 C130.807145,237.010309 132.34347,238.546781 132.34347,240.438144" id="Fill-99" fill="#FFA94D"></path>
                        <path d="M254.883721,218.891753 C254.883721,220.785203 253.347863,222.319588 251.452594,222.319588 C249.557325,222.319588 248.021467,220.785203 248.021467,218.891753 C248.021467,217.000389 249.557325,215.463918 251.452594,215.463918 C253.347863,215.463918 254.883721,217.000389 254.883721,218.891753" id="Fill-100" fill="#03DAC5"></path>
                    </g>
                    <path d="M323.506261,132.216495 L323.506261,145.98447 C323.506261,148.687904 325.697827,150.87947 328.401261,150.87947 L335.125037,150.87947" id="Path-4" stroke="#8F56FF" stroke-width="0.979000005" stroke-linecap="round" stroke-dasharray="0.979000005483627,1.958000010967254" fill-rule="nonzero"></path>
                    <g id="Group-4" transform="translate(433.302326, 86.185567)">
                        <polygon id="Fill-88" fill="#393F5C" points="59.2667105 117.965499 55.9226651 131.232041 96.1324744 133.379707 94.7753527 116.755033"></polygon>
                        <polygon id="Fill-90" fill="#393F5C" points="75.789464 126.601909 64.0893684 165.972407 64.320973 225.453234 50.0468157 225.75079 47.2797502 165.069618 56.8385191 127.656512"></polygon>
                        <polygon id="Fill-94" fill="#393F5C" points="95.9183417 130.673972 98.7443242 167.615442 110.042159 228.586073 95.9183417 231.476616 82.2678916 169.283375 74.5682515 130.673972"></polygon>
                        <path d="M54.1181808,225.567803 L61.8931879,225.517198 L62.0963498,236.615833 L39.9882685,236.761574 C40.1467348,235.018747 41.3230424,233.644322 43.0296026,233.227338 L53.9779991,230.56148 L54.1181808,225.567803 Z" id="Fill-96" fill="#202E3B"></path>
                        <path d="M62.0959435,236.615833 L39.9878622,236.761574 L39.9878622,236.761574 C39.9945956,237.708629 40.7674893,238.471074 41.7145481,238.464917 L60.3895946,238.343505 C61.3377572,238.337341 62.1015546,237.563999 62.0959435,236.615833 Z" id="Fill-98" fill="#C7CCEA"></path>
                        <path d="M59.5484961,230.157856 C59.5545909,231.091008 58.8008602,231.854128 57.8642837,231.8602 C56.9277072,231.866273 56.1617867,231.115298 56.1556918,230.182147 C56.149597,229.248995 56.9033277,228.485875 57.8399042,228.479803 C58.7764807,228.47373 59.5424012,229.224705 59.5484961,230.157856" id="Fill-100" fill="#FFFFFF"></path>
                        <path d="M100.006163,229.938434 L107.714127,228.922291 L109.304885,239.909595 L87.389807,242.802162 C87.3288585,241.053262 88.3243519,239.543216 89.9659003,238.919766 L100.49172,234.911869 L100.006163,229.938434 Z" id="Fill-102" fill="#202E3B"></path>
                        <path d="M109.305291,239.90919 L87.3902134,242.803782 L87.3902134,242.803782 C87.5147875,243.741939 88.3759398,244.401736 89.3141945,244.277896 L107.83034,241.833953 C108.76889,241.710074 109.429311,240.848805 109.305432,239.910255 C109.305385,239.9099 109.305338,239.909545 109.305291,239.90919 Z" id="Fill-104" fill="#C7CCEA"></path>
                        <path d="M105.968153,233.818807 C106.092082,234.743862 105.4379,235.591997 104.50945,235.715473 C103.581,235.836924 102.72772,235.187159 102.607855,234.262104 C102.481894,233.337049 103.136076,232.488914 104.064526,232.365438 C104.995007,232.243987 105.844224,232.893752 105.968153,233.818807" id="Fill-106" fill="#FFFFFF"></path>
                        <path d="M42.5485152,97.4851482 L8.82289803,80.4334703 L11.2602922,73.4536082 L40.5290856,85.0991288 C46.9977615,75.3141937 56.8876843,63.861326 56.8876843,63.861326 L68.3317958,65.0414288 C68.8437639,67.9238755 66.3245559,67.9461416 48.4320847,94.8739429 C47.2334293,96.6754722 45.159146,97.6835188 43.0178192,97.535753 C42.8613846,97.525632 42.7049499,97.5074143 42.5485152,97.4851482 Z" id="Fill-108" fill="#4B30EF"></path>
                        <path d="M77.1882339,60.7762578 L78.3686047,60.97058 C83.5553288,61.8207399 87.7323381,65.6727737 88.9797523,70.7615877 L97.2890753,117.917121 C79.6180505,127.513806 57.2600801,118.020355 57.2600801,118.020355 L52.9672685,74.0407757 C52.3618459,69.1908162 54.9034017,64.4946951 59.2998259,62.33286 L77.1882339,60.7762578 Z" id="Fill-110" fill="#6138FC"></path>
                        <path d="M60.8683153,62.2386253 L73.8227625,60.9015593 C73.8227625,60.9015593 73.7309852,69.8378216 65.9160647,69.7069772 C58.773023,69.5904439 60.8683153,62.2386253 60.8683153,62.2386253" id="Fill-114" fill="#ECB38C"></path>
                        <path d="M12.8116791,75.0772352 C12.2164146,78.5770599 8.88659055,80.9352414 5.37595239,80.3421537 C1.86125099,79.749066 -0.503553882,76.4314184 0.0917105752,72.9295695 C0.686975032,69.4317689 4.01679908,67.0756116 7.52743724,67.6686993 C11.0421386,68.2597629 13.4069435,71.5774105 12.8116791,75.0772352" id="Fill-116" fill="#F0AE73"></path>
                        <path d="M61.4511075,56.7969024 C54.6919101,56.3313387 49.590514,50.4935743 50.0598181,43.761118 L51.1101653,28.6039823 L75.5871147,30.2901326 L74.5347359,45.4472683 C74.0674634,52.1797247 68.2082734,57.2604419 61.4511075,56.7969024" id="Fill-124" fill="#F1BD9A"></path>
                        <path d="M78.960009,42.3638195 C78.8137325,44.4790982 76.9730854,46.0761842 74.8500432,45.9304425 C72.7249694,45.7847008 71.1240534,43.9507846 71.27033,41.8334817 C71.4166066,39.718203 73.255222,38.121117 75.3802958,38.2668587 C77.5053696,38.4126004 79.1062856,40.2485408 78.960009,42.3638195" id="Fill-128" fill="#F1BD9A"></path>
                        <path d="M31.1354874,101.975612 C30.8896615,105.51592 27.8097266,108.187851 24.2543928,107.942924 C20.7010906,107.697997 18.0193532,104.631349 18.2651791,101.089016 C18.511005,97.5466836 21.5929715,94.8767768 25.1462737,95.1196796 C28.6995759,95.3646066 31.3813133,98.4353031 31.1354874,101.975612" id="Fill-130" fill="#F1AF74"></path>
                        <path d="M35.0420882,105.464506 L28.3499342,105.000966 C26.6007099,104.881539 25.2679677,103.359348 25.3898648,101.61652 C25.511762,99.8736926 27.0415713,98.547848 28.7887639,98.6692994 L35.4829496,99.1287906 C37.2301422,99.250242 38.5608528,100.774457 38.4409873,102.515261 C38.3190901,104.256064 36.7892808,105.583933 35.0420882,105.464506" id="Fill-132" fill="#F1AF74"></path>
                        <path d="M31.1511244,105.471971 L31.3876114,98.6615778 L64.4705002,95.9639693 L75.8374102,69.0989179 C77.2128164,66.0950198 80.7722135,64.7711994 83.7851049,66.1415761 C86.7979963,67.5119529 88.128707,71.0563098 86.7533007,74.0602079 L73.7814114,104.427108 C72.8062342,106.560605 70.6689707,107.926933 68.3163555,107.924909 L31.1511244,105.471971 Z" id="Fill-134" fill="#6138FC"></path>
                        <path d="M51.1364643,225.751802 L63.163062,225.751802 C64.7851223,225.751802 66.100062,224.436862 66.100062,222.814802 L66.100062,222.47049 C66.100062,220.848429 64.7851223,219.53349 63.163062,219.53349 L51.1364643,219.53349 C49.514404,219.53349 48.1994643,220.848429 48.1994643,222.47049 L48.1994643,222.814802 C48.1994643,224.436862 49.514404,225.751802 51.1364643,225.751802 Z" id="Fill-136" fill="#4F5877"></path>
                        <path d="M96.0954223,225.510048 L107.895003,223.205265 C109.485738,222.894551 111.027477,223.931187 111.339944,225.521579 L111.409589,225.861304 C111.7223,227.452936 110.685529,228.996711 109.093897,229.309421 C109.092966,229.309604 109.092035,229.309787 109.091104,229.309968 L97.2885789,231.614055 C95.6980256,231.924953 94.1562503,230.888729 93.8434011,229.298559 L93.7767008,228.959529 C93.46358,227.367978 94.4999527,225.823937 96.0915039,225.510816 C96.0928098,225.510559 96.094116,225.510303 96.0954223,225.510048 Z" id="Fill-138" fill="#4F5877"></path>
                        <path d="M52.4457518,45.9812497 L63.006109,46.4832489 C63.006109,46.4832489 62.3844334,50.5113872 56.697931,49.8940092 C52.210084,49.4061794 52.4457518,45.9812497 52.4457518,45.9812497" id="Fill-139" fill="#FFFFFF"></path>
                        <path d="M56.2749479,107.905881 L66.9470441,107.926123 C69.9457142,107.731801 72.5969774,105.924199 73.8647078,103.213809 L85.7334278,76.4459184 C81.1338417,92.0605211 75.0836794,107.95851 75.0836794,107.95851 C74.34417,109.986749 72.3775625,111.310569 70.2118563,111.231626 L56.5451532,110.68307 L56.2749479,107.905881 Z" id="Fill-140" fill="#4B30EF"></path>
                        <path d="M108.872759,3.28237584 L107.871171,0.424219372 L106.871614,3.28237584 C106.02646,5.69116209 104.021252,7.72344898 101.307009,8.92581792 C104.021252,10.1261627 106.02646,12.1604737 106.871614,14.56926 L107.871171,17.4253923 L108.872759,14.56926 C109.717913,12.1604737 111.721089,10.1261627 114.435333,8.92581792 C111.721089,7.72344898 109.717913,5.69116209 108.872759,3.28237584" id="Fill-161" fill="#FFFFFF"></path>
                        <g id="Fill-8">
                            <use fill="black" fill-opacity="1" filter="url(#filter-5)" xlink:href="#path-4"></use>
                            <use fill="url(#linearGradient-3)" fill-rule="evenodd" xlink:href="#path-4"></use>
                        </g>
                        <path d="M78.6892957,36.6148831 C80.865654,36.7039027 82.5238317,40.0087546 82.393888,44.0035082 C82.3627972,44.8654574 82.2543778,45.6888885 82.0781965,46.4515466 C81.4356526,49.2162894 79.9122018,51.1524652 78.2077864,51.0857005 C76.5025739,51.0240716 75.1186332,48.9886047 74.6578512,46.1956154 C74.5287046,45.416694 74.4713062,44.5761438 74.502397,43.7030671 C74.6371239,39.7023218 76.5081543,36.5309993 78.6892957,36.6148831" id="Fill-10" fill="#B6B8E2" transform="translate(78.447572, 43.850316) rotate(-3.000000) translate(-78.447572, -43.850316) "></path>
                        <path d="M72.1565745,61.9432914 C71.1457239,62.6777029 70.0734887,63.3171032 68.9438552,63.8512207 C66.4725326,65.0093312 63.7413226,65.6538671 60.8658192,65.6538671 C60.2703102,65.6538671 59.6795844,65.6264765 59.0936418,65.5708393 C57.9998822,65.4706922 56.9324303,65.2763899 55.8968664,64.992212 C53.0516567,64.2192824 50.4503904,62.7949691 48.2325777,60.8810482 C43.6470785,56.9085494 40.7093935,50.8278274 40.7093935,44.0118378 C40.7093935,41.8864954 40.9939942,39.8390451 41.5225383,37.9037252 L41.5281187,37.9037252 C41.5281187,37.9037252 51.0514798,31.0269626 67.7472567,37.9037252 C67.7472567,37.9037252 70.6123965,42.1535541 71.9126311,49.2922396 C72.5711189,52.8521669 72.8302092,57.1251067 72.1565745,61.9432914" id="Fill-14" fill="url(#linearGradient-6)"></path>
                    </g>
                    <g id="Group-3" transform="translate(8.822898, 187.061856)">
                        <path d="M85.2506582,127.416633 L81.2400325,127.114122 L80.5511072,134.754483 C80.4539946,135.831487 81.2483537,136.783297 82.3253578,136.88041 C82.3329327,136.881093 82.3405115,136.881732 82.3480938,136.882326 L95.8838953,137.943982 C96.5959682,137.999832 97.2184929,137.467858 97.274343,136.755785 C97.2744259,136.754728 97.2745075,136.753671 97.2745879,136.752613 C97.2474996,135.426292 96.4263868,134.326621 95.1515457,133.923688 L86.98105,131.338202 L87.0596929,129.450591 C87.1036395,128.395771 86.3034027,127.496038 85.2506582,127.416633 Z" id="Fill-146" fill="#202E3B"></path>
                        <path d="M10.5205408,122.157103 L10.1238758,118.203093 L2.40145101,118.862318 C1.32399615,118.954295 0.525108493,119.902307 0.617085491,120.979762 C0.617724126,120.987243 0.618405789,120.994721 0.619130445,121.002194 L1.91514686,134.36801 C1.98472324,135.085552 2.62280806,135.610831 3.34034919,135.541254 C3.34134837,135.541158 3.34234745,135.541059 3.3433464,135.54096 C4.65543387,135.282412 5.6052159,134.290189 5.78298259,132.975621 L6.92915448,124.547608 L8.83174078,124.293286 C9.87873109,124.153334 10.6259795,123.20813 10.5205408,122.157103 Z" id="Fill-147" fill="#202E3B"></path>
                        <path d="M35.0493052,80.5206399 L45.7457809,114.716212 L8.43339928,116.918912 L9.54401783,125.726354 L55.0421322,124.205282 C59.0816686,124.074329 62.1426417,121.018755 61.3198359,116.351449 L58.7684606,90.943171 L82.8211402,90.5754948 L78.6630927,128.295051 L89.0243511,128.661049 L99.1875267,86.2758649 C100.433587,81.0797093 96.5362635,76.0665524 91.1524724,75.938957 L66.6816178,75.3311998 L35.0493052,80.5206399 Z" id="Fill-148" fill="#6138FC"></path>
                        <polygon id="Fill-149" fill="#A16363" points="50.4046225 40.6192015 59.6010859 42.5516006 63.501795 23.2074633 54.3950615 21.3153576"></polygon>
                        <path d="M57.6265213,33.3084876 L57.6282143,33.3084876 C62.7749832,34.3779387 67.8218642,31.1057877 68.9003154,26.000292 L71.3281005,14.5133464 L52.6863003,10.6401539 L50.2585152,22.1287784 C49.180064,27.2342741 52.4797524,32.2373576 57.6265213,33.3084876" id="Fill-150" fill="#F1BD9A"></path>
                        <path d="M60.6900339,23.2106532 C60.3734399,24.7048627 61.3401521,26.1688523 62.8452434,26.4811253 C64.3520277,26.7950772 65.8283377,25.8364327 66.1432387,24.343902 C66.4581397,22.8496925 65.4931205,21.3857029 63.9880292,21.0734299 C62.4829379,20.759478 61.0066279,21.7164437 60.6900339,23.2106532" id="Fill-154" fill="#F1BD9A"></path>
                        <path d="M66.931507,75.0315185 C63.5014564,69.4928699 65.1335239,56.7081446 66.5438063,49.0389883 C67.2379429,45.2682078 65.5127595,41.4655285 62.2333873,39.4391118 L51.5809301,36.313024 C48.939825,35.4097827 45.4860722,38.4502473 43.6051313,40.5001684 C26.8019466,58.8117901 33.2743471,82.1315321 33.2743471,82.1315321 C39.0052066,83.5199717 46.0532326,83.456174 49.8929931,82.9810489 L49.889607,82.9860856 C49.9403975,82.9810489 49.986109,82.9709756 50.0368994,82.9676178 C50.1063131,82.9592234 50.1757268,82.9491501 50.2451404,82.9407556 C60.4929668,81.8326902 66.931507,75.0315185 66.931507,75.0315185" id="Fill-156" fill="#393F5C"></path>
                        <path d="M106.963719,45.0836981 C108.829423,47.6372854 112.427082,48.2097859 115.002159,46.3630101 C117.57893,44.5145554 118.156248,40.9452414 116.292238,38.3916541 C114.428227,35.8363879 110.828875,35.2638874 108.253797,37.1123421 C105.677027,38.9607969 105.099708,42.5301108 106.963719,45.0836981" id="Fill-157" fill="#A16363"></path>
                        <path d="M105.657557,49.5416471 L110.508048,46.0613141 C111.776117,45.1530362 112.062237,43.3801314 111.146315,42.1226449 C110.2287,40.8668374 108.442568,40.5814266 107.174499,41.4913834 L102.322315,44.9717164 C101.055939,45.8816732 100.768127,47.6528991 101.685741,48.9103855 C102.603356,50.1661931 104.391181,50.4516039 105.657557,49.5416471" id="Fill-158" fill="#A16363"></path>
                        <path d="M109.566054,49.6448986 L103.889371,40.6410271 L78.8665932,56.1556228 L63.162176,40.2968552 C60.6971445,38.6767292 57.375447,39.3432473 55.7399934,41.787707 C54.1062329,44.2304877 54.7800533,47.5261431 57.2433917,49.1462692 L75.8225503,66.8954637 C77.5731289,68.0455013 79.8383845,68.0774002 81.6194374,66.9726925 L109.566054,49.6448986 Z" id="Fill-159" fill="#5F637A"></path>
                        <g id="Group-2-Copy" transform="translate(61.270125, 18.683141) scale(-1, 1) translate(-61.270125, -18.683141) translate(43.297555, 0.000000)">
                            <g id="Fill-8">
                                <use fill="black" fill-opacity="1" filter="url(#filter-8)" xlink:href="#path-7"></use>
                                <use fill="url(#linearGradient-3)" fill-rule="evenodd" xlink:href="#path-7"></use>
                            </g>
                            <path d="M32.080078,12.497984 C33.8937099,12.5718179 35.2755246,15.3129009 35.1672382,18.6261966 C35.1413292,19.3411074 35.0509797,20.0240708 34.9041619,20.6566285 C34.3687087,22.9497386 33.0991664,24.5556256 31.6788203,24.5002502 C30.2578098,24.4491344 29.1045259,22.7608942 28.7205408,20.444356 C28.6129187,19.7983095 28.5650867,19.1011473 28.5909957,18.3770072 C28.7032682,15.058742 30.2624601,12.4284098 32.080078,12.497984" id="Fill-10" fill="#B6B8E2" transform="translate(31.878641, 18.499137) rotate(-3.000000) translate(-31.878641, -18.499137) "></path>
                            <path d="M26.6361436,33.5056638 C25.7937681,34.1147934 24.9002388,34.6451195 23.9588775,35.0881228 C21.8994421,36.0486733 19.6234337,36.583259 17.2271809,36.583259 C16.7309234,36.583259 16.2386518,36.5605409 15.7503663,36.5143947 C14.8389001,36.4313316 13.9493568,36.2701749 13.0863869,36.0344744 C10.7153788,35.3933975 8.54765687,34.2120553 6.69947962,32.6246268 C2.87823032,29.3297896 0.430159445,24.2863672 0.430159445,18.6331053 C0.430159445,16.8703212 0.667326691,15.1721419 1.10778015,13.5669648 L1.11243049,13.5669648 C1.11243049,13.5669648 9.04856472,7.86329703 22.9617122,13.5669648 C22.9617122,13.5669648 25.3493286,17.0918229 26.4328574,23.0127327 C26.9815973,25.9653782 27.1975059,29.5094047 26.6361436,33.5056638" id="Fill-14" fill="url(#linearGradient-6)"></path>
                        </g>
                    </g>
                    <ellipse id="Oval" fill="#8F56FF" fill-rule="nonzero" cx="429.381038" cy="150.824742" rx="12.744186" ry="12.7319588"></ellipse>
                    <path d="M432.975552,153.380869 C432.396072,153.380869 431.873779,153.598427 431.477293,153.948733 L426.044675,150.884479 C426.086611,150.718544 426.113298,150.545235 426.113298,150.368238 C426.113298,150.191242 426.086611,150.017933 426.044675,149.851998 L431.420107,146.817243 C431.82803,147.185986 432.373198,147.414607 432.975552,147.414607 C434.237444,147.414607 435.26297,146.422688 435.26297,145.202149 C435.26297,143.981609 434.237444,142.989691 432.975552,142.989691 C431.713659,142.989691 430.688134,143.981609 430.688134,145.202149 C430.688134,145.379145 430.71482,145.552455 430.756756,145.718389 L425.381324,148.753144 C424.973401,148.384401 424.428233,148.15578 423.82588,148.15578 C422.563987,148.15578 421.538462,149.147699 421.538462,150.368238 C421.538462,151.588778 422.563987,152.580696 423.82588,152.580696 C424.428233,152.580696 424.973401,152.352076 425.381324,151.983333 L430.813942,155.047587 C430.775818,155.202459 430.752944,155.364706 430.752944,155.530641 C430.752944,156.717993 431.747971,157.680412 432.975552,157.680412 C434.203133,157.680412 435.198159,156.717993 435.198159,155.530641 C435.198159,154.343288 434.203133,153.380869 432.975552,153.380869 Z" id="Path" fill="#D9C7FF"></path>
                </g>
                <g id="Group-6" transform="translate(10.783542, 0.000000)">
                    <path d="M304.23236,66.9442607 L303.40966,64.6391753 L302.588629,66.9442607 C301.894424,68.8869318 300.247356,70.5259585 298.017889,71.4956616 C300.247356,72.4637322 301.894424,74.1043914 302.588629,76.0470625 L303.40966,78.3505155 L304.23236,76.0470625 C304.926565,74.1043914 306.571965,72.4637322 308.801431,71.4956616 C306.571965,70.5259585 304.926565,68.8869318 304.23236,66.9442607" id="Fill-161" fill="#FFFFFF"></path>
                    <path d="M269.496549,31.8829489 L268.836273,29.9964037 L268.173965,31.8829489 C267.617301,33.4719382 266.294717,34.8139763 264.50486,35.6074588 C266.294717,36.3989171 267.617301,37.7409552 268.173965,39.3299444 L268.836273,41.2144654 L269.496549,39.3299444 C270.053213,37.7409552 271.375797,36.3989171 273.165653,35.6074588 C271.375797,34.8139763 270.053213,33.4719382 269.496549,31.8829489" id="Fill-162" fill="#E1E2F6"></path>
                    <path d="M78.574582,81.7903277 L78.0362077,80.3092784 L77.4961769,81.7903277 C77.0422859,83.0377781 75.9638808,84.0913573 74.5044723,84.7142879 C75.9638808,85.3356294 77.0422859,86.3892086 77.4961769,87.636659 L78.0362077,89.1161192 L78.574582,87.636659 C79.028473,86.3892086 80.1068781,85.3356294 81.5662866,84.7142879 C80.1068781,84.0913573 79.028473,83.0377781 78.574582,81.7903277" id="Fill-162" fill="#E1E2F6"></path>
                    <path d="M68.723877,160.618557 L68.1838462,162.099606 C67.7299552,163.347056 66.6515501,164.400636 65.1921416,165.023566 C66.6515501,165.644908 67.7299552,166.698487 68.1838462,167.945937 L68.723877,169.425398 L69.2622513,167.945937 C69.7161423,166.698487 70.7945474,165.644908 72.2539559,165.023566 C71.2810169,164.608279 70.2837821,163.633626 69.2622513,162.099606 L68.723877,160.618557 Z" id="Fill-162" fill="#FFFFFF"></path>
                    <path d="M471.683705,133.697544 L471.145331,132.216495 L470.6053,133.697544 C470.151409,134.944995 469.073004,135.998574 467.613596,136.621504 C469.073004,137.242846 470.151409,138.296425 470.6053,139.543875 L471.145331,141.023336 L471.683705,139.543875 C472.137596,138.296425 473.216002,137.242846 474.67541,136.621504 C473.216002,135.998574 472.137596,134.944995 471.683705,133.697544" id="Fill-162" fill="#E1E2F6"></path>
                    <path d="M176.757369,0.82351453 L176.458421,0 L176.158552,0.82351453 C175.906515,1.51713997 175.307698,2.10296629 174.497317,2.44933721 C175.307698,2.79482453 175.906515,3.38065085 176.158552,4.07427629 L176.458421,4.89690722 L176.757369,4.07427629 C177.009406,3.38065085 177.608224,2.79482453 178.418605,2.44933721 C177.608224,2.10296629 177.009406,1.51713997 176.757369,0.82351453" id="Fill-162-Copy" fill="#E1E2F6"></path>
                    <path d="M390.134899,36.3743603 L389.596524,34.893311 L389.056493,36.3743603 C388.602602,37.6218107 387.524197,38.6753899 386.064789,39.2983205 C387.524197,39.919662 388.602602,40.9732412 389.056493,42.2206916 L389.596524,43.7001518 L390.134899,42.2206916 C390.58879,40.9732412 391.667195,39.919662 393.126603,39.2983205 C391.667195,38.6753899 390.58879,37.6218107 390.134899,36.3743603" id="Fill-162" fill="#E1E2F6"></path>
                    <path d="M17.5298959,225.266568 L17.15621,224.278351 L16.7813742,225.266568 C16.4663282,226.098918 15.7178065,226.80191 14.7048301,227.217555 C15.7178065,227.63214 16.4663282,228.335132 16.7813742,229.167482 L17.15621,230.154639 L17.5298959,229.167482 C17.8449419,228.335132 18.5934637,227.63214 19.6064401,227.217555 C18.5934637,226.80191 17.8449419,226.098918 17.5298959,225.266568" id="Fill-162" fill="#FFFFFF"></path>
                    <ellipse id="Oval-Copy-2" fill="url(#linearGradient-9)" fill-rule="nonzero" cx="328.360411" cy="11.6985171" rx="4.85415024" ry="4.84284701"></ellipse>
                    <ellipse id="Oval-Copy-3" fill="url(#linearGradient-9)" fill-rule="nonzero" cx="486.239714" cy="95.9793814" rx="3.92128801" ry="3.91752577"></ellipse>
                    <g id="Group-8" transform="translate(4.901610, 131.237113)" fill-rule="nonzero">
                        <ellipse id="Oval-Copy" fill="url(#linearGradient-9)" transform="translate(19.085144, 16.011520) rotate(-28.000000) translate(-19.085144, -16.011520) " cx="19.0851439" cy="16.0115202" rx="11.3137472" ry="11.2828339"></ellipse>
                        <path d="M5.7086834,15.2862331 C1.28555575,15.7078584 -1.50070844,16.3302948 -1.49928789,17.0297274 C-1.49665125,18.3279198 8.10850107,19.3997633 19.9544203,19.4237567 C31.8003395,19.4477501 41.401217,18.4148076 41.3985803,17.1166151 C41.3971055,16.3904749 38.3912995,15.7351523 33.6694865,15.2944121" id="Oval" stroke="#5805FC" stroke-width="1.39566223" stroke-linecap="round" transform="translate(19.949646, 17.355200) rotate(-28.000000) translate(-19.949646, -17.355200) "></path>
                    </g>
                    <g id="Group-2" transform="translate(237.237925, 159.639175)"></g>
                </g>
                <g id="noun_Cloud_1859429" transform="translate(124.500894, 178.247423)" fill="#B3C1E9">
                    <path d="M19.6064401,7.43188513 C19.6064401,5.7916053 18.2180012,4.47533137 16.535045,4.47533137 C16.3667493,4.47533137 16.2194907,4.49558174 16.051195,4.51583211 C15.4411234,3.07805596 13.9895737,2.06553756 12.2855805,2.06553756 C11.7175827,2.06553756 11.1916589,2.1667894 10.707809,2.36929308 C9.95047871,0.972017673 8.4358181,0 6.68975101,0 C4.3756862,0 2.46132349,1.68078056 2.1878431,3.84756996 C0.904588973,4.41458027 0,5.67010309 0,7.1281296 C0,9.13291605 1.70399318,10.7731959 3.78665152,10.7731959 C3.80768847,10.7731959 3.82872542,10.7731959 3.87079933,10.7731959 C3.89183628,10.7731959 3.91287323,10.7731959 3.95494714,10.7731959 L15.7777146,10.7731959 C16.6191928,10.7731959 17.418597,10.4896907 18.0286686,10.0036819 C18.9542945,9.49742268 19.6064401,8.54565538 19.6064401,7.43188513 Z" id="Path"></path>
                </g>
                <g id="Group-9" transform="translate(123.520572, 220.360825)" fill="#B3C1E9" fill-rule="nonzero">
                    <g id="noun_service_793130" transform="translate(0.000000, 6.121134)">
                        <path d="M0.127147027,6.42719072 L0.127147027,5.66204897 C0.127147027,5.33413108 0.360249909,5.02807437 0.678117476,4.98435199 L1.54695549,4.83132364 C1.65291135,4.43782216 1.80124955,4.04432069 1.99197009,3.69454161 L1.48338198,2.95126105 C1.29266144,2.66706554 1.33504378,2.29542526 1.56814666,2.05495214 L2.09792594,1.50842231 C2.33102882,1.26794919 2.69127873,1.2242268 2.96676396,1.42097754 L3.68726378,1.94564617 C4.02632251,1.74889543 4.4077636,1.59586708 4.78920468,1.48656112 L4.93754287,0.590252209 C5.00111639,0.240473122 5.27660161,0 5.59446918,0 L6.35735134,0 C6.67521891,0 6.9718953,0.240473122 7.01427764,0.568391016 L7.16261584,1.46469993 C7.54405692,1.59586708 7.925498,1.74889543 8.26455674,1.94564617 L8.98505656,1.42097754 C9.26054178,1.2242268 9.62079169,1.26794919 9.85389458,1.50842231 L10.3836739,2.05495214 C10.6167767,2.29542526 10.6379679,2.66706554 10.4684385,2.95126105 L9.95985043,3.69454161 C10.150571,4.04432069 10.2989092,4.41596097 10.404865,4.83132364 L11.273703,4.98435199 C11.5915706,5.04993557 11.8246735,5.33413108 11.8246735,5.66204897 L11.8246735,6.42719072 C11.8246735,6.75510862 11.5915706,7.06116532 11.273703,7.1048877 L10.3836739,7.25791605 C10.277718,7.65141753 10.1293798,8.044919 9.93865926,8.39469809 L10.4472474,9.13797865 C10.6379679,9.42217415 10.5955856,9.79381443 10.3624827,10.0342876 L9.8327034,10.5808174 C9.59960052,10.8212905 9.23935061,10.8431517 8.96386539,10.6682622 L8.26455674,10.1217323 C7.925498,10.3184831 7.56524809,10.4715114 7.16261584,10.5808174 L7.01427764,11.4771263 C6.95070413,11.8050442 6.67521891,12.0455173 6.35735134,12.0455173 L5.61566035,12.0455173 C5.29779278,12.0455173 5.00111639,11.8050442 4.95873404,11.4771263 L4.81039585,10.5808174 C4.42895477,10.4715114 4.04751369,10.3184831 3.70845495,10.1217323 L2.96676396,10.646401 C2.69127873,10.8431517 2.33102882,10.7994293 2.09792594,10.5589562 L1.56814666,10.0124264 C1.33504378,9.77195324 1.31385261,9.40031296 1.48338198,9.11611745 L1.99197009,8.37283689 C1.80124955,8.02305781 1.65291135,7.65141753 1.54695549,7.23605486 L0.678117476,7.08302651 C0.360249909,7.03930412 0.127147027,6.75510862 0.127147027,6.42719072 Z M3.962749,6.03368925 C3.962749,7.17047128 4.85277819,8.11050258 5.97591026,8.11050258 C7.09904233,8.11050258 7.98907152,7.19233247 7.98907152,6.03368925 C7.98907152,4.89690722 7.09904233,3.95687592 5.97591026,3.95687592 C4.85277819,3.95687592 3.962749,4.89690722 3.962749,6.03368925 Z" id="Shape"></path>
                    </g>
                    <g id="noun_service_793130-copy-2" transform="translate(13.053761, 9.793814)">
                        <path d="M0.101717621,5.14175258 L0.101717621,4.52963918 C0.101717621,4.26730486 0.288199927,4.0224595 0.542493981,3.98748159 L1.23756439,3.86505891 C1.32232908,3.55025773 1.44099964,3.23545655 1.59357607,2.95563328 L1.18670558,2.36100884 C1.03412915,2.13365243 1.06803502,1.83634021 1.25451733,1.64396171 L1.67834075,1.20673785 C1.86482306,1.01435935 2.15302299,0.979381443 2.37341117,1.13678203 L2.94981102,1.55651694 C3.22105801,1.39911635 3.52621088,1.27669367 3.83136374,1.1892489 L3.9500343,0.472201767 C4.00089311,0.192378498 4.22128129,0 4.47557534,0 L5.08588107,0 C5.34017512,0 5.57751624,0.192378498 5.61142212,0.454712813 L5.73009267,1.17175994 C6.03524554,1.27669367 6.3403984,1.39911635 6.61164539,1.55651694 L7.18804525,1.13678203 C7.40843343,0.979381443 7.69663335,1.01435935 7.88311566,1.20673785 L8.30693908,1.64396171 C8.49342139,1.83634021 8.51037433,2.13365243 8.37475083,2.36100884 L7.96788034,2.95563328 C8.12045678,3.23545655 8.23912734,3.53276878 8.32389202,3.86505891 L9.01896243,3.98748159 C9.27325649,4.03994845 9.45973879,4.26730486 9.45973879,4.52963918 L9.45973879,5.14175258 C9.45973879,5.40408689 9.27325649,5.64893225 9.01896243,5.68391016 L8.30693908,5.80633284 C8.2221744,6.12113402 8.10350384,6.4359352 7.95092741,6.71575847 L8.35779789,7.31038292 C8.51037433,7.53773932 8.47646845,7.83505155 8.28998615,8.02743004 L7.86616272,8.4646539 C7.67968042,8.6570324 7.39148049,8.67452135 7.17109231,8.53460972 L6.61164539,8.09738586 C6.3403984,8.25478645 6.05219847,8.37720913 5.73009267,8.4646539 L5.61142212,9.18170103 C5.5605633,9.44403535 5.34017512,9.63641384 5.08588107,9.63641384 L4.49252828,9.63641384 C4.23823423,9.63641384 4.00089311,9.44403535 3.96698724,9.18170103 L3.84831668,8.4646539 C3.54316381,8.37720913 3.23801095,8.25478645 2.96676396,8.09738586 L2.37341117,8.51712077 C2.15302299,8.67452135 1.86482306,8.63954345 1.67834075,8.44716495 L1.25451733,8.00994109 C1.06803502,7.81756259 1.05108209,7.52025037 1.18670558,7.29289396 L1.59357607,6.69826951 C1.44099964,6.41844624 1.32232908,6.12113402 1.23756439,5.78884389 L0.542493981,5.66642121 C0.288199927,5.6314433 0.101717621,5.40408689 0.101717621,5.14175258 Z M3.1701992,4.8269514 C3.1701992,5.73637703 3.88222255,6.48840206 4.78072821,6.48840206 C5.67923386,6.48840206 6.39125721,5.75386598 6.39125721,4.8269514 C6.39125721,3.91752577 5.67923386,3.16550074 4.78072821,3.16550074 C3.88222255,3.16550074 3.1701992,3.91752577 3.1701992,4.8269514 Z" id="Shape"></path>
                    </g>
                    <g id="noun_service_793130-copy" transform="translate(10.680350, 0.000000)">
                        <path d="M0.0890029187,4.49903351 L0.0890029187,3.96343428 C0.0890029187,3.73389175 0.252174936,3.51965206 0.474682233,3.48904639 L1.08286884,3.38192655 C1.15703794,3.10647552 1.26087468,2.83102448 1.39437906,2.58617912 L1.03836739,2.06588273 C0.904863007,1.86694588 0.934530647,1.60679768 1.09770266,1.43846649 L1.46854816,1.05589562 C1.63172018,0.887564433 1.88389511,0.856958763 2.07673477,0.994684278 L2.58108464,1.36195232 C2.81842576,1.2242268 3.08543452,1.11710696 3.35244327,1.04059278 L3.45628001,0.413176546 C3.50078147,0.168331186 3.69362113,0 3.91612842,0 L4.45014594,0 C4.67265323,0 4.88032671,0.168331186 4.90999435,0.397873711 L5.01383109,1.02528995 C5.28083985,1.11710696 5.5478486,1.2242268 5.78518972,1.36195232 L6.28953959,0.994684278 C6.48237925,0.856958763 6.73455419,0.887564433 6.8977262,1.05589562 L7.2685717,1.43846649 C7.43174372,1.60679768 7.44657754,1.86694588 7.32790698,2.06588273 L6.9718953,2.58617912 C7.10539968,2.83102448 7.20923642,3.09117268 7.28340552,3.38192655 L7.89159213,3.48904639 C8.11409943,3.5349549 8.27727144,3.73389175 8.27727144,3.96343428 L8.27727144,4.49903351 C8.27727144,4.72857603 8.11409943,4.94281572 7.89159213,4.97342139 L7.2685717,5.08054124 C7.1944026,5.35599227 7.09056586,5.6314433 6.95706148,5.87628866 L7.31307316,6.39658505 C7.44657754,6.59552191 7.4169099,6.8556701 7.25373788,7.02400129 L6.88289238,7.40657216 C6.71972037,7.57490335 6.46754543,7.59020619 6.27470577,7.46778351 L5.78518972,7.08521263 C5.5478486,7.22293814 5.29567367,7.33005799 5.01383109,7.40657216 L4.90999435,8.0339884 C4.86549289,8.26353093 4.67265323,8.43186211 4.45014594,8.43186211 L3.93096224,8.43186211 C3.70845495,8.43186211 3.50078147,8.26353093 3.47111383,8.0339884 L3.36727709,7.40657216 C3.10026834,7.33005799 2.83325958,7.22293814 2.59591846,7.08521263 L2.07673477,7.45248067 C1.88389511,7.59020619 1.63172018,7.55960052 1.46854816,7.39126933 L1.09770266,7.00869845 C0.934530647,6.84036727 0.919696827,6.58021907 1.03836739,6.38128222 L1.39437906,5.86098582 C1.26087468,5.61614046 1.15703794,5.35599227 1.08286884,5.0652384 L0.474682233,4.95811856 C0.252174936,4.92751289 0.0890029187,4.72857603 0.0890029187,4.49903351 Z M2.7739243,4.22358247 C2.7739243,5.0193299 3.39694473,5.6773518 4.18313718,5.6773518 C4.96932963,5.6773518 5.59235006,5.03463273 5.59235006,4.22358247 C5.59235006,3.42783505 4.96932963,2.76981314 4.18313718,2.76981314 C3.39694473,2.76981314 2.7739243,3.42783505 2.7739243,4.22358247 Z" id="Shape"></path>
                    </g>
                </g>
                <g id="noun_Data_1703027" transform="translate(126.461538, 271.288660)" fill="#B3C1E9">
                    <g id="Group">
                        <path d="M8.35588352,7.4712813 C7.8698072,7.51325479 7.45317034,7.40832106 7.03653349,7.21944035 C4.99964222,6.29602356 2.96275094,5.37260677 0.902713178,4.42820324 C0.740687736,4.365243 0.578662294,4.28129602 0.462929835,4.1763623 C0.115732459,3.90353461 0.115732459,3.58873343 0.462929835,3.33689249 C0.601808786,3.23195876 0.78698072,3.14801178 0.972152654,3.0640648 C2.96275094,2.16163476 4.97649573,1.25920471 6.96709402,0.335787923 C7.89295369,-0.0839469809 8.81881336,-0.0839469809 9.74467303,0.335787923 C11.7352713,1.23821797 13.7258696,2.14064801 15.7396144,3.04307806 C15.8553468,3.10603829 15.9942258,3.14801178 16.1099583,3.23195876 C16.6654741,3.54675994 16.6423276,3.9455081 16.0868118,4.28129602 C15.9710793,4.365243 15.8553468,4.40721649 15.7396144,4.47017673 C13.7258696,5.37260677 11.7121248,6.29602356 9.69838004,7.21944035 C9.28174319,7.40832106 8.84195985,7.53424153 8.35588352,7.4712813 Z" id="Path"></path>
                        <path d="M8.21700457,11.122975 C7.75407474,11.1649485 7.31429139,11.039028 6.87450805,10.8501473 C4.79132379,9.90574374 2.73128603,8.96134021 0.648101769,8.01693667 C0.324050885,7.87002946 0.0694394753,7.68114875 0.162025442,7.30338733 C0.208318426,7.03055965 0.439783343,6.86266568 0.740687736,6.82069219 C0.995299145,6.7787187 1.22676406,6.90463918 1.43508249,7.0095729 C3.33309481,7.87002946 5.25425363,8.73048601 7.12911946,9.61192931 C7.96239316,9.98969072 8.7030809,10.0106775 9.5363546,9.61192931 C11.4112204,8.73048601 13.3092328,7.8910162 15.1840986,7.03055965 C15.346124,6.94661267 15.531296,6.86266568 15.7164679,6.82069219 C16.0405188,6.75773196 16.2951302,6.88365243 16.4571556,7.15648012 C16.6191811,7.40832106 16.5265951,7.660162 16.2951302,7.84904271 C16.1562512,7.95397644 15.9942258,8.03792342 15.8553468,8.10088365 C13.934188,8.98232695 12.0361757,9.86377025 10.1150169,10.7242268 C9.5363546,10.9970545 8.91139932,11.1439617 8.21700457,11.122975 Z" id="Path"></path>
                        <path d="M8.35588352,14.6487482 C7.80036772,14.6907216 7.2911449,14.5438144 6.78192208,14.3129602 C4.79132379,13.4105302 2.82387199,12.5290869 0.833273703,11.6266568 C0.671248261,11.5427099 0.486076327,11.4587629 0.347197376,11.3538292 C0.115732459,11.1649485 0.0694394753,10.9131075 0.231464918,10.6612666 C0.416636852,10.4094256 0.648101769,10.2625184 0.995299145,10.3674521 C1.15732459,10.4094256 1.31935003,10.4933726 1.48137547,10.5563328 C3.3793878,11.4167894 5.30054661,12.2772459 7.17541244,13.1586892 C7.96239316,13.5364507 8.7030809,13.5364507 9.49006162,13.1586892 C11.4343669,12.2562592 13.3786722,11.3748159 15.3229775,10.4933726 C15.6007354,10.3674521 15.8553468,10.2415317 16.1562512,10.4094256 C16.5728881,10.6192931 16.6191811,11.1439617 16.2488372,11.4167894 C16.1099583,11.5217231 15.9479328,11.5846834 15.7859074,11.6476436 C13.8416021,12.5290869 11.8741503,13.4105302 9.92984496,14.2919735 C9.46691513,14.5228277 8.93454582,14.6907216 8.35588352,14.6487482 Z" id="Path"></path>
                    </g>
                </g>
                <g id="Group-2" transform="translate(223.513417, 130.257732)">
                    <mask id="mask-11" fill="white">
                        <use xlink:href="#path-10"></use>
                    </mask>
                    <use id="Mask" fill="#9570EE" fill-rule="nonzero" xlink:href="#path-10"></use>
                    <polygon id="Path-12" fill="#C5A9FD" fill-rule="nonzero" mask="url(#mask-11)" points="10.136474 7.56834685 10.136474 -6.8556701 -5.9888947 11.5496296 7.019897 11.5496296"></polygon>
                    <rect id="Rectangle-Copy-24" fill="#E3EAFF" fill-rule="nonzero" mask="url(#mask-11)" x="3.86682568" y="4.2533137" width="11.8727887" height="11.6126657" rx="5.80633284"></rect>
                    <g id="Rectangle-Copy-19" fill-rule="nonzero" mask="url(#mask-11)">
                        <use fill="black" fill-opacity="1" filter="url(#filter-13)" xlink:href="#path-12"></use>
                        <use fill="#FFA94D" xlink:href="#path-12"></use>
                    </g>
                </g>
                <g id="Group-2-Copy-2" transform="translate(259.785331, 140.051546) scale(-1, -1) translate(-259.785331, -140.051546) translate(249.982111, 130.257732)">
                    <mask id="mask-15" fill="white">
                        <use xlink:href="#path-14"></use>
                    </mask>
                    <use id="Mask" fill="#C5A9FD" fill-rule="nonzero" xlink:href="#path-14"></use>
                    <path d="M9.39326753,5.87628866 L7.43622124,-2.73467063 C9.89144112,-2.96660967 9.08816047,-2.38151328 5.02637926,-0.979381443 C0.964598061,0.42275039 -1.6911837,7.27842049 -2.94096601,19.5876289 L9.39326753,23.5051546 L9.39326753,14.2665023 L9.39326753,5.87628866 Z" id="Path-12" fill="#9570EE" fill-rule="nonzero" mask="url(#mask-15)"></path>
                    <rect id="Rectangle-Copy-24" fill="#E3EAFF" fill-rule="nonzero" mask="url(#mask-15)" x="3.86682568" y="4.2533137" width="11.8727887" height="11.6126657" rx="5.80633284"></rect>
                    <g id="Rectangle-Copy-19" fill-rule="nonzero" mask="url(#mask-15)">
                        <use fill="black" fill-opacity="1" filter="url(#filter-17)" xlink:href="#path-16"></use>
                        <use fill="#FFA94D" xlink:href="#path-16"></use>
                    </g>
                </g>
            </g>
            <g id="Group-2" transform="translate(511.000000, 185.000000)" fill-rule="nonzero">
                <path d="M4,11.3868212 C10.7981425,8.28930993 16.7563473,10.3805945 21.8746143,17.6606748 C29.5520149,28.5807954 30.5603879,51.6286726 24.89465,52.7242268 C21.1174914,53.4545963 18.6107423,54.0887241 17.3744029,54.6266103 C15.7669977,47.9889196 14.6955498,43.1261083 14.160059,40.0381765 C12.9609426,33.1234182 12.4790425,26.2072172 11.7850562,23.3036403 C10.6261985,18.4550829 8.03117978,14.4828098 4,11.3868212 Z" id="Path-6" fill="#A7A9CE"></path>
                <ellipse id="Oval-Copy-3" fill="#E7E9F7" cx="18.5" cy="25" rx="2.5" ry="3"></ellipse>
                <path d="M8,9.59844522 C8.57588061,11.8903951 10.4000878,13.6476126 13.4726215,14.8700978 C16.5451553,16.092583 18.7209481,16.3230774 20,15.561581 C18.4550556,12.3840841 16.8797237,10.3963722 15.2740042,9.59844522 C13.6682847,8.80051826 11.2436166,8.80051826 8,9.59844522 Z" id="Path-18" fill="#464769"></path>
                <path d="M11,9.40583105 C11.9303095,10.5230927 12.6610595,11.2343236 13.19225,11.5395239 C16.363463,13.3615729 18.4656319,13.2965353 17.9113742,12.3384735 C17.1153686,10.9625383 17.1153686,10.4327899 13.8185786,9.11062829 C13.2824527,8.89561763 12.3429265,8.99401855 11,9.40583105 Z" id="Path-19" fill="#826EF6"></path>
                <ellipse id="Oval" fill="#E7E9F7" cx="21.5" cy="45" rx="2.5" ry="3"></ellipse>
                <ellipse id="Oval-Copy-4" fill="#826EF6" cx="18.5" cy="25" rx="1.5" ry="2"></ellipse>
                <ellipse id="Oval" fill="#826EF6" cx="21.5" cy="45" rx="1.5" ry="2"></ellipse>
                <path d="" id="Path-21" stroke="#979797"></path>
                <path d="M15.7541277,10.6181324 C16.5512812,9.49814035 17.3353916,7.94501718 18.1064588,5.95876289 C18.7616806,4.27092429 17.1995003,1.21705875 14.5284979,0.439004298 C12.484633,-0.156367006 9.51818717,0.897251724 8.0357534,3.02061856 C5.75592936,6.28612887 3.22630094,6.62537638 0.446868157,4.03836111" id="Path-22" stroke="#B6B8E2" stroke-width="4" stroke-dasharray="1"></path>
            </g>
            <g id="Group-2" transform="translate(47.000000, 285.000000) scale(-1, 1) translate(-47.000000, -285.000000) translate(35.000000, 260.000000)" fill-rule="nonzero">
                <path d="M1.36251202,11.1804533 C7.06873743,7.9939006 12.3598584,9.26708282 17.2358748,15 C26.3777297,32.0277292 24.223348,47.7723737 20.2751919,48.7194444 C16.8887619,49.3742608 14.3690129,49.0030531 12.715945,47.6058214 L12.7159519,47.6058133 C12.2927953,47.2481464 11.9485591,46.8064687 11.7050633,46.3087772 C10.1812873,43.1942651 7.43146473,32.5722722 3.4555955,14.4427986 C3.03536114,13.526306 2.33766665,12.4388576 1.36251202,11.1804533 Z" id="Path-6" fill="#A7A9CE"></path>
                <ellipse id="Oval-Copy-3" fill="#E7E9F7" transform="translate(11.375292, 22.674128) rotate(-20.000000) translate(-11.375292, -22.674128) " cx="11.375292" cy="22.6741282" rx="2.5" ry="3"></ellipse>
                <ellipse id="Oval-Copy-8" fill="#E7E9F7" transform="translate(16.087306, 38.674128) rotate(-20.000000) translate(-16.087306, -38.674128) " cx="16.0873059" cy="38.6741282" rx="2.5" ry="3"></ellipse>
                <path d="M5,9.59844522 C5.57588061,11.8903951 7.40008779,13.6476126 10.4726215,14.8700978 C13.5451553,16.092583 15.7209481,16.3230774 17,15.561581 C15.4550556,12.3840841 13.8797237,10.3963722 12.2740042,9.59844522 C10.6682847,8.80051826 8.2436166,8.80051826 5,9.59844522 Z" id="Path-18" fill="#464769"></path>
                <path d="M8,9.40583105 C8.93030948,10.5230927 9.66105947,11.2343236 10.19225,11.5395239 C13.363463,13.3615729 15.4656319,13.2965353 14.9113742,12.3384735 C14.1153686,10.9625383 14.1153686,10.4327899 10.8185786,9.11062829 C10.2824527,8.89561763 9.34292652,8.99401855 8,9.40583105 Z" id="Path-19" fill="#826EF6"></path>
                <ellipse id="Oval-Copy-4" fill="#826EF6" transform="translate(11.493727, 22.392415) rotate(-20.000000) translate(-11.493727, -22.392415) " cx="11.4937266" cy="22.3924155" rx="1.5" ry="2"></ellipse>
                <ellipse id="Oval-Copy-14" fill="#826EF6" transform="translate(16.205741, 38.392415) rotate(-20.000000) translate(-16.205741, -38.392415) " cx="16.2057405" cy="38.3924155" rx="1.5" ry="2"></ellipse>
                <path d="" id="Path-21" stroke="#979797"></path>
                <path d="M12.7541277,10.6181324 C13.5512812,9.49814035 14.3353916,7.94501718 15.1064588,5.95876289 C15.7616806,4.27092429 15.3436863,1.64736949 12.7541277,0.756547896 C9.67340771,-0.303235789 8.36198058,1.91198722 6.87954681,4.03535405 C4.59972277,7.30086437 2.34748244,7.80592357 0.122825842,5.55053168" id="Path-22" stroke="#B6B8E2" stroke-width="4" stroke-dasharray="1"></path>
            </g>
        </g>
    </g>
</svg>