<?xml version="1.0" encoding="UTF-8"?>
<svg width="560px" height="540px" viewBox="0 0 560 540" version="1.1" xmlns="http://www.w3.org/2000/svg" xmlns:xlink="http://www.w3.org/1999/xlink">
    <!-- Generator: Sketch 52 (66869) - http://www.bohemiancoding.com/sketch -->
    <title>molecules / illustration - story_data</title>
    <desc>Created with Sketch.</desc>
    <defs>
        <path d="M266.191174,354.561129 C386.563997,302.101513 482.379511,173.394849 455.164392,81.0198407 C408.653627,-76.830572 325.921547,43.7966285 262.344699,58.2643486 C188.624425,75.0429249 90.1648992,27.9080337 36.8198715,79.4701979 C21.5890875,94.1919484 10.0354909,116.959309 3.78571325,151.559758 C-24.3506035,307.335849 145.818294,407.024159 266.191174,354.561129 Z" id="path-1"></path>
        <linearGradient x1="40.5328798%" y1="102.258229%" x2="60.3174603%" y2="38.8109212%" id="linearGradient-3">
            <stop stop-color="#FFFFFF" stop-opacity="0" offset="0%"></stop>
            <stop stop-color="#FFFFFF" offset="100%"></stop>
        </linearGradient>
        <path d="M24.7396721,3.6155102 C15.2760656,12.4020408 -1.07016393,34.0740816 0.440655738,78.2589796 C0.532404,81.0983662 0.940620359,83.918589 1.65770492,86.6671429 L12.0445902,126.774082 L47.842623,126.774082 C47.842623,126.774082 56.9914754,93.7720408 58.9009836,85.3428571 C63.7901639,63.86 56.802623,23.5428571 38.295082,3.90979592 C34.6175656,0.114014218 28.5778936,-0.0171060677 24.7396721,3.6155102 Z" id="path-4"></path>
        <linearGradient x1="51.31225%" y1="-26.954976%" x2="50.1637466%" y2="80.0608075%" id="linearGradient-6">
            <stop stop-color="#FFFFFF" stop-opacity="0" offset="0%"></stop>
            <stop stop-color="#FFFFFF" offset="100%"></stop>
        </linearGradient>
        <linearGradient x1="0%" y1="19.0297583%" x2="85.3456171%" y2="84.9589292%" id="linearGradient-7">
            <stop stop-color="#935DFF" offset="0%"></stop>
            <stop stop-color="#4B545F" offset="100%"></stop>
        </linearGradient>
        <linearGradient x1="0%" y1="19.0297583%" x2="89.0660891%" y2="87.83298%" id="linearGradient-8">
            <stop stop-color="#9C93F3" offset="0%"></stop>
            <stop stop-color="#4B545F" offset="100%"></stop>
        </linearGradient>
        <linearGradient x1="102.984909%" y1="1304.45718%" x2="-3.82394683%" y2="1304.45718%" id="linearGradient-9">
            <stop stop-color="#5805FC" offset="0%"></stop>
            <stop stop-color="#9460FB" offset="100%"></stop>
        </linearGradient>
    </defs>
    <g id="molecules-/-illustration---story_data" stroke="none" stroke-width="1" fill="none" fill-rule="evenodd">
        <g id="Group-26" transform="translate(4.000000, 42.000000)">
            <g>
                <g id="Group-5" transform="translate(282.794439, 257.422876) scale(-1, 1) rotate(22.000000) translate(-282.794439, -257.422876) translate(52.794439, 72.922876)">
                    <g id="Group-15" transform="translate(0.000000, -0.000000)">
                        <mask id="mask-2" fill="white">
                            <use xlink:href="#path-1"></use>
                        </mask>
                        <use id="Clip-4" fill="#F2F2FE" xlink:href="#path-1"></use>
                        <path d="M13.9023255,287.27907 C13.9023255,287.27907 84.7731403,177.112763 203.139352,229.384884 C321.505565,281.660742 391.195681,236.844859 376.497192,-40.1716106 C376.497192,-40.1716106 542.864815,-4.18292905 521.535138,179.081419 C495.64893,401.491023 161.520941,486.363645 13.9023255,287.27907" id="Fill-3" fill="#E4E5F8" mask="url(#mask-2)"></path>
                    </g>
                </g>
                <g id="Asset-6" transform="translate(85.000000, 100.000000)">
                    <path d="M23.0819672,96.3995918 L23.0819672,295.063469 L361.337705,295.063469 L361.337705,96.3995918 C361.337705,85.9512661 352.882492,77.4812245 342.452459,77.4812245 L41.9672131,77.4812245 C31.5371798,77.4812245 23.0819672,85.9512661 23.0819672,96.3995918 Z" id="Path" fill="#FFFFFF"></path>
                    <rect id="Rectangle" fill="#5805FC" x="36.4485246" y="96.4626531" width="308.668852" height="191.58"></rect>
                    <rect id="Rectangle" fill="#EAEAEF" fill-rule="nonzero" x="8.39344262" y="294.285714" width="367.213115" height="14.7142857" rx="7.34999967"></rect>
                    <polygon id="Path" fill="url(#linearGradient-3)" points="186.775082 124.882245 181.780984 288.463061 218.796066 288.463061 212.983607 123.705102"></polygon>
                    <path d="M142.940328,293.318776 C142.940094,295.859993 144.1568,299.359177 146.693335,299.393673 L236.716066,299.393673 C238.043122,299.412208 239.315065,298.862826 240.212602,297.883437 C241.110139,296.904048 241.548045,295.58765 241.416393,294.264694 L241.311475,293.318776 L142.940328,293.318776 Z" id="Path" fill="#393F5C"></path>
                    <path d="M188.327869,126.795102 C188.327869,126.795102 190.908852,156.749184 200.918033,162.067347 C200.918033,162.067347 208.556066,157.379796 212.396066,126.795102 L188.327869,126.795102 Z" id="Path" fill="#FFA94D"></path>
                    <path d="M171.163279,63.8810204 C171.163279,63.8810204 155.089836,99.6157143 154.88,108.717551 C154.670164,117.819388 168.309508,154.289796 170.722623,148.467143 C173.135738,142.64449 167.868852,125.071429 179.829508,117.588163 L174.289836,92.132449 C173.192365,87.7266567 172.490119,83.2314318 172.191475,78.7004082 C171.792787,74.4122449 171.415082,68.8208163 171.163279,63.8810204 Z" id="Path" fill="#8D8FB3"></path>
                    <path d="M229.41377,62.0312245 C229.41377,62.0312245 245.487213,97.7659184 245.697049,106.867755 C245.906885,115.969592 232.267541,152.44 229.854426,146.617347 C227.441311,140.794694 231.952787,124.146531 219.845246,116.684286 L226.287213,90.3877551 C227.393209,85.9836973 228.095577,81.4876955 228.385574,76.9557143 C228.721311,72.562449 229.161967,66.95 229.41377,62.0312245 Z" id="Path" fill="#8D8FB3"></path>
                    <g id="Group" transform="translate(169.967213, 0.000000)">
                        <g id="Rectangle">
                            <mask id="mask-5" fill="white">
                                <use xlink:href="#path-4"></use>
                            </mask>
                            <use id="Mask" fill="#D2D4EC" xlink:href="#path-4"></use>
                            <rect fill="#C6C7DC" fill-rule="nonzero" mask="url(#mask-5)" x="2.09836066" y="-10.5102041" width="58.7540984" height="33.6326531"></rect>
                        </g>
                    </g>
                    <g id="Group" opacity="0.42" transform="translate(170.967213, 51.448980)" fill="#8D8FB3">
                        <path d="M58.362623,2.27918367 C55.5697158,2.51393591 52.7620875,2.51393591 49.9691803,2.27918367 C44.7232787,2.11102041 37.3790164,1.94285714 29.4891803,1.92183673 C21.5993443,1.90081633 14.255082,2.06897959 9.00918033,2.21612245 C6.17338784,2.42935912 3.32562855,2.42935912 0.489836066,2.21612245 C3.24470449,1.57783285 6.05666534,1.21867905 8.88327869,1.14408163 C14.1291803,0.744693878 21.4734426,0.408367347 29.4262295,0.408367347 C37.3790164,0.408367347 44.7232787,0.786734694 49.9691803,1.20714286 C52.794845,1.29395285 55.6056138,1.65295439 58.362623,2.27918367 Z" id="Path"></path>
                    </g>
                    <g id="Group" opacity="0.42" transform="translate(170.967213, 54.653061)" fill="#8D8FB3">
                        <path d="M59.4327869,3.80469388 C56.514526,3.95762836 53.5887766,3.88031496 50.682623,3.57346939 C45.3108197,3.27918367 37.882623,2.87979592 29.6990164,2.5855102 C21.5154098,2.29122449 14.0662295,2.14408163 8.71540984,2.06 C5.80614561,2.15092231 2.89426689,2.01034468 0.00721311475,1.63959184 C2.88358788,1.15311693 5.79880842,0.93497155 8.71540984,0.987959184 C14.1081967,0.819795918 21.5783607,0.777755102 29.8039344,0.987959184 C38.0295082,1.19816327 45.4786885,1.87081633 50.787541,2.43836735 C53.7069569,2.60952034 56.6025717,3.06715399 59.4327869,3.80469388 Z" id="Path"></path>
                    </g>
                    <g id="Group" opacity="0.42" transform="translate(179.360656, 120.816327)" fill="#413351">
                        <path d="M39.5193443,0.975918367 C39.5193443,1.39632653 30.8321311,1.69061224 20.1304918,1.62755102 C9.42885246,1.5644898 0.720655738,1.20714286 0.720655738,0.786734694 C0.720655738,0.366326531 9.40786885,0.0720408163 20.1304918,0.135102041 C30.8531148,0.198163265 39.5193443,0.555510204 39.5193443,0.975918367 Z" id="Path"></path>
                    </g>
                    <path d="M213.634098,57.0493878 C213.113916,62.2125538 209.538384,66.5525753 204.576506,68.0435984 C199.614627,69.5346215 194.244822,67.8826351 190.973631,63.8587604 C187.702441,59.8348858 187.174902,54.2325807 189.637262,49.6669134 C192.099623,45.101246 197.066335,42.4725088 202.219016,43.0077551 C205.591897,43.3525245 208.689766,45.0258521 210.830685,47.6593857 C212.971604,50.2929192 213.980074,53.6707776 213.634098,57.0493878 Z" id="Path" fill="#5805FC"></path>
                    <path d="M183.480656,76.6404082 C183.480656,77.1628245 183.057895,77.5863265 182.536393,77.5863265 C182.161504,77.642154 181.788693,77.4730334 181.583278,77.1539589 C181.377863,76.8348845 181.377863,76.4249115 181.583278,76.105837 C181.788693,75.7867626 182.161504,75.6176419 182.536393,75.6734694 C182.790506,75.6734065 183.033918,75.7759458 183.211617,75.9579125 C183.389317,76.1398793 183.486303,76.385913 183.480656,76.6404082 Z" id="Path" fill="#8D8FB3" opacity="0.42"></path>
                    <path d="M183.480656,79.4571429 C183.48078,79.983066 183.061272,80.4126485 182.536393,80.4240816 C182.003303,80.4240816 181.571148,79.9911684 181.571148,79.4571429 C181.571148,78.9231173 182.003303,78.4902041 182.536393,78.4902041 C183.061272,78.5016372 183.48078,78.9312197 183.480656,79.4571429 Z" id="Path" fill="#8D8FB3" opacity="0.42"></path>
                    <path d="M183.480656,82.5681633 C183.480656,83.0905796 183.057895,83.5140816 182.536393,83.5140816 C182.161504,83.5699091 181.788693,83.4007885 181.583278,83.081714 C181.377863,82.7626396 181.377863,82.3526666 181.583278,82.0335921 C181.788693,81.7145177 182.161504,81.545397 182.536393,81.6012245 C182.790506,81.6011616 183.033918,81.7037009 183.211617,81.8856676 C183.389317,82.0676344 183.486303,82.3136681 183.480656,82.5681633 Z" id="Path" fill="#8D8FB3" opacity="0.42"></path>
                    <path d="M200.939016,76.7034694 C200.939016,76.7034694 195.714098,77.5022449 195.714098,102.390408 C195.714098,132.701837 197.329836,148.635306 199.91082,148.383061 C202.491803,148.130816 210.990164,75.295102 200.939016,76.7034694 Z" id="Path" fill="#8D8FB3"></path>
                    <path d="M1.00721311,293.318776 C0.188852459,268.535714 14.4367213,240.221224 36.3855738,229.753061 C59.0442879,219.390291 85.680571,223.476951 104.20459,240.158163 C110.919344,246.338163 117.151475,254.473061 126.111475,255.524082 C138.701639,256.99551 148.794754,243.689592 161.405902,242.911837 C178.192787,241.923878 189.20918,262.755102 205.84918,265.571837 C218.166557,267.673878 230.085246,259.265714 242.570492,259.602041 C251.698361,259.833265 260.343607,264.73102 269.492459,264.436735 C286.72,263.890204 298.198033,246.001837 314.061639,239.212245 C329.925246,232.422653 348.936393,237.530612 361.568525,249.323061 C374.200656,261.11551 380.852459,278.499388 382.824918,295.883265 L1.00721311,293.318776 Z" id="Path" fill="url(#linearGradient-6)"></path>
                    <g id="Group" opacity="0.3" transform="translate(9.393443, 197.591837)" fill="#FFFFFF">
                        <path d="M373.410492,94.8230612 C374.207869,61.1904082 360.274754,22.7020408 338.829508,8.47122449 C317.384262,-5.75959184 290.105574,0.0630612245 272.521311,22.5969388 C265.974426,31.005102 259.931148,42.0408163 251.118033,43.4702041 C238.842623,45.4671429 228.938361,27.4106122 216.6,26.4016327 C200.148852,25.0563265 189.42623,53.3708163 173.184918,57.1965306 C161.140328,60.0132653 149.473443,48.6202041 137.260984,49.0616327 C128.342951,49.3769388 119.886557,56.0404082 110.968525,55.6620408 C94.1816393,54.9053061 82.892459,30.6057143 67.3855738,21.2306122 C51.8786885,11.8555102 33.2872131,18.9183673 20.9488525,34.9779592 C8.6104918,51.037551 2.06360656,74.6014286 0.175081967,98.2283673 L373.410492,94.8230612 Z" id="Path"></path>
                    </g>
                </g>
                <g id="Group-Copy" transform="translate(266.000000, 174.000000) scale(-1, 1) translate(-266.000000, -174.000000) translate(61.000000, 21.000000)" fill-rule="nonzero">
                    <ellipse id="Oval" fill="url(#linearGradient-7)" cx="8.11961715" cy="108.706861" rx="7.79194372" ry="7.7962578"></ellipse>
                    <ellipse id="Oval-Copy-2" fill="url(#linearGradient-7)" cx="404.469821" cy="300.494802" rx="5.19462915" ry="5.1975052"></ellipse>
                    <ellipse id="Oval-Copy-2" fill="url(#linearGradient-8)" cx="164.194629" cy="5.1975052" rx="5.19462915" ry="5.1975052"></ellipse>
                    <circle id="Oval-Copy" fill="url(#linearGradient-8)" opacity="0.566894531" transform="translate(315.013873, 44.590777) rotate(-28.000000) translate(-315.013873, -44.590777) " cx="315.013873" cy="44.5907773" r="21.5"></circle>
                    <path d="M287.815484,41.2158285 C279.461083,42.0512705 274.196212,43.2615405 274.194629,44.6022142 C274.191691,47.0905924 292.321776,49.0859108 314.689308,49.0588828 C337.056841,49.0318547 355.19169,46.9927151 355.194629,44.5043369 C355.196272,43.1124698 349.524652,41.8748659 340.611527,41.0591541" id="Oval" stroke="#5805FC" stroke-width="2.63825065" opacity="0.566894531" stroke-linecap="round" transform="translate(314.694629, 45.059154) rotate(-28.000000) translate(-314.694629, -45.059154) "></path>
                </g>
                <path d="M363.762684,84.0161209 L363,82 L362.237316,84.0161209 C361.595745,85.7163728 360.067103,87.1521411 358,88 C360.067103,88.8478589 361.595745,90.2821159 362.237316,91.9838791 L363,94 L363.762684,91.9838791 C364.405892,90.2821159 365.932897,88.8478589 368,88 C365.932897,87.1521411 364.405892,85.7163728 363.762684,84.0161209" id="Fill-28-Copy-3" fill="#C7CCEA"></path>
                <path d="M407.762684,146.016121 L407,144 L406.237316,146.016121 C405.595745,147.716373 404.067103,149.152141 402,150 C404.067103,150.847859 405.595745,152.282116 406.237316,153.983879 L407,156 L407.762684,153.983879 C408.405892,152.282116 409.932897,150.847859 412,150 C409.932897,149.152141 408.405892,147.716373 407.762684,146.016121" id="Fill-28-Copy-13" fill="#FFFFFF"></path>
                <path d="M56.7626841,268.016121 L56,266 L55.2373159,268.016121 C54.5957447,269.716373 53.0671031,271.152141 51,272 C53.0671031,272.847859 54.5957447,274.282116 55.2373159,275.983879 L56,278 L56.7626841,275.983879 C57.405892,274.282116 58.9328969,272.847859 61,272 C58.9328969,271.152141 57.405892,269.716373 56.7626841,268.016121" id="Fill-28-Copy-9" fill="#FFFFFF"></path>
                <path d="M501.762684,112.016121 L501,110 L500.237316,112.016121 C499.595745,113.716373 498.067103,115.152141 496,116 C498.067103,116.847859 499.595745,118.282116 500.237316,119.983879 L501,122 L501.762684,119.983879 C502.405892,118.282116 503.932897,116.847859 506,116 C503.932897,115.152141 502.405892,113.716373 501.762684,112.016121" id="Fill-28-Copy-16" fill="#C6CBE9"></path>
                <path d="M53.7626841,94.0161209 L53,92 L52.2373159,94.0161209 C51.5957447,95.7163728 50.0671031,97.1521411 48,98 C50.0671031,98.8478589 51.5957447,100.282116 52.2373159,101.983879 L53,104 L53.7626841,101.983879 C54.405892,100.282116 55.9328969,98.8478589 58,98 C55.9328969,97.1521411 54.405892,95.7163728 53.7626841,94.0161209" id="Fill-28-Copy-10" fill="#E4E5F8"></path>
                <path d="M223.45761,7.17607053 L223,6 L222.54239,7.17607053 C222.157447,8.16788413 221.240262,9.00541562 220,9.5 C221.240262,9.99458438 222.157447,10.8312343 222.54239,11.8239295 L223,13 L223.45761,11.8239295 C223.843535,10.8312343 224.759738,9.99458438 226,9.5 C224.759738,9.00541562 223.843535,8.16788413 223.45761,7.17607053" id="Fill-28-Copy-7" fill="#C7CCEA"></path>
                <path d="M373.45761,70.1760705 L373,69 L372.54239,70.1760705 C372.157447,71.1678841 371.240262,72.0054156 370,72.5 C371.240262,72.9945844 372.157447,73.8312343 372.54239,74.8239295 L373,76 L373.45761,74.8239295 C373.843535,73.8312343 374.759738,72.9945844 376,72.5 C374.759738,72.0054156 373.843535,71.1678841 373.45761,70.1760705" id="Fill-28-Copy-12" fill="#C7CCEA"></path>
                <path d="M147.033879,117.344081 L146.5,116 L145.966121,117.344081 C145.517021,118.477582 144.446972,119.434761 143,120 C144.446972,120.565239 145.517021,121.521411 145.966121,122.655919 L146.5,124 L147.033879,122.655919 C147.484124,121.521411 148.553028,120.565239 150,120 C148.553028,119.434761 147.484124,118.477582 147.033879,117.344081" id="Fill-28-Copy-8" fill="#C7CCEA"></path>
                <path d="M489.033879,358.344081 L488.5,357 L487.966121,358.344081 C487.517021,359.477582 486.446972,360.434761 485,361 C486.446972,361.565239 487.517021,362.521411 487.966121,363.655919 L488.5,365 L489.033879,363.655919 C489.484124,362.521411 490.553028,361.565239 492,361 C490.553028,360.434761 489.484124,359.477582 489.033879,358.344081" id="Fill-28-Copy-15" fill="#C7CCEA"></path>
                <path d="M485.033879,226.344081 L484.5,225 L483.966121,226.344081 C483.517021,227.477582 482.446972,228.434761 481,229 C482.446972,229.565239 483.517021,230.521411 483.966121,231.655919 L484.5,233 L485.033879,231.655919 C485.484124,230.521411 486.553028,229.565239 488,229 C486.553028,228.434761 485.484124,227.477582 485.033879,226.344081" id="Fill-28-Copy-11" fill="#FFFFFF"></path>
                <path d="M427.033879,157.344081 L426.5,156 L425.966121,157.344081 C425.517021,158.477582 424.446972,159.434761 423,160 C424.446972,160.565239 425.517021,161.521411 425.966121,162.655919 L426.5,164 L427.033879,162.655919 C427.484124,161.521411 428.553028,160.565239 430,160 C428.553028,159.434761 427.484124,158.477582 427.033879,157.344081" id="Fill-28-Copy-14" fill="#FFFFFF"></path>
                <rect id="Rectangle" fill="url(#linearGradient-9)" fill-rule="nonzero" x="134" y="221" width="51" height="4" rx="2"></rect>
                <rect id="Rectangle-Copy-19" fill="url(#linearGradient-9)" fill-rule="nonzero" x="133" y="289" width="51" height="4" rx="2"></rect>
                <rect id="Rectangle-Copy-9" fill="#905AFB" fill-rule="nonzero" x="134" y="245" width="12" height="4" rx="2"></rect>
                <rect id="Rectangle-Copy-18" fill="url(#linearGradient-9)" fill-rule="nonzero" x="151" y="245" width="49" height="4" rx="2"></rect>
                <rect id="Rectangle-Copy-15" fill="#905AFB" fill-rule="nonzero" x="134" y="269" width="25" height="4" rx="2"></rect>
                <rect id="Rectangle-Copy-16" fill="url(#linearGradient-9)" fill-rule="nonzero" x="165" y="269" width="38" height="4" rx="2"></rect>
                <rect id="Rectangle-Copy-2" fill="url(#linearGradient-9)" fill-rule="nonzero" x="134" y="233" width="84" height="4" rx="2"></rect>
                <rect id="Rectangle-Copy-20" fill="url(#linearGradient-9)" fill-rule="nonzero" x="133" y="301" width="84" height="4" rx="2"></rect>
                <rect id="Rectangle-Copy-10" fill="url(#linearGradient-9)" fill-rule="nonzero" x="134" y="257" width="121" height="4" rx="2"></rect>
            </g>
        </g>
    </g>
</svg>