<?xml version="1.0" encoding="UTF-8"?>
<svg width="200px" height="200px" viewBox="0 0 200 200" version="1.1" xmlns="http://www.w3.org/2000/svg" xmlns:xlink="http://www.w3.org/1999/xlink">
    <!-- Generator: Sketch 52 (66869) - http://www.bohemiancoding.com/sketch -->
    <title>atoms / illustration - accuweather</title>
    <desc>Created with Sketch.</desc>
    <g id="atoms-/-illustration---accuweather" stroke="none" stroke-width="1" fill="none" fill-rule="evenodd">
        <g id="Group-3" transform="translate(51.000000, 51.000000)">
            <g id="3-accuweather">
                <circle id="Oval" fill="#2D2E3D" cx="49.3768912" cy="49.3768912" r="49.3768912"></circle>
                <polygon id="Path" fill="#C6C7DC" points="77.0519689 57.0878238 84.5513472 49.7782383 76.985285 42.4019689 79.7911399 32.204456 69.7218653 29.7063731 67.1570984 19.652487 57.0826943 22.4891192 49.7782383 15 42.4019689 22.5660622 32.204456 19.7602073 29.7166321 29.8294819 19.6627461 32.3942487 22.4993782 42.4635233 15 49.7782383 22.5660622 57.1493782 19.7602073 67.3366321 29.8294819 69.834715 32.3942487 79.8937306 42.4635233 77.0519689 49.7731088 84.5513472 57.1442487 76.985285 67.3315026 79.7911399 69.8295855 69.7218653 79.888601 67.1570984"></polygon>
                <circle id="Oval" fill="#2D2E3D" cx="50.2011399" cy="49.2011399" r="23.2011399"></circle>
                <circle id="Oval" fill="#C6C7DC" cx="49.9927461" cy="48.9927461" r="19.9927461"></circle>
            </g>
        </g>
    </g>
</svg>