<?xml version="1.0" encoding="UTF-8"?>
<svg width="409px" height="253px" viewBox="0 0 409 253" version="1.1" xmlns="http://www.w3.org/2000/svg" xmlns:xlink="http://www.w3.org/1999/xlink">
    <!-- Generator: Sketch 52 (66869) - http://www.bohemiancoding.com/sketch -->
    <title>Group 15</title>
    <desc>Created with Sketch.</desc>
    <defs>
        <linearGradient x1="0%" y1="19.0297583%" x2="85.3456171%" y2="84.9589292%" id="linearGradient-1">
            <stop stop-color="#935DFF" offset="0%"></stop>
            <stop stop-color="#4B545F" offset="100%"></stop>
        </linearGradient>
        <linearGradient x1="0%" y1="19.0297583%" x2="89.0660891%" y2="87.83298%" id="linearGradient-2">
            <stop stop-color="#9C93F3" offset="0%"></stop>
            <stop stop-color="#4B545F" offset="100%"></stop>
        </linearGradient>
    </defs>
    <g id="-----Home-(1.1)-Mobile" stroke="none" stroke-width="1" fill="none" fill-rule="evenodd" opacity="0.650530134">
        <g id="1.home" transform="translate(-983.000000, -1082.000000)">
            <g id="bg-of-second-section" transform="translate(48.000000, 1072.000000)">
                <g id="Group-15" transform="translate(935.000000, 4.000000)">
                    <g id="Group-89" transform="translate(0.124294, 45.100000)" fill="#C7CCEA">
                        <path d="M299.237057,3.27619647 L298.146893,0 L297.056728,3.27619647 C296.13968,6.03910579 293.954673,8.37222922 291,9.75 C293.954673,11.1277708 296.13968,13.4584383 297.056728,16.2238035 L298.146893,19.5 L299.237057,16.2238035 C300.156444,13.4584383 302.339113,11.1277708 305.293785,9.75 C302.339113,8.37222922 300.156444,6.03910579 299.237057,3.27619647" id="Fill-28-Copy"></path>
                        <path d="M5.76268412,36.3521411 L5,34 L4.23731588,36.3521411 C3.59574468,38.3357683 2.06710311,40.0108312 0,41 C2.06710311,41.9891688 3.59574468,43.6624685 4.23731588,45.6478589 L5,48 L5.76268412,45.6478589 C6.40589198,43.6624685 7.93289689,41.9891688 10,41 C7.93289689,40.0108312 6.40589198,38.3357683 5.76268412,36.3521411" id="Fill-28-Copy-3"></path>
                        <path d="M366.762684,202.352141 L366,200 L365.237316,202.352141 C364.595745,204.335768 363.067103,206.010831 361,207 C363.067103,207.989169 364.595745,209.662469 365.237316,211.647859 L366,214 L366.762684,211.647859 C367.405892,209.662469 368.932897,207.989169 371,207 C368.932897,206.010831 367.405892,204.335768 366.762684,202.352141" id="Fill-28-Copy-4"></path>
                        <path d="M222.033879,86.6801008 L221.5,85 L220.966121,86.6801008 C220.517021,88.0969773 219.446972,89.2934509 218,90 C219.446972,90.7065491 220.517021,91.9017632 220.966121,93.3198992 L221.5,95 L222.033879,93.3198992 C222.484124,91.9017632 223.553028,90.7065491 225,90 C223.553028,89.2934509 222.484124,88.0969773 222.033879,86.6801008" id="Fill-28-Copy-5"></path>
                        <path d="M163.796563,197.360202 L162.5,194 L161.203437,197.360202 C160.112766,200.193955 157.514075,202.586902 154,204 C157.514075,205.413098 160.112766,207.803526 161.203437,210.639798 L162.5,214 L163.796563,210.639798 C164.890016,207.803526 167.485925,205.413098 171,204 C167.485925,202.586902 164.890016,200.193955 163.796563,197.360202" id="Fill-28-Copy-2"></path>
                    </g>
                    <ellipse id="Oval" fill="url(#linearGradient-1)" fill-rule="nonzero" cx="147.892655" cy="17.55" rx="16.8926554" ry="17.55"></ellipse>
                    <circle id="Oval-Copy-2" fill="url(#linearGradient-2)" fill-rule="nonzero" cx="57" cy="185" r="7"></circle>
                    <g id="Group-5" transform="translate(306.000000, 132.000000)" fill-rule="nonzero">
                        <ellipse id="Oval-Copy" fill="url(#linearGradient-2)" transform="translate(57.840735, 46.972997) rotate(-28.000000) translate(-57.840735, -46.972997) " cx="57.8407349" cy="46.9729972" rx="33.3443465" ry="33.2609589"></ellipse>
                        <path d="M16.875986,41.289736 C3.83973729,42.5349009 -4.37237788,44.371212 -4.36854598,46.4330881 C-4.36143374,50.2600647 23.9467466,53.4149094 58.8595445,53.4796308 C93.7723425,53.5443523 122.068992,50.4944419 122.061879,46.6674652 C122.057901,44.5268569 113.199391,42.596538 99.283281,41.2996629" id="Oval" stroke="#5805FC" stroke-width="4.13513089" stroke-linecap="round" transform="translate(58.846667, 47.385189) rotate(-28.000000) translate(-58.846667, -47.385189) "></path>
                    </g>
                </g>
            </g>
        </g>
    </g>
</svg>