<?xml version="1.0" encoding="UTF-8"?>
<svg width="399px" height="185px" viewBox="0 0 399 185" version="1.1" xmlns="http://www.w3.org/2000/svg" xmlns:xlink="http://www.w3.org/1999/xlink">
    <!-- Generator: Sketch 52 (66869) - http://www.bohemiancoding.com/sketch -->
    <title>Group 15</title>
    <desc>Created with Sketch.</desc>
    <defs>
        <linearGradient x1="0%" y1="19.0297583%" x2="85.3456171%" y2="84.9589292%" id="linearGradient-1">
            <stop stop-color="#935DFF" offset="0%"></stop>
            <stop stop-color="#4B545F" offset="100%"></stop>
        </linearGradient>
        <linearGradient x1="0%" y1="19.0297583%" x2="89.0660891%" y2="87.83298%" id="linearGradient-2">
            <stop stop-color="#9C93F3" offset="0%"></stop>
            <stop stop-color="#4B545F" offset="100%"></stop>
        </linearGradient>
    </defs>
    <g id="-----Home-(1.1)-Mobile" stroke="none" stroke-width="1" fill="none" fill-rule="evenodd" opacity="0.646796">
        <g id="1.home" transform="translate(-993.000000, -8018.000000)">
            <g id="Group-25" transform="translate(48.000000, 7976.000000)">
                <g id="Group-15" transform="translate(945.000000, 42.000000)">
                    <g id="Group-89" transform="translate(0.124294, 10.100000)" fill="#C7CCEA">
                        <path d="M334.237057,3.27619647 L333.146893,0 L332.056728,3.27619647 C331.13968,6.03910579 328.954673,8.37222922 326,9.75 C328.954673,11.1277708 331.13968,13.4584383 332.056728,16.2238035 L333.146893,19.5 L334.237057,16.2238035 C335.156444,13.4584383 337.339113,11.1277708 340.293785,9.75 C337.339113,8.37222922 335.156444,6.03910579 334.237057,3.27619647" id="Fill-28-Copy"></path>
                        <path d="M113.762684,163.352141 L113,161 L112.237316,163.352141 C111.595745,165.335768 110.067103,167.010831 108,168 C110.067103,168.989169 111.595745,170.662469 112.237316,172.647859 L113,175 L113.762684,172.647859 C114.405892,170.662469 115.932897,168.989169 118,168 C115.932897,167.010831 114.405892,165.335768 113.762684,163.352141" id="Fill-28-Copy-3"></path>
                        <path d="M5.76268412,66.3521411 L5,64 L4.23731588,66.3521411 C3.59574468,68.3357683 2.06710311,70.0108312 0,71 C2.06710311,71.9891688 3.59574468,73.6624685 4.23731588,75.6478589 L5,78 L5.76268412,75.6478589 C6.40589198,73.6624685 7.93289689,71.9891688 10,71 C7.93289689,70.0108312 6.40589198,68.3357683 5.76268412,66.3521411" id="Fill-28-Copy-6"></path>
                        <path d="M338.45761,142.344081 L338,141 L337.54239,142.344081 C337.157447,143.477582 336.240262,144.434761 335,145 C336.240262,145.565239 337.157447,146.521411 337.54239,147.655919 L338,149 L338.45761,147.655919 C338.843535,146.521411 339.759738,145.565239 341,145 C339.759738,144.434761 338.843535,143.477582 338.45761,142.344081" id="Fill-28-Copy-7"></path>
                        <path d="M329.762684,161.352141 L329,159 L328.237316,161.352141 C327.595745,163.335768 326.067103,165.010831 324,166 C326.067103,166.989169 327.595745,168.662469 328.237316,170.647859 L329,173 L329.762684,170.647859 C330.405892,168.662469 331.932897,166.989169 334,166 C331.932897,165.010831 330.405892,163.335768 329.762684,161.352141" id="Fill-28-Copy-4"></path>
                        <path d="M231.033879,79.6801008 L230.5,78 L229.966121,79.6801008 C229.517021,81.0969773 228.446972,82.2934509 227,83 C228.446972,83.7065491 229.517021,84.9017632 229.966121,86.3198992 L230.5,88 L231.033879,86.3198992 C231.484124,84.9017632 232.553028,83.7065491 234,83 C232.553028,82.2934509 231.484124,81.0969773 231.033879,79.6801008" id="Fill-28-Copy-5"></path>
                        <path d="M19.796563,36.3602015 L18.5,33 L17.203437,36.3602015 C16.112766,39.1939547 13.5140753,41.5869018 10,43 C13.5140753,44.4130982 16.112766,46.8035264 17.203437,49.6397985 L18.5,53 L19.796563,49.6397985 C20.8900164,46.8035264 23.4859247,44.4130982 27,43 C23.4859247,41.5869018 20.8900164,39.1939547 19.796563,36.3602015" id="Fill-28-Copy-2"></path>
                    </g>
                    <ellipse id="Oval" fill="url(#linearGradient-1)" fill-rule="nonzero" cx="390.5" cy="23.5" rx="22.5" ry="23.5"></ellipse>
                    <circle id="Oval-Copy-2" fill="url(#linearGradient-2)" fill-rule="nonzero" transform="translate(97.500000, 10.500000) scale(-1, 1) translate(-97.500000, -10.500000) " cx="97.5" cy="10.5" r="7.5"></circle>
                    <g id="Group-5" transform="translate(154.000000, 115.500000) scale(-1, 1) translate(-154.000000, -115.500000) translate(97.000000, 71.000000)" fill-rule="nonzero">
                        <ellipse id="Oval-Copy" fill="url(#linearGradient-2)" transform="translate(55.156444, 45.293573) rotate(-28.000000) translate(-55.156444, -45.293573) " cx="55.1564437" cy="45.2935726" rx="31.8749945" ry="31.9934617"></ellipse>
                        <path d="M15.9812971,40.0212965 C3.5139237,41.2765978 -4.34447765,43.0792144 -4.34992156,45.0625131 C-4.36002581,48.7436449 22.6869661,51.6532528 56.0612258,51.5613041 C89.4354854,51.4693554 116.49886,48.4106693 116.508964,44.7295374 C116.514616,42.670507 108.054936,40.8528626 94.7576957,39.6668656" id="Oval" stroke="#5805FC" stroke-width="3.96972557" stroke-linecap="round" transform="translate(56.079521, 45.615145) rotate(-28.000000) translate(-56.079521, -45.615145) "></path>
                    </g>
                </g>
            </g>
        </g>
    </g>
</svg>