<svg width="40" height="125" xmlns="http://www.w3.org/2000/svg"><path d="M5.664 60.758c-.81-.053-1.216-.287-1.216-.702 0-.416.405-.641 1.216-.678 7.942-.758 11.366-5.586 11.366-15.655v-23.93c0-11.38 5.477-16.62 17.46-16.62h3.275a1.586 1.586 0 1 0 0-3.172l-1.7-.001c-16.297 0-22.39 5.793-22.39 21.103v20.138c0 11.724-3.61 14.77-10.322 15.815-.796-.041-3.353.75-3.353 3.271.022 2.462 2.152 2.874 3.61 2.938 6.44.12 10.065 4.044 10.065 15.63v24.069c0 15.655 6.299 21.724 22.39 21.724h1.734a1.552 1.552 0 1 0 0-3.103h-3.31c-11.571 0-17.46-5.656-17.46-16.69V76.48c0-10.206-3.423-14.965-11.365-15.723z" fill="#03DAC5" fill-rule="evenodd"/></svg>
