<?xml version="1.0" encoding="UTF-8"?>
<svg version="1.1" viewBox="0 0 686 284" xmlns="http://www.w3.org/2000/svg">
<title>molecules / illustration - dashboard</title>
<desc>Created with Sketch.</desc>
<defs>
<filter id="a" x="-78.5%" y="-119.9%" width="257%" height="339.9%">
<feOffset dx="0" dy="15" in="SourceAlpha" result="shadowOffsetOuter1"/>
<feGaussianBlur in="shadowOffsetOuter1" result="shadowBlurOuter1" stdDeviation="154.5"/>
<feColorMatrix in="shadowBlurOuter1" result="shadowMatrixOuter1" values="0 0 0 0 0   0 0 0 0 0   0 0 0 0 0  0 0 0 0.295346467 0"/>
<feMerge>
<feMergeNode in="shadowMatrixOuter1"/>
<feMergeNode in="SourceGraphic"/>
</feMerge>
</filter>
</defs>
<g fill="none" fill-rule="evenodd">
<path d="m440.78 82.6h1.656v8.4h-1.656v-8.4zm9.076 0h1.656v8.4h-1.26l-3.6-5.136v5.136h-1.656v-8.4h1.26l3.6 5.124v-5.124zm6.952 8.568c-0.832 0-1.532-0.186-2.1-0.558s-0.968-0.878-1.2-1.518l1.416-0.828c0.328 0.856 0.972 1.284 1.932 1.284 0.464 0 0.804-0.083999 1.02-0.252s0.324-0.38 0.324-0.636c0-0.296-0.132-0.526-0.396-0.69s-0.736-0.342-1.416-0.534c-0.376-0.112-0.694-0.224-0.954-0.336s-0.52-0.262-0.78-0.45-0.458-0.426-0.594-0.714-0.204-0.624-0.204-1.008c0-0.76 0.27-1.366 0.81-1.818s1.19-0.678 1.95-0.678c0.68 0 1.278 0.166 1.794 0.498s0.918 0.794 1.206 1.386l-1.392 0.804c-0.336-0.72-0.872-1.08-1.608-1.08-0.344 0-0.614 0.077999-0.81 0.234s-0.294 0.358-0.294 0.606c0 0.264 0.11 0.478 0.33 0.642s0.642 0.342 1.266 0.534c0.256 0.08 0.45 0.142 0.582 0.186s0.312 0.112 0.54 0.204 0.404 0.178 0.528 0.258 0.266 0.188 0.426 0.324 0.282 0.276 0.366 0.42 0.156 0.318 0.216 0.522 0.09 0.426 0.09 0.666c0 0.776-0.282 1.392-0.846 1.848s-1.298 0.684-2.202 0.684zm5.068-8.568h1.656v8.4h-1.656v-8.4zm12.46 3.888v0.648c0 1.2-0.384 2.172-1.152 2.916s-1.76 1.116-2.976 1.116c-1.296 0-2.37-0.422-3.222-1.266s-1.278-1.874-1.278-3.09c0-1.224 0.422-2.26 1.266-3.108s1.89-1.272 3.138-1.272c0.784 0 1.5 0.178 2.148 0.534s1.152 0.83 1.512 1.422l-1.416 0.816c-0.2-0.344-0.502-0.624-0.906-0.84s-0.854-0.324-1.35-0.324c-0.8 0-1.458 0.262-1.974 0.786s-0.774 1.186-0.774 1.986c0 0.792 0.262 1.446 0.786 1.962s1.218 0.774 2.082 0.774c0.64 0 1.17-0.142 1.59-0.426s0.706-0.674 0.858-1.17h-2.544v-1.464h4.212zm6.952-3.888h1.644v8.4h-1.644v-3.48h-3.12v3.48h-1.656v-8.4h1.656v3.336h3.12v-3.336zm9.76 0v1.584h-2.268v6.816h-1.656v-6.816h-2.256v-1.584h6.18zm4.792 8.568c-0.832 0-1.532-0.186-2.1-0.558s-0.968-0.878-1.2-1.518l1.416-0.828c0.328 0.856 0.972 1.284 1.932 1.284 0.464 0 0.804-0.083999 1.02-0.252s0.324-0.38 0.324-0.636c0-0.296-0.132-0.526-0.396-0.69s-0.736-0.342-1.416-0.534c-0.376-0.112-0.694-0.224-0.954-0.336s-0.52-0.262-0.78-0.45-0.458-0.426-0.594-0.714-0.204-0.624-0.204-1.008c0-0.76 0.27-1.366 0.81-1.818s1.19-0.678 1.95-0.678c0.68 0 1.278 0.166 1.794 0.498s0.918 0.794 1.206 1.386l-1.392 0.804c-0.336-0.72-0.872-1.08-1.608-1.08-0.344 0-0.614 0.077999-0.81 0.234s-0.294 0.358-0.294 0.606c0 0.264 0.11 0.478 0.33 0.642s0.642 0.342 1.266 0.534c0.256 0.08 0.45 0.142 0.582 0.186s0.312 0.112 0.54 0.204 0.404 0.178 0.528 0.258 0.266 0.188 0.426 0.324 0.282 0.276 0.366 0.42 0.156 0.318 0.216 0.522 0.09 0.426 0.09 0.666c0 0.776-0.282 1.392-0.846 1.848s-1.298 0.684-2.202 0.684z" fill="#C6C7DC"/>
<path d="m446.34 15.6v1.584h-2.268v6.816h-1.656v-6.816h-2.256v-1.584h6.18zm6.532 8.4l-1.692-2.916h-1.26v2.916h-1.656v-8.4h3.36c0.776 0 1.436 0.272 1.98 0.816s0.816 1.2 0.816 1.968c0 0.52-0.148 1.002-0.444 1.446s-0.688 0.778-1.176 1.002l1.86 3.168h-1.788zm-2.952-6.852v2.484h1.704c0.312 0 0.58-0.122 0.804-0.366s0.336-0.538 0.336-0.882-0.112-0.636-0.336-0.876-0.492-0.36-0.804-0.36h-1.704zm8.368 5.268h3.54v1.584h-5.196v-8.4h5.136v1.584h-3.48v1.788h3.18v1.56h-3.18v1.884zm10.564-6.816h1.656v8.4h-1.26l-3.6-5.136v5.136h-1.656v-8.4h1.26l3.6 5.124v-5.124zm7.552 0c1.152 0 2.114 0.404 2.886 1.212s1.158 1.804 1.158 2.988-0.386 2.18-1.158 2.988-1.734 1.212-2.886 1.212h-3.336v-8.4h3.336zm0 6.816c0.728 0 1.32-0.242 1.776-0.726s0.684-1.114 0.684-1.89-0.228-1.406-0.684-1.89-1.048-0.726-1.776-0.726h-1.68v5.232h1.68zm8.788 1.752c-0.832 0-1.532-0.186-2.1-0.558s-0.968-0.878-1.2-1.518l1.416-0.828c0.328 0.856 0.972 1.284 1.932 1.284 0.464 0 0.804-0.083999 1.02-0.252s0.324-0.38 0.324-0.636c0-0.296-0.132-0.526-0.396-0.69s-0.736-0.342-1.416-0.534c-0.376-0.112-0.694-0.224-0.954-0.336s-0.52-0.262-0.78-0.45-0.458-0.426-0.594-0.714-0.204-0.624-0.204-1.008c0-0.76 0.27-1.366 0.81-1.818s1.19-0.678 1.95-0.678c0.68 0 1.278 0.166 1.794 0.498s0.918 0.794 1.206 1.386l-1.392 0.804c-0.336-0.72-0.872-1.08-1.608-1.08-0.344 0-0.614 0.077999-0.81 0.234s-0.294 0.358-0.294 0.606c0 0.264 0.11 0.478 0.33 0.642s0.642 0.342 1.266 0.534c0.256 0.08 0.45 0.142 0.582 0.186s0.312 0.112 0.54 0.204 0.404 0.178 0.528 0.258 0.266 0.188 0.426 0.324 0.282 0.276 0.366 0.42 0.156 0.318 0.216 0.522 0.09 0.426 0.09 0.666c0 0.776-0.282 1.392-0.846 1.848s-1.298 0.684-2.202 0.684z" fill="#C6C7DC"/>
<path d="m449 182.6v8.4h-1.644v-5.448l-2.364 3.9h-0.192l-2.364-3.888v5.436h-1.656v-8.4h1.704l2.412 3.972 2.4-3.972h1.704zm4.216 6.816h3.54v1.584h-5.196v-8.4h5.136v1.584h-3.48v1.788h3.18v1.56h-3.18v1.884zm11.26-6.816v1.584h-2.268v6.816h-1.656v-6.816h-2.256v-1.584h6.18zm6.532 8.4l-1.692-2.916h-1.26v2.916h-1.656v-8.4h3.36c0.776 0 1.436 0.272 1.98 0.816s0.816 1.2 0.816 1.968c0 0.52-0.148 1.002-0.444 1.446s-0.688 0.778-1.176 1.002l1.86 3.168h-1.788zm-2.952-6.852v2.484h1.704c0.312 0 0.58-0.122 0.804-0.366s0.336-0.538 0.336-0.882-0.112-0.636-0.336-0.876-0.492-0.36-0.804-0.36h-1.704zm6.712-1.548h1.656v8.4h-1.656v-8.4zm8.2 8.568c-1.264 0-2.308-0.42-3.132-1.26s-1.236-1.876-1.236-3.108c0-1.24 0.412-2.278 1.236-3.114s1.868-1.254 3.132-1.254c0.76 0 1.462 0.178 2.106 0.534s1.146 0.838 1.506 1.446l-1.428 0.828c-0.208-0.376-0.504-0.67-0.888-0.882s-0.816-0.318-1.296-0.318c-0.816 0-1.474 0.256-1.974 0.768s-0.75 1.176-0.75 1.992c0 0.808 0.25 1.468 0.75 1.98s1.158 0.768 1.974 0.768c0.48 0 0.914-0.106 1.302-0.318s0.682-0.502 0.882-0.87l1.428 0.828c-0.36 0.608-0.86 1.09-1.5 1.446s-1.344 0.534-2.112 0.534zm8.5 0c-0.832 0-1.532-0.186-2.1-0.558s-0.968-0.878-1.2-1.518l1.416-0.828c0.328 0.856 0.972 1.284 1.932 1.284 0.464 0 0.804-0.083999 1.02-0.252s0.324-0.38 0.324-0.636c0-0.296-0.132-0.526-0.396-0.69s-0.736-0.342-1.416-0.534c-0.376-0.112-0.694-0.224-0.954-0.336s-0.52-0.262-0.78-0.45-0.458-0.426-0.594-0.714-0.204-0.624-0.204-1.008c0-0.76 0.27-1.366 0.81-1.818s1.19-0.678 1.95-0.678c0.68 0 1.278 0.166 1.794 0.498s0.918 0.794 1.206 1.386l-1.392 0.804c-0.336-0.72-0.872-1.08-1.608-1.08-0.344 0-0.614 0.077999-0.81 0.234s-0.294 0.358-0.294 0.606c0 0.264 0.11 0.478 0.33 0.642s0.642 0.342 1.266 0.534c0.256 0.08 0.45 0.142 0.582 0.186s0.312 0.112 0.54 0.204 0.404 0.178 0.528 0.258 0.266 0.188 0.426 0.324 0.282 0.276 0.366 0.42 0.156 0.318 0.216 0.522 0.09 0.426 0.09 0.666c0 0.776-0.282 1.392-0.846 1.848s-1.298 0.684-2.202 0.684z" fill="#C6C7DC"/>
<path d="m442.44 275.42h3.204v1.584h-4.86v-8.4h1.656v6.816zm11.692 0.492c-0.848 0.84-1.88 1.26-3.096 1.26s-2.246-0.422-3.09-1.266-1.266-1.878-1.266-3.102 0.422-2.258 1.266-3.102 1.874-1.266 3.09-1.266 2.248 0.422 3.096 1.266 1.272 1.878 1.272 3.102-0.424 2.26-1.272 3.108zm-5.028-1.128c0.52 0.512 1.164 0.768 1.932 0.768s1.412-0.258 1.932-0.774 0.78-1.174 0.78-1.974-0.26-1.46-0.78-1.98-1.164-0.78-1.932-0.78-1.412 0.26-1.932 0.78-0.78 1.18-0.78 1.98 0.26 1.46 0.78 1.98zm16.708-2.292v0.648c0 1.2-0.384 2.172-1.152 2.916s-1.76 1.116-2.976 1.116c-1.296 0-2.37-0.422-3.222-1.266s-1.278-1.874-1.278-3.09c0-1.224 0.422-2.26 1.266-3.108s1.89-1.272 3.138-1.272c0.784 0 1.5 0.178 2.148 0.534s1.152 0.83 1.512 1.422l-1.416 0.816c-0.2-0.344-0.502-0.624-0.906-0.84s-0.854-0.324-1.35-0.324c-0.8 0-1.458 0.262-1.974 0.786s-0.774 1.186-0.774 1.986c0 0.792 0.262 1.446 0.786 1.962s1.218 0.774 2.082 0.774c0.64 0 1.17-0.142 1.59-0.426s0.706-0.674 0.858-1.17h-2.544v-1.464h4.212zm4.744 4.68c-0.832 0-1.532-0.186-2.1-0.558s-0.968-0.878-1.2-1.518l1.416-0.828c0.328 0.856 0.972 1.284 1.932 1.284 0.464 0 0.804-0.083999 1.02-0.252s0.324-0.38 0.324-0.636c0-0.296-0.132-0.526-0.396-0.69s-0.736-0.342-1.416-0.534c-0.376-0.112-0.694-0.224-0.954-0.336s-0.52-0.262-0.78-0.45-0.458-0.426-0.594-0.714-0.204-0.624-0.204-1.008c0-0.76 0.27-1.366 0.81-1.818s1.19-0.678 1.95-0.678c0.68 0 1.278 0.166 1.794 0.498s0.918 0.794 1.206 1.386l-1.392 0.804c-0.336-0.72-0.872-1.08-1.608-1.08-0.344 0-0.614 0.077999-0.81 0.234s-0.294 0.358-0.294 0.606c0 0.264 0.11 0.478 0.33 0.642s0.642 0.342 1.266 0.534c0.256 0.08 0.45 0.142 0.582 0.186s0.312 0.112 0.54 0.204 0.404 0.178 0.528 0.258 0.266 0.188 0.426 0.324 0.282 0.276 0.366 0.42 0.156 0.318 0.216 0.522 0.09 0.426 0.09 0.666c0 0.776-0.282 1.392-0.846 1.848s-1.298 0.684-2.202 0.684z" fill="#C6C7DC"/>
<g filter="url(#a)">
<rect x="-5.6843e-14" y=".12235" width="413.58" height="270.31" rx="12.24" fill="#21212A"/>
<path d="m12.249 0h389.08c6.7647 4.1375e-16 12.249 5.4777 12.249 12.235v15.667h-413.58v-15.667c-8.2843e-16 -6.7571 5.4838-12.235 12.249-12.235z" fill="#1E1E27"/>
<ellipse cx="19.059" cy="13.978" rx="3.5643" ry="3.6154" fill="#FF5F57"/>
<ellipse cx="30.713" cy="13.978" rx="3.5643" ry="3.6154" fill="#FFBC2D"/>
<ellipse cx="42.331" cy="13.978" rx="3.5643" ry="3.6154" fill="#29CA42"/>
<rect x="40.665" y="40.558" width="33.965" height="5.2671" rx="2.6335" fill="#464769"/>
<rect x="25.795" y="81.386" width="38.473" height="3.1199" rx="1.5599" fill="#262633"/>
<rect x="9.9703" y="65.23" width="27.841" height="3.1199" rx="1.5599" fill="#262633"/>
<rect x="80.081" y="65.23" width="11.177" height="3.1199" rx="1.5599" fill="#262633"/>
<rect x="9.9703" y="138.55" width="27.841" height="3.1199" rx="1.5599" fill="#262633"/>
<rect x="80.081" y="138.55" width="11.177" height="3.1199" rx="1.5599" fill="#262633"/>
<rect x="9.9703" y="78.174" width="9.5477" height="9.537" rx="2.7112" fill="#464769"/>
<rect x="25.795" y="98.294" width="46.483" height="3.1199" rx="1.5599" fill="#262633"/>
<rect x="9.9703" y="95.082" width="9.5477" height="9.537" rx="2.7112" fill="#464769"/>
<rect x="25.795" y="115.2" width="31.852" height="3.1199" rx="1.5599" fill="#262633"/>
<rect x="9.9703" y="111.99" width="9.5477" height="9.537" rx="2.7112" fill="#464769"/>
<path d="m9.9703 180.39h81.281v11.085c0 1.0676-0.42456 2.0914-1.1803 2.8463-0.75573 0.75488-1.7807 1.179-2.8495 1.179h-73.222c-2.2256 0-4.0298-1.8022-4.0298-4.0252v-11.085z" fill="#262633"/>
<rect x="113.72" y="42.234" width="27.841" height="3.1199" rx="1.5599" fill="#464769"/>
<rect x="256.53" y="42.234" width="27.841" height="3.1199" rx="1.5599" fill="#464769"/>
<rect x="113.72" y="163.87" width="27.841" height="3.1199" rx="1.5599" fill="#464769"/>
<rect x="256.53" y="163.87" width="27.841" height="3.1199" rx="1.5599" fill="#464769"/>
<polygon points="308.04 70.591 308.11 70.085 363.75 76.971 362.95 77.347 310.98 101.7 286.44 116.09 286.19 115.65 310.74 101.25 361.93 77.26" fill="#464769" fill-rule="nonzero"/>
<path d="m349.72 115.56l-0.11201 0.13612 0.030933-0.088689 0.081073-0.047432zm12.878-37.106l0.48155 0.16796-12.99 37.243-0.11201 0.13612-20.222 11.831-0.25754-0.4402 20.141-11.784 12.959-37.154z" fill="#464769" fill-rule="nonzero"/>
<polygon points="272.69 73.051 272.65 72.542 309.32 69.995 265.46 92.044 265.23 91.588 306.83 70.68" fill="#464769" fill-rule="nonzero"/>
<ellipse cx="362.84" cy="77.116" rx="21.992" ry="21.968" fill="#464769"/>
<ellipse cx="308.07" cy="70.338" rx="9.3089" ry="9.2984" fill="#464769"/>
<ellipse cx="349.85" cy="115.78" rx="6.5346" ry="6.5272" fill="#464769"/>
<ellipse cx="310.85" cy="101.48" rx="6.5346" ry="6.5272" fill="#464769"/>
<path d="m13.795 152.43c-1.9717 0-3.57 1.5983-3.57 3.57v35.649c0 1.9717 1.5983 3.57 3.57 3.57h73.631c1.9717 0 3.57-1.5983 3.57-3.57v-35.649c0-1.9717-1.5983-3.57-3.57-3.57h-73.631zm0-0.51h73.631c2.2533 0 4.08 1.8267 4.08 4.08v35.649c0 2.2533-1.8267 4.08-4.08 4.08h-73.631c-2.2533 0-4.08-1.8267-4.08-4.08v-35.649c0-2.2533 1.8267-4.08 4.08-4.08z" fill="#464769" fill-rule="nonzero"/>
<ellipse cx="286.32" cy="115.87" rx="6.2039" ry="6.1969" fill="#C0C0DD" opacity=".2"/>
<ellipse cx="286.32" cy="115.87" rx="4.4952" ry="4.4902" fill="#C0C0DD"/>
<ellipse cx="329.94" cy="127.61" rx="3.2152" ry="3.2116" fill="#464769"/>
<ellipse cx="272.67" cy="72.797" rx="4.4217" ry="4.4167" fill="#C0C0DD" opacity=".2"/>
<ellipse cx="272.67" cy="72.797" rx="3.1417" ry="3.1382" fill="#C0C0DD"/>
<ellipse cx="265.35" cy="91.816" rx="3.1417" ry="3.1382" fill="#464769"/>
<path d="m232.04 69.911v54.021c1e-6 3.4122-2.7673 6.1792-6.1833 6.1827h-106.18c-1.641 1e-6 -3.2146-0.65158-4.3744-1.8112-1.1598-1.1597-1.8106-2.7325-1.8089-4.3715v-39.619l0.30795 0.065365 12.249 2.6c2.0181 0.4318 4.1242-0.047684 5.7557-1.3104l4.636-3.5847c2.9485-2.2814 7.1245-2.0632 9.8186 0.51276l3.7482 3.5788c1.7896 1.7117 4.3496 2.3555 6.7371 1.6943l10.785-2.9976c2.1181-0.5862 4.3664-0.49856 6.4321 0.25065l8.7145 3.1503c2.082 0.74966 4.3957 0.47854 6.2471-0.73183l9.4251-6.1846c2.0337-1.3368 4.5892-1.6081 6.8588-0.72812l6.412 2.4897c2.4773 0.96057 5.2851 0.4444 7.2576-1.3341l13.164-11.872zm-12.823 12.251c-2.1156 1.9075-5.1268 2.4611-7.7837 1.4309l-6.412-2.4897c-2.1158-0.82031-4.4983-0.56738-6.3944 0.67894l-9.4256 6.1849c-1.9857 1.2982-4.4667 1.5889-6.6996 0.78493l-8.7151-3.1505c-1.9664-0.71319-4.1064-0.79661-6.1221-0.23873l-10.785 2.9976c-2.5609 0.70923-5.3065 0.018795-7.2258-1.817l-3.7482-3.5788c-2.5118-2.4017-6.4053-2.6051-9.1543-0.47809l-4.636 3.5847c-1.7502 1.3546-4.0095 1.869-6.1741 1.4058l-11.941-2.5345-1e-6 38.99c-0.001555 1.5038 0.59543 2.9466 1.6595 4.0106 1.0641 1.064 2.5081 1.6619 4.0138 1.6619h106.18c3.1344-0.003231 5.6735-2.5421 5.6735-5.6727v-52.874l-12.313 11.104z" fill="#464769" fill-rule="nonzero"/>
<path d="m231.78 82.719l-12.738 11.488c-2.0441 1.843-4.9536 2.3779-7.5206 1.3825l-6.4121-2.4898c-2.1927-0.8501-4.6616-0.58799-6.6264 0.7035l-9.4252 6.1847c-1.9187 1.2544-4.3161 1.5353-6.4733 0.75856l-8.7148-3.1505c-2.0161-0.73124-4.2103-0.81677-6.2774-0.2447l-10.785 2.9975c-2.4743 0.68525-5.1271 0.01816-6.9817-1.7557l-3.748-3.5787c-2.603-2.4889-6.6378-2.6997-9.4865-0.49551l-4.6361 3.5848c-1.6908 1.3086-3.8735 1.8056-5.965 1.3581l-12.249-2.5999v27.069c-0.001626 1.5716 0.62224 3.0793 1.7342 4.1912 1.1119 1.1118 2.6208 1.7366 4.1941 1.7366h106.18c3.2751-0.003376 5.9283-2.6563 5.9283-5.9277v-41.213z" fill="#464769" opacity=".5"/>
<path d="m231.78 94.954l-12.738 11.488c-2.0441 1.843-4.9536 2.3779-7.5206 1.3825l-6.4121-2.4898c-2.1927-0.8501-4.6616-0.58799-6.6264 0.7035l-9.4252 6.1847c-1.9187 1.2544-4.3161 1.5353-6.4733 0.75856l-8.7148-3.1505c-2.0161-0.73124-4.2103-0.81677-6.2774-0.2447l-10.785 2.9975c-2.4743 0.68525-5.1271 0.01816-6.9817-1.7557l-3.748-3.5787c-2.603-2.4889-6.6378-2.6997-9.4865-0.49551l-4.6361 3.5848c-1.6908 1.3086-3.8735 1.8056-5.965 1.3581l-12.249-2.5999v14.835c-0.001626 1.5716 0.62224 3.0793 1.7342 4.1912 1.1119 1.1118 2.6208 1.7366 4.1941 1.7366h106.18c3.2751-0.003376 5.9283-2.6563 5.9283-5.9277v-28.978z" fill="#C0C0DD"/>
<path d="m119.64 59.043c-3.131 0-5.6692 2.5382-5.6692 5.6692v59.236c0 3.131 2.5382 5.6692 5.6692 5.6692h106.22c3.131 0 5.6692-2.5382 5.6692-5.6692v-59.236c0-3.131-2.5382-5.6692-5.6692-5.6692h-106.22zm0-0.51h106.22c3.4127 0 6.1792 2.7665 6.1792 6.1792v59.236c0 3.4127-2.7665 6.1792-6.1792 6.1792h-106.22c-3.4127 0-6.1792-2.7665-6.1792-6.1792v-59.236c0-3.4127 2.7665-6.1792 6.1792-6.1792z" fill="#2B2B3A" fill-rule="nonzero"/>
<path d="m113.72 192.98h67.367c1.0418 0 1.8863 0.84356 1.8863 1.8842s-0.84451 1.8842-1.8863 1.8842h-67.367v-3.7683z" fill="#C0C0DD"/>
<path d="m113.72 196.75h52.479c1.0418 0 1.8863 0.84356 1.8863 1.8842s-0.84451 1.8842-1.8863 1.8842h-52.479v-3.7683z" fill="#464769" opacity=".5"/>
<path d="m113.72 200.37h60.63c1.0418 0 1.8863 0.84356 1.8863 1.8842s-0.84451 1.8842-1.8863 1.8842h-60.63v-3.7683z" fill="#464769"/>
<path d="m113.72 212.11h25.955c1.0418 0 1.8863 0.84356 1.8863 1.8842s-0.84451 1.8842-1.8863 1.8842h-25.955v-3.7683z" fill="#C0C0DD"/>
<path d="m113.72 215.88h81.881c1.0418 0 1.8863 0.84356 1.8863 1.8842 0 1.0406-0.84451 1.8842-1.8863 1.8842h-81.881v-3.7683z" fill="#464769" opacity=".5"/>
<path d="m113.72 219.5h54.775c1.0418 0 1.8863 0.84356 1.8863 1.8842 0 1.0406-0.84451 1.8842-1.8863 1.8842h-54.775v-3.7683z" fill="#464769"/>
<path d="m113.72 231.1h58.303c1.0418 0 1.8863 0.84356 1.8863 1.8842s-0.84451 1.8842-1.8863 1.8842h-58.303v-3.7683z" fill="#C0C0DD"/>
<path d="m113.72 234.86h45.283c1.0394-6e-6 1.8829 0.83984 1.8863 1.878 0 1.0406-0.84451 1.8842-1.8863 1.8842h-45.283v-3.7683 0.006118z" fill="#464769" opacity=".5"/>
<path d="m113.72 238.49h74.226c1.0418 0 1.8863 0.84356 1.8863 1.8842s-0.84451 1.8842-1.8863 1.8842h-74.226v-3.7683z" fill="#464769"/>
<path d="m119.64 181.08c-3.131 0-5.6692 2.5382-5.6692 5.6692v59.236c0 3.131 2.5382 5.6692 5.6692 5.6692h106.22c3.131 0 5.6692-2.5382 5.6692-5.6692v-59.236c0-3.131-2.5382-5.6692-5.6692-5.6692h-106.22zm0-0.51h106.22c3.4127 0 6.1792 2.7665 6.1792 6.1792v59.236c0 3.4127-2.7665 6.1792-6.1792 6.1792h-106.22c-3.4127 0-6.1792-2.7665-6.1792-6.1792v-59.236c0-3.4127 2.7665-6.1792 6.1792-6.1792z" fill="#2B2B3A" fill-rule="nonzero"/>
<path d="m312.51 209.76l5.9398-1.4742c3.6713 14.792-4.0239 30.045-18.109 35.896-14.084 5.8511-30.334 0.54977-38.246-12.478l5.2308-3.1769c6.3432 10.444 19.374 14.695 30.668 10.003 11.292-4.6913 17.46-16.916 14.517-28.77z" fill="#464769" fill-rule="nonzero"/>
<path d="m288.49 184.87l-0.00484 6.12c-8.9465-0.007077-17.2 4.8095-21.586 12.597-4.3854 7.786-4.2221 17.33 0.42705 24.961l-5.2266 3.1839c-5.8013-9.5232-6.0051-21.433-0.53284-31.149 5.4716-9.7145 15.766-15.722 26.923-15.713z" fill="#262633" fill-rule="nonzero"/>
<path d="m288.48 190.99l3.76e-4 -6.12c14.186 8.72e-4 26.548 9.6591 29.965 23.415l-5.9394 1.4756c-2.7395-11.026-12.65-18.77-24.026-18.771z" fill="#C0C0DD" fill-rule="nonzero"/>
<path d="m380.64 230.03l4.9841 3.5516c-6.0244 8.4542-15.9 13.315-26.281 12.937-10.381-0.37877-19.875-5.9467-25.266-14.818l5.23-3.1783c4.3218 7.1117 11.935 11.576 20.26 11.88 8.3246 0.30375 16.244-3.5942 21.074-10.372z" fill="#464769" fill-rule="nonzero"/>
<path d="m360.47 184.87l-5.6e-5 6.12c-8.944-8.2e-5 -17.192 4.818-21.577 12.603-4.3841 7.7838-4.2247 17.324 0.41719 24.957l-5.2291 3.1798c-5.7917-9.5241-5.9907-21.428-0.52048-31.14 5.4695-9.7108 15.756-15.72 26.909-15.719z" fill="#262633" fill-rule="nonzero"/>
<path d="m360.47 190.99l-9.7e-4 -6.12c14.189-0.002248 26.554 9.6566 29.972 23.415l-5.9394 1.4756c-2.74-11.028-12.654-18.772-24.032-18.771z" fill="#C0C0DD" fill-rule="nonzero"/>
<path d="m384.5 209.75l5.943-1.461c0.59681 2.4276 0.89795 4.9184 0.89688 7.4122 0.009726 6.4107-1.9882 12.664-5.7137 17.883l-4.9813-3.5555c2.9832-4.1794 4.5828-9.186 4.575-14.325 8.58e-4 -2.0065-0.24086-4.0058-0.71992-5.9545z" fill="#C0C0DD" fill-rule="nonzero"/>
<path d="m14.153 47.856l5.6098-11.256c0.26551-0.53073 0.80848-0.86602 1.4025-0.86602s1.1369 0.33529 1.4025 0.86602l3.7052 7.4449c-0.87577 0.47716-1.8373 0.93596-2.8233 1.3642l-2.2843-4.5819-3.2091 6.4233c-1.2466 0.31703-2.5196 0.51975-3.8032 0.60562zm18.122-8.962c-0.32459-0.85032-1.5678-1.2602-3.3806-1.2602-1.6799 0.039034-3.3492 0.27724-4.9729 0.70962l0.2021 0.39763c1.558-0.41204 3.1595-0.63793 4.7708-0.67291 1.6536 0 2.7375 0.35481 2.9764 0.97878 0.28172 0.72797-0.52669 1.9453-2.1619 3.2606-2.2398 1.6868-4.716 3.0349-7.3491 4.0008-3.2887 1.2724-6.5407 2.0187-8.9292 2.0187-1.6474 0-2.7314-0.36093-2.9703-0.9849-0.28172-0.72797 0.52669-1.9453 2.1619-3.2544 1.3203-1.0239 2.7425-1.9094 4.2441-2.6427l0.32459-0.61174c-4.7096 2.2512-7.7717 5.0346-7.1348 6.6924 0.35521 0.80138 1.5801 1.2235 3.3745 1.2235h0.33071c-0.10061 0.46559 0.016373 0.9516 0.31787 1.3206s0.75475 0.58091 1.2316 0.57577c0.29206 0.0022191 0.57876-0.07839 0.82678-0.23246 0.24328-0.14873 0.4421-0.36 0.57568-0.61174l0.75941-1.5232c1.7255-0.38258 3.4188-0.89798 5.0648-1.5416 0.4532-0.1774 0.89414-0.35481 1.3228-0.53833l1.8005 3.6031c0.26217 0.53044 0.80411 0.86522 1.3963 0.86255 0.54321-0.0015165 1.0469-0.2838 1.3314-0.74608s0.309-1.0387 0.06498-1.5235l-1.776-3.5664c3.8093-2.1105 6.161-4.4535 5.5976-5.9339z" fill="#C0C0DD" fill-rule="nonzero"/>
</g>
<path transform="translate(508.57 85.647) scale(-1 1) translate(-508.57 -85.647)" d="m397.75 73.5c-0.27614 0-0.5-0.22386-0.5-0.5s0.22386-0.5 0.5-0.5h63.482c3.7491 0 7.2138 1.999 9.0903 5.2448l8.8474 15.304c1.6977 2.9367 4.8324 4.7453 8.2245 4.7453h131.99c0.27614 0 0.5 0.22386 0.5 0.5s-0.22386 0.5-0.5 0.5h-131.99c-3.7491 0-7.2138-1.999-9.0903-5.2448l-8.8474-15.304c-1.6977-2.9367-4.8324-4.7453-8.2245-4.7453h-63.482z" fill="#464769" fill-rule="nonzero"/>
<path transform="translate(546.64 162.55) scale(-1) translate(-546.64 -162.55)" d="m408.01 198.61c-0.27612 0.003163-0.50253-0.21812-0.5057-0.49424-0.003164-0.27612 0.21812-0.50253 0.49424-0.5057l125.19-1.4342c6.7877-0.077762 13.046-3.6798 16.524-9.5096l29.922-50.166c3.6985-6.2007 10.386-9.9986 17.606-9.9986h88.045c0.27614 0 0.5 0.22386 0.5 0.5s-0.22386 0.5-0.5 0.5h-88.045c-6.8677 0-13.229 3.6127-16.747 9.5109l-29.922 50.166c-3.6556 6.1288-10.235 9.9155-17.371 9.9973l-125.19 1.4342z" fill="#464769" fill-rule="nonzero"/>
<path transform="translate(433.44 220.28) scale(-1) translate(-433.44 -220.28)" d="m181.48 284.05c-0.27614 0-0.5-0.22386-0.5-0.5s0.22386-0.5 0.5-0.5h122.81c8.3373 0 15.752-5.3005 18.451-13.189l34.034-99.499c2.8366-8.2931 10.632-13.865 19.397-13.865h293.92c4.8594 0 9.0839 3.3343 10.213 8.0608l5.5798 23.362c0.06415 0.26859-0.10158 0.53832-0.37017 0.60248-0.26859 0.06415-0.53832-0.10158-0.60248-0.37017l-5.5798-23.362c-1.0214-4.2763-4.8435-7.2931-9.2401-7.2931h-293.92c-8.3373 0-15.752 5.3005-18.451 13.189l-34.034 99.499c-2.8366 8.2931-10.632 13.865-19.397 13.865h-122.81z" fill="#464769" fill-rule="nonzero"/>
<path d="m592.55 43.378h-68.245c-1.3305 0-2.6477-0.26552-3.8743-0.78099l-24.829-10.434c-1.2266-0.51548-2.5437-0.78099-3.8743-0.78099h-286.29c-3.1604 0-6.1347 1.494-8.0218 4.0291l-8.6264 11.589" fill-rule="nonzero" stroke="#464769" stroke-linecap="round"/>
</g>
</svg>
