<?xml version="1.0" encoding="UTF-8"?>
<svg version="1.1" viewBox="0 0 684 272" xmlns="http://www.w3.org/2000/svg">
<title>molecules / illustration - asyncyhub</title>
<desc>Created with Sketch.</desc>
<defs>
<filter id="a" x="-78.5%" y="-119.5%" width="257%" height="339%">
<feOffset dx="0" dy="15" in="SourceAlpha" result="shadowOffsetOuter1"/>
<feGaussianBlur in="shadowOffsetOuter1" result="shadowBlurOuter1" stdDeviation="154.5"/>
<feColorMatrix in="shadowBlurOuter1" result="shadowMatrixOuter1" values="0 0 0 0 0   0 0 0 0 0   0 0 0 0 0  0 0 0 0.295346467 0"/>
<feMerge>
<feMergeNode in="shadowMatrixOuter1"/>
<feMergeNode in="SourceGraphic"/>
</feMerge>
</filter>
</defs>
<g fill="none" fill-rule="evenodd">
<g transform="translate(0 -1)">
<g filter="url(#a)">
<rect width="413.58" height="271.31" rx="12.236" fill="#21212A"/>
<path d="m12.249 1h389.08c6.7647 0 12.249 5.4979 12.249 12.28v15.724h-413.58v-15.724c-8.2843e-16 -6.782 5.4838-12.28 12.249-12.28z" fill="#1E1E27"/>
<ellipse cx="19.059" cy="15.03" rx="3.5643" ry="3.6287" fill="#FF5F57"/>
<ellipse cx="30.713" cy="15.03" rx="3.5643" ry="3.6287" fill="#FFBC2D"/>
<ellipse cx="42.331" cy="15.03" rx="3.5643" ry="3.6287" fill="#29CA42"/>
<rect x="97.811" y="75.969" width="33.61" height="5.2865" rx="2.6369" fill="#464769"/>
<rect x="98.147" y="174.54" width="58.511" height="5.2865" rx="2.6369" fill="#464769"/>
<rect x="25.299" y="72.297" width="31.466" height="5.2865" rx="2.6369" fill="#C0C0DD"/>
<rect x="36.776" y="89.428" width="29.85" height="3.1314" rx="1.5601" fill="#464769"/>
<rect x="36.776" y="104.95" width="16.756" height="3.1314" rx="1.5601" fill="#464769"/>
<rect x="36.776" y="120.48" width="32.728" height="3.1314" rx="1.5601" fill="#464769"/>
<rect x="36.776" y="136" width="10.448" height="3.1314" rx="1.5601" fill="#464769"/>
<rect x="36.776" y="151.52" width="22.219" height="3.1314" rx="1.5601" fill="#464769"/>
<rect x="36.776" y="167.04" width="18.348" height="3.1314" rx="1.5601" fill="#464769"/>
<rect x="36.776" y="182.56" width="29.978" height="3.1314" rx="1.5601" fill="#464769"/>
<rect x="36.776" y="198.09" width="22.219" height="3.1314" rx="1.5601" fill="#464769"/>
<rect x="36.776" y="213.61" width="23.229" height="3.1314" rx="1.5601" fill="#464769"/>
<ellipse cx="27.406" cy="90.993" rx="2.1067" ry="2.1121" fill="#464769"/>
<ellipse cx="27.406" cy="106.52" rx="2.1067" ry="2.1121" fill="#464769"/>
<ellipse cx="27.406" cy="122.04" rx="2.1067" ry="2.1121" fill="#464769"/>
<ellipse cx="27.406" cy="137.56" rx="2.1067" ry="2.1121" fill="#464769"/>
<ellipse cx="27.406" cy="153.09" rx="2.1067" ry="2.1121" fill="#464769"/>
<ellipse cx="27.406" cy="168.61" rx="2.1067" ry="2.1121" fill="#464769"/>
<ellipse cx="27.406" cy="184.13" rx="2.1067" ry="2.1121" fill="#464769"/>
<ellipse cx="27.406" cy="199.65" rx="2.1067" ry="2.1121" fill="#464769"/>
<ellipse cx="27.406" cy="215.17" rx="2.1067" ry="2.1121" fill="#464769"/>
<rect x="98.147" y="46.436" width="277.06" height="13.919" rx="4.7538" fill="#2C2E44"/>
<rect x="98.147" y="108" width="82.402" height="44.3" rx="7.2623" fill="#464769"/>
<ellipse cx="139.35" cy="107.97" rx="17.54" ry="17.585" fill="#C0C0DD"/>
<rect x="195.47" y="108" width="82.402" height="44.3" rx="7.2623" fill="#464769"/>
<ellipse cx="236.67" cy="107.97" rx="17.54" ry="17.585" fill="#C0C0DD"/>
<rect x="292.8" y="108" width="82.402" height="44.3" rx="7.2623" fill="#464769"/>
<ellipse cx="333.54" cy="107.58" rx="17.54" ry="17.585" fill="#C0C0DD"/>
<ellipse cx="110.3" cy="204.58" rx="12.157" ry="12.188" fill="#464769"/>
<rect x="129.34" y="198.89" width="49.533" height="3.1314" rx="1.5601" fill="#C0C0DD"/>
<rect x="129.34" y="207.13" width="91.104" height="3.1314" rx="1.5601" fill="#464769"/>
<ellipse cx="110.3" cy="241" rx="12.157" ry="12.188" fill="#464769"/>
<rect x="129.34" y="235.31" width="49.533" height="3.1314" rx="1.5601" fill="#C0C0DD"/>
<rect x="129.34" y="243.55" width="91.104" height="3.1314" rx="1.5601" fill="#464769"/>
<ellipse cx="265.16" cy="204.19" rx="12.157" ry="12.188" fill="#464769"/>
<rect x="284.47" y="198.89" width="49.533" height="3.1314" rx="1.5601" fill="#C0C0DD"/>
<rect x="284.47" y="207.13" width="91.104" height="3.1314" rx="1.5601" fill="#464769"/>
<ellipse cx="265.43" cy="241" rx="12.157" ry="12.188" fill="#464769"/>
<rect x="284.47" y="235.31" width="49.533" height="3.1314" rx="1.5601" fill="#C0C0DD"/>
<rect x="284.47" y="243.55" width="91.104" height="3.1314" rx="1.5601" fill="#464769"/>
<path d="m263.91 238.16v-1.8788c0.001224-0.15908-0.093348-0.30321-0.23954-0.36507s-0.31517-0.029233-0.428 0.082631l-3.7603 3.7699c-0.31367 0.31813-0.31367 0.83004 0 1.1482l3.7603 3.7699c0.11283 0.11186 0.2818 0.14449 0.428 0.082631s0.24077-0.20598 0.23954-0.36507v-2.106c3.0188 0.009806 5.8623 1.4227 7.6982 3.8252-0.88189-6.8215-6.4243-7.8223-7.6982-7.9635z" fill="#C0C0DD"/>
<path d="m35.312 56.683l5.6159-11.304c0.2635-0.53328 0.80578-0.87069 1.3994-0.87069 0.59361 0 1.1359 0.3374 1.3994 0.87069l3.7113 7.46c-0.87577 0.47892-1.8373 0.93941-2.8233 1.3692l-2.2843-4.5988-3.2091 6.4592c-1.2492 0.31703-2.5239 0.5225-3.8093 0.614zm18.128-9.0196c-0.33071-0.83503-1.5739-1.228-3.3806-1.228-1.6799 0.038772-3.3493 0.27787-4.9729 0.71223l0.19598 0.40524c1.56-0.41493 3.1634-0.64369 4.7769-0.68154 1.6474 0 2.7314 0.35612 2.9703 0.98853 0.28172 0.73065-0.52669 1.9525-2.1557 3.2665-2.2406 1.6933-4.7166 3.0483-7.3491 4.0217-3.2887 1.2771-6.5468 2.0078-8.9292 2.0078-1.6474 0-2.7314-0.36226-2.9703-0.98853-0.28172-0.73065 0.52669-1.9525 2.1619-3.2665 1.3184-1.0304 2.7409-1.9194 4.2441-2.6525l0.31846-0.614c-4.7034 2.2165-7.7656 5.0102-7.1164 6.6741 0.32459 0.85345 1.5678 1.2648 3.3745 1.2648h0.30009c-0.10176 0.46563 0.011891 0.95243 0.3092 1.3244 0.29731 0.37199 0.74641 0.5893 1.2219 0.59124 0.29068-1e-4 0.57532-0.083156 0.82065-0.23946 0.2576-0.14295 0.46984-0.35574 0.61243-0.614l0.75941-1.5288c1.7253-0.38487 3.4186-0.90215 5.0648-1.5473 0.4532-0.17192 0.88802-0.35612 1.3228-0.54032l1.7944 3.6164c0.26587 0.53272 0.8083 0.86994 1.4025 0.87187 0.54961-0.0016911 1.0585-0.29069 1.3426-0.76241 0.28406-0.47172 0.30211-1.0578 0.047618-1.5462l-1.7822-3.5796c3.8277-2.0937 6.1794-4.4637 5.6159-5.9558z" fill="#C0C0DD" fill-rule="nonzero"/>
<polygon transform="translate(236.68 107.96) rotate(-18.52) translate(-236.68 -107.96)" points="235.37 106.7 237.99 106.7 237.99 109.22 235.37 109.23" fill="#464769"/>
<g transform="translate(227 98)" fill="#464769">
<polygon transform="translate(9.6792 9.9645) rotate(-18.52) translate(-9.6792 -9.9645)" points="8.3723 8.704 10.988 8.702 10.986 11.225 8.3703 11.227"/>
<path d="m18.173 7.4161c-1.9108-6.3917-4.6728-7.8837-11.024-5.9619-6.3509 1.9218-7.8636 4.6848-5.9528 11.052 1.9108 6.3671 4.6789 7.8776 11.024 5.9619 6.3447-1.9157 7.8636-4.6602 5.9528-11.052zm-3.2275 4.1506l-1.2249 0.3991 0.41645 1.228c0.083128 0.24421 0.065125 0.51164-0.04998 0.74244-0.1151 0.2308-0.3177 0.4057-0.56245 0.48555-0.10614 0.037217-0.21837 0.053886-0.33071 0.04912-0.40499-0.0081092-0.76086-0.27139-0.88802-0.65698l-0.41645-1.228-2.4497 0.83503 0.41645 1.228c0.083128 0.24421 0.065125 0.51164-0.04998 0.74244-0.1151 0.2308-0.3177 0.4057-0.56245 0.48555-0.10654 0.036211-0.21822 0.054873-0.33071 0.05526-0.40537-0.012624-0.75987-0.27734-0.88802-0.66312l-0.41645-1.228-1.2249 0.40524c-0.10614 0.037217-0.21837 0.053886-0.33071 0.04912-0.46791-0.010067-0.86062-0.35645-0.9302-0.82045-0.069574-0.464 0.2042-0.91083 0.64848-1.0584l1.2249-0.3991-0.79615-2.3946-1.2249 0.40524c-0.10475 0.034218-0.21443 0.050816-0.32459 0.04912-0.46791-0.010067-0.86062-0.35645-0.9302-0.82045s0.2042-0.91083 0.64848-1.0584l1.2249-0.40524-0.41645-1.228c-0.1094-0.32904-0.035397-0.6916 0.19413-0.9511 0.22953-0.25951 0.57971-0.37653 0.91864-0.307 0.33893 0.069534 0.61511 0.31507 0.72451 0.6441l0.41645 1.228 2.4497-0.83503-0.41645-1.228c-0.1094-0.32904-0.035397-0.6916 0.19413-0.9511 0.22953-0.25951 0.57971-0.37653 0.91864-0.307 0.33893 0.069534 0.61511 0.31507 0.72451 0.6441l0.41645 1.228 1.2249-0.3991c0.50735-0.16955 1.0557 0.10534 1.2249 0.614s-0.10508 1.0584-0.61243 1.228l-1.2249 0.40524 0.79615 2.3946 1.2249-0.40524c0.3282-0.10968 0.68983-0.035488 0.94867 0.19463 0.25884 0.23012 0.37557 0.5812 0.30621 0.92099-0.069356 0.3398-0.31426 0.61668-0.64246 0.72636l-0.018373-0.04298z" fill-rule="nonzero"/>
</g>
</g>
<path transform="translate(437 87) scale(-1 1) translate(-437 -87)" d="m263.48 73.006c-0.26412 0-0.47823-0.22517-0.47823-0.50294 0-0.27776 0.21411-0.50294 0.47823-0.50294h303.81c4.3142 0 8.1463 2.8976 9.5201 7.1985l4.8817 15.283c1.2429 3.8912 4.7101 6.5129 8.6134 6.5129h20.216c0.26412 0 0.47823 0.22517 0.47823 0.50294 0 0.27776-0.21411 0.50294-0.47823 0.50294h-20.216c-4.3142 0-8.1463-2.8976-9.5201-7.1985l-4.8817-15.283c-1.2429-3.8912-4.7101-6.5129-8.6134-6.5129h-303.81z" fill="#464769" fill-rule="nonzero"/>
<path transform="translate(538.2 199) scale(-1) translate(-538.2 -199)" d="m393 241.5c-0.27614 0-0.5-0.22386-0.5-0.5s0.22386-0.5 0.5-0.5h126.82c6.2953 0 12.203-3.0391 15.864-8.1606l48.077-67.26c3.8485-5.3841 10.059-8.5791 16.678-8.5791h82.957c0.27614 0 0.5 0.22386 0.5 0.5s-0.22386 0.5-0.5 0.5h-82.957c-6.2953 0-12.203 3.0391-15.864 8.1606l-48.077 67.26c-3.8485 5.3841-10.059 8.5791-16.678 8.5791h-126.82z" fill="#464769" fill-rule="nonzero"/>
<path d="m683.51 132l-183.1 0.88298c-3.5991 0.017356-6.9112 1.9674-8.6725 5.1061l-32.102 57.206c-1.7811 3.1739-5.1458 5.1295-8.7852 5.106l-77.848-0.50174" fill-rule="nonzero" stroke="#464769" stroke-linecap="round"/>
<path transform="translate(523.06 102) scale(1 -1) translate(-523.06 -102)" d="m683.51 102h-320.91" fill-rule="nonzero" stroke="#464769" stroke-linecap="round"/>
</g>
<path d="m333.5 99c-3.0376 0-5.5 2.5557-5.5 5.7083 0 3.1544 4.5406 10.292 5.5 10.292s5.5-7.1373 5.5-10.292c-0.004034-3.1509-2.4641-5.7041-5.5-5.7083zm0.11718 7.9354c-0.76785-6e-6 -1.46-0.48048-1.7531-1.217s-0.12953-1.5839 0.41448-2.1463 1.361-0.72897 2.0696-0.42187c0.70855 0.3071 1.1688 1.0273 1.1658 1.8242 0.003905 0.52475-0.19421 1.0294-0.55036 1.4019-0.35614 0.37249-0.84084 0.58198-1.3464 0.58197v-0.022803z" fill="#464769" fill-rule="nonzero"/>
<g transform="translate(258 196)">
<polygon points="13.053 8.4199 14.594 6.9576 13.04 5.4819 13.616 3.4419 11.548 2.9421 11.021 0.93076 8.9515 1.4982 7.451 5.3291e-15 5.9358 1.5136 3.8411 0.95231 3.3301 2.9667 1.2649 3.4798 1.8475 5.4942 0.30706 6.9576 1.8612 8.4322 1.2849 10.47 3.3533 10.97 3.8801 12.982 5.9485 12.414 7.45 13.914 8.9641 12.401 11.057 12.962 11.57 10.947 13.636 10.434" fill="#C0C0DD"/>
<ellipse cx="7.5609" cy="7.0646" rx="4.7538" ry="4.6298" fill="#464769"/>
<ellipse cx="7.5556" cy="7.0595" rx="4.1236" ry="4.016" fill="#C0C0DD"/>
</g>
</g>
</svg>
