<?xml version="1.0" encoding="UTF-8"?>
<svg width="24px" height="24px" viewBox="0 0 24 24" version="1.1" xmlns="http://www.w3.org/2000/svg" xmlns:xlink="http://www.w3.org/1999/xlink">
    <!-- Generator: Sketch 52 (66869) - http://www.bohemiancoding.com/sketch -->
    <title>atoms / icon-loading</title>
    <desc>Created with Sketch.</desc>
    <g id="atoms-/-icon-loading" stroke="none" stroke-width="1" fill="none" fill-rule="evenodd">
        <g id="noun_loading_1852300" transform="translate(12.500000, 12.000000) scale(-1, 1) translate(-12.500000, -12.000000) translate(3.000000, 2.000000)" fill="#E6E6E6">
            <g id="Group">
                <path d="M14.104407,2.50857143 C13.828907,3.56637363 12.742593,4.20197802 11.6790349,3.92769231 C10.6156977,3.65340659 9.97676744,2.57318681 10.2520465,1.51450549 C10.5282093,0.456923077 11.6138605,-0.178901099 12.6776395,0.0953846154 C13.7411977,0.36967033 14.3803488,1.45054945 14.104407,2.50857143 Z" id="Path"></path>
                <path d="M8.81688372,19.0158242 C8.67327907,19.5659341 8.10880233,19.896044 7.55559302,19.7538462 C7.00238372,19.610989 6.67032558,19.0496703 6.8137093,18.4989011 C6.95709302,17.9483516 7.52156977,17.6186813 8.07477907,17.7610989 C8.62798837,17.9032967 8.96004651,18.4652747 8.81688372,19.0158242 Z" id="Path"></path>
                <path d="M1.9592093,6.75758242 C2.76803488,6.96637363 3.2534186,7.78791209 3.04397674,8.59186813 C2.83453488,9.39626374 2.00913953,9.8789011 1.20053488,9.67054945 C0.392151163,9.4621978 -0.0934534884,8.6410989 0.116209302,7.8367033 C0.325651163,7.03296703 1.15104651,6.54989011 1.9592093,6.75758242 Z" id="Path"></path>
                <path d="M18.5530581,12.0182418 C18.851093,12.0949451 19.0300465,12.3971429 18.9525,12.6940659 C18.8753953,12.9903297 18.5713953,13.1679121 18.2735814,13.090989 C17.9757674,13.0142857 17.7970349,12.7116484 17.8741395,12.4151648 C17.951686,12.1189011 18.2554651,11.9415385 18.5530581,12.0182418 Z" id="Path"></path>
                <path d="M9.44167442,1.56285714 C9.71187209,2.53164835 9.14010465,3.53538462 8.16624419,3.80351648 C7.19194186,4.07142857 6.18339535,3.5032967 5.91363953,2.53362637 C5.64410465,1.5643956 6.21543023,0.561538462 7.18973256,0.293406593 C8.16359302,0.0250549451 9.1725814,0.593186813 9.44167442,1.56285714 Z" id="Path"></path>
                <path d="M13.1597093,18.4883516 C13.2885116,18.9518681 13.0154419,19.4316484 12.5495,19.5602198 C12.0833372,19.6883516 11.6010465,19.4169231 11.4720233,18.952967 C11.3432209,18.4894505 11.6162907,18.0096703 12.0822326,17.8815385 C12.5483953,17.7531868 13.030686,18.0246154 13.1597093,18.4883516 Z" id="Path"></path>
                <path d="M1.2562093,11.3942857 C1.97622093,11.1956044 2.72163953,11.6162637 2.9209186,12.3327473 C3.12019767,13.0492308 2.69777907,13.7905495 1.97776744,13.9885714 C1.25731395,14.1872527 0.512116279,13.767033 0.312837209,13.0507692 C0.11377907,12.3336264 0.535755814,11.5923077 1.2562093,11.3942857 Z" id="Path"></path>
                <path d="M4.9707093,3.13362637 C5.62863953,3.77714286 5.63725581,4.83054945 4.98993023,5.48483516 C4.34282558,6.13956044 3.28456977,6.14791209 2.62619767,5.50395604 C1.96826744,4.86043956 1.95965116,3.80703297 2.60719767,3.15274725 C3.25452326,2.4978022 4.31255814,2.48901099 4.9707093,3.13362637 Z" id="Path"></path>
                <path d="M16.6974651,15.9424176 C16.9793721,16.2182418 16.9831279,16.6696703 16.7056395,16.9496703 C16.4281512,17.2303297 15.9745814,17.2342857 15.6926744,16.9584615 C15.4105465,16.6821978 15.4070116,16.2307692 15.6845,15.9505495 C15.9619884,15.6701099 16.4153372,15.6665934 16.6974651,15.9424176 Z" id="Path"></path>
                <path d="M3.04817442,15.7175824 C3.5105814,15.2501099 4.26660465,15.2437363 4.73630233,15.703956 C5.20622093,16.1641758 5.21262791,16.9156044 4.75022093,17.3837363 C4.28803488,17.8512088 3.53201163,17.8575824 3.06209302,17.3969231 C2.59195349,16.9371429 2.58576744,16.1850549 3.04817442,15.7175824 Z" id="Path"></path>
            </g>
        </g>
    </g>
</svg>