<svg xmlns="http://www.w3.org/2000/svg" viewBox="0 0 175.81 214.72"><defs><style>.cls-1{fill:#464769;}.cls-2{fill:#c0c0dd;}.cls-3{fill:#bfbedb;}</style></defs><title>neural network</title><g id="Layer_2" data-name="Layer 2"><g id="Layer_1-2" data-name="Layer 1"><path class="cls-1" d="M159.77,71.61c-2-23.35-15.84-44.89-35.21-57.79A83.64,83.64,0,0,0,89,.78C54.25-3.75,17.62,11.53,4.5,45.69c-11.28,29.38-.16,58.53,20,80.77,7.29,8,8.3,23.11,8.3,33.28v20.61a5.73,5.73,0,0,0,5.73,5.73h74.59a5.72,5.72,0,0,0,5.71-5.35c.28-4.06.73-7.62.73-7.62,1.56-6.69,7.26-12.05,19.39-10.11,12.72,2,20.75-1.75,21.46-10.22.24-2.79.39-26.66.39-26.66.61-.35,4.59-1.14,10.41-2.46a5.87,5.87,0,0,0,2.81-9.91c-13.21-13.07-15-19.17-15.31-20.48-1.64-6.51,1.61-14.81,1-21.66Z"/><path class="cls-2" d="M135.13,63.81a6.87,6.87,0,0,1-5,2.84.57.57,0,0,0-.52.72c.57,2,1.15,7.51-8.72,9.66-9.26,2-14.85,9.21-18.51,12.86-2.8,2.81-6.6,4.11-10.39,5s-7.7,1.63-10.76,4.38c-3.21,2.9-7.75,18.85-8.52,21.62a.57.57,0,0,1-.54.41H67.39a.55.55,0,0,1-.55-.45l-2.31-10.88c-.09-.46-22.4,1.38-24.12-8.58a.57.57,0,0,0-.75-.45c-2.14.78-9,2.68-12.74-3.08a11.4,11.4,0,0,1-1.57-9.2A.55.55,0,0,0,25,88c-1.89-.81-8.73-4.65-7.8-17.27C18,60.51,24.85,56,23.89,54.44c-2.77-4.51-.36-12,5.32-13.66a.59.59,0,0,0,.42-.5l.24-2.65c.78-9.35,13.07-15.28,21.42-11.39a.59.59,0,0,0,.81-.35,7.08,7.08,0,0,1,3.72-4.54,10.16,10.16,0,0,1,8.62-.18.55.55,0,0,0,.63-.14,12.8,12.8,0,0,1,9-3.4A13,13,0,0,1,83,20.93a.57.57,0,0,0,.6.06c1.19-.61,5.54-2.56,9.9-1.06a11.16,11.16,0,0,1,5.74,5.22.59.59,0,0,0,.65.29c1.56-.37,7-1.41,11.5.64,4.8,2.17,6.29,5.3,6.67,6.35a.56.56,0,0,0,.51.37c1,0,3.91.29,5.68,1.78,3.14,2.63,2.83,4.71,2.47,5.6a.56.56,0,0,0,.27.71A18.11,18.11,0,0,1,135,48.83c3.42,6.78,2,12.6.17,15Z"/><circle class="cls-3" cx="28.64" cy="186.08" r="28.64"/><path class="cls-1" d="M28.64,169.84a11.59,11.59,0,0,0-11.59,11.59c0,6.39,9.58,20.89,11.59,20.89s11.58-14.5,11.58-20.89A11.59,11.59,0,0,0,28.64,169.84ZM28.89,186a4,4,0,1,1,4-4A4,4,0,0,1,28.89,186Z"/></g></g></svg>