<svg width="92" height="112" xmlns="http://www.w3.org/2000/svg" xmlns:xlink="http://www.w3.org/1999/xlink"><defs><path d="M61.342 24.058a3.57 3.57 0 0 1-2.599 1.48.296.296 0 0 0-.27.375c.296 1.042.597 3.912-4.533 5.032-4.813 1.042-7.718 4.798-9.62 6.7-1.456 1.463-3.431 2.14-5.401 2.604-1.97.464-4.002.85-5.593 2.282-1.668 1.51-4.028 9.82-4.428 11.262a.296.296 0 0 1-.281.214h-2.485a.286.286 0 0 1-.285-.235l-1.201-5.667c-.047-.24-11.643.719-12.537-4.47a.297.297 0 0 0-.39-.234c-1.112.406-4.678 1.396-6.622-1.605a5.95 5.95 0 0 1-.816-4.792.287.287 0 0 0-.182-.344c-.982-.422-4.537-2.423-4.054-8.997.416-5.324 3.976-7.673 3.477-8.486-1.44-2.349-.187-6.25 2.765-7.116a.307.307 0 0 0 .219-.26l.124-1.38c.406-4.871 6.794-7.96 11.134-5.934a.306.306 0 0 0 .421-.182 3.686 3.686 0 0 1 1.934-2.365 5.27 5.27 0 0 1 4.48-.094c.113.05.246.02.328-.073A6.645 6.645 0 0 1 29.604.002a6.748 6.748 0 0 1 4.642 1.719c.09.07.21.081.312.031.618-.318 2.88-1.333 5.146-.552a5.805 5.805 0 0 1 2.983 2.72c.066.12.204.181.338.15.81-.192 3.638-.734 5.977.334 2.495 1.13 3.27 2.76 3.467 3.308.04.112.146.189.265.192.52 0 2.033.152 2.953.928 1.632 1.37 1.47 2.453 1.284 2.917a.292.292 0 0 0 .14.37 9.423 9.423 0 0 1 4.163 4.136c1.778 3.532 1.04 6.564.089 7.814l-.021-.01z" id="a"/></defs><g fill="none" fill-rule="evenodd"><path d="M83.045 37.303c-1.04-12.164-8.233-23.385-18.301-30.105A43.414 43.414 0 0 0 46.261.405C28.199-1.955 9.159 6.005 2.34 23.8c-5.863 15.305-.083 30.49 10.395 42.076 3.79 4.167 4.315 12.039 4.315 17.337v10.736a2.982 2.982 0 0 0 2.978 2.985h38.77a2.976 2.976 0 0 0 2.968-2.787c.145-2.115.38-3.97.38-3.97.81-3.485 3.773-6.277 10.078-5.266 6.611 1.042 10.785-.912 11.154-5.324.125-1.454.203-13.888.203-13.888.317-.182 2.385-.594 5.41-1.282a3.063 3.063 0 0 0 1.46-5.162c-6.865-6.809-7.796-9.986-7.957-10.669-.852-3.391.837-7.715.52-11.283h.031z" fill="#2D2E3D"/><use fill="#C6C7DC" xlink:href="#a" transform="translate(9 9)"/><ellipse fill="#C6C7DC" cx="14.886" cy="96.919" rx="14.886" ry="14.919"/><path d="M15.024 89C11.697 89 9 91.703 9 95.038c0 3.328 4.98 10.882 6.024 10.882 1.045 0 6.02-7.554 6.02-10.882 0-3.333-2.695-6.035-6.02-6.038zm.13 8.418a2.081 2.081 0 0 1-2.079-2.083c0-1.151.93-2.084 2.08-2.084 1.147 0 2.078.933 2.078 2.084 0 1.15-.93 2.083-2.079 2.083z" fill="#2D2E3D" fill-rule="nonzero"/><circle fill="#2D2E3D" fill-rule="nonzero" cx="23.5" cy="24.5" r="2.5"/><circle fill="#2D2E3D" fill-rule="nonzero" cx="49.5" cy="47.5" r="2.5"/><circle fill="#2D2E3D" fill-rule="nonzero" cx="56.5" cy="23.5" r="1.5"/><circle fill="#2D2E3D" fill-rule="nonzero" cx="60.5" cy="32.5" r="1.5"/><circle fill="#2D2E3D" fill-rule="nonzero" cx="34.5" cy="51.5" r="1.5"/><circle fill="#2D2E3D" fill-rule="nonzero" cx="13.5" cy="28.5" r="1.5"/><circle fill="#2D2E3D" fill-rule="nonzero" cx="14.5" cy="44.5" r="3.5"/><g><path d="M51.945 11a3.058 3.058 0 0 0-2.684 4.51l-5.004 5.004a4.044 4.044 0 0 0-4.987 0l-3.904-3.904a2.01 2.01 0 0 0 .289-1.028 2.038 2.038 0 0 0-2.037-2.037 2.038 2.038 0 0 0-2.036 2.037c0 1.123.913 2.036 2.036 2.036.377 0 .725-.11 1.028-.288l3.904 3.904a4.049 4.049 0 0 0 0 4.986l-6.447 6.448a3.04 3.04 0 0 0-2.048-.795A3.058 3.058 0 0 0 27 34.927a3.058 3.058 0 0 0 3.055 3.055 3.058 3.058 0 0 0 2.684-4.51l6.532-6.532a4.049 4.049 0 0 0 1.984.824v5.173a3.057 3.057 0 0 0-2.545 3.008A3.058 3.058 0 0 0 41.764 39a3.058 3.058 0 0 0 3.055-3.055 3.057 3.057 0 0 0-2.546-3.008v-5.173a4.049 4.049 0 0 0 1.985-.824l3.904 3.904c-.18.304-.29.652-.29 1.029 0 1.123.914 2.036 2.037 2.036a2.038 2.038 0 0 0 2.036-2.036 2.038 2.038 0 0 0-2.036-2.037c-.377 0-.725.11-1.028.289l-3.904-3.904a4.049 4.049 0 0 0 0-4.987l4.92-4.92c.543.492 1.26.795 2.048.795A3.058 3.058 0 0 0 55 14.055 3.058 3.058 0 0 0 51.945 11z" fill="#2D2E3D"/><path stroke="#2D2E3D" d="M42.354 37.704l6.552 9.333L50.276 33h9.297v12.986l16.502-11.542L61.046 33l-4.238-9.5L72 22l-19.16-7-13.143-7.039L35 15.58l-15.098-2.658L40.472 23.5l-17 1.5 5.777 10.522L15 28.873v13.842l19.314 8.584-2.708-15.777 8.866.625L15 45.987"/></g></g></svg>
