<?xml version="1.0" encoding="UTF-8"?>
<svg width="688px" height="283px" viewBox="0 0 688 283" version="1.1" xmlns="http://www.w3.org/2000/svg" xmlns:xlink="http://www.w3.org/1999/xlink">
    <!-- Generator: Sketch 52 (66869) - http://www.bohemiancoding.com/sketch -->
    <title>molecules / illustration - runtime</title>
    <desc>Created with Sketch.</desc>
    <defs>
        <filter x="-77.9%" y="-114.8%" width="255.9%" height="329.7%" filterUnits="objectBoundingBox" id="filter-1">
            <feOffset dx="0" dy="15" in="SourceAlpha" result="shadowOffsetOuter1"></feOffset>
            <feGaussianBlur stdDeviation="154.5" in="shadowOffsetOuter1" result="shadowBlurOuter1"></feGaussianBlur>
            <feColorMatrix values="0 0 0 0 0   0 0 0 0 0   0 0 0 0 0  0 0 0 0.295346467 0" type="matrix" in="shadowBlurOuter1" result="shadowMatrixOuter1"></feColorMatrix>
            <feMerge>
                <feMergeNode in="shadowMatrixOuter1"></feMergeNode>
                <feMergeNode in="SourceGraphic"></feMergeNode>
            </feMerge>
        </filter>
    </defs>
    <g id="molecules-/-illustration---runtime" stroke="none" stroke-width="1" fill="none" fill-rule="evenodd">
        <g id="Group-9">
            <g id="runtime-window" filter="url(#filter-1)">
                <rect id="Rectangle" fill="#21212A" x="0" y="11.0980392" width="417" height="271.901961" rx="18.539999"></rect>
                <path d="M12.3498838,11.0980392 L404.650116,11.0980392 C411.470769,11.0980392 417,16.5390832 417,23.2509512 L417,38.8431373 L0,38.8431373 L0,23.2509512 C-8.3528902e-16,16.5390832 5.5292313,11.0980392 12.3498838,11.0980392 Z" id="Path" fill="#1E1E27"></path>
                <path d="M341.244697,29.470274 L339.830644,29.470274 L337.607291,26.5534816 L337.607291,29.470274 L336.38,29.470274 L336.38,23.2454123 L337.607291,23.2454123 L337.607291,25.9932441 L339.74171,23.2454123 L341.155763,23.2454123 L338.852369,26.2689165 L341.244697,29.470274 Z M345.00661,29.5947712 C344.312921,29.5947712 343.743748,29.3991347 343.299075,29.0078557 C342.854402,28.6165767 342.632069,28.0919151 342.632069,27.433855 L342.632069,23.2454123 L343.850467,23.2454123 L343.850467,27.3360357 C343.850467,27.6621015 343.943847,27.9199861 344.130609,28.1096971 C344.317372,28.2994081 344.609369,28.3942622 345.00661,28.3942622 C345.403852,28.3942622 345.695849,28.2994081 345.882612,28.1096971 C346.069374,27.9199861 346.162754,27.6621015 346.162754,27.3360357 L346.162754,23.2454123 L347.390045,23.2454123 L347.390045,27.433855 C347.390045,28.0919151 347.167712,28.6165767 346.723039,29.0078557 C346.278366,29.3991347 345.706229,29.5947712 345.00661,29.5947712 Z M353.366418,26.2422386 C353.911884,26.5564474 354.184612,27.0307179 354.184612,27.6650641 C354.184612,28.1926979 353.997853,28.6254697 353.624327,28.9633924 C353.250802,29.3013152 352.791314,29.470274 352.245848,29.470274 L349.604505,29.470274 L349.604505,23.2454123 L352.059087,23.2454123 C352.592694,23.2454123 353.041807,23.4099248 353.406439,23.7389549 C353.771071,24.0679849 353.953384,24.4874178 353.953384,24.9972662 C353.953384,25.5130431 353.757731,25.9280297 353.366418,26.2422386 Z M352.059087,24.3925654 L350.831796,24.3925654 L350.831796,25.7620349 L352.059087,25.7620349 C352.248814,25.7620349 352.407412,25.6968228 352.534884,25.5663964 C352.662357,25.4359701 352.726093,25.2729396 352.726093,25.0773002 C352.726093,24.8816607 352.66384,24.7186302 352.539331,24.5882039 C352.414823,24.4577775 352.254743,24.3925654 352.059087,24.3925654 Z M352.245848,28.3231209 C352.453362,28.3231209 352.6253,28.2534624 352.761666,28.1141434 C352.898033,27.9748244 352.966215,27.7984551 352.966215,27.5850302 C352.966215,27.3775337 352.898033,27.2041286 352.761666,27.0648096 C352.6253,26.9254905 352.453362,26.8558321 352.245848,26.8558321 L350.831796,26.8558321 L350.831796,28.3231209 L352.245848,28.3231209 Z M357.323987,28.2964429 L359.947544,28.2964429 L359.947544,29.470274 L356.096696,29.470274 L356.096696,23.2454123 L359.903077,23.2454123 L359.903077,24.4192433 L357.323987,24.4192433 L357.323987,25.7442496 L359.680742,25.7442496 L359.680742,26.9002954 L357.323987,26.9002954 L357.323987,28.2964429 Z M365.336952,29.470274 L364.082981,27.3093577 L363.149173,27.3093577 L363.149173,29.470274 L361.921882,29.470274 L361.921882,23.2454123 L364.412037,23.2454123 C364.987147,23.2454123 365.47628,23.4469772 365.87945,23.8501131 C366.28262,24.253249 366.484202,24.7393762 366.484202,25.3085093 C366.484202,25.6938598 366.374518,26.0510447 366.155146,26.3800748 C365.935774,26.7091048 365.645259,26.9566147 365.283592,27.1226119 L366.662071,29.470274 L365.336952,29.470274 Z M363.149173,24.3925654 L363.149173,26.2333459 L364.412037,26.2333459 C364.643267,26.2333459 364.841885,26.1429381 365.007896,25.9621198 C365.173907,25.7813015 365.256911,25.5634335 365.256911,25.3085093 C365.256911,25.0535851 365.173907,24.8371992 365.007896,24.6593451 C364.841885,24.4814911 364.643267,24.3925654 364.412037,24.3925654 L363.149173,24.3925654 Z M372.095946,23.2454123 L373.323237,23.2454123 L373.323237,29.470274 L372.389429,29.470274 L369.721405,25.6642157 L369.721405,29.470274 L368.494114,29.470274 L368.494114,23.2454123 L369.427922,23.2454123 L372.095946,27.0425779 L372.095946,23.2454123 Z M376.818348,28.2964429 L379.441905,28.2964429 L379.441905,29.470274 L375.591057,29.470274 L375.591057,23.2454123 L379.397438,23.2454123 L379.397438,24.4192433 L376.818348,24.4192433 L376.818348,25.7442496 L379.175103,25.7442496 L379.175103,26.9002954 L376.818348,26.9002954 L376.818348,28.2964429 Z M385.533893,23.2454123 L385.533893,24.4192433 L383.853038,24.4192433 L383.853038,29.470274 L382.625747,29.470274 L382.625747,24.4192433 L380.953785,24.4192433 L380.953785,23.2454123 L385.533893,23.2454123 Z M388.557653,28.2964429 L391.18121,28.2964429 L391.18121,29.470274 L387.330362,29.470274 L387.330362,23.2454123 L391.136743,23.2454123 L391.136743,24.4192433 L388.557653,24.4192433 L388.557653,25.7442496 L390.914407,25.7442496 L390.914407,26.9002954 L388.557653,26.9002954 L388.557653,28.2964429 Z M395.281073,29.5947712 C394.66446,29.5947712 394.145683,29.4569364 393.724726,29.1812626 C393.303769,28.9055887 393.007325,28.5306187 392.835385,28.0563411 L393.884807,27.4427476 C394.127895,28.0770938 394.60517,28.3942622 395.316647,28.3942622 C395.660527,28.3942622 395.912505,28.3320142 396.072587,28.2075163 C396.232669,28.0830185 396.312709,27.9259164 396.312709,27.7362054 C396.312709,27.516852 396.214882,27.3464111 396.019226,27.2248775 C395.82357,27.1033438 395.473766,26.9714374 394.969804,26.8291541 C394.691142,26.7461555 394.455469,26.6631582 394.262777,26.5801596 C394.070086,26.4971611 393.877397,26.3860039 393.684706,26.2466849 C393.492014,26.1073659 393.345274,25.9309965 393.244482,25.7175716 C393.143689,25.5041467 393.093294,25.2551548 393.093294,24.9705882 C393.093294,24.4073836 393.293393,23.9583088 393.693599,23.6233503 C394.093805,23.2883918 394.575526,23.120915 395.138779,23.120915 C395.642741,23.120915 396.085925,23.2439289 396.468344,23.4899604 C396.850762,23.7359919 397.148689,24.0783559 397.362132,24.5170626 L396.330496,25.1128708 C396.081479,24.5793085 395.684244,24.3125314 395.138779,24.3125314 C394.883833,24.3125314 394.683733,24.3703331 394.538473,24.4859383 C394.393213,24.6015434 394.320585,24.751235 394.320585,24.9350176 C394.320585,25.1306571 394.402107,25.2892413 394.565153,25.4107749 C394.7282,25.5323085 395.040949,25.664215 395.503408,25.8064982 C395.693136,25.8657829 395.836911,25.9117279 395.934739,25.9443345 C396.032567,25.976941 396.165967,26.0273323 396.334943,26.0955097 C396.503918,26.1636871 396.634354,26.2274172 396.726253,26.2867019 C396.818152,26.3459866 396.923389,26.4260197 397.041969,26.5268037 C397.160548,26.6275876 397.250964,26.7313343 397.313218,26.8380468 C397.375472,26.9447592 397.428832,27.0737015 397.473299,27.2248775 C397.517767,27.3760534 397.54,27.540566 397.54,27.7184201 C397.54,28.2934816 397.331007,28.7499669 396.913014,29.0878896 C396.495022,29.4258124 395.951047,29.5947712 395.281073,29.5947712 Z" id="Kubernetes" fill="#7B7B8F"></path>
                <rect id="Rectangle" fill="#464769" x="121.393333" y="178.493464" width="83.4" height="58.2647059" rx="11.0034894"></rect>
                <ellipse id="Oval" fill="#C0C0DD" cx="175.14" cy="218.261438" rx="8.34" ry="8.32352941"></ellipse>
                <ellipse id="Oval" fill="#C0C0DD" cx="147.34" cy="197.915033" rx="8.34" ry="8.32352941"></ellipse>
                <rect id="Rectangle" fill="#464769" x="280.78" y="110.055556" width="83.4" height="58.2647059" rx="11.0034894"></rect>
                <ellipse id="Oval" fill="#C0C0DD" cx="344.866667" cy="148.124183" rx="6.34" ry="6.32352941"></ellipse>
                <ellipse id="Oval" fill="#C0C0DD" cx="303.02" cy="150.748366" rx="8.34" ry="8.32352941"></ellipse>
                <g id="Group-2" transform="translate(312.000000, 118.000000)" fill="#C0C0DD">
                    <ellipse id="Oval" cx="10.6333333" cy="10.7283951" rx="10.1933333" ry="10.1732026"></ellipse>
                </g>
                <rect id="Rectangle" fill="#464769" x="47.26" y="71.2124183" width="83.4" height="58.2647059" rx="11.0034894"></rect>
                <g id="Group" transform="translate(74.000000, 93.000000)">
                    <ellipse id="Oval" fill="#C0C0DD" cx="11.5833333" cy="11.5604575" rx="11.5833333" ry="11.5604575"></ellipse>
                    <polygon id="Rectangle" fill="#464769" transform="translate(12.463422, 11.761376) rotate(-18.615692) translate(-12.463422, -11.761376) " points="11.8199325 11.1186144 13.106427 11.1206905 13.1069109 12.4041373 11.8204164 12.4020613"></polygon>
                    <path d="M17.6026821,10.0065763 C16.4094324,6.04401498 14.6812776,5.08413987 10.7065218,6.30654492 C6.73176586,7.52894998 5.7689368,9.21078243 7.00333303,13.1733438 C8.23772927,17.1359051 9.91650816,18.0957802 13.891264,16.8733752 C17.8660199,15.6509701 18.7877025,13.9691377 17.6026821,10.0065763 Z M15.5865016,12.5744474 L14.8376345,12.8287732 L15.1009724,13.5999549 C15.1908868,13.8076692 15.1557225,14.0481673 15.0100716,14.2216496 C14.8644207,14.3951318 14.6331435,14.4719877 14.4122131,14.4203243 C14.1912828,14.3686609 14.0184084,14.1972963 13.9653278,13.9773417 L13.70199,13.20616 L12.15488,13.7230159 L12.4182179,14.4941976 C12.5081323,14.7019119 12.472968,14.9424099 12.3273171,15.1158922 C12.1816662,15.2893744 11.950389,15.3662303 11.7294587,15.3145669 C11.5085283,15.2629035 11.3356539,15.0915389 11.2825733,14.8715844 L11.0192355,14.1004027 L10.2703684,14.3547285 C9.96716144,14.4274518 9.65855586,14.2567816 9.55993754,13.9618343 C9.46131921,13.666887 9.60548644,13.3457556 9.89182023,13.2225682 L10.6406873,12.9682423 L10.1386995,11.4833073 L9.38983243,11.7376332 C9.32182695,11.7501218 9.25210521,11.7501218 9.18409972,11.7376332 C8.89483028,11.7270038 8.65429878,11.5122323 8.61195103,11.2267594 C8.56960328,10.9412864 8.7374831,10.6663014 9.01128425,10.5726565 L9.7601513,10.3183306 L9.49681344,9.54714893 C9.39228031,9.232246 9.5636043,8.89248588 9.8794763,8.7882734 C10.1953483,8.68406093 10.5361541,8.85485924 10.6406873,9.16976213 L10.8957958,9.94094384 L12.4429058,9.42408801 L12.1795679,8.6529063 C12.0750348,8.33800336 12.2463587,7.9982432 12.5622308,7.89403071 C12.8781028,7.78981823 13.2189086,7.96061658 13.3234418,8.27551951 L13.5785503,9.04670122 L14.3274174,8.79237534 C14.4779666,8.74063527 14.6430695,8.75148737 14.7855015,8.82248488 C14.9279335,8.89348239 15.0357037,9.01864826 15.0845137,9.16976213 C15.136413,9.31984943 15.1255275,9.48444584 15.0543115,9.62644085 C14.9830955,9.76843587 14.8575445,9.87587539 14.7059656,9.92453572 L13.9570985,10.1788616 L14.4590863,11.6637966 L15.2079534,11.4094707 C15.4163069,11.3198322 15.6575451,11.3548886 15.8315612,11.5000926 C16.0055773,11.6452966 16.0826698,11.8758643 16.0308474,12.0961168 C15.979025,12.3163694 15.807133,12.4887134 15.5865016,12.5416311 L15.5865016,12.5744474 Z" id="Shape" fill="#464769" fill-rule="nonzero"></path>
                </g>
                <ellipse id="Oval" fill="#C0C0DD" cx="206.646667" cy="119.303922" rx="8.34" ry="8.32352941"></ellipse>
                <path d="M190.893333,221.035948 L191.82,221.350392" id="Path" stroke="#C0C0DD" stroke-width="0.92699995"></path>
                <path d="M193.673333,221.934733 C204.414611,224.095825 234.785649,228.023964 263.642444,209.048223 C286.349935,194.117602 295.866276,173.073124 299.313333,163.696078" id="Path" stroke="#C0C0DD" stroke-width="0.92699995" stroke-linecap="round" stroke-dasharray="2.77172990729332"></path>
                <path d="M299.313333,162.771242 C299.480133,162.445595 299.637667,162.119948 299.776667,161.846405" id="Path" stroke="#C0C0DD" stroke-width="0.92699995"></path>
                <polygon id="Path" fill="#C0C0DD" points="190.713602 222.885621 191.112746 222.627527 189.740252 220.748074 191.82 219.58996 191.574912 219.186275 189.04 220.602482"></polygon>
                <polygon id="Path" fill="#C0C0DD" points="301.166667 163.508883 300.718835 163.696078 299.795613 161.570069 297.673581 162.619702 297.46 162.205197 300.036753 160.921569"></polygon>
                <path d="M311.36,118.379085 C306.15796,113.592449 289.566837,99.7298537 264.14148,98.1757511 C239.485656,96.658947 221.774094,107.612262 215.913333,111.665362" id="Path" stroke="#C0C0DD" stroke-width="0.92699995" stroke-linecap="round" stroke-dasharray="2.780999726295477"></path>
                <polygon id="Path" fill="#C0C0DD" points="312.356285 116 311.741581 116.054491 312.030492 119.027288 309 119.093889 309.012294 119.699346 312.706667 119.614582"></polygon>
                <polygon id="Path" fill="#C0C0DD" points="215.832687 108.205882 216.429163 108.362289 215.729217 111.619617 218.693333 112.156839 218.59595 112.830065 214.986667 112.17724"></polygon>
                <g id="Group-4" transform="translate(98.000000, 83.000000)">
                    <path d="M100.306667,29.8300654 C95.5374222,24.0774286 80.6366222,7.82210334 54.9494222,2.16116644 C28.1193333,-3.78098331 6.84306667,5.62130713 0.226666667,8.92250144" id="Path" stroke="#C0C0DD" stroke-width="0.92699995" stroke-linecap="round" stroke-dasharray="2.780999726295477"></path>
                    <polygon id="Path" fill="#C0C0DD" points="101.233333 27.0861287 100.641214 27.0555556 100.499105 30.0639497 97.597721 29.6970723 97.5266667 30.3085345 101.061619 30.754902"></polygon>
                </g>
                <polygon id="Path" fill="#C0C0DD" points="99.5522296 88.7843137 100.122958 89.0045129 99.0367329 91.9048508 101.933333 92.8045218 101.755364 93.4084967 98.2266667 92.3075008"></polygon>
                <path d="M130.866667,195.140523 C124.672098,194.501014 92.1435091,190.18043 75.1510686,167.475265 C59.4515312,146.496254 69.0488502,125.881192 71.3576057,121.529412" id="Path" stroke="#C0C0DD" stroke-width="0.92699995" stroke-linecap="round" stroke-dasharray="2.780999726295477"></path>
                <polygon id="Path" fill="#C0C0DD" points="135.561932 192.366013 135.038164 192.726116 137.099662 194.932463 134.366667 196.515774 134.742705 196.990196 138.073333 195.052498"></polygon>
                <polygon id="Path" fill="#C0C0DD" points="73.6333333 122.462289 73.0708007 122.699346 71.9336379 119.854655 69.2661445 121.233332 69 120.67188 72.2481723 119"></polygon>
                <path d="M186.26,208.088235 C191.200903,204.671428 205.758038,193.439516 211.662417,172.582881 C217.505035,151.940947 211.13127,134.967327 208.747285,129.477124" id="Path" stroke="#C0C0DD" stroke-width="0.92699995" stroke-linecap="round" stroke-dasharray="2.780999726295477"></path>
                <polygon id="Path" fill="#C0C0DD" points="188.034209 209.937908 188.113333 209.387179 185.137044 209.036714 185.733519 206.349821 185.137044 206.238562 184.406667 209.509563"></polygon>
                <polygon id="Path" fill="#C0C0DD" points="212.206667 130.086465 211.954721 130.649409 209.195615 129.387424 208.150964 132.251634 207.573333 132.035117 208.845349 128.552288"></polygon>
                <path d="M40.5151425,5.14265691 C40.3694255,4.70526816 40.0551291,4.34300954 39.6410417,4.13516687 L31.2362261,0.141622017 C31.0198089,0.0431261575 30.7834778,-0.00463528676 30.5455031,0.00203002349 C30.3159316,-0.00649279418 30.0861477,0.0118409606 29.8608927,0.0566529774 L21.4560771,4.08054391 C21.0353657,4.26858804 20.727683,4.641477 20.6247644,5.08803395 L18.558708,14.0886829 C18.4789126,14.5486938 18.5890773,15.0212285 18.8643376,15.3996338 L24.6774137,22.5431023 C25.0165719,22.8778623 25.4656688,23.0803528 25.9427205,23.1136087 L35.2032991,23.1136087 C35.6979287,23.1645518 36.1817302,22.9464136 36.4686058,22.5431023 L42.2816819,15.3996338 C42.5530455,15.0190553 42.6708247,14.5512818 42.6117619,14.0886829 L40.5151425,5.14265691 Z" id="path10349" fill="#316DE6"></path>
                <path d="M39.5084315,13.5148616 C39.5084315,13.5148616 39.452059,13.5148616 39.452059,13.4847136 C39.452059,13.4545656 39.3956865,13.4847136 39.3393139,13.4847136 C39.2248305,13.4725169 39.1092986,13.4725169 38.9948152,13.4847136 C38.9394259,13.4990477 38.8810868,13.4990477 38.8256976,13.4847136 C38.501523,13.4605064 38.1805655,13.4059829 37.8673646,13.3219142 C37.7757214,13.2902807 37.7026822,13.2221674 37.666929,13.1349964 L37.4289117,12.9963155 C37.5344562,12.1920603 37.4963247,11.376352 37.3161666,10.5844731 C37.1174885,9.79489171 36.7829879,9.04287034 36.3265156,8.35954847 L36.4956332,8.19674911 L36.4956332,8.16660108 C36.4950539,8.07887048 36.5260382,7.99365136 36.5833238,7.92541684 C36.8270206,7.71799119 37.0913714,7.53420391 37.3725391,7.37672269 L37.5416567,7.29833781 L37.8548374,7.13553845 C37.8548374,7.10539042 37.9112099,7.10539042 37.9362644,7.081272 C37.9613189,7.05715357 37.9362644,7.05112397 37.9362644,7.02700554 C38.0556351,6.9448809 38.1355602,6.81988797 38.157959,6.68030255 C38.1803578,6.54071713 38.1433376,6.39833437 38.0552731,6.285364 C37.9590561,6.16897105 37.8150553,6.09856042 37.6606654,6.09241661 C37.5170042,6.09631212 37.3785347,6.14497584 37.2660577,6.23109755 C37.2347396,6.26124558 37.2096852,6.285364 37.1783671,6.285364 C37.0962437,6.36163551 37.0208226,6.44432268 36.952877,6.53257785 C36.9215589,6.5868443 36.8651864,6.61096273 36.840132,6.64111076 C36.6315011,6.86996918 36.3936915,7.07255772 36.1323436,7.24407136 C36.0802834,7.27281218 36.0227878,7.29126137 35.963226,7.29833781 C35.9268431,7.31126029 35.8868639,7.31126029 35.8504809,7.29833781 L35.6249908,7.43701875 C35.3995007,7.21995294 35.1426926,7.00288712 34.9172025,6.7858213 C33.8321426,5.97746923 32.5311635,5.48195539 31.1652977,5.35680468 L31.1652977,5.13973886 C31.0928678,5.08540282 31.042012,5.00877635 31.0212346,4.92267304 C31.012742,4.61417952 31.0316012,4.30555083 31.0776071,4.00014332 C31.0776071,3.94587687 31.0776071,3.89161042 31.0776071,3.83734396 C31.0776071,3.78307751 31.0776071,3.62027814 31.1339796,3.51174524 L31.1339796,3.34894587 C31.1502968,3.06698099 30.9416212,2.8191426 30.6516813,2.7761333 C30.4681285,2.76259714 30.2889044,2.83429722 30.1693831,2.9690807 C30.0619963,3.06849643 30.0009903,3.2055257 30.0002655,3.34894587 L30.0002655,3.48762681 C30.0072986,3.59972668 30.0261872,3.7108441 30.056638,3.81925514 C30.0820417,3.86984012 30.0928581,3.92606703 30.0879561,3.98205451 C30.1355331,4.28730627 30.1544004,4.59606805 30.1443286,4.90458423 C30.1250573,4.99129035 30.0738966,5.0683763 30.0002655,5.12165004 L30.0002655,5.1759165 L30.0002655,5.39298231 C29.6870848,5.42313034 29.3739041,5.4773968 29.0419325,5.53166325 C27.7108741,5.81323214 26.4991968,6.47524814 25.5656268,7.43098915 L25.3965092,7.32245624 C25.3651911,7.32245624 25.3401367,7.32245624 25.2837642,7.32245624 C25.2242023,7.31537979 25.1667067,7.2969306 25.1146466,7.26818978 C24.8597642,7.08881401 24.6228094,6.88695364 24.4068582,6.66522918 C24.4068582,6.61096273 24.3191676,6.5868443 24.2941131,6.55669627 C24.2690587,6.52654824 24.15005,6.39389691 24.068623,6.31551203 C23.9871961,6.23712716 24.0122505,6.285364 23.9809324,6.26124558 L23.9809324,6.23109755 C23.8664537,6.14931004 23.7288067,6.10303863 23.5863248,6.09844622 C23.428962,6.08550509 23.2770796,6.15744877 23.1917171,6.285364 C23.0354207,6.53191523 23.0827041,6.85053319 23.3044621,7.04509436 C23.3044621,7.04509436 23.3044621,7.07524239 23.3044621,7.07524239 C23.3044621,7.07524239 23.3608347,7.12950885 23.3921527,7.12950885 C23.4906878,7.19011666 23.5932095,7.24449765 23.6990698,7.29230821 L23.8681874,7.37069309 C24.1533387,7.52219886 24.418346,7.70644255 24.6574028,7.91938723 C24.7247629,7.98181418 24.7573105,8.07133301 24.7450933,8.16057147 L24.9016837,8.31131162 C24.9016837,8.36557808 24.8453112,8.3896965 24.8139931,8.44396296 C23.9348119,9.76495437 23.5852508,11.3488691 23.8306057,12.8998418 L23.6051156,12.9541083 C23.6051156,13.0324931 23.4923706,13.0867596 23.4109436,13.141026 C23.0959343,13.2264549 22.772758,13.2809989 22.446347,13.3038254 C22.3909578,13.2894913 22.3326187,13.2894913 22.2772294,13.3038254 C22.1644844,13.3038254 22.0517393,13.3038254 21.9389943,13.3038254 C21.8262492,13.3038254 21.8826218,13.3038254 21.8262492,13.3038254 C21.7698767,13.3038254 21.8262492,13.3038254 21.7698767,13.3038254 C21.4759499,13.3559412 21.2770131,13.6219198 21.3188965,13.906786 C21.3804169,14.1521312 21.6220921,14.3149836 21.8826218,14.2866512 C21.9299017,14.2981366 21.9794049,14.2981366 22.0266849,14.2866512 C22.0266849,14.2866512 22.0266849,14.2866512 22.0266849,14.2565032 C22.0266849,14.2263551 22.1143755,14.2565032 22.1394299,14.2565032 C22.2461518,14.2268831 22.350765,14.1906293 22.4526106,14.1479702 C22.5046708,14.1192294 22.5621664,14.1007802 22.6217282,14.0937038 C22.9242218,13.9851509 23.2367075,13.9043962 23.5550067,13.8525196 C23.6377889,13.8501 23.7184196,13.8781289 23.7804968,13.9309044 C23.7804968,13.9309044 23.7804968,13.9610525 23.7804968,13.9610525 L24.037305,13.9309044 C24.4570124,15.19034 25.262734,16.2980682 26.3485785,17.1085068 C26.5857198,17.2971946 26.8416891,17.4628119 27.1127394,17.6029345 L27.0313125,17.9586812 C27.0313125,17.9888293 27.0313125,17.9888293 27.0313125,17.9888293 C27.0817335,18.0707508 27.0931411,18.1695836 27.0626305,18.2601615 C26.938724,18.5359339 26.7854926,18.7986171 26.6053867,19.0440103 L26.6053867,19.0741584 C26.5776249,19.1253329 26.5392522,19.1704807 26.4926417,19.2068097 C26.4362691,19.2610761 26.3798966,19.3756387 26.2984696,19.4841716 C26.2170426,19.5927045 26.2671515,19.538438 26.2420971,19.5625564 C26.1080254,19.8251376 26.2062096,20.1428163 26.4675872,20.2921388 C26.5294977,20.3240603 26.5979034,20.3425806 26.6680228,20.3464052 C26.8957254,20.3402382 27.1019991,20.2155564 27.2066936,20.0208065 C27.2066936,20.0208065 27.2066936,19.96654 27.2630662,19.936392 C27.3194387,19.906244 27.3507568,19.7494742 27.3758112,19.6409413 L27.4321837,19.478142 C27.5255308,19.1855009 27.6493435,18.902684 27.801737,18.6339971 C27.8535177,18.5548588 27.9338072,18.4968914 28.0272271,18.4711978 C28.0272271,18.4711978 28.0272271,18.4711978 28.0272271,18.4711978 L28.1399721,18.2541319 C28.922331,18.5477001 29.7556438,18.6950394 30.5953088,18.6882636 C31.1111306,18.6918713 31.6251338,18.6290074 32.1236306,18.5013458 C32.436383,18.4230089 32.7438726,18.3263552 33.0443819,18.2119247 L33.1571269,18.4048721 C33.188445,18.4048721 33.188445,18.4048721 33.188445,18.4048721 C33.2785906,18.4366351 33.3570184,18.4932585 33.4139351,18.5676715 C33.5643269,18.8365244 33.6860445,19.1193493 33.7772247,19.4118163 L33.8335972,19.5746157 C33.8547572,19.6782068 33.8928092,19.7779231 33.9463423,19.8700664 C33.9776604,19.9002144 33.9776604,19.9243328 34.0027148,19.9544808 C34.0277693,19.9846289 34.0027148,19.9544808 34.0027148,19.9544808 C34.1063234,20.1473905 34.3096917,20.2717623 34.535122,20.2800796 C34.6133595,20.2770918 34.6901185,20.258619 34.7606121,20.2258131 C34.887689,20.1691085 34.9818529,20.0607756 35.0174203,19.9303624 C35.0611517,19.7969331 35.0611517,19.6537785 35.0174203,19.5203492 C35.0174203,19.5203492 34.9861022,19.5203492 34.9861022,19.5203492 C34.9861022,19.5203492 34.9861022,19.4660828 34.9297297,19.4359347 C34.8813221,19.3341147 34.8133106,19.2420466 34.729294,19.1646024 C34.7018004,19.1115365 34.6634513,19.0643656 34.616549,19.0259215 L34.616549,18.9716551 C34.4291427,18.7317975 34.2773575,18.4679796 34.1655688,18.1878063 C34.1253743,18.1015005 34.1253743,18.0027798 34.1655688,17.916474 C34.1655688,17.886326 34.1655688,17.886326 34.1655688,17.886326 L34.0841418,17.6692602 C35.5304748,16.8313969 36.613736,15.5188083 37.1345218,13.9731117 L37.3600119,14.0032597 C37.3600119,14.0032597 37.3600119,13.9731117 37.3600119,13.9731117 C37.4220891,13.9203361 37.5027198,13.8923073 37.585502,13.8947268 C37.8936034,13.9466277 38.1956944,14.0274069 38.4874624,14.135911 C38.5382782,14.16724 38.5964005,14.1858903 38.65658,14.1901775 C38.7559515,14.2462626 38.860859,14.2927172 38.9697607,14.3288584 C39.0010788,14.3288584 39.0261332,14.3288584 39.0825058,14.3288584 C39.1388783,14.3288584 39.1138238,14.3288584 39.1388783,14.3590065 C39.1861582,14.3704919 39.2356615,14.3704919 39.2829414,14.3590065 C39.5327454,14.3519813 39.7543063,14.2026829 39.8466667,13.9791413 C39.8202303,13.7054675 39.6165823,13.4779647 39.3393139,13.4123583 L39.5084315,13.5148616 Z M31.3657333,12.6707168 L30.6015724,13.0204339 L29.8436751,12.6707168 L29.6432395,11.8808384 L30.1819103,11.2296409 L31.0274982,11.2296409 L31.566169,11.8808384 L31.3657333,12.6707168 Z M35.9694896,10.9040422 C36.1036636,11.4651299 36.1417465,12.0435454 36.0822347,12.6164503 L33.4014079,11.8808384 C33.2743776,11.858442 33.1631095,11.7853789 33.0950933,11.6796997 C33.0270771,11.5740205 33.0086563,11.4455816 33.0443819,11.3261146 C33.0625673,11.2529477 33.1016152,11.1861226 33.1571269,11.1331672 L35.2742285,9.2881078 C35.5847937,9.7900157 35.8129731,10.3350847 35.9506988,10.9040422 L35.9694896,10.9040422 Z M34.422377,8.31131162 L32.1111034,9.8910684 C31.9036304,10.0114514 31.6355858,9.96500588 31.484742,9.78253549 C31.4277991,9.73352485 31.3957965,9.66310902 31.3970514,9.5895881 L31.2279338,6.84611736 C32.4358342,6.96725638 33.5637173,7.48458215 34.422377,8.31131162 Z M29.3175316,6.92450224 L29.8812568,6.81596933 L29.7371937,9.51723283 C29.7270299,9.76225114 29.5158639,9.95482925 29.261159,9.95136446 C29.1829216,9.94837674 29.1061625,9.92990392 29.0356689,9.89709801 L26.6868137,8.31131162 C27.4153245,7.62225339 28.3246119,7.13666115 29.3175316,6.90641342 L29.3175316,6.92450224 Z M25.8725439,9.33634465 L27.9583273,11.1452265 C28.1436074,11.2983698 28.1685969,11.5656582 28.0146998,11.7481871 C27.9642393,11.823951 27.8818331,11.8746325 27.7892097,11.886868 L25.0520104,12.6465983 C24.9646994,11.4766785 25.2510044,10.3090235 25.8725439,9.30016701 L25.8725439,9.33634465 Z M25.3902456,13.9309044 L28.1838174,13.4666248 C28.413331,13.4556923 28.6173737,13.6061957 28.6661157,13.8223715 C28.7055256,13.9088373 28.7055256,14.007238 28.6661157,14.0937038 L27.5950377,16.5899607 C26.5706796,15.9510086 25.7952963,15.0031462 25.3902456,13.8947268 L25.3902456,13.9309044 Z M31.7916591,17.2592469 C31.3932142,17.348745 30.9856565,17.3952585 30.576518,17.3979279 C29.9732351,17.3887163 29.3743418,17.2973666 28.7976516,17.1265956 L30.1819103,14.7147532 C30.3155252,14.5484892 30.5558692,14.5022162 30.7456355,14.6062203 C30.8288987,14.6612735 30.9065031,14.7238643 30.9773893,14.7931381 L32.3303299,17.1567436 C32.1674759,17.1808621 31.9983583,17.2049805 31.7916591,17.2592469 Z M35.2366468,14.8956414 C34.8071721,15.5553749 34.2292162,16.113799 33.545471,16.5296646 L32.4430749,13.9731117 C32.3854168,13.7646885 32.4908861,13.5464011 32.6936195,13.4545656 C32.7761802,13.4250553 32.8626179,13.4067901 32.9504277,13.4002991 L35.7753176,13.8645788 C35.648728,14.2305101 35.469518,14.5775692 35.2429104,14.8956414 L35.2366468,14.8956414 Z" id="path10351" fill="#FFFFFF" fill-rule="nonzero"></path>
                <path d="M174.232483,216.007837 L174.232483,214.810977 C174.233135,214.710476 174.17632,214.619563 174.088768,214.581009 C174.001216,214.542455 173.90036,214.563938 173.833651,214.635351 L171.575646,217.02907 C171.484587,217.124396 171.433333,217.254412 171.433333,217.390079 C171.433333,217.525746 171.484587,217.655762 171.575646,217.751089 L173.833651,220.144808 C173.90036,220.21622 174.001216,220.237703 174.088768,220.19915 C174.17632,220.160596 174.233135,220.069682 174.232483,219.969182 L174.232483,218.609705 C176.041795,218.618133 177.745518,219.51399 178.846667,221.035948 C178.660526,218.396328 176.716377,216.277774 174.232483,216.007837 Z" id="Path" fill="#464769"></path>
            </g>
            <g id="Group-8" transform="translate(95.000000, 48.000000)" fill-rule="nonzero" stroke="#464769" stroke-linecap="round">
                <path d="M0.446666667,0.28973813 L141.043868,0.28973813 C144.027453,0.28973813 146.855198,1.62196874 148.754883,3.92261544 L172.923157,33.1920236 C174.822842,35.4926703 177.650586,36.8249009 180.634171,36.8249009 L509.205945,36.8249009 C512.138619,36.8249009 514.923473,35.5375614 516.823462,33.303592 L525.839946,22.7021886" id="Path-13" transform="translate(263.143306, 18.557320) scale(-1, -1) translate(-263.143306, -18.557320) "></path>
                <path d="M239,151.871326 L406.244016,151.871326 C412.229223,151.871326 417.899848,149.190803 421.6988,144.565799 L459.69673,98.3055267 C463.495682,93.6805228 469.166307,91 475.151514,91 L570.660509,91 C573.75379,91 576.67295,92.4315145 578.566908,94.8771862 L592.396163,112.734925" id="Path-10-Copy" transform="translate(415.698081, 121.435663) scale(-1, -1) translate(-415.698081, -121.435663) "></path>
                <path d="M117.206667,68 L346.826687,68 C352.008697,68 356.988419,65.9886749 360.716807,62.389738 L387.29025,36.7389362 C391.018638,33.1399993 395.998361,31.1286742 401.180371,31.1286742 L572.764612,31.1286742 C576.054356,31.1286742 579.133661,32.7466916 580.999865,35.4558795 L592.396163,52" id="Path-10-Copy-3" transform="translate(354.801415, 49.564337) scale(-1, 1) translate(-354.801415, -49.564337) "></path>
                <path d="M88.48,213.553772 L212.922025,213.553772 C220.656131,213.553772 227.697025,209.09455 231.002895,202.102581 L263.46193,133.451191 C266.7678,126.459222 273.808693,122 281.5428,122 L577.753429,122 C582.06829,122 585.896556,124.767606 587.249291,128.864938 L592.396163,144.454418" id="Path-10-Copy-2" transform="translate(340.438081, 167.776886) scale(-1, -1) translate(-340.438081, -167.776886) "></path>
            </g>
        </g>
        <g id="Group-2" transform="translate(318.000000, 124.000000)">
            <polygon id="Path" fill="#464769" points="8.7023017 6.01423256 9.72929025 4.9697132 8.69316979 3.91566488 9.07741243 2.45846874 7.69849416 2.10149967 7.34726689 0.664827415 5.96764616 1.07017423 4.96735089 5.32907052e-15 3.95722125 1.08116917 2.56074162 0.680220331 2.22005116 2.11909157 0.843240254 2.48558959 1.23169762 3.92446083 0.204709073 4.9697132 1.24082953 6.02302852 0.856586891 7.47875867 2.23550516 7.83572774 2.58673243 9.27313299 3.96565071 8.86705318 4.96664843 9.9386934 5.97607561 8.85752423 7.37115034 9.25847307 7.7132457 7.81960183 9.09075907 7.4531038"></polygon>
            <ellipse id="Oval" fill="#C0C0DD" cx="5.04057263" cy="5.0461185" rx="3.16919689" ry="3.30698806"></ellipse>
            <ellipse id="Oval" fill="#464769" cx="5.03709249" cy="5.04248705" rx="2.74905009" ry="2.868574"></ellipse>
        </g>
        <path d="M206.5,114 C204.568497,114.003669 203.0036,115.598373 203,117.566667 C203,119.533333 205.891589,124 206.5,124 C207.108411,124 210,119.533333 210,117.566667 C210,115.596851 208.432997,114 206.5,114 Z M206.578505,118.96 C206.087811,118.962696 205.644084,118.663196 205.455079,118.20173 C205.266075,117.740265 205.369205,117.208173 205.716183,116.854586 C206.06316,116.501 206.585306,116.395905 207.038147,116.588509 C207.490987,116.781114 207.784888,117.233293 207.782243,117.733333 C207.782243,118.410803 207.243311,118.96 206.578505,118.96 Z" id="Shape" fill="#464769" fill-rule="nonzero"></path>
    </g>
</svg>