<?xml version="1.0" encoding="UTF-8"?>
<svg version="1.1" viewBox="0 0 688 283" xmlns="http://www.w3.org/2000/svg">
<title>molecules / illustration - runtime</title>
<desc>Created with Sketch.</desc>
<defs>
<filter id="a" x="-77.9%" y="-114.8%" width="255.9%" height="329.7%">
<feOffset dx="0" dy="15" in="SourceAlpha" result="shadowOffsetOuter1"/>
<feGaussianBlur in="shadowOffsetOuter1" result="shadowBlurOuter1" stdDeviation="154.5"/>
<feColorMatrix in="shadowBlurOuter1" result="shadowMatrixOuter1" values="0 0 0 0 0   0 0 0 0 0   0 0 0 0 0  0 0 0 0.295346467 0"/>
<feMerge>
<feMergeNode in="shadowMatrixOuter1"/>
<feMergeNode in="SourceGraphic"/>
</feMerge>
</filter>
</defs>
<g fill="none" fill-rule="evenodd">
<g filter="url(#a)">
<rect y="11.098" width="417" height="271.9" rx="18.54" fill="#21212A"/>
<path d="m12.35 11.098h392.3c6.8207 0 12.35 5.441 12.35 12.153v15.592h-417v-15.592c-8.3529e-16 -6.7119 5.5292-12.153 12.35-12.153z" fill="#1E1E27"/>
<path d="m341.24 29.47h-1.4141l-2.2234-2.9168v2.9168h-1.2273v-6.2249h1.2273v2.7478l2.1344-2.7478h1.4141l-2.3034 3.0235 2.3923 3.2014zm3.7619 0.1245c-0.69369 0-1.2629-0.19564-1.7075-0.58692s-0.66701-0.91594-0.66701-1.574v-4.1884h1.2184v4.0906c0 0.32607 0.09338 0.58395 0.28014 0.77366 0.18676 0.18971 0.47876 0.28457 0.876 0.28457 0.39724 0 0.68924-0.094854 0.876-0.28457 0.18676-0.18971 0.28014-0.4476 0.28014-0.77366v-4.0906h1.2273v4.1884c0 0.65806-0.22233 1.1827-0.66701 1.574s-1.0168 0.58692-1.7164 0.58692zm8.3598-3.3525c0.54547 0.31421 0.81819 0.78848 0.81819 1.4228 0 0.52763-0.18676 0.96041-0.56028 1.2983-0.37352 0.33792-0.83301 0.50688-1.3785 0.50688h-2.6413v-6.2249h2.4546c0.53361 0 0.98272 0.16451 1.3474 0.49354 0.36463 0.32903 0.54694 0.74846 0.54694 1.2583 0 0.51578-0.19565 0.93076-0.58697 1.245zm-1.3073-1.8497h-1.2273v1.3695h1.2273c0.18973 0 0.34832-0.065212 0.4758-0.19564 0.12747-0.13043 0.19121-0.29346 0.19121-0.4891 0-0.19564-0.062253-0.35867-0.18676-0.4891-0.12451-0.13043-0.28459-0.19564-0.48024-0.19564zm0.18676 3.9306c0.20751 0 0.37945-0.069658 0.51582-0.20898 0.13637-0.13932 0.20455-0.31569 0.20455-0.52911 0-0.2075-0.068182-0.3809-0.20455-0.52022-0.13637-0.13932-0.3083-0.20898-0.51582-0.20898h-1.4141v1.4673h1.4141zm5.0781-0.026678h2.6236v1.1738h-3.8508v-6.2249h3.8064v1.1738h-2.5791v1.325h2.3568v1.156h-2.3568v1.3961zm8.013 1.1738l-1.254-2.1609h-0.93381v2.1609h-1.2273v-6.2249h2.4902c0.57511 0 1.0642 0.20156 1.4674 0.6047s0.60475 0.88926 0.60475 1.4584c0 0.38535-0.10968 0.74254-0.32906 1.0716-0.21937 0.32903-0.50989 0.57654-0.87155 0.74254l1.3785 2.3477h-1.3251zm-2.1878-5.0777v1.8408h1.2629c0.23123 0 0.42985-0.090408 0.59586-0.27123s0.24902-0.39869 0.24902-0.65361-0.083004-0.47131-0.24902-0.64916c-0.16601-0.17785-0.36463-0.26678-0.59586-0.26678h-1.2629zm8.9468-1.1472h1.2273v6.2249h-0.93381l-2.668-3.8061v3.8061h-1.2273v-6.2249h0.93381l2.668 3.7972v-3.7972zm4.7224 5.051h2.6236v1.1738h-3.8508v-6.2249h3.8064v1.1738h-2.5791v1.325h2.3568v1.156h-2.3568v1.3961zm8.7155-5.051v1.1738h-1.6809v5.051h-1.2273v-5.051h-1.672v-1.1738h4.5801zm3.0238 5.051h2.6236v1.1738h-3.8508v-6.2249h3.8064v1.1738h-2.5791v1.325h2.3568v1.156h-2.3568v1.3961zm6.7234 1.2983c-0.61661 0-1.1354-0.13783-1.5563-0.41351-0.42096-0.27567-0.7174-0.65064-0.88934-1.1249l1.0494-0.61359c0.24309 0.63435 0.72036 0.95151 1.4318 0.95151 0.34388 0 0.59586-0.062248 0.75594-0.18675 0.16008-0.1245 0.24012-0.2816 0.24012-0.47131 0-0.21935-0.097827-0.38979-0.29348-0.51133-0.19566-0.12153-0.54546-0.25344-1.0494-0.39572-0.27866-0.082999-0.51434-0.166-0.70703-0.24899-0.19269-0.082998-0.38538-0.19416-0.57807-0.33347-0.19269-0.13932-0.33943-0.31569-0.44022-0.52911-0.10079-0.21342-0.15119-0.46242-0.15119-0.74698 0-0.5632 0.2001-1.0123 0.6003-1.3472s0.88193-0.50244 1.4452-0.50244c0.50396 0 0.94715 0.12301 1.3296 0.36905 0.38242 0.24603 0.68034 0.5884 0.89379 1.0271l-1.0316 0.59581c-0.24902-0.53356-0.64625-0.80034-1.1917-0.80034-0.25495 0-0.45505 0.057802-0.60031 0.17341-0.14526 0.11561-0.21789 0.2653-0.21789 0.44908 0 0.19564 0.081522 0.35422 0.24457 0.47576 0.16305 0.12153 0.4758 0.25344 0.93826 0.39572 0.18973 0.059285 0.3335 0.10523 0.43133 0.13784 0.097828 0.032606 0.23123 0.082998 0.4002 0.15118 0.16898 0.068177 0.29941 0.13191 0.39131 0.19119s0.19714 0.13932 0.31572 0.2401c0.11858 0.10078 0.209 0.20453 0.27125 0.31124 0.062254 0.10671 0.11561 0.23565 0.16008 0.38683 0.044468 0.15118 0.066701 0.31569 0.066701 0.49354 0 0.57506-0.20899 1.0315-0.62699 1.3695-0.41799 0.33792-0.96197 0.50688-1.6319 0.50688z" fill="#7B7B8F"/>
<rect x="121.39" y="178.49" width="83.4" height="58.265" rx="11.003" fill="#464769"/>
<ellipse cx="175.14" cy="218.26" rx="8.34" ry="8.3235" fill="#C0C0DD"/>
<ellipse cx="147.34" cy="197.92" rx="8.34" ry="8.3235" fill="#C0C0DD"/>
<rect x="280.78" y="110.06" width="83.4" height="58.265" rx="11.003" fill="#464769"/>
<ellipse cx="344.87" cy="148.12" rx="6.34" ry="6.3235" fill="#C0C0DD"/>
<ellipse cx="303.02" cy="150.75" rx="8.34" ry="8.3235" fill="#C0C0DD"/>
<g transform="translate(312 118)" fill="#C0C0DD">
<ellipse cx="10.633" cy="10.728" rx="10.193" ry="10.173"/>
</g>
<rect x="47.26" y="71.212" width="83.4" height="58.265" rx="11.003" fill="#464769"/>
<g transform="translate(74 93)">
<ellipse cx="11.583" cy="11.56" rx="11.583" ry="11.56" fill="#C0C0DD"/>
<polygon transform="translate(12.463 11.761) rotate(-18.616) translate(-12.463 -11.761)" points="11.82 11.119 13.106 11.121 13.107 12.404 11.82 12.402" fill="#464769"/>
<path d="m17.603 10.007c-1.1932-3.9626-2.9214-4.9224-6.8962-3.7-3.9748 1.2224-4.9376 2.9042-3.7032 6.8668 1.2344 3.9626 2.9132 4.9224 6.8879 3.7 3.9748-1.2224 4.8964-2.9042 3.7114-6.8668zm-2.0162 2.5679l-0.74887 0.25433 0.26334 0.77118c0.089914 0.20771 0.05475 0.44821-0.090901 0.62169-0.14565 0.17348-0.37693 0.25034-0.59786 0.19867-0.22093-0.051663-0.3938-0.22303-0.44689-0.44298l-0.26334-0.77118-1.5471 0.51686 0.26334 0.77118c0.089914 0.20771 0.05475 0.44821-0.090901 0.62169-0.14565 0.17348-0.37693 0.25034-0.59786 0.19867-0.22093-0.051663-0.3938-0.22303-0.44689-0.44298l-0.26334-0.77118-0.74887 0.25433c-0.30321 0.072723-0.61181-0.097947-0.71043-0.39289-0.098618-0.29495 0.045549-0.61608 0.33188-0.73927l0.74887-0.25433-0.50199-1.4849-0.74887 0.25433c-0.068005 0.012489-0.13773 0.012489-0.20573 0-0.28927-0.010629-0.5298-0.2254-0.57215-0.51087-0.042348-0.28547 0.12553-0.56046 0.39933-0.6541l0.74887-0.25433-0.26334-0.77118c-0.10453-0.3149 0.066791-0.65466 0.38266-0.75888 0.31587-0.10421 0.65668 0.066586 0.76121 0.38149l0.25511 0.77118 1.5471-0.51686-0.26334-0.77118c-0.10453-0.3149 0.066791-0.65466 0.38266-0.75888 0.31587-0.10421 0.65668 0.066586 0.76121 0.38149l0.25511 0.77118 0.74887-0.25433c0.15055-0.05174 0.31565-0.040888 0.45808 0.03011s0.2502 0.19616 0.29901 0.34728c0.051899 0.15009 0.041014 0.31468-0.030202 0.45668-0.071216 0.142-0.19677 0.24943-0.34835 0.29809l-0.74887 0.25433 0.50199 1.4849 0.74887-0.25433c0.20835-0.089638 0.44959-0.054582 0.62361 0.090622s0.25111 0.37577 0.19929 0.59602c-0.051822 0.22025-0.22371 0.3926-0.44435 0.44551v0.032816z" fill="#464769" fill-rule="nonzero"/>
</g>
<ellipse cx="206.65" cy="119.3" rx="8.34" ry="8.3235" fill="#C0C0DD"/>
<path d="m190.89 221.04l0.92667 0.31444" stroke="#C0C0DD" stroke-width=".927"/>
<path d="m193.67 221.93c10.741 2.1611 41.112 6.0892 69.969-12.887 22.707-14.931 32.224-35.975 35.671-45.352" stroke="#C0C0DD" stroke-dasharray="2.77172990729332" stroke-linecap="round" stroke-width=".927"/>
<path d="m299.31 162.77c0.1668-0.32565 0.32433-0.65129 0.46333-0.92484" stroke="#C0C0DD" stroke-width=".927"/>
<polygon points="190.71 222.89 191.11 222.63 189.74 220.75 191.82 219.59 191.57 219.19 189.04 220.6" fill="#C0C0DD"/>
<polygon points="301.17 163.51 300.72 163.7 299.8 161.57 297.67 162.62 297.46 162.21 300.04 160.92" fill="#C0C0DD"/>
<path d="m311.36 118.38c-5.202-4.7866-21.793-18.649-47.219-20.203-24.656-1.5168-42.367 9.4365-48.228 13.49" stroke="#C0C0DD" stroke-dasharray="2.780999726295477" stroke-linecap="round" stroke-width=".927"/>
<polygon points="312.36 116 311.74 116.05 312.03 119.03 309 119.09 309.01 119.7 312.71 119.61" fill="#C0C0DD"/>
<polygon points="215.83 108.21 216.43 108.36 215.73 111.62 218.69 112.16 218.6 112.83 214.99 112.18" fill="#C0C0DD"/>
<g transform="translate(98 83)">
<path d="m100.31 29.83c-4.7692-5.7526-19.67-22.008-45.357-27.669-26.83-5.9421-48.106 3.4601-54.723 6.7613" stroke="#C0C0DD" stroke-dasharray="2.780999726295477" stroke-linecap="round" stroke-width=".927"/>
<polygon points="101.23 27.086 100.64 27.056 100.5 30.064 97.598 29.697 97.527 30.309 101.06 30.755" fill="#C0C0DD"/>
</g>
<polygon points="99.552 88.784 100.12 89.005 99.037 91.905 101.93 92.805 101.76 93.408 98.227 92.308" fill="#C0C0DD"/>
<path d="m130.87 195.14c-6.1946-0.63951-38.723-4.9601-55.716-27.665-15.7-20.979-6.1022-41.594-3.7935-45.946" stroke="#C0C0DD" stroke-dasharray="2.780999726295477" stroke-linecap="round" stroke-width=".927"/>
<polygon points="135.56 192.37 135.04 192.73 137.1 194.93 134.37 196.52 134.74 196.99 138.07 195.05" fill="#C0C0DD"/>
<polygon points="73.633 122.46 73.071 122.7 71.934 119.85 69.266 121.23 69 120.67 72.248 119" fill="#C0C0DD"/>
<path d="m186.26 208.09c4.9409-3.4168 19.498-14.649 25.402-35.505 5.8426-20.642-0.53115-37.616-2.9151-43.106" stroke="#C0C0DD" stroke-dasharray="2.780999726295477" stroke-linecap="round" stroke-width=".927"/>
<polygon points="188.03 209.94 188.11 209.39 185.14 209.04 185.73 206.35 185.14 206.24 184.41 209.51" fill="#C0C0DD"/>
<polygon points="212.21 130.09 211.95 130.65 209.2 129.39 208.15 132.25 207.57 132.04 208.85 128.55" fill="#C0C0DD"/>
<path d="m40.515 5.1427c-0.14572-0.43739-0.46001-0.79965-0.8741-1.0075l-8.4048-3.9935c-0.21642-0.098496-0.45275-0.14626-0.69072-0.13959-0.22957-0.0085228-0.45936 0.0098109-0.68461 0.054623l-8.4048 4.0239c-0.42071 0.18804-0.72839 0.56093-0.83131 1.0075l-2.0661 9.0006c-0.079795 0.46001 0.030369 0.93255 0.30563 1.311l5.8131 7.1435c0.33916 0.33476 0.78826 0.53725 1.2653 0.57051h9.2606c0.49463 0.050943 0.97843-0.1672 1.2653-0.57051l5.8131-7.1435c0.27136-0.38058 0.38914-0.84835 0.33008-1.311l-2.0966-8.946z" fill="#316DE6"/>
<path d="m39.508 13.515s-0.056372 0-0.056372-0.030148-0.056372 0-0.11275 0c-0.11448-0.012197-0.23002-0.012197-0.3445 0-0.055389 0.014334-0.11373 0.014334-0.16912 0-0.32417-0.024207-0.64513-0.078731-0.95833-0.1628-0.091643-0.031634-0.16468-0.099747-0.20044-0.18692l-0.23802-0.13868c0.10554-0.80426 0.067413-1.62-0.11275-2.4118-0.19868-0.78958-0.53318-1.5416-0.98965-2.2249l0.16912-0.1628v-0.030148c-5.793e-4 -0.087731 0.030405-0.17295 0.087691-0.24118 0.2437-0.20743 0.50805-0.39121 0.78922-0.54869l0.16912-0.078385 0.31318-0.1628c0-0.030148 0.056372-0.030148 0.081427-0.054266 0.025054-0.024118 0-0.030148 0-0.054266 0.11937-0.082125 0.1993-0.20712 0.22169-0.3467s-0.014621-0.28197-0.10269-0.39494c-0.096217-0.11639-0.24022-0.1868-0.39461-0.19295-0.14366 0.0038955-0.28213 0.052559-0.39461 0.13868-0.031318 0.030148-0.056372 0.054266-0.087691 0.054266-0.082123 0.076272-0.15754 0.15896-0.22549 0.24721-0.031318 0.054266-0.087691 0.078385-0.11274 0.10853-0.20863 0.22886-0.44644 0.43145-0.70779 0.60296-0.05206 0.028741-0.10956 0.04719-0.16912 0.054266-0.036383 0.012922-0.076362 0.012922-0.11275 0l-0.22549 0.13868c-0.22549-0.21707-0.4823-0.43413-0.70779-0.6512-1.0851-0.80835-2.386-1.3039-3.7519-1.429v-0.21707c-0.07243-0.054336-0.12329-0.13096-0.14406-0.21707-0.0084926-0.30849 0.010367-0.61712 0.056372-0.92253v-0.1628c0-0.054266 0-0.21707 0.056372-0.3256v-0.1628c0.016317-0.28196-0.19236-0.5298-0.4823-0.57281-0.18355-0.013536-0.36278 0.058164-0.4823 0.19295-0.10739 0.099416-0.16839 0.23644-0.16912 0.37987v0.13868c0.0070331 0.1121 0.025922 0.22322 0.056372 0.33163 0.025404 0.050585 0.03622 0.10681 0.031318 0.1628 0.047577 0.30525 0.066444 0.61401 0.056372 0.92253-0.019271 0.086706-0.070432 0.16379-0.14406 0.21707v0.054266 0.21707c-0.31318 0.030148-0.62636 0.084414-0.95833 0.13868-1.3311 0.28157-2.5427 0.94358-3.4763 1.8993l-0.16912-0.10853h-0.11274c-0.059562-0.0070764-0.11706-0.025526-0.16912-0.054266-0.25488-0.17938-0.49184-0.38124-0.70779-0.60296 0-0.054266-0.087691-0.078385-0.11275-0.10853-0.025054-0.030148-0.14406-0.1628-0.22549-0.24118-0.081427-0.078385-0.056372-0.030148-0.087691-0.054266v-0.030148c-0.11448-0.081788-0.25213-0.12806-0.39461-0.13265-0.15736-0.012941-0.30925 0.059003-0.39461 0.18692-0.1563 0.24655-0.10901 0.56517 0.11274 0.75973v0.030148s0.056373 0.054266 0.087691 0.054266c0.098535 0.060608 0.20106 0.11499 0.30692 0.1628l0.16912 0.078385c0.28515 0.15151 0.55016 0.33575 0.78922 0.54869 0.06736 0.062427 0.099908 0.15195 0.08769 0.24118l0.15659 0.15074c0 0.054266-0.056372 0.078385-0.087691 0.13265-0.87918 1.321-1.2287 2.9049-0.98339 4.4559l-0.22549 0.054266c0 0.078385-0.11274 0.13265-0.19417 0.18692-0.31501 0.085429-0.63819 0.13997-0.9646 0.1628-0.055389-0.014334-0.11373-0.014334-0.16912 0h-0.33824-0.11275-0.056372c-0.29393 0.052116-0.49286 0.31809-0.45098 0.60296 0.06152 0.24535 0.3032 0.4082 0.56373 0.37987 0.04728 0.011485 0.096783 0.011485 0.14406 0v-0.030148c0-0.030148 0.087691 0 0.11274 0 0.10672-0.02962 0.21134-0.065874 0.31318-0.10853 0.05206-0.028741 0.10956-0.04719 0.16912-0.054266 0.30249-0.10855 0.61498-0.18931 0.93328-0.24118 0.082782-0.0024196 0.16341 0.025609 0.22549 0.078385v0.030148l0.25681-0.030148c0.41971 1.2594 1.2254 2.3672 2.3113 3.1776 0.23714 0.18869 0.49311 0.35431 0.76416 0.49443l-0.081427 0.35575v0.030148c0.050421 0.081922 0.061829 0.18075 0.031318 0.27133-0.12391 0.27577-0.27714 0.53846-0.45724 0.78385v0.030148c-0.027762 0.051174-0.066134 0.096322-0.11274 0.13265-0.056373 0.054266-0.11275 0.16883-0.19417 0.27736s-0.031318 0.054266-0.056372 0.078385c-0.13407 0.26258-0.035888 0.58026 0.22549 0.72958 0.06191 0.031922 0.13032 0.050442 0.20044 0.054266 0.2277-0.006167 0.43398-0.13085 0.53867-0.3256 0 0 0-0.054266 0.056373-0.084414 0.056372-0.030148 0.087691-0.18692 0.11274-0.29545l0.056372-0.1628c0.093347-0.29264 0.21716-0.57546 0.36955-0.84414 0.051781-0.079138 0.13207-0.13711 0.22549-0.1628l0.11274-0.21707c0.78236 0.29357 1.6157 0.44091 2.4553 0.43413 0.51582 0.0036077 1.0298-0.059256 1.5283-0.18692 0.31275-0.078337 0.62024-0.17499 0.92075-0.28942l0.11274 0.19295h0.031318c0.090146 0.031763 0.16857 0.088386 0.22549 0.1628 0.15039 0.26885 0.27211 0.55168 0.36329 0.84414l0.056372 0.1628c0.02116 0.10359 0.059212 0.20331 0.11275 0.29545 0.031318 0.030148 0.031318 0.054266 0.056372 0.084414 0.025054 0.030148 0 0 0 0 0.10361 0.19291 0.30698 0.31728 0.53241 0.3256 0.078238-0.0029878 0.155-0.021461 0.22549-0.054266 0.12708-0.056705 0.22124-0.16504 0.25681-0.29545 0.043731-0.13343 0.043731-0.27658 0-0.41001h-0.031318s0-0.054266-0.056372-0.084414c-0.048408-0.10182-0.11642-0.19389-0.20044-0.27133-0.027494-0.053066-0.065843-0.10024-0.11274-0.13868v-0.054266c-0.18741-0.23986-0.33919-0.50368-0.45098-0.78385-0.040194-0.086306-0.040194-0.18503 0-0.27133v-0.030148l-0.081427-0.21707c1.4463-0.83786 2.5296-2.1505 3.0504-3.6961l0.22549 0.030148v-0.030148c0.062077-0.052776 0.14271-0.080804 0.22549-0.078385 0.3081 0.051901 0.61019 0.13268 0.90196 0.24118 0.050816 0.031329 0.10894 0.049979 0.16912 0.054266 0.099372 0.056085 0.20428 0.10254 0.31318 0.13868h0.11275c0.056372 0 0.031318 0 0.056372 0.030148 0.04728 0.011485 0.096783 0.011485 0.14406 0 0.2498-0.0070252 0.47136-0.15632 0.56373-0.37987-0.026436-0.27367-0.23008-0.50118-0.50735-0.56678l0.16912 0.1025zm-8.1427-0.84414l-0.76416 0.34972-0.7579-0.34972-0.20044-0.78988 0.53867-0.6512h0.84559l0.53867 0.6512-0.20044 0.78988zm4.6038-1.7667c0.13417 0.56109 0.17226 1.1395 0.11275 1.7124l-2.6808-0.73561c-0.12703-0.022396-0.2383-0.09546-0.30631-0.20114s-0.086437-0.23412-0.050711-0.35359c0.018185-0.073167 0.057233-0.13999 0.11274-0.19295l2.1171-1.8451c0.31057 0.50191 0.53874 1.047 0.67647 1.6159h0.018791zm-1.5471-2.5927l-2.3113 1.5798c-0.20747 0.12038-0.47552 0.073937-0.62636-0.10853-0.056943-0.049011-0.088946-0.11943-0.087691-0.19295l-0.16912-2.7435c1.2079 0.12114 2.3358 0.63846 3.1944 1.4652zm-5.1048-1.3868l0.56373-0.10853-0.14406 2.7013c-0.010164 0.24502-0.22133 0.4376-0.47603 0.43413-0.078237-0.0029877-0.155-0.021461-0.22549-0.054266l-2.3489-1.5858c0.72851-0.68906 1.6378-1.1747 2.6307-1.4049v0.018089zm-3.445 2.4118l2.0858 1.8089c0.18528 0.15314 0.21027 0.42043 0.056372 0.60296-0.05046 0.075764-0.13287 0.12645-0.22549 0.13868l-2.7372 0.75973c-0.087311-1.1699 0.19899-2.3376 0.82053-3.3464v0.036178zm-0.4823 4.5946l2.7936-0.46428c0.22951-0.010932 0.43356 0.13957 0.4823 0.35575 0.03941 0.086466 0.03941 0.18487 0 0.27133l-1.0711 2.4963c-1.0244-0.63895-1.7997-1.5868-2.2048-2.6952v0.036178zm6.4014 3.3283c-0.39844 0.089498-0.806 0.13601-1.2151 0.13868-0.60328-0.0092116-1.2022-0.10056-1.7789-0.27133l1.3843-2.4118c0.13361-0.16626 0.37396-0.21254 0.56373-0.10853 0.083263 0.055053 0.16087 0.11764 0.23175 0.18692l1.3529 2.3636c-0.16285 0.024118-0.33197 0.048237-0.53867 0.1025zm3.445-2.3636c-0.42947 0.65973-1.0074 1.2182-1.6912 1.634l-1.1024-2.5566c-0.057658-0.20842 0.047811-0.42671 0.25054-0.51855 0.082561-0.02951 0.169-0.047776 0.25681-0.054266l2.8249 0.46428c-0.12659 0.36593-0.3058 0.71299-0.53241 1.0311h-0.0062636z" fill="#fff" fill-rule="nonzero"/>
<path d="m174.23 216.01v-1.1969c6.52e-4 -0.1005-0.056163-0.19141-0.14372-0.22997s-0.18841-0.017071-0.25512 0.054342l-2.258 2.3937c-0.091059 0.095326-0.14231 0.22534-0.14231 0.36101s0.051254 0.26568 0.14231 0.36101l2.258 2.3937c0.066709 0.071412 0.16756 0.092895 0.25512 0.054342 0.087552-0.038554 0.14437-0.12947 0.14372-0.22997v-1.3595c1.8093 0.008428 3.513 0.90428 4.6142 2.4262-0.18614-2.6396-2.1303-4.7582-4.6142-5.0281z" fill="#464769"/>
</g>
<g transform="translate(95 48)" fill-rule="nonzero" stroke="#464769" stroke-linecap="round">
<path transform="translate(263.14 18.557) scale(-1) translate(-263.14 -18.557)" d="m0.44667 0.28974h140.6c2.9836 0 5.8113 1.3322 7.711 3.6329l24.168 29.269c1.8997 2.3006 4.7274 3.6329 7.711 3.6329h328.57c2.9327 0 5.7175-1.2873 7.6175-3.5213l9.0165-10.601"/>
<path transform="translate(415.7 121.44) scale(-1) translate(-415.7 -121.44)" d="m239 151.87h167.24c5.9852 0 11.656-2.6805 15.455-7.3055l37.998-46.26c3.799-4.625 9.4696-7.3055 15.455-7.3055h95.509c3.0933 0 6.0124 1.4315 7.9064 3.8772l13.829 17.858"/>
<path transform="translate(354.8 49.564) scale(-1 1) translate(-354.8 -49.564)" d="m117.21 68h229.62c5.182 0 10.162-2.0113 13.89-5.6103l26.573-25.651c3.7284-3.5989 8.7081-5.6103 13.89-5.6103h171.58c3.2897 0 6.369 1.618 8.2353 4.3272l11.396 16.544"/>
<path transform="translate(340.44 167.78) scale(-1) translate(-340.44 -167.78)" d="m88.48 213.55h124.44c7.7341 0 14.775-4.4592 18.081-11.451l32.459-68.651c3.3059-6.992 10.347-11.451 18.081-11.451h296.21c4.3149 0 8.1431 2.7676 9.4959 6.8649l5.1469 15.589"/>
</g>
<g transform="translate(318 124)">
<polygon points="8.7023 6.0142 9.7293 4.9697 8.6932 3.9157 9.0774 2.4585 7.6985 2.1015 7.3473 0.66483 5.9676 1.0702 4.9674 5.3291e-15 3.9572 1.0812 2.5607 0.68022 2.2201 2.1191 0.84324 2.4856 1.2317 3.9245 0.20471 4.9697 1.2408 6.023 0.85659 7.4788 2.2355 7.8357 2.5867 9.2731 3.9657 8.8671 4.9666 9.9387 5.9761 8.8575 7.3712 9.2585 7.7132 7.8196 9.0908 7.4531" fill="#464769"/>
<ellipse cx="5.0406" cy="5.0461" rx="3.1692" ry="3.307" fill="#C0C0DD"/>
<ellipse cx="5.0371" cy="5.0425" rx="2.7491" ry="2.8686" fill="#464769"/>
</g>
<path d="m206.5 114c-1.9315 0.003669-3.4964 1.5984-3.5 3.5667 0 1.9667 2.8916 6.4333 3.5 6.4333s3.5-4.4667 3.5-6.4333c0-1.9698-1.567-3.5667-3.5-3.5667zm0.078505 4.96c-0.49069 0.002696-0.93442-0.2968-1.1234-0.75827-0.189-0.46146-0.085874-0.99356 0.2611-1.3471 0.34698-0.35359 0.86912-0.45868 1.322-0.26608 0.45284 0.1926 0.74674 0.64478 0.7441 1.1448 0 0.67747-0.53893 1.2267-1.2037 1.2267z" fill="#464769" fill-rule="nonzero"/>
</g>
</svg>
