<svg xmlns="http://www.w3.org/2000/svg" viewBox="0 0 1166.55 600.04"><defs><style>.cls-1,.cls-10,.cls-3,.cls-7{fill:none;}.cls-1{stroke:#30323d;stroke-width:0.75px;}.cls-1,.cls-6,.cls-7,.cls-8{stroke-miterlimit:10;}.cls-2,.cls-6{fill:#30323d;}.cls-3{stroke:#86e028;}.cls-10,.cls-3,.cls-6,.cls-7,.cls-8{stroke-width:2px;}.cls-4{fill:#2de5ea;}.cls-5,.cls-8{fill:#fff;}.cls-6,.cls-7,.cls-8{stroke:#ff107d;}.cls-9{fill:#ff8500;}.cls-10{stroke:#ffce00;}.cls-11{font-size:42.26px;fill:#ffce00;font-family:Gilroy-Regular;}</style></defs><title>Scale</title><g id="Layer_2" data-name="Layer 2"><g id="slide_4" data-name="slide 4"><line class="cls-1" x1="108.86" y1="509.67" x2="581.35" y2="567.19"/><line class="cls-1" x1="325.04" y1="188.56" x2="588.92" y2="544.03"/><line class="cls-1" x1="600.85" y1="521.92" x2="684.72" y2="299.54"/><line class="cls-1" x1="618.24" y1="542.29" x2="1016.68" y2="111.1"/><line class="cls-1" x1="630.91" y1="567.19" x2="1075.42" y2="401.66"/><g id="Layer_10" data-name="Layer 10"><path class="cls-2" d="M648.34,586.2l-35.86-71.65a9.48,9.48,0,0,0-17.09,0L559.56,586.2A9.48,9.48,0,0,0,568.1,600h0a9.49,9.49,0,0,0,8.56-5.28l27.27-54.54,27.33,54.54a9.49,9.49,0,0,0,8.56,5.28h0a9.49,9.49,0,0,0,8.52-13.83Z"/></g><path id="path3773" class="cls-3" d="M286.85,167.8a21.26,21.26,0,1,0-15.24,0l-14.32,37.31a61.23,61.23,0,1,1,43.88,0Z"/><path class="cls-4" d="M721.35,300.82a6.51,6.51,0,0,1-6.5-6.5v-20.5h-27.5v14h7a11,11,0,0,1,11,11,2,2,0,0,1-2,2h-85.5a6.5,6.5,0,0,1-6.5-6.5v-58.5a6.5,6.5,0,0,1,6.5-6.5h2.5v-34a11,11,0,0,1,11-11h94.51a11,11,0,0,1,11,11v47.51h2.5a6.51,6.51,0,0,1,6.5,6.5v45a6.51,6.51,0,0,1-6.5,6.5Zm-2.5-6.5a2.51,2.51,0,0,0,2.5,2.5h18a2.5,2.5,0,0,0,2.5-2.5v-2.5h-23Zm-54,0a6.46,6.46,0,0,1-.4,2.17l-.12.33h36.74l-.12-.33a7,7,0,0,0-6.6-4.67h-29.5Zm-49.5,0a2.5,2.5,0,0,0,2.5,2.5h40.5a2.5,2.5,0,0,0,2.5-2.5v-2.5h-45.5Zm106-47.5a2.51,2.51,0,0,0-2.5,2.5v38.5h23v-38.5a2.5,2.5,0,0,0-2.5-2.5Zm-47.5,41h9.5v-14h-9.5Zm-9,0h5v-14h-5Zm-47-54.5a2.5,2.5,0,0,0-2.5,2.5v52h45.5v-52a2.5,2.5,0,0,0-2.5-2.5Zm47,36.5h50v-14h-50ZM664,232.7l.09.17a6.48,6.48,0,0,1,.74,2.95v16h50v-2.5a6.51,6.51,0,0,1,6.5-6.5h11.51V195.31a7,7,0,0,0-7-7H631.35a7,7,0,0,0-7,7v34h34a6.5,6.5,0,0,1,2.68.59l.18.08h0a10.12,10.12,0,0,1,1.69,1.21A8.75,8.75,0,0,1,664,232.7Z"/><path class="cls-5" d="M725.86,184.56h0a10.79,10.79,0,0,1,10.76,10.75v47.76h2.75a6.26,6.26,0,0,1,6.25,6.25v45a6.26,6.26,0,0,1-6.25,6.25h-18a6.26,6.26,0,0,1-6.25-6.25V273.57h-28v14.5h7.25a10.78,10.78,0,0,1,10.75,10.75,1.75,1.75,0,0,1-1.75,1.75h-85.5a6.25,6.25,0,0,1-6.25-6.25v-58.5a6.25,6.25,0,0,1,6.25-6.25h2.75V195.31a10.78,10.78,0,0,1,10.75-10.75h94.51m-101.76,45h34.25a6.25,6.25,0,0,1,2.58.57l.33.16a8.44,8.44,0,0,1,1.47,1.07,8.3,8.3,0,0,1,1,1.3l.17.32a6.21,6.21,0,0,1,.71,2.83v16.25h50.5v-2.75a6.26,6.26,0,0,1,6.25-6.25h11.76V195.31a7.27,7.27,0,0,0-7.25-7.25H631.35a7.26,7.26,0,0,0-7.25,7.25v34.26m-9,58.5h46V235.82a2.75,2.75,0,0,0-2.75-2.75h-40.5a2.75,2.75,0,0,0-2.75,2.75v52.25m103.5,0h23.51V249.32a2.75,2.75,0,0,0-2.75-2.75h-18a2.75,2.75,0,0,0-2.75,2.75v38.75m-54-18h50.5v-14.5H664.6v14.5m9,18h10v-14.5h-10v14.5m-9,0h5.5v-14.5h-5.5v14.5m56.75,9h18a2.75,2.75,0,0,0,2.75-2.75v-2.75H718.6v2.75a2.75,2.75,0,0,0,2.75,2.75m-57.38,0h37.46l-.24-.66a7.29,7.29,0,0,0-6.84-4.84H664.6v2.75a6.43,6.43,0,0,1-.38,2.08l-.25.67m-46.12,0h40.5a2.75,2.75,0,0,0,2.75-2.75v-2.75h-46v2.75a2.75,2.75,0,0,0,2.75,2.75m108-113H631.35a11.26,11.26,0,0,0-11.25,11.25v33.76h-2.25a6.75,6.75,0,0,0-6.75,6.75v58.5a6.75,6.75,0,0,0,6.75,6.75h85.5a2.24,2.24,0,0,0,2.25-2.25,11.26,11.26,0,0,0-11.25-11.25H687.6v-13.5h27v20.25a6.75,6.75,0,0,0,6.75,6.75h18a6.75,6.75,0,0,0,6.75-6.75v-45a6.75,6.75,0,0,0-6.75-6.75h-2.25V195.31a11.27,11.27,0,0,0-11.25-11.25Zm-101.26,45V195.31a6.75,6.75,0,0,1,6.75-6.75h94.51a6.76,6.76,0,0,1,6.75,6.75v47.26H721.35a6.75,6.75,0,0,0-6.75,6.75v2.25H665.1V235.82a6.71,6.71,0,0,0-.77-3.07,7.66,7.66,0,0,0-1.25-1.73,7.81,7.81,0,0,0-1.94-1.34h0a6.6,6.6,0,0,0-2.79-.62Zm-9,58.5V235.82a2.24,2.24,0,0,1,2.25-2.25h40.5a2.25,2.25,0,0,1,2.25,2.25v51.75Zm103.5,0V249.32a2.25,2.25,0,0,1,2.25-2.25h18a2.25,2.25,0,0,1,2.25,2.25v38.25Zm-54-18v-13.5h49.5v13.5Zm9,18v-13.5h9v13.5Zm-9,0v-13.5h4.5v13.5Zm56.25,9a2.25,2.25,0,0,1-2.25-2.25v-2.25h22.51v2.25a2.25,2.25,0,0,1-2.25,2.25Zm-56.66,0a6.89,6.89,0,0,0,.41-2.25v-2.25h29.25a6.79,6.79,0,0,1,6.37,4.5Zm-46.84,0a2.25,2.25,0,0,1-2.25-2.25v-2.25h45v2.25a2.25,2.25,0,0,1-2.25,2.25Z"/><path class="cls-4" d="M678.65,265a2.25,2.25,0,0,0,0-4.5h0a2.25,2.25,0,1,0,0,4.5Z"/><path class="cls-4" d="M682.69,193.7h-8.18a1.55,1.55,0,0,0,0,3.09h8.18a1.55,1.55,0,0,0,0-3.09Z"/><polygon class="cls-6" points="33.38 487.33 33.38 512.21 54.93 524.65 76.48 512.21 76.48 487.33 54.93 474.89 33.38 487.33"/><polyline class="cls-7" points="54.93 524.65 54.93 499.77 33.38 487.33"/><line class="cls-7" x1="76.48" y1="487.33" x2="54.93" y2="499.77"/><polygon class="cls-8" points="33.38 450.01 33.38 474.89 54.93 487.33 76.48 474.89 76.48 450.01 54.93 437.57 33.38 450.01"/><polyline class="cls-7" points="54.93 487.33 54.93 462.45 33.38 450.01"/><line class="cls-7" x1="76.48" y1="450.01" x2="54.93" y2="462.45"/><polygon class="cls-8" points="1 505.99 1 530.87 22.55 543.31 44.09 530.87 44.09 505.99 22.55 493.55 1 505.99"/><polyline class="cls-7" points="22.55 543.31 22.55 518.43 1 505.99"/><line class="cls-7" x1="44.09" y1="505.99" x2="22.55" y2="518.43"/><polygon class="cls-8" points="1 468.6 1 493.48 22.55 505.92 44.09 493.48 44.09 468.6 22.55 456.16 1 468.6"/><polyline class="cls-7" points="22.55 505.92 22.55 481.04 1 468.6"/><line class="cls-7" x1="44.09" y1="468.6" x2="22.55" y2="481.04"/><polygon class="cls-8" points="65.77 505.92 65.77 530.8 87.31 543.24 108.86 530.8 108.86 505.92 87.31 493.48 65.77 505.92"/><polyline class="cls-7" points="87.31 543.24 87.31 518.36 65.77 505.92"/><line class="cls-7" x1="108.86" y1="505.92" x2="87.31" y2="518.36"/><polygon class="cls-8" points="65.77 468.6 65.77 493.48 87.31 505.92 108.86 493.48 108.86 468.6 87.31 456.16 65.77 468.6"/><polyline class="cls-7" points="87.31 505.92 87.31 481.04 65.77 468.6"/><line class="cls-7" x1="108.86" y1="468.6" x2="87.31" y2="481.04"/><polygon class="cls-8" points="33.38 524.58 33.38 549.46 54.93 561.9 76.48 549.46 76.48 524.58 54.93 512.14 33.38 524.58"/><polyline class="cls-7" points="54.93 561.9 54.93 537.02 33.38 524.58"/><line class="cls-7" x1="76.48" y1="524.58" x2="54.93" y2="537.02"/><polygon class="cls-8" points="33.38 487.19 33.38 512.07 54.93 524.51 76.48 512.07 76.48 487.19 54.93 474.75 33.38 487.19"/><polyline class="cls-7" points="54.93 524.51 54.93 499.63 33.38 487.19"/><line class="cls-7" x1="76.48" y1="487.19" x2="54.93" y2="499.63"/><path class="cls-9" d="M1071.22,477.35a2,2,0,0,1-1.44-3.47l15.48-15.48a2.06,2.06,0,0,1,1.44-.6,2,2,0,0,1,1.44.6,2,2,0,0,1,.6,1.44,2,2,0,0,1-.6,1.44l-15.48,15.48A2,2,0,0,1,1071.22,477.35Zm-18.28,0a2,2,0,0,1-1.44-.59,2,2,0,0,1,0-2.88L1067,458.4a2,2,0,1,1,2.88,2.88l-15.48,15.48A2.05,2.05,0,0,1,1052.94,477.35Zm43.46-12.24a2,2,0,0,1-2-2,2,2,0,0,1,.6-1.44l6.46-6.46a2,2,0,0,1,1.44-.6,2,2,0,0,1,1.44.6,2,2,0,0,1,0,2.87l-6.46,6.47A2.06,2.06,0,0,1,1096.4,465.11ZM1051.83,458a2,2,0,0,1-1.44-3.47L1065.87,439a2,2,0,0,1,2.88,0,2,2,0,0,1,0,2.87l-15.48,15.48a2,2,0,0,1-1.44.6Zm60.73-2.55a2,2,0,0,1-1.44-3.48,14.91,14.91,0,0,0,4.13-12.3v-.09l-1-1-.16.07a80.25,80.25,0,0,1-11.06,3.76,6.12,6.12,0,0,1-1.48.18,6.36,6.36,0,0,1-2.34-.45L1099,442l-.1.21a21.23,21.23,0,0,1-4.3,6.1c-5.82,5.82-20.06,7-20.67,7h-.16a2,2,0,0,1-2-2.2c0-.6,1.24-14.84,7.06-20.67a21.77,21.77,0,0,1,6.1-4.3l.21-.1-.08-.22a6.1,6.1,0,0,1-.27-3.81,80.39,80.39,0,0,1,3.76-11.07l.07-.15-1-1h-.09a13.2,13.2,0,0,0-1.86-.12,14.5,14.5,0,0,0-10.45,4.25,2,2,0,0,1-3.47-1.44c0-9,5.33-21.52,14-26.13a15.44,15.44,0,0,1,7.37-1.88,18.87,18.87,0,0,1,9.6,2.87l.18.1.14-.16c1.58-1.86,3.23-3.66,4.89-5.33,7.53-7.52,17.26-13.42,28.94-17.55a101.67,101.67,0,0,1,27.38-5.67h0a2.09,2.09,0,0,1,1.51.6,2,2,0,0,1,.59,1.51,101.11,101.11,0,0,1-5.67,27.37c-4.12,11.69-10,21.42-17.54,28.94-1.68,1.68-3.47,3.32-5.34,4.9l-.16.13.11.19c4.36,7.4,2.94,13.32,1,17C1134.07,450.07,1121.53,455.41,1112.56,455.41Zm-24.94-23.89a16.59,16.59,0,0,0-5.94,3.9c-3.51,3.51-5,11.88-5.55,15.32l-.05.33.33-.05c3.44-.5,11.81-2,15.32-5.55a16.68,16.68,0,0,0,3.9-5.94l0-.15-7.91-7.92Zm46.53-4.48a91.9,91.9,0,0,1-15.61,9.58l-.25.12.17.26.06.07a2.08,2.08,0,0,1,.59,1,19.22,19.22,0,0,1-1.86,12.37l-.25.47.53-.11c6.46-1.33,14.39-5.33,17.57-11.26,2-3.81,1.84-8-.58-12.41l-.14-.25Zm-34.36,10.69a2.56,2.56,0,0,0,1.75.78,2,2,0,0,0,.49-.06,75,75,0,0,0,8.76-2.87l.35-.14L1091.7,416l-.14.35a75.6,75.6,0,0,0-2.86,8.76,2.4,2.4,0,0,0,.72,2.24l6,6.05Zm37-66.88c-10.51,3.89-19.28,9.31-26.07,16.09a85.51,85.51,0,0,0-5.93,6.61,88.38,88.38,0,0,0-11.32,18.27l-.08.16,21.74,21.73.16-.07a88,88,0,0,0,18.27-11.33,83.29,83.29,0,0,0,6.61-5.93c6.78-6.78,12.2-15.55,16.09-26.06l.06-.15L1137,370.79Zm-43.77,19.8a11.39,11.39,0,0,0-5.44,1.4c-5.93,3.17-9.93,11.11-11.27,17.57l-.1.52.47-.25a19.29,19.29,0,0,1,9-2.17,16.41,16.41,0,0,1,3.36.31,2.1,2.1,0,0,1,1,.61l.09.07.23.14.12-.25A92.89,92.89,0,0,1,1100.1,393l.18-.23-.25-.14A14.7,14.7,0,0,0,1093.06,390.65Zm68.71-25.54a102.54,102.54,0,0,0-20.11,4.09l-.39.12,16.56,16.56.12-.4a102.62,102.62,0,0,0,4.09-20.1l0-.3Zm-97.69,67.67a2,2,0,0,1-1.44-3.47l6.46-6.46a2,2,0,0,1,1.44-.6,2,2,0,0,1,1.44.6,2,2,0,0,1,0,2.88l-6.46,6.46a2.05,2.05,0,0,1-1.44.59Zm45.25-12.92a2,2,0,0,1-1.44-.6,2,2,0,0,1,1.44-3.47,2,2,0,0,1,1.44,3.47A2,2,0,0,1,1109.33,419.86Zm6.46-6.47a2,2,0,0,1-2-2,2,2,0,0,1,.59-1.44l3.23-3.23a2,2,0,0,1,1.44-.6,2,2,0,0,1,1.44.6,2,2,0,0,1,0,2.88l-3.23,3.23A2,2,0,0,1,1115.79,413.39Zm16.16-7a11.17,11.17,0,1,1,7.9-3.27A11.07,11.07,0,0,1,1132,406.37Zm0-18.28a7.11,7.11,0,1,0,5,12.13,7.11,7.11,0,0,0-5-12.13Z"/><path class="cls-5" d="M1164.27,361.09a1.79,1.79,0,0,1,1.78,1.85,101.06,101.06,0,0,1-5.65,27.3c-4.11,11.65-10,21.35-17.49,28.85-1.67,1.66-3.46,3.31-5.32,4.88l-.32.27.21.36c4.31,7.31,2.91,13.13,1,16.73-4.57,8.54-17,13.83-25.91,13.83a1.78,1.78,0,0,1-1.26-3.05,15.19,15.19,0,0,0,4.2-12.52l0-.17-.12-.12-.8-.8-.24-.23-.31.13a80.73,80.73,0,0,1-11,3.75,5.63,5.63,0,0,1-1.42.17,6.11,6.11,0,0,1-2.25-.43l-.43-.17-.2.43a21.44,21.44,0,0,1-4.25,6c-5.76,5.76-19.92,6.94-20.52,7h-.14a1.79,1.79,0,0,1-1.78-1.93c0-.6,1.23-14.76,7-20.51a21.22,21.22,0,0,1,6-4.25l.43-.2-.17-.44a5.92,5.92,0,0,1-.26-3.66,79.39,79.39,0,0,1,3.75-11l.13-.31-.24-.24-.8-.8-.12-.12-.16,0a15.75,15.75,0,0,0-1.91-.12,14.72,14.72,0,0,0-10.61,4.32,1.78,1.78,0,0,1-3-1.26c0-8.9,5.28-21.34,13.82-25.91a15.25,15.25,0,0,1,7.26-1.85,18.66,18.66,0,0,1,9.47,2.83l.37.22.27-.33c1.57-1.85,3.21-3.64,4.88-5.31,7.49-7.49,17.2-13.38,28.85-17.49a100.86,100.86,0,0,1,27.3-5.66h.06m-6.33,25.26.25-.79a103.35,103.35,0,0,0,4.1-20.16l.06-.6-.61.06a103.42,103.42,0,0,0-20.15,4.1l-.79.24.59.59,16,16,.58.59M1115.11,434l.32-.14a88.21,88.21,0,0,0,18.32-11.36,84,84,0,0,0,6.63-5.95c6.82-6.81,12.25-15.61,16.16-26.16l.11-.3-.23-.22-19.15-19.15-.22-.23-.3.11c-10.55,3.91-19.35,9.34-26.16,16.15a82.43,82.43,0,0,0-5.95,6.64,88.21,88.21,0,0,0-11.36,18.32l-.15.31.25.25,21.49,21.49.24.24m-39.22-23.4.94-.49a18.91,18.91,0,0,1,8.85-2.15,16.13,16.13,0,0,1,3.3.3,1.85,1.85,0,0,1,.93.54l.08.08,0,0,.47.29.24-.5a93,93,0,0,1,9.55-15.56l.35-.47-.5-.27a14.84,14.84,0,0,0-7.09-2,11.65,11.65,0,0,0-5.56,1.43c-6,3.21-10,11.22-11.39,17.74l-.22,1M1095,433.29h0l.06.06.12.12h0l.09.09h0l4.35,4.35a2.77,2.77,0,0,0,1.93.85,2.42,2.42,0,0,0,.54-.07,74.84,74.84,0,0,0,8.79-2.87l.71-.28-.54-.54-18.9-18.9-.54-.54-.28.71a74.24,74.24,0,0,0-2.87,8.79,2.65,2.65,0,0,0,.78,2.47l5.51,5.52.25.24m21.53,18,1-.21c6.51-1.35,14.53-5.39,17.74-11.39,2.08-3.89,1.89-8.15-.58-12.65l-.28-.51-.46.35a91.4,91.4,0,0,1-15.57,9.55l-.49.25.29.47a.47.47,0,0,0,.11.13,1.81,1.81,0,0,1,.52.88,18.9,18.9,0,0,1-1.83,12.2l-.5.93m-40.74.11.66-.09c3.46-.51,11.89-2.06,15.45-5.62a16.91,16.91,0,0,0,4-6l.11-.3-.22-.23-7.69-7.69-.23-.23-.3.11a17.1,17.1,0,0,0-6,4c-3.56,3.57-5.12,12-5.62,15.46l-.09.66M1132,384.27h0a10.93,10.93,0,1,1-7.73,3.2,10.89,10.89,0,0,1,7.73-3.2m0,18.28a7.35,7.35,0,1,0-5.2-2.15,7.29,7.29,0,0,0,5.2,2.15M1119,406.34a1.79,1.79,0,0,1,1.26,3.05l-3.23,3.23a1.79,1.79,0,0,1-2.52,0,1.77,1.77,0,0,1,0-2.52l3.23-3.24a1.81,1.81,0,0,1,1.26-.52m-9.69,9.7a1.77,1.77,0,0,1,1.26.52,1.79,1.79,0,0,1-1.26,3.05,1.79,1.79,0,0,1-1.27-3.05,1.78,1.78,0,0,1,1.27-.52m-38.79,6.46a1.82,1.82,0,0,1,1.27.52,1.8,1.8,0,0,1,0,2.53l-6.46,6.46a1.78,1.78,0,1,1-2.52-2.52l6.46-6.47a1.81,1.81,0,0,1,1.26-.52m-3.23,16.16a1.79,1.79,0,0,1,1.26,3l-15.48,15.48a1.79,1.79,0,0,1-2.52,0,1.79,1.79,0,0,1,0-2.53l15.48-15.48a1.78,1.78,0,0,1,1.26-.52m35.55,16.16a1.79,1.79,0,0,1,1.26,3.05l-6.46,6.46a1.78,1.78,0,0,1-2.52-2.52l6.46-6.47a1.8,1.8,0,0,1,1.26-.52m-16.16,3.23a1.78,1.78,0,0,1,1.26,3.05l-15.48,15.48a1.79,1.79,0,0,1-2.52,0,1.8,1.8,0,0,1,0-2.53l15.48-15.47a1.78,1.78,0,0,1,1.26-.53m-18.28,0a1.78,1.78,0,0,1,1.26,3.05l-15.48,15.48a1.79,1.79,0,0,1-2.52,0,1.77,1.77,0,0,1,0-2.53l15.48-15.47a1.75,1.75,0,0,1,1.26-.53m95.85-97.46h-.08a101.78,101.78,0,0,0-27.45,5.69c-11.72,4.13-21.49,10.06-29,17.61-1.69,1.69-3.34,3.48-4.91,5.34a19.05,19.05,0,0,0-9.73-2.9,15.78,15.78,0,0,0-7.49,1.91c-8.71,4.66-14.09,17.3-14.09,26.35a2.29,2.29,0,0,0,1.41,2.11,2.21,2.21,0,0,0,.87.17,2.31,2.31,0,0,0,1.62-.66,14.33,14.33,0,0,1,10.26-4.18,13.46,13.46,0,0,1,1.84.12l.8.8a80.35,80.35,0,0,0-3.77,11.1,6.44,6.44,0,0,0,.27,4,21.55,21.55,0,0,0-6.17,4.35c-5.88,5.88-7.08,20.22-7.12,20.82a2.28,2.28,0,0,0,2.27,2.47h.18c.61,0,15-1.24,20.83-7.12a21.55,21.55,0,0,0,4.35-6.17,6.79,6.79,0,0,0,2.43.46,6,6,0,0,0,1.54-.19,80.8,80.8,0,0,0,11.1-3.77l.8.8a14.56,14.56,0,0,1-4.06,12.1,2.29,2.29,0,0,0,1.62,3.9c9,0,21.69-5.39,26.35-14.09,2-3.78,3.4-9.76-1-17.22,1.86-1.57,3.65-3.22,5.34-4.91,7.55-7.55,13.47-17.32,17.61-29a101.53,101.53,0,0,0,5.68-27.45,2.27,2.27,0,0,0-.67-1.7,2.24,2.24,0,0,0-1.61-.67Zm-2.48,4.77a101.88,101.88,0,0,1-4.08,20.05l-16-16a101.88,101.88,0,0,1,20-4.08Zm-46.57,68.05-21.49-21.48a87.52,87.52,0,0,1,11.3-18.22,81.05,81.05,0,0,1,5.91-6.59c6.77-6.77,15.51-12.16,26-16l19.15,19.15c-3.88,10.47-9.27,19.21-16,26a82.76,82.76,0,0,1-6.59,5.91,87.74,87.74,0,0,1-18.22,11.29Zm-38.62-23.74c1.42-6.87,5.54-14.41,11.14-17.4a11.15,11.15,0,0,1,5.32-1.37,14.35,14.35,0,0,1,6.85,1.94,92.48,92.48,0,0,0-9.61,15.66,2.33,2.33,0,0,0-1.21-.72,17,17,0,0,0-3.41-.31,19.46,19.46,0,0,0-9.08,2.2Zm19.3,23.81-6.31-6.3a2.15,2.15,0,0,1-.65-2,75.18,75.18,0,0,1,2.86-8.73l18.9,18.9a73.23,73.23,0,0,1-8.73,2.85,1.52,1.52,0,0,1-.42.06,2.28,2.28,0,0,1-1.58-.7l-4.35-4.35.28.27Zm21.57,17.07a19.4,19.4,0,0,0,1.88-12.55,2.45,2.45,0,0,0-.7-1.16,92,92,0,0,0,15.65-9.6c2.38,4.35,2.58,8.43.58,12.17-3,5.6-10.54,9.72-17.41,11.14Zm-41.09.22c.67-4.66,2.33-12,5.47-15.17a16.47,16.47,0,0,1,5.85-3.85l7.69,7.69a16.35,16.35,0,0,1-3.84,5.85c-3.14,3.15-10.51,4.8-15.17,5.48Zm55.57-67a11.43,11.43,0,1,0,8.08,3.35,11.4,11.4,0,0,0-8.08-3.35Zm0,18.28a6.85,6.85,0,1,1,4.85-2,6.86,6.86,0,0,1-4.85,2ZM1119,405.84a2.25,2.25,0,0,0-1.61.67l-3.24,3.23a2.29,2.29,0,0,0,3.24,3.23l3.23-3.23a2.29,2.29,0,0,0-1.62-3.9Zm-9.69,9.7a2.29,2.29,0,0,0-1.62,3.9,2.31,2.31,0,0,0,1.62.67,2.29,2.29,0,0,0,1.61-3.9,2.25,2.25,0,0,0-1.61-.67ZM1070.54,422a2.25,2.25,0,0,0-1.61.67l-6.47,6.46a2.29,2.29,0,0,0,3.23,3.24l6.47-6.47a2.29,2.29,0,0,0-1.62-3.9Zm24.81,10.94Zm0,0,.27.27-.27-.27Zm-28,5.22a2.27,2.27,0,0,0-1.62.67l-15.48,15.48a2.29,2.29,0,0,0,3.24,3.23l15.48-15.48a2.28,2.28,0,0,0,0-3.23,2.25,2.25,0,0,0-1.61-.67Zm35.55,16.16a2.25,2.25,0,0,0-1.61.67l-6.47,6.46a2.29,2.29,0,0,0,1.62,3.91,2.33,2.33,0,0,0,1.62-.67l6.46-6.47a2.29,2.29,0,0,0-1.62-3.9Zm-16.16,3.23a2.29,2.29,0,0,0-1.61.67l-15.48,15.48a2.28,2.28,0,1,0,3.23,3.23l15.48-15.48a2.29,2.29,0,0,0,0-3.23,2.31,2.31,0,0,0-1.62-.67Zm-18.28,0a2.31,2.31,0,0,0-1.62.67l-15.48,15.48a2.29,2.29,0,0,0,1.62,3.9,2.25,2.25,0,0,0,1.61-.67L1070,461.45a2.29,2.29,0,0,0,0-3.23,2.33,2.33,0,0,0-1.62-.67Z"/><rect class="cls-10" x="1016.01" y="35" width="50.4" height="79.6" rx="6.15"/><rect class="cls-10" x="1066.41" y="1" width="50.4" height="113.6" rx="6.15"/><text class="cls-11" transform="translate(1028.14 87.69)">A</text><text class="cls-11" transform="translate(1079.12 70.69)">B</text></g></g></svg>