<svg xmlns="http://www.w3.org/2000/svg" viewBox="0 0 204.54 184.94"><defs><style>.cls-1{fill:#464769;}.cls-2{font-size:38px;font-family:Gilroy-Bold;font-weight:700;}.cls-2,.cls-8{fill:#c0c0dd;}.cls-3{letter-spacing:-0.01em;}.cls-4{letter-spacing:-0.02em;}.cls-5{letter-spacing:-0.04em;}.cls-6{fill:#bfbedb;}.cls-7{fill:#47486a;}</style></defs><title>send reply</title><g id="Layer_2" data-name="Layer 2"><g id="Layer_1-2" data-name="Layer 1"><path class="cls-1" d="M154.74,140.19H44.08L9,183.27c-3.3,3.56-9,1.06-9-4v-137c0-12.59,9.51-22.8,21.25-22.8H154.74c11.74,0,21.25,10.21,21.25,22.8v75.08C176,130,166.48,140.19,154.74,140.19Z"/><text class="cls-2" transform="translate(29.77 74.98)"><tspan class="cls-3">2</tspan><tspan class="cls-4" x="19.8" y="0">3</tspan><tspan class="cls-5" x="39.75" y="0">°</tspan><tspan x="53.47" y="0">C</tspan></text><circle class="cls-6" cx="175.9" cy="28.64" r="28.64"/><path class="cls-7" d="M189.19,28.64a9.81,9.81,0,0,0-19.3-2.52h-1.11a6.17,6.17,0,0,0,0,12.33h10.7c.22,0,.45,0,.67,0A9.82,9.82,0,0,0,189.19,28.64Z"/><rect class="cls-8" x="30.98" y="90.2" width="110.58" height="7.21" rx="3.61"/><rect class="cls-8" x="30.98" y="109.03" width="78.43" height="7.21" rx="3.61"/></g></g></svg>