<?xml version="1.0" encoding="UTF-8"?>
<svg width="200px" height="200px" viewBox="0 0 200 200" version="1.1" xmlns="http://www.w3.org/2000/svg" xmlns:xlink="http://www.w3.org/1999/xlink">
    <!-- Generator: Sketch 52 (66869) - http://www.bohemiancoding.com/sketch -->
    <title>atoms / illustration - send_reply</title>
    <desc>Created with Sketch.</desc>
    <defs>
        <path d="M0.106297302,17.1615242 L0.106297302,14.9743575 L5.18730831,9.75063911 C6.32115187,8.56149402 6.88806514,7.57055463 6.88806514,6.77779123 C6.88806514,6.19737518 6.70736153,5.73021804 6.3459489,5.37630581 C5.98453627,5.02239357 5.52037603,4.84544011 4.95345425,4.84544011 C3.83378374,4.84544011 3.00467308,5.42584747 2.4660974,6.58667959 L0,5.1427249 C0.467710465,4.12345767 1.14091998,3.34486244 2.01964873,2.80691585 C2.89837748,2.26896926 3.86213004,2 4.91093533,2 C6.25737455,2 7.41246034,2.42114924 8.37622736,3.26346035 C9.33999438,4.10577146 9.82187066,5.24181268 9.82187066,6.6716181 C9.82187066,8.21467542 9.00693283,9.80017844 7.37703273,11.4281747 L4.46448666,14.3373187 L10.0557247,14.3373187 L10.0557247,17.1615242 L0.106297302,17.1615242 Z" id="path-1"></path>
        <path d="M19.0156219,9.03063427 C20.0219081,9.32792054 20.8403891,9.84816372 21.4710896,10.5913794 C22.10179,11.3345951 22.4171355,12.2299796 22.4171355,13.2775598 C22.4171355,14.8064607 21.9033704,16.002666 20.8758247,16.8662119 C19.848279,17.7297577 18.5904401,18.1615242 17.1022705,18.1615242 C15.9400808,18.1615242 14.9019209,17.896094 13.9877595,17.3652256 C13.0735982,16.8343573 12.4110183,16.052223 12,15.0187993 L14.5086163,13.5748446 C14.8771155,14.7215202 15.7416582,15.2948494 17.1022705,15.2948494 C17.8534418,15.2948494 18.4380711,15.1143569 18.8561759,14.7533664 C19.2742808,14.392376 19.48333,13.9004453 19.48333,13.2775598 C19.48333,12.6688308 19.2742808,12.1804392 18.8561759,11.8123705 C18.4380711,11.4443018 17.8534418,11.2602702 17.1022705,11.2602702 L16.4644867,11.2602702 L15.3377353,9.56149996 L18.2715408,5.73926697 L12.4464487,5.73926697 L12.4464487,3 L21.8006112,3 L21.8006112,5.42074756 L19.0156219,9.03063427 Z" id="path-2"></path>
        <path d="M27.5715893,7.00742714 C26.5511301,7.00742714 25.7007602,6.66413743 25.0204541,5.9775477 C24.340148,5.29095797 24,4.46635484 24,3.50371357 C24,2.52691581 24.340148,1.69877361 25.0204541,1.01926213 C25.7007602,0.339750646 26.5511301,0 27.5715893,0 C28.5920485,0 29.4424184,0.339750646 30.1227246,1.01926213 C30.8030307,1.69877361 31.1431787,2.52691581 31.1431787,3.50371357 C31.1431787,4.48051133 30.8065739,5.30865353 30.1333543,5.98816501 C29.4601347,6.6676765 28.6062216,7.00742714 27.5715893,7.00742714 Z M26.6574325,4.41680256 C26.8983743,4.65746288 27.2030902,4.77779123 27.5715893,4.77779123 C27.9400885,4.77779123 28.2412612,4.65746288 28.4751164,4.41680256 C28.7089716,4.17614225 28.8258975,3.87178229 28.8258975,3.50371357 C28.8258975,3.13564485 28.7089716,2.8312849 28.4751164,2.59062458 C28.2412612,2.34996426 27.9400885,2.22963591 27.5715893,2.22963591 C27.2030902,2.22963591 26.9019175,2.34996426 26.6680623,2.59062458 C26.434207,2.8312849 26.3172812,3.13564485 26.3172812,3.50371357 C26.3172812,3.87178229 26.4306638,4.17614225 26.6574325,4.41680256 Z" id="path-3"></path>
        <path d="M38.7384436,17.458809 C36.4991025,17.458809 34.649548,16.7156044 33.1897244,15.2291731 C31.7299008,13.7427417 31,11.9095038 31,9.72940449 C31,7.53514865 31.7299008,5.69837172 33.1897244,4.2190186 C34.649548,2.73966547 36.4991025,2 38.7384436,2 C40.0848828,2 41.3285488,2.31497716 42.4694788,2.94494093 C43.6104089,3.5749047 44.4997541,4.42782039 45.1375411,5.50371357 L42.6076653,6.96890288 C42.2391662,6.30354789 41.7147714,5.78330471 41.0344653,5.40815775 C40.3541591,5.03301078 39.5888262,4.84544011 38.7384436,4.84544011 C37.292793,4.84544011 36.1270776,5.29844097 35.2412623,6.20445629 C34.3554471,7.1104716 33.9125461,8.28544258 33.9125461,9.72940449 C33.9125461,11.1592099 34.3554471,12.3271027 35.2412623,13.2331181 C36.1270776,14.1391334 37.292793,14.5921342 38.7384436,14.5921342 C39.5888262,14.5921342 40.3577023,14.4045636 41.045095,14.0294166 C41.7324876,13.6542696 42.2533392,13.1411046 42.6076653,12.4899061 L45.1375411,13.9550954 C44.4997541,15.0309886 43.6139521,15.8839043 42.4801086,16.513868 C41.346265,17.1438318 40.0990558,17.458809 38.7384436,17.458809 Z" id="path-4"></path>
    </defs>
    <g id="atoms-/-illustration---send_reply" stroke="none" stroke-width="1" fill="none" fill-rule="evenodd">
        <g id="Group-3" transform="translate(51.000000, 48.000000)">
            <g id="4-send-reply">
                <path d="M86.5707602,78.4590594 L24.660974,78.4590594 L5.03513534,102.532422 C3.18891905,104.521771 0,103.124756 0,100.297198 L0,23.7407766 C0,16.7054092 5.32045967,11 11.888514,11 L86.5707602,11 C93.1388145,11 98.4592742,16.7054092 98.4592742,23.7407766 L98.4592742,65.6959305 C98.4648688,72.7648263 93.1388145,78.4590594 86.5707602,78.4590594 Z" id="Path" fill="#2D2E3D"></path>
                <g id="Group" transform="translate(15.655109, 24.693900)">
                    <g id="2">
                        <use fill="#000000" xlink:href="#path-1"></use>
                        <use fill="#C0C0DD" xlink:href="#path-1"></use>
                    </g>
                    <g id="3">
                        <use fill="#000000" xlink:href="#path-2"></use>
                        <use fill="#C0C0DD" xlink:href="#path-2"></use>
                    </g>
                    <g id="°">
                        <use fill="#000000" xlink:href="#path-3"></use>
                        <use fill="#C0C0DD" xlink:href="#path-3"></use>
                    </g>
                    <g id="C">
                        <use fill="#000000" xlink:href="#path-4"></use>
                        <use fill="#C0C0DD" xlink:href="#path-4"></use>
                    </g>
                </g>
                <ellipse id="Oval" fill="#BFBEDB" cx="98.0229196" cy="16.0042036" rx="16.0229196" ry="16.0042036"></ellipse>
                <path d="M105.731494,16.5019134 C105.741379,13.7412645 103.694439,11.4039877 100.953807,11.0465616 C98.2131752,10.6891354 95.6340332,12.4230904 94.9339263,15.0937223 L94.3129263,15.0937223 C92.4620651,15.1681934 91,16.6885626 91,18.5387613 C91,20.3889599 92.4620651,21.9093291 94.3129263,21.9838002 L100.299143,21.9838002 C100.422224,21.9838002 100.5509,21.9838002 100.673981,21.9838002 C103.534409,21.7561498 105.737638,19.3680493 105.731494,16.5019134 Z" id="Path" fill="#2D2E3D"></path>
                <rect id="Rectangle" fill="#C0C0DD" x="17" y="51" width="61.8650295" height="4.0289912" rx="2.0144956"></rect>
                <rect id="Rectangle" fill="#C0C0DD" x="17" y="61" width="43.8784071" height="4.0289912" rx="2.0144956"></rect>
            </g>
        </g>
    </g>
</svg>