<svg xmlns="http://www.w3.org/2000/svg" xmlns:xlink="http://www.w3.org/1999/xlink" viewBox="0 0 252.63 256.65"><defs><style>.cls-1,.cls-4,.cls-6{fill:none;}.cls-2{fill:#bfbedb;}.cls-3{fill:#47486a;}.cls-4{stroke:#bfbedb;stroke-linecap:round;stroke-linejoin:round;stroke-width:4px;}.cls-5,.cls-9{fill:#464769;}.cls-6{stroke:#464769;stroke-miterlimit:10;stroke-width:2px;}.cls-7{clip-path:url(#clip-path);}.cls-8{fill:#c0c0dd;}.cls-9{fill-rule:evenodd;}</style><clipPath id="clip-path"><rect class="cls-1" x="17.39" y="64.46" width="161.13" height="161.13" rx="38.57" transform="translate(-73.85 111.74) rotate(-45)"/></clipPath></defs><title>slack bot</title><g id="Layer_2" data-name="Layer 2"><g id="Layer_1-2" data-name="Layer 1"><circle class="cls-2" cx="224" cy="28.64" r="28.64"/><path class="cls-3" d="M237.28,28.64A9.81,9.81,0,0,0,218,26.12h-1.1a6.17,6.17,0,1,0,0,12.33h10.69c.23,0,.45,0,.68,0A9.82,9.82,0,0,0,237.28,28.64Z"/><path class="cls-4" d="M224,68.19a39.56,39.56,0,0,1-39.56-39.55"/><path class="cls-4" d="M222.92,80.31a52.77,52.77,0,0,1-52.77-52.76"/><rect class="cls-5" x="17.39" y="64.46" width="161.13" height="161.13" rx="38.57" transform="translate(-73.85 111.74) rotate(-45)"/><path class="cls-6" d="M100.7,55.87c-7-11.94-1.73-24.61,4.09-30.66"/><g class="cls-7"><path class="cls-8" d="M178.67,189.73c-9-23-24.49-40.42-24.49-40.42l-8.73,33.52s17.6,12.8,28.44,30.36C177.43,207.71,178.67,195.17,178.67,189.73Z"/><path class="cls-8" d="M17.33,189.73c9-23,24.5-40.42,24.5-40.42l8.73,33.52S33,195.63,22.12,213.19C18.58,207.71,17.33,195.17,17.33,189.73Z"/><path class="cls-8" d="M78,131.67l-22.5,6.82a24,24,0,0,0-16.38,28.44l11.23,47.6a24,24,0,0,0,9.19,13.85l24.31,17.76a24,24,0,0,0,28.27,0l24.31-17.76a23.92,23.92,0,0,0,9.19-13.85l11.23-47.6a24,24,0,0,0-16.37-28.44L118,131.67A68.92,68.92,0,0,0,78,131.67Z"/><path class="cls-5" d="M79.69,140.29l-19.75,6a19.33,19.33,0,0,0-13.33,22.4L58.86,228.1,98,256.65l39.1-28.55,12.25-59.43A19.33,19.33,0,0,0,136,146.27l-19.75-6A63,63,0,0,0,79.69,140.29Z"/></g><path class="cls-8" d="M83.36,45.26h24.7a42.86,42.86,0,0,1,42.86,42.86v12.22a18.78,18.78,0,0,1-18.78,18.78H59.28A18.78,18.78,0,0,1,40.5,100.34V88.12A42.86,42.86,0,0,1,83.36,45.26Z"/><ellipse class="cls-8" cx="150.37" cy="91.08" rx="8.49" ry="12.3"/><ellipse class="cls-8" cx="41.04" cy="91.08" rx="8.49" ry="12.3"/><circle class="cls-8" cx="105.82" cy="23.66" r="4.84"/><rect class="cls-8" x="118.94" y="169.48" width="4.35" height="4.19" transform="matrix(0.95, -0.32, 0.32, 0.95, -48.22, 47.35)"/><rect class="cls-8" x="118.94" y="169.48" width="4.35" height="4.19" transform="translate(-48.22 47.35) rotate(-18.52)"/><path class="cls-8" d="M135.27,167.33c-3.19-10.61-7.79-13.09-18.4-9.9s-13.09,7.78-9.91,18.4,7.79,13.09,18.4,9.9S138.45,178,135.27,167.33Zm-5.37,6.89-2,.67.69,2.08a1.6,1.6,0,0,1-1,2,1.5,1.5,0,0,1-.55.08,1.59,1.59,0,0,1-1.48-1.09l-.69-2.07-4.13,1.38.7,2.07a1.6,1.6,0,0,1-1,2,1.5,1.5,0,0,1-.55.08,1.58,1.58,0,0,1-1.48-1.09l-.69-2.07-2,.67a1.53,1.53,0,0,1-.55.08,1.58,1.58,0,0,1-1.48-1.09,1.6,1.6,0,0,1,1-2l2-.67-1.33-4-2,.67a1.5,1.5,0,0,1-.55.08,1.58,1.58,0,0,1-1.48-1.09,1.61,1.61,0,0,1,1-2l2-.67-.69-2.07a1.6,1.6,0,0,1,3-1l.69,2.07,4.13-1.39-.7-2.07a1.6,1.6,0,0,1,3-1l.69,2.07,2-.67a1.6,1.6,0,1,1,1,3l-2,.67,1.33,4,2-.67a1.6,1.6,0,1,1,1,3Z"/><path class="cls-9" d="M52.24,86.08A21.15,21.15,0,0,1,73.4,64.93h42.29a21.16,21.16,0,1,1,0,42.31H73.4A21.16,21.16,0,0,1,52.24,86.08Zm18.87,1.74a5.13,5.13,0,0,1,1-.84,4.64,4.64,0,0,1,2.54-.9h-.16a5.2,5.2,0,0,1,3.49,1.73L79.66,90l4.47-3.45L82.4,84.36a10,10,0,0,0-2.15-2,10.15,10.15,0,0,0-5.64-1.93h-.16a10.72,10.72,0,0,0-7.78,3.91l-1.74,2.22L69.37,90Zm39.49,0a5.21,5.21,0,0,1,3.49-1.74h-.15a4.64,4.64,0,0,1,2.55.9,4.7,4.7,0,0,1,.93.83L119.14,90l4.47-3.45-1.72-2.23a10.76,10.76,0,0,0-7.8-3.92h-.15a10.79,10.79,0,0,0-7.79,3.91l-1.73,2.22L108.86,90Z"/></g></g></svg>