<?xml version="1.0" encoding="UTF-8"?>
<svg width="200px" height="200px" viewBox="0 0 200 200" version="1.1" xmlns="http://www.w3.org/2000/svg" xmlns:xlink="http://www.w3.org/1999/xlink">
    <!-- Generator: Sketch 52 (66869) - http://www.bohemiancoding.com/sketch -->
    <title>atoms / illustration - slack_bot</title>
    <desc>Created with Sketch.</desc>
    <defs>
        <path d="M36.1795062,16.7661241 L78.3046182,16.7928093 C89.0099476,16.7995908 97.6866386,25.4762818 97.6934201,36.1816112 L97.7201053,78.3067232 C97.726893,89.0216505 89.0462307,97.7133177 78.3313035,97.7201053 C78.3231101,97.7201105 78.3149166,97.7201105 78.3067232,97.7201053 L36.1816112,97.6934201 C25.4762818,97.6866386 16.7995908,89.0099476 16.7928093,78.3046182 L16.7661241,36.1795062 C16.7593364,25.4645789 25.4399987,16.7729117 36.1549259,16.7661241 C36.1631193,16.7661189 36.1713128,16.7661189 36.1795062,16.7661241 Z" id="path-1"></path>
    </defs>
    <g id="atoms-/-illustration---slack_bot" stroke="none" stroke-width="1" fill="none" fill-rule="evenodd">
        <g id="Group-3" transform="translate(43.000000, 35.000000)">
            <ellipse id="Oval" fill="#C6C7DC" cx="120.393514" cy="14.3752896" rx="14.3935139" ry="14.3752896"></ellipse>
            <path d="M126.467959,14.9042257 C126.457892,12.4391568 124.624183,10.3613818 122.176786,10.0418988 C119.729388,9.72241575 117.422574,11.2596873 116.778471,13.6393609 L116.225647,13.6393609 C115.088958,13.5936296 114.018458,14.1732132 113.436482,15.1494538 C112.854506,16.1256944 112.854506,17.3418305 113.436482,18.3180711 C114.018458,19.2943117 115.088958,19.8738952 116.225647,19.828164 L121.598086,19.828164 C121.713677,19.828164 121.824241,19.828164 121.939832,19.828164 C124.503413,19.6162607 126.474105,17.4733079 126.467959,14.9042257 Z" id="Path" fill="#2D2E3D"></path>
            <path d="M119.881544,34.8513514 C108.903233,34.8513517 100.002775,25.9644105 100,15" id="Path" stroke="#C6C7DC" stroke-width="2.01204002" stroke-linecap="round" stroke-linejoin="round"></path>
            <path d="M119.520451,40.4818533 C104.875573,40.4818535 93.0027752,28.6263356 93,14" id="Path" stroke="#C6C7DC" stroke-width="2.01204002" stroke-linecap="round" stroke-linejoin="round"></path>
            <g id="Path-+-Path-Mask" transform="translate(0.000000, 16.000000)">
                <mask id="mask-2" fill="white">
                    <use xlink:href="#path-1"></use>
                </mask>
                <use id="Mask" fill="#2D2E3D" transform="translate(57.243115, 57.243115) rotate(-45.000000) translate(-57.243115, -57.243115) " xlink:href="#path-1"></use>
                <path d="M96.69527,78.2880309 C92.1721685,66.7436293 84.3874084,58 84.3874084,58 L80,74.8247104 C80,74.8247104 88.8451761,81.2494208 94.2930005,90.0633205 C96.0720871,87.3127413 96.69527,81.0185328 96.69527,78.2880309 Z" id="Path" fill="#C6C7DC" mask="url(#mask-2)"></path>
                <path d="M17,78.2880309 C21.5231014,66.7436293 29.3128872,58 29.3128872,58 L33.7002956,74.8247104 C33.7002956,74.8247104 24.8752222,81.2494208 19.4072951,90.0633205 C17.6282085,87.3127413 17,81.0185328 17,78.2880309 Z" id="Path" fill="#C6C7DC" mask="url(#mask-2)"></path>
            </g>
            <path d="M58.6812963,28.3891892 C55.1633285,22.396139 57.8118556,16.0366795 60.7367946,13" id="Path" stroke="#464769" stroke-width="1.00602001"></path>
            <path d="M46.8605297,66.4885878 L35.5527761,69.9117538 C29.4709205,71.7599117 25.8693676,78.0052399 27.3207315,84.1866573 L32.964557,108.078549 C33.6258504,110.871259 35.2636719,113.33645 37.5831461,115.030287 L49.8005456,123.944572 C54.0339511,127.025809 59.7747043,127.025809 64.0081098,123.944572 L76.2255093,115.030287 C78.5475891,113.338938 80.1861129,110.87269 80.8440985,108.078549 L86.4879239,84.1866573 C87.9397381,78.006704 84.3407409,71.7619953 78.260905,69.9117538 L66.9632027,66.4885878 C60.4096563,64.5038041 53.4140761,64.5038041 46.8605297,66.4885878 Z" id="Path" fill="#C6C7DC"></path>
            <path d="M47.8260991,70.3654328 L37.9004042,73.3770158 C33.0925598,74.831158 30.1877316,79.7063091 31.2011885,84.6202591 L37.3576321,114.43995 L57.0280976,128.770066 L76.6784605,114.43995 L82.8349042,84.6102205 C83.84742,79.6933534 80.9375178,74.817003 76.125637,73.3669772 L66.1999422,70.3553942 C60.2089755,68.5447885 53.8150787,68.5482818 47.8260991,70.3654328 Z" id="Path" fill="#2D2E3D"></path>
            <path d="M49.5400142,23 L61.9534148,23 C73.8496361,23 83.4934289,32.6315824 83.4934289,44.5127413 L83.4934289,50.646332 C83.4934289,55.8523088 79.2678006,60.0725869 74.0552239,60.0725869 L37.438205,60.0725869 C32.2256283,60.0725869 28,55.8523088 28,50.646332 L28,44.5127413 C28,32.6315824 37.6437928,23 49.5400142,23 Z" id="Path" fill="#C6C7DC"></path>
            <ellipse id="Oval" fill="#C6C7DC" cx="83.2667924" cy="46.1737452" rx="4.26679235" ry="6.17374517"></ellipse>
            <ellipse id="Oval" fill="#C6C7DC" cx="28.2667924" cy="46.1737452" rx="4.26679235" ry="6.17374517"></ellipse>
            <ellipse id="Oval" fill="#2D2E3D" cx="60.4324234" cy="12.4293436" rx="2.43242344" ry="2.42934363"></ellipse>
            <polygon id="Rectangle" fill="#E6E6E6" transform="translate(68.370907, 86.344896) rotate(-18.520000) translate(-68.370907, -86.344896) " points="67.2775619 85.2928002 69.4634483 85.2936339 69.4642514 87.3969917 67.2783649 87.396158"></polygon>
            <path d="M75.3737087,84.4360526 C73.8246355,79.2844135 71.5908623,78.0802603 66.4386158,79.6291509 C61.2863693,81.1780414 60.0820742,83.4066959 61.6262913,88.5631905 C63.1705085,93.7196851 65.4091377,94.9189828 70.5613842,93.3700922 C75.7136307,91.8212016 76.9179258,89.6168245 75.3737087,84.4360526 Z M72.4504603,87.6778779 L71.5439624,87.9869633 L71.8567042,88.9465121 C71.9768764,89.3283075 71.7756501,89.7379278 71.4034552,89.869155 C71.3233439,89.897155 71.2387972,89.9096718 71.1541683,89.9060608 C70.8483877,89.9002996 70.5794815,89.6987265 70.4833599,89.4032203 L70.1706182,88.4482848 L68.2987001,89.0849085 L68.6159744,90.039844 C68.7361466,90.4216394 68.5349203,90.8312597 68.1627254,90.962487 C68.0826141,90.990487 67.9980674,91.0030037 67.9134385,90.9993927 C67.6071965,90.9950228 67.3375832,90.7929197 67.2426301,90.4965523 L66.9298884,89.5416168 L66.0233905,89.8507022 C65.9432054,89.8783912 65.8587161,89.8908995 65.7741036,89.8876079 C65.4678616,89.883238 65.1982482,89.6811349 65.1032952,89.3847675 C64.983123,89.002972 65.1843492,88.5933517 65.5565441,88.4621245 L66.463042,88.1530391 L65.8602209,86.3077531 L64.9537231,86.6168385 C64.8736117,86.6448385 64.789065,86.6573552 64.7044361,86.6537442 C64.3981941,86.6493743 64.1285808,86.4472712 64.0336277,86.1509038 C63.9160159,85.7693129 64.1163787,85.3614501 64.4868767,85.2282608 L65.3933745,84.9191754 L65.0806328,83.9642399 C65.0208113,83.6053494 65.2269914,83.2556566 65.5662868,83.1405438 C65.9055823,83.0254309 66.2766705,83.1792738 66.4403795,83.5029184 L66.7531213,84.4578539 L68.6250393,83.816617 L68.3077651,82.8616815 C68.2479436,82.502791 68.4541237,82.1530982 68.7934192,82.0379854 C69.1327146,81.9228726 69.5038028,82.0767154 69.6675119,82.40036 L69.9802536,83.3552955 L70.8867515,83.0462101 C71.1408752,82.9130472 71.4481451,82.9442312 71.671431,83.1258454 C71.894717,83.3074595 71.9923662,83.6056243 71.920799,83.8872733 C71.8492319,84.1689223 71.621799,84.3815151 71.3400004,84.4301746 L70.4335025,84.73926 L71.0363236,86.584546 L71.9428215,86.2754606 C72.1969452,86.1422976 72.504215,86.1734817 72.727501,86.3550958 C72.950787,86.53671 73.0484361,86.8348748 72.976869,87.1165238 C72.9053019,87.3981728 72.677869,87.6107656 72.3960704,87.6594251 L72.4504603,87.6778779 Z" id="Shape" fill="#E6E6E6" fill-rule="nonzero"></path>
            <path d="M34,43.6183504 C33.9999997,40.8019873 35.1205578,38.1010484 37.1150231,36.1100497 C39.1094885,34.1190511 41.8143808,33.0011886 44.634314,33.0025202 L65.8878651,33.0025202 C69.7413456,32.9188402 73.3385122,34.9241832 75.2898459,38.2439224 C77.2411797,41.5636615 77.2411797,45.6780585 75.2898459,48.9977977 C73.3385122,52.3175368 69.7413456,54.3228799 65.8878651,54.2391998 L44.634314,54.2391998 C41.8139186,54.2391998 39.1090392,53.1202206 37.1147185,51.128425 C35.1203977,49.1366294 34,46.4351748 34,43.6183504 Z M43.483436,44.4917094 C43.6322891,44.3303591 43.8011796,44.1886707 43.9860028,44.0700878 C44.3573955,43.7967045 44.8016404,43.6394942 45.2625226,43.6183504 L45.1821119,43.6183504 C45.8573299,43.6699035 46.4861474,43.9812149 46.9360701,44.4866901 L47.7803824,45.5859179 L50.0268561,43.8542577 L49.1574155,42.7550299 C48.8486642,42.369131 48.4845669,42.0308647 48.0768968,41.7511689 C47.2504499,41.1521967 46.2630311,40.8147312 45.2424199,40.782443 L45.1620092,40.782443 C43.6393819,40.8547232 42.2186784,41.5678231 41.2520393,42.7449913 L40.377573,43.859277 L42.6089697,45.5859179 L43.483436,44.4917094 Z M63.3298,44.4917094 C63.7792038,43.9847965 64.4079471,43.6717225 65.0837582,43.6183504 L65.0083732,43.6183504 C65.4709884,43.6385103 65.9171201,43.7957692 66.2899186,44.0700878 C66.4635433,44.1876142 66.6207211,44.3277135 66.7573057,44.4866901 L67.6217207,45.5859179 L69.8681944,43.8542577 L69.0037794,42.7349527 C68.0341492,41.5553941 66.6100918,40.8406201 65.0837582,40.7673851 L65.0083732,40.7673851 C63.4851075,40.8426136 62.0639791,41.5550111 61.0933776,42.7299334 L60.223937,43.8442191 L62.4553337,45.5859179 L63.3298,44.4917094 Z" id="Shape" fill="#2D2E3D"></path>
        </g>
    </g>
</svg>