<?xml version="1.0" encoding="UTF-8"?>
<svg version="1.1" viewBox="0 0 677 306" xmlns="http://www.w3.org/2000/svg">
<title>molecules / illustration - meet storyscript</title>
<desc>Created with Sketch.</desc>
<g fill="none" fill-rule="evenodd">
<path d="m70.352 26.224c-1.6853 0-3.0773-0.55999-4.176-1.68s-1.648-2.5013-1.648-4.144c0-1.6533 0.54933-3.0373 1.648-4.152s2.4907-1.672 4.176-1.672c1.0133 0 1.9493 0.23733 2.808 0.712s1.528 1.1173 2.008 1.928l-1.904 1.104c-0.27733-0.50134-0.672-0.89333-1.184-1.176s-1.088-0.424-1.728-0.424c-1.088 0-1.9653 0.34133-2.632 1.024s-1 1.568-1 2.656c0 1.0773 0.33333 1.9573 1 2.64s1.544 1.024 2.632 1.024c0.64 0 1.2187-0.14133 1.736-0.424s0.90933-0.66933 1.176-1.16l1.904 1.104c-0.48 0.81067-1.1467 1.4533-2 1.928s-1.792 0.712-2.816 0.712zm13.82-0.224l-2.256-3.888h-1.68v3.888h-2.208v-11.2h4.48c1.0347 0 1.9147 0.36266 2.64 1.088s1.088 1.6 1.088 2.624c0 0.69334-0.19733 1.336-0.592 1.928s-0.91733 1.0373-1.568 1.336l2.48 4.224h-2.384zm-3.936-9.136v3.312h2.272c0.416 0 0.77333-0.16266 1.072-0.488s0.448-0.71733 0.448-1.176-0.14933-0.848-0.448-1.168-0.656-0.48-1.072-0.48h-2.272zm11.324 7.024h4.72v2.112h-6.928v-11.2h6.848v2.112h-4.64v2.384h4.24v2.08h-4.24v2.512zm15.148 2.112l-0.672-2.016h-4.464l-0.672 2.016h-2.384l3.92-11.2h2.736l3.936 11.2h-2.4zm-4.432-4.08h3.072l-1.536-4.576-1.536 4.576zm16.012-7.12v2.112h-3.024v9.088h-2.208v-9.088h-3.008v-2.112h8.24zm4.94 9.088h4.72v2.112h-6.928v-11.2h6.848v2.112h-4.64v2.384h4.24v2.08h-4.24v2.512zm17.096 2.336c-1.1093 0-2.0427-0.248-2.8-0.744s-1.2907-1.1707-1.6-2.024l1.888-1.104c0.43734 1.1413 1.296 1.712 2.576 1.712 0.61867 0 1.072-0.112 1.36-0.336s0.432-0.50666 0.432-0.848c0-0.39467-0.176-0.70133-0.528-0.92s-0.98133-0.456-1.888-0.712c-0.50134-0.14933-0.92533-0.29867-1.272-0.448s-0.69333-0.34933-1.04-0.6-0.61067-0.568-0.792-0.952-0.272-0.832-0.272-1.344c0-1.0133 0.36-1.8213 1.08-2.424s1.5867-0.904 2.6-0.904c0.90667 0 1.704 0.22133 2.392 0.664s1.224 1.0587 1.608 1.848l-1.856 1.072c-0.448-0.96-1.1627-1.44-2.144-1.44-0.45867 0-0.81866 0.104-1.08 0.312s-0.392 0.47733-0.392 0.808c0 0.352 0.14666 0.63733 0.44 0.856s0.856 0.456 1.688 0.712c0.34134 0.10667 0.6 0.18933 0.776 0.248s0.416 0.14933 0.72 0.272 0.53867 0.23733 0.704 0.344 0.35467 0.25067 0.568 0.432 0.376 0.368 0.488 0.56 0.208 0.424 0.288 0.696 0.12 0.568 0.12 0.888c0 1.0347-0.376 1.856-1.128 2.464s-1.7307 0.912-2.936 0.912zm9.132-2.336h4.272v2.112h-6.48v-11.2h2.208v9.088zm14.54 2.112l-0.672-2.016h-4.464l-0.672 2.016h-2.384l3.92-11.2h2.736l3.936 11.2h-2.4zm-4.432-4.08h3.072l-1.536-4.576-1.536 4.576zm14.332 4.304c-1.6853 0-3.0773-0.55999-4.176-1.68s-1.648-2.5013-1.648-4.144c0-1.6533 0.54933-3.0373 1.648-4.152s2.4907-1.672 4.176-1.672c1.0133 0 1.9493 0.23733 2.808 0.712s1.528 1.1173 2.008 1.928l-1.904 1.104c-0.27734-0.50134-0.672-0.89333-1.184-1.176s-1.088-0.424-1.728-0.424c-1.088 0-1.9653 0.34133-2.632 1.024s-1 1.568-1 2.656c0 1.0773 0.33333 1.9573 1 2.64s1.544 1.024 2.632 1.024c0.64 0 1.2187-0.14133 1.736-0.424s0.90933-0.66933 1.176-1.16l1.904 1.104c-0.48 0.81067-1.1467 1.4533-2 1.928s-1.792 0.712-2.816 0.712zm16.428-0.224h-2.544l-4-5.248v5.248h-2.208v-11.2h2.208v4.944l3.84-4.944h2.544l-4.144 5.44 4.304 5.76zm9.356-5.808c0.98134 0.56534 1.472 1.4187 1.472 2.56 0 0.94934-0.336 1.728-1.008 2.336s-1.4987 0.912-2.48 0.912h-4.752v-11.2h4.416c0.96 0 1.768 0.296 2.424 0.888s0.984 1.3467 0.984 2.264c0 0.928-0.352 1.6747-1.056 2.24zm-2.352-3.328h-2.208v2.464h2.208c0.34134 0 0.62667-0.11733 0.856-0.352s0.344-0.528 0.344-0.88-0.112-0.64533-0.336-0.88-0.512-0.352-0.864-0.352zm0.336 7.072c0.37334 0 0.68266-0.12533 0.928-0.376s0.368-0.568 0.368-0.952c0-0.37334-0.12266-0.68533-0.368-0.936s-0.55466-0.376-0.928-0.376h-2.544v2.64h2.544zm15.852 0.608c-1.1307 1.12-2.5067 1.68-4.128 1.68s-2.9947-0.56266-4.12-1.688-1.688-2.504-1.688-4.136 0.56266-3.0107 1.688-4.136 2.4987-1.688 4.12-1.688 2.9973 0.56266 4.128 1.688 1.696 2.504 1.696 4.136-0.56533 3.0133-1.696 4.144zm-6.704-1.504c0.69334 0.68267 1.552 1.024 2.576 1.024s1.8827-0.344 2.576-1.032 1.04-1.5653 1.04-2.632-0.34666-1.9467-1.04-2.64-1.552-1.04-2.576-1.04-1.8827 0.34666-2.576 1.04-1.04 1.5733-1.04 2.64 0.34666 1.9467 1.04 2.64zm18.86-8.24v2.112h-3.024v9.088h-2.208v-9.088h-3.008v-2.112h8.24z" fill="#F2F3F9"/>
<path d="m76.032 108.98v0.864c0 1.6-0.51199 2.896-1.536 3.888s-2.3467 1.488-3.968 1.488c-1.728 0-3.16-0.56266-4.296-1.688s-1.704-2.4987-1.704-4.12c0-1.632 0.56266-3.0133 1.688-4.144s2.52-1.696 4.184-1.696c1.0453 0 2 0.23733 2.864 0.712s1.536 1.1067 2.016 1.896l-1.888 1.088c-0.26667-0.45867-0.66933-0.832-1.208-1.12s-1.1387-0.432-1.8-0.432c-1.0667 0-1.944 0.34933-2.632 1.048s-1.032 1.5813-1.032 2.648c0 1.056 0.34933 1.928 1.048 2.616s1.624 1.032 2.776 1.032c0.85334 0 1.56-0.18933 2.12-0.568s0.94133-0.89866 1.144-1.56h-3.392v-1.952h5.616zm5.276 3.904h4.72v2.112h-6.928v-11.2h6.848v2.112h-4.64v2.384h4.24v2.08h-4.24v2.512zm15.18-9.088v2.112h-3.024v9.088h-2.208v-9.088h-3.008v-2.112h8.24zm10.44 9.088h4.272v2.112h-6.48v-11.2h2.208v9.088zm15.756 0.656c-1.1307 1.12-2.5067 1.68-4.128 1.68s-2.9947-0.56266-4.12-1.688-1.688-2.504-1.688-4.136 0.56266-3.0107 1.688-4.136 2.4987-1.688 4.12-1.688 2.9973 0.56266 4.128 1.688 1.696 2.504 1.696 4.136-0.56533 3.0133-1.696 4.144zm-6.704-1.504c0.69334 0.68267 1.552 1.024 2.576 1.024s1.8827-0.344 2.576-1.032 1.04-1.5653 1.04-2.632-0.34666-1.9467-1.04-2.64-1.552-1.04-2.576-1.04-1.8827 0.34666-2.576 1.04-1.04 1.5733-1.04 2.64 0.34666 1.9467 1.04 2.64zm16.764 3.184c-1.6853 0-3.0773-0.55999-4.176-1.68s-1.648-2.5013-1.648-4.144c0-1.6533 0.54933-3.0373 1.648-4.152s2.4907-1.672 4.176-1.672c1.0133 0 1.9493 0.23733 2.808 0.712s1.528 1.1173 2.008 1.928l-1.904 1.104c-0.27734-0.50134-0.672-0.89333-1.184-1.176s-1.088-0.424-1.728-0.424c-1.088 0-1.9653 0.34133-2.632 1.024s-1 1.568-1 2.656c0 1.0773 0.33333 1.9573 1 2.64s1.544 1.024 2.632 1.024c0.64 0 1.2187-0.14133 1.736-0.424s0.90933-0.66933 1.176-1.16l1.904 1.104c-0.48 0.81067-1.1467 1.4533-2 1.928s-1.792 0.712-2.816 0.712zm14.828-0.224l-0.672-2.016h-4.464l-0.672 2.016h-2.384l3.92-11.2h2.736l3.936 11.2h-2.4zm-4.432-4.08h3.072l-1.536-4.576-1.536 4.576zm16.012-7.12v2.112h-3.024v9.088h-2.208v-9.088h-3.008v-2.112h8.24zm2.732 0h2.208v11.2h-2.208v-11.2zm15.212 9.744c-1.1307 1.12-2.5067 1.68-4.128 1.68s-2.9947-0.56266-4.12-1.688-1.688-2.504-1.688-4.136 0.56266-3.0107 1.688-4.136 2.4987-1.688 4.12-1.688 2.9973 0.56266 4.128 1.688 1.696 2.504 1.696 4.136-0.56533 3.0133-1.696 4.144zm-6.704-1.504c0.69334 0.68267 1.552 1.024 2.576 1.024s1.8827-0.344 2.576-1.032 1.04-1.5653 1.04-2.632-0.34666-1.9467-1.04-2.64-1.552-1.04-2.576-1.04-1.8827 0.34666-2.576 1.04-1.04 1.5733-1.04 2.64 0.34666 1.9467 1.04 2.64zm17.932-8.24h2.208v11.2h-1.68l-4.8-6.848v6.848h-2.208v-11.2h1.68l4.8 6.832v-6.832z" fill="#F2F3F9"/>
<path d="m68.864 292.22c-1.1093 0-2.0427-0.248-2.8-0.744s-1.2907-1.1707-1.6-2.024l1.888-1.104c0.43734 1.1413 1.296 1.712 2.576 1.712 0.61867 0 1.072-0.112 1.36-0.336s0.432-0.50666 0.432-0.848c0-0.39467-0.176-0.70133-0.528-0.92s-0.98133-0.456-1.888-0.712c-0.50134-0.14933-0.92533-0.29867-1.272-0.448s-0.69333-0.34933-1.04-0.6-0.61067-0.568-0.792-0.952-0.272-0.832-0.272-1.344c0-1.0133 0.36-1.8213 1.08-2.424s1.5867-0.904 2.6-0.904c0.90667 0 1.704 0.22133 2.392 0.664s1.224 1.0587 1.608 1.848l-1.856 1.072c-0.448-0.96-1.1627-1.44-2.144-1.44-0.45867 0-0.81867 0.104-1.08 0.312s-0.392 0.47733-0.392 0.808c0 0.352 0.14667 0.63733 0.44 0.856s0.856 0.456 1.688 0.712c0.34134 0.10667 0.6 0.18933 0.776 0.248s0.416 0.14933 0.72 0.272 0.53867 0.23733 0.704 0.344 0.35467 0.25067 0.568 0.432 0.376 0.368 0.488 0.56 0.208 0.424 0.288 0.696 0.12 0.568 0.12 0.888c0 1.0347-0.376 1.856-1.128 2.464s-1.7307 0.912-2.936 0.912zm9.132-2.336h4.72v2.112h-6.928v-11.2h6.848v2.112h-4.64v2.384h4.24v2.08h-4.24v2.512zm14.252-9.088h2.208v11.2h-1.68l-4.8-6.848v6.848h-2.208v-11.2h1.68l4.8 6.832v-6.832zm10.236 0c1.536 0 2.8187 0.53866 3.848 1.616s1.544 2.4053 1.544 3.984-0.51466 2.9067-1.544 3.984-2.312 1.616-3.848 1.616h-4.448v-11.2h4.448zm0 9.088c0.97067 0 1.76-0.32266 2.368-0.968s0.912-1.4853 0.912-2.52-0.304-1.8747-0.912-2.52-1.3973-0.968-2.368-0.968h-2.24v6.976h2.24zm20.104 2.112l-2.256-3.888h-1.68v3.888h-2.208v-11.2h4.48c1.0347 0 1.9147 0.36266 2.64 1.088s1.088 1.6 1.088 2.624c0 0.69334-0.19733 1.336-0.592 1.928s-0.91733 1.0373-1.568 1.336l2.48 4.224h-2.384zm-3.936-9.136v3.312h2.272c0.416 0 0.77333-0.16266 1.072-0.488s0.448-0.71733 0.448-1.176-0.14933-0.848-0.448-1.168-0.656-0.48-1.072-0.48h-2.272zm11.324 7.024h4.72v2.112h-6.928v-11.2h6.848v2.112h-4.64v2.384h4.24v2.08h-4.24v2.512zm11.948-9.088c1.0773 0 1.984 0.36266 2.72 1.088s1.104 1.616 1.104 2.672-0.368 1.9467-1.104 2.672-1.6427 1.088-2.72 1.088h-1.968v3.68h-2.208v-11.2h4.176zm0 5.456c0.46934 0 0.85866-0.16266 1.168-0.488s0.464-0.728 0.464-1.208c0-0.49067-0.15466-0.896-0.464-1.216s-0.69866-0.48-1.168-0.48h-1.968v3.392h1.968zm8.972 3.632h4.272v2.112h-6.48v-11.2h2.208v9.088zm15.884-9.088l-3.84 6.832v4.368h-2.192v-4.368l-3.824-6.832h2.496l2.432 4.672 2.432-4.672h2.496z" fill="#F2F3F9"/>
<g fill="#464769">
<rect width="40" height="40" rx="14.4" fill-rule="nonzero"/>
</g>
<g transform="translate(10 10)" fill="#E6E6E6">
<polygon transform="translate(9.9503 9.8763) rotate(-18.52) translate(-9.9503 -9.8763)" points="8.5512 8.5042 11.284 8.5158 11.349 11.249 8.5683 11.226"/>
<path d="m19.165 7.2481c-2.0654-6.8689-5.0438-8.4744-11.913-6.4092-6.8697 2.0652-8.4754 5.0367-6.4164 11.912 2.059 6.8753 5.0438 8.4744 11.913 6.4092 6.8697-2.0652 8.4754-5.0044 6.4164-11.912zm-3.4769 4.4605l-1.2949 0.43375 0.44675 1.3466c0.17167 0.53579-0.11579 1.1106-0.64747 1.2948-0.11444 0.039294-0.23522 0.056859-0.35611 0.051792-0.43681-0.008085-0.82095-0.29096-0.95826-0.70566l-0.44675-1.3401-2.6741 0.8934 0.45323 1.3401c0.17167 0.53579-0.11579 1.1106-0.64747 1.2948-0.11444 0.039294-0.23522 0.056859-0.35611 0.051792-0.43747-0.0061326-0.82262-0.28975-0.95826-0.70566l-0.44675-1.3401-1.2949 0.43375c-0.11455 0.038857-0.23524 0.056411-0.35611 0.051792-0.43747-0.0061325-0.82261-0.28975-0.95826-0.70566-0.17167-0.53579 0.11579-1.1106 0.64747-1.2948l1.2949-0.43375-0.86114-2.5896-1.2949 0.43375c-0.11444 0.039294-0.23522 0.056859-0.35611 0.051792-0.43747-0.0061325-0.82262-0.28975-0.95826-0.70566-0.16801-0.5355 0.11821-1.1079 0.64747-1.2948l1.2949-0.43375-0.44675-1.3401c-0.085456-0.50365 0.20907-0.99439 0.69376-1.1559 0.48469-0.16154 1.0148 0.054352 1.2486 0.50854l0.44675 1.3401 2.6741-0.89988-0.45323-1.3401c-0.085456-0.50365 0.20907-0.99439 0.69376-1.1559 0.48469-0.16154 1.0148 0.054352 1.2486 0.50854l0.44675 1.3401 1.2949-0.43375c0.36302-0.18687 0.80196-0.14311 1.1209 0.11176s0.45846 0.6733 0.35622 1.0685c-0.10223 0.39525-0.42712 0.69359-0.82968 0.76188l-1.2949 0.43375 0.86114 2.5896 1.2949-0.43375c0.36302-0.18687 0.80196-0.14311 1.1209 0.11176 0.31897 0.25487 0.45846 0.6733 0.35622 1.0685-0.10223 0.39525-0.42712 0.69359-0.82968 0.76188l0.077696 0.025896z" fill-rule="nonzero"/>
</g>
<g transform="translate(0 89)">
<g fill-rule="nonzero">
<rect width="40" height="40" rx="14.4" fill="#464769"/>
<path d="m20 9.7778c-4.1717 0-7.5556 3.344-7.5556 7.4667 0 5.6 7.5556 13.867 7.5556 13.867s7.5556-8.2667 7.5556-13.867c0-4.1227-3.3838-7.4667-7.5556-7.4667zm0 10.133c-1.4895 0-2.6984-1.1947-2.6984-2.6667s1.2089-2.6667 2.6984-2.6667 2.6984 1.1947 2.6984 2.6667-1.2089 2.6667-2.6984 2.6667z" fill="#E6E6E6"/>
</g>
</g>
<path d="m76.032 196.98v0.864c0 1.6-0.51199 2.896-1.536 3.888s-2.3467 1.488-3.968 1.488c-1.728 0-3.16-0.56266-4.296-1.688s-1.704-2.4987-1.704-4.12c0-1.632 0.56266-3.0133 1.688-4.144s2.52-1.696 4.184-1.696c1.0453 0 2 0.23733 2.864 0.712s1.536 1.1067 2.016 1.896l-1.888 1.088c-0.26667-0.45867-0.66933-0.832-1.208-1.12s-1.1387-0.432-1.8-0.432c-1.0667 0-1.944 0.34933-2.632 1.048s-1.032 1.5813-1.032 2.648c0 1.056 0.34933 1.928 1.048 2.616s1.624 1.032 2.776 1.032c0.85334 0 1.56-0.18933 2.12-0.568s0.94133-0.89866 1.144-1.56h-3.392v-1.952h5.616zm5.276 3.904h4.72v2.112h-6.928v-11.2h6.848v2.112h-4.64v2.384h4.24v2.08h-4.24v2.512zm15.18-9.088v2.112h-3.024v9.088h-2.208v-9.088h-3.008v-2.112h8.24zm14.92 2.112h-4.48v2.656h4.352v2.112h-4.352v4.32h-2.208v-11.2h6.688v2.112zm12.54 7.632c-1.1307 1.12-2.5067 1.68-4.128 1.68s-2.9947-0.56266-4.12-1.688-1.688-2.504-1.688-4.136 0.56266-3.0107 1.688-4.136 2.4987-1.688 4.12-1.688 2.9973 0.56266 4.128 1.688 1.696 2.504 1.696 4.136-0.56533 3.0133-1.696 4.144zm-6.704-1.504c0.69334 0.68267 1.552 1.024 2.576 1.024s1.8827-0.344 2.576-1.032 1.04-1.5653 1.04-2.632-0.34666-1.9467-1.04-2.64-1.552-1.04-2.576-1.04-1.8827 0.34666-2.576 1.04-1.04 1.5733-1.04 2.64 0.34666 1.9467 1.04 2.64zm17.596 2.96l-2.256-3.888h-1.68v3.888h-2.208v-11.2h4.48c1.0347 0 1.9147 0.36266 2.64 1.088s1.088 1.6 1.088 2.624c0 0.69334-0.19733 1.336-0.592 1.928s-0.91733 1.0373-1.568 1.336l2.48 4.224h-2.384zm-3.936-9.136v3.312h2.272c0.416 0 0.77333-0.16266 1.072-0.488s0.448-0.71733 0.448-1.176-0.14933-0.848-0.448-1.168-0.656-0.48-1.072-0.48h-2.272zm11.324 7.024h4.72v2.112h-6.928v-11.2h6.848v2.112h-4.64v2.384h4.24v2.08h-4.24v2.512zm13.004 2.336c-1.6853 0-3.0773-0.55999-4.176-1.68s-1.648-2.5013-1.648-4.144c0-1.6533 0.54933-3.0373 1.648-4.152s2.4907-1.672 4.176-1.672c1.0133 0 1.9493 0.23733 2.808 0.712s1.528 1.1173 2.008 1.928l-1.904 1.104c-0.27734-0.50134-0.672-0.89333-1.184-1.176s-1.088-0.424-1.728-0.424c-1.088 0-1.9653 0.34133-2.632 1.024s-1 1.568-1 2.656c0 1.0773 0.33333 1.9573 1 2.64s1.544 1.024 2.632 1.024c0.64 0 1.2187-0.14133 1.736-0.424s0.90933-0.66933 1.176-1.16l1.904 1.104c-0.48 0.81067-1.1467 1.4533-2 1.928s-1.792 0.712-2.816 0.712zm14.828-0.224l-0.672-2.016h-4.464l-0.672 2.016h-2.384l3.92-11.2h2.736l3.936 11.2h-2.4zm-4.432-4.08h3.072l-1.536-4.576-1.536 4.576zm12.988 4.304c-1.1093 0-2.0427-0.248-2.8-0.744s-1.2907-1.1707-1.6-2.024l1.888-1.104c0.43734 1.1413 1.296 1.712 2.576 1.712 0.61867 0 1.072-0.112 1.36-0.336s0.432-0.50666 0.432-0.848c0-0.39467-0.176-0.70133-0.528-0.92s-0.98133-0.456-1.888-0.712c-0.50134-0.14933-0.92533-0.29867-1.272-0.448s-0.69333-0.34933-1.04-0.6-0.61067-0.568-0.792-0.952-0.272-0.832-0.272-1.344c0-1.0133 0.36-1.8213 1.08-2.424s1.5867-0.904 2.6-0.904c0.90667 0 1.704 0.22133 2.392 0.664s1.224 1.0587 1.608 1.848l-1.856 1.072c-0.448-0.96-1.1627-1.44-2.144-1.44-0.45867 0-0.81866 0.104-1.08 0.312s-0.392 0.47733-0.392 0.808c0 0.352 0.14666 0.63733 0.44 0.856s0.856 0.456 1.688 0.712c0.34134 0.10667 0.6 0.18933 0.776 0.248s0.416 0.14933 0.72 0.272 0.53867 0.23733 0.704 0.344 0.35467 0.25067 0.568 0.432 0.376 0.368 0.488 0.56 0.208 0.424 0.288 0.696 0.12 0.568 0.12 0.888c0 1.0347-0.376 1.856-1.128 2.464s-1.7307 0.912-2.936 0.912zm14.012-11.424v2.112h-3.024v9.088h-2.208v-9.088h-3.008v-2.112h8.24zm4.94 9.088h4.72v2.112h-6.928v-11.2h6.848v2.112h-4.64v2.384h4.24v2.08h-4.24v2.512z" fill="#F2F3F9"/>
<g transform="translate(0 177)">
<g fill="#464769">
<rect width="40" height="40" rx="14.4" fill-rule="nonzero"/>
</g>
<g transform="translate(9 9)">
<polygon points="19.502 13.228 21.859 10.93 19.481 8.612 20.363 5.4071 17.198 4.622 16.392 1.4622 13.226 2.3537 10.93 0 8.612 2.3779 5.4071 1.4961 4.6252 4.6607 1.4654 5.4668 2.3569 8.6314 0 10.93 2.3779 13.247 1.4961 16.449 4.6607 17.234 5.4668 20.395 8.6314 19.502 10.929 21.859 13.245 19.481 16.447 20.363 17.232 17.198 20.394 16.392" fill="#E6E6E6"/>
<circle cx="11.063" cy="10.749" r="7.6061" fill="#2D2E3D"/>
<circle cx="10.998" cy="10.683" r="6.5977" fill="#E6E6E6"/>
</g>
</g>
<g transform="translate(0 266)">
<rect width="40" height="40" rx="14.4" fill="#464769" fill-rule="nonzero"/>
<g transform="translate(10.667 11.556)" fill="#E6E6E6">
<path d="m7.6049 4.5037v-2.2748c0-0.49706-0.40294-0.9-0.9-0.9-0.24427 0-0.47804 0.099288-0.64766 0.27507l-5.4543 5.6526c-0.33646 0.34869-0.33646 0.90117 0 1.2499l5.4543 5.6526c0.34514 0.35769 0.9149 0.36787 1.2726 0.022725 0.17578-0.16961 0.27507-0.40339 0.27507-0.64766v-2.3874c5.4321 0 9.2346 1.8015 11.951 5.7422-1.0864-5.6296-4.3457-11.259-11.951-12.385z"/>
</g>
</g>
<path d="m676.93 148.98c0.27614 0 0.5 0.22386 0.5 0.5 0 0.27614-0.22386 0.5-0.5 0.5h-326.28c-4.0588 0-7.6692 2.5785-8.9861 6.4177l-11.639 33.934c-1.4555 4.2433-5.446 7.0932-9.932 7.0932h-70.626c-0.27614 0-0.5-0.22386-0.5-0.5 0-0.27614 0.22386-0.5 0.5-0.5h70.626c4.0588 0 7.6692-2.5785 8.9861-6.4177l11.639-33.934c1.4555-4.2433 5.446-7.0932 9.932-7.0932h326.28z" fill="#464769" fill-rule="nonzero"/>
<path transform="translate(430.71 58) scale(-1 1) translate(-430.71 -58)" d="m249 94.5c-0.27614 0-0.5-0.22386-0.5-0.5s0.22386-0.5 0.5-0.5h197.61c5.23 0 10.241-2.1009 13.907-5.8307l59.014-60.04c3.8542-3.9211 9.1219-6.1297 14.62-6.1297h78.265c0.27614 0 0.5 0.22386 0.5 0.5s-0.22386 0.5-0.5 0.5h-78.265c-5.23 0-10.241 2.1009-13.907 5.8307l-59.014 60.04c-3.8542 3.9211-9.1219 6.1297-14.62 6.1297h-197.61z" fill="#464769" fill-rule="nonzero"/>
<path transform="translate(462.64 110.91) scale(-1) translate(-462.64 -110.91)" d="m249.3 102c-0.27614 0-0.5-0.22386-0.5-0.5s0.22386-0.5 0.5-0.5h376.34c3.6749 0 7.0824 1.9213 8.9844 5.0657l5.5501 9.1759c1.7208 2.845 4.8038 4.5833 8.1287 4.5833h27.671c0.27614 0 0.5 0.22386 0.5 0.5s-0.22386 0.5-0.5 0.5h-27.671c-3.6749 0-7.0824-1.9213-8.9844-5.0657l-5.5501-9.1759c-1.7208-2.845-4.8038-4.5833-8.1287-4.5833h-376.34z" fill="#464769" fill-rule="nonzero"/>
<path transform="translate(462.71 233) scale(-1) translate(-462.71 -233)" d="m249 287.5c-0.27614 0-0.5-0.22386-0.5-0.5s0.22386-0.5 0.5-0.5h273.44c8.6907 0 16.333-5.7512 18.738-14.102l22.777-79.072c2.529-8.7794 10.563-14.826 19.699-14.826h92.769c0.27614 0 0.5 0.22386 0.5 0.5s-0.22386 0.5-0.5 0.5h-92.769c-8.6907 0-16.333 5.7512-18.738 14.102l-22.777 79.072c-2.529 8.7794-10.563 14.826-19.699 14.826h-273.44z" fill="#464769" fill-rule="nonzero"/>
</g>
</svg>
