<svg xmlns="http://www.w3.org/2000/svg" xmlns:xlink="http://www.w3.org/1999/xlink" viewBox="0 0 1440 712" width="1400" height="550"><rect width="1440" height="711.3" rx="5" ry="5" class="a"/><svg y="0%" x="0%"><circle cx="20" cy="20" r="6" fill="#ff5f58"/><circle cx="40" cy="20" r="6" fill="#ffbd2e"/><circle cx="60" cy="20" r="6" fill="#18c132"/></svg><svg height="651.3" viewBox="0 0 140 65.13" width="1400" x="15" xmlns="http://www.w3.org/2000/svg" xmlns:xlink="http://www.w3.org/1999/xlink" y="50"><style>@keyframes x{0%{transform:translateX(0)}3.1%{transform:translateX(-280px)}6.3%{transform:translateX(-700px)}17.9%{transform:translateX(-840px)}22.1%{transform:translateX(-980px)}30.7%{transform:translateX(-1120px)}30.8%{transform:translateX(-1400px)}35%{transform:translateX(-1540px)}35.8%{transform:translateX(-1820px)}35.9%{transform:translateX(-1960px)}36.2%{transform:translateX(-2100px)}44.1%{transform:translateX(-2240px)}44.2%{transform:translateX(-2380px)}46.9%{transform:translateX(-2520px)}47%{transform:translateX(-2660px)}49.1%{transform:translateX(-2940px)}53.8%{transform:translateX(-3080px)}53.9%{transform:translateX(-3220px)}60.8%{transform:translateX(-3360px)}60.9%{transform:translateX(-3500px)}62.6%{transform:translateX(-3640px)}62.7%{transform:translateX(-3780px)}71.3%{transform:translateX(-3920px)}75.1%{transform:translateX(-4340px)}75.3%{transform:translateX(-4480px)}87.1%{transform:translateX(-4900px)}88.1%{transform:translateX(-5180px)}90.9%{transform:translateX(-5740px)}to{transform:translateX(-5880px)}}.a{fill:#000}.h,.l{fill:#492ee1;font-weight:700}.l{fill:#fff}.n{fill:#f2f2f2}.o{fill:#25bc24}.r{fill:#5f00af}.s{fill:#e9ebeb}.t{fill:#a8a8a8}.u{fill:#626262}</style><g font-size="1.67" font-family="Monaco,Consolas,Menlo,'Bitstream Vera Sans Mono','Powerline Symbols',monospace"><defs><symbol id="1"><path fill="#b9c0cb" d="M0 0h1v2.171H0z"/><text y="1.67" font-weight="700">%</text></symbol><symbol id="2"><text y="1.67" class="h">┌─[</text><text x="3.006" y="1.67" fill="#25bc24" font-weight="700">peak</text><text x="7.014" y="1.67" class="h">][</text><text x="9.018" y="1.67" fill="#33bbc8" font-weight="700">stevepeak</text><text x="18.036" y="1.67" class="h">:</text><text x="19.038" y="1.67" fill="#cbcccd" font-weight="700">~/Documents/asyncy/cli</text><text x="41.082" y="1.67" class="h">]</text><text x="43.086" y="1.67" class="l">[master</text><text x="51.102" y="1.67" class="h">83bb5e6</text><text x="59.118" y="1.67" fill="#adad27">✱</text><text x="60.12" y="1.67" class="l">]</text></symbol><symbol id="3"><text y="1.67" class="h">└─▪</text></symbol><symbol id="4"><text y="1.67" class="h">└─▪</text><text x="3.006" y="1.67" class="n">TOXENV=true</text><text x="15.03" y="1.67" class="o">python</text><text x="22.044" y="1.67" class="n">-m</text><text x="25.05" y="1.67" class="n">cli.main</text><text x="34.068" y="1.67" class="n">run</text></symbol><symbol id="5"><text y="1.67" fill="#d338d3">Λsyncy</text><text x="7.014" y="1.67" class="n">0.1.0</text><text x="13.026" y="1.67" class="n">-</text><text x="15.03" y="1.67" fill="#33bbc8">Storyscript</text><text x="27.054" y="1.67" class="n">0.5.2</text></symbol><symbol id="6"><text y="1.67" class="n">&gt;&gt;&gt;</text></symbol><symbol id="7"><path class="r" d="M0 0h10v2.171H0z"/><text y="1.67" class="s">Shift+Tab</text><path class="r" d="M10.02 0h13v2.171h-13z"/><text x="10.02" y="1.67" class="t">to end scope</text><path class="r" d="M23.046 0h6v2.171h-6z"/><text x="23.046" y="1.67" class="s">/data</text><path class="r" d="M29.058 0h20v2.171h-20z"/><text x="29.058" y="1.67" class="t">will show variables</text><path class="r" d="M49.098 0h18v2.171h-18z"/><text x="49.098" y="1.67" class="s">/save /help /exit</text><path class="r" d="M67.134 0h73v2.171h-73z"/><text x="67.134" y="1.67" class="r"></text></symbol><symbol id="8"><text y="1.67" class="n">&gt;&gt;&gt;</text><text x="4.008" y="1.67" class="n">x</text></symbol><symbol id="9"><text y="1.67" class="n">&gt;&gt;&gt;</text><text x="4.008" y="1.67" class="n">x</text><text x="6.012" y="1.67" class="u">=</text><text x="8.016" y="1.67" class="u">1</text></symbol><symbol id="10"><text y="1.67" class="n">&gt;&gt;&gt;</text><text x="4.008" y="1.67" class="n">x</text><text x="6.012" y="1.67" class="u">=</text></symbol><symbol id="11"><text y="1.67" class="n">&gt;&gt;&gt;</text><text x="4.008" y="1.67" class="n">x</text><text x="6.012" y="1.67" class="u">=</text><text x="8.016" y="1.67" class="u">10</text></symbol><symbol id="12"><text y="1.67" class="n">👋</text><text x="4.008" y="1.67" class="n">Goodbye.</text></symbol><symbol id="a"><path fill="transparent" d="M0 0h140v31H0z"/></symbol><symbol id="b"><path fill="#4d4d4d" d="M0 0h1.102v2.171H0z"/></symbol></defs><path class="a" d="M0 0h140v65.13H0z"/><g style="animation-duration:6.150095s;animation-iteration-count:infinite;animation-name:x;animation-timing-function:steps(1,end)"><svg width="6020"><svg><use xlink:href="#a"/><use xlink:href="#b" x="-.004"/></svg><svg x="140"><use xlink:href="#a"/><use xlink:href="#b" x="-.004" y="2.146"/><use xlink:href="#1"/></svg><svg x="280"><use xlink:href="#a"/><use xlink:href="#b" x="-.004" y="2.146"/><use xlink:href="#1"/></svg><svg x="420"><use xlink:href="#a"/><use xlink:href="#b" x="2.996" y="4.317"/><use xlink:href="#1"/><use xlink:href="#2" y="2.171"/><use xlink:href="#3" y="4.342"/></svg><svg x="560"><use xlink:href="#a"/><use xlink:href="#b" x="2.996" y="4.317"/><use xlink:href="#1"/><use xlink:href="#2" y="2.171"/><use xlink:href="#3" y="4.342"/></svg><svg x="700"><use xlink:href="#a"/><use xlink:href="#b" x="2.996" y="4.317"/><use xlink:href="#1"/><use xlink:href="#2" y="2.171"/><use xlink:href="#3" y="4.342"/></svg><svg x="840"><use xlink:href="#a"/><use xlink:href="#b" x="15.996" y="4.317"/><use xlink:href="#1"/><use xlink:href="#2" y="2.171"/><text y="6.012" class="h">└─▪</text><text x="3.006" y="6.012" class="o">asciinema</text><text x="13.026" y="6.012" class="n">rec</text></svg><svg x="980"><use xlink:href="#a"/><use xlink:href="#b" x="36.996" y="4.317"/><use xlink:href="#1"/><use xlink:href="#2" y="2.171"/><use xlink:href="#4" y="4.342"/></svg><svg x="1120"><use xlink:href="#a"/><use xlink:href="#b" x="36.996" y="4.317"/><use xlink:href="#1"/><use xlink:href="#2" y="2.171"/><use xlink:href="#4" y="4.342"/></svg><svg x="1260"><use xlink:href="#a"/><use xlink:href="#b" x="-.004" y="6.488"/><use xlink:href="#1"/><use xlink:href="#2" y="2.171"/><use xlink:href="#4" y="4.342"/></svg><svg x="1400"><use xlink:href="#a"/><use xlink:href="#b" x="-.004" y="6.488"/><use xlink:href="#1"/><use xlink:href="#2" y="2.171"/><use xlink:href="#4" y="4.342"/></svg><svg x="1540"><use xlink:href="#a"/><use xlink:href="#b" x="-.004" y="8.659"/><use xlink:href="#1"/><use xlink:href="#2" y="2.171"/><use xlink:href="#4" y="4.342"/><use xlink:href="#5" y="6.513"/></svg><svg x="1680"><use xlink:href="#a"/><use xlink:href="#b" x="-.004" y="8.659"/><use xlink:href="#1"/><use xlink:href="#2" y="2.171"/><use xlink:href="#4" y="4.342"/><use xlink:href="#5" y="6.513"/></svg><svg x="1820"><use xlink:href="#a"/><use xlink:href="#b" x="-.004" y="8.659"/><use xlink:href="#1"/><use xlink:href="#2" y="2.171"/><use xlink:href="#4" y="4.342"/><use xlink:href="#5" y="6.513"/></svg><svg x="1960"><use xlink:href="#a"/><use xlink:href="#b" x="3.996" y="8.659"/><use xlink:href="#1"/><use xlink:href="#2" y="2.171"/><use xlink:href="#4" y="4.342"/><use xlink:href="#5" y="6.513"/><use xlink:href="#6" y="8.684"/></svg><svg x="2100"><use xlink:href="#a"/><use xlink:href="#b" x="3.996" y="8.659"/><use xlink:href="#1"/><use xlink:href="#2" y="2.171"/><use xlink:href="#4" y="4.342"/><use xlink:href="#5" y="6.513"/><use xlink:href="#6" y="8.684"/><use xlink:href="#7" y="34.736"/></svg><svg x="2240"><use xlink:href="#a"/><use xlink:href="#b" x="4.996" y="8.659"/><use xlink:href="#1"/><use xlink:href="#2" y="2.171"/><use xlink:href="#4" y="4.342"/><use xlink:href="#5" y="6.513"/><use xlink:href="#8" y="8.684"/><use xlink:href="#7" y="34.736"/></svg><svg x="2380"><use xlink:href="#a"/><use xlink:href="#b" x="4.996" y="8.659"/><use xlink:href="#1"/><use xlink:href="#2" y="2.171"/><use xlink:href="#4" y="4.342"/><use xlink:href="#5" y="6.513"/><use xlink:href="#9" y="8.684"/><use xlink:href="#7" y="34.736"/></svg><svg x="2520"><use xlink:href="#a"/><use xlink:href="#b" x="5.996" y="8.659"/><use xlink:href="#1"/><use xlink:href="#2" y="2.171"/><use xlink:href="#4" y="4.342"/><use xlink:href="#5" y="6.513"/><use xlink:href="#8" y="8.684"/><use xlink:href="#7" y="34.736"/></svg><svg x="2660"><use xlink:href="#a"/><use xlink:href="#b" x="5.996" y="8.659"/><use xlink:href="#1"/><use xlink:href="#2" y="2.171"/><use xlink:href="#4" y="4.342"/><use xlink:href="#5" y="6.513"/><use xlink:href="#9" y="8.684"/><use xlink:href="#7" y="34.736"/></svg><svg x="2800"><use xlink:href="#a"/><use xlink:href="#b" x="6.996" y="8.659"/><use xlink:href="#1"/><use xlink:href="#2" y="2.171"/><use xlink:href="#4" y="4.342"/><use xlink:href="#5" y="6.513"/><use xlink:href="#10" y="8.684"/><use xlink:href="#7" y="34.736"/></svg><svg x="2940"><use xlink:href="#a"/><use xlink:href="#b" x="6.996" y="8.659"/><use xlink:href="#1"/><use xlink:href="#2" y="2.171"/><use xlink:href="#4" y="4.342"/><use xlink:href="#5" y="6.513"/><use xlink:href="#9" y="8.684"/><use xlink:href="#7" y="34.736"/></svg><svg x="3080"><use xlink:href="#a"/><use xlink:href="#b" x="7.996" y="8.659"/><use xlink:href="#1"/><use xlink:href="#2" y="2.171"/><use xlink:href="#4" y="4.342"/><use xlink:href="#5" y="6.513"/><use xlink:href="#10" y="8.684"/><use xlink:href="#7" y="34.736"/></svg><svg x="3220"><use xlink:href="#a"/><use xlink:href="#b" x="7.996" y="8.659"/><use xlink:href="#1"/><use xlink:href="#2" y="2.171"/><use xlink:href="#4" y="4.342"/><use xlink:href="#5" y="6.513"/><use xlink:href="#9" y="8.684"/><use xlink:href="#7" y="34.736"/></svg><svg x="3360"><use xlink:href="#a"/><use xlink:href="#b" x="8.996" y="8.659"/><use xlink:href="#1"/><use xlink:href="#2" y="2.171"/><use xlink:href="#4" y="4.342"/><use xlink:href="#5" y="6.513"/><use xlink:href="#9" y="8.684"/><use xlink:href="#7" y="34.736"/></svg><svg x="3500"><use xlink:href="#a"/><use xlink:href="#b" x="8.996" y="8.659"/><use xlink:href="#1"/><use xlink:href="#2" y="2.171"/><use xlink:href="#4" y="4.342"/><use xlink:href="#5" y="6.513"/><use xlink:href="#9" y="8.684"/><use xlink:href="#7" y="34.736"/></svg><svg x="3640"><use xlink:href="#a"/><use xlink:href="#b" x="9.996" y="8.659"/><use xlink:href="#1"/><use xlink:href="#2" y="2.171"/><use xlink:href="#4" y="4.342"/><use xlink:href="#5" y="6.513"/><use xlink:href="#11" y="8.684"/><use xlink:href="#7" y="34.736"/></svg><svg x="3780"><use xlink:href="#a"/><use xlink:href="#b" x="9.996" y="8.659"/><use xlink:href="#1"/><use xlink:href="#2" y="2.171"/><use xlink:href="#4" y="4.342"/><use xlink:href="#5" y="6.513"/><use xlink:href="#11" y="8.684"/><use xlink:href="#7" y="34.736"/></svg><svg x="3920"><use xlink:href="#a"/><use xlink:href="#b" x="-.004" y="10.83"/><use xlink:href="#1"/><use xlink:href="#2" y="2.171"/><use xlink:href="#4" y="4.342"/><use xlink:href="#5" y="6.513"/><use xlink:href="#11" y="8.684"/></svg><svg x="4060"><use xlink:href="#a"/><use xlink:href="#b" x="-.004" y="10.83"/><use xlink:href="#1"/><use xlink:href="#2" y="2.171"/><use xlink:href="#4" y="4.342"/><use xlink:href="#5" y="6.513"/><use xlink:href="#11" y="8.684"/></svg><svg x="4200"><use xlink:href="#a"/><use xlink:href="#b" x="-.004" y="10.83"/><use xlink:href="#1"/><use xlink:href="#2" y="2.171"/><use xlink:href="#4" y="4.342"/><use xlink:href="#5" y="6.513"/><use xlink:href="#11" y="8.684"/></svg><svg x="4340"><use xlink:href="#a"/><use xlink:href="#b" x="3.996" y="10.83"/><use xlink:href="#1"/><use xlink:href="#2" y="2.171"/><use xlink:href="#4" y="4.342"/><use xlink:href="#5" y="6.513"/><use xlink:href="#11" y="8.684"/><use xlink:href="#6" y="10.855"/></svg><svg x="4480"><use xlink:href="#a"/><use xlink:href="#b" x="3.996" y="10.83"/><use xlink:href="#1"/><use xlink:href="#2" y="2.171"/><use xlink:href="#4" y="4.342"/><use xlink:href="#5" y="6.513"/><use xlink:href="#11" y="8.684"/><use xlink:href="#6" y="10.855"/><use xlink:href="#7" y="34.736"/></svg><svg x="4620"><use xlink:href="#a"/><use xlink:href="#b" x="-.004" y="13.001"/><use xlink:href="#1"/><use xlink:href="#2" y="2.171"/><use xlink:href="#4" y="4.342"/><use xlink:href="#5" y="6.513"/><use xlink:href="#11" y="8.684"/><use xlink:href="#6" y="10.855"/></svg><svg x="4760"><use xlink:href="#a"/><use xlink:href="#b" x="-.004" y="13.001"/><use xlink:href="#1"/><use xlink:href="#2" y="2.171"/><use xlink:href="#4" y="4.342"/><use xlink:href="#5" y="6.513"/><use xlink:href="#11" y="8.684"/><use xlink:href="#6" y="10.855"/></svg><svg x="4900"><use xlink:href="#a"/><use xlink:href="#b" x="-.004" y="15.172"/><use xlink:href="#1"/><use xlink:href="#2" y="2.171"/><use xlink:href="#4" y="4.342"/><use xlink:href="#5" y="6.513"/><use xlink:href="#11" y="8.684"/><use xlink:href="#6" y="10.855"/><use xlink:href="#12" y="13.026"/></svg><svg x="5040"><use xlink:href="#a"/><use xlink:href="#b" x="-.004" y="17.343"/><use xlink:href="#1"/><use xlink:href="#2" y="2.171"/><use xlink:href="#4" y="4.342"/><use xlink:href="#5" y="6.513"/><use xlink:href="#11" y="8.684"/><use xlink:href="#6" y="10.855"/><use xlink:href="#12" y="13.026"/><use xlink:href="#1" y="15.197"/></svg><svg x="5180"><use xlink:href="#a"/><use xlink:href="#b" x="-.004" y="17.343"/><use xlink:href="#1"/><use xlink:href="#2" y="2.171"/><use xlink:href="#4" y="4.342"/><use xlink:href="#5" y="6.513"/><use xlink:href="#11" y="8.684"/><use xlink:href="#6" y="10.855"/><use xlink:href="#12" y="13.026"/><use xlink:href="#1" y="15.197"/></svg><svg x="5320"><use xlink:href="#a"/><use xlink:href="#b" x="2.996" y="19.514"/><use xlink:href="#1"/><use xlink:href="#2" y="2.171"/><use xlink:href="#4" y="4.342"/><use xlink:href="#5" y="6.513"/><use xlink:href="#11" y="8.684"/><use xlink:href="#6" y="10.855"/><use xlink:href="#12" y="13.026"/><use xlink:href="#1" y="15.197"/><use xlink:href="#2" y="17.368"/><use xlink:href="#3" y="19.539"/></svg><svg x="5460"><use xlink:href="#a"/><use xlink:href="#b" x="2.996" y="19.514"/><use xlink:href="#1"/><use xlink:href="#2" y="2.171"/><use xlink:href="#4" y="4.342"/><use xlink:href="#5" y="6.513"/><use xlink:href="#11" y="8.684"/><use xlink:href="#6" y="10.855"/><use xlink:href="#12" y="13.026"/><use xlink:href="#1" y="15.197"/><use xlink:href="#2" y="17.368"/><use xlink:href="#3" y="19.539"/></svg><svg x="5600"><use xlink:href="#a"/><use xlink:href="#b" x="2.996" y="19.514"/><use xlink:href="#1"/><use xlink:href="#2" y="2.171"/><use xlink:href="#4" y="4.342"/><use xlink:href="#5" y="6.513"/><use xlink:href="#11" y="8.684"/><use xlink:href="#6" y="10.855"/><use xlink:href="#12" y="13.026"/><use xlink:href="#1" y="15.197"/><use xlink:href="#2" y="17.368"/><use xlink:href="#3" y="19.539"/></svg><svg x="5740"><use xlink:href="#a"/><use xlink:href="#b" x="2.996" y="19.514"/><use xlink:href="#1"/><use xlink:href="#2" y="2.171"/><use xlink:href="#4" y="4.342"/><use xlink:href="#5" y="6.513"/><use xlink:href="#11" y="8.684"/><use xlink:href="#6" y="10.855"/><use xlink:href="#12" y="13.026"/><use xlink:href="#1" y="15.197"/><use xlink:href="#2" y="17.368"/><use xlink:href="#3" y="19.539"/></svg><svg x="5880"><use xlink:href="#a"/><use xlink:href="#b" x="-.004" y="21.685"/><use xlink:href="#1"/><use xlink:href="#2" y="2.171"/><use xlink:href="#4" y="4.342"/><use xlink:href="#5" y="6.513"/><use xlink:href="#11" y="8.684"/><use xlink:href="#6" y="10.855"/><use xlink:href="#12" y="13.026"/><use xlink:href="#1" y="15.197"/><use xlink:href="#2" y="17.368"/><use xlink:href="#3" y="19.539"/></svg></svg></g></g></svg></svg>
