<?xml version="1.0" encoding="UTF-8"?>
<svg width="67px" height="69px" viewBox="0 0 67 69" version="1.1" xmlns="http://www.w3.org/2000/svg" xmlns:xlink="http://www.w3.org/1999/xlink">
    <!-- Generator: Sketch 48.2 (47327) - http://www.bohemiancoding.com/sketch -->
    <title>box</title>
    <desc>Created with Sketch.</desc>
    <defs></defs>
    <g id="Asyncy_Landing-Page_Final" stroke="none" stroke-width="1" fill="none" fill-rule="evenodd" transform="translate(-1075.000000, -6876.000000)">
        <g id="ECOSYSTEM" transform="translate(378.000000, 6563.000000)" fill-rule="nonzero">
            <g id="CARDS" transform="translate(0.000000, 238.000000)">
                <g id="CARD" transform="translate(593.000000, 0.000000)">
                    <g id="box" transform="translate(104.500000, 75.000000)">
                        <path d="M60.4109589,20.0256186 L5.75342466,20.0256186 L5.75342466,66.0804295 C5.75342466,67.6707597 7.04075342,68.9588552 8.63013699,68.9588552 L57.5342466,68.9588552 C59.1236301,68.9588552 60.4109589,67.6707597 60.4109589,66.0804295 L60.4109589,20.0256186 Z" id="Shape" fill="#FFFFFF"></path>
                        <path d="M64.7260274,0 L1.43835616,0 C0.644383562,0 0,0.644767352 0,1.43921284 L0,12.9529155 C0,13.747361 0.644383562,14.3921284 1.43835616,14.3921284 L64.7260274,14.3921284 C65.52,14.3921284 66.1643836,13.747361 66.1643836,12.9529155 L66.1643836,1.43921284 C66.1643836,0.644767352 65.52,0 64.7260274,0 Z" id="Shape" fill="#FFFFFF"></path>
                        <path d="M24.4520548,32.9785342 L41.7123288,32.9785342 C42.5063014,32.9785342 43.1506849,33.6233015 43.1506849,34.417747 L43.1506849,43.0530241 C43.1506849,43.8474695 42.5063014,44.4922369 41.7123288,44.4922369 L24.4520548,44.4922369 C23.6580822,44.4922369 23.0136986,43.8474695 23.0136986,43.0530241 L23.0136986,34.417747 C23.0136986,33.6233015 23.6580822,32.9785342 24.4520548,32.9785342 Z" id="Shape" fill="#353547"></path>
                    </g>
                </g>
            </g>
        </g>
    </g>
</svg>