<svg id="horizontal_scaling" data-name="horizontal scaling" xmlns="http://www.w3.org/2000/svg" width="112.97" height="97" viewBox="0 0 112.97 97">
  <metadata><?xpacket begin="﻿" id="W5M0MpCehiHzreSzNTczkc9d"?>
<x:xmpmeta xmlns:x="adobe:ns:meta/" x:xmptk="Adobe XMP Core 5.6-c142 79.160924, 2017/07/13-01:06:39        ">
   <rdf:RDF xmlns:rdf="http://www.w3.org/1999/02/22-rdf-syntax-ns#">
      <rdf:Description rdf:about=""/>
   </rdf:RDF>
</x:xmpmeta>
                                                                                                    
                                                                                                    
                                                                                                    
                                                                                                    
                                                                                                    
                                                                                                    
                                                                                                    
                                                                                                    
                                                                                                    
                                                                                                    
                                                                                                    
                                                                                                    
                                                                                                    
                                                                                                    
                                                                                                    
                                                                                                    
                                                                                                    
                                                                                                    
                                                                                                    
                                                                                                    
                           
<?xpacket end="w"?></metadata>
<defs>
    <style>
      .cls-1 {
        fill: #ff7900;
        stroke: #fff;
        stroke-linecap: round;
        stroke-linejoin: round;
        stroke-width: 4px;
      }

      .cls-1, .cls-2 {
        fill-rule: evenodd;
      }

      .cls-2 {
        fill: #30323d;
        stroke: #30323d;
        stroke-width: 1px;
      }
    </style>
  </defs>
  <path id="Rectangle_880_copy_4" data-name="Rectangle 880 copy 4" class="cls-1" d="M2710.41,5580.13a2.885,2.885,0,0,0,0-4.07l-23.52-23.63,10.35-10.4a2.843,2.843,0,0,1,4.05,0l33.88,34.03a2.885,2.885,0,0,1,0,4.07l-33.88,34.03a2.861,2.861,0,0,1-4.05,0l-10.35-10.4Z" transform="translate(-2625.03 -5520)"/>
  <path id="Rectangle_880_copy_5" data-name="Rectangle 880 copy 5" class="cls-1" d="M2652.59,5556.86a2.885,2.885,0,0,0,0,4.07l23.52,23.62-10.35,10.4a2.861,2.861,0,0,1-4.05,0l-33.88-34.02a2.885,2.885,0,0,1,0-4.07l33.88-34.02a2.861,2.861,0,0,1,4.05,0l10.35,10.4Z" transform="translate(-2625.03 -5520)"/>
  <path id="_0" data-name="0" class="cls-2" d="M2689.94,5569.12a13.113,13.113,0,0,0-2.18-7.92,7.7,7.7,0,0,0-12.15,0,15.538,15.538,0,0,0,0,15.84,7.7,7.7,0,0,0,12.15,0A13.113,13.113,0,0,0,2689.94,5569.12Zm-11.81,5.58a13.175,13.175,0,0,1,0-11.16,4.234,4.234,0,0,1,7.13,0,13.272,13.272,0,0,1,0,11.16A4.234,4.234,0,0,1,2678.13,5574.7Z" transform="translate(-2625.03 -5520)"/>
</svg>
