<svg id="zero_to_hero" data-name="zero to hero" xmlns="http://www.w3.org/2000/svg" width="99" height="100.87" viewBox="0 0 99 100.87">
  <metadata><?xpacket begin="﻿" id="W5M0MpCehiHzreSzNTczkc9d"?>
<x:xmpmeta xmlns:x="adobe:ns:meta/" x:xmptk="Adobe XMP Core 5.6-c142 79.160924, 2017/07/13-01:06:39        ">
   <rdf:RDF xmlns:rdf="http://www.w3.org/1999/02/22-rdf-syntax-ns#">
      <rdf:Description rdf:about=""/>
   </rdf:RDF>
</x:xmpmeta>
                                                                                                    
                                                                                                    
                                                                                                    
                                                                                                    
                                                                                                    
                                                                                                    
                                                                                                    
                                                                                                    
                                                                                                    
                                                                                                    
                                                                                                    
                                                                                                    
                                                                                                    
                                                                                                    
                                                                                                    
                                                                                                    
                                                                                                    
                                                                                                    
                                                                                                    
                                                                                                    
                           
<?xpacket end="w"?></metadata>
<defs>
    <style>
      .cls-1 {
        fill: #a100ff;
      }

      .cls-1, .cls-2 {
        fill-rule: evenodd;
      }

      .cls-2 {
        fill: #30323d;
      }
    </style>
  </defs>
  <path id="Forma_1_copy" data-name="Forma 1 copy" class="cls-1" d="M3466.38,5539.45a42.4,42.4,0,0,1,37.67-10.55l0.25,0.05-24.11,24.57Zm15.17,39.42a0.647,0.647,0,0,1,.08-0.09,4.178,4.178,0,0,1,5.98,0h0.01a4.384,4.384,0,0,1,0,6.09c-0.03.03-.07,0.06-0.11,0.1-2.45,2.4-6.51,2.9-8.85,2.92C3478.68,5585.57,3479.16,5581.4,3481.55,5578.87Zm6.06,15h0c-0.07.07-.14,0.15-0.23,0.23-3.99,3.91-9.63,5.41-13.66,5.99a39.176,39.176,0,0,1-7.39.36,39.715,39.715,0,0,1,.36-7.59c0.57-4.08,2.06-9.79,5.9-13.86,0.07-.07.14-0.15,0.22-0.22a10.3,10.3,0,0,1,6.13-3.05l-0.15.15c-0.06.05-.11,0.11-0.16,0.16a15.838,15.838,0,0,0-3.81,8.98,24.24,24.24,0,0,0-.17,3.52c0.04,1.59.14,2.18,0.7,2.75s1.19,0.65,2.67.69c0.16,0,.34.01,0.53,0.01a22.523,22.523,0,0,0,2.92-.19,15.181,15.181,0,0,0,8.82-3.86c0.06-.05.11-0.11,0.17-0.16v-0.01a1.848,1.848,0,0,0,.14-0.14A10.731,10.731,0,0,1,3487.61,5593.87Zm13.55-7.09-10.7-10.9h0l-10.7-10.91,2.99-3.04,10.66,10.87c0.01,0,.01.01,0.02,0.01l10.72,10.93Zm7.26-4.49-25.38-25.87,5.53-5.64,9.51,9.7a2.007,2.007,0,0,0,1.43.6,1.985,1.985,0,0,0,1.42-.6,2.09,2.09,0,0,0,0-2.9l-9.52-9.7,17.89-18.23a58.251,58.251,0,0,1,43.69-17.51,61.11,61.11,0,0,1-3.57,22.8l-12.73-12.97a1.992,1.992,0,0,0-2.85,0,2.071,2.071,0,0,0,0,2.9l13.93,14.19a60.069,60.069,0,0,1-11.97,17.6l-26.26,26.77Zm17.77,18.11-13.81-14.07,24.11-24.57,0.05,0.25A44.358,44.358,0,0,1,3526.19,5600.4Zm-58.52-31.22a1.992,1.992,0,0,0-2.85,0l-10.23,10.43a2.071,2.071,0,0,0,0,2.9,1.98,1.98,0,0,0,2.84,0l10.24-10.43A2.09,2.09,0,0,0,3467.67,5569.18Zm25.74,33.58a1.98,1.98,0,0,0-2.84,0l-6.62,6.74a2.09,2.09,0,0,0,0,2.9,1.985,1.985,0,0,0,1.42.6,2.007,2.007,0,0,0,1.43-.6l6.61-6.74A2.071,2.071,0,0,0,3493.41,5602.76Zm5.63-5.74a1.98,1.98,0,0,0-2.84,0,2.077,2.077,0,0,0,0,2.9,1.98,1.98,0,0,0,2.84,0A2.077,2.077,0,0,0,3499.04,5597.02Zm7.31-33.92a1.98,1.98,0,0,0-2.84,0,2.094,2.094,0,0,0-.59,1.45,2.059,2.059,0,0,0,.59,1.45,1.958,1.958,0,0,0,2.84,0,2.059,2.059,0,0,0,.59-1.45A2.094,2.094,0,0,0,3506.35,5563.1Z" transform="translate(-3454.03 -5512.13)"/>
  <path id="Forma_1_copy_2" data-name="Forma 1 copy 2" class="cls-2" d="M3529.55,5537.21a14.087,14.087,0,1,0,4.1,9.94A13.9,13.9,0,0,0,3529.55,5537.21Zm-2.89,16.97a9.91,9.91,0,0,1-16.92-7.03A9.91,9.91,0,1,1,3526.66,5554.18Z" transform="translate(-3454.03 -5512.13)"/>
</svg>
