<svg id="smarter_libraries" data-name="smarter libraries" xmlns="http://www.w3.org/2000/svg" width="121" height="91.81" viewBox="0 0 121 91.81">
  <metadata><?xpacket begin="﻿" id="W5M0MpCehiHzreSzNTczkc9d"?>
<x:xmpmeta xmlns:x="adobe:ns:meta/" x:xmptk="Adobe XMP Core 5.6-c142 79.160924, 2017/07/13-01:06:39        ">
   <rdf:RDF xmlns:rdf="http://www.w3.org/1999/02/22-rdf-syntax-ns#">
      <rdf:Description rdf:about=""/>
   </rdf:RDF>
</x:xmpmeta>
                                                                                                    
                                                                                                    
                                                                                                    
                                                                                                    
                                                                                                    
                                                                                                    
                                                                                                    
                                                                                                    
                                                                                                    
                                                                                                    
                                                                                                    
                                                                                                    
                                                                                                    
                                                                                                    
                                                                                                    
                                                                                                    
                                                                                                    
                                                                                                    
                                                                                                    
                                                                                                    
                           
<?xpacket end="w"?></metadata>
<defs>
    <style>
      .cls-1 {
        fill: #ffce00;
        stroke: #ffce00;
        stroke-linecap: round;
        stroke-linejoin: round;
        stroke-width: 1px;
      }

      .cls-1, .cls-2 {
        fill-rule: evenodd;
      }

      .cls-2 {
        fill: #30323d;
        stroke: #30323d;
        stroke-width: 2px;
      }
    </style>
  </defs>
  <path class="cls-1" d="M3455,5861.82a10.014,10.014,0,0,1-8.59-4.95,5.048,5.048,0,0,1-.49-4l14.31-48.74a10.073,10.073,0,0,1,9.77-7.9h85a10,10,0,0,1,9.49,13.15l-14.73,44.65a10.123,10.123,0,0,1-9.76,7.79h-85Zm-7.86-38.48a2.186,2.186,0,0,0,.36.03,2.511,2.511,0,0,0,2.4-1.8l5.47-18.63c0.01-.04.02-0.07,0.03-0.11a15.135,15.135,0,0,1,14.6-11.65h77.04a2.5,2.5,0,0,0,2.04-1.06,2.564,2.564,0,0,0,.32-2.31,10.023,10.023,0,0,0-9.4-6.72h-46.47l-9.26-9.35a2.515,2.515,0,0,0-1.77-.74H3455a10.055,10.055,0,0,0-10,10.09v39.76A2.51,2.51,0,0,0,3447.14,5823.34Z" transform="translate(-3444.5 -5770.5)"/>
  <path id="Forma_1" data-name="Forma 1" class="cls-2" d="M3507,5812.67a14.144,14.144,0,0,0-5.04,27.41v7.59a0.837,0.837,0,0,0,.84.83h0.84v1.67a0.837,0.837,0,0,0,.84.83h5.04a0.837,0.837,0,0,0,.84-0.83v-1.67h0.84a0.837,0.837,0,0,0,.84-0.83v-7.59A14.144,14.144,0,0,0,3507,5812.67Zm2.52,34.16a0.845,0.845,0,0,0-.84.84v1.66h-3.36v-1.66a0.845,0.845,0,0,0-.84-0.84h-0.84v-4.16h6.72v4.16h-0.84Zm1.42-8.13a0.825,0.825,0,0,0-.58.79V5841h-6.72v-1.51a0.825,0.825,0,0,0-.58-0.79A12.6,12.6,0,1,1,3510.94,5838.7ZM3507,5809a0.837,0.837,0,0,0,.84-0.83v-3.34a0.84,0.84,0,0,0-1.68,0v3.34A0.837,0.837,0,0,0,3507,5809Zm22.16,17h-3.36a0.837,0.837,0,0,0-.84.83,0.845,0.845,0,0,0,.84.84h3.36a0.845,0.845,0,0,0,.84-0.84A0.837,0.837,0,0,0,3529.16,5826Zm-40.96,0h-3.36a0.837,0.837,0,0,0-.84.83,0.845,0.845,0,0,0,.84.84h3.36a0.845,0.845,0,0,0,.84-0.84A0.837,0.837,0,0,0,3488.2,5826Zm33.46-14.9-2.37,2.36a0.827,0.827,0,0,0,0,1.18,0.841,0.841,0,0,0,.59.24,0.824,0.824,0,0,0,.59-0.24l2.38-2.36a0.827,0.827,0,0,0,0-1.18A0.858,0.858,0,0,0,3521.66,5811.1Zm-28.13,27.93-2.38,2.36a0.835,0.835,0,0,0,.59,1.42,0.832,0.832,0,0,0,.6-0.25l2.37-2.35A0.834,0.834,0,0,0,3493.53,5839.03Zm26.94,0a0.834,0.834,0,0,0-1.18,1.18l2.37,2.35a0.832,0.832,0,0,0,.6.25,0.835,0.835,0,0,0,.59-1.42Zm-26.94-24.39a0.824,0.824,0,0,0,.59.24,0.841,0.841,0,0,0,.59-0.24,0.827,0.827,0,0,0,0-1.18l-2.37-2.36a0.858,0.858,0,0,0-1.19,0,0.827,0.827,0,0,0,0,1.18Zm14.47,3.19a10.053,10.053,0,0,0-10.08,10,0.84,0.84,0,1,0,1.68,0,8.378,8.378,0,0,1,8.4-8.33,0.837,0.837,0,0,0,.84-0.83A0.845,0.845,0,0,0,3508,5817.83Z" transform="translate(-3444.5 -5770.5)"/>
</svg>
