<svg id="ab_testing" data-name="ab testing" xmlns="http://www.w3.org/2000/svg" width="105" height="114" viewBox="0 0 105 114">
  <metadata><?xpacket begin="﻿" id="W5M0MpCehiHzreSzNTczkc9d"?>
<x:xmpmeta xmlns:x="adobe:ns:meta/" x:xmptk="Adobe XMP Core 5.6-c142 79.160924, 2017/07/13-01:06:39        ">
   <rdf:RDF xmlns:rdf="http://www.w3.org/1999/02/22-rdf-syntax-ns#">
      <rdf:Description rdf:about=""/>
   </rdf:RDF>
</x:xmpmeta>
                                                                                                    
                                                                                                    
                                                                                                    
                                                                                                    
                                                                                                    
                                                                                                    
                                                                                                    
                                                                                                    
                                                                                                    
                                                                                                    
                                                                                                    
                                                                                                    
                                                                                                    
                                                                                                    
                                                                                                    
                                                                                                    
                                                                                                    
                                                                                                    
                                                                                                    
                                                                                                    
                           
<?xpacket end="w"?></metadata>
<defs>
    <style>
      .cls-1 {
        fill: #ff107d;
        stroke: #fff;
        stroke-width: 4px;
      }

      .cls-1, .cls-2 {
        fill-rule: evenodd;
      }

      .cls-2 {
        fill: #30323d;
      }
    </style>
  </defs>
  <path id="Rectangle_879_copy" data-name="Rectangle 879 copy" class="cls-1" d="M2688,6013h47a5,5,0,0,1,5,5v100a5,5,0,0,1-5,5h-47a5,5,0,0,1-5-5V6018A5,5,0,0,1,2688,6013Z" transform="translate(-2637 -6011)"/>
  <path class="cls-1" d="M2644,6049h47a5,5,0,0,1,5,5v64a5,5,0,0,1-5,5h-47a5,5,0,0,1-5-5v-64A5,5,0,0,1,2644,6049Z" transform="translate(-2637 -6011)"/>
  <path id="A" class="cls-2" d="M2687.68,6079.39l-7.59-21h-4.14l-7.62,21h3.75l1.47-4.23h8.93l1.48,4.23h3.72Zm-9.66-16.95,3.32,9.48h-6.65Z" transform="translate(-2637 -6011)"/>
  <path id="B" class="cls-2" d="M2727.77,6029.21a5.462,5.462,0,0,0-1.79-4.16,6.146,6.146,0,0,0-4.36-1.66h-8.34v21h9a6.305,6.305,0,0,0,4.47-1.71,5.625,5.625,0,0,0,1.83-4.29,5.312,5.312,0,0,0-2.94-4.89,5.027,5.027,0,0,0,2.13-4.29h0Zm-4.23-1.79a2.865,2.865,0,0,1,0,3.93,2.589,2.589,0,0,1-1.92.8h-4.89v-5.52h4.89A2.58,2.58,0,0,1,2723.54,6027.42Zm-6.81,13.73v-5.88h5.55a2.689,2.689,0,0,1,2.02.85,3.034,3.034,0,0,1,0,4.17,2.7,2.7,0,0,1-2.02.86h-5.55Z" transform="translate(-2637 -6011)"/>
</svg>
