<svg id="goal_oriented_programming" data-name="goal oriented programming" xmlns="http://www.w3.org/2000/svg" width="118.28" height="121.1" viewBox="0 0 118.28 121.1">
  <metadata><?xpacket begin="﻿" id="W5M0MpCehiHzreSzNTczkc9d"?>
<x:xmpmeta xmlns:x="adobe:ns:meta/" x:xmptk="Adobe XMP Core 5.6-c142 79.160924, 2017/07/13-01:06:39        ">
   <rdf:RDF xmlns:rdf="http://www.w3.org/1999/02/22-rdf-syntax-ns#">
      <rdf:Description rdf:about=""/>
   </rdf:RDF>
</x:xmpmeta>
                                                                                                    
                                                                                                    
                                                                                                    
                                                                                                    
                                                                                                    
                                                                                                    
                                                                                                    
                                                                                                    
                                                                                                    
                                                                                                    
                                                                                                    
                                                                                                    
                                                                                                    
                                                                                                    
                                                                                                    
                                                                                                    
                                                                                                    
                                                                                                    
                                                                                                    
                                                                                                    
                           
<?xpacket end="w"?></metadata>
<defs>
    <style>
      .cls-1 {
        fill: #2de5ea;
        stroke: #2de5ea;
        stroke-linecap: round;
        stroke-linejoin: round;
        stroke-width: 1px;
      }

      .cls-2 {
        fill: #30323d;
        stroke: #30323d;
        stroke-width: 1.5px;
        fill-rule: evenodd;
      }
    </style>
  </defs>
  <circle class="cls-1" cx="74.34" cy="77.16" r="43.44"/>
  <circle id="Ellipse_516_copy" data-name="Ellipse 516 copy" class="cls-1" cx="15.34" cy="31.16" r="14.84"/>
  <path id="Forma_1" data-name="Forma 1" class="cls-2" d="M3541.18,6022.1l6.14-8.96a0.577,0.577,0,0,0-.48-0.91h-17.37v-2.33a0.572,0.572,0,0,0-.57-0.58h-12.16v-1.16a0.58,0.58,0,0,0-1.16,0v43.68a0.58,0.58,0,0,0,1.16,0v-24.52h6.38a2.9,2.9,0,0,0,2.3,4.65h21.42a0.577,0.577,0,0,0,.48-0.91Zm-24.44-11.62h11.58v15.68h-11.58v-15.68Zm8.68,20.33a1.745,1.745,0,0,1,0-3.49h3.48a0.572,0.572,0,0,0,.57-0.58v-13.35h16.27l-5.74,8.38a0.571,0.571,0,0,0,0,.66l5.74,8.38h-20.32Z" transform="translate(-3441.66 -6006.84)"/>
</svg>
