<svg xmlns="http://www.w3.org/2000/svg" viewBox="0 0 1087.21 550.57"><defs><style>.cls-1,.cls-10,.cls-11,.cls-12,.cls-13,.cls-14,.cls-15,.cls-16,.cls-17,.cls-18,.cls-19,.cls-2,.cls-20,.cls-21,.cls-22,.cls-23,.cls-24,.cls-25,.cls-26,.cls-27,.cls-28,.cls-29,.cls-3,.cls-30,.cls-31,.cls-32,.cls-33,.cls-34,.cls-35,.cls-36,.cls-37,.cls-38,.cls-39,.cls-4,.cls-40,.cls-41,.cls-42,.cls-5,.cls-6,.cls-7,.cls-8,.cls-9{fill:none;stroke-linejoin:round;}.cls-1,.cls-10,.cls-11,.cls-12,.cls-13,.cls-14,.cls-15,.cls-16,.cls-17,.cls-18,.cls-19,.cls-2,.cls-20,.cls-21,.cls-22,.cls-23,.cls-24,.cls-25,.cls-26,.cls-27,.cls-28,.cls-29,.cls-30,.cls-31,.cls-32,.cls-33,.cls-34,.cls-35,.cls-36,.cls-37,.cls-38,.cls-39,.cls-4,.cls-40,.cls-41,.cls-42,.cls-5,.cls-6,.cls-7,.cls-8,.cls-9{stroke:#363a4d;}.cls-1,.cls-10,.cls-11,.cls-12,.cls-13,.cls-14,.cls-15,.cls-16,.cls-17,.cls-18,.cls-19,.cls-20,.cls-21,.cls-22,.cls-23,.cls-24,.cls-25,.cls-26,.cls-27,.cls-28,.cls-29,.cls-3,.cls-30,.cls-31,.cls-32,.cls-33,.cls-34,.cls-35,.cls-36,.cls-37,.cls-38,.cls-39,.cls-4,.cls-40,.cls-41,.cls-42,.cls-5,.cls-6,.cls-7,.cls-8,.cls-9{stroke-linecap:round;}.cls-3{stroke:#7e39d7;}.cls-4{stroke-dasharray:6.36 3.98;}.cls-5{stroke-dasharray:8.49 5.3;}.cls-6{stroke-dasharray:8.49 5.31;}.cls-7{stroke-dasharray:8.97 5.61;}.cls-8{stroke-dasharray:8.97 5.61;}.cls-9{stroke-dasharray:7.5 4.69;}.cls-10{stroke-dasharray:7.13 4.46;}.cls-11{stroke-dasharray:4.04 2.53;}.cls-12{stroke-dasharray:4.04 2.53;}.cls-13{stroke-dasharray:10.02 6.26;}.cls-14{stroke-dasharray:7.47 4.67;}.cls-15{stroke-dasharray:7.13 4.46;}.cls-16{stroke-dasharray:7.47 4.67;}.cls-17{stroke-dasharray:7.13 4.46;}.cls-18{stroke-dasharray:7.73 4.83;}.cls-19{stroke-dasharray:7.73 4.83;}.cls-20{stroke-dasharray:8.29 5.18;}.cls-21{stroke-dasharray:8.29 5.18;}.cls-22{stroke-dasharray:8.29 5.18;}.cls-23{stroke-dasharray:7.72 4.82;}.cls-24{stroke-dasharray:4.05 2.53;}.cls-25{stroke-dasharray:8.61 5.38;}.cls-26{stroke-dasharray:7.85 4.91;}.cls-27{stroke-dasharray:4.04 2.52;}.cls-28{stroke-dasharray:8.29 5.18;}.cls-29{stroke-dasharray:4.05 2.53;}.cls-30{stroke-dasharray:8.48 5.3;}.cls-31{stroke-dasharray:5.54 3.46;}.cls-32{stroke-dasharray:6.65 4.16;}.cls-33{stroke-dasharray:8.56 5.35;}.cls-34{stroke-dasharray:8.43 5.27;}.cls-35{stroke-dasharray:8.52 5.33;}.cls-36{stroke-dasharray:7.5 4.69;}.cls-37{stroke-dasharray:6.44 4.02;}.cls-38{stroke-dasharray:7.84 4.9;}.cls-39{stroke-dasharray:6.42 4.01;}.cls-40{stroke-dasharray:9.85 6.16;}.cls-41{stroke-dasharray:9.85 6.16;}.cls-42{stroke-dasharray:9.86 6.16;}</style></defs><title>Asset 4</title><g id="Layer_2" data-name="Layer 2"><g id="A1"><g id="left"><g id="line"><polygon class="cls-1" points="596.73 321.65 596.73 395.31 547.25 366.74 547.25 293.09 596.73 321.65"/><polygon class="cls-1" points="602.22 324.83 602.22 398.49 596.73 395.32 596.73 321.66 602.22 324.83"/><polygon class="cls-1" points="607.73 321.65 602.22 324.83 596.73 321.66 602.24 318.48 607.73 321.65"/><polygon class="cls-1" points="613.23 305.81 607.74 321.65 602.24 318.48 607.74 302.63 613.22 305.8 613.22 305.81 613.23 305.81"/><polygon class="cls-1" points="629.74 308.93 629.74 382.6 602.23 398.49 602.23 324.83 607.74 321.65 613.23 305.81 613.23 299.42 618.73 296.26 618.73 302.61 621.48 307.37 624.24 312.12 629.74 308.93"/><polygon class="cls-1" points="637.2 298.65 637.2 378.29 629.75 373.98 629.75 308.94 624.25 305.77 621.48 307.37 618.73 302.61 618.73 296.27 613.23 293.1 607.74 296.27 607.74 297.44 596.9 291.18 596.9 275.36 637.2 298.65"/><polygon class="cls-1" points="642.96 295.32 637.21 298.65 637.2 298.65 596.9 275.35 602.65 272.03 642.96 295.32"/><polygon class="cls-1" points="642.96 288.67 642.96 295.32 602.65 272.03 602.65 265.38 642.96 288.67"/><polygon class="cls-1" points="648.73 278.69 648.73 285.35 608.41 262.06 608.4 262.06 608.4 255.41 648.73 278.69"/><polygon class="cls-1" points="648.73 285.35 642.96 288.67 602.65 265.38 608.4 262.06 608.41 262.06 648.73 285.35"/><polygon class="cls-1" points="513.3 177.3 453.95 211.56 453.95 211.51 394.68 177.29 432.21 155.63 451.41 144.56 451.42 144.55 451.43 144.54 453.99 143.05 513.3 177.3"/><polygon class="cls-1" points="513.3 177.3 513.3 191.29 503.64 196.87 503.63 196.87 503.62 196.88 453.96 225.55 453.95 225.55 453.95 211.56 513.3 177.3"/><polygon class="cls-1" points="692.47 257.38 692.47 308.42 677.66 316.97 677.66 265.93 692.47 257.38"/><polygon class="cls-1" points="718.8 172.88 718.64 173.34 711.18 193.88 705.08 190.36 709.3 178.74 709.3 178.73 712.69 169.35 718.8 172.88"/><polygon class="cls-1" points="725.98 185.34 725.98 245.73 711.18 254.27 711.18 193.88 718.64 173.34 718.96 173.15 725.98 185.34"/><polygon class="cls-1" points="692.47 257.38 677.66 265.92 685.3 244.92 692.47 257.38"/><polygon class="cls-1" points="677.66 265.92 677.66 316.97 666.03 310.24 666.03 282.02 660.26 278.69 654.5 275.37 633.42 263.2 633.42 240.37 677.66 265.92"/><polygon class="cls-1" points="789.19 213.51 781.56 234.52 737.31 208.97 744.93 187.96 757.84 195.41 789.19 213.51"/><polygon class="cls-1" points="685.3 244.92 677.66 265.92 633.42 240.37 633.42 240.33 635.76 233.87 635.76 233.86 641.03 219.36 685.29 244.91 685.3 244.92"/><polygon class="cls-1" points="711.18 193.88 711.18 254.27 705.08 250.75 705.08 190.36 711.18 193.88"/><polygon class="cls-1" points="781.56 234.52 781.56 294.9 737.31 269.35 737.31 208.97 781.56 234.52"/><polygon class="cls-1" points="796.31 225.9 781.56 234.52 789.19 213.51 796.31 225.9"/><polygon class="cls-1" points="796.35 225.98 796.35 286.36 781.56 294.9 781.56 234.52 796.31 225.9 796.35 225.98"/><polygon class="cls-1" points="835.61 192.31 829.83 195.62 829.83 188.97 835.61 192.31"/><polygon class="cls-1" points="829.83 188.97 824.08 192.29 824.08 185.65 829.83 188.97"/><polygon class="cls-1" points="592.09 132.5 592.09 191.93 562.84 175.04 562.84 115.61 592.07 132.5 592.09 132.5"/><polygon class="cls-1" points="608.82 122.81 592.09 132.48 592.09 132.5 592.07 132.5 562.84 115.61 570.4 111.25 592.5 98.48 606.76 106.72 600.31 117.89 601.28 118.45 608.82 122.81"/><polygon class="cls-1" points="644.81 109.35 629.97 135.03 621.74 130.27 608.83 122.81 608.82 122.81 601.28 118.45 600.3 117.89 606.76 106.72 610.54 100.18 615.14 92.21 644.81 109.35"/><polygon class="cls-1" points="659.63 117.91 629.98 135.03 644.81 109.35 659.63 117.91"/><polygon class="cls-1" points="650.06 173.72 590.84 207.92 531.57 173.7 562.84 155.66 562.84 175.04 592.09 191.93 621.74 174.81 621.74 157.38 650.06 173.72"/><polygon class="cls-1" points="621.74 130.27 621.74 174.81 592.09 191.93 592.09 132.48 608.82 122.81 608.83 122.81 621.74 130.27"/><polygon class="cls-1" points="824.08 185.65 818.32 188.98 769.36 160.71 775.12 157.38 805.07 174.67 824.08 185.65"/><polygon class="cls-1" points="812.56 198.96 812.56 205.6 763.58 177.34 763.6 177.32 763.6 170.71 812.56 198.96"/><polygon class="cls-1" points="835.61 192.31 835.61 263.68 806.8 280.31 806.8 208.93 812.56 205.6 812.56 198.96 818.31 195.63 818.31 188.99 818.32 188.98 824.08 185.65 824.08 192.29 829.83 188.97 829.83 195.62 835.61 192.31"/><polygon class="cls-1" points="806.8 208.93 806.8 280.31 796.35 274.29 796.35 225.98 796.31 225.9 789.19 213.51 757.84 195.41 757.84 180.65 806.8 208.93"/><polygon class="cls-1" points="852.27 158.4 848.82 168.54 848.81 168.57 848.4 169.78 842.48 166.39 842.9 165.17 842.91 165.13 846.38 155 852.27 158.4"/><polyline class="cls-1" points="590.85 207.92 650.1 173.75 650.1 190.82 590.84 225.04 590.84 225.04"/><polygon class="cls-1" points="590.85 207.92 590.85 225.04 531.51 190.78 531.51 173.67 531.57 173.7 590.85 207.92"/><polygon class="cls-1" points="613.23 299.42 613.23 305.81 613.22 305.81 613.22 305.8 607.74 302.63 607.74 296.26 613.23 299.42"/><polyline class="cls-1" points="769.36 160.71 818.32 188.98 818.31 195.63 769.36 167.35 769.36 160.71"/><polyline class="cls-1" points="763.6 170.71 769.36 167.35 818.31 195.63 812.56 198.96 763.6 170.71"/><polygon class="cls-1" points="887.25 159.46 881.1 167.64 875.26 164.27 880.44 157.37 881.4 156.08 887.25 159.46"/><polygon class="cls-1" points="881.1 167.64 873.01 172.37 867.15 169 875.26 164.27 881.1 167.64"/><polygon class="cls-1" points="901.47 155.76 901.47 225.64 873.01 242.07 873.01 172.37 881.1 167.64 887.25 159.46 893.22 160.58 901.46 155.76 901.47 155.76"/><polygon class="cls-1" points="873.01 172.37 873.01 242.07 867.15 238.72 867.15 169 873.01 172.37"/><polygon class="cls-1" points="901.46 155.76 893.22 160.58 887.37 157.2 890.7 155.25 895.61 152.38 901.46 155.76"/><polygon class="cls-1" points="880.44 157.37 875.26 164.27 867.15 169 863.99 167.17 863.99 160.6 858.1 157.2 857.14 157.75 856.2 156.1 856.2 151.54 850.3 148.13 846.38 150.42 846.38 152.79 837.53 147.68 846.28 137.64 880.44 157.37"/><polygon class="cls-1" points="890.7 155.25 887.37 157.2 881.4 156.08 880.43 157.37 846.28 137.63 860.13 137.59 890.7 155.25"/><polygon class="cls-1" points="867.15 169 867.15 238.72 863.99 236.89 863.99 167.17 867.15 169"/><polygon class="cls-1" points="863.99 214.39 863.99 236.89 844.52 225.65 844.52 225.64 863.99 214.39"/><polygon class="cls-1" points="893.22 160.58 887.25 159.46 881.4 156.08 887.37 157.2 893.22 160.58"/><ellipse class="cls-2" cx="934.97" cy="323.26" rx="5.99" ry="3.46"/><polyline class="cls-2" points="860.01 297.12 945.6 346.53 946.05 346.8"/><ellipse class="cls-2" cx="949.78" cy="349.02" rx="5.99" ry="3.46"/><polyline class="cls-2" points="874.54 288.74 930.73 320.81 931.21 321.08"/><ellipse class="cls-2" cx="972.72" cy="431.41" rx="5.99" ry="3.46"/><polyline class="cls-2" points="967.82 428.58 899.82 389.32 899.83 337.91 844.68 306.05 844.67 306.05"/><polyline class="cls-2" points="146.29 7.21 146.56 7.37 279.46 84.27 279.46 135.69 334.61 167.54 334.62 167.54"/><polyline class="cls-2" points="275.95 201.41 189.23 151.31 144.71 177.01 10.58 99.78"/><polyline class="cls-2" points="290.17 193.19 233.98 161.05 233.5 160.78"/><polyline class="cls-2" points="304.7 184.81 219.12 135.33 218.66 135.07"/><line class="cls-2" x1="319.54" y1="176.24" x2="203.11" y2="108.94"/><ellipse class="cls-2" cx="6.49" cy="97.12" rx="5.99" ry="3.46"/><ellipse class="cls-2" cx="229.74" cy="158.61" rx="5.99" ry="3.46"/><ellipse class="cls-2" cx="214.93" cy="132.85" rx="5.99" ry="3.46"/><ellipse class="cls-2" cx="198.78" cy="106.29" rx="5.99" ry="3.46"/><ellipse class="cls-2" cx="140.99" cy="3.96" rx="5.99" ry="3.46"/><polygon class="cls-1" points="453.95 211.51 453.95 225.55 404.29 196.88 394.66 191.32 394.68 177.29 453.95 211.51"/><polygon class="cls-1" points="856.2 151.54 852.27 153.83 846.38 150.42 850.3 148.13 856.2 151.54"/><polygon class="cls-1" points="863.99 160.6 860.05 162.9 857.14 157.75 858.1 157.2 863.99 160.6"/><polygon class="cls-1" points="607.74 297.44 607.74 302.63 602.24 318.48 596.73 321.66 596.73 321.65 547.25 293.1 561.92 270.98 596.9 291.18 607.74 297.44"/><polygon class="cls-1" points="838.62 168.65 838.62 222.24 835.61 220.5 835.61 192.31 829.84 188.97 824.08 185.66 805.07 174.67 805.07 149.28 838.62 168.65"/><polygon class="cls-1" points="863.99 160.6 863.99 214.39 844.52 225.64 844.52 172.04 848.4 169.78 848.81 168.57 848.82 168.54 852.27 158.4 852.27 153.83 856.2 151.54 856.2 156.1 857.14 157.75 860.05 162.9 863.99 160.6"/><polygon class="cls-1" points="844.52 172.04 844.52 225.64 838.62 222.24 838.62 168.65 844.52 172.04"/><polygon class="cls-1" points="848.4 169.78 844.52 172.04 838.62 168.65 842.48 166.39 848.4 169.78"/><polygon class="cls-1" points="846.38 152.79 846.38 155 842.91 165.13 842.9 165.17 842.48 166.39 838.62 168.65 805.07 149.28 807.93 144.98 807.96 144.95 814.84 134.57 837.53 147.68 846.38 152.79"/><polygon class="cls-1" points="812.56 205.6 806.8 208.93 757.84 180.65 757.84 180.64 763.58 177.34 812.56 205.6"/><polygon class="cls-1" points="852.27 153.83 852.27 158.4 846.38 155 846.38 150.42 852.27 153.83"/><polyline class="cls-1" points="648.73 285.35 642.96 288.67 642.96 295.32 637.21 298.65 637.2 298.65 637.2 378.29 666.03 361.65 666.03 310.24 677.66 316.97"/><polygon class="cls-1" points="951.01 227.55 787.91 321.71 692.47 266.61 692.47 257.38 685.3 244.92 685.29 244.91 641.03 219.36 635.76 233.86 624.81 227.54 709.3 178.74 705.08 190.36 711.18 193.88 718.64 173.34 718.96 173.15 719.12 173.06 787.87 133.35 807.96 144.95 807.93 144.98 805.07 149.28 838.62 168.65 842.48 166.39 848.4 169.78 844.52 172.04 844.52 225.64 863.99 214.39 863.99 236.89 867.15 238.72 873.01 242.07 901.47 225.64 901.47 198.95 951.01 227.55"/><polygon class="cls-1" points="787.91 321.71 787.91 338.83 692.47 283.73 692.47 266.61 787.91 321.71"/><polygon class="cls-1" points="624.81 227.54 635.76 233.86 635.76 233.87 633.42 240.33 633.42 249.63 624.81 244.66 624.81 227.54"/><polygon class="cls-1" points="951.01 227.54 950.97 244.63 787.9 338.82 787.9 321.7 951.01 227.54"/><polygon class="cls-1" points="556.85 227.61 556.81 244.7 393.75 338.89 393.75 321.77 556.85 227.61"/><polygon class="cls-1" points="393.75 321.77 393.75 338.89 230.66 244.72 230.66 227.6 393.75 321.77"/><polygon class="cls-1" points="556.86 227.6 393.75 321.76 230.66 227.59 319.54 176.24 334.61 167.54 334.62 167.54 393.71 133.4 432.21 155.63 394.68 177.29 453.95 211.51 453.95 225.55 453.96 225.55 503.62 196.88 503.63 196.87 503.64 196.87 556.86 227.6"/><polygon class="cls-1" points="618.73 296.26 613.23 299.42 607.74 296.26 613.23 293.1 618.73 296.26"/><polygon class="cls-1" points="629.74 308.93 624.24 312.12 621.48 307.37 624.25 305.76 629.74 308.93"/><polygon class="cls-1" points="654.5 275.37 648.73 278.69 608.4 255.41 614.18 252.07 621.22 256.14 633.42 263.19 633.42 263.2 654.5 275.37"/><polygon class="cls-1" points="666.03 282.02 660.26 285.33 660.26 278.69 666.03 282.02"/><polygon class="cls-1" points="666.03 282.02 666.03 361.65 637.2 378.29 637.2 298.65 637.21 298.65 642.96 295.32 642.96 288.67 648.73 285.35 648.73 278.69 654.5 275.37 654.5 282.02 660.26 278.69 660.26 285.33 666.03 282.02"/><polygon class="cls-1" points="660.26 278.69 654.5 282.02 654.5 275.37 660.26 278.69"/><polygon class="cls-3" points="596.73 321.65 596.73 395.31 547.25 366.74 547.25 293.09 596.73 321.65"/><polygon class="cls-3" points="596.73 321.65 596.73 395.31 547.25 366.74 547.25 293.09 596.73 321.65"/><polygon class="cls-3" points="602.22 324.83 602.22 398.49 596.73 395.32 596.73 321.66 602.22 324.83"/><polygon class="cls-3" points="602.22 324.83 602.22 398.49 596.73 395.32 596.73 321.66 602.22 324.83"/><polygon class="cls-3" points="607.73 321.65 602.22 324.83 596.73 321.66 602.24 318.48 607.73 321.65"/><polygon class="cls-3" points="607.73 321.65 602.22 324.83 596.73 321.66 602.24 318.48 607.73 321.65"/><polygon class="cls-3" points="613.23 305.81 607.74 321.65 602.24 318.48 607.74 302.63 613.22 305.8 613.22 305.81 613.23 305.81"/><polygon class="cls-3" points="613.23 305.81 607.74 321.65 602.24 318.48 607.74 302.63 613.22 305.8 613.22 305.81 613.23 305.81"/><polygon class="cls-3" points="629.74 308.93 629.74 382.6 602.23 398.49 602.23 324.83 607.74 321.65 613.23 305.81 613.23 299.42 618.73 296.26 618.73 302.61 621.48 307.37 624.24 312.12 629.74 308.93"/><polygon class="cls-3" points="629.74 308.93 629.74 382.6 602.23 398.49 602.23 324.83 607.74 321.65 613.23 305.81 613.23 299.42 618.73 296.26 618.73 302.61 621.48 307.37 624.24 312.12 629.74 308.93"/><polygon class="cls-3" points="637.2 298.65 637.2 378.29 629.75 373.98 629.75 308.94 624.25 305.77 621.48 307.37 618.73 302.61 618.73 296.27 613.23 293.1 607.74 296.27 607.74 297.44 596.9 291.18 596.9 275.36 637.2 298.65"/><polygon class="cls-3" points="637.2 298.65 637.2 378.29 629.75 373.98 629.75 308.94 624.25 305.77 621.48 307.37 618.73 302.61 618.73 296.27 613.23 293.1 607.74 296.27 607.74 297.44 596.9 291.18 596.9 275.36 637.2 298.65"/><polygon class="cls-3" points="642.96 295.32 637.21 298.65 637.2 298.65 596.9 275.35 602.65 272.03 642.96 295.32"/><polygon class="cls-3" points="642.96 295.32 637.21 298.65 637.2 298.65 596.9 275.35 602.65 272.03 642.96 295.32"/><polygon class="cls-3" points="642.96 288.67 642.96 295.32 602.65 272.03 602.65 265.38 642.96 288.67"/><polygon class="cls-3" points="642.96 288.67 642.96 295.32 602.65 272.03 602.65 265.38 642.96 288.67"/><polygon class="cls-3" points="648.73 278.69 648.73 285.35 608.41 262.06 608.4 262.06 608.4 255.41 648.73 278.69"/><polygon class="cls-3" points="648.73 278.69 648.73 285.35 608.41 262.06 608.4 262.06 608.4 255.41 648.73 278.69"/><polygon class="cls-3" points="648.73 285.35 642.96 288.67 602.65 265.38 608.4 262.06 608.41 262.06 648.73 285.35"/><polygon class="cls-3" points="648.73 285.35 642.96 288.67 602.65 265.38 608.4 262.06 608.41 262.06 648.73 285.35"/><polygon class="cls-3" points="513.3 177.3 453.95 211.56 453.95 211.51 394.68 177.29 432.21 155.63 451.41 144.56 451.42 144.55 451.43 144.54 453.99 143.05 513.3 177.3"/><polygon class="cls-3" points="513.3 177.3 453.95 211.56 453.95 211.51 394.68 177.29 432.21 155.63 451.41 144.56 451.42 144.55 451.43 144.54 453.99 143.05 513.3 177.3"/><polygon class="cls-3" points="513.3 177.3 513.3 191.29 503.64 196.87 503.63 196.87 503.62 196.88 453.96 225.55 453.95 225.55 453.95 211.56 513.3 177.3"/><polygon class="cls-3" points="692.47 257.38 692.47 308.42 677.66 316.97 677.66 265.93 692.47 257.38"/><polygon class="cls-3" points="692.47 257.38 692.47 308.42 677.66 316.97 677.66 265.93 692.47 257.38"/><polygon class="cls-3" points="718.8 172.88 718.64 173.34 711.18 193.88 705.08 190.36 709.3 178.74 709.3 178.73 712.69 169.35 718.8 172.88"/><polygon class="cls-3" points="718.8 172.88 718.64 173.34 711.18 193.88 705.08 190.36 709.3 178.74 709.3 178.73 712.69 169.35 718.8 172.88"/><polygon class="cls-3" points="725.98 185.34 725.98 245.73 711.18 254.27 711.18 193.88 718.64 173.34 718.96 173.15 725.98 185.34"/><polygon class="cls-3" points="725.98 185.34 725.98 245.73 711.18 254.27 711.18 193.88 718.64 173.34 718.96 173.15 725.98 185.34"/><polygon class="cls-3" points="692.47 257.38 677.66 265.92 685.3 244.92 692.47 257.38"/><polygon class="cls-3" points="692.47 257.38 677.66 265.92 685.3 244.92 692.47 257.38"/><polygon class="cls-3" points="677.66 265.92 677.66 316.97 666.03 310.24 666.03 282.02 660.26 278.69 654.5 275.37 633.42 263.2 633.42 240.37 677.66 265.92"/><polygon class="cls-3" points="677.66 265.92 677.66 316.97 666.03 310.24 666.03 282.02 660.26 278.69 654.5 275.37 633.42 263.2 633.42 240.37 677.66 265.92"/><polygon class="cls-3" points="789.19 213.51 781.56 234.52 737.31 208.97 744.93 187.96 757.84 195.41 789.19 213.51"/><polygon class="cls-3" points="789.19 213.51 781.56 234.52 737.31 208.97 744.93 187.96 757.84 195.41 789.19 213.51"/><polygon class="cls-3" points="685.3 244.92 677.66 265.92 633.42 240.37 633.42 240.33 635.76 233.87 635.76 233.86 641.03 219.36 685.29 244.91 685.3 244.92"/><polygon class="cls-3" points="685.3 244.92 677.66 265.92 633.42 240.37 633.42 240.33 635.76 233.87 635.76 233.86 641.03 219.36 685.29 244.91 685.3 244.92"/><polygon class="cls-3" points="711.18 193.88 711.18 254.27 705.08 250.75 705.08 190.36 711.18 193.88"/><polygon class="cls-3" points="711.18 193.88 711.18 254.27 705.08 250.75 705.08 190.36 711.18 193.88"/><polygon class="cls-3" points="781.56 234.52 781.56 294.9 737.31 269.35 737.31 208.97 781.56 234.52"/><polygon class="cls-3" points="781.56 234.52 781.56 294.9 737.31 269.35 737.31 208.97 781.56 234.52"/><polygon class="cls-3" points="796.31 225.9 781.56 234.52 789.19 213.51 796.31 225.9"/><polygon class="cls-3" points="796.31 225.9 781.56 234.52 789.19 213.51 796.31 225.9"/><polygon class="cls-3" points="796.35 225.98 796.35 286.36 781.56 294.9 781.56 234.52 796.31 225.9 796.35 225.98"/><polygon class="cls-3" points="796.35 225.98 796.35 286.36 781.56 294.9 781.56 234.52 796.31 225.9 796.35 225.98"/><polygon class="cls-3" points="835.61 192.31 829.83 195.62 829.83 188.97 835.61 192.31"/><polygon class="cls-3" points="835.61 192.31 829.83 195.62 829.83 188.97 835.61 192.31"/><polygon class="cls-3" points="829.83 188.97 824.08 192.29 824.08 185.65 829.83 188.97"/><polygon class="cls-3" points="829.83 188.97 824.08 192.29 824.08 185.65 829.83 188.97"/><polygon class="cls-3" points="592.09 132.5 592.09 191.93 562.84 175.04 562.84 115.61 592.07 132.5 592.09 132.5"/><polygon class="cls-3" points="592.09 132.5 592.09 191.93 562.84 175.04 562.84 115.61 592.07 132.5 592.09 132.5"/><polygon class="cls-3" points="608.82 122.81 592.09 132.48 592.09 132.5 592.07 132.5 562.84 115.61 570.4 111.25 592.5 98.48 606.76 106.72 600.31 117.89 601.28 118.45 608.82 122.81"/><polygon class="cls-3" points="608.82 122.81 592.09 132.48 592.09 132.5 592.07 132.5 562.84 115.61 570.4 111.25 592.5 98.48 606.76 106.72 600.31 117.89 601.28 118.45 608.82 122.81"/><polygon class="cls-3" points="644.81 109.35 629.97 135.03 621.74 130.27 608.83 122.81 608.82 122.81 601.28 118.45 600.3 117.89 606.76 106.72 610.54 100.18 615.14 92.21 644.81 109.35"/><polygon class="cls-3" points="644.81 109.35 629.97 135.03 621.74 130.27 608.83 122.81 608.82 122.81 601.28 118.45 600.3 117.89 606.76 106.72 610.54 100.18 615.14 92.21 644.81 109.35"/><polygon class="cls-3" points="659.63 117.91 629.98 135.03 644.81 109.35 659.63 117.91"/><polygon class="cls-3" points="659.63 117.91 629.98 135.03 644.81 109.35 659.63 117.91"/><polygon class="cls-3" points="650.06 173.72 590.84 207.92 531.57 173.7 562.84 155.66 562.84 175.04 592.09 191.93 621.74 174.81 621.74 157.38 650.06 173.72"/><polygon class="cls-3" points="650.06 173.72 590.84 207.92 531.57 173.7 562.84 155.66 562.84 175.04 592.09 191.93 621.74 174.81 621.74 157.38 650.06 173.72"/><polygon class="cls-3" points="621.74 130.27 621.74 174.81 592.09 191.93 592.09 132.48 608.82 122.81 608.83 122.81 621.74 130.27"/><polygon class="cls-3" points="621.74 130.27 621.74 174.81 592.09 191.93 592.09 132.48 608.82 122.81 608.83 122.81 621.74 130.27"/><polygon class="cls-3" points="824.08 185.65 818.32 188.98 769.36 160.71 775.12 157.38 805.07 174.67 824.08 185.65"/><polygon class="cls-3" points="824.08 185.65 818.32 188.98 769.36 160.71 775.12 157.38 805.07 174.67 824.08 185.65"/><polygon class="cls-3" points="812.56 198.96 812.56 205.6 763.58 177.34 763.6 177.32 763.6 170.71 812.56 198.96"/><polygon class="cls-3" points="812.56 198.96 812.56 205.6 763.58 177.34 763.6 177.32 763.6 170.71 812.56 198.96"/><polygon class="cls-3" points="835.61 192.31 835.61 263.68 806.8 280.31 806.8 208.93 812.56 205.6 812.56 198.96 818.31 195.63 818.31 188.99 818.32 188.98 824.08 185.65 824.08 192.29 829.83 188.97 829.83 195.62 835.61 192.31"/><polygon class="cls-3" points="835.61 192.31 835.61 263.68 806.8 280.31 806.8 208.93 812.56 205.6 812.56 198.96 818.31 195.63 818.31 188.99 818.32 188.98 824.08 185.65 824.08 192.29 829.83 188.97 829.83 195.62 835.61 192.31"/><polygon class="cls-3" points="806.8 208.93 806.8 280.31 796.35 274.29 796.35 225.98 796.31 225.9 789.19 213.51 757.84 195.41 757.84 180.65 806.8 208.93"/><polygon class="cls-3" points="806.8 208.93 806.8 280.31 796.35 274.29 796.35 225.98 796.31 225.9 789.19 213.51 757.84 195.41 757.84 180.65 806.8 208.93"/><polygon class="cls-3" points="852.27 158.4 848.82 168.54 848.81 168.57 848.4 169.78 842.48 166.39 842.9 165.17 842.91 165.13 846.38 155 852.27 158.4"/><polygon class="cls-3" points="852.27 158.4 848.82 168.54 848.81 168.57 848.4 169.78 842.48 166.39 842.9 165.17 842.91 165.13 846.38 155 852.27 158.4"/><polyline class="cls-3" points="590.85 207.92 650.1 173.75 650.1 190.82 590.84 225.04 590.84 225.04"/><polyline class="cls-3" points="590.85 207.92 650.1 173.75 650.1 190.82 590.84 225.04 590.84 225.04"/><polygon class="cls-3" points="590.85 207.92 590.85 225.04 531.51 190.78 531.51 173.67 531.57 173.7 590.85 207.92"/><polygon class="cls-3" points="590.85 207.92 590.85 225.04 531.51 190.78 531.51 173.67 531.57 173.7 590.85 207.92"/><polygon class="cls-3" points="613.23 299.42 613.23 305.81 613.22 305.81 613.22 305.8 607.74 302.63 607.74 296.26 613.23 299.42"/><polygon class="cls-3" points="613.23 299.42 613.23 305.81 613.22 305.81 613.22 305.8 607.74 302.63 607.74 296.26 613.23 299.42"/><polyline class="cls-3" points="769.36 160.71 818.32 188.98 818.31 195.63 769.36 167.35 769.36 160.71"/><polyline class="cls-3" points="769.36 160.71 818.32 188.98 818.31 195.63 769.36 167.35 769.36 160.71"/><polyline class="cls-3" points="763.6 170.71 769.36 167.35 818.31 195.63 812.56 198.96 763.6 170.71"/><polyline class="cls-3" points="763.6 170.71 769.36 167.35 818.31 195.63 812.56 198.96 763.6 170.71"/><polygon class="cls-3" points="887.25 159.46 881.1 167.64 875.26 164.27 880.44 157.37 881.4 156.08 887.25 159.46"/><polygon class="cls-3" points="887.25 159.46 881.1 167.64 875.26 164.27 880.44 157.37 881.4 156.08 887.25 159.46"/><polygon class="cls-3" points="881.1 167.64 873.01 172.37 867.15 169 875.26 164.27 881.1 167.64"/><polygon class="cls-3" points="881.1 167.64 873.01 172.37 867.15 169 875.26 164.27 881.1 167.64"/><polygon class="cls-3" points="901.47 155.76 901.47 225.64 873.01 242.07 873.01 172.37 881.1 167.64 887.25 159.46 893.22 160.58 901.46 155.76 901.47 155.76"/><polygon class="cls-3" points="901.47 155.76 901.47 225.64 873.01 242.07 873.01 172.37 881.1 167.64 887.25 159.46 893.22 160.58 901.46 155.76 901.47 155.76"/><polygon class="cls-3" points="873.01 172.37 873.01 242.07 867.15 238.72 867.15 169 873.01 172.37"/><polygon class="cls-3" points="873.01 172.37 873.01 242.07 867.15 238.72 867.15 169 873.01 172.37"/><polygon class="cls-3" points="901.46 155.76 893.22 160.58 887.37 157.2 890.7 155.25 895.61 152.38 901.46 155.76"/><polygon class="cls-3" points="901.46 155.76 893.22 160.58 887.37 157.2 890.7 155.25 895.61 152.38 901.46 155.76"/><polygon class="cls-3" points="880.44 157.37 875.26 164.27 867.15 169 863.99 167.17 863.99 160.6 858.1 157.2 857.14 157.75 856.2 156.1 856.2 151.54 850.3 148.13 846.38 150.42 846.38 152.79 837.53 147.68 846.28 137.64 880.44 157.37"/><polygon class="cls-3" points="880.44 157.37 875.26 164.27 867.15 169 863.99 167.17 863.99 160.6 858.1 157.2 857.14 157.75 856.2 156.1 856.2 151.54 850.3 148.13 846.38 150.42 846.38 152.79 837.53 147.68 846.28 137.64 880.44 157.37"/><polygon class="cls-3" points="890.7 155.25 887.37 157.2 881.4 156.08 880.43 157.37 846.28 137.63 860.13 137.59 890.7 155.25"/><polygon class="cls-3" points="890.7 155.25 887.37 157.2 881.4 156.08 880.43 157.37 846.28 137.63 860.13 137.59 890.7 155.25"/><polygon class="cls-3" points="867.15 169 867.15 238.72 863.99 236.89 863.99 167.17 867.15 169"/><polygon class="cls-3" points="867.15 169 867.15 238.72 863.99 236.89 863.99 167.17 867.15 169"/><polygon class="cls-3" points="863.99 214.39 863.99 236.89 844.52 225.65 844.52 225.64 863.99 214.39"/><polygon class="cls-3" points="863.99 214.39 863.99 236.89 844.52 225.65 844.52 225.64 863.99 214.39"/><polygon class="cls-3" points="893.22 160.58 887.25 159.46 881.4 156.08 887.37 157.2 893.22 160.58"/><polygon class="cls-3" points="893.22 160.58 887.25 159.46 881.4 156.08 887.37 157.2 893.22 160.58"/><ellipse class="cls-3" cx="934.97" cy="323.26" rx="5.99" ry="3.46"/><ellipse class="cls-3" cx="934.97" cy="323.26" rx="5.99" ry="3.46"/><polyline class="cls-3" points="860.01 297.12 945.6 346.53 946.05 346.8"/><polyline class="cls-3" points="860.01 297.12 945.6 346.53 946.05 346.8"/><ellipse class="cls-3" cx="949.78" cy="349.02" rx="5.99" ry="3.46"/><ellipse class="cls-3" cx="949.78" cy="349.02" rx="5.99" ry="3.46"/><polyline class="cls-3" points="874.54 288.74 930.73 320.81 931.21 321.08"/><polyline class="cls-3" points="874.54 288.74 930.73 320.81 931.21 321.08"/><ellipse class="cls-3" cx="972.72" cy="431.41" rx="5.99" ry="3.46"/><ellipse class="cls-3" cx="972.72" cy="431.41" rx="5.99" ry="3.46"/><polyline class="cls-3" points="967.82 428.58 899.82 389.32 899.83 337.91 844.68 306.05 844.67 306.05"/><polyline class="cls-3" points="967.82 428.58 899.82 389.32 899.83 337.91 844.68 306.05 844.67 306.05"/><polyline class="cls-3" points="146.29 7.21 146.56 7.37 279.46 84.27 279.46 135.69 334.61 167.54 334.62 167.54"/><polyline class="cls-3" points="146.29 7.21 146.56 7.37 279.46 84.27 279.46 135.69 334.61 167.54 334.62 167.54"/><polyline class="cls-3" points="275.95 201.41 189.23 151.31 144.71 177.01 10.58 99.78"/><polyline class="cls-3" points="275.95 201.41 189.23 151.31 144.71 177.01 10.58 99.78"/><polyline class="cls-3" points="290.17 193.19 233.98 161.05 233.5 160.78"/><polyline class="cls-3" points="290.17 193.19 233.98 161.05 233.5 160.78"/><polyline class="cls-3" points="304.7 184.81 219.12 135.33 218.66 135.07"/><polyline class="cls-3" points="304.7 184.81 219.12 135.33 218.66 135.07"/><line class="cls-3" x1="319.54" y1="176.24" x2="203.11" y2="108.94"/><line class="cls-3" x1="319.54" y1="176.24" x2="203.11" y2="108.94"/><ellipse class="cls-3" cx="6.49" cy="97.12" rx="5.99" ry="3.46"/><ellipse class="cls-3" cx="6.49" cy="97.12" rx="5.99" ry="3.46"/><ellipse class="cls-3" cx="229.74" cy="158.61" rx="5.99" ry="3.46"/><ellipse class="cls-3" cx="229.74" cy="158.61" rx="5.99" ry="3.46"/><ellipse class="cls-3" cx="214.93" cy="132.85" rx="5.99" ry="3.46"/><ellipse class="cls-3" cx="214.93" cy="132.85" rx="5.99" ry="3.46"/><ellipse class="cls-3" cx="198.78" cy="106.29" rx="5.99" ry="3.46"/><ellipse class="cls-3" cx="198.78" cy="106.29" rx="5.99" ry="3.46"/><ellipse class="cls-3" cx="140.99" cy="3.96" rx="5.99" ry="3.46"/><ellipse class="cls-3" cx="140.99" cy="3.96" rx="5.99" ry="3.46"/><polygon class="cls-3" points="453.95 211.51 453.95 225.55 404.29 196.88 394.66 191.32 394.68 177.29 453.95 211.51"/><polygon class="cls-3" points="453.95 211.51 453.95 225.55 404.29 196.88 394.66 191.32 394.68 177.29 453.95 211.51"/><polygon class="cls-3" points="856.2 151.54 852.27 153.83 846.38 150.42 850.3 148.13 856.2 151.54"/><polygon class="cls-3" points="856.2 151.54 852.27 153.83 846.38 150.42 850.3 148.13 856.2 151.54"/><polygon class="cls-3" points="863.99 160.6 860.05 162.9 857.14 157.75 858.1 157.2 863.99 160.6"/><polygon class="cls-3" points="863.99 160.6 860.05 162.9 857.14 157.75 858.1 157.2 863.99 160.6"/><polygon class="cls-3" points="607.74 297.44 607.74 302.63 602.24 318.48 596.73 321.66 596.73 321.65 547.25 293.1 561.92 270.98 596.9 291.18 607.74 297.44"/><polygon class="cls-3" points="607.74 297.44 607.74 302.63 602.24 318.48 596.73 321.66 596.73 321.65 547.25 293.1 561.92 270.98 596.9 291.18 607.74 297.44"/><polygon class="cls-3" points="838.62 168.65 838.62 222.24 835.61 220.5 835.61 192.31 829.84 188.97 824.08 185.66 805.07 174.67 805.07 149.28 838.62 168.65"/><polygon class="cls-3" points="838.62 168.65 838.62 222.24 835.61 220.5 835.61 192.31 829.84 188.97 824.08 185.66 805.07 174.67 805.07 149.28 838.62 168.65"/><polygon class="cls-3" points="863.99 160.6 863.99 214.39 844.52 225.64 844.52 172.04 848.4 169.78 848.81 168.57 848.82 168.54 852.27 158.4 852.27 153.83 856.2 151.54 856.2 156.1 857.14 157.75 860.05 162.9 863.99 160.6"/><polygon class="cls-3" points="863.99 160.6 863.99 214.39 844.52 225.64 844.52 172.04 848.4 169.78 848.81 168.57 848.82 168.54 852.27 158.4 852.27 153.83 856.2 151.54 856.2 156.1 857.14 157.75 860.05 162.9 863.99 160.6"/><polygon class="cls-3" points="844.52 172.04 844.52 225.64 838.62 222.24 838.62 168.65 844.52 172.04"/><polygon class="cls-3" points="844.52 172.04 844.52 225.64 838.62 222.24 838.62 168.65 844.52 172.04"/><polygon class="cls-3" points="848.4 169.78 844.52 172.04 838.62 168.65 842.48 166.39 848.4 169.78"/><polygon class="cls-3" points="848.4 169.78 844.52 172.04 838.62 168.65 842.48 166.39 848.4 169.78"/><polygon class="cls-3" points="846.38 152.79 846.38 155 842.91 165.13 842.9 165.17 842.48 166.39 838.62 168.65 805.07 149.28 807.93 144.98 807.96 144.95 814.84 134.57 837.53 147.68 846.38 152.79"/><polygon class="cls-3" points="846.38 152.79 846.38 155 842.91 165.13 842.9 165.17 842.48 166.39 838.62 168.65 805.07 149.28 807.93 144.98 807.96 144.95 814.84 134.57 837.53 147.68 846.38 152.79"/><polygon class="cls-3" points="812.56 205.6 806.8 208.93 757.84 180.65 757.84 180.64 763.58 177.34 812.56 205.6"/><polygon class="cls-3" points="812.56 205.6 806.8 208.93 757.84 180.65 757.84 180.64 763.58 177.34 812.56 205.6"/><polygon class="cls-3" points="852.27 153.83 852.27 158.4 846.38 155 846.38 150.42 852.27 153.83"/><polygon class="cls-3" points="852.27 153.83 852.27 158.4 846.38 155 846.38 150.42 852.27 153.83"/><polyline class="cls-3" points="648.73 285.35 642.96 288.67 642.96 295.32 637.21 298.65 637.2 298.65 637.2 378.29 666.03 361.65 666.03 310.24 677.66 316.97"/><polyline class="cls-3" points="648.73 285.35 642.96 288.67 642.96 295.32 637.21 298.65 637.2 298.65 637.2 378.29 666.03 361.65 666.03 310.24 677.66 316.97"/><polygon class="cls-3" points="951.01 227.55 787.91 321.71 692.47 266.61 692.47 257.38 685.3 244.92 685.29 244.91 641.03 219.36 635.76 233.86 624.81 227.54 709.3 178.74 705.08 190.36 711.18 193.88 718.64 173.34 718.96 173.15 719.12 173.06 787.87 133.35 807.96 144.95 807.93 144.98 805.07 149.28 838.62 168.65 842.48 166.39 848.4 169.78 844.52 172.04 844.52 225.64 863.99 214.39 863.99 236.89 867.15 238.72 873.01 242.07 901.47 225.64 901.47 198.95 951.01 227.55"/><polygon class="cls-3" points="951.01 227.55 787.91 321.71 692.47 266.61 692.47 257.38 685.3 244.92 685.29 244.91 641.03 219.36 635.76 233.86 624.81 227.54 709.3 178.74 705.08 190.36 711.18 193.88 718.64 173.34 718.96 173.15 719.12 173.06 787.87 133.35 807.96 144.95 807.93 144.98 805.07 149.28 838.62 168.65 842.48 166.39 848.4 169.78 844.52 172.04 844.52 225.64 863.99 214.39 863.99 236.89 867.15 238.72 873.01 242.07 901.47 225.64 901.47 198.95 951.01 227.55"/><polygon class="cls-3" points="787.91 321.71 787.91 338.83 692.47 283.73 692.47 266.61 787.91 321.71"/><polygon class="cls-3" points="787.91 321.71 787.91 338.83 692.47 283.73 692.47 266.61 787.91 321.71"/><polygon class="cls-3" points="624.81 227.54 635.76 233.86 635.76 233.87 633.42 240.33 633.42 249.63 624.81 244.66 624.81 227.54"/><polygon class="cls-3" points="624.81 227.54 635.76 233.86 635.76 233.87 633.42 240.33 633.42 249.63 624.81 244.66 624.81 227.54"/><polygon class="cls-3" points="951.01 227.54 950.97 244.63 787.9 338.82 787.9 321.7 951.01 227.54"/><polygon class="cls-3" points="951.01 227.54 950.97 244.63 787.9 338.82 787.9 321.7 951.01 227.54"/><polygon class="cls-3" points="556.85 227.61 556.81 244.7 393.75 338.89 393.75 321.77 556.85 227.61"/><polygon class="cls-3" points="556.85 227.61 556.81 244.7 393.75 338.89 393.75 321.77 556.85 227.61"/><polygon class="cls-3" points="393.75 321.77 393.75 338.89 230.66 244.72 230.66 227.6 393.75 321.77"/><polygon class="cls-3" points="393.75 321.77 393.75 338.89 230.66 244.72 230.66 227.6 393.75 321.77"/><polygon class="cls-3" points="556.86 227.6 393.75 321.76 230.66 227.59 319.54 176.24 334.61 167.54 334.62 167.54 393.71 133.4 432.21 155.63 394.68 177.29 453.95 211.51 453.95 225.55 453.96 225.55 503.62 196.88 503.63 196.87 503.64 196.87 556.86 227.6"/><polygon class="cls-3" points="556.86 227.6 393.75 321.76 230.66 227.59 319.54 176.24 334.61 167.54 334.62 167.54 393.71 133.4 432.21 155.63 394.68 177.29 453.95 211.51 453.95 225.55 453.96 225.55 503.62 196.88 503.63 196.87 503.64 196.87 556.86 227.6"/><polygon class="cls-3" points="618.73 296.26 613.23 299.42 607.74 296.26 613.23 293.1 618.73 296.26"/><polygon class="cls-3" points="618.73 296.26 613.23 299.42 607.74 296.26 613.23 293.1 618.73 296.26"/><polygon class="cls-3" points="629.74 308.93 624.24 312.12 621.48 307.37 624.25 305.76 629.74 308.93"/><polygon class="cls-3" points="629.74 308.93 624.24 312.12 621.48 307.37 624.25 305.76 629.74 308.93"/><polygon class="cls-3" points="654.5 275.37 648.73 278.69 608.4 255.41 614.18 252.07 621.22 256.14 633.42 263.19 633.42 263.2 654.5 275.37"/><polygon class="cls-3" points="654.5 275.37 648.73 278.69 608.4 255.41 614.18 252.07 621.22 256.14 633.42 263.19 633.42 263.2 654.5 275.37"/><polygon class="cls-3" points="666.03 282.02 660.26 285.33 660.26 278.69 666.03 282.02"/><polygon class="cls-3" points="666.03 282.02 660.26 285.33 660.26 278.69 666.03 282.02"/><polygon class="cls-3" points="666.03 282.02 666.03 361.65 637.2 378.29 637.2 298.65 637.21 298.65 642.96 295.32 642.96 288.67 648.73 285.35 648.73 278.69 654.5 275.37 654.5 282.02 660.26 278.69 660.26 285.33 666.03 282.02"/><polygon class="cls-3" points="666.03 282.02 666.03 361.65 637.2 378.29 637.2 298.65 637.21 298.65 642.96 295.32 642.96 288.67 648.73 285.35 648.73 278.69 654.5 275.37 654.5 282.02 660.26 278.69 660.26 285.33 666.03 282.02"/><polygon class="cls-3" points="660.26 278.69 654.5 282.02 654.5 275.37 660.26 278.69"/><polygon class="cls-3" points="660.26 278.69 654.5 282.02 654.5 275.37 660.26 278.69"/></g><g id="dash"><line class="cls-1" x1="863.89" y1="247.35" x2="860.42" y2="245.35"/><polyline class="cls-4" points="856.98 243.36 844.52 236.16 840.79 234.01"/><line class="cls-1" x1="839.07" y1="233.02" x2="835.61" y2="231.02"/><polyline class="cls-1" points="509.83 200.47 513.3 202.47 509.83 204.47"/><line class="cls-5" x1="505.24" y1="207.13" x2="459.77" y2="233.38"/><polyline class="cls-1" points="457.47 234.7 454.01 236.7 450.54 234.7"/><line class="cls-6" x1="445.94" y1="232.05" x2="400.43" y2="205.77"/><polyline class="cls-1" points="398.13 204.44 394.67 202.44 398.13 200.44"/><polyline class="cls-1" points="400.82 198.88 404.29 196.88 407.75 198.88"/><line class="cls-7" x1="412.61" y1="201.69" x2="448.05" y2="222.14"/><polyline class="cls-1" points="450.48 223.54 453.95 225.54 453.95 225.55 453.96 225.55 457.41 223.56"/><line class="cls-8" x1="462.27" y1="220.75" x2="497.72" y2="200.29"/><polyline class="cls-1" points="500.15 198.88 503.62 196.88 507.08 198.88"/><line class="cls-1" x1="537.2" y1="287.28" x2="537.2" y2="291.28"/><line class="cls-9" x1="537.2" y1="295.97" x2="537.2" y2="354.6"/><polyline class="cls-1" points="537.2 356.95 537.2 360.95 533.74 358.95"/><line class="cls-10" x1="529.87" y1="356.72" x2="491.64" y2="334.64"/><line class="cls-1" x1="489.71" y1="333.53" x2="486.25" y2="331.53"/><polyline class="cls-1" points="689 344.37 692.47 346.37 689 348.37"/><line class="cls-11" x1="686.81" y1="349.63" x2="682.22" y2="352.28"/><polyline class="cls-1" points="681.12 352.92 677.66 354.92 674.2 352.91"/><polyline class="cls-1" points="669.49 350.19 666.03 348.19 666.03 344.19"/><line class="cls-12" x1="666.03" y1="341.66" x2="666.03" y2="336.35"/><polyline class="cls-1" points="666.03 335.09 666.03 331.09 669.49 333.09"/><line class="cls-13" x1="674.91" y1="336.22" x2="686.29" y2="342.8"/><polyline class="cls-1" points="547.46 264.62 550.92 266.62 548.71 269.95"/><line class="cls-14" x1="546.12" y1="273.84" x2="540.7" y2="282.01"/><polyline class="cls-1" points="539.41 283.95 537.2 287.28 533.73 285.28"/><line class="cls-15" x1="529.87" y1="283.05" x2="491.64" y2="260.98"/><polyline class="cls-1" points="489.71 259.86 486.25 257.86 488.46 254.53"/><line class="cls-16" x1="491.05" y1="250.64" x2="496.47" y2="242.48"/><polyline class="cls-1" points="497.77 240.53 499.98 237.2 503.44 239.2"/><line class="cls-17" x1="507.31" y1="241.43" x2="545.53" y2="263.5"/><line class="cls-1" x1="692.46" y1="346.37" x2="692.46" y2="342.37"/><line class="cls-18" x1="692.46" y1="337.54" x2="692.47" y2="314.83"/><line class="cls-1" x1="692.47" y1="312.42" x2="692.47" y2="308.42"/><line class="cls-1" x1="677.65" y1="354.91" x2="677.65" y2="350.91"/><line class="cls-19" x1="677.65" y1="346.08" x2="677.65" y2="323.38"/><line class="cls-1" x1="677.65" y1="320.97" x2="677.65" y2="316.97"/><polyline class="cls-1" points="750.43 111.76 753.9 113.76 750.43 115.76"/><line class="cls-20" x1="745.95" y1="118.35" x2="596.5" y2="204.63"/><polyline class="cls-1" points="594.26 205.92 590.79 207.92 587.33 205.92"/><line class="cls-21" x1="582.84" y1="203.33" x2="433.41" y2="117.05"/><polyline class="cls-1" points="431.17 115.75 427.7 113.75 431.17 111.75"/><line class="cls-22" x1="435.65" y1="109.16" x2="585.05" y2="22.86"/><polyline class="cls-1" points="587.29 21.57 590.75 19.57 594.22 21.57"/><line class="cls-23" x1="598.4" y1="23.98" x2="748.35" y2="110.56"/><line class="cls-1" x1="427.7" y1="113.75" x2="427.7" y2="117.75"/><line class="cls-24" x1="427.7" y1="120.29" x2="427.7" y2="125.61"/><polyline class="cls-1" points="427.7 126.87 427.7 130.87 431.16 132.87"/><line class="cls-25" x1="435.82" y1="135.57" x2="445.61" y2="141.22"/><line class="cls-1" x1="447.94" y1="142.56" x2="451.41" y2="144.56"/><line class="cls-1" x1="513.3" y1="180.3" x2="516.76" y2="182.3"/><line class="cls-26" x1="521.01" y1="184.75" x2="585.21" y2="221.82"/><polyline class="cls-1" points="587.33 223.05 590.8 225.05 590.8 225.04 590.8 225.01 590.8 221.05"/><line class="cls-24" x1="590.8" y1="218.51" x2="590.8" y2="213.19"/><line class="cls-1" x1="590.8" y1="211.93" x2="590.8" y2="207.93"/><line class="cls-1" x1="753.9" y1="113.76" x2="753.89" y2="117.76"/><line class="cls-27" x1="753.88" y1="120.29" x2="753.87" y2="125.59"/><polyline class="cls-1" points="753.87 126.85 753.86 130.85 750.39 132.85"/><polyline class="cls-28" points="745.91 135.44 650.33 190.65 650.09 190.79 617.69 209.5 610.17 213.85 596.5 221.74"/><polyline class="cls-1" points="594.26 223.04 590.85 225.01 590.82 225.03 590.79 225.04 590.79 221.04"/><line class="cls-29" x1="590.79" y1="218.51" x2="590.79" y2="213.19"/><polyline class="cls-1" points="590.79 211.92 590.79 207.92 590.82 207.91 594.26 205.92"/><line class="cls-30" x1="598.85" y1="203.27" x2="644.29" y2="177.04"/><line class="cls-1" x1="646.59" y1="175.71" x2="650.05" y2="173.71"/><polyline class="cls-1" points="607.08 98.18 610.54 100.18 608.54 103.64"/><polyline class="cls-31" points="606.81 106.64 606.76 106.72 603.17 112.93"/><polyline class="cls-1" points="602.31 114.43 600.3 117.89 601.28 118.45 597.82 120.45"/><polyline class="cls-1" points="595.55 121.76 592.09 123.76 592.09 123.77 592.07 123.77 588.62 121.78"/><line class="cls-32" x1="585.02" y1="119.7" x2="568.11" y2="109.93"/><polyline class="cls-1" points="566.31 108.89 562.85 106.89 566.31 104.89"/><polyline class="cls-33" points="570.95 102.21 592.5 89.76 592.51 89.76 604.76 96.84"/><polyline class="cls-1" points="621.22 252.14 621.22 256.14 617.75 254.13"/><polyline class="cls-1" points="617.64 254.07 614.18 252.07 608.4 255.41 608.4 257.36 606.43 256.22 606.43 252.22"/><polyline class="cls-34" points="606.43 246.94 606.43 224.18 610.17 213.89 610.17 213.88 610.18 213.85 611.79 209.41"/><polyline class="cls-1" points="612.68 206.93 614.05 203.17 616.04 206.63"/><polyline class="cls-35" points="618.7 211.25 621.22 215.63 621.22 249.47"/><line class="cls-1" x1="486.24" y1="331.52" x2="486.24" y2="327.52"/><line class="cls-36" x1="486.24" y1="322.83" x2="486.24" y2="264.21"/><line class="cls-1" x1="486.24" y1="261.86" x2="486.24" y2="257.86"/><line class="cls-1" x1="863.99" y1="236.89" x2="863.99" y2="240.89"/><polyline class="cls-1" points="863.99 243.41 863.99 247.29 863.99 247.41 863.9 247.35 863.89 247.35 860.53 249.29"/><line class="cls-37" x1="857.04" y1="251.3" x2="849.72" y2="255.53"/><polyline class="cls-1" points="847.98 256.54 844.52 258.54 844.52 258.69 844.39 258.61 841.05 256.69"/><line class="cls-1" x1="839.07" y1="255.54" x2="835.61" y2="253.55"/><line class="cls-1" x1="888.76" y1="280.52" x2="892.22" y2="282.53"/><polyline class="cls-38" points="896.46 284.99 940.71 310.67 1020.01 304.86 1081.13 340.43"/><line class="cls-1" x1="1083.25" y1="341.66" x2="1086.71" y2="343.67"/><line class="cls-1" x1="844.52" y1="258.54" x2="844.52" y2="254.54"/><polyline class="cls-39" points="844.52 250.52 844.52 236.16 844.52 231.66"/><line class="cls-1" x1="844.52" y1="229.65" x2="844.52" y2="225.65"/><line class="cls-1" x1="725.98" y1="245.72" x2="729.44" y2="247.72"/><line class="cls-1" x1="733.84" y1="250.26" x2="737.31" y2="252.26"/><line class="cls-1" x1="725.98" y1="245.72" x2="729.44" y2="247.72"/><line class="cls-1" x1="733.84" y1="250.26" x2="737.31" y2="252.26"/><line class="cls-1" x1="737.31" y1="269.35" x2="733.84" y2="267.35"/><line class="cls-40" x1="728.51" y1="264.27" x2="717.31" y2="257.81"/><line class="cls-1" x1="714.64" y1="256.27" x2="711.18" y2="254.27"/><line class="cls-1" x1="718.8" y1="172.88" x2="722.27" y2="174.88"/><line class="cls-41" x1="727.6" y1="177.95" x2="738.8" y2="184.42"/><line class="cls-1" x1="741.46" y1="185.96" x2="744.93" y2="187.96"/><line class="cls-1" x1="718.8" y1="172.88" x2="722.27" y2="174.88"/><line class="cls-41" x1="727.6" y1="177.95" x2="738.8" y2="184.42"/><line class="cls-1" x1="741.46" y1="185.96" x2="744.93" y2="187.96"/><line class="cls-1" x1="737.3" y1="208.97" x2="733.84" y2="206.97"/><line class="cls-42" x1="728.51" y1="203.88" x2="717.31" y2="197.42"/><line class="cls-1" x1="714.64" y1="195.87" x2="711.18" y2="193.87"/><polygon class="cls-1" points="590.82 435.55 590.82 452.67 427.72 358.5 427.72 341.38 590.82 435.55"/><polygon class="cls-1" points="753.92 341.39 753.88 358.48 590.82 452.67 590.82 435.55 753.92 341.39"/><polyline class="cls-1" points="692.47 305.91 753.92 341.39 590.82 435.55 427.72 341.38 590.78 247.19 608.4 257.36"/><line class="cls-2" x1="674.51" y1="404.27" x2="730.06" y2="436.02"/><line class="cls-2" x1="659.98" y1="412.65" x2="744.93" y2="461.74"/><ellipse class="cls-2" cx="926" cy="481.73" rx="5.99" ry="3.46"/><ellipse class="cls-2" cx="734.3" cy="438.46" rx="5.99" ry="3.46"/><ellipse class="cls-2" cx="749.11" cy="464.22" rx="5.99" ry="3.46"/><ellipse class="cls-2" cx="772.06" cy="546.61" rx="5.99" ry="3.46"/><polyline class="cls-2" points="768.63 544.6 700.63 505.34 700.64 453.92 644.64 421.58"/><polyline class="cls-2" points="688.73 396.06 773.97 445.28 818.5 419.58 921.07 478.59"/></g></g></g></g></svg>