<svg xmlns="http://www.w3.org/2000/svg" viewBox="0 0 1087.21 664.47"><defs><style>.cls-1,.cls-10,.cls-11,.cls-12,.cls-13,.cls-14,.cls-15,.cls-16,.cls-17,.cls-18,.cls-19,.cls-2,.cls-20,.cls-21,.cls-22,.cls-23,.cls-24,.cls-25,.cls-26,.cls-27,.cls-28,.cls-29,.cls-3,.cls-30,.cls-31,.cls-32,.cls-33,.cls-34,.cls-35,.cls-36,.cls-37,.cls-38,.cls-39,.cls-4,.cls-40,.cls-41,.cls-42,.cls-43,.cls-44,.cls-45,.cls-46,.cls-47,.cls-48,.cls-49,.cls-5,.cls-50,.cls-51,.cls-52,.cls-53,.cls-54,.cls-55,.cls-56,.cls-57,.cls-6,.cls-7,.cls-8,.cls-9{fill:none;stroke-linejoin:round;}.cls-1,.cls-10,.cls-11,.cls-12,.cls-13,.cls-14,.cls-15,.cls-16,.cls-17,.cls-18,.cls-19,.cls-2,.cls-20,.cls-21,.cls-22,.cls-23,.cls-24,.cls-25,.cls-26,.cls-27,.cls-28,.cls-29,.cls-3,.cls-30,.cls-31,.cls-32,.cls-33,.cls-34,.cls-35,.cls-36,.cls-37,.cls-38,.cls-39,.cls-4,.cls-40,.cls-41,.cls-42,.cls-43,.cls-44,.cls-45,.cls-46,.cls-47,.cls-48,.cls-49,.cls-5,.cls-50,.cls-51,.cls-52,.cls-53,.cls-54,.cls-55,.cls-56,.cls-6,.cls-7,.cls-8,.cls-9{stroke:#363a4d;}.cls-1,.cls-10,.cls-11,.cls-12,.cls-13,.cls-14,.cls-15,.cls-16,.cls-17,.cls-18,.cls-19,.cls-2,.cls-20,.cls-21,.cls-22,.cls-23,.cls-24,.cls-25,.cls-26,.cls-27,.cls-28,.cls-29,.cls-3,.cls-30,.cls-31,.cls-32,.cls-33,.cls-34,.cls-35,.cls-36,.cls-37,.cls-38,.cls-39,.cls-4,.cls-40,.cls-41,.cls-42,.cls-43,.cls-44,.cls-45,.cls-46,.cls-47,.cls-48,.cls-49,.cls-5,.cls-50,.cls-51,.cls-52,.cls-53,.cls-54,.cls-56,.cls-57,.cls-6,.cls-7,.cls-8,.cls-9{stroke-linecap:round;}.cls-2{stroke-dasharray:8.47 6.35;}.cls-3{stroke-dasharray:8.47 6.35;}.cls-4{stroke-dasharray:8.47 6.35;}.cls-5{stroke-dasharray:8.47 6.35;}.cls-6{stroke-dasharray:6.72 5.04;}.cls-7{stroke-dasharray:7.12 5.34;}.cls-8{stroke-dasharray:7.92 5.94;}.cls-9{stroke-dasharray:8.01 6.01;}.cls-10{stroke-dasharray:7.05 5.29;}.cls-11{stroke-dasharray:7.17 5.38;}.cls-12{stroke-dasharray:8.29 6.22;}.cls-13{stroke-dasharray:9.1 6.82;}.cls-14{stroke-dasharray:7.26 5.45;}.cls-15{stroke-dasharray:8.08 6.06;}.cls-16{stroke-dasharray:7.63 5.72;}.cls-17{stroke-dasharray:8.21 6.16;}.cls-18{stroke-dasharray:8.29 6.22;}.cls-19{stroke-dasharray:8.29 6.22;}.cls-20{stroke-dasharray:7.77 5.82;}.cls-21{stroke-dasharray:7.8 5.85;}.cls-22{stroke-dasharray:8.57 6.43;}.cls-23{stroke-dasharray:8.29 6.22;}.cls-24{stroke-dasharray:8.29 6.22;}.cls-25{stroke-dasharray:7.64 5.73;}.cls-26{stroke-dasharray:6.43 4.82;}.cls-27{stroke-dasharray:7.37 5.53;}.cls-28{stroke-dasharray:8.29 6.22;}.cls-29{stroke-dasharray:8.29 6.22;}.cls-30{stroke-dasharray:7.32 5.49;}.cls-31{stroke-dasharray:6.09 4.57;}.cls-32{stroke-dasharray:8.29 6.22;}.cls-33{stroke-dasharray:8.29 6.22;}.cls-34{stroke-dasharray:7.8 5.85;}.cls-35{stroke-dasharray:7.81 5.86;}.cls-36{stroke-dasharray:7.8 5.85;}.cls-37{stroke-dasharray:7.8 5.85;}.cls-38{stroke-dasharray:7.81 5.86;}.cls-39{stroke-dasharray:7.8 5.85;}.cls-40{stroke-dasharray:7.8 5.85;}.cls-41{stroke-dasharray:7.99 5.99;}.cls-42{stroke-dasharray:7.24 5.43;}.cls-43{stroke-dasharray:7.19 5.39;}.cls-44{stroke-dasharray:7.8 5.85;}.cls-45{stroke-dasharray:8.99 6.74;}.cls-46{stroke-dasharray:8.26 6.19;}.cls-47{stroke-dasharray:6.93 5.19;}.cls-48{stroke-dasharray:6.92 5.19;}.cls-49{stroke-dasharray:6.93 5.2;}.cls-50{stroke-dasharray:8.2 6.15;}.cls-51{stroke-dasharray:7.05 5.29;}.cls-52{stroke-dasharray:7.04 5.28;}.cls-53{stroke-dasharray:9.01 6.76;}.cls-54{stroke-dasharray:7.05 5.29;}.cls-56{stroke-dasharray:8 6;}.cls-57{stroke:#7e39d7;}</style></defs><title>Asset 3</title><g id="Layer_2" data-name="Layer 2"><g id="A1"><g id="right"><g id="dash"><line class="cls-1" x1="549.03" y1="400.91" x2="549.03" y2="404.91"/><line class="cls-2" x1="549.03" y1="411.27" x2="549.03" y2="467.4"/><polyline class="cls-1" points="549.03 470.58 549.03 474.58 552.49 472.58"/><line class="cls-3" x1="557.99" y1="469.4" x2="593.76" y2="448.75"/><line class="cls-1" x1="596.51" y1="447.16" x2="599.98" y2="445.16"/><polyline class="cls-1" points="597.77 368.16 599.98 371.49 596.52 373.49"/><polyline class="cls-4" points="591.02 376.67 590.88 376.75 576.05 385.31 556.93 396.35 555.25 397.32"/><polyline class="cls-1" points="552.5 398.91 549.03 400.91 546.82 397.58"/><polyline class="cls-1" points="541.42 389.45 539.21 386.12 539.2 386.12 539.17 386.07 535.3 380.25 538.76 378.25"/><polyline class="cls-5" points="544.27 375.07 551.3 371.01 551.34 370.99 566.12 362.45 580.03 354.42"/><polyline class="cls-1" points="582.78 352.83 586.24 350.83 588.46 354.16"/><line class="cls-6" x1="591.25" y1="358.36" x2="596.37" y2="366.06"/><line class="cls-1" x1="599.98" y1="382" x2="599.98" y2="386"/><polyline class="cls-7" points="599.98 391.34 599.98 399.12 599.98 421.21 599.98 438.48"/><line class="cls-1" x1="599.98" y1="441.15" x2="599.98" y2="445.15"/><path class="cls-1" d="M414.27,274.69l3.46,2c-1.13.75-2.23,1.51-3.3,2.27"/><path class="cls-1" d="M408,283.85c-1.06.85-2.08,1.71-3.07,2.56l-3.46-2"/><line class="cls-8" x1="396.29" y1="281.44" x2="338.83" y2="248.26"/><polyline class="cls-1" points="336.26 246.77 332.79 244.77 332.79 240.77"/><polyline class="cls-1" points="332.79 231.65 332.79 227.65 336.26 229.65"/><line class="cls-9" x1="341.46" y1="232.65" x2="411.67" y2="273.19"/><path class="cls-1" d="M418.07,281c1.08-.75,2.18-1.49,3.32-2.23l3.31,1.91c-1.14.72-2.26,1.45-3.36,2.18"/><path class="cls-1" d="M414.61,287.72c-1.08.82-2.13,1.65-3.15,2.47l-3.06-1.76c1-.84,2-1.69,3.1-2.53"/><polyline class="cls-1" points="492.42 319.82 495.88 321.82 495.88 325.82"/><polyline class="cls-1" points="495.88 334.94 495.88 338.94 492.42 336.94"/><line class="cls-10" x1="487.84" y1="334.3" x2="447.4" y2="310.94"/><path class="cls-1" d="M445.11,309.62l-3.47-2a38.24,38.24,0,0,1,2.11-3.39"/><path class="cls-1" d="M448.54,298.76a27.61,27.61,0,0,1,3.15-2.46l3.47,2"/><line class="cls-11" x1="459.81" y1="300.99" x2="490.09" y2="318.48"/><polyline class="cls-1" points="655.53 225.66 658.99 227.66 655.53 229.66"/><line class="cls-12" x1="650.14" y1="232.77" x2="502.04" y2="318.27"/><polyline class="cls-1" points="499.35 319.82 495.88 321.82 492.42 319.82"/><line class="cls-11" x1="487.76" y1="317.13" x2="457.49" y2="299.65"/><path class="cls-1" d="M455.16,298.3l-3.47-2c.28-.19,1.91-1.16,2-1.22.51-.27,1-.51,1.47-.73"/><path class="cls-13" d="M461.77,292.78c6.86.15,9.16,6.85,9.16,6.85V300"/><polyline class="cls-1" points="470.93 303.4 470.93 307.4 474.4 305.4"/><line class="cls-14" x1="479.11" y1="302.68" x2="498.77" y2="291.32"/><polyline class="cls-1" points="501.13 289.96 504.59 287.96 504.59 283.96"/><polyline class="cls-1" points="504.59 280.3 504.59 276.3 501.15 274.27"/><path class="cls-1" d="M501.12,274.25l-3.45-2a53.76,53.76,0,0,1,6.51.86V271.6l-3.46-2"/><path class="cls-15" d="M494.71,269c-.85,0-1.74-.06-2.66-.07l-7.41-4.38s-21.45-5.62-53.9,12.61"/><path class="cls-1" d="M428.11,278.63c-1.16.69-2.29,1.39-3.41,2.09l-3.31-1.91c1-.67,2.05-1.33,3.11-2l.27-.16"/><path class="cls-16" d="M429.71,273.78c19-10.54,34.21-12.9,43.94-12.94h.17c1.46,0,2.83.05,4.11.14"/><path class="cls-1" d="M480.78,261.24c1.46.17,2.78.39,4,.62v-1.47l-3.46-2"/><path class="cls-17" d="M475.16,257.74c-.92-.05-1.87-.07-2.87-.07h-.11c-10.57,0-27.46,2.71-48.46,15.25"/><path class="cls-1" d="M421.09,274.52c-1.15.72-2.27,1.44-3.36,2.17l-3.46-2"/><line class="cls-9" x1="409.07" y1="271.69" x2="338.86" y2="231.15"/><polyline class="cls-1" points="336.26 229.65 332.79 227.65 336.26 225.65"/><polyline class="cls-18" points="341.64 222.54 385.96 196.93 398.07 189.94 489.69 137.02"/><polyline class="cls-1" points="492.38 135.46 495.84 133.46 499.31 135.46"/><line class="cls-19" x1="504.69" y1="138.57" x2="652.84" y2="224.11"/><polyline class="cls-1" points="655.53 229.66 658.99 227.66 658.98 231.66"/><polyline class="cls-1" points="658.96 240.75 658.95 244.75 655.49 246.75"/><line class="cls-20" x1="650.44" y1="249.66" x2="641.2" y2="255"/><polyline class="cls-1" points="638.67 256.46 635.21 258.46 632.64 256.98 629.18 258.98"/><line class="cls-21" x1="624.11" y1="261.91" x2="579.34" y2="287.76"/><polyline class="cls-1" points="576.81 289.22 573.34 291.22 573.34 294.2 569.88 296.2"/><line class="cls-22" x1="564.31" y1="299.42" x2="502.13" y2="335.33"/><polyline class="cls-1" points="499.35 336.94 495.88 338.94 495.88 334.94"/><polyline class="cls-1" points="495.88 325.82 495.88 321.82 499.35 319.82"/><line class="cls-23" x1="504.73" y1="316.71" x2="652.83" y2="231.21"/><polyline class="cls-1" points="852.55 339.5 856.01 341.5 852.55 343.5"/><line class="cls-24" x1="847.16" y1="346.61" x2="699.07" y2="432.1"/><polyline class="cls-1" points="696.38 433.66 692.91 435.66 689.45 433.66"/><line class="cls-25" x1="684.49" y1="430.79" x2="605.93" y2="385.43"/><polyline class="cls-1" points="603.45 384 599.98 382 599.98 378"/><polyline class="cls-26" points="599.98 373.18 599.98 371.49 589.79 356.17"/><polyline class="cls-1" points="588.46 354.16 586.24 350.83 582.78 352.83"/><polyline class="cls-27" points="577.99 355.6 566.12 362.45 566.11 362.45 535.68 344.87"/><polyline class="cls-1" points="533.28 343.49 529.82 341.49 533.28 339.49"/><line class="cls-28" x1="538.67" y1="336.38" x2="686.72" y2="250.86"/><polyline class="cls-1" points="689.41 249.3 692.87 247.3 696.34 249.3"/><line class="cls-29" x1="701.72" y1="252.41" x2="849.85" y2="337.94"/><polyline class="cls-1" points="582.78 352.83 586.24 350.83 588.46 354.16"/><polyline class="cls-26" points="591.13 358.18 599.98 371.49 599.98 375.59"/><polyline class="cls-1" points="599.98 378 599.98 382 596.52 380"/><polyline class="cls-30" points="591.76 377.26 590.88 376.75 571.96 365.82"/><polyline class="cls-1" points="569.59 364.45 566.12 362.45 569.59 360.45"/><line class="cls-31" x1="573.54" y1="358.16" x2="580.8" y2="353.97"/><line class="cls-1" x1="692.91" y1="435.66" x2="692.91" y2="439.66"/><polyline class="cls-1" points="692.91 448.78 692.91 452.78 689.45 450.78"/><polyline class="cls-32" points="684.06 447.67 599.98 399.12 576.05 385.31 551.3 371.01 535.98 362.16"/><polyline class="cls-1" points="533.29 360.61 529.82 358.61 529.82 354.61"/><line class="cls-1" x1="529.82" y1="345.49" x2="529.82" y2="341.49"/><polyline class="cls-1" points="852.55 343.5 856.01 341.5 856 345.5"/><polyline class="cls-1" points="855.98 354.59 855.97 358.59 852.51 360.59"/><line class="cls-33" x1="847.12" y1="363.7" x2="699.07" y2="449.22"/><polyline class="cls-1" points="696.38 450.78 692.91 452.78 692.91 448.78"/><polyline class="cls-1" points="692.91 439.66 692.91 435.66 696.38 433.66"/><line class="cls-24" x1="701.76" y1="430.55" x2="849.85" y2="345.05"/><polyline class="cls-1" points="491.48 175.39 494.94 177.39 491.48 179.39"/><line class="cls-34" x1="486.41" y1="182.31" x2="441.67" y2="208.14"/><polyline class="cls-1" points="439.14 209.61 435.68 211.61 435.68 211.66 432.21 209.66"/><polyline class="cls-35" points="427.14 206.73 398.04 189.93 382.34 180.86"/><polyline class="cls-1" points="379.81 179.4 376.34 177.4 379.81 175.4"/><line class="cls-36" x1="384.87" y1="172.47" x2="429.64" y2="146.62"/><polyline class="cls-1" points="432.17 145.16 435.63 143.16 439.1 145.16"/><line class="cls-37" x1="444.17" y1="148.08" x2="488.94" y2="173.93"/><line class="cls-1" x1="435.64" y1="168.28" x2="439.1" y2="170.28"/><line class="cls-37" x1="444.17" y1="173.21" x2="488.94" y2="199.05"/><polyline class="cls-1" points="491.48 200.51 494.94 202.51 491.48 204.51"/><line class="cls-34" x1="486.41" y1="207.43" x2="441.67" y2="233.26"/><polyline class="cls-1" points="439.14 234.73 435.68 236.73 435.68 236.78 432.21 234.78"/><line class="cls-35" x1="427.14" y1="231.85" x2="382.34" y2="205.98"/><line class="cls-1" x1="379.81" y1="204.52" x2="376.34" y2="202.52"/><polyline class="cls-1" points="432.21 209.66 435.68 211.66 435.68 215.66"/><polyline class="cls-1" points="435.68 221.64 435.68 225.64 432.21 223.64"/><polyline class="cls-38" points="427.14 220.71 385.94 196.93 382.34 194.85"/><polyline class="cls-1" points="379.8 193.38 376.34 191.38 376.34 187.38"/><polyline class="cls-1" points="376.34 181.4 376.34 177.4 379.81 179.4"/><polyline class="cls-35" points="384.88 182.33 398.04 189.93 429.68 208.19"/><polyline class="cls-1" points="494.97 187.4 494.98 191.4 494.97 191.41 491.52 193.4"/><polyline class="cls-39" points="486.45 196.33 485.34 196.97 485.33 196.97 441.67 222.18"/><polyline class="cls-1" points="439.14 223.64 435.68 225.64 435.68 221.64"/><polyline class="cls-1" points="435.68 215.61 435.68 211.61 439.14 209.61"/><line class="cls-40" x1="444.2" y1="206.68" x2="488.95" y2="180.85"/><polyline class="cls-1" points="491.48 179.38 494.94 177.39 494.95 177.39 494.96 181.39"/><polyline class="cls-1" points="743.35 7.31 743.08 7.47 739.89 9.32"/><line class="cls-41" x1="734.7" y1="12.32" x2="616.23" y2="80.87"/><polyline class="cls-1" points="613.64 82.37 610.18 84.38 610.18 88.38"/><line class="cls-42" x1="610.18" y1="93.8" x2="610.19" y2="129.08"/><polyline class="cls-1" points="610.19 131.79 610.19 135.79 606.72 137.79"/><line class="cls-43" x1="602.06" y1="140.49" x2="560.83" y2="164.3"/><polyline class="cls-1" points="558.49 165.65 555.04 167.65 555.03 167.65"/><line class="cls-1" x1="282.6" y1="270.68" x2="282.6" y2="266.68"/><polyline class="cls-44" points="282.6 260.83 282.6 256.65 282.6 256.6 282.6 224.59 277.34 210.09"/><polyline class="cls-1" points="276.34 207.35 274.98 203.59 272.98 207.05"/><polyline class="cls-45" points="269.62 212.89 267.8 216.05 267.8 256.22"/><line class="cls-1" x1="267.8" y1="259.59" x2="267.8" y2="263.59"/><line class="cls-1" x1="198.2" y1="394.58" x2="194.74" y2="396.59"/><polyline class="cls-46" points="189.38 399.69 146.5 424.57 67.2 418.76 6.63 454"/><line class="cls-1" x1="3.96" y1="455.56" x2="0.5" y2="457.57"/><line class="cls-1" x1="211.35" y1="354.82" x2="211.36" y2="350.82"/><line class="cls-47" x1="211.36" y1="345.63" x2="211.36" y2="323.98"/><line class="cls-1" x1="211.36" y1="321.39" x2="211.36" y2="317.39"/><polyline class="cls-1" points="217.79 313.68 221.25 311.68 221.25 315.68"/><line class="cls-48" x1="221.25" y1="320.87" x2="221.25" y2="342.51"/><polyline class="cls-1" points="221.25 345.1 221.25 349.1 217.79 351.1"/><polyline class="cls-1" points="214.81 352.82 211.36 354.81 211.35 354.82 207.89 352.82"/><polyline class="cls-1" points="200.02 348.29 196.55 346.29 196.55 342.29"/><line class="cls-49" x1="196.55" y1="337.1" x2="196.55" y2="315.44"/><polyline class="cls-1" points="196.55 312.84 196.55 308.84 200.02 310.84"/><polyline class="cls-1" points="207.9 315.39 211.36 317.39 214.83 315.39"/><line class="cls-1" x1="221.26" y1="332.03" x2="217.79" y2="334.03"/><line class="cls-50" x1="212.46" y1="337.1" x2="202.7" y2="342.74"/><line class="cls-1" x1="200.03" y1="344.27" x2="196.57" y2="346.27"/><polyline class="cls-1" points="416.75 425.87 420.21 423.87 420.21 427.87"/><line class="cls-51" x1="420.21" y1="433.16" x2="420.21" y2="455.2"/><polyline class="cls-1" points="420.21 457.84 420.21 461.84 416.75 463.84"/><polyline class="cls-1" points="412.02 466.56 408.55 468.56 405.09 466.56"/><polyline class="cls-1" points="397.24 462.01 393.77 460.01 393.77 456.01"/><line class="cls-52" x1="393.77" y1="450.73" x2="393.77" y2="428.71"/><polyline class="cls-1" points="393.77 426.07 393.77 422.07 397.24 424.07"/><polyline class="cls-1" points="405.09 428.61 408.55 430.61 412.02 428.61"/><line class="cls-1" x1="420.21" y1="444.76" x2="416.74" y2="446.76"/><line class="cls-53" x1="410.89" y1="450.14" x2="400.16" y2="456.33"/><line class="cls-1" x1="397.23" y1="458.02" x2="393.77" y2="460.02"/><line class="cls-1" x1="408.56" y1="430.61" x2="408.56" y2="434.61"/><line class="cls-54" x1="408.56" y1="439.89" x2="408.56" y2="461.92"/><line class="cls-1" x1="408.56" y1="464.56" x2="408.56" y2="468.56"/><polyline class="cls-1" points="688.5 289.2 691.96 291.2 688.5 293.2"/><line class="cls-34" x1="683.43" y1="296.12" x2="638.69" y2="321.96"/><polyline class="cls-1" points="636.16 323.42 632.7 325.42 632.7 325.47 629.23 323.47"/><polyline class="cls-35" points="624.16 320.54 595.06 303.74 579.36 294.67"/><polyline class="cls-1" points="576.83 293.21 573.36 291.21 576.83 289.21"/><line class="cls-36" x1="581.89" y1="286.28" x2="626.66" y2="260.43"/><polyline class="cls-1" points="629.19 258.97 632.66 256.97 636.12 258.97"/><line class="cls-37" x1="641.19" y1="261.9" x2="685.96" y2="287.74"/><line class="cls-1" x1="632.66" y1="282.09" x2="636.12" y2="284.09"/><line class="cls-37" x1="641.19" y1="287.02" x2="685.96" y2="312.86"/><polyline class="cls-1" points="688.5 314.32 691.96 316.32 688.5 318.32"/><line class="cls-34" x1="683.43" y1="321.24" x2="638.69" y2="347.08"/><polyline class="cls-1" points="636.16 348.54 632.7 350.54 632.7 350.59 629.23 348.59"/><line class="cls-35" x1="624.16" y1="345.66" x2="579.36" y2="319.79"/><line class="cls-1" x1="576.83" y1="318.33" x2="573.36" y2="316.33"/><polyline class="cls-1" points="629.23 323.47 632.7 325.47 632.7 329.47"/><polyline class="cls-1" points="632.7 335.45 632.7 339.45 629.23 337.45"/><polyline class="cls-38" points="624.16 334.52 582.96 310.74 579.36 308.66"/><polyline class="cls-1" points="576.83 307.19 573.36 305.19 573.36 301.19"/><polyline class="cls-1" points="573.36 295.21 573.36 291.21 576.83 293.21"/><polyline class="cls-35" points="581.9 296.14 595.06 303.74 626.7 322"/><polyline class="cls-1" points="691.99 301.21 692 305.21 691.99 305.22 688.54 307.21"/><polyline class="cls-39" points="683.47 310.14 682.36 310.78 682.35 310.78 638.7 335.99"/><polyline class="cls-1" points="636.16 337.45 632.7 339.45 632.7 335.45"/><polyline class="cls-1" points="632.7 329.42 632.7 325.42 636.16 323.42"/><line class="cls-40" x1="641.23" y1="320.49" x2="685.97" y2="294.66"/><polyline class="cls-1" points="688.5 293.19 691.96 291.2 691.97 291.2 691.98 295.2"/><ellipse class="cls-55" cx="883.46" cy="97.12" rx="5.99" ry="3.46"/><ellipse class="cls-55" cx="660.22" cy="158.61" rx="5.99" ry="3.46"/><ellipse class="cls-55" cx="675.02" cy="132.85" rx="5.99" ry="3.46"/><ellipse class="cls-55" cx="691.18" cy="106.29" rx="5.99" ry="3.46"/><polyline class="cls-55" points="613.7 201.51 700.73 151.31 745.25 177.01 879.38 99.78"/><polyline class="cls-55" points="599.48 193.3 655.98 161.05 656.46 160.78"/><polyline class="cls-55" points="584.95 184.92 670.84 135.33 671.3 135.07"/><line class="cls-55" x1="570.11" y1="176.34" x2="686.85" y2="108.94"/><polyline class="cls-55" points="942.39 120.23 942.12 120.39 809.22 197.3 809.23 248.71 752.24 281.47"/><ellipse class="cls-55" cx="946.22" cy="117.86" rx="5.99" ry="3.46"/></g><g id="line"><polyline class="cls-55" points="212.42 402.8 156.48 434.72 156 434.99"/><polyline class="cls-55" points="226.95 411.18 141.61 460.44 141.16 460.7"/><ellipse class="cls-55" cx="152.24" cy="437.16" rx="5.99" ry="3.46"/><ellipse class="cls-55" cx="137.43" cy="462.92" rx="5.99" ry="3.46"/><ellipse class="cls-55" cx="114.49" cy="545.31" rx="5.99" ry="3.46"/><polyline class="cls-55" points="119.06 542.61 187.06 503.35 187.05 451.94 242.2 420.08"/><ellipse class="cls-55" cx="888.43" cy="220.19" rx="5.99" ry="3.46"/><ellipse class="cls-55" cx="1080.71" cy="211.02" rx="5.99" ry="3.46"/><ellipse class="cls-55" cx="857.47" cy="272.51" rx="5.99" ry="3.46"/><ellipse class="cls-55" cx="872.27" cy="246.75" rx="5.99" ry="3.46"/><ellipse class="cls-55" cx="748.97" cy="3.96" rx="5.99" ry="3.46"/><path class="cls-1" d="M470.93,299.63v7.77l-19.24-11.1c.28-.19,1.91-1.16,2-1.22C466.91,288,470.93,299.63,470.93,299.63Z"/><path class="cls-1" d="M484.73,260.39v1.47a55.38,55.38,0,0,0-10.91-1h-.17c-10.61,0-27.76,2.84-49.15,16-1.06.65-2.1,1.31-3.11,2a127.43,127.43,0,0,0-13,9.62,111,111,0,0,0-14,14.07,92.28,92.28,0,0,0-8.66,12.34,84.05,84.05,0,0,0-4.28,8.38l-1.76-1.05-1.39-.82a81.59,81.59,0,0,1,4.43-8.82,93.69,93.69,0,0,1,8.3-12,110.71,110.71,0,0,1,13.84-14.16,127.74,127.74,0,0,1,12.83-9.72c1.4-.94,2.86-1.87,4.36-2.79,21.76-13.38,39.25-16.21,50.09-16.23h.11a58.84,58.84,0,0,1,8.84.64Z"/><polyline class="cls-55" points="810.9 315.33 896.14 266.11 940.67 291.81 1074.79 214.59"/><line class="cls-55" x1="796.68" y1="307.12" x2="853.23" y2="274.96"/><line class="cls-55" x1="782.15" y1="298.74" x2="868.09" y2="249.24"/><line class="cls-55" x1="767.31" y1="290.17" x2="884.56" y2="222.58"/><polygon class="cls-1" points="211.36 266.34 196.55 257.78 203.73 245.33 211.36 266.34"/><polygon class="cls-1" points="211.36 266.34 211.36 317.39 196.55 308.84 196.55 257.78 211.36 266.34"/><polygon class="cls-1" points="255.6 240.77 255.6 267.62 232.03 281.24 227.12 278.38 221.25 281.74 221.25 311.68 211.36 317.39 211.36 266.34 255.6 240.77"/><polygon class="cls-1" points="241.33 282.06 235.46 285.45 231.36 286.21 231.34 286.21 231.33 286.22 231.2 286.24 231.19 286.25 229.51 286.56 235.36 283.19 237.02 282.88 237.03 282.87 237.21 282.84 241.33 282.06"/><polygon class="cls-1" points="247.47 290.25 241.61 293.63 235.46 285.45 241.33 282.06 242.28 283.34 247.47 290.25"/><polygon class="cls-1" points="276.45 263.62 242.28 283.34 241.33 282.06 237.21 282.84 237.03 282.87 237.02 282.88 235.36 283.19 232.03 281.24 255.6 267.62 262.59 263.59 270.37 263.61 270.54 263.61 276.45 263.62"/><polygon class="cls-1" points="281.27 296.31 275.78 299.47 270.28 296.31 275.78 293.15 281.27 296.31"/><polygon class="cls-1" points="281.27 296.31 281.27 302.68 275.78 305.86 275.78 299.47 281.27 296.31"/><path class="cls-1" d="M504.59,276.3V288L470.93,307.4v-7.77s-4-11.68-17.22-4.55c-.11.06-1.74,1-2,1.22a32.06,32.06,0,0,0-10.05,11.32,43.27,43.27,0,0,0-4.38,11.45l-.05,8.09,0,0-33.57,19.09V334a72.88,72.88,0,0,1,6.21-9.64c.36-.5.75-1,1.15-1.53,1.71-2.22,3.73-4.68,6.09-7.29,0-.05,2.56-2.77,3.86-4.08l.79-.79.81-.79.83-.8.52-.5c.25-.24.51-.49.78-.73.61-.57,1.24-1.14,1.88-1.71l.82-.74c1.36-1.19,2.79-2.4,4.28-3.6,3.07-2.48,6.42-5,10.08-7.41.81-.54,4.4-2.81,5-3.19q1.29-.78,2.64-1.56l1.62-.92c13-7.27,24.26-10.7,33-12.21C496.74,274.36,504.29,276.23,504.59,276.3Z"/><path class="cls-1" d="M403.59,334v12.25l-19.95-11.79V322.24L398.47,331c-.25.54-.48,1.06-.69,1.57l3.15,1.86c.22-.5.45-1,.7-1.56Z"/><path class="cls-1" d="M492.05,268.89h-.42c-10.84,0-28.33,2.85-50.09,16.22q-2.27,1.39-4.38,2.8a129.26,129.26,0,0,0-12.83,9.72,111.07,111.07,0,0,0-13.82,14.16,93.37,93.37,0,0,0-8.3,12,79.46,79.46,0,0,0-3.74,7.25l-14.83-8.76s3.95-7.94,13.29-18.29a129.47,129.47,0,0,1,14.53-13.76,135.07,135.07,0,0,1,13.24-9.47c1.52-1,3.08-1.91,4.7-2.84,33.2-19.15,55.24-13.37,55.24-13.37Z"/><path class="cls-1" d="M504.59,276.3c-.3-.07-7.85-1.94-20.59.24-8.77,1.51-20,4.94-33,12.21l-1.62.92q-1.35.78-2.64,1.56c-.62.38-4.21,2.65-5,3.19-3.66,2.43-7,4.93-10.08,7.41-1.49,1.2-2.92,2.41-4.28,3.6l-.82.74c-.64.57-1.27,1.14-1.88,1.71-.27.24-.53.49-.78.73l-.52.5c-.28.26-.56.52-.83.8l-.81.79-.79.79c-1.3,1.31-3.82,4-3.86,4.08-2.36,2.61-4.38,5.07-6.09,7.29-.4.52-.79,1-1.15,1.53a72.88,72.88,0,0,0-6.21,9.64l-2-1.16c.95-2,2.13-4.31,3.58-6.82.26-.45,1.9-3.12,2.22-3.6,1-1.52,2.09-3.13,3.33-4.79l.82-1.08c.71-.93,1.47-1.88,2.27-2.85s1.77-2.1,2.72-3.17c.34-.37.67-.74,1-1.11h0c.37-.41.76-.82,1.15-1.23s.79-.83,1.2-1.24.68-.69,1-1c.21-.22.43-.43.65-.64l.85-.82c.42-.41.85-.81,1.29-1.22q1.94-1.78,4.07-3.59c.48-.4,1-.81,1.46-1.21,1-.81,2-1.62,3-2.42l1.6-1.21,1.15-.85,1.11-.8q2.22-1.57,4.62-3.14c1-.67,2.05-1.32,3.12-2,21.39-13.15,38.54-16,49.15-16h.17c1.56,0,3,.05,4.4.15Z"/><polygon class="cls-1" points="408.55 379.56 393.77 371.01 400.94 358.55 408.55 379.56"/><polygon class="cls-1" points="452.81 354 452.81 376.82 431.73 389 425.97 392.32 420.21 395.66 420.21 423.87 408.55 430.61 408.55 379.56 452.81 354"/><polygon class="cls-1" points="408.55 379.56 408.55 430.61 393.77 422.07 393.77 371.01 408.55 379.56"/><polygon class="cls-1" points="452.81 353.96 452.81 354 408.55 379.56 400.94 358.55 445.19 332.99 450.61 347.93 452.81 353.96"/><polygon class="cls-1" points="235.36 283.19 229.51 286.56 221.25 281.74 227.12 278.38 232.03 281.24 235.36 283.19"/><polygon class="cls-1" points="255.6 240.74 255.6 240.77 211.36 266.34 203.73 245.33 247.99 219.76 255.6 240.74"/><polygon class="cls-1" points="477.81 369.04 477.81 375.69 437.48 398.98 437.48 392.33 477.81 369.04"/><polygon class="cls-1" points="483.58 379.03 483.58 385.66 443.25 408.96 443.25 402.3 483.58 379.03"/><polygon class="cls-1" points="449.01 412.27 449.01 491.91 420.21 475.28 420.21 395.66 425.97 398.97 425.97 392.32 431.73 395.64 431.73 389 437.48 392.33 437.48 398.98 443.25 402.3 443.25 408.96 449.01 412.27"/><polyline class="cls-55" points="398.16 510.14 312.39 559.66 267.87 533.96 165.3 592.97"/><polyline class="cls-55" points="412.39 518.35 357.15 549.92 356.67 550.19"/><polyline class="cls-55" points="426.91 526.74 342.28 575.64 341.82 575.9"/><ellipse class="cls-55" cx="161.21" cy="595.63" rx="5.99" ry="3.46"/><ellipse class="cls-55" cx="352.91" cy="552.37" rx="5.99" ry="3.46"/><ellipse class="cls-55" cx="338.1" cy="578.13" rx="5.99" ry="3.46"/><ellipse class="cls-55" cx="315.15" cy="660.51" rx="5.99" ry="3.46"/><polyline class="cls-55" points="318.58 658.5 386.58 619.24 386.57 567.83 441.72 535.97 441.73 535.97 442.31 535.63"/><polygon class="cls-1" points="495.88 549.44 495.88 566.56 332.79 472.39 332.79 455.27 495.88 549.44"/><polygon class="cls-1" points="658.99 455.28 658.95 472.37 495.88 566.56 495.88 549.44 658.99 455.28"/><path class="cls-1" d="M504.18,271.6v1.47a53.76,53.76,0,0,0-6.51-.86c-1.37-.1-2.84-.15-4.4-.15h-.17c-10.61,0-27.76,2.84-49.15,16-1.07.66-2.11,1.31-3.12,2q-2.4,1.56-4.62,3.14l-1.11.8-1.15.85-1.6,1.21c-1,.8-2.06,1.6-3,2.42-.5.4-1,.81-1.46,1.21q-2.13,1.8-4.07,3.59c-.44.41-.87.81-1.29,1.22l-.85.82c-.22.21-.44.42-.65.64-.36.35-.71.7-1,1s-.82.83-1.2,1.24-.78.82-1.15,1.23h0c-.35.37-.68.74-1,1.11-.95,1.07-1.86,2.13-2.72,3.17s-1.56,1.92-2.27,2.85l-.82,1.08c-1.24,1.66-2.35,3.27-3.33,4.79-.32.48-2,3.15-2.22,3.6-1.45,2.51-2.63,4.78-3.58,6.82-.25.54-.48,1.06-.7,1.56l-3.15-1.86c.21-.51.44-1,.69-1.57a79.46,79.46,0,0,1,3.74-7.25,93.37,93.37,0,0,1,8.3-12,111.07,111.07,0,0,1,13.82-14.16,129.26,129.26,0,0,1,12.83-9.72q2.11-1.41,4.38-2.8c21.76-13.37,39.25-16.2,50.09-16.22h.42a60.32,60.32,0,0,1,8.52.63Z"/><path class="cls-1" d="M461.85,341.44l-11.24,6.49L445.19,333l-44.25,25.56L393.77,371v9.73l-95,54.86L135.66,341.43l60.89-35.17v2.58l14.81,8.55,9.89-5.71v48.86L249.72,377v-78.6l-8.11-4.73-6.15-8.18,5.87-3.39.95,1.28,34.17-19.72h-6.08l12.22-7.06,16.12-9.31,92.35,53.33a93.69,93.69,0,0,0-8.3,12,81.59,81.59,0,0,0-4.43,8.82l1.39.82,1.76,1.05a84.05,84.05,0,0,1,4.28-8.38,92.28,92.28,0,0,1,8.66-12.34l2.51,1.45c-9.34,10.35-13.29,18.29-13.29,18.29L398.47,331c-.25.54-.48,1.06-.69,1.57l3.15,1.86c.22-.5.45-1,.7-1.56l2,1.16v12.25l33.57-19.09Z"/><polygon class="cls-1" points="298.75 435.6 298.75 452.72 135.66 358.55 135.66 341.43 298.75 435.6"/><polygon class="cls-1" points="298.75 435.6 393.77 380.74 393.77 397.83 298.75 452.71 298.75 435.6"/><polygon class="cls-1" points="431.73 389 431.73 395.64 425.97 392.32 431.73 389"/><polygon class="cls-1" points="461.85 341.44 461.81 358.53 452.81 363.73 452.81 353.96 450.61 347.93 461.85 341.44"/><polygon class="cls-1" points="477.81 369.04 437.48 392.33 431.73 389 452.81 376.82 472.04 365.71 477.81 369.04"/><polygon class="cls-1" points="425.97 392.32 425.97 398.97 420.21 395.66 425.97 392.32"/><polygon class="cls-56" points="255.57 294.98 255.57 294.99 249.72 298.36 241.61 293.63 247.47 290.25 255.57 294.98"/><polygon class="cls-1" points="341.76 293.15 341.76 366.6 292.28 395.15 292.28 321.71 341.75 293.15 341.76 293.15"/><polygon class="cls-1" points="292.28 321.73 292.28 395.15 286.78 398.34 286.78 324.88 292.27 321.71 292.28 321.73"/><polygon class="cls-1" points="249.72 298.36 249.72 376.96 221.25 360.54 221.25 281.74 229.51 286.56 231.19 286.25 231.2 286.24 231.33 286.22 231.34 286.21 231.36 286.21 235.46 285.45 241.61 293.63 249.72 298.36"/><polygon class="cls-1" points="286.78 324.89 286.78 398.34 259.27 382.47 259.27 308.99 264.77 312.18 267.53 307.42 270.28 302.67 270.28 296.31 275.78 299.47 275.78 305.86 281.27 321.7 286.78 324.89"/><polygon class="cls-1" points="286.76 318.53 281.27 321.7 275.78 305.86 281.27 302.68 286.76 318.53"/><polygon class="cls-1" points="341.75 293.15 292.28 321.71 292.27 321.71 286.76 318.53 281.27 302.68 281.27 297.49 287.63 293.82 327.07 271.04 341.75 293.15"/><polygon class="cls-1" points="255.57 294.99 255.57 294.98 247.47 290.25 242.28 283.34 276.45 263.62 282.59 270.67 282.6 270.68 282.6 270.69 287.63 276.48 255.57 294.99"/><polygon class="cls-1" points="255.57 294.99 255.57 373.57 249.72 376.96 249.72 298.36 255.57 294.99"/><polygon class="cls-1" points="267.53 307.42 264.77 312.18 259.27 308.99 264.76 305.83 267.53 307.42"/><polygon class="cls-1" points="287.63 276.48 287.63 293.82 281.27 297.49 281.27 296.31 275.78 293.15 270.28 296.31 270.28 302.67 267.53 307.42 264.76 305.83 259.27 308.99 259.27 371.43 255.57 373.57 255.57 294.99 287.63 276.48"/><polygon class="cls-1" points="292.27 321.71 286.78 324.88 286.78 324.89 281.27 321.7 286.76 318.53 292.27 321.71"/><polygon class="cls-1" points="538.97 406.73 538.97 480.39 489.5 508.95 489.5 435.31 489.48 435.3 538.97 406.73"/><polygon class="cls-1" points="489.5 435.31 489.5 508.96 489.49 508.96 484 512.13 484 438.47 489.48 435.3 489.5 435.31"/><polygon class="cls-1" points="483.99 432.12 478.49 435.29 473 419.44 478.5 416.28 483.99 432.12"/><polygon class="cls-1" points="483.99 438.46 483.99 512.13 456.49 496.23 456.49 422.58 461.99 425.77 464.75 421.01 467.49 416.25 467.49 409.9 473 413.05 473 419.44 478.48 435.29 483.99 438.46"/><polygon class="cls-1" points="489.48 435.3 484 438.47 478.49 435.29 483.99 432.12 489.48 435.3"/><polygon class="cls-1" points="538.97 406.73 489.48 435.3 483.99 432.12 478.5 416.28 478.5 411.08 489.33 404.81 524.3 384.62 538.97 406.73"/><polygon class="cls-1" points="478.49 409.9 478.49 416.28 473 419.44 473 413.05 478.49 409.9"/><polygon class="cls-1" points="464.75 421.01 461.99 425.77 456.49 422.58 461.98 419.4 464.75 421.01"/><polygon class="cls-1" points="478.49 409.9 473 413.05 467.49 409.9 473 406.73 478.49 409.9"/><polygon class="cls-1" points="489.33 388.99 489.33 404.81 478.49 411.08 478.49 409.9 473 406.73 467.49 409.9 467.49 416.25 464.75 421.01 461.98 419.4 456.49 422.58 456.49 487.61 449.01 491.91 449.01 412.27 489.33 388.99"/><polygon class="cls-1" points="489.33 388.99 449.01 412.27 443.25 408.96 483.58 385.66 489.33 388.99"/><polygon class="cls-1" points="483.58 379.03 443.25 402.3 437.48 398.98 477.81 375.69 483.58 379.03"/><polygon class="cls-1" points="658.99 455.28 495.88 549.44 332.79 455.27 393.77 420.04 393.77 422.07 408.55 430.61 420.21 423.87 420.21 475.28 449.01 491.91 449.01 412.27 443.25 408.96 443.25 402.3 437.48 398.98 477.81 375.69 477.81 371.5 495.84 361.08 539.2 386.12 539.21 386.12 556.93 396.35 599.98 421.21 658.99 455.28"/><polyline class="cls-57" points="212.42 402.8 156.48 434.72 156 434.99"/><polyline class="cls-57" points="226.95 411.18 141.61 460.44 141.16 460.7"/><ellipse class="cls-57" cx="152.24" cy="437.16" rx="5.99" ry="3.46"/><ellipse class="cls-57" cx="137.43" cy="462.92" rx="5.99" ry="3.46"/><ellipse class="cls-57" cx="114.49" cy="545.31" rx="5.99" ry="3.46"/><polyline class="cls-57" points="119.06 542.61 187.06 503.35 187.05 451.94 242.2 420.08"/><ellipse class="cls-57" cx="888.43" cy="220.19" rx="5.99" ry="3.46"/><ellipse class="cls-57" cx="1080.71" cy="211.02" rx="5.99" ry="3.46"/><ellipse class="cls-57" cx="857.47" cy="272.51" rx="5.99" ry="3.46"/><ellipse class="cls-57" cx="872.27" cy="246.75" rx="5.99" ry="3.46"/><ellipse class="cls-57" cx="748.97" cy="3.96" rx="5.99" ry="3.46"/><path class="cls-57" d="M470.93,299.63v7.77l-19.24-11.1c.28-.19,1.91-1.16,2-1.22C466.91,288,470.93,299.63,470.93,299.63Z"/><path class="cls-57" d="M484.73,260.39v1.47a55.38,55.38,0,0,0-10.91-1h-.17c-10.61,0-27.76,2.84-49.15,16-1.06.65-2.1,1.31-3.11,2a127.43,127.43,0,0,0-13,9.62,111,111,0,0,0-14,14.07,92.28,92.28,0,0,0-8.66,12.34,84.05,84.05,0,0,0-4.28,8.38l-1.76-1.05-1.39-.82a81.59,81.59,0,0,1,4.43-8.82,93.69,93.69,0,0,1,8.3-12,110.71,110.71,0,0,1,13.84-14.16,127.74,127.74,0,0,1,12.83-9.72c1.4-.94,2.86-1.87,4.36-2.79,21.76-13.38,39.25-16.21,50.09-16.23h.11a58.84,58.84,0,0,1,8.84.64Z"/><polyline class="cls-57" points="810.9 315.33 896.14 266.11 940.67 291.81 1074.79 214.59"/><line class="cls-57" x1="796.68" y1="307.12" x2="853.23" y2="274.96"/><line class="cls-57" x1="782.15" y1="298.74" x2="868.09" y2="249.24"/><line class="cls-57" x1="767.31" y1="290.17" x2="884.56" y2="222.58"/><polygon class="cls-57" points="211.36 266.34 196.55 257.78 203.73 245.33 211.36 266.34"/><polygon class="cls-57" points="211.36 266.34 211.36 317.39 196.55 308.84 196.55 257.78 211.36 266.34"/><polygon class="cls-57" points="255.6 240.77 255.6 267.62 232.03 281.24 227.12 278.38 221.25 281.74 221.25 311.68 211.36 317.39 211.36 266.34 255.6 240.77"/><polygon class="cls-57" points="241.33 282.06 235.46 285.45 231.36 286.21 231.34 286.21 231.33 286.22 231.2 286.24 231.19 286.25 229.51 286.56 235.36 283.19 237.02 282.88 237.03 282.87 237.21 282.84 241.33 282.06"/><polygon class="cls-57" points="247.47 290.25 241.61 293.63 235.46 285.45 241.33 282.06 242.28 283.34 247.47 290.25"/><polygon class="cls-57" points="276.45 263.62 242.28 283.34 241.33 282.06 237.21 282.84 237.03 282.87 237.02 282.88 235.36 283.19 232.03 281.24 255.6 267.62 262.59 263.59 270.37 263.61 270.54 263.61 276.45 263.62"/><polygon class="cls-57" points="281.27 296.31 275.78 299.47 270.28 296.31 275.78 293.15 281.27 296.31"/><polygon class="cls-57" points="281.27 296.31 281.27 302.68 275.78 305.86 275.78 299.47 281.27 296.31"/><path class="cls-57" d="M504.59,276.3V288L470.93,307.4v-7.77s-4-11.68-17.22-4.55c-.11.06-1.74,1-2,1.22a32.06,32.06,0,0,0-10.05,11.32,43.27,43.27,0,0,0-4.38,11.45l-.05,8.09,0,0-33.57,19.09V334a72.88,72.88,0,0,1,6.21-9.64c.36-.5.75-1,1.15-1.53,1.71-2.22,3.73-4.68,6.09-7.29,0-.05,2.56-2.77,3.86-4.08l.79-.79.81-.79.83-.8.52-.5c.25-.24.51-.49.78-.73.61-.57,1.24-1.14,1.88-1.71l.82-.74c1.36-1.19,2.79-2.4,4.28-3.6,3.07-2.48,6.42-5,10.08-7.41.81-.54,4.4-2.81,5-3.19q1.29-.78,2.64-1.56l1.62-.92c13-7.27,24.26-10.7,33-12.21C496.74,274.36,504.29,276.23,504.59,276.3Z"/><path class="cls-57" d="M403.59,334v12.25l-19.95-11.79V322.24L398.47,331c-.25.54-.48,1.06-.69,1.57l3.15,1.86c.22-.5.45-1,.7-1.56Z"/><path class="cls-57" d="M492.05,268.89h-.42c-10.84,0-28.33,2.85-50.09,16.22q-2.27,1.39-4.38,2.8a129.26,129.26,0,0,0-12.83,9.72,111.07,111.07,0,0,0-13.82,14.16,93.37,93.37,0,0,0-8.3,12,79.46,79.46,0,0,0-3.74,7.25l-14.83-8.76s3.95-7.94,13.29-18.29a129.47,129.47,0,0,1,14.53-13.76,135.07,135.07,0,0,1,13.24-9.47c1.52-1,3.08-1.91,4.7-2.84,33.2-19.15,55.24-13.37,55.24-13.37Z"/><path class="cls-57" d="M504.59,276.3c-.3-.07-7.85-1.94-20.59.24-8.77,1.51-20,4.94-33,12.21l-1.62.92q-1.35.78-2.64,1.56c-.62.38-4.21,2.65-5,3.19-3.66,2.43-7,4.93-10.08,7.41-1.49,1.2-2.92,2.41-4.28,3.6l-.82.74c-.64.57-1.27,1.14-1.88,1.71-.27.24-.53.49-.78.73l-.52.5c-.28.26-.56.52-.83.8l-.81.79-.79.79c-1.3,1.31-3.82,4-3.86,4.08-2.36,2.61-4.38,5.07-6.09,7.29-.4.52-.79,1-1.15,1.53a72.88,72.88,0,0,0-6.21,9.64l-2-1.16c.95-2,2.13-4.31,3.58-6.82.26-.45,1.9-3.12,2.22-3.6,1-1.52,2.09-3.13,3.33-4.79l.82-1.08c.71-.93,1.47-1.88,2.27-2.85s1.77-2.1,2.72-3.17c.34-.37.67-.74,1-1.11h0c.37-.41.76-.82,1.15-1.23s.79-.83,1.2-1.24.68-.69,1-1c.21-.22.43-.43.65-.64l.85-.82c.42-.41.85-.81,1.29-1.22q1.94-1.78,4.07-3.59c.48-.4,1-.81,1.46-1.21,1-.81,2-1.62,3-2.42l1.6-1.21,1.15-.85,1.11-.8q2.22-1.57,4.62-3.14c1-.67,2.05-1.32,3.12-2,21.39-13.15,38.54-16,49.15-16h.17c1.56,0,3,.05,4.4.15Z"/><polygon class="cls-57" points="408.55 379.56 393.77 371.01 400.94 358.55 408.55 379.56"/><polygon class="cls-57" points="452.81 354 452.81 376.82 431.73 389 425.97 392.32 420.21 395.66 420.21 423.87 408.55 430.61 408.55 379.56 452.81 354"/><polygon class="cls-57" points="408.55 379.56 408.55 430.61 393.77 422.07 393.77 371.01 408.55 379.56"/><polygon class="cls-57" points="452.81 353.96 452.81 354 408.55 379.56 400.94 358.55 445.19 332.99 450.61 347.93 452.81 353.96"/><polygon class="cls-57" points="235.36 283.19 229.51 286.56 221.25 281.74 227.12 278.38 232.03 281.24 235.36 283.19"/><polygon class="cls-57" points="255.6 240.74 255.6 240.77 211.36 266.34 203.73 245.33 247.99 219.76 255.6 240.74"/><polygon class="cls-57" points="477.81 369.04 477.81 375.69 437.48 398.98 437.48 392.33 477.81 369.04"/><polygon class="cls-57" points="483.58 379.03 483.58 385.66 443.25 408.96 443.25 402.3 483.58 379.03"/><polygon class="cls-57" points="449.01 412.27 449.01 491.91 420.21 475.28 420.21 395.66 425.97 398.97 425.97 392.32 431.73 395.64 431.73 389 437.48 392.33 437.48 398.98 443.25 402.3 443.25 408.96 449.01 412.27"/><polyline class="cls-57" points="398.16 510.14 312.39 559.66 267.87 533.96 165.3 592.97"/><polyline class="cls-57" points="412.39 518.35 357.15 549.92 356.67 550.19"/><polyline class="cls-57" points="426.91 526.74 342.28 575.64 341.82 575.9"/><ellipse class="cls-57" cx="161.21" cy="595.63" rx="5.99" ry="3.46"/><ellipse class="cls-57" cx="352.91" cy="552.37" rx="5.99" ry="3.46"/><ellipse class="cls-57" cx="338.1" cy="578.13" rx="5.99" ry="3.46"/><ellipse class="cls-57" cx="315.15" cy="660.51" rx="5.99" ry="3.46"/><polyline class="cls-57" points="318.58 658.5 386.58 619.24 386.57 567.83 441.72 535.97 441.73 535.97 442.31 535.63"/><polygon class="cls-57" points="495.88 549.44 495.88 566.56 332.79 472.39 332.79 455.27 495.88 549.44"/><polygon class="cls-57" points="658.99 455.28 658.95 472.37 495.88 566.56 495.88 549.44 658.99 455.28"/><path class="cls-57" d="M504.18,271.6v1.47a53.76,53.76,0,0,0-6.51-.86c-1.37-.1-2.84-.15-4.4-.15h-.17c-10.61,0-27.76,2.84-49.15,16-1.07.66-2.11,1.31-3.12,2q-2.4,1.56-4.62,3.14l-1.11.8-1.15.85-1.6,1.21c-1,.8-2.06,1.6-3,2.42-.5.4-1,.81-1.46,1.21q-2.13,1.8-4.07,3.59c-.44.41-.87.81-1.29,1.22l-.85.82c-.22.21-.44.42-.65.64-.36.35-.71.7-1,1s-.82.83-1.2,1.24-.78.82-1.15,1.23h0c-.35.37-.68.74-1,1.11-.95,1.07-1.86,2.13-2.72,3.17s-1.56,1.92-2.27,2.85l-.82,1.08c-1.24,1.66-2.35,3.27-3.33,4.79-.32.48-2,3.15-2.22,3.6-1.45,2.51-2.63,4.78-3.58,6.82-.25.54-.48,1.06-.7,1.56l-3.15-1.86c.21-.51.44-1,.69-1.57a79.46,79.46,0,0,1,3.74-7.25,93.37,93.37,0,0,1,8.3-12,111.07,111.07,0,0,1,13.82-14.16,129.26,129.26,0,0,1,12.83-9.72q2.11-1.41,4.38-2.8c21.76-13.37,39.25-16.2,50.09-16.22h.42a60.32,60.32,0,0,1,8.52.63Z"/><path class="cls-57" d="M461.85,341.44l-11.24,6.49L445.19,333l-44.25,25.56L393.77,371v9.73l-95,54.86L135.66,341.43l60.89-35.17v2.58l14.81,8.55,9.89-5.71v48.86L249.72,377v-78.6l-8.11-4.73-6.15-8.18,5.87-3.39.95,1.28,34.17-19.72h-6.08l12.22-7.06,16.12-9.31,92.35,53.33a93.69,93.69,0,0,0-8.3,12,81.59,81.59,0,0,0-4.43,8.82l1.39.82,1.76,1.05a84.05,84.05,0,0,1,4.28-8.38,92.28,92.28,0,0,1,8.66-12.34l2.51,1.45c-9.34,10.35-13.29,18.29-13.29,18.29L398.47,331c-.25.54-.48,1.06-.69,1.57l3.15,1.86c.22-.5.45-1,.7-1.56l2,1.16v12.25l33.57-19.09Z"/><polygon class="cls-57" points="298.75 435.6 298.75 452.72 135.66 358.55 135.66 341.43 298.75 435.6"/><polygon class="cls-57" points="298.75 435.6 393.77 380.74 393.77 397.83 298.75 452.71 298.75 435.6"/><polygon class="cls-57" points="431.73 389 431.73 395.64 425.97 392.32 431.73 389"/><polygon class="cls-57" points="461.85 341.44 461.81 358.53 452.81 363.73 452.81 353.96 450.61 347.93 461.85 341.44"/><polygon class="cls-57" points="477.81 369.04 437.48 392.33 431.73 389 452.81 376.82 472.04 365.71 477.81 369.04"/><polygon class="cls-57" points="425.97 392.32 425.97 398.97 420.21 395.66 425.97 392.32"/><polygon class="cls-57" points="255.57 294.98 255.57 294.99 249.72 298.36 241.61 293.63 247.47 290.25 255.57 294.98"/><polygon class="cls-57" points="341.76 293.15 341.76 366.6 292.28 395.15 292.28 321.71 341.75 293.15 341.76 293.15"/><polygon class="cls-57" points="292.28 321.73 292.28 395.15 286.78 398.34 286.78 324.88 292.27 321.71 292.28 321.73"/><polygon class="cls-57" points="249.72 298.36 249.72 376.96 221.25 360.54 221.25 281.74 229.51 286.56 231.19 286.25 231.2 286.24 231.33 286.22 231.34 286.21 231.36 286.21 235.46 285.45 241.61 293.63 249.72 298.36"/><polygon class="cls-57" points="286.78 324.89 286.78 398.34 259.27 382.47 259.27 308.99 264.77 312.18 267.53 307.42 270.28 302.67 270.28 296.31 275.78 299.47 275.78 305.86 281.27 321.7 286.78 324.89"/><polygon class="cls-57" points="286.76 318.53 281.27 321.7 275.78 305.86 281.27 302.68 286.76 318.53"/><polygon class="cls-57" points="341.75 293.15 292.28 321.71 292.27 321.71 286.76 318.53 281.27 302.68 281.27 297.49 287.63 293.82 327.07 271.04 341.75 293.15"/><polygon class="cls-57" points="255.57 294.99 255.57 294.98 247.47 290.25 242.28 283.34 276.45 263.62 282.59 270.67 282.6 270.68 282.6 270.69 287.63 276.48 255.57 294.99"/><polygon class="cls-57" points="255.57 294.99 255.57 373.57 249.72 376.96 249.72 298.36 255.57 294.99"/><polygon class="cls-57" points="267.53 307.42 264.77 312.18 259.27 308.99 264.76 305.83 267.53 307.42"/><polygon class="cls-57" points="287.63 276.48 287.63 293.82 281.27 297.49 281.27 296.31 275.78 293.15 270.28 296.31 270.28 302.67 267.53 307.42 264.76 305.83 259.27 308.99 259.27 371.43 255.57 373.57 255.57 294.99 287.63 276.48"/><polygon class="cls-57" points="292.27 321.71 286.78 324.88 286.78 324.89 281.27 321.7 286.76 318.53 292.27 321.71"/><polygon class="cls-57" points="538.97 406.73 538.97 480.39 489.5 508.95 489.5 435.31 489.48 435.3 538.97 406.73"/><polygon class="cls-57" points="489.5 435.31 489.5 508.96 489.49 508.96 484 512.13 484 438.47 489.48 435.3 489.5 435.31"/><polygon class="cls-57" points="483.99 432.12 478.49 435.29 473 419.44 478.5 416.28 483.99 432.12"/><polygon class="cls-57" points="483.99 438.46 483.99 512.13 456.49 496.23 456.49 422.58 461.99 425.77 464.75 421.01 467.49 416.25 467.49 409.9 473 413.05 473 419.44 478.48 435.29 483.99 438.46"/><polygon class="cls-57" points="489.48 435.3 484 438.47 478.49 435.29 483.99 432.12 489.48 435.3"/><polygon class="cls-57" points="538.97 406.73 489.48 435.3 483.99 432.12 478.5 416.28 478.5 411.08 489.33 404.81 524.3 384.62 538.97 406.73"/><polygon class="cls-57" points="478.49 409.9 478.49 416.28 473 419.44 473 413.05 478.49 409.9"/><polygon class="cls-57" points="464.75 421.01 461.99 425.77 456.49 422.58 461.98 419.4 464.75 421.01"/><polygon class="cls-57" points="478.49 409.9 473 413.05 467.49 409.9 473 406.73 478.49 409.9"/><polygon class="cls-57" points="489.33 388.99 489.33 404.81 478.49 411.08 478.49 409.9 473 406.73 467.49 409.9 467.49 416.25 464.75 421.01 461.98 419.4 456.49 422.58 456.49 487.61 449.01 491.91 449.01 412.27 489.33 388.99"/><polygon class="cls-57" points="489.33 388.99 449.01 412.27 443.25 408.96 483.58 385.66 489.33 388.99"/><polygon class="cls-57" points="483.58 379.03 443.25 402.3 437.48 398.98 477.81 375.69 483.58 379.03"/><polygon class="cls-57" points="658.99 455.28 495.88 549.44 332.79 455.27 393.77 420.04 393.77 422.07 408.55 430.61 420.21 423.87 420.21 475.28 449.01 491.91 449.01 412.27 443.25 408.96 443.25 402.3 437.48 398.98 477.81 375.69 477.81 371.5 495.84 361.08 539.2 386.12 539.21 386.12 556.93 396.35 599.98 421.21 658.99 455.28"/></g></g></g></g></svg>