<svg xmlns="http://www.w3.org/2000/svg" viewBox="0 0 518.09 253.71"><defs><style>.cls-1,.cls-12,.cls-3,.cls-6{fill:#fff;}.cls-1,.cls-15{stroke:#999;}.cls-1,.cls-12,.cls-3{stroke-linecap:round;}.cls-1,.cls-10,.cls-11,.cls-12,.cls-3,.cls-7,.cls-8,.cls-9{stroke-linejoin:round;}.cls-2,.cls-4{fill:#323544;}.cls-2{stroke:#231431;}.cls-13,.cls-14,.cls-15,.cls-2,.cls-4{stroke-miterlimit:10;}.cls-3,.cls-4{stroke:#00122a;}.cls-5{fill:#231431;}.cls-7{fill:#5c6ac4;}.cls-10,.cls-11,.cls-7,.cls-8,.cls-9{stroke:#000;}.cls-8{fill:#953ad6;}.cls-9{fill:#98a4e2;}.cls-10{fill:#f8c555;}.cls-11,.cls-13,.cls-14,.cls-15{fill:none;}.cls-12{stroke:#f8c555;}.cls-13{stroke:#5c6ac4;}.cls-14{stroke:#953ad6;}</style></defs><title>Asset 5</title><g id="Layer_2" data-name="Layer 2"><g id="APP"><rect class="cls-1" x="177.58" y="109.75" width="153.62" height="114.27"/><path class="cls-2" d="M6.51.5H511.59a6,6,0,0,1,6,6V42.89a0,0,0,0,1,0,0H.51a0,0,0,0,1,0,0V6.5a6,6,0,0,1,6-6Z"/><path class="cls-3" d="M.51,42.89H517.59a0,0,0,0,1,0,0V247.21a6,6,0,0,1-6,6H6.51a6,6,0,0,1-6-6V42.89A0,0,0,0,1,.51,42.89Z"/><path class="cls-4" d="M.51,42.89h147a0,0,0,0,1,0,0V253.21a0,0,0,0,1,0,0H6.51a6,6,0,0,1-6-6V42.89A0,0,0,0,1,.51,42.89Z"/><rect class="cls-5" x="212.16" y="73.17" width="140" height="5.67"/><rect class="cls-5" x="177.75" y="65.73" width="20" height="20" rx="10" ry="10"/><rect class="cls-6" x="32.68" y="72.89" width="84.87" height="5.67"/><rect class="cls-6" x="48.78" y="92.89" width="68.77" height="5.67"/><rect class="cls-6" x="48.78" y="112.89" width="68.77" height="5.67"/><rect class="cls-6" x="48.78" y="132.89" width="68.77" height="5.67"/><rect class="cls-6" x="48.78" y="152.89" width="68.77" height="5.67"/><rect class="cls-6" x="48.78" y="172.89" width="68.77" height="5.67"/><rect class="cls-6" x="48.78" y="192.89" width="68.77" height="5.67"/><rect class="cls-6" x="30.51" y="90.73" width="10" height="10" rx="5" ry="5"/><rect class="cls-6" x="30.51" y="110.73" width="10" height="10" rx="5" ry="5"/><rect class="cls-6" x="30.51" y="130.73" width="10" height="10" rx="5" ry="5"/><rect class="cls-6" x="30.51" y="150.73" width="10" height="10" rx="5" ry="5"/><rect class="cls-6" x="30.51" y="170.73" width="10" height="10" rx="5" ry="5"/><rect class="cls-6" x="30.51" y="190.73" width="10" height="10" rx="5" ry="5"/><rect class="cls-3" x="177.14" y="108.94" width="310.45" height="114.27" rx="3" ry="3"/><line class="cls-3" x1="147.55" y1="253.21" x2="147.55" y2="42.89"/><line class="cls-3" x1="332.36" y1="108.94" x2="332.36" y2="223.21"/><circle class="cls-7" cx="424.75" cy="171.38" r="7.78"/><rect class="cls-8" x="386.76" y="165.65" width="14.11" height="11.45"/><rect class="cls-9" x="356.62" y="188.39" width="14.11" height="5.73"/><rect class="cls-9" x="356.62" y="147.01" width="14.11" height="5.73"/><rect class="cls-9" x="375.05" y="147.01" width="14.11" height="5.73"/><rect class="cls-9" x="452.81" y="147.01" width="14.11" height="5.73"/><rect class="cls-10" x="375.05" y="188.39" width="23.43" height="5.73"/><line class="cls-11" x1="363.67" y1="188.39" x2="363.67" y2="179.16"/><line class="cls-11" x1="447.43" y1="191.32" x2="398.48" y2="191.32"/><line class="cls-11" x1="375.05" y1="191.32" x2="370.73" y2="191.32"/><polyline class="cls-11" points="363.68 163.59 363.68 158.27 363.68 153.15"/><polyline class="cls-11" points="459.86 138.83 392.48 138.83 363.68 138.83 363.68 147.01"/><rect class="cls-10" x="447.43" y="188.39" width="23.43" height="5.73"/><path class="cls-7" d="M466.89,171.38a7.76,7.76,0,0,1-7.06,7.73,5.84,5.84,0,0,1-.73,0,7.79,7.79,0,0,1,0-15.57c.25,0,.49,0,.73,0A7.79,7.79,0,0,1,466.89,171.38Z"/><line class="cls-11" x1="459.86" y1="188.39" x2="459.86" y2="179.11"/><polyline class="cls-11" points="459.86 163.62 459.86 160.93 382.1 160.93 382.1 158.27 382.1 152.74"/><path class="cls-7" d="M371.45,171.38a7.78,7.78,0,1,1-7.78-7.79A7.78,7.78,0,0,1,371.45,171.38Z"/><polyline class="cls-11" points="363.68 194.12 363.68 199.91 347.45 199.91 347.45 133.5 459.86 133.5 459.86 138.83 459.86 147.24"/><line class="cls-11" x1="424.75" y1="160.93" x2="424.75" y2="163.6"/><line class="cls-11" x1="424.75" y1="179.15" x2="424.75" y2="191.25"/><line class="cls-11" x1="459.86" y1="160.93" x2="459.87" y2="153.15"/><line class="cls-11" x1="393.82" y1="160.93" x2="393.82" y2="165.65"/><line class="cls-11" x1="393.86" y1="177.1" x2="393.86" y2="188.39"/><g id="Asyncy_Landing-Page_Final" data-name="Asyncy Landing-Page Final"><g id="HEADER"><g id="NAV"><g id="LOGO"><g id="Logotype"><g id="Group-3"><path id="Fill-1" class="cls-6" d="M52.75,20.34c-2.36-.54-2.9-.87-2.9-1.95,0-1.36.88-1.9,2.29-1.9a5.14,5.14,0,0,1,3.3,1.22l.27.27,1.42-2.23-.21-.2a7.51,7.51,0,0,0-4.78-1.62c-2.9,0-4.92,1.75-4.92,4.46,0,2.29,1.35,3.71,4.85,4.45,2.36.55,3,1,3,2,0,1.29-1,2-2.62,2a5.47,5.47,0,0,1-3.84-1.56l-.27-.27L46.89,27.3l.2.21a7.9,7.9,0,0,0,5.32,1.89c3.17,0,5.32-1.89,5.32-4.66,0-2.3-1.55-3.72-5-4.4"/></g><polygon id="Fill-4" class="cls-6" points="77.32 19.79 73.52 13.93 70.4 13.93 76.01 22.52 76.01 28.65 76.35 28.65 78.7 28.65 78.7 22.45 84.31 13.93 81.13 13.93 77.32 19.79"/><g id="Group-8"><polygon id="Fill-6" class="cls-6" points="27.4 13.99 27.2 13.99 20.51 29.2 23.3 29.2 27.4 19.53 31.5 29.2 31.77 29.2 34.28 29.2 27.66 13.99 27.4 13.99"/></g><polygon id="Fill-9" class="cls-6" points="158.82 13.93 155.02 19.79 151.28 13.93 148.1 13.93 153.7 22.52 153.7 28.65 154.05 28.65 156.4 28.65 156.4 22.45 162 13.93 158.82 13.93"/><g id="Group-13"><polygon id="Fill-11" class="cls-6" points="106.73 23.32 98.42 13.99 98.14 13.99 97.8 13.99 97.8 29.2 100.46 29.2 100.46 20.14 108.84 29.47 108.98 29.47 109.05 29.47 109.39 29.47 109.39 14.27 106.73 14.27 106.73 23.32"/></g><g id="Group-16"><path id="Fill-14" class="cls-6" d="M134.5,25.28A4.77,4.77,0,0,1,130.81,27c-2.92,0-4.87-2.17-4.93-5.21s1.94-5.2,4.93-5.27a4.82,4.82,0,0,1,3.55,1.56l.27.27,1.74-2-.21-.2A7.11,7.11,0,0,0,130.81,14a7.47,7.47,0,0,0-7.65,7.77,7.46,7.46,0,0,0,7.65,7.71,7.2,7.2,0,0,0,5.42-2.23l.21-.21-1.74-2Z"/></g></g></g></g></g></g><line class="cls-1" x1="191.44" y1="196.39" x2="191.44" y2="203.26"/><polyline class="cls-12" points="191.71 189.83 209.02 171.06 218.39 180.44 242.19 151.72 260.23 170.77 277.91 142.96 293.16 153.47 317.73 130.44"/><polyline class="cls-13" points="191.05 174.87 210.51 161.8 222.67 174.87 238.07 174.87 246.89 164.76 261.17 174.87 280.18 148.26 286.57 152.26 302.53 139.26 317.73 161.8"/><polyline class="cls-14" points="191.71 166.01 209.49 171.51 232.6 150.76 241.11 159.76 263.77 143.51 280.94 157.51 296.91 150.51 317.73 172.76"/><line class="cls-1" x1="191.71" y1="199.83" x2="317.73" y2="199.83"/><line class="cls-1" x1="212.71" y1="196.47" x2="212.71" y2="203.34"/><line class="cls-1" x1="233.71" y1="196.47" x2="233.71" y2="203.34"/><line class="cls-1" x1="254.71" y1="196.47" x2="254.71" y2="203.34"/><line class="cls-1" x1="275.71" y1="196.47" x2="275.71" y2="203.34"/><line class="cls-1" x1="296.71" y1="196.47" x2="296.71" y2="203.34"/><line class="cls-1" x1="317.71" y1="196.47" x2="317.71" y2="203.34"/><polyline class="cls-15" points="0 42.89 147.55 42.89 147.55 253.21"/></g></g></svg>