<svg xmlns="http://www.w3.org/2000/svg" viewBox="0 0 636.71 284.74"><defs><style>.cls-1{fill:#1e1a24;}.cls-12,.cls-2{fill:#323544;}.cls-11,.cls-2,.cls-24{stroke:#231431;}.cls-10,.cls-11,.cls-15,.cls-2,.cls-24{stroke-miterlimit:10;}.cls-15,.cls-3,.cls-4{fill:#fff;}.cls-3{stroke:#00122a;}.cls-13,.cls-3,.cls-5{stroke-linecap:round;stroke-linejoin:round;}.cls-10,.cls-11,.cls-13,.cls-5{fill:none;}.cls-5{stroke:#000;}.cls-6{fill:#f8c555;}.cls-24,.cls-7{fill:#231431;}.cls-8{fill:#00c682;}.cls-9{fill:#5c6ac4;}.cls-10,.cls-13{stroke:#999;}.cls-11,.cls-24{stroke-width:2px;}.cls-12{opacity:0.3;}.cls-14{fill:#999;}.cls-15{stroke:#030007;}.cls-16{font-size:11.82px;fill:#18072b;font-family:Roboto-Regular, Roboto;}.cls-17{letter-spacing:-0.01em;}.cls-18{letter-spacing:-0.01em;}.cls-19{letter-spacing:0.01em;}.cls-20{letter-spacing:0em;}.cls-21{letter-spacing:-0.01em;}.cls-22{letter-spacing:-0.01em;}.cls-23{fill:#e4471f;opacity:0.2;}</style></defs><title>Asset 4</title><g id="Layer_2" data-name="Layer 2"><g id="PLUG"><path class="cls-1" d="M523.69,42.89h-396V6.5a6,6,0,0,1,6-6h384a6,6,0,0,1,6,6Z"/><path class="cls-2" d="M523.69,42.89h-396V6.5a6,6,0,0,1,6-6h384a6,6,0,0,1,6,6Z"/><path class="cls-3" d="M517.69,284.24h-384a6,6,0,0,1-6-6V42.89h396V278.24A6,6,0,0,1,517.69,284.24Z"/><path class="cls-2" d="M385.61,42.89H523.69a0,0,0,0,1,0,0V278.24a6,6,0,0,1-6,6H385.61a0,0,0,0,1,0,0V42.89A0,0,0,0,1,385.61,42.89Z"/><path class="cls-3" d="M127.69,209.19H385.61a0,0,0,0,1,0,0v75.06a0,0,0,0,1,0,0H133.69a6,6,0,0,1-6-6V209.19A0,0,0,0,1,127.69,209.19Z"/><rect class="cls-4" x="404.29" y="62.89" width="101.24" height="18" rx="6" ry="6"/><circle class="cls-5" cx="415.07" cy="70.47" r="3.6"/><line class="cls-5" x1="412.55" y1="73.07" x2="408.71" y2="76.92"/><rect class="cls-6" x="147.69" y="62.89" width="39.21" height="5"/><rect class="cls-7" x="177.18" y="102.89" width="51.55" height="5"/><rect class="cls-6" x="233.73" y="102.89" width="51.55" height="5"/><rect class="cls-7" x="191.9" y="62.89" width="39.21" height="5"/><rect class="cls-8" x="236.1" y="62.89" width="51.55" height="5"/><rect class="cls-7" x="147.81" y="144.27" width="27.88" height="5"/><rect class="cls-9" x="164.58" y="164.19" width="27.88" height="5"/><rect class="cls-6" x="197.46" y="164.19" width="51.55" height="5"/><rect class="cls-7" x="254.01" y="164.19" width="24.71" height="5"/><rect class="cls-7" x="164.58" y="184.19" width="51.55" height="5"/><rect class="cls-9" x="221.13" y="184.19" width="51.55" height="5"/><rect class="cls-8" x="180.69" y="144.27" width="39.21" height="5"/><rect class="cls-7" x="224.9" y="144.27" width="49.42" height="5"/><rect class="cls-6" x="206.23" y="229.19" width="73.61" height="5"/><rect class="cls-7" x="284.85" y="229.13" width="25.78" height="5"/><rect class="cls-9" x="206.23" y="259.19" width="73.61" height="5"/><rect class="cls-7" x="284.85" y="259.19" width="25.78" height="5"/><rect class="cls-7" x="206.23" y="244.19" width="61.71" height="5"/><rect class="cls-8" x="272.94" y="244.19" width="14.74" height="5"/><rect class="cls-4" x="405.61" y="100.82" width="87.41" height="5"/><rect class="cls-4" x="405.61" y="120.72" width="87.41" height="5"/><rect class="cls-4" x="405.61" y="140.63" width="87.41" height="5"/><rect class="cls-4" x="405.61" y="160.54" width="87.41" height="5"/><ellipse class="cls-10" cx="143.76" cy="21.7" rx="6.07" ry="6.13"/><ellipse class="cls-10" cx="162.9" cy="21.7" rx="6.07" ry="6.13"/><ellipse class="cls-10" cx="182.04" cy="21.7" rx="6.07" ry="6.13"/><line class="cls-7" x1="284.32" y1="154.27" x2="284.32" y2="139.27"/><line class="cls-11" x1="284.32" y1="153.77" x2="284.32" y2="139.77"/><rect class="cls-7" x="281.07" y="153.27" width="6.5" height="1"/><rect class="cls-7" x="281.07" y="139.27" width="6.5" height="1"/><rect class="cls-12" x="292.12" y="146.77" width="73.54" height="44.25" rx="3" ry="3"/><rect class="cls-12" x="303.11" y="154.99" width="51.55" height="5"/><rect class="cls-12" x="303.11" y="166.4" width="34.52" height="5"/><rect class="cls-12" x="303.11" y="177.81" width="45.19" height="5"/><rect class="cls-12" x="147.81" y="229.19" width="48.43" height="5"/><rect class="cls-12" x="147.81" y="244.19" width="48.43" height="5"/><rect class="cls-12" x="147.81" y="259.19" width="48.43" height="5"/><polyline class="cls-13" points="38.64 133.66 328.17 133.66 328.17 147.41"/><circle class="cls-14" cx="38.83" cy="133.66" r="3.76"/><path class="cls-14" d="M324.41,147.22a3.76,3.76,0,1,0,3.76-3.76A3.76,3.76,0,0,0,324.41,147.22Z"/><line class="cls-13" x1="139.12" y1="232.1" x2="37.07" y2="232.1"/><circle class="cls-14" cx="138.93" cy="232.1" r="3.76"/><rect class="cls-15" x="1.19" y="124.66" width="103.37" height="18" rx="6" ry="6"/><text class="cls-16" transform="translate(15.97 137.11)"><tspan class="cls-17">A</tspan><tspan x="7.65" y="0">u</tspan><tspan class="cls-18" x="14.16" y="0">t</tspan><tspan x="17.91" y="0">ocomplete</tspan></text><rect class="cls-15" x="1.19" y="222.87" width="103.37" height="18" rx="6" ry="6"/><text class="cls-16" transform="translate(24.66 235.32)">Debugging</text><line class="cls-13" x1="510.4" y1="115.69" x2="608.42" y2="115.69"/><path class="cls-14" d="M510.59,119.45a3.76,3.76,0,1,1,3.76-3.76A3.76,3.76,0,0,1,510.59,119.45Z"/><rect class="cls-15" x="546.75" y="98.93" width="89.47" height="33.51" rx="6" ry="6"/><text class="cls-16" transform="translate(570.81 112.05)">Se<tspan class="cls-19" x="13.27" y="0">r</tspan><tspan class="cls-20" x="17.38" y="0">vice </tspan><tspan x="-4.91" y="14.18">Disc</tspan><tspan class="cls-21" x="17.99" y="14.18">o</tspan><tspan class="cls-22" x="24.64" y="14.18">v</tspan><tspan x="30.29" y="14.18">e</tspan><tspan class="cls-19" x="36.55" y="14.18">r</tspan><tspan x="40.66" y="14.18">y</tspan></text><polyline class="cls-10" points="523.69 42.89 385.61 42.89 385.61 284.24"/><rect class="cls-23" x="127.69" y="74.96" width="257.92" height="20.87"/><rect class="cls-7" x="176.95" y="82.89" width="27.88" height="5"/><rect class="cls-7" x="209.83" y="82.89" width="51.55" height="5"/><rect class="cls-7" x="266.38" y="82.89" width="51.55" height="5"/><line class="cls-24" x1="145.77" y1="81.71" x2="135.77" y2="91.71"/><line class="cls-24" x1="145.77" y1="91.71" x2="135.77" y2="81.71"/><line class="cls-13" x1="127.57" y1="86.84" x2="41.38" y2="86.84"/><path class="cls-14" d="M127.38,83.08a3.76,3.76,0,1,1-3.76,3.76A3.76,3.76,0,0,1,127.38,83.08Z"/><rect class="cls-15" x="0.5" y="77.67" width="103.37" height="18" rx="6" ry="6"/><text class="cls-16" transform="translate(15.27 90.13)">Syntax Linting</text></g></g></svg>