<svg xmlns="http://www.w3.org/2000/svg" viewBox="0 0 518.07 412.74"><defs><style>.cls-1{fill:#323544;stroke-miterlimit:10;}.cls-1,.cls-2,.cls-3,.cls-5{stroke:#00122a;}.cls-2{font-size:11.82px;font-family:Roboto-Regular, Roboto;}.cls-2,.cls-3,.cls-6{fill:#fff;}.cls-2,.cls-3,.cls-5{stroke-linecap:round;stroke-linejoin:round;}.cls-4{fill:#231431;}.cls-5{fill:none;}</style></defs><title>Asset 2</title><g id="Layer_2" data-name="Layer 2"><g id="HUB"><path class="cls-1" d="M6.5.5H511.57a6,6,0,0,1,6,6V42.89a0,0,0,0,1,0,0H.5a0,0,0,0,1,0,0V6.5A6,6,0,0,1,6.5.5Z"/><text class="cls-2" transform="translate(290.24 90.12)">ASYNCY</text><path class="cls-3" d="M511.57,412.24H6.5a6,6,0,0,1-6-6V42.89H517.57V406.24A6,6,0,0,1,511.57,412.24Z"/><rect class="cls-3" x="68.87" y="73.34" width="380.33" height="25.9" rx="6" ry="6"/><circle class="cls-3" cx="84.3" cy="84.35" r="4.91"/><line class="cls-3" x1="80.87" y1="87.9" x2="75.63" y2="93.15"/><rect class="cls-4" x="267.19" y="216.95" width="36.4" height="5.67"/><rect class="cls-4" x="267.19" y="234.62" width="32.06" height="5.67"/><rect class="cls-4" x="400.61" y="217.45" width="89.37" height="5.67"/><rect class="cls-4" x="400.61" y="234.12" width="78.73" height="5.67"/><rect class="cls-4" x="30.5" y="129.24" width="87.03" height="5.67"/><rect class="cls-4" x="30.5" y="149.24" width="87.03" height="5.67"/><rect class="cls-4" x="30.5" y="169.24" width="87.03" height="5.67"/><rect class="cls-4" x="30.5" y="189.24" width="87.03" height="5.67"/><rect class="cls-4" x="30.5" y="209.24" width="87.03" height="5.67"/><rect class="cls-4" x="30.5" y="228.24" width="87.03" height="5.67"/><rect class="cls-4" x="30.5" y="249.24" width="87.03" height="5.67"/><rect class="cls-5" x="148.01" y="129.24" width="102.5" height="45.67" rx="3" ry="3"/><rect class="cls-4" x="212.97" y="283.95" width="90.62" height="5.67"/><rect class="cls-4" x="212.97" y="301.62" width="79.83" height="5.67"/><rect class="cls-4" x="388.53" y="284.45" width="101.45" height="5.67"/><rect class="cls-4" x="388.53" y="301.12" width="89.37" height="5.67"/><rect class="cls-4" x="212.97" y="349.95" width="90.62" height="5.67"/><rect class="cls-4" x="212.97" y="367.62" width="79.83" height="5.67"/><rect class="cls-4" x="388.53" y="350.45" width="101.45" height="5.67"/><rect class="cls-4" x="388.53" y="367.12" width="89.37" height="5.67"/><rect class="cls-5" x="384.26" y="129.24" width="102.5" height="45.67" rx="3" ry="3"/><rect class="cls-5" x="266.13" y="129.24" width="102.5" height="45.67" rx="3" ry="3"/><g id="Rectangle"><path d="M245.06,237.6H213v-18h32.09Zm-31.61-.48h31.13v-17H213.45Z"/></g><path id="BOX" d="M220.27,231.7a2,2,0,0,0,1.34-.39,1.32,1.32,0,0,0,.46-1.08,1.34,1.34,0,0,0-.12-.58,1.24,1.24,0,0,0-.35-.44,1.59,1.59,0,0,0-.57-.27,2.86,2.86,0,0,0-.76-.1h-1.7v2.86Zm-1.7-6v2.78H220a2.36,2.36,0,0,0,.8-.12,1.52,1.52,0,0,0,.55-.31,1.14,1.14,0,0,0,.31-.45,1.43,1.43,0,0,0-.33-1.55,2.13,2.13,0,0,0-1.34-.35Zm1.45-.39a3.78,3.78,0,0,1,1,.12,1.91,1.91,0,0,1,.7.34,1.28,1.28,0,0,1,.41.54,1.86,1.86,0,0,1,.14.73,1.34,1.34,0,0,1-.1.52,1.7,1.7,0,0,1-.26.45,1.53,1.53,0,0,1-.43.37,2.6,2.6,0,0,1-.59.24,2.12,2.12,0,0,1,1.23.53,1.46,1.46,0,0,1,.43,1.09,1.93,1.93,0,0,1-.16.77,1.61,1.61,0,0,1-.44.59,2,2,0,0,1-.72.36,3.25,3.25,0,0,1-1,.13h-2.2v-6.78Zm12,3.39a4.23,4.23,0,0,1-.23,1.42,3.36,3.36,0,0,1-.66,1.1,3.08,3.08,0,0,1-1,.7,3.7,3.7,0,0,1-2.62,0,3,3,0,0,1-1-.7,3.05,3.05,0,0,1-.66-1.1,4.32,4.32,0,0,1,0-2.84,2.93,2.93,0,0,1,.66-1.09,2.82,2.82,0,0,1,1-.7,3.26,3.26,0,0,1,1.31-.25,3.43,3.43,0,0,1,1.31.24,3,3,0,0,1,1,.71,3.21,3.21,0,0,1,.66,1.09A4.27,4.27,0,0,1,232.06,228.7Zm-.51,0a3.85,3.85,0,0,0-.19-1.27,2.67,2.67,0,0,0-.56-1,2.38,2.38,0,0,0-.86-.6,2.82,2.82,0,0,0-1.11-.21,2.89,2.89,0,0,0-1.11.21,2.47,2.47,0,0,0-.86.6,2.67,2.67,0,0,0-.56,1,3.85,3.85,0,0,0-.2,1.27,3.91,3.91,0,0,0,.2,1.28,2.72,2.72,0,0,0,.56,1,2.47,2.47,0,0,0,.86.6,2.89,2.89,0,0,0,1.11.21,2.82,2.82,0,0,0,1.11-.21,2.38,2.38,0,0,0,.86-.6,2.72,2.72,0,0,0,.56-1A3.91,3.91,0,0,0,231.55,228.7Zm8.48,3.39h-.48a.14.14,0,0,1-.11,0l-.06-.08-2.14-3.13a.47.47,0,0,1-.06.15l-2.1,3-.07.08a.1.1,0,0,1-.09,0h-.46l2.45-3.48-2.34-3.3h.48a.13.13,0,0,1,.1,0,.18.18,0,0,1,0,.07l2.06,3,.08-.14,2-2.82.06-.07a.14.14,0,0,1,.09,0h.47l-2.35,3.27Z"/><path id="MACHINE" d="M162,225.31v6.78h-.43v-5.78a2.46,2.46,0,0,1,0-.26l-2.67,4.74a.22.22,0,0,1-.19.12h-.08a.21.21,0,0,1-.19-.12L155.72,226a2.62,2.62,0,0,1,0,.27v5.78h-.43v-6.78h.34l.11,0a.23.23,0,0,1,.08.07l2.73,4.72a1.39,1.39,0,0,1,.12.28,1,1,0,0,1,.07-.15.91.91,0,0,1,.07-.14l2.66-4.71a.13.13,0,0,1,.08-.07l.1,0Zm7.57,4.32-1.38-3.43a3.6,3.6,0,0,1-.14-.4L168,226c0,.07-.05.13-.07.19l-1.38,3.42Zm1.5,2.46h-.38a.15.15,0,0,1-.11,0,.22.22,0,0,1-.07-.09l-.79-2h-3.33l-.79,2a.22.22,0,0,1-.07.09.16.16,0,0,1-.12,0H165l2.77-6.78h.49Zm7.78-1.14a.11.11,0,0,1,.08,0l.19.21a2.81,2.81,0,0,1-.45.4,2.9,2.9,0,0,1-.54.31,3.28,3.28,0,0,1-.65.2,4.49,4.49,0,0,1-.77.07,3.37,3.37,0,0,1-1.29-.25,2.78,2.78,0,0,1-1-.7,3.31,3.31,0,0,1-.66-1.09,4.33,4.33,0,0,1-.23-1.43,4,4,0,0,1,.24-1.41,3.17,3.17,0,0,1,.67-1.09,2.92,2.92,0,0,1,1-.71,3.68,3.68,0,0,1,2.56,0,3.57,3.57,0,0,1,1,.61l-.15.22a.17.17,0,0,1-.12.05.38.38,0,0,1-.19-.1,2.53,2.53,0,0,0-.36-.23,2.57,2.57,0,0,0-.57-.24,2.83,2.83,0,0,0-.82-.1,3,3,0,0,0-1.13.21,2.42,2.42,0,0,0-.87.6,2.56,2.56,0,0,0-.57,1,4,4,0,0,0,0,2.55,2.85,2.85,0,0,0,.57,1,2.47,2.47,0,0,0,.86.6,2.72,2.72,0,0,0,1.07.21,4.19,4.19,0,0,0,.65-.05,2.1,2.1,0,0,0,.52-.15,2.38,2.38,0,0,0,.45-.23,3,3,0,0,0,.41-.33l0,0Zm8.73-5.64v6.78h-.49v-3.25h-4.24v3.25h-.5v-6.78h.5v3.16h4.24v-3.16Zm4.41,6.78h-.49v-6.78H192Zm9.15-6.78v6.78h-.23l-.1,0a.2.2,0,0,1-.08-.08l-4.4-5.88a2.72,2.72,0,0,1,0,.28v5.7h-.43v-6.78h.25l.1,0,.08.07,4.39,5.87a2.65,2.65,0,0,1,0-.27v-5.69Zm8,6.37v.41h-4.06v-6.78h4.06v.41h-3.57v2.74h3v.4h-3v2.82Z"/><g id="mark-github"><path id="Shape" d="M170.46,276.36a20,20,0,0,0-6.32,39c1,.17,1.37-.43,1.37-.95s0-2.05,0-3.73c-5,.93-6.33-1.22-6.73-2.35a7.21,7.21,0,0,0-2-2.82c-.7-.38-1.7-1.3,0-1.33s2.7,1.45,3.07,2a4.27,4.27,0,0,0,5.83,1.65,4.19,4.19,0,0,1,1.27-2.67c-4.45-.5-9.1-2.23-9.1-9.88a7.8,7.8,0,0,1,2.05-5.37,7.19,7.19,0,0,1,.2-5.3s1.68-.53,5.5,2.05a18.72,18.72,0,0,1,10,0c3.83-2.6,5.5-2.05,5.5-2.05a7.19,7.19,0,0,1,.2,5.3,7.7,7.7,0,0,1,2,5.37c0,7.68-4.67,9.38-9.12,9.88a4.74,4.74,0,0,1,1.35,3.7c0,2.67,0,4.82,0,5.5,0,.52.38,1.15,1.38.95a20,20,0,0,0-6.38-39Z"/></g><path d="M162.38,371.23a17.43,17.43,0,0,1-11.8,3.56,1.74,1.74,0,0,0,.17.25c.17.11.34.23.53.33,6.86,3.67,14,4.21,21.08,1.07,9.2-4.09,13.65-11.6,14.19-21.52a2.84,2.84,0,0,1,1-2.27c1.08-.91,2-2,3-3l-.17-.2c-.45.15-.89.32-1.34.46a15.16,15.16,0,0,1-1.47.39c-.44.1-.88.14-1.32.21a9.45,9.45,0,0,0,3.17-4.24c-1.49.52-2.93,1-4.36,1.54a1.19,1.19,0,0,1-1.34-.33,8.28,8.28,0,0,0-13.73,5,20.72,20.72,0,0,0,0,3.16,24.1,24.1,0,0,1-17.19-8.72c-2,4.42-1.09,8,2.35,11.22l-3.42-.91c-.25,3.3,2,6.1,6.33,8.21H154.6A8.68,8.68,0,0,0,162.38,371.23Z"/><path d="M342.87,234l-4.58,2,4.24,1.81,4.92-1.81-4.58-2ZM336,236.49l-.15,8.85,6.7,2.95V239.1L336,236.49Zm13.77,0-6.05,2.3v8.67l6.05-2.46v-8.51ZM357,208.94l-4.61,2,4.27,1.81,4.92-1.81-4.58-2Zm-6.4,2.62v8.85l5.72,1.66.19-8-5.91-2.46Zm12.79.49-5.41,2.3v8.7l5.41-2.45v-8.55Zm-28.05,9.35-4.58,2,4.24,1.82,4.92-1.82-4.58-2Zm-6.89,2.46-.15,8.86,6.7,2.95v-9.19Zm13.78,0-6.06,2.31v8.67l6.06-2.46Zm7.87-2.78-4.58,2,4.24,1.82,4.92-1.82-4.58-2Zm-6.89,2.46-.15,8.85,6.7,3v-9.19Zm13.77,0-6,2.3v8.67l6-2.46v-8.51Zm14.43-14.6-4.58,2,4.24,1.81,4.92-1.81-4.58-2Zm-6.88,2.46-.16,8.86,6.7,3V214Zm13.77,0-6.06,2.31v8.67l6.06-2.46Z"/><g id="Page-1"><g id="white-logo"><path id="logo" d="M365.3,286.59l-.83-.09v-1.11a1,1,0,0,0-1-1H363l0-.26a1,1,0,0,0-1.07-.93l-15.25,1.19h-2l-4.16-.45.17-1.6a.42.42,0,0,0-.38-.47l-9.23-1a.42.42,0,0,0-.46.38l-.11,1.08h-1.66a.42.42,0,0,0-.42.43v1l-1.24.1a.42.42,0,0,0-.39.46l0,.44a1,1,0,0,0-.23.64v.55l-.51,0a1,1,0,0,0-.92,1.09L326.36,304l-.2,2a1,1,0,0,0,.36.89v.95a1,1,0,0,0,.17.57l.08,1.05a1,1,0,0,0,1.07.93l8.37-.65-.14-1.86h-.16v-.9h-.78a1.38,1.38,0,0,1,0-2.75h3.74a1.38,1.38,0,0,1,0,2.75h-.78v1.86h.24l.06.72,6.72-.53,7.7.83.11-1h.5v-1.86h-.78a1.38,1.38,0,0,1,0-2.75h3.74a1.38,1.38,0,0,1,0,2.75h-.78v1.3l-.43,0L355,310l7.82.83a1,1,0,0,0,1.1-.9l.14-1.36a1,1,0,0,0,.43-.83V307a1.06,1.06,0,0,0,.14-.61l-.14-1.89,1.72-16.84A1,1,0,0,0,365.3,286.59Zm-17.73,15.07h-9.08v-1.75a4.63,4.63,0,0,1,2.7-4.23,3.4,3.4,0,1,1,3.68,0,4.63,4.63,0,0,1,2.7,4.23Zm6.56-1.75h-3.81v-.63a4.64,4.64,0,0,0-2.7-4.23,3.48,3.48,0,0,0-.71-6.15,3.38,3.38,0,0,1,2.67-1.33,3.47,3.47,0,0,1,1.85,6.36,4.65,4.65,0,0,1,2.7,4.23v1.75Z"/></g></g><path d="M345.64,341.89a20,20,0,1,0,20,20A20,20,0,0,0,345.64,341.89Zm0,34.79a14.79,14.79,0,1,1,14.8-14.79A14.79,14.79,0,0,1,345.64,376.68Z"/><path d="M345,357.25a4.13,4.13,0,1,1-4.13-4.13A4.13,4.13,0,0,1,345,357.25Z"/><path d="M354.59,357.25a4.13,4.13,0,1,1-4.13-4.13A4.13,4.13,0,0,1,354.59,357.25Z"/><path d="M345,366.53a4.13,4.13,0,1,1-4.13-4.13A4.13,4.13,0,0,1,345,366.53Z"/><path d="M354.59,366.53a4.13,4.13,0,1,1-4.13-4.13A4.13,4.13,0,0,1,354.59,366.53Z"/><g id="Asyncy_Landing-Page_Final" data-name="Asyncy Landing-Page Final"><g id="HEADER"><g id="NAV"><g id="LOGO-2" data-name="LOGO"><g id="Logotype"><g id="Group-3"><path id="Fill-1" class="cls-6" d="M52.68,20.34c-2.36-.54-2.9-.87-2.9-1.95,0-1.36.88-1.9,2.29-1.9a5.14,5.14,0,0,1,3.3,1.22l.27.27,1.42-2.23-.21-.2a7.51,7.51,0,0,0-4.78-1.62c-2.9,0-4.92,1.75-4.92,4.46,0,2.29,1.35,3.71,4.85,4.45,2.36.55,3,1,3,2,0,1.29-1,2-2.62,2a5.47,5.47,0,0,1-3.84-1.56l-.27-.27L46.82,27.3l.2.21a7.9,7.9,0,0,0,5.32,1.89c3.17,0,5.32-1.89,5.32-4.66,0-2.3-1.55-3.72-5-4.4"/></g><polygon id="Fill-4" class="cls-6" points="77.25 19.79 73.45 13.93 70.33 13.93 75.94 22.52 75.94 28.65 76.28 28.65 78.63 28.65 78.63 22.45 84.24 13.93 81.06 13.93 77.25 19.79"/><g id="Group-8"><polygon id="Fill-6" class="cls-6" points="27.33 13.99 27.13 13.99 20.44 29.2 23.22 29.2 27.33 19.53 31.43 29.2 31.7 29.2 34.22 29.2 27.59 13.99 27.33 13.99"/></g><polygon id="Fill-9" class="cls-6" points="158.75 13.93 154.95 19.79 151.21 13.93 148.03 13.93 153.63 22.52 153.63 28.65 153.98 28.65 156.33 28.65 156.33 22.45 161.93 13.93 158.75 13.93"/><g id="Group-13"><polygon id="Fill-11" class="cls-6" points="106.66 23.32 98.34 13.99 98.07 13.99 97.73 13.99 97.73 29.2 100.39 29.2 100.39 20.14 108.77 29.47 108.91 29.47 108.98 29.47 109.32 29.47 109.32 14.27 106.66 14.27 106.66 23.32"/></g><g id="Group-16"><path id="Fill-14" class="cls-6" d="M134.43,25.28A4.77,4.77,0,0,1,130.74,27c-2.92,0-4.87-2.17-4.93-5.21s1.94-5.2,4.93-5.27a4.82,4.82,0,0,1,3.55,1.56l.27.27,1.74-2-.21-.2A7.11,7.11,0,0,0,130.74,14a7.47,7.47,0,0,0-7.65,7.77,7.46,7.46,0,0,0,7.65,7.71,7.2,7.2,0,0,0,5.42-2.23l.21-.21-1.74-2Z"/></g></g></g></g></g></g></g></g></svg>