<?xml version="1.0" encoding="UTF-8"?>
<svg width="22px" height="22px" viewBox="0 0 22 22" version="1.1" xmlns="http://www.w3.org/2000/svg" xmlns:xlink="http://www.w3.org/1999/xlink">
    <!-- Generator: Sketch 49.3 (51167) - http://www.bohemiancoding.com/sketch -->
    <title>icon open source@3x</title>
    <desc>Created with Sketch.</desc>
    <defs></defs>
    <g id="Web" stroke="none" stroke-width="1" fill="none" fill-rule="evenodd" stroke-linecap="round" stroke-linejoin="round">
        <g id="Landing" transform="translate(-708.000000, -1038.000000)" stroke-width="1.3">
            <g id="icon-open-source" transform="translate(709.000000, 1039.000000)">
                <path d="M2,8 C2.73684211,5.05263158 5.05263158,2.73684211 8,2" id="Stroke-567" stroke="#B680FF"></path>
                <path d="M8,18 C5.05263158,17.2758621 2.73684211,14.8965517 2,12" id="Stroke-568" stroke="#B680FF"></path>
                <path d="M18,12 C17.1724138,14.9473684 14.8965517,17.2631579 12,18" id="Stroke-569" stroke="#B680FF"></path>
                <path d="M12,2 C14.8965517,2.73684211 17.1724138,5.05263158 18,8" id="Stroke-570" stroke="#B680FF"></path>
                <polygon id="Stroke-571" stroke="#B680FF" points="8 4 12 4 12 0 8 0"></polygon>
                <polygon id="Stroke-572" stroke="#B680FF" points="0 12 4 12 4 8 0 8"></polygon>
                <polygon id="Stroke-573" stroke="#B680FF" points="16 12 20 12 20 8 16 8"></polygon>
                <polygon id="Stroke-574" stroke="#FFFFFF" points="8 20 12 20 12 16 8 16"></polygon>
            </g>
        </g>
    </g>
</svg>