<?xml version="1.0" encoding="UTF-8"?>
<svg width="22px" height="21px" viewBox="0 0 22 21" version="1.1" xmlns="http://www.w3.org/2000/svg" xmlns:xlink="http://www.w3.org/1999/xlink">
    <!-- Generator: sketchtool 49.3 (51167) - http://www.bohemiancoding.com/sketch -->
    <title>BFBD6F75-5F7B-465A-856A-E7D2BCB7BDE6@3x</title>
    <desc>Created with sketchtool.</desc>
    <defs></defs>
    <g id="Web" stroke="none" stroke-width="1" fill="none" fill-rule="evenodd" stroke-linecap="round" stroke-linejoin="round">
        <g id="Landing" transform="translate(-709.000000, -864.000000)" stroke-width="1.4">
            <g id="Block-features" transform="translate(284.000000, 864.000000)">
                <g id="Icon-automation" transform="translate(426.000000, 1.000000)">
                    <path d="M12.4137931,6.89629661 L15.1724138,11.7237042" id="Stroke-997" stroke="#B680FF"></path>
                    <path d="M5.51724138,11.7237042 L8.27586207,6.89629661" id="Stroke-998" stroke="#B680FF"></path>
                    <path d="M12.4137931,14.4822229 L6.89655172,14.4822229" id="Stroke-999" stroke="#B680FF"></path>
                    <path d="M0,14.8270377 C0,12.7323738 1.54396552,11.0340746 3.44827586,11.0340746 C5.35258621,11.0340746 6.89655172,12.7323738 6.89655172,14.8270377 C6.89655172,16.9217016 5.35258621,18.6200008 3.44827586,18.6200008 C1.54396552,18.6200008 0,16.9217016 0,14.8270377 L0,14.8270377 Z" id="Stroke-1011" stroke="#B680FF"></path>
                    <path d="M13.1034483,14.8270377 C13.1034483,12.7323738 14.6474138,11.0340746 16.5517241,11.0340746 C18.4560345,11.0340746 20,12.7323738 20,14.8270377 C20,16.9217016 18.4560345,18.6200008 16.5517241,18.6200008 C14.6474138,18.6200008 13.1034483,16.9217016 13.1034483,14.8270377 L13.1034483,14.8270377 Z" id="Stroke-1012" stroke="#B680FF"></path>
                    <path d="M6.89655172,3.79296313 C6.89655172,1.69829924 8.44051724,0 10.3448276,0 C12.2491379,0 13.7931034,1.69829924 13.7931034,3.79296313 C13.7931034,5.88762702 12.2491379,7.58592627 10.3448276,7.58592627 C8.44051724,7.58592627 6.89655172,5.88762702 6.89655172,3.79296313 L6.89655172,3.79296313 Z" id="Stroke-1013" stroke="#FFFFFF"></path>
                </g>
            </g>
        </g>
    </g>
</svg>