<?xml version="1.0" encoding="UTF-8"?>
<svg width="800px" height="671px" viewBox="0 0 800 671" version="1.1" xmlns="http://www.w3.org/2000/svg" xmlns:xlink="http://www.w3.org/1999/xlink">
    <!-- Generator: Sketch 48.2 (47327) - http://www.bohemiancoding.com/sketch -->
    <title>Illustration_Stay in touch@2x</title>
    <desc>Created with Sketch.</desc>
    <defs>
        <linearGradient x1="50%" y1="100%" x2="50%" y2="5.67219084%" id="linearGradient-1">
            <stop stop-color="#FFD564" offset="0%"></stop>
            <stop stop-color="#FFD564" stop-opacity="0" offset="100%"></stop>
        </linearGradient>
        <polygon id="path-2" points="0.0345120081 0.183507879 28.5114228 0.183507879 28.5114228 72.4453719 0.0345120081 72.4453719"></polygon>
    </defs>
    <g id="ILLUSTRATION" stroke="none" stroke-width="1" fill="none" fill-rule="evenodd" transform="translate(-1889.000000, -1596.000000)">
        <g id="Illustration_Stay-in-touch" transform="translate(1889.000000, 1596.000000)">
            <g id="Page-1">
                <polygon id="Fill-11" fill="#010202" opacity="0.379755435" points="800 443.440474 644.80391 531.330617 640.381706 533.839636 637.58408 535.422319 633.166531 537.940648 616.548353 547.338996 611.981846 549.899219 592.528803 560.931455 588.478995 563.212381 398.226463 670.979168 266.868381 593.562666 262.399628 590.955893 234.423368 574.43547 230.094263 571.870591 207.23845 558.46433 202.630048 555.717909 179.588037 542.12545 175.026184 539.476782 0 436.323052 189.363435 330.003956 193.408588 327.723029 207.187245 319.991154 211.800303 317.384381 223.763528 310.681251 228.371931 308.125683 405.306645 208.784358 555.661585 298.159431 560.083789 300.812753 588.292796 317.57058 592.715001 320.223902 615.570813 333.769811 619.387874 336.055393 643.360875 350.29489 644.105667 350.760385 647.73653 352.906318"></polygon>
                <polygon id="Fill-2" fill="#8FC2FA" points="35.3641258 377.832234 35.3641258 322.753025 404.749843 170.473222 764.409181 329.233065 764.409181 384.310016 398.267095 591.669028"></polygon>
                <polygon id="Fill-3" fill="#F5FBFB" points="34.4894185 321.846803 409.438753 117.906985 765.415353 327.193212 398.944917 534.31567"></polygon>
                <polygon id="Fill-4" fill="#80BDF6" points="399.206574 534.534385 399.206574 588.282054 765.315954 385.712368 765.315954 327.118164"></polygon>
                <polygon id="Fill-5" fill="#2FA9FC" points="459.960329 184.527309 399.206081 215.811845 314.196656 166.528585 371.565201 137.376027"></polygon>
                <polygon id="Fill-6" fill="#353EC2" points="438.19779 214.534756 455.426466 224.426183 455.426466 203.693789 438.19779 193.822613"></polygon>
                <polygon id="Fill-7" fill="#2A2BB5" points="455.199773 224.426183 474.443651 213.138992 474.695381 193.142533 455.199773 203.571925"></polygon>
                <polygon id="Fill-8" fill="#3F50D1" points="455.430546 203.79711 474.922074 193.33207 457.632736 183.168036 438.19779 193.868449"></polygon>
                <polygon id="Fill-9" fill="#2A2BB5" points="455.426466 195.862851 465.85435 195.862851 465.85435 192.689147 455.426466 192.689147"></polygon>
                <g id="Group-96" transform="translate(255.936526, 0.000000)">
                    <path d="M199.461282,195.921163 C199.461282,197.205373 201.781683,198.245831 204.646069,198.245831 C207.508197,198.245831 209.828598,197.205373 209.828598,195.921163 C209.828598,194.634696 207.508197,193.594238 204.646069,193.594238 C201.781683,193.594238 199.461282,194.634696 199.461282,195.921163" id="Fill-10" fill="#2A2BB5"></path>
                    <path d="M199.461282,192.802497 C199.461282,194.086706 201.781683,195.129422 204.646069,195.129422 C207.508197,195.129422 209.828598,194.086706 209.828598,192.802497 C209.828598,191.518287 207.508197,190.475572 204.646069,190.475572 C201.781683,190.475572 199.461282,191.518287 199.461282,192.802497" id="Fill-12" fill="#3F50D1"></path>
                    <polygon id="Fill-14" fill="#2A2BB5" points="190.476048 190.493402 200.843365 190.493402 200.843365 187.376541 190.476048 187.376541"></polygon>
                    <path d="M190.4765,190.492499 C190.4765,191.776709 192.7969,192.819424 195.661286,192.819424 C198.523415,192.819424 200.843816,191.776709 200.843816,190.492499 C200.843816,189.208289 198.523415,188.165574 195.661286,188.165574 C192.7969,188.165574 190.4765,189.208289 190.4765,190.492499" id="Fill-16" fill="#2A2BB5"></path>
                    <path d="M190.4765,187.376089 C190.4765,188.660299 192.7969,189.700757 195.661286,189.700757 C198.523415,189.700757 200.843816,188.660299 200.843816,187.376089 C200.843816,186.089623 198.523415,185.049164 195.661286,185.049164 C192.7969,185.049164 190.4765,186.089623 190.4765,187.376089" id="Fill-17" fill="#3F50D1"></path>
                    <polygon id="Fill-18" fill="#353EC2" points="162.700307 225.279238 179.886623 235.200831 179.886623 214.407465 162.700307 204.506185"></polygon>
                    <polygon id="Fill-19" fill="#2A2BB5" points="179.748257 235.166751 199.076655 223.911295 199.329461 203.97106 179.748257 214.371128"></polygon>
                    <polygon id="Fill-20" fill="#3F50D1" points="179.887074 214.406562 199.328333 203.970383 182.083329 193.834378 162.700758 204.505282"></polygon>
                    <polygon id="Fill-21" fill="#2A2BB5" points="179.984585 206.635174 190.354159 206.635174 190.354159 203.518314 179.984585 203.518314"></polygon>
                    <path d="M179.984134,206.635174 C179.984134,207.919384 182.304535,208.9621 185.168921,208.9621 C188.03105,208.9621 190.353708,207.919384 190.353708,206.635174 C190.353708,205.350965 188.03105,204.308249 185.168921,204.308249 C182.304535,204.308249 179.984134,205.350965 179.984134,206.635174" id="Fill-22" fill="#2A2BB5"></path>
                    <path d="M179.984134,203.518539 C179.984134,204.802749 182.304535,205.845464 185.168921,205.845464 C188.03105,205.845464 190.353708,204.802749 190.353708,203.518539 C190.353708,202.23433 188.03105,201.191614 185.168921,201.191614 C182.304535,201.191614 179.984134,202.23433 179.984134,203.518539" id="Fill-23" fill="#3F50D1"></path>
                    <polygon id="Fill-24" fill="#2A2BB5" points="170.998675 201.207187 181.368249 201.207187 181.368249 198.090327 170.998675 198.090327"></polygon>
                    <path d="M170.999352,201.20651 C170.999352,202.492977 173.319753,203.533435 176.184139,203.533435 C179.046268,203.533435 181.368926,202.492977 181.368926,201.20651 C181.368926,199.9223 179.046268,198.881842 176.184139,198.881842 C173.319753,198.881842 170.999352,199.9223 170.999352,201.20651" id="Fill-25" fill="#2A2BB5"></path>
                    <path d="M170.999352,198.089875 C170.999352,199.374085 173.319753,200.4168 176.184139,200.4168 C179.046268,200.4168 181.368926,199.374085 181.368926,198.089875 C181.368926,196.805665 179.046268,195.76295 176.184139,195.76295 C173.319753,195.76295 170.999352,196.805665 170.999352,198.089875" id="Fill-26" fill="#3F50D1"></path>
                    <polygon id="Fill-27" fill="#353EC2" points="143.342114 236.114448 160.52843 246.036042 160.52843 225.242675 143.342114 215.341395"></polygon>
                    <polygon id="Fill-28" fill="#2A2BB5" points="160.390063 246.001961 179.716204 234.746505 179.969011 214.80627 160.390063 225.206338"></polygon>
                    <polygon id="Fill-29" fill="#3F50D1" points="160.528881 225.241773 179.967882 214.805593 162.725136 204.669589 143.342565 215.340492"></polygon>
                    <polygon id="Fill-30" fill="#2A2BB5" points="160.624586 217.470836 170.991903 217.470836 170.991903 214.353975 160.624586 214.353975"></polygon>
                    <path d="M160.625941,217.470385 C160.625941,218.754595 162.946342,219.79731 165.810728,219.79731 C168.672857,219.79731 170.993257,218.754595 170.993257,217.470385 C170.993257,216.186175 168.672857,215.14346 165.810728,215.14346 C162.946342,215.14346 160.625941,216.186175 160.625941,217.470385" id="Fill-31" fill="#2A2BB5"></path>
                    <path d="M160.625941,214.35375 C160.625941,215.637959 162.946342,216.680675 165.810728,216.680675 C168.672857,216.680675 170.993257,215.637959 170.993257,214.35375 C170.993257,213.06954 168.672857,212.026825 165.810728,212.026825 C162.946342,212.026825 160.625941,213.06954 160.625941,214.35375" id="Fill-32" fill="#3F50D1"></path>
                    <polygon id="Fill-33" fill="#2A2BB5" points="151.640933 212.040592 162.00825 212.040592 162.00825 208.923731 151.640933 208.923731"></polygon>
                    <path d="M151.641159,212.041721 C151.641159,213.32593 153.96156,214.368646 156.825946,214.368646 C159.688074,214.368646 162.008475,213.32593 162.008475,212.041721 C162.008475,210.757511 159.688074,209.717052 156.825946,209.717052 C153.96156,209.717052 151.641159,210.757511 151.641159,212.041721" id="Fill-34" fill="#2A2BB5"></path>
                    <path d="M151.641159,208.925085 C151.641159,210.209295 153.96156,211.25201 156.825946,211.25201 C159.688074,211.25201 162.008475,210.209295 162.008475,208.925085 C162.008475,207.640876 159.688074,206.59816 156.825946,206.59816 C153.96156,206.59816 151.641159,207.640876 151.641159,208.925085" id="Fill-35" fill="#3F50D1"></path>
                    <polygon id="Fill-36" fill="#C51D3E" points="157.537641 292.382024 102.132425 325.227553 102.132425 256.573107 157.537641 223.793031"></polygon>
                    <polygon id="Fill-37" fill="#F72C40" points="101.625684 257.714226 101.625684 386.868722 0.381263299 327.117982 0.196172951 264.435451 0.196172951 262.783357 0.0110826027 197.169036"></polygon>
                    <polygon id="Fill-38" fill="#FF4864" points="101.619138 257.696622 0.0113083227 197.153688 58.3666836 166.589946 162.351233 226.264523"></polygon>
                    <polygon id="Fill-39" fill="#B70F2A" points="49.8841283 186.852926 81.3336871 186.852926 81.3336871 177.398524 49.8841283 177.398524"></polygon>
                    <path d="M81.33301,186.853603 C81.33301,190.753629 74.2928051,193.911115 65.6093592,193.911115 C56.9259132,193.911115 49.8834512,190.753629 49.8834512,186.853603 C49.8834512,182.953578 56.9259132,179.793835 65.6093592,179.793835 C74.2928051,179.793835 81.33301,182.953578 81.33301,186.853603" id="Fill-40" fill="#B70F2A"></path>
                    <path d="M81.33301,177.398298 C81.33301,181.298324 74.2928051,184.45581 65.6093592,184.45581 C56.9259132,184.45581 49.8834512,181.298324 49.8834512,177.398298 C49.8834512,173.498272 56.9259132,170.338529 65.6093592,170.338529 C74.2928051,170.338529 81.33301,173.498272 81.33301,177.398298" id="Fill-41" fill="#FF6481"></path>
                    <polygon id="Fill-42" fill="#B70F2A" points="95.3892676 212.760562 126.838826 212.760562 126.838826 203.303903 95.3892676 203.303903"></polygon>
                    <path d="M126.838601,212.760111 C126.838601,216.657879 119.800653,219.817622 111.11495,219.817622 C102.431504,219.817622 95.3890418,216.657879 95.3890418,212.760111 C95.3890418,208.860085 102.431504,205.700342 111.11495,205.700342 C119.800653,205.700342 126.838601,208.860085 126.838601,212.760111" id="Fill-43" fill="#B70F2A"></path>
                    <path d="M126.838601,203.302548 C126.838601,207.202574 119.800653,210.362317 111.11495,210.362317 C102.431504,210.362317 95.3890418,207.202574 95.3890418,203.302548 C95.3890418,199.40478 102.431504,196.245037 111.11495,196.245037 C119.800653,196.245037 126.838601,199.40478 126.838601,203.302548" id="Fill-44" fill="#FF6481"></path>
                    <polygon id="Fill-45" fill="#B70F2A" points="25.7388667 205.192977 57.1884255 205.192977 57.1884255 195.738575 25.7388667 195.738575"></polygon>
                    <path d="M57.1870712,205.193655 C57.1870712,209.091423 50.1468663,212.251166 41.4611632,212.251166 C32.7799744,212.251166 25.7375124,209.091423 25.7375124,205.193655 C25.7375124,201.293629 32.7799744,198.133886 41.4611632,198.133886 C50.1468663,198.133886 57.1870712,201.293629 57.1870712,205.193655" id="Fill-46" fill="#B70F2A"></path>
                    <path d="M57.1870712,195.738124 C57.1870712,199.638149 50.1468663,202.795635 41.4611632,202.795635 C32.7799744,202.795635 25.7375124,199.638149 25.7375124,195.738124 C25.7375124,191.838098 32.7799744,188.678355 41.4611632,188.678355 C50.1468663,188.678355 57.1870712,191.838098 57.1870712,195.738124" id="Fill-47" fill="#FF6481"></path>
                    <polygon id="Fill-48" fill="#B70F2A" points="77.1917263 232.396108 108.641285 232.396108 108.641285 222.941705 77.1917263 222.941705"></polygon>
                    <path d="M108.639931,232.396108 C108.639931,236.296134 101.599726,239.45362 92.9140227,239.45362 C84.232834,239.45362 77.190372,236.296134 77.190372,232.396108 C77.190372,228.496082 84.232834,225.336339 92.9140227,225.336339 C101.599726,225.336339 108.639931,228.496082 108.639931,232.396108" id="Fill-49" fill="#B70F2A"></path>
                    <path d="M108.639931,222.940803 C108.639931,226.838571 101.599726,230.000571 92.9140227,230.000571 C84.232834,230.000571 77.190372,226.838571 77.190372,222.940803 C77.190372,219.040777 84.232834,215.881034 92.9140227,215.881034 C101.599726,215.881034 108.639931,219.040777 108.639931,222.940803" id="Fill-50" fill="#FF6481"></path>
                    <polygon id="Fill-51" fill="#E29500" points="101.619138 386.847958 159.04229 417.134095 159.674306 287.307842 101.619138 257.695719"></polygon>
                    <polygon id="Fill-52" fill="#FFBC00" points="159.043193 417.134095 275.076783 351.522031 274.959409 223.710426 159.672951 284.166903"></polygon>
                    <polygon id="Fill-53" fill="#FFD564" points="159.673628 291.725023 274.960086 223.709297 218.803223 193.253888 101.618461 257.696847"></polygon>
                    <polygon id="Fill-54" fill="#E29500" points="210.677982 235.619046 244.574345 235.619046 244.574345 225.428875 210.677982 225.428875"></polygon>
                    <path d="M210.678885,235.618594 C210.678885,239.821053 218.265332,243.226804 227.625938,243.226804 C236.986544,243.226804 244.575248,239.821053 244.575248,235.618594 C244.575248,231.418393 236.986544,228.010385 227.625938,228.010385 C218.265332,228.010385 210.678885,231.418393 210.678885,235.618594" id="Fill-55" fill="#E29500"></path>
                    <path d="M210.678885,225.4291 C210.678885,229.629302 218.265332,233.03731 227.625938,233.03731 C236.986544,233.03731 244.575248,229.629302 244.575248,225.4291 C244.575248,221.226642 236.986544,217.820891 227.625938,217.820891 C218.265332,217.820891 210.678885,221.226642 210.678885,225.4291" id="Fill-56" fill="#FFE19D"></path>
                    <polygon id="Fill-57" fill="#E29500" points="180.187733 216.554511 214.084096 216.554511 214.084096 206.362082 180.187733 206.362082"></polygon>
                    <path d="M180.189088,216.555639 C180.189088,220.75584 187.775535,224.163849 197.136141,224.163849 C206.496746,224.163849 214.085451,220.75584 214.085451,216.555639 C214.085451,212.355438 206.496746,208.947429 197.136141,208.947429 C187.775535,208.947429 180.189088,212.355438 180.189088,216.555639" id="Fill-58" fill="#E29500"></path>
                    <path d="M180.189088,206.364114 C180.189088,210.566572 187.775535,213.972323 197.136141,213.972323 C206.496746,213.972323 214.085451,210.566572 214.085451,206.364114 C214.085451,202.163912 206.496746,198.758161 197.136141,198.758161 C187.775535,198.758161 180.189088,202.163912 180.189088,206.364114" id="Fill-59" fill="#FFE19D"></path>
                    <polygon id="Fill-60" fill="#E29500" points="160.087373 264.614202 193.983736 264.614202 193.983736 254.424031 160.087373 254.424031"></polygon>
                    <path d="M160.08805,264.615105 C160.08805,268.817563 167.674497,272.223315 177.03736,272.223315 C186.395709,272.223315 193.984413,268.817563 193.984413,264.615105 C193.984413,260.414904 186.395709,257.006895 177.03736,257.006895 C167.674497,257.006895 160.08805,260.414904 160.08805,264.615105" id="Fill-61" fill="#E29500"></path>
                    <path d="M160.08805,254.425836 C160.08805,258.626038 167.674497,262.034046 177.03736,262.034046 C186.395709,262.034046 193.984413,258.626038 193.984413,254.425836 C193.984413,250.223378 186.395709,246.817627 177.03736,246.817627 C167.674497,246.817627 160.08805,250.223378 160.08805,254.425836" id="Fill-62" fill="#FFE19D"></path>
                    <polygon id="Fill-63" fill="#E29500" points="130.714438 246.869988 164.608543 246.869988 164.608543 236.67756 130.714438 236.67756"></polygon>
                    <path d="M130.715792,246.870214 C130.715792,251.070415 138.302239,254.478424 147.662845,254.478424 C157.021193,254.478424 164.609898,251.070415 164.609898,246.870214 C164.609898,242.670012 157.021193,239.262004 147.662845,239.262004 C138.302239,239.262004 130.715792,242.670012 130.715792,246.870214" id="Fill-64" fill="#E29500"></path>
                    <path d="M130.715792,236.678688 C130.715792,240.881146 138.302239,244.286898 147.662845,244.286898 C157.021193,244.286898 164.609898,240.881146 164.609898,236.678688 C164.609898,232.478487 157.021193,229.070478 147.662845,229.070478 C138.302239,229.070478 130.715792,232.478487 130.715792,236.678688" id="Fill-65" fill="#FFE19D"></path>
                    <polygon id="Fill-66" fill="#0080DB" points="80.846132 168.659577 110.128779 168.659577 110.128779 159.857436 80.846132 159.857436"></polygon>
                    <path d="M110.127651,168.659126 C110.127651,172.288316 103.575001,175.231391 95.4874557,175.231391 C87.4021676,175.231391 80.8450034,172.288316 80.8450034,168.659126 C80.8450034,165.029935 87.4021676,162.08686 95.4874557,162.08686 C103.575001,162.08686 110.127651,165.029935 110.127651,168.659126" id="Fill-67" fill="#0080DB"></path>
                    <path d="M110.127651,159.856082 C110.127651,163.485272 103.575001,166.428347 95.4874557,166.428347 C87.4021676,166.428347 80.8450034,163.485272 80.8450034,159.856082 C80.8450034,156.226891 87.4021676,153.281559 95.4874557,153.281559 C103.575001,153.281559 110.127651,156.226891 110.127651,159.856082" id="Fill-68" fill="#2FA9FC"></path>
                    <polygon id="Fill-69" fill="#0080DB" points="107.187649 152.190545 136.470296 152.190545 136.470296 143.386147 107.187649 143.386147"></polygon>
                    <path d="M136.469167,152.19032 C136.469167,155.81951 129.91426,158.762585 121.828972,158.762585 C113.743684,158.762585 107.18652,155.81951 107.18652,152.19032 C107.18652,148.561129 113.743684,145.618054 121.828972,145.618054 C129.91426,145.618054 136.469167,148.561129 136.469167,152.19032" id="Fill-70" fill="#0080DB"></path>
                    <path d="M136.469167,143.385244 C136.469167,147.014435 129.91426,149.959767 121.828972,149.959767 C113.743684,149.959767 107.18652,147.014435 107.18652,143.385244 C107.18652,139.756054 113.743684,136.812979 121.828972,136.812979 C129.91426,136.812979 136.469167,139.756054 136.469167,143.385244" id="Fill-71" fill="#2FA9FC"></path>
                    <polygon id="Fill-72" fill="#0080DB" points="122.277026 187.938524 151.559674 187.938524 151.559674 179.136382 122.277026 179.136382"></polygon>
                    <path d="M151.559674,187.938072 C151.559674,191.567263 145.004767,194.510338 136.919479,194.510338 C128.831933,194.510338 122.277026,191.567263 122.277026,187.938072 C122.277026,184.308882 128.831933,181.365807 136.919479,181.365807 C145.004767,181.365807 151.559674,184.308882 151.559674,187.938072" id="Fill-73" fill="#0080DB"></path>
                    <path d="M151.559674,179.135028 C151.559674,182.764219 145.004767,185.707294 136.919479,185.707294 C128.831933,185.707294 122.277026,182.764219 122.277026,179.135028 C122.277026,175.505838 128.831933,172.562763 136.919479,172.562763 C145.004767,172.562763 151.559674,175.505838 151.559674,179.135028" id="Fill-74" fill="#2FA9FC"></path>
                    <polygon id="Fill-75" fill="#0080DB" points="147.654719 172.609256 176.937366 172.609256 176.937366 163.804858 147.654719 163.804858"></polygon>
                    <path d="M176.935561,172.608805 C176.935561,176.237995 170.380654,179.18107 162.295365,179.18107 C154.20782,179.18107 147.652913,176.237995 147.652913,172.608805 C147.652913,168.979614 154.20782,166.034282 162.295365,166.034282 C170.380654,166.034282 176.935561,168.979614 176.935561,172.608805" id="Fill-76" fill="#0080DB"></path>
                    <path d="M176.935561,163.803504 C176.935561,167.432694 170.380654,170.375769 162.295365,170.375769 C154.20782,170.375769 147.652913,167.432694 147.652913,163.803504 C147.652913,160.174313 154.20782,157.231238 162.295365,157.231238 C170.380654,157.231238 176.935561,160.174313 176.935561,163.803504" id="Fill-77" fill="#2FA9FC"></path>
                    <polygon id="Fill-78" fill="#FFD564" points="159.239569 359.799881 159.239569 357.888236 275.076783 291.957941 275.076783 293.612292"></polygon>
                    <polygon id="Fill-79" fill="#F69E00" points="159.239569 359.799881 159.239569 357.888236 101.574897 324.923089 101.574897 326.57744"></polygon>
                    <polygon id="Fill-80" fill="#FF4864" points="101.685274 324.8213 101.685274 326.714889 101.626587 326.653951 0.197075831 268.674923 0.197075831 267.027343 101.626587 324.762619"></polygon>
                    <polygon id="Fill-81" fill="#E29500" points="103.188569 132.552291 160.61172 162.838428 162.926821 93.7801077 103.188569 64.49594"></polygon>
                    <polygon id="Fill-82" fill="#FFBC00" points="160.612849 162.838202 276.64644 97.2261382 276.529065 30.5081642 162.870383 88.5311487 161.655214 89.1514948"></polygon>
                    <polygon id="Fill-83" fill="#FFD564" points="161.243285 98.5236641 276.527485 30.5079385 220.372879 0.0547866068 103.188117 64.4954887"></polygon>
                    <polygon id="Fill-84" fill="#E29500" points="212.246736 42.4188155 246.140842 42.4188155 246.140842 32.2263873 212.246736 32.2263873"></polygon>
                    <path d="M212.248316,42.4192669 C212.248316,46.6194682 219.834763,50.0274767 229.195369,50.0274767 C238.553717,50.0274767 246.142422,46.6194682 246.142422,42.4192669 C246.142422,38.2168087 238.553717,34.8110571 229.195369,34.8110571 C219.834763,34.8110571 212.248316,38.2168087 212.248316,42.4192669" id="Fill-85" fill="#E29500"></path>
                    <path d="M212.248316,32.2277415 C212.248316,36.4301997 219.834763,39.8359513 229.195369,39.8359513 C238.553717,39.8359513 246.142422,36.4301997 246.142422,32.2277415 C246.142422,28.0275402 238.553717,24.6195317 229.195369,24.6195317 C219.834763,24.6195317 212.248316,28.0275402 212.248316,32.2277415" id="Fill-86" fill="#FFE19D"></path>
                    <polygon id="Fill-87" fill="#E29500" points="181.758744 23.3542803 215.65285 23.3542803 215.65285 13.164109 181.758744 13.164109"></polygon>
                    <path d="M181.758518,23.3542803 C181.758518,27.5567385 189.344965,30.9624901 198.705571,30.9624901 C208.06392,30.9624901 215.652624,27.5567385 215.652624,23.3542803 C215.652624,19.154079 208.06392,15.7483274 198.705571,15.7483274 C189.344965,15.7483274 181.758518,19.154079 181.758518,23.3542803" id="Fill-88" fill="#E29500"></path>
                    <path d="M181.758518,13.1647861 C181.758518,17.3649874 189.344965,20.7729959 198.705571,20.7729959 C208.06392,20.7729959 215.652624,17.3649874 215.652624,13.1647861 C215.652624,8.96232789 208.06392,5.5565763 198.705571,5.5565763 C189.344965,5.5565763 181.758518,8.96232789 181.758518,13.1647861" id="Fill-89" fill="#FFE19D"></path>
                    <polygon id="Fill-90" fill="#E29500" points="161.656127 71.4162287 195.552489 71.4162287 195.552489 61.2238005 161.656127 61.2238005"></polygon>
                    <path d="M161.657481,71.416003 C161.657481,75.6162042 169.243928,79.0242128 178.604534,79.0242128 C187.962882,79.0242128 195.553844,75.6162042 195.553844,71.416003 C195.553844,67.2135447 187.962882,63.8077932 178.604534,63.8077932 C169.243928,63.8077932 161.657481,67.2135447 161.657481,71.416003" id="Fill-91" fill="#E29500"></path>
                    <path d="M161.657481,61.2244775 C161.657481,65.4246788 169.243928,68.8326874 178.604534,68.8326874 C187.962882,68.8326874 195.553844,65.4246788 195.553844,61.2244775 C195.553844,57.0242763 187.962882,53.6162677 178.604534,53.6162677 C169.243928,53.6162677 161.657481,57.0242763 161.657481,61.2244775" id="Fill-92" fill="#FFE19D"></path>
                    <polygon id="Fill-93" fill="#E29500" points="132.283191 53.6697577 166.179554 53.6697577 166.179554 43.4795864 132.283191 43.4795864"></polygon>
                    <path d="M132.283191,53.6688549 C132.283191,57.8713131 139.871895,61.2770647 149.232501,61.2770647 C158.59085,61.2770647 166.179554,57.8713131 166.179554,53.6688549 C166.179554,49.4686536 158.59085,46.0606451 149.232501,46.0606451 C139.871895,46.0606451 132.283191,49.4686536 132.283191,53.6688549" id="Fill-94" fill="#E29500"></path>
                    <path d="M132.283191,43.4793607 C132.283191,47.679562 139.871895,51.0875705 149.232501,51.0875705 C158.59085,51.0875705 166.179554,47.679562 166.179554,43.4793607 C166.179554,39.2769025 158.59085,35.8711509 149.232501,35.8711509 C139.871895,35.8711509 132.283191,39.2769025 132.283191,43.4793607" id="Fill-95" fill="#FFE19D"></path>
                </g>
                <g id="Group-99" transform="translate(357.268348, 98.384812)" fill="url(#linearGradient-1)" opacity="0.810009058">
                    <polygon id="Fill-97" points="59.0212597 64.2834372 1.56953417 34.0017607 0 159.215957 58.0840558 193.239121 173.42788 125.233413 175.114847 0"></polygon>
                </g>
            </g>
            <g id="Group" transform="translate(129.441768, 153.471238)">
                <path d="M73.6752621,83.9877293 C73.6752621,91.0612944 67.9408826,96.7979598 60.865031,96.7979598 C53.7891793,96.7979598 48.0589402,91.0612944 48.0589402,83.9877293 C48.0589402,76.9141642 53.7891793,71.1816379 60.865031,71.1816379 C67.9408826,71.1816379 73.6752621,76.9141642 73.6752621,83.9877293" id="Fill-217" fill="#FF6481"></path>
                <path d="M60.9804477,71.1280604 L87.3726205,71.1280604 L94.4543607,51.2326438 L113.119864,52.5186278 L106.603997,80.0303881 C105.530502,88.2689822 98.7316985,94.5827487 90.4141905,95.0722522 L60.9804477,96.7979598 L60.9804477,71.1280604 Z" id="Fill-219" fill="#B1D1FB"></path>
                <path d="M111.410317,41.0314537 C111.203277,44.4885396 108.346122,47.2335072 104.83472,47.2335072 C101.323317,47.2335072 98.4661624,44.4885396 98.263263,41.0314537 L89.7704732,41.0314537 C89.7704732,49.1669912 96.3667746,55.7665061 104.507596,55.7665061 C112.644277,55.7665061 119.240578,49.1669912 119.240578,41.0314537 L111.410317,41.0314537 Z" id="Fill-221" fill="#FBB100"></path>
                <polygon id="Fill-223" fill="#80A7F7" points="99.5182771 75.8086734 66.0659889 97.2349639 10.0378117 65.3974214 44.2210782 44.6585435"></polygon>
                <polygon id="Fill-225" fill="#B1D1FB" points="0.906772457 125.28571 77.9824313 168.659677 70.3779767 98.9430567 10.2366774 65.2876169"></polygon>
                <polygon id="Fill-227" fill="#78A2E7" points="114.25333 146.57121 76.8560401 168.659677 65.9676962 96.707848 99.3757754 75.9421933"></polygon>
                <path d="M87.276849,52.5283177 C87.276849,56.3517254 85.5003412,59.9426566 82.4246585,62.2715727 C76.6427069,66.7052311 66.2949645,72.6250784 52.3526994,72.7662248 C37.9953624,72.9032199 27.3197131,66.7965611 21.3966371,62.2715727 C18.3209543,59.9883216 16.5485973,56.3517254 16.5485973,52.4785014 L16.5485973,18.0678323 C16.5485973,12.612938 20.3960594,7.7143266 25.5221973,5.75488206 C32.6572833,3.00667806 42.727182,0.453386228 51.9127232,0.453386228 C61.1439222,0.453386228 71.6120355,3.00667806 78.7886286,5.75488206 C83.9147666,7.7143266 87.276849,12.612938 87.276849,18.0678323 L87.276849,52.5283177 Z" id="Fill-229" fill="#FBB100"></path>
                <path d="M51.9812344,0.00727072043 C49.2272748,0.048905389 46.4733151,0.223770997 43.7359957,0.536031011 C37.3544637,1.27296465 31.0062123,2.78013965 25.2611695,5.65293178 C22.8691351,6.8561737 20.5270214,8.34669484 18.9836391,10.5325149 C15.0440624,16.1240509 19.4079652,22.9396462 24.2960356,26.1704965 C39.3762529,36.1503265 59.0949369,37.2203375 75.1028475,28.8142979 C80.3653233,26.0497559 88.2153564,21.6031733 86.9049375,14.5252797 C85.4156361,6.50644249 76.7876718,3.19648633 69.7072498,1.71429213 C63.8831659,0.494396343 57.9301201,-0.0718351499 51.9812344,0.00727072043" id="Fill-231" fill="#FFCB57"></path>
                <path d="M36.4975914,3.74043638 C36.4975914,5.55729384 43.0429427,7.02748654 51.1192973,7.02748654 C59.1914801,7.02748654 65.7410031,5.55729384 65.7410031,3.74043638 C65.7410031,1.92357893 59.1914801,0.453386228 51.1192973,0.453386228 C43.0429427,0.453386228 36.4975914,1.92357893 36.4975914,3.74043638" id="Fill-233" fill="#FFCD5D"></path>
                <path d="M65.51431,12.9432613 C65.51431,15.0203816 63.9821014,16.8524016 61.6589418,17.6209361 C58.8636963,18.5473318 54.7929907,19.4571105 50.084555,19.4944986 C45.2932972,19.5318868 41.8644627,18.6179539 39.6241252,17.6790955 C37.6529595,16.8524016 36.4975914,15.1159291 36.4975914,13.2797548 L36.4975914,3.85378294 C38.8373154,4.94219397 44.0882358,7.03593121 51.1943709,6.99854304 C58.0851687,6.96530912 63.1787271,4.94219397 65.51431,3.85378294 L65.51431,12.9432613 Z" id="Fill-235" fill="#FBB100"></path>
                <path d="M0.680079343,183.365241 C0.680079343,183.668684 0.842082827,183.951344 1.11208863,184.100987 L74.7156717,225.223799 C75.280607,225.539713 75.9743142,225.13235 75.9743142,224.483896 L77.3023519,169.374711 C77.3023519,169.087895 75.7126163,167.735829 75.471688,167.598656 L19.5347926,136.077956 C11.1023035,131.322625 0.680079343,137.420589 0.680079343,147.105837 L0.680079343,183.365241 Z" id="Fill-237" fill="#007FFF"></path>
                <path d="M75.9422239,179.240974 L76.0338796,226.013035 L114.933409,201.374255 L114.7251,179.024552 C114.591783,164.328685 98.760337,157.856185 85.9035364,165.006426 C79.7417709,168.431715 75.9297254,172.198944 75.9422239,179.240974 Z" id="Fill-239" fill="#0064DD"></path>
                <polygon id="Fill-241" fill="#005CB5" points="114.480023 199.943327 128.534996 192.495044 114.480023 185.661661"></polygon>
                <path d="M128.534996,192.462454 L128.534996,206.458798 L76.1375819,239.161235 L75.9421933,221.397497 L113.84842,197.146092 C113.997082,198.969835 114.313393,199.795211 114.797354,199.62222 C115.281314,199.449229 119.860528,197.06264 128.534996,192.462454 Z" id="Fill-243" fill="#0064DD"></path>
                <polygon id="Fill-245" fill="#007FFF" points="76.1688864 239.161235 0 197.545935 0.627639937 182.261264 75.9735282 213.909929"></polygon>
                <polygon id="Fill-247" fill="#0064DD" points="30.3768773 214.301845 30.3768773 148.48399 32.225333 150.360102 32.225333 215.358458"></polygon>
                <path d="M105.638991,107.33712 C105.638991,114.410685 99.9055384,120.147351 92.8308303,120.147351 C85.7561221,120.147351 80.0226693,114.410685 80.0226693,107.33712 C80.0226693,100.263555 85.7561221,94.5310286 92.8308303,94.5310286 C99.9055384,94.5310286 105.638991,100.263555 105.638991,107.33712" id="Fill-249" fill="#B1D1FB"></path>
                <path d="M92.9441768,94.4774511 L119.33635,94.4774511 L126.41809,74.5820346 L145.083593,75.8680185 L138.567726,103.379779 C137.49007,111.622521 130.695428,117.932139 122.37792,118.421643 L92.9441768,120.147351 L92.9441768,94.4774511 Z" id="Fill-251" fill="#B1D1FB"></path>
                <path d="M143.596598,64.3808444 C143.393699,67.8379303 140.536544,70.582898 137.025142,70.582898 C133.51374,70.582898 130.656585,67.8379303 130.453685,64.3808444 L121.960895,64.3808444 C121.960895,72.5163819 128.557197,79.1158969 136.693877,79.1158969 C144.834699,79.1158969 151.431,72.5163819 151.431,64.3808444 L143.596598,64.3808444 Z" id="Fill-253" fill="#FFBC00"></path>
                <polygon id="Fill-255" fill="#0064DD" points="0.906772457 125.361292 0.906772457 135.333334 77.0756588 177.500708 76.8802794 167.59094"></polygon>
                <polygon id="Fill-257" fill="#005DBA" points="76.8489657 177.047322 76.8489657 167.735742 114.25333 146.443752 114.25333 156.82488"></polygon>
                <path d="M87.276849,45.8248405 L87.276849,50.5525645 C83.933346,50.3649564 80.9208415,48.8640916 78.6625106,46.3876648 L82.1903671,43.2983848 C83.5562593,44.7950805 85.391415,45.6830921 87.276849,45.8248405" id="Fill-259" fill="#292B41"></path>
                <path d="M87.2188155,29.0167186 L87.2188155,36.0442052 C85.611108,36.0442052 84.3298385,34.4613633 84.3298385,32.5097441 C84.3298385,30.5995605 85.611108,29.0167186 87.2188155,29.0167186" id="Fill-261" fill="#292B41"></path>
            </g>
            <g id="Page-1" transform="translate(477.189005, 187.928592)">
                <polygon id="Fill-1" fill="#B1D1FB" points="85.3434895 107.077795 78.2091244 172.51346 150.524228 131.800333 141.770775 75.488807"></polygon>
                <polygon id="Fill-2" fill="#80A7F7" points="109.813986 56.2198923 58.0334372 85.4645509 89.3857512 104.958912 141.456503 75.6186621"></polygon>
                <polygon id="Fill-3" fill="#78A2E7" points="44.2051573 151.600202 79.3203448 172.286767 89.5437801 104.908261 58.172415 85.4633041"></polygon>
                <g id="Group-32">
                    <path d="M76.8064257,103.587919 C72.3464715,98.6378799 64.7168384,98.2397201 59.7652521,102.694133 L41.3881668,119.234357 L24.1540743,109.898338 C23.9466346,113.405048 22.413655,116.837103 19.5945491,119.371224 C17.4848871,121.270779 14.952048,122.400972 12.3362331,122.782542 L33.6008794,137.504087 C39.5295068,142.584773 48.2357521,142.734083 54.3324057,137.860772 L75.9144348,120.619621 C80.8660211,116.163134 81.2643054,108.537959 76.8064257,103.587919" id="Fill-4" fill="#B1D1FB"></path>
                    <path d="M24.1542817,109.898338 C24.3700191,106.319047 23.2083566,102.663027 20.6195088,99.7888107 L14.678435,105.134936 C16.7134188,107.683574 16.4416727,111.40388 13.9876608,113.612423 C11.5315744,115.820966 7.79973371,115.704836 5.48055757,113.413343 L0,118.344718 C3.22776214,121.928157 7.89723038,123.431625 12.3364405,122.782542 C14.9501811,122.400972 17.4850945,121.270779 19.5947566,119.371224 C22.4138624,116.837103 23.9447676,113.405048 24.1542817,109.898338" id="Fill-6" fill="#FFD564"></path>
                    <polygon id="Fill-8" fill="#005CB5" points="43.8307696 188.409238 30.7765876 194.659518 44.3895668 205.4703"></polygon>
                    <g id="Group-12" transform="translate(122.842825, 142.601796)">
                        <mask id="mask-3" fill="white">
                            <use xlink:href="#path-2"></use>
                        </mask>
                        <g id="Clip-11"></g>
                        <path d="M27.9227088,43.9624269 L27.9227088,8.144631 C27.9227088,4.91580352 26.5909458,2.14942211 24.5414413,0.183507879 L0.0345120081,13.7624175 L0.0345120081,72.4453719 L28.5118377,56.9129906 L27.9227088,43.9624269 Z" id="Fill-10" fill="#007FFF" mask="url(#mask-3)"></path>
                    </g>
                    <polygon id="Fill-13" fill="#007FFF" points="79.9136653 175.092094 80.0982867 226.008384 79.9136653 238.479912 121.109121 216.010839 121.109121 157.342401"></polygon>
                    <path d="M147.384474,142.784682 L150.377829,141.125683 L150.377829,131.762705 L79.128506,171.404495 L79.128506,176.678573 L54.4182857,166.466898 C48.4315752,168.947102 43.9612491,174.529635 43.8907196,182.011722 L43.8305621,188.409238 L43.6978007,202.871565 L30.7763801,194.659518 L30.7763801,207.794645 L79.9147025,238.479912 L80.0972495,226.008384 L80.1843742,180.020922 L121.108083,157.344475 L121.108083,216.012913 L122.877544,215.083874 L122.877544,156.365665 L147.384474,142.784682 Z" id="Fill-15" fill="#0064DD"></path>
                    <polygon id="Fill-17" fill="#005DBA" points="79.1239423 179.194741 79.1280911 171.403665 44.1744972 151.479083 44.1744972 161.188377 54.4178709 166.466068"></polygon>
                    <path d="M71.6366128,42.6391865 C71.0661536,41.4612969 70.5268103,40.3041449 70.0517733,39.1843203 C69.8132176,38.6223343 69.6514146,38.0354633 69.4584957,37.4610348 L69.4584957,41.345167 C70.3525609,41.345167 71.1346087,41.8615305 71.6366128,42.6391865" id="Fill-19" fill="#FBB100"></path>
                    <path d="M72.215992,44.6279119 C72.215992,46.4673275 70.9900232,47.9542056 69.459118,47.9542056 L69.459118,57.1927582 C71.2099093,57.0600383 72.9171382,56.2305386 74.1866694,54.8286842 L77.4704402,57.7174168 C75.3711502,60.0379421 72.5665651,61.4377228 69.459118,61.6119177 L69.459118,63.4098583 C69.459118,66.9974444 71.1227846,70.3693606 74.01242,72.5571659 C77.9848907,75.6014297 84.2620169,79.3839483 92.4683324,81.2503225 C86.8819806,68.3370864 77.6114992,54.714628 72.023073,43.4438012 C72.1454625,43.8129285 72.215992,44.2110883 72.215992,44.6279119" id="Fill-21" fill="#FBB100"></path>
                    <path d="M74.1870842,54.8284768 C72.9175531,56.2303312 71.2082498,57.0598309 69.4595329,57.1925509 L69.4595329,61.6117104 C72.56698,61.4395892 75.3694907,60.0377347 77.4708551,57.7192832 L74.1870842,54.8284768 Z" id="Fill-23" fill="#292B41"></path>
                    <path d="M72.215992,44.6279119 C72.215992,44.2110883 72.1454625,43.8129285 72.023073,43.4438012 C71.8882372,43.17214 71.7658478,42.9087739 71.6372351,42.6391865 C71.135231,41.8615305 70.3531832,41.345167 69.459118,41.345167 L69.459118,47.9542056 C70.9900232,47.9542056 72.215992,46.4673275 72.215992,44.6279119" id="Fill-25" fill="#292B41"></path>
                    <path d="M77.5380656,11.1764712 C76.2125257,12.2444521 74.9699618,13.3974566 73.8435641,14.6562224 C68.3049234,20.8525849 66.8258781,29.6452815 69.4582882,37.4612421 C69.6512072,38.0356707 69.8130102,38.6204679 70.0515659,39.1845277 C70.5266028,40.3043523 71.0659461,41.4615043 71.6364054,42.6393938 C71.7670924,42.9089812 71.8874074,43.1723474 72.0243176,43.4440085 C77.6106695,54.7148353 86.8832253,68.3372937 92.4675027,81.2505299 C97.6555702,93.2513164 99.6656612,104.640347 92.542181,112.964376 C92.542181,112.964376 93.4694366,112.50193 95.0293833,111.724274 C94.8883243,111.794782 94.7887532,111.840404 94.7887532,111.840404 C106.911531,97.6746234 92.8616382,72.7979282 81.2346415,53.8666719 C70.4311806,36.2812788 69.8399773,20.9147974 77.5380656,11.1764712 Z" id="Fill-27" fill="#3A2400"></path>
                    <g id="Group-31" transform="translate(70.982893, 0.000000)" fill="#6C4500">
                        <path d="M74.0394642,38.2546586 C73.2055565,28.8232473 71.2846646,18.9916024 65.1963086,11.735554 C65.1216303,11.6463828 65.0448776,11.5551378 64.9660505,11.4638929 C60.1015889,5.82122133 53.0175223,2.32073271 45.6720816,1.03708197 C44.8713642,0.896067022 44.0561261,0.779937068 43.2284416,0.682470856 C25.7288263,-1.35187709 13.1247885,2.864055 6.55517237,11.1756417 C3.09071447,15.5592243 0.280421486,20.4420682 0.12923133,26.8285988 C-0.0555257815,34.6330548 3.32368396,44.3516779 9.26514094,54.0229173 C20.8921376,72.9541736 35.9286376,97.6737939 23.80586,111.839575 C23.80586,111.839575 23.9054311,111.793952 24.0464901,111.725518 C27.5646679,110.031265 72.6413204,88.3377751 72.6413204,88.3377751 C73.6868166,87.8317803 73.53746,79.0992225 73.6287335,77.9192592 C73.9772322,73.4441085 74.2717967,68.9648102 74.4605668,64.4792907" id="Fill-29"></path>
                    </g>
                </g>
            </g>
        </g>
    </g>
</svg>