<?xml version="1.0" encoding="utf-8"?>
<!-- Generator: Adobe Illustrator 22.0.1, SVG Export Plug-In . SVG Version: 6.00 Build 0)  -->
<svg version="1.1" id="Warstwa_1" xmlns="http://www.w3.org/2000/svg" xmlns:xlink="http://www.w3.org/1999/xlink" x="0px" y="0px"
	 viewBox="0 0 395.3 341.6" style="enable-background:new 0 0 395.3 341.6;" xml:space="preserve">
<style type="text/css">
	.st0{fill:#8EC1F9;}
	.st1{fill:#F4FAFA;}
	.st2{fill:#80BCF5;}
	.st3{fill:none;}
	.st4{fill:#2FA8FB;}
	.st5{fill:#343EC1;}
	.st6{fill:#2A2BB4;}
	.st7{fill:#3F50D0;}
	.st8{fill:#C41D3E;}
	.st9{fill:#F62C3F;}
	.st10{fill:#FF4864;}
	.st11{fill:#B60F2A;}
	.st12{fill:#FF6480;}
	.st13{fill:#E19400;}
	.st14{fill:#FFBB00;}
	.st15{fill:#FFD464;}
	.st16{fill:#FFE09C;}
	.st17{fill:#0080DA;}
	.st18{fill:#F59D00;}
	.st19{fill:url(#SVGID_1_);}
	.st20{fill:#B0D0FA;}
	.st21{fill:#FAB000;}
	.st22{fill:#80A6F6;}
	.st23{fill:#78A1E6;}
	.st24{fill:#FFCA57;}
	.st25{fill:#FFCC5D;}
	.st26{fill:#0064DC;}
	.st27{fill:#005CB4;}
	.st28{fill:#007FFF;}
	.st29{fill:#005EB9;}
	.st30{fill:#292B41;}
	.st31{fill:#3A2400;}
	.st32{fill:#6C4400;}
</style>
<title>ILLUSTRATION_STAY IN TOUCH</title>
<g>
	<polygon class="st0" points="197.1,237.8 358.1,146.6 358,146.6 196.9,237.8 37,143.6 35.8,144 35.8,168.4 196.6,263.2 
		358.8,171.3 358.8,170.6 197.1,262.2 	"/>
	<polygon class="st1" points="358,146.6 359.1,145.9 202,53 36.2,143.1 37,143.6 196.9,237.8 	"/>
	<polygon class="st2" points="359.3,145.9 358.1,146.6 197.1,237.8 197.1,262.2 358.8,170.6 359.3,170.3 	"/>
	<path class="st3" d="M178.8,115l-0.2,0.2L178.8,115z"/>
	<path class="st3" d="M169.6,80.6L169.6,80.6l12.7,7.3h0.1L169.6,80.6z"/>
	<path class="st3" d="M162.3,76.4l-2.9-1.6L162.3,76.4z"/>
	<polygon class="st3" points="189.8,92.2 189.8,92.2 197.1,96.4 197.1,96.4 	"/>
	<polygon class="st3" points="200.7,94.3 197.1,96.4 200.7,94.4 	"/>
	<path class="st3" d="M214.3,86.9h-0.1H214.3z"/>
	<path class="st3" d="M194,66.8l8.1,4.3l0.4-0.1l-8.5-4.5V66.8z"/>
	<path class="st3" d="M205.6,91.7L205.6,91.7l-1.7,1l0,0L205.6,91.7z"/>
	<path class="st4" d="M162.6,76.4c3.9,0,7,1.4,7,3.1v1l12.7,7.3h0.4c3.9,0,7,1.4,7,3.1V92l7.3,4.2l3.7-2v-0.8c0-0.6,1-1,2.3-1
		c0.3,0,0.6,0,0.9,0.1l1.7-1l0,0l3.7-2v-0.8c0-0.6,1-1,2.3-1c0.3,0,0.6,0,0.9,0.1l1.7-0.9h0.1l0,0l3.7-2v-1c0-0.6,1-1,2.3-1
		c0.3,0,0.6,0,0.9,0.1l1.7-0.9l-11-5.8v1.2c0,1.6-2.9,2.9-6.5,2.9s-6.5-1.3-6.5-2.9v-3.9c0,1.6,2.9,2.9,6.5,2.9s6.5-1.3,6.5-2.9
		c0-1.3-2-2.5-4.8-2.8l-2.4,1.4l-2.2-1.1l-0.4,0.1l-8.1-4.3v1.7c0,1.6-2.9,2.9-6.5,2.9S181,70,181,68.4v-3.9c0,1.6,2.9,2.9,6.5,2.9
		c2,0.1,3.9-0.4,5.6-1.4l-8-4.2l-0.3,0.1l0,0l0,0c-1.3,0.2-2.5,0.8-3.4,1.7l-22,11.2l2.9,1.7L162.6,76.4L162.6,76.4z M187.7,80.3
		c0,1.6,2.9,2.9,6.5,2.9s6.5-1.3,6.5-2.9v3.9c0,1.6-2.9,2.9-6.5,2.9s-6.5-1.3-6.5-2.9V80.3z M169.4,71.8c0,1.6,2.9,2.9,6.5,2.9
		s6.5-1.3,6.5-2.9v3.9c0,1.6-2.9,2.9-6.5,2.9s-6.5-1.3-6.5-2.9V71.8z"/>
	<path class="st5" d="M218.3,89.2h0.1l-4.1-2.4l0,0L218.3,89.2z"/>
	<path class="st6" d="M225,89.6l5.4-3L225,89.6L225,89.6z"/>
	<path class="st6" d="M224.2,87.4c-1.3,0-2.3-0.5-2.3-1v1.4c0,0.6,1,1,2.3,1s2.3-0.5,2.3-1v-1.4C226.5,87,225.5,87.4,224.2,87.4z"/>
	<path class="st6" d="M217.9,85.4c0,0.6,1,1,2.3,1s2.3-0.5,2.3-1V84c0,0.6-1,1-2.3,1s-2.3-0.5-2.3-1V85.4z"/>
	<path class="st7" d="M220.2,83c-1.3,0-2.3,0.5-2.3,1s1,1,2.3,1s2.3-0.5,2.3-1v1.4c0,0.6-1,1-2.3,1s-2.3-0.5-2.3-1v-0.6l-3.7,2
		l4.1,2.4c0.8-0.1,1.6-0.2,2.5-0.2c1.4,0,2.7,0.2,4.1,0.5l5.5-3l-7.6-4.5l-1.7,0.9C220.8,83,220.5,83,220.2,83z M226.5,87.8
		c0,0.6-1,1-2.3,1s-2.3-0.5-2.3-1v-1.4c0,0.6,1,1,2.3,1s2.3-0.5,2.3-1V87.8z"/>
	<polygon class="st5" points="205.6,91.7 213.2,96.1 213.2,96 213.2,95.9 205.6,91.6 205.6,91.6 	"/>
	<polygon class="st6" points="213.2,96 213.2,95.9 213.2,96 213.2,96.1 213.2,96.1 213.4,96 213.4,95.9 	"/>
	<path class="st7" d="M213.2,96L213.2,96l0.1-0.1v-3.1c-0.1-0.1-0.1-0.2-0.1-0.3v-1.4c0,0.2,0.1,0.4,0.3,0.5c0.6-1.1,2.4-2,4.7-2.4
		l-4-2.4h-0.1l-1.7,0.9c-0.3-0.1-0.6-0.1-0.9-0.1c-1.3,0-2.3,0.5-2.3,1s1,1,2.3,1s2.3-0.5,2.3-1V90c0,0.6-1,1-2.3,1s-2.3-0.5-2.3-1
		v-0.6l-3.7,2L213.2,96z"/>
	<path class="st6" d="M213.3,91.2v1.4c0,0.1,0,0.2,0.1,0.3v-0.4c0-0.3,0.1-0.5,0.2-0.8C213.4,91.5,213.3,91.3,213.3,91.2z"/>
	<path class="st6" d="M209.3,90.1c0,0.6,1,1,2.3,1s2.3-0.5,2.3-1v-1.4c0,0.6-1,1-2.3,1s-2.3-0.5-2.3-1V90.1z"/>
	<polygon class="st5" points="204.6,100.8 197.1,96.4 197.1,96.4 204.6,100.8 203.4,101.4 203.4,101.5 204.6,100.8 	"/>
	<polygon class="st6" points="204.7,100.8 204.6,100.8 204.6,100.8 204.6,100.8 206.7,99.7 	"/>
	<path class="st7" d="M205.6,91.7L205.6,91.7l-1.7,0.9l0,0c-0.3-0.1-0.6-0.1-0.9-0.1c-1.3,0-2.3,0.5-2.3,1s1,1,2.3,1s2.3-0.5,2.3-1
		v1.4c0,0.6-1,1-2.3,1s-2.3-0.5-2.3-1v-0.6l-3.7,2l7.6,4.4h0.1l2-1.1l6.5-3.6l0,0L205.6,91.7z M209.3,97.3c0,0.6-1,1-2.3,1
		s-2.3-0.5-2.3-1V96c0,0.6,1,1,2.3,1s2.3-0.5,2.3-1V97.3z"/>
	<path class="st6" d="M207,97c-1.3,0-2.3-0.5-2.3-1v1.4c0,0.6,1,1,2.3,1s2.3-0.5,2.3-1V96C209.3,96.5,208.3,97,207,97z"/>
	<path class="st6" d="M200.7,94.9c0,0.6,1,1,2.3,1s2.3-0.5,2.3-1v-1.4c0,0.6-1,1-2.3,1s-2.3-0.5-2.3-1v0.8l0,0V94.9z"/>
	<polygon class="st8" points="178.8,115 178.8,115 191.5,108.1 191.5,108 	"/>
	<path class="st8" d="M201.2,102.6h0.1l2-1.1v-0.1L201.2,102.6z"/>
	<polygon class="st9" points="178.6,115.2 133.6,88.3 133.6,117.4 133.6,118.1 133.6,119.3 178.6,144.9 	"/>
	<polygon class="st9" points="178.6,145.7 133.6,120 133.7,145.9 178.6,172.4 178.6,172.4 178.6,172.4 	"/>
	<path class="st10" d="M191.5,108v-2.2c0-1.9,3.4-3.4,7.5-3.4c0.8,0,1.5,0.1,2.2,0.2l2.1-1.2l1.2-0.7l-7.5-4.3l-7.3-4.2v3
		c0,1.7-3.1,3.1-7,3.1c-0.7,0-1.3,0-2-0.1c0.5,0.3,0.8,0.9,0.9,1.5v4.2c0,1.7-3.1,3.1-7,3.1s-7-1.4-7-3.1v-4.2c0-1.7,3.1-3.1,7-3.1
		c0.7,0,1.3,0,2,0.1c-0.5-0.3-0.8-0.9-0.9-1.5V91c0-1.6,2.8-3,6.4-3.1l-12.7-7.3v3.1c0,1.7-3.1,3.1-7,3.1c-1.7,0-3.3-0.3-4.8-0.9
		c0.6,0.3,1,1,1.1,1.7v4.2c0,1.7-3.1,3.1-7,3.1s-7-1.4-7-3.1v-4.2c0-1.7,3.1-3.1,7-3.1c1.7,0,3.3,0.3,4.8,0.9c-0.6-0.3-1-1-1.1-1.7
		v-4.2c0-1.7,3-3,6.6-3.1l-2.9-1.7l-25.7,13.5l45,26.8l0.2-0.1L191.5,108z"/>
	<path class="st11" d="M169.6,79.6c0,1.7-3.1,3.1-7,3.1s-7-1.4-7-3.1v4.2c0.1,0.7,0.5,1.3,1.1,1.7c0.4,0.1,0.7,0.3,1,0.6
		c1.5,0.6,3.2,0.9,4.8,0.9c3.9,0,7-1.4,7-3.1v-3.1l0,0L169.6,79.6z"/>
	<path class="st12" d="M162.6,82.7c3.9,0,7-1.4,7-3.1s-3.1-3.1-7-3.1h-0.3c-3.7,0.1-6.6,1.4-6.6,3.1S158.8,82.7,162.6,82.7z"/>
	<path class="st11" d="M189.8,91.1c0,1.7-3.1,3.1-7,3.1s-7-1.4-7-3.1v4.2c0,0.6,0.4,1.2,0.9,1.5c1.5,0.1,2.9,0.6,4.1,1.5
		c0.7,0.1,1.3,0.1,2,0.1c3.9,0,7-1.4,7-3.1V91.1z"/>
	<path class="st12" d="M182.8,94.2c3.9,0,7-1.4,7-3.1s-3.1-3.1-7-3.1h-0.5c-3.6,0.1-6.4,1.5-6.4,3.1S178.9,94.2,182.8,94.2z"/>
	<path class="st11" d="M151.9,90.8c-3.9,0-7-1.4-7-3.1v4.2c0,1.7,3.1,3.1,7,3.1s7-1.4,7-3.1v-4.2C158.9,89.4,155.8,90.8,151.9,90.8z
		"/>
	<path class="st12" d="M151.9,84.6c-3.9,0-7,1.4-7,3.1s3.1,3.1,7,3.1s7-1.4,7-3.1c-0.1-0.7-0.5-1.4-1.1-1.7c-0.3-0.2-0.6-0.4-1-0.6
		C155.2,84.8,153.6,84.5,151.9,84.6z"/>
	<path class="st11" d="M174.7,102.9c-3.9,0-7-1.4-7-3.1v4.2c0,1.7,3.1,3.1,7,3.1s7-1.4,7-3.1v-4.2
		C181.7,101.5,178.6,102.9,174.7,102.9z"/>
	<path class="st12" d="M174.7,96.6c-3.9,0-7,1.4-7,3.1s3.1,3.1,7,3.1s7-1.4,7-3.1c0-0.6-0.4-1.2-0.9-1.5c-1.2-0.8-2.6-1.4-4.1-1.5
		C176.1,96.7,175.4,96.6,174.7,96.6z"/>
	<polygon class="st13" points="204.1,160.4 204.1,160.3 178.6,145.7 178.6,145.7 178.6,145.7 178.6,145.7 178.6,172.4 178.6,172.4 
		204,185.8 	"/>
	<polygon class="st13" points="178.6,144.9 178.6,144.9 178.6,145 204.1,159.5 204.3,130.2 178.6,115.2 178.6,115.2 	"/>
	<polygon class="st14" points="204.2,160.4 204.2,160.4 204.1,160.4 204,185.8 255.4,156.7 255.4,131.1 204.2,160.3 	"/>
	<polygon class="st14" points="204.1,159.5 204.2,159.5 255.4,130.4 255.4,100.1 204.3,130.2 	"/>
	<path class="st15" d="M204.3,130.2l51.1-30.1l-24.9-13.5l-5.4,3c2,0.6,3.4,1.6,3.4,2.8v4.5c0,1.9-3.4,3.4-7.5,3.4s-7.5-1.5-7.5-3.4
		V96l-0.2,0.1l-6.5,3.6l-2.1,1.2l-1.3,0.7l-2,1.1c3,0.4,5.1,1.7,5.1,3.2v4.5c0,0.6-0.4,1.2-0.9,1.6c1.9-1.1,4.1-1.7,6.4-1.6
		c4.1,0,7.5,1.5,7.5,3.4v4.5c0,1.9-3.4,3.4-7.5,3.4s-7.5-1.5-7.5-3.4v-4.5c0-0.6,0.4-1.2,0.9-1.6c-1.9,1.1-4.1,1.7-6.4,1.6
		c-4.1,0-7.5-1.5-7.5-3.4v-2.3l-12.7,7l-0.2,0.1L204.3,130.2z M226.9,100.9c0-1.9,3.4-3.4,7.5-3.4s7.5,1.5,7.5,3.4v4.5
		c0,1.9-3.4,3.4-7.5,3.4s-7.5-1.5-7.5-3.4V100.9z"/>
	<path class="st13" d="M234.4,108.7c4.1,0,7.5-1.5,7.5-3.4v-4.5c0,1.9-3.4,3.4-7.5,3.4s-7.5-1.5-7.5-3.4v4.5
		C226.9,107.2,230.3,108.7,234.4,108.7z"/>
	<path class="st16" d="M234.4,104.2c4.1,0,7.5-1.5,7.5-3.4s-3.4-3.4-7.5-3.4s-7.5,1.5-7.5,3.4S230.3,104.2,234.4,104.2z"/>
	<path class="st13" d="M220.9,95.8c-4.1,0-7.5-1.5-7.5-3.4v4.5c0,1.9,3.4,3.4,7.5,3.4s7.5-1.5,7.5-3.4v-4.5
		C228.4,94.3,225,95.8,220.9,95.8z"/>
	<path class="st16" d="M220.9,89c-0.8,0-1.7,0.1-2.5,0.2h-0.1c-2.4,0.4-4.1,1.3-4.7,2.4c-0.1,0.2-0.2,0.5-0.2,0.8
		c0,1.9,3.4,3.4,7.5,3.4s7.5-1.5,7.5-3.4c0-1.2-1.3-2.2-3.4-2.8h-0.1C223.6,89.2,222.3,89,220.9,89z"/>
	<path class="st13" d="M212,117.1c-4.1,0-7.5-1.5-7.5-3.4v4.5c0,1.9,3.4,3.4,7.5,3.4s7.5-1.5,7.5-3.4v-4.5
		C219.5,115.6,216.1,117.1,212,117.1z"/>
	<path class="st16" d="M204.5,113.7c0,1.9,3.4,3.4,7.5,3.4s7.5-1.5,7.5-3.4s-3.4-3.4-7.5-3.4c-2.2-0.1-4.5,0.5-6.4,1.6l-0.3,0.2
		C204.8,112.5,204.5,113.1,204.5,113.7z"/>
	<path class="st13" d="M199,109.2c-4.1,0-7.5-1.5-7.5-3.4v4.5c0,1.9,3.4,3.4,7.5,3.4c2.2,0.1,4.4-0.5,6.4-1.6l0.3-0.2
		c0.5-0.4,0.8-0.9,0.9-1.6v-4.5C206.5,107.7,203.1,109.2,199,109.2z"/>
	<path class="st16" d="M199,102.5c-4.1,0-7.5,1.5-7.5,3.4s3.4,3.4,7.5,3.4s7.5-1.5,7.5-3.4c0-1.5-2.2-2.8-5.1-3.2h-0.1
		C200.5,102.5,199.8,102.5,199,102.5z"/>
	<path class="st17" d="M175.9,78.6c3.6,0,6.5-1.3,6.5-2.9v-3.9c0,1.6-2.9,2.9-6.5,2.9s-6.5-1.3-6.5-2.9v3.9
		C169.4,77.3,172.3,78.6,175.9,78.6z"/>
	<path class="st17" d="M193.1,66c-1.7,1-3.6,1.5-5.6,1.4c-3.6,0-6.5-1.3-6.5-2.9v3.9c0,1.6,2.9,2.9,6.5,2.9s6.5-1.3,6.5-2.9v-1.9
		L193.1,66z"/>
	<path class="st17" d="M194.2,87.2c3.6,0,6.5-1.3,6.5-2.9v-3.9c0,1.6-2.9,2.9-6.5,2.9s-6.5-1.3-6.5-2.9v3.9
		C187.7,85.8,190.6,87.2,194.2,87.2z"/>
	<path class="st17" d="M205.5,76.5c-3.6,0-6.5-1.3-6.5-2.9v3.9c0,1.6,2.9,2.9,6.5,2.9s6.5-1.3,6.5-2.9v-3.9
		C211.9,75.2,209,76.5,205.5,76.5z"/>
	<polygon class="st15" points="204.1,160.3 204.1,160.4 204.1,160.4 204.2,160.4 	"/>
	<polygon class="st15" points="204.2,159.5 204.2,159.6 204.2,160.3 255.4,131.1 255.4,131.1 255.4,130.3 255.4,130.4 	"/>
	<polygon class="st18" points="178.6,145 178.6,145.7 204.1,160.3 204.2,160.4 204.2,160.4 204.2,160.3 204.2,159.6 204.2,159.5 
		204.1,159.5 	"/>
	<polygon class="st10" points="178.6,145.7 178.6,145.7 178.6,145.7 178.6,145 178.6,144.9 178.6,144.9 178.6,144.9 133.6,119.3 
		133.6,119.3 133.6,120 133.6,120 	"/>
	<polygon class="st13" points="193.1,66 194,66.5 202.5,71 204.7,72.1 205,43.6 179.3,28.5 179.3,58.7 185.1,61.8 	"/>
	<polygon class="st14" points="204.7,72.1 207.1,70.8 256.1,43 256.1,13.5 205,43.6 	"/>
	<path class="st15" d="M256.1,13.5L231.2,0l-5.4,3c2,0.6,3.4,1.6,3.4,2.8v4.5c0,1.9-3.4,3.4-7.5,3.4s-7.5-1.5-7.5-3.4V9.4L202,16
		c3,0.4,5.2,1.7,5.2,3.2v4.5c0,0.6-0.4,1.2-0.9,1.6c1.9-1.1,4.1-1.7,6.4-1.6c4.1,0,7.5,1.5,7.5,3.4v4.5c0,1.9-3.4,3.4-7.5,3.4
		s-7.5-1.5-7.5-3.4v-4.5c0-0.6,0.4-1.2,0.9-1.6c-1.9,1.1-4.1,1.7-6.4,1.6c-4.1,0-7.5-1.5-7.5-3.4v-2.3l-12.9,7.1L205,43.6
		L256.1,13.5z M227.6,14.3c0-1.9,3.4-3.4,7.5-3.4s7.5,1.5,7.5,3.4v4.5c0,1.9-3.4,3.4-7.5,3.4s-7.5-1.5-7.5-3.4V14.3z"/>
	<path class="st13" d="M235.1,22.1c4.1,0,7.5-1.5,7.5-3.4v-4.5c0,1.9-3.4,3.4-7.5,3.4s-7.5-1.5-7.5-3.4v4.5
		C227.6,20.6,231,22.1,235.1,22.1z"/>
	<path class="st16" d="M235.1,17.6c4.1,0,7.5-1.5,7.5-3.4s-3.4-3.4-7.5-3.4s-7.5,1.5-7.5,3.4S231,17.6,235.1,17.6z"/>
	<path class="st13" d="M221.6,13.7c4.1,0,7.5-1.5,7.5-3.4V5.8c0,1.9-3.4,3.4-7.5,3.4s-7.5-1.5-7.5-3.4v4.5
		C214.1,12.2,217.4,13.7,221.6,13.7z"/>
	<path class="st16" d="M221.6,9.2c4.1,0,7.5-1.5,7.5-3.4c0-1.2-1.3-2.2-3.4-2.8c-1.3-0.4-2.7-0.6-4.1-0.6c-4.1,0-7.5,1.5-7.5,3.4
		S217.4,9.2,221.6,9.2z"/>
	<path class="st13" d="M212.7,30.5c-4.1,0-7.5-1.5-7.5-3.4v4.5c0,1.9,3.4,3.4,7.5,3.4s7.5-1.5,7.5-3.4v-4.5
		C220.2,29,216.8,30.5,212.7,30.5z"/>
	<path class="st16" d="M205.2,27.1c0,1.9,3.4,3.4,7.5,3.4s7.5-1.5,7.5-3.4s-3.4-3.4-7.5-3.4c-2.2-0.1-4.4,0.5-6.4,1.6l-0.3,0.2
		C205.5,25.9,205.2,26.5,205.2,27.1z"/>
	<path class="st13" d="M199.7,27.1c2.2,0.1,4.5-0.5,6.4-1.6l0.3-0.2c0.5-0.4,0.8-0.9,0.9-1.6v-4.5c0,1.9-3.4,3.4-7.5,3.4
		s-7.5-1.5-7.5-3.4v4.5C192.2,25.6,195.5,27.1,199.7,27.1z"/>
	<path class="st16" d="M199.7,22.6c4.1,0,7.5-1.5,7.5-3.4c0-1.5-2.2-2.8-5.2-3.2c-0.8-0.1-1.6-0.2-2.4-0.2c-4.1,0-7.5,1.5-7.5,3.4
		S195.5,22.6,199.7,22.6z"/>
	
		<linearGradient id="SVGID_1_" gradientUnits="userSpaceOnUse" x1="217.35" y1="-189.26" x2="217.35" y2="-245.77" gradientTransform="matrix(1 0 0 1 0 318)">
		<stop  offset="0.12" style="stop-color:#FFD464"/>
		<stop  offset="0.18" style="stop-color:#FFD873;stop-opacity:0.91"/>
		<stop  offset="0.35" style="stop-color:#FFE49D;stop-opacity:0.63"/>
		<stop  offset="0.52" style="stop-color:#FFEDC0;stop-opacity:0.41"/>
		<stop  offset="0.67" style="stop-color:#FFF5DB;stop-opacity:0.23"/>
		<stop  offset="0.81" style="stop-color:#FFFAEF;stop-opacity:0.11"/>
		<stop  offset="0.92" style="stop-color:#FFFEFB;stop-opacity:3.000000e-02"/>
		<stop  offset="1" style="stop-color:#FFFFFF;stop-opacity:0"/>
	</linearGradient>
	<polygon class="st19" points="179.3,58.7 178.6,115.2 204.3,130.2 255.4,100.1 256.1,43 204.7,72.1 	"/>
	<path class="st3" d="M107.9,147.2L107.9,147.2l-0.1,1.1C107.8,147.9,107.8,147.5,107.9,147.2z"/>
	<path class="st3" d="M107.3,169l0.6,0.3v-12.2v11.6c0,0.2-0.2,0.4-0.4,0.4C107.4,169.1,107.3,169,107.3,169z"/>
	<path class="st20" d="M119.7,107.6c1-1.2,1.7-2.6,1.9-4.2l2.9-12.1c-2.6,1.8-6.1,1.4-8.4-0.8l-2.9,8.1l5.2,2.9L119.7,107.6z"/>
	<path class="st21" d="M124.5,91.3c1.9-1.2,3-3.3,3-5.6H124c0,1.7-1.3,3-3,3s-3-1.3-3-3h-3.8c0,3.7,3,6.7,6.7,6.7
		C122.1,92.4,123.4,92,124.5,91.3L124.5,91.3z"/>
	<path class="st22" d="M103.4,110.8l15.1-9.3l-5.2-2.9l-3.9-2.2c-8,5.3-18.6,4.9-26.2-1c-0.4-0.3-0.7-0.6-1-1l-4,2.4L103.4,110.8z"
		/>
	<polygon class="st20" points="103.3,110.9 103.4,110.8 78.2,96.8 74,123.9 108.2,142.9 	"/>
	<path class="st23" d="M115.6,121.6c-3.2-0.1-5.7-2.8-5.6-6.1c0.1-3,2.5-5.4,5.6-5.6h4.7l-0.5-2.3l-1.3-6.1l-15.1,9.3l0,0l4.9,32
		l0.1,0.1l2.7-1.5c0.4-0.3,0.9-0.7,1.3-0.9l0,0c0.4-0.2,0.9-0.4,1.4-0.6l11.5-6.6l-2.6-12.2l-6.4,0.4
		C116,121.6,115.8,121.6,115.6,121.6z"/>
	<path class="st21" d="M97,67.2c1.2,0,2.4,0,3.6,0.1C99.4,67.1,98.2,67,97,67c-1.8,0-3.6,0.2-5.3,0.6c0.5-0.1,1.1-0.2,1.6-0.2
		C94.5,67.3,95.8,67.2,97,67.2z"/>
	<path class="st21" d="M83.2,95.3c7.6,5.9,18.1,6.3,26.2,1c0.5-0.3,1-0.7,1.4-1c1.4-1,2.2-2.7,2.2-4.4V90c-1.5-0.1-2.9-0.8-3.9-1.9
		l1.6-1.4c0.6,0.7,1.4,1.1,2.3,1.1v-4.5c-0.9-0.2-1.5-1-1.3-1.9c0.1-0.6,0.6-1.2,1.3-1.3v-5c0-0.7-0.1-1.3-0.3-1.9
		c0,0.1,0.1,0.2,0.1,0.4c0.6,3.2-3,5.2-5.3,6.4c-7.3,3.8-16.1,3.3-23-1.2c-2.2-1.5-4.2-4.5-2.4-7.1c0.7-1,1.7-1.7,2.8-2.2l0.4-0.2
		l-0.5,0.2c-2.3,0.9-3.8,3.1-3.8,5.6v15.6c0,1.2,0.4,2.5,1.2,3.4C82.5,94.7,82.8,95,83.2,95.3z"/>
	<path class="st24" d="M82.1,72c-1.8,2.5,0.2,5.6,2.4,7.1c6.9,4.5,15.7,5,23,1.2c2.4-1.2,5.9-3.3,5.3-6.4c0-0.1-0.1-0.2-0.1-0.4
		c-0.9-3.4-4.6-4.8-7.7-5.4c-1.5-0.3-3-0.5-4.5-0.6c-1.2-0.1-2.4-0.2-3.5-0.2c-1.2,0-2.5,0.1-3.7,0.2c-0.5,0.1-1.1,0.1-1.6,0.2
		c-2.2,0.3-4.3,1-6.3,1.9L85,69.8C83.8,70.3,82.8,71,82.1,72z M96.6,67.4c3.6,0,6.6,0.7,6.6,1.5V69l0,0v4c-0.1,1-0.8,1.9-1.8,2.1
		c-1.7,0.5-3.5,0.8-5.3,0.8c-1.6,0-3.2-0.2-4.7-0.8c-0.8-0.3-1.4-1.1-1.4-2v-4.2l0,0v-0.1C90,68,92.9,67.4,96.6,67.4L96.6,67.4z"/>
	<path class="st24" d="M98,70.3c-0.5,0-1,0-1.5,0s-0.9,0-1.4,0c0.5,0,1,0.1,1.5,0.1C97.1,70.3,97.6,70.3,98,70.3z"/>
	<path class="st25" d="M90,68.8C90,68.9,90,68.9,90,68.8c1.6,0.8,3.4,1.3,5.2,1.4c0.4,0,0.9,0,1.4,0s1,0,1.5,0
		c1.8-0.2,3.5-0.6,5.1-1.3v-0.1c0-0.8-3-1.5-6.6-1.5S90,68,90,68.8z"/>
	<path class="st21" d="M96.7,70.3c-0.5,0-1,0-1.5-0.1c-1.8-0.2-3.5-0.6-5.2-1.3l0,0v4.3c0,0.9,0.6,1.7,1.4,2
		c1.5,0.6,3.1,0.9,4.7,0.8c1.8,0,3.6-0.3,5.3-0.8c1-0.3,1.7-1.1,1.7-2.2v-4.1l0,0c-1.6,0.7-3.4,1.2-5.2,1.3
		C97.6,70.3,97.1,70.3,96.7,70.3z"/>
	<path class="st26" d="M112.3,140.6L112.3,140.6c-0.5,0.3-0.9,0.6-1.3,0.9l2.7-1.5C113.2,140.1,112.7,140.3,112.3,140.6z"/>
	<polygon class="st27" points="125.3,151.2 125.4,158.2 131.6,154.2 	"/>
	<path class="st28" d="M107.3,169c0.2,0.1,0.4,0,0.5-0.1c0-0.1,0.1-0.1,0.1-0.2v-11.6v-8.9l0,0v-1.1l-19.8-10.9v28.3l19.9,10.8
		l-0.1-6L107.3,169z"/>
	<path class="st28" d="M87.2,135.8l-11.5-6.4c-1.3,1.1-2,2.6-2,4.3v16.4c0,0.1,0.1,0.3,0.2,0.3l-0.2-0.1l-0.3,6.2l13.7,7.5
		L87.2,135.8z"/>
	<path class="st20" d="M130.6,101l-3.2,8.9h-11.9c-3.2,0.1-5.7,2.8-5.6,6.1c0.1,3,2.5,5.4,5.6,5.6c0.2,0,0.4,0,0.7,0l6.4-0.4
		l6.3-0.4c3.8-0.2,6.8-3.1,7.3-6.8l2.8-12.1C136.4,103.6,132.9,103.3,130.6,101L130.6,101z"/>
	<path class="st14" d="M142,96.3h-3.6c0,1.7-1.3,3-3,3s-3-1.3-3-3h-3.9c0,3.7,3,6.7,6.7,6.7l0,0C139,103,142,100,142,96.3L142,96.3z
		"/>
	<path class="st26" d="M108.3,143l-0.1-0.1l-34.2-19v4.5l1.8,1l11.5,6.4v28.3l0.8,0.5v-28.4l19.7,10.9h0.1c0,0.3-0.1,0.7-0.1,1l0,0
		v8.9v12.2l0.1,6l23.7-14.8v-6.3l-6.2,4l0,0l-0.1-10.1c0-3.2-1.8-6.1-4.5-7.6l-12.4,7L108.3,143z"/>
	<polygon class="st29" points="111,141.5 108.3,143 108.4,147.5 120.8,140.5 125.2,138.1 125.2,133.4 113.7,139.9 	"/>
	<path class="st30" d="M109.1,88.2c1,1.1,2.4,1.8,3.9,1.9V88c-0.9-0.1-1.7-0.5-2.3-1.1L109.1,88.2z"/>
	<path class="st30" d="M111.7,81.9c-0.1,0.8,0.5,1.5,1.3,1.6v-3.2C112.2,80.4,111.6,81.1,111.7,81.9z"/>
	<path class="st3" d="M265,182.5V161h-0.1c0,0.3,0.1,0.7,0.1,1v21.1l0.6-0.3c-0.2,0.1-0.4,0-0.5-0.1C265,182.6,265,182.5,265,182.5z
		"/>
	<path class="st22" d="M273.2,122.6c-0.1-3.2-0.9-6.4-2.2-9.2c-2.7-0.6-5.2-1.7-7.5-3.2l-9.1,5.1l15.1,9.4L273.2,122.6z"/>
	<path class="st20" d="M294.5,117.3c0,0.1-0.1,0.2-0.1,0.2L271,128.6c1.4-1.7,2.2-3.8,2.2-6.1l-3.7,2.1l0,0l-4.9,32.1l34.2-19
		l-3.2-20.9l0,0L294.5,117.3z"/>
	<path class="st23" d="M260.5,154.4L260.5,154.4c0.5,0.3,0.9,0.6,1.3,0.9l2.7,1.5l0.1-0.1l4.9-32l0,0l-15.1-9.4l-2.4,11.2l3.1-2.8
		c2.4-2.2,6.1-2,8.2,0.4c2.2,2.4,2,6.1-0.4,8.2l0,0l-10.4,8.3c-1.1,0.9-2.4,1.5-3.9,1.6l-1,4.9l11.5,6.6
		C259.7,153.9,260.1,154.1,260.5,154.4z"/>
	<path class="st21" d="M260.9,94.7c-0.3-0.6-0.5-1.1-0.8-1.7c-0.1-0.3-0.2-0.6-0.3-0.8v1.9C260.3,94.1,260.7,94.3,260.9,94.7z"/>
	<path class="st21" d="M261.1,95.1c0.1,0.2,0.1,0.4,0.1,0.6c0.1,0.8-0.5,1.5-1.3,1.6v4.4c0.9-0.1,1.7-0.5,2.3-1.1l1.6,1.4
		c-1,1.1-2.4,1.8-3.9,1.9v0.9c0,1.7,0.8,3.4,2.2,4.4c0.4,0.3,0.9,0.7,1.5,1c2.3,1.5,4.8,2.6,7.5,3.2
		C268.3,107.1,263.8,100.5,261.1,95.1z"/>
	<path class="st28" d="M285.6,177.9l13.7-7.5l-0.3-6.2l-0.2,0.1c0.1-0.1,0.2-0.2,0.2-0.3v-16.4c0-1.7-0.7-3.2-2-4.3l-11.5,6.4
		L285.6,177.9z"/>
	<path class="st26" d="M260.5,154.4c-0.4-0.2-0.9-0.4-1.4-0.6l2.7,1.5C261.5,154.9,261,154.6,260.5,154.4L260.5,154.4z"/>
	<polygon class="st27" points="247.5,165 241.2,168 247.4,172 	"/>
	<path class="st28" d="M284.8,150L265,161v21.5c0,0.2,0.2,0.4,0.4,0.4c0.1,0,0.1,0,0.2-0.1l-0.6,0.3l-0.1,6l19.9-10.8V150z"/>
	<path class="st26" d="M285.6,149.6l11.5-6.4l1.8-1v-4.5l-34.2,19l-0.1,0.1l-0.1,4.5l-12.4-6.9c-2.8,1.5-4.5,4.4-4.5,7.6l-0.1,10.1
		l0,0l-6.2-4v6.3l23.7,14.8l0.1-6v-21.1c0-0.3,0-0.7-0.1-1h0.1l19.8-11v28.3l0.9-0.5v-28.3H285.6z"/>
	<path class="st20" d="M263,132.3c2.4-2.2,2.6-5.8,0.4-8.2c-2.2-2.4-5.8-2.6-8.2-0.4l0,0l-3.2,2.8l-5.7,5.1l-8.3-4.5
		c-0.2,3.2-2.6,5.8-5.7,6.2l10.2,7.1c2.9,2.4,7.1,2.5,10,0.2L263,132.3z"/>
	<path class="st15" d="M238,127.2c0.1-1.8-0.5-3.5-1.7-4.9l-2.9,2.6c1,1.3,0.7,3.2-0.6,4.2c-1.2,0.9-2.8,0.8-3.8-0.2l-2.6,2.4
		c2.5,2.7,6.7,3,9.4,0.5C237.1,130.5,237.9,128.9,238,127.2z"/>
	<polygon class="st29" points="264.5,156.8 261.9,155.3 259.2,153.8 247.7,147.2 247.7,151.9 252.1,154.4 264.4,161.3 	"/>
	<path class="st30" d="M262.1,100.6c-0.6,0.7-1.4,1.1-2.3,1.1v2.1c1.5-0.1,2.9-0.8,3.9-1.9L262.1,100.6z"/>
	<path class="st30" d="M261.2,95.7c0-0.2,0-0.4-0.1-0.6l-0.2-0.4c-0.2-0.4-0.6-0.6-1-0.6v3.2C260.7,97.2,261.3,96.5,261.2,95.7z"/>
	<path class="st31" d="M260.9,94.7l0.2,0.4c2.7,5.4,7.2,12,9.9,18.2c1.4,2.9,2.2,6,2.2,9.2c0,2.2-0.8,4.4-2.2,6.1l23.4-11.1
		c0.1,0,0.1-0.1,0.1-0.2l-22.3,10.6c5.9-6.8-1.1-18.6-6.7-27.8c-5.2-8.5-5.5-15.9-1.8-20.6c-0.6,0.5-1.2,1.1-1.8,1.7
		c-2.6,3-3.4,7.2-2.1,11c0.1,0.3,0.2,0.6,0.3,0.8C260.4,93.6,260.6,94.2,260.9,94.7z"/>
	<path class="st32" d="M265.5,100.1c5.6,9.1,12.5,20.9,6.7,27.8l22.3-10.6l1.1-0.5l0,0c0.5-0.2,0.4-4.4,0.5-5
		c0.2-2.2,0.3-4.3,0.4-6.5c0.2-4.2,0.1-8.4-0.2-12.7c-0.4-4.6-1.3-9.3-4.3-12.8l-0.1-0.1c-2.4-2.7-5.7-4.4-9.3-5l-1.2-0.2
		c-8.4-1-14.5,1-17.7,5.1C260,84.2,260.3,91.7,265.5,100.1z"/>
</g>
</svg>
