<?xml version="1.0" encoding="UTF-8"?>
<svg width="525px" height="970px" viewBox="0 0 525 970" version="1.1" xmlns="http://www.w3.org/2000/svg" xmlns:xlink="http://www.w3.org/1999/xlink">
    <!-- Generator: Sketch 48.2 (47327) - http://www.bohemiancoding.com/sketch -->
    <title>Illustration_Journey@2x</title>
    <desc>Created with Sketch.</desc>
    <defs>
        <linearGradient x1="50%" y1="1.27949617%" x2="50%" y2="100%" id="linearGradient-1">
            <stop stop-color="#0080DB" offset="0%"></stop>
            <stop stop-color="#353EC2" stop-opacity="0" offset="100%"></stop>
        </linearGradient>
        <linearGradient x1="50%" y1="1.27949617%" x2="50%" y2="100%" id="linearGradient-2">
            <stop stop-color="#FFFFFF" offset="0%"></stop>
            <stop stop-color="#45B2FC" stop-opacity="0" offset="100%"></stop>
        </linearGradient>
    </defs>
    <g id="ILLUSTRATION" stroke="none" stroke-width="1" fill="none" fill-rule="evenodd" transform="translate(-2354.000000, -1273.000000)">
        <g id="Illustration_Journey" transform="translate(2354.000000, 1275.000000)">
            <polygon id="Fill-2" fill="#010202" opacity="0.379755435" points="3.16455696 830.533768 237.263838 967.405063 525 798.755186 295.782562 666.772152"></polygon>
            <g id="ILLUSTRATION">
                <polygon id="Fill-1" fill="#8FC2FA" points="0 741.890225 0 793.206597 234.099281 930.063291 521.835443 757.156102 521.835443 710.115033 319.441323 595.253165"></polygon>
                <polygon id="Fill-2" fill="#F5FBFB" points="0 742.242629 234.099281 879.113924 521.835443 710.464047 292.618005 578.481013"></polygon>
                <polygon id="Fill-3" fill="#353EC2" points="179.43038 741.696897 256.012658 786.392405 343.35443 648.101266 179.43038 648.101266"></polygon>
                <polygon id="Fill-4" fill="#2A2BB5" points="256.012658 785.126582 342.847165 734.768768 343.987342 645.56962 256.012658 692.098351"></polygon>
                <polygon id="Fill-5" fill="#3F50D1" points="256.644742 692.721519 343.987342 645.685948 266.508765 600 179.43038 648.100546"></polygon>
                <polygon id="Fill-6" fill="#2A2BB5" points="256.329114 657.278481 302.674576 657.278481 302.674576 643.35443 256.329114 643.35443"></polygon>
                <g id="Group-33" transform="translate(178.797468, 0.000000)">
                    <path d="M77.8481013,656.945341 C77.8481013,662.707402 88.2261584,667.376575 101.024626,667.376575 C113.827963,667.376575 124.20602,662.707402 124.20602,656.945341 C124.20602,651.18816 113.827963,646.518987 101.024626,646.518987 C88.2261584,646.518987 77.8481013,651.18816 77.8481013,656.945341 L78.6751766,649.358436" id="Fill-7" fill="#2A2BB5"></path>
                    <path d="M77.8481013,643.021291 C77.8481013,648.783352 88.2261584,653.447645 101.024626,653.447645 C113.827963,653.447645 124.20602,648.783352 124.20602,643.021291 C124.20602,637.264109 113.827963,632.594937 101.024626,632.594937 C88.2261584,632.594937 77.8481013,637.264109 77.8481013,643.021291" id="Fill-9" fill="#3F50D1"></path>
                    <polygon id="Fill-11" fill="#2A2BB5" points="37.6582278 632.634492 84.016147 632.634492 84.016147 618.670886 37.6582278 618.670886"></polygon>
                    <path d="M37.6582278,632.894709 C37.6582278,638.65677 48.036285,643.325942 60.8347524,643.325942 C73.6380899,643.325942 84.016147,638.65677 84.016147,632.894709 C84.016147,627.137527 73.6380899,622.468354 60.8347524,622.468354 C48.036285,622.468354 37.6582278,627.137527 37.6582278,632.894709" id="Fill-13" fill="#2A2BB5"></path>
                    <path d="M37.6582278,618.654202 C37.6582278,624.416263 48.036285,629.080556 60.8347524,629.080556 C73.6380899,629.080556 84.016147,624.416263 84.016147,618.654202 C84.016147,612.89702 73.6380899,608.227848 60.8347524,608.227848 C48.036285,608.227848 37.6582278,612.89702 37.6582278,618.654202" id="Fill-14" fill="#3F50D1"></path>
                    <g id="BLOCK" transform="translate(0.316456, 400.286780)">
                        <polygon id="Fill-15" fill="#0088FB" points="0 140.860879 76.8541151 185.308275 164.240506 47.7848101 0 47.7848101"></polygon>
                        <polygon id="Fill-16" fill="#0080DB" points="76.8987342 185.187461 162.712341 134.587065 163.84706 45.2531646 76.8987342 91.4610499"></polygon>
                        <polygon id="Fill-17" fill="#2FA9FC" points="76.8541151 92.1734594 163.789215 45.4183111 86.6721176 0 0 47.8187633"></polygon>
                        <polygon id="Fill-18" fill="#0080DB" points="77.5316456 57.3180362 123.889565 57.3180362 123.889565 43.3544304 77.5316456 43.3544304"></polygon>
                        <path d="M77.5316456,57.2617972 C77.5316456,63.0238581 87.9097027,67.6881513 100.70817,67.6881513 C113.511508,67.6881513 123.889565,63.0238581 123.889565,57.2617972 C123.889565,51.4997362 113.511508,46.835443 100.70817,46.835443 C87.9097027,46.835443 77.5316456,51.4997362 77.5316456,57.2617972" id="Fill-19" fill="#0080DB"></path>
                        <path d="M77.5316456,43.3377466 C77.5316456,49.0949285 87.9097027,53.7641007 100.70817,53.7641007 C113.511508,53.7641007 123.889565,49.0949285 123.889565,43.3377466 C123.889565,37.5756856 113.511508,32.9113924 100.70817,32.9113924 C87.9097027,32.9113924 77.5316456,37.5756856 77.5316456,43.3377466" id="Fill-20" fill="#2FA9FC"></path>
                        <polygon id="Fill-21" fill="#0080DB" points="37.3417722 32.9509476 83.6996913 32.9509476 83.6996913 18.9873418 37.3417722 18.9873418"></polygon>
                        <path d="M37.3417722,32.8947086 C37.3417722,38.6567695 47.7198293,43.3210627 60.5182967,43.3210627 C73.3216342,43.3210627 83.6996913,38.6567695 83.6996913,32.8947086 C83.6996913,27.1326476 73.3216342,22.4683544 60.5182967,22.4683544 C47.7198293,22.4683544 37.3417722,27.1326476 37.3417722,32.8947086" id="Fill-22" fill="#0080DB"></path>
                        <path d="M37.3417722,18.970658 C37.3417722,24.7278399 47.7198293,29.3970121 60.5182967,29.3970121 C73.3216342,29.3970121 83.6996913,24.7278399 83.6996913,18.970658 C83.6996913,13.208597 73.3216342,8.5443038 60.5182967,8.5443038 C47.7198293,8.5443038 37.3417722,13.208597 37.3417722,18.970658" id="Fill-23" fill="#2FA9FC"></path>
                    </g>
                    <g id="BLOCK" transform="translate(0.000000, 200.000000)" fill="#94949D" stroke="#FFFFFF" stroke-width="2">
                        <path d="M0.487125056,140.911775 L77.3412402,185.359172 L77.3412402,92.1904029 L0.300367946,48.2269846 C0.204432321,48.1722389 0.0822809574,48.2056299 0.0275352379,48.3015655 C0.0101278562,48.33207 0.00106034667,48.3666206 0.0012448103,48.4017419 L0.487125056,140.911775 Z" id="Fill-15"></path>
                        <path d="M78.1506832,185.557303 L163.791473,134.387902 L164.588841,45.8643749 C164.589836,45.7539224 164.501103,45.6635764 164.39065,45.6625816 C164.35703,45.6622787 164.323877,45.6704563 164.294254,45.6863582 L77.8481013,92.0919295 L77.8481013,185.385615 C77.8481013,185.496072 77.9376443,185.585615 78.0481013,185.585615 C78.0842245,185.585615 78.1196734,185.575831 78.1506832,185.557303 Z" id="Fill-16"></path>
                        <polygon id="Fill-17" points="77.1705708 92.1734594 164.105671 45.4183111 86.9885733 0 0.316455696 47.8187633"></polygon>
                        <path d="M124.20602,57.2199215 C124.206669,57.2521037 124.206994,57.2843209 124.206994,57.3165725 C124.206994,63.0786334 113.828937,67.7429266 101.0256,67.7429266 C88.2282161,67.7429266 77.8508328,63.0794233 77.8490755,57.3180362 L77.8481013,43.3544304 L124.20602,43.3544304 L124.20602,57.2199215 Z" id="Combined-Shape"></path>
                        <path d="M77.8481013,43.3377466 C77.8481013,49.0949285 88.2261584,53.7641007 101.024626,53.7641007 C113.827963,53.7641007 124.20602,49.0949285 124.20602,43.3377466 C124.20602,37.5756856 113.827963,32.9113924 101.024626,32.9113924 C88.2261584,32.9113924 77.8481013,37.5756856 77.8481013,43.3377466" id="Fill-20"></path>
                        <path d="M37.6596889,32.8340482 L37.6596889,18.9873418 L84.017608,18.9873418 L84.017608,32.9509476 C84.016147,38.7144722 73.6380899,43.3787654 60.8347524,43.3787654 C48.036285,43.3787654 37.6582278,38.7144722 37.6582278,32.9524113 C37.6582278,32.9129049 37.6587157,32.8734502 37.6596889,32.8340482 Z" id="Combined-Shape"></path>
                        <path d="M37.6582278,18.970658 C37.6582278,24.7278399 48.036285,29.3970121 60.8347524,29.3970121 C73.6380899,29.3970121 84.016147,24.7278399 84.016147,18.970658 C84.016147,13.208597 73.6380899,8.5443038 60.8347524,8.5443038 C48.036285,8.5443038 37.6582278,13.208597 37.6582278,18.970658" id="Fill-23"></path>
                    </g>
                    <g id="BLOCK-Copy" fill="#94949D" stroke="#FFFFFF" stroke-width="2">
                        <path d="M0.487125056,140.911775 L77.3412402,185.359172 L77.3412402,92.1904029 L0.300367946,48.2269846 C0.204432321,48.1722389 0.0822809574,48.2056299 0.0275352379,48.3015655 C0.0101278562,48.33207 0.00106034667,48.3666206 0.0012448103,48.4017419 L0.487125056,140.911775 Z" id="Fill-15"></path>
                        <path d="M78.1506832,185.557303 L163.791473,134.387902 L164.588841,45.8643749 C164.589836,45.7539224 164.501103,45.6635764 164.39065,45.6625816 C164.35703,45.6622787 164.323877,45.6704563 164.294254,45.6863582 L77.8481013,92.0919295 L77.8481013,185.385615 C77.8481013,185.496072 77.9376443,185.585615 78.0481013,185.585615 C78.0842245,185.585615 78.1196734,185.575831 78.1506832,185.557303 Z" id="Fill-16"></path>
                        <polygon id="Fill-17" points="77.1705708 92.1734594 164.105671 45.4183111 86.9885733 0 0.316455696 47.8187633"></polygon>
                        <path d="M124.20602,57.2199215 C124.206669,57.2521037 124.206994,57.2843209 124.206994,57.3165725 C124.206994,63.0786334 113.828937,67.7429266 101.0256,67.7429266 C88.2282161,67.7429266 77.8508328,63.0794233 77.8490755,57.3180362 L77.8481013,43.3544304 L124.20602,43.3544304 L124.20602,57.2199215 Z" id="Combined-Shape"></path>
                        <path d="M77.8481013,43.3377466 C77.8481013,49.0949285 88.2261584,53.7641007 101.024626,53.7641007 C113.827963,53.7641007 124.20602,49.0949285 124.20602,43.3377466 C124.20602,37.5756856 113.827963,32.9113924 101.024626,32.9113924 C88.2261584,32.9113924 77.8481013,37.5756856 77.8481013,43.3377466" id="Fill-20"></path>
                        <path d="M37.6596889,32.8340482 L37.6596889,18.9873418 L84.017608,18.9873418 L84.017608,32.9509476 C84.016147,38.7144722 73.6380899,43.3787654 60.8347524,43.3787654 C48.036285,43.3787654 37.6582278,38.7144722 37.6582278,32.9524113 C37.6582278,32.9129049 37.6587157,32.8734502 37.6596889,32.8340482 Z" id="Combined-Shape"></path>
                        <path d="M37.6582278,18.970658 C37.6582278,24.7278399 48.036285,29.3970121 60.8347524,29.3970121 C73.6380899,29.3970121 84.016147,24.7278399 84.016147,18.970658 C84.016147,13.208597 73.6380899,8.5443038 60.8347524,8.5443038 C48.036285,8.5443038 37.6582278,13.208597 37.6582278,18.970658" id="Fill-23"></path>
                    </g>
                </g>
                <polygon id="Path-5" fill="url(#linearGradient-1)" opacity="0.248245018" points="179.746835 541.131824 179.746835 648.512931 256.111656 694.10354 343.850822 645.953335 342.000298 535.126582 256.111656 585.627225"></polygon>
                <polygon id="Path-5-Copy" fill="url(#linearGradient-2)" opacity="0.25" points="180 341.237237 180.452976 448.27015 257.233109 494.951048 344.556962 445.710554 343.471865 335 257.233109 385.864148"></polygon>
                <polygon id="Path-5-Copy-2" fill="url(#linearGradient-2)" opacity="0.25" points="180 141.237237 180.452976 248.27015 257.233109 294.951048 344.556962 245.710554 343.471865 135 257.233109 185.864148"></polygon>
            </g>
        </g>
    </g>
</svg>