<?xml version="1.0" encoding="UTF-8"?>
<svg width="24px" height="25px" viewBox="0 0 24 25" version="1.1" xmlns="http://www.w3.org/2000/svg" xmlns:xlink="http://www.w3.org/1999/xlink">
    <!-- Generator: Sketch 48.2 (47327) - http://www.bohemiancoding.com/sketch -->
    <title>Logo NG</title>
    <desc>Created with Sketch.</desc>
    <defs>
        <polygon id="path-1" points="0 0.136778571 23.8632214 0.136778571 23.8632214 24 0 24"></polygon>
    </defs>
    <g id="Asyncy_Landing-Page_Final" stroke="none" stroke-width="1" fill="none" fill-rule="evenodd" transform="translate(-966.000000, -8316.000000)">
        <g id="FOOTER" transform="translate(1.000000, 8140.000000)">
            <g transform="translate(372.000000, 92.000000)" id="Designed-by-Netguru">
                <g transform="translate(471.000000, 84.000000)">
                    <g id="Logo-NG" transform="translate(122.000000, 0.000000)">
                        <g id="Group-3" transform="translate(0.000000, 0.077571)">
                            <mask id="mask-2" fill="white">
                                <use xlink:href="#path-1"></use>
                            </mask>
                            <g id="Clip-2"></g>
                            <polygon id="Fill-1" fill="#00D664" mask="url(#mask-2)" points="-6.42857143e-05 24.0000643 23.8632214 24.0000643 23.8632214 0.136778571 -6.42857143e-05 0.136778571"></polygon>
                        </g>
                        <g id="Group-2" transform="translate(5.142857, 5.357143)" fill="#FFFFFF">
                            <path d="M1.62783492,0.615060317 C1.42313651,0.410869841 1.11481905,0.34991746 0.847644444,0.460139683 C0.579961905,0.570869841 0.405231746,0.832457143 0.405231746,1.12198095 L0.405231746,12.7760762 C0.405231746,13.1722667 0.726247619,13.4922667 1.12193016,13.4922667 C1.51710476,13.4922667 1.8376127,13.1722667 1.8376127,12.7760762 L1.8376127,2.85048889 L4.88269206,5.89506032 C5.16205714,6.17493333 5.61615238,6.17493333 5.89551746,5.89506032 C6.17488254,5.6151873 6.17488254,5.1616 5.89551746,4.88223492 L1.62783492,0.615060317 Z" id="Fill-4"></path>
                            <path d="M12.7766857,0.405231746 C12.3810032,0.405231746 12.0604952,0.726247619 12.0604952,1.12193016 L12.0604952,11.0475175 L9.01541587,8.00294603 C8.73554286,7.72307302 8.28195556,7.72307302 8.00259048,8.00294603 C7.7232254,8.28231111 7.7232254,8.73589841 8.00259048,9.01526349 L12.270273,13.282946 C12.4069079,13.419581 12.590273,13.4922159 12.7766857,13.4922159 C12.8691302,13.4922159 12.9620825,13.4744381 13.0504635,13.4378667 C13.3176381,13.3271365 13.4923683,13.0660571 13.4923683,12.7760254 L13.4923683,1.12193016 C13.4923683,0.726247619 13.1718603,0.405231746 12.7766857,0.405231746" id="Fill-6"></path>
                        </g>
                    </g>
                </g>
            </g>
        </g>
    </g>
</svg>