<svg xmlns="http://www.w3.org/2000/svg" viewBox="0 0 724.37 459.34"><defs><style>.cls-1,.cls-10,.cls-11,.cls-12,.cls-13,.cls-14,.cls-15,.cls-16,.cls-17,.cls-18,.cls-2,.cls-3,.cls-4,.cls-5,.cls-6,.cls-7,.cls-8,.cls-9{fill:none;}.cls-1,.cls-10,.cls-11,.cls-12,.cls-13,.cls-14,.cls-15,.cls-16,.cls-17,.cls-18,.cls-5,.cls-6,.cls-7,.cls-8,.cls-9{stroke:#363a4d;}.cls-1,.cls-10,.cls-11,.cls-12,.cls-13,.cls-14,.cls-15,.cls-16,.cls-17,.cls-18,.cls-3,.cls-4,.cls-5,.cls-6,.cls-7,.cls-8,.cls-9{stroke-linecap:round;stroke-linejoin:round;}.cls-2,.cls-3{stroke:#231f20;}.cls-2{stroke-miterlimit:10;}.cls-4{stroke:#7e39d7;}.cls-5{stroke-dasharray:8.4 6.3;}.cls-6{stroke-dasharray:7.65 5.73;}.cls-7{stroke-dasharray:7.77 5.83;}.cls-8{stroke-dasharray:7.77 5.83;}.cls-9{stroke-dasharray:8.97 6.73;}.cls-10{stroke-dasharray:8.91 6.69;}.cls-11{stroke-dasharray:8.8 6.6;}.cls-12{stroke-dasharray:7.77 5.83;}.cls-13{stroke-dasharray:7.74 5.81;}.cls-14{stroke-dasharray:9.89 7.42;}.cls-15{stroke-dasharray:9.57 7.18;}.cls-16{stroke-dasharray:9.89 7.42;}.cls-17{stroke-dasharray:9.57 7.18;}.cls-18{stroke-dasharray:7.77 5.83;}</style></defs><title>Asset 2</title><g id="Layer_2" data-name="Layer 2"><g id="P1"><g id="L"><g id="line_l"><g id="LINE"><line class="cls-1" x1="723.87" y1="232.84" x2="723.87" y2="250.03"/><line class="cls-1" x1="723.87" y1="232.84" x2="723.87" y2="250.03"/><line class="cls-1" x1="723.87" y1="232.84" x2="723.87" y2="232.84"/><line class="cls-1" x1="723.87" y1="250.03" x2="723.87" y2="250.03"/></g><g id="LINE-2" data-name="LINE"><line class="cls-1" x1="723.87" y1="250.03" x2="560.09" y2="344.59"/><line class="cls-1" x1="723.87" y1="250.03" x2="560.09" y2="344.59"/><line class="cls-1" x1="723.87" y1="250.03" x2="723.87" y2="250.03"/><line class="cls-1" x1="560.09" y1="344.59" x2="560.09" y2="344.59"/></g><g id="LINE-3" data-name="LINE"><line class="cls-1" x1="560.09" y1="327.39" x2="396.32" y2="232.84"/><line class="cls-1" x1="560.09" y1="327.39" x2="396.32" y2="232.84"/><line class="cls-1" x1="560.09" y1="327.39" x2="560.09" y2="327.39"/><line class="cls-1" x1="396.32" y1="232.84" x2="396.32" y2="232.84"/></g><g id="LINE-4" data-name="LINE"><line class="cls-1" x1="433.11" y1="271.24" x2="444.58" y2="277.86"/><line class="cls-1" x1="433.11" y1="271.24" x2="444.58" y2="277.86"/><line class="cls-1" x1="433.11" y1="271.24" x2="433.11" y2="271.24"/><line class="cls-1" x1="444.58" y1="277.86" x2="444.58" y2="277.86"/></g><g id="LINE-5" data-name="LINE"><line class="cls-1" x1="525.99" y1="324.89" x2="560.09" y2="344.59"/><line class="cls-1" x1="525.99" y1="324.89" x2="560.09" y2="344.59"/><line class="cls-1" x1="525.99" y1="324.89" x2="525.99" y2="324.89"/><line class="cls-1" x1="560.09" y1="344.59" x2="560.09" y2="344.59"/></g><g id="LINE-6" data-name="LINE"><line class="cls-1" x1="560.09" y1="327.39" x2="560.09" y2="344.59"/></g><g id="LINE-7" data-name="LINE"><line class="cls-1" x1="560.09" y1="327.39" x2="723.87" y2="232.84"/></g><g id="LINE-8" data-name="LINE"><line class="cls-1" x1="560.09" y1="327.39" x2="723.87" y2="232.84"/></g><g id="LINE-9" data-name="LINE"><line class="cls-1" x1="560.09" y1="327.39" x2="723.87" y2="232.84"/></g><g id="LINE-10" data-name="LINE"><line class="cls-1" x1="396.32" y1="232.8" x2="396.32" y2="237.79"/></g><g id="LINE-11" data-name="LINE"><line class="cls-1" x1="396.32" y1="232.8" x2="560.09" y2="138.25"/></g><g id="LINE-12" data-name="LINE"><line class="cls-1" x1="723.87" y1="232.84" x2="682.41" y2="208.89"/><line class="cls-1" x1="618.99" y1="172.27" x2="560.09" y2="138.25"/></g><g id="LINE-13" data-name="LINE"><line class="cls-1" x1="525.98" y1="364.28" x2="362.21" y2="458.84"/><line class="cls-1" x1="525.98" y1="364.28" x2="362.21" y2="458.84"/><line class="cls-1" x1="525.98" y1="364.28" x2="525.98" y2="364.28"/><line class="cls-1" x1="362.21" y1="458.84" x2="362.21" y2="458.84"/></g><g id="LINE-14" data-name="LINE"><line class="cls-1" x1="362.21" y1="441.64" x2="198.44" y2="347.09"/><line class="cls-1" x1="362.21" y1="441.64" x2="198.44" y2="347.09"/><line class="cls-1" x1="362.21" y1="441.64" x2="362.21" y2="441.64"/><line class="cls-1" x1="198.44" y1="347.09" x2="198.44" y2="347.09"/></g><g id="LINE-15" data-name="LINE"><line class="cls-1" x1="198.44" y1="364.24" x2="362.21" y2="458.84"/><line class="cls-1" x1="198.44" y1="364.24" x2="362.21" y2="458.84"/><line class="cls-1" x1="198.44" y1="364.24" x2="198.44" y2="364.24"/><line class="cls-1" x1="362.21" y1="458.84" x2="362.21" y2="458.84"/></g><g id="LINE-16" data-name="LINE"><line class="cls-1" x1="362.21" y1="441.64" x2="362.21" y2="458.84"/></g><g id="LINE-17" data-name="LINE"><line class="cls-1" x1="362.21" y1="441.64" x2="525.98" y2="347.09"/></g><g id="LINE-18" data-name="LINE"><line class="cls-1" x1="362.21" y1="441.64" x2="525.98" y2="347.09"/></g><g id="LINE-19" data-name="LINE"><line class="cls-1" x1="362.21" y1="441.64" x2="525.98" y2="347.09"/></g><g id="LINE-20" data-name="LINE"><line class="cls-1" x1="198.44" y1="347.05" x2="213.33" y2="338.45"/></g><g id="LINE-21" data-name="LINE"><line class="cls-1" x1="299.08" y1="288.95" x2="306.27" y2="284.8"/></g><g id="LINE-22" data-name="LINE"><line class="cls-1" x1="418.2" y1="284.84" x2="425.35" y2="288.97"/></g><g id="LINE-23" data-name="LINE"><line class="cls-1" x1="511.08" y1="338.48" x2="525.98" y2="347.09"/></g><g id="LINE-24" data-name="LINE"><line class="cls-1" x1="525.98" y1="347.09" x2="525.98" y2="364.28"/></g><g id="LINE-25" data-name="LINE"><line class="cls-1" x1="198.44" y1="347.09" x2="198.44" y2="364.24"/></g><g id="LINE-26" data-name="LINE"><line class="cls-1" x1="525.93" y1="118.54" x2="525.93" y2="135.73"/><line class="cls-1" x1="525.93" y1="118.54" x2="525.93" y2="135.73"/><line class="cls-1" x1="525.93" y1="118.54" x2="525.93" y2="118.54"/><line class="cls-1" x1="525.93" y1="135.73" x2="525.93" y2="135.73"/></g><g id="LINE-27" data-name="LINE"><line class="cls-1" x1="525.93" y1="135.73" x2="401.99" y2="207.29"/><line class="cls-1" x1="525.93" y1="135.73" x2="401.99" y2="207.29"/><line class="cls-1" x1="525.93" y1="135.73" x2="525.93" y2="135.73"/></g><g id="LINE-28" data-name="LINE"><line class="cls-1" x1="320.93" y1="189.3" x2="198.38" y2="118.54"/><line class="cls-1" x1="320.93" y1="189.3" x2="198.38" y2="118.54"/><line class="cls-1" x1="198.38" y1="118.54" x2="198.38" y2="118.54"/></g><g id="LINE-29" data-name="LINE"><line class="cls-1" x1="320.93" y1="206.47" x2="198.38" y2="135.69"/><line class="cls-1" x1="320.93" y1="206.47" x2="198.38" y2="135.69"/><line class="cls-1" x1="198.38" y1="135.69" x2="198.38" y2="135.69"/></g><g id="LINE-30" data-name="LINE"><line class="cls-1" x1="525.93" y1="118.54" x2="401.99" y2="190.1"/></g><g id="LINE-31" data-name="LINE"><line class="cls-1" x1="525.93" y1="118.54" x2="401.99" y2="190.1"/></g><g id="LINE-32" data-name="LINE"><line class="cls-1" x1="525.93" y1="118.54" x2="401.99" y2="190.1"/></g><g id="LINE-33" data-name="LINE"><polyline class="cls-1" points="198.38 135.7 198.38 135.69 198.38 118.54 198.38 118.51"/></g><g id="LINE-34" data-name="LINE"><polyline class="cls-1" points="198.38 118.51 291.48 64.76 291.49 64.76 306.36 56.17 362.16 23.95"/></g><g id="LINE-35" data-name="LINE"><line class="cls-1" x1="525.93" y1="118.54" x2="471.83" y2="87.29"/><line class="cls-1" x1="408.81" y1="50.89" x2="362.16" y2="23.95"/></g><g id="LINE-36" data-name="LINE"><line class="cls-1" x1="291.4" y1="271.14" x2="279.82" y2="277.83"/><line class="cls-1" x1="291.4" y1="271.14" x2="279.82" y2="277.83"/><line class="cls-1" x1="291.4" y1="271.14" x2="291.4" y2="271.14"/><line class="cls-1" x1="279.82" y1="277.83" x2="279.82" y2="277.83"/></g><g id="LINE-37" data-name="LINE"><line class="cls-1" x1="198.48" y1="324.79" x2="164.27" y2="344.54"/><line class="cls-1" x1="198.48" y1="324.79" x2="164.27" y2="344.54"/><line class="cls-1" x1="198.48" y1="324.79" x2="198.48" y2="324.79"/><line class="cls-1" x1="164.27" y1="344.54" x2="164.27" y2="344.54"/></g><g id="LINE-38" data-name="LINE"><line class="cls-1" x1="164.27" y1="327.35" x2="0.5" y2="232.79"/><line class="cls-1" x1="164.27" y1="327.35" x2="0.5" y2="232.79"/><line class="cls-1" x1="164.27" y1="327.35" x2="164.27" y2="327.35"/><line class="cls-1" x1="0.5" y1="232.79" x2="0.5" y2="232.79"/></g><g id="LINE-39" data-name="LINE"><line class="cls-1" x1="0.5" y1="249.94" x2="164.27" y2="344.54"/><line class="cls-1" x1="0.5" y1="249.94" x2="164.27" y2="344.54"/><line class="cls-1" x1="0.5" y1="249.94" x2="0.5" y2="249.94"/><line class="cls-1" x1="164.27" y1="344.54" x2="164.27" y2="344.54"/></g><g id="LINE-40" data-name="LINE"><line class="cls-1" x1="164.27" y1="327.35" x2="164.27" y2="344.54"/></g><g id="LINE-41" data-name="LINE"><polyline class="cls-1" points="320.93 236.9 301.8 247.95 279.84 260.62 251.5 276.99 237.32 285.17 208.98 301.54 164.27 327.35"/></g><g id="LINE-42" data-name="LINE"><polyline class="cls-1" points="320.93 236.9 301.8 247.95 279.84 260.62 251.5 276.99 237.32 285.17 208.98 301.54 164.27 327.35"/></g><g id="LINE-43" data-name="LINE"><polyline class="cls-1" points="320.93 236.9 301.8 247.95 279.84 260.62 251.5 276.99 237.32 285.17 208.98 301.54 164.27 327.35"/></g><g id="LINE-44" data-name="LINE"><line class="cls-1" x1="0.5" y1="232.76" x2="135.96" y2="154.55"/></g><g id="LINE-45" data-name="LINE"><line class="cls-1" x1="0.5" y1="232.79" x2="0.5" y2="249.94"/></g><g id="LINE-46" data-name="LINE"><polyline class="cls-1" points="320.93 228.68 317.55 226.73 192.59 154.55"/></g><g id="LWPOLYLINE"><polyline class="cls-1" points="291.36 383.51 362.21 424.44 433.07 383.53"/></g><g id="LWPOLYLINE-2" data-name="LWPOLYLINE"><polyline class="cls-1" points="362.22 325.42 291.36 366.33 362.21 407.25 433.07 366.35 362.22 325.42"/></g><g id="LINE-47" data-name="LINE"><line class="cls-1" x1="362.21" y1="407.24" x2="362.21" y2="424.44"/></g><g id="LWPOLYLINE-3" data-name="LWPOLYLINE"><polyline class="cls-1" points="269.34 271.77 198.48 312.68 269.33 353.61 340.19 312.7 269.34 271.77"/></g><g id="LWPOLYLINE-4" data-name="LWPOLYLINE"><polyline class="cls-1" points="291.4 276.21 362.25 317.14 433.11 276.23"/></g><g id="LWPOLYLINE-5" data-name="LWPOLYLINE"><polyline class="cls-1" points="320.93 241.98 306.2 250.49 291.4 259.03 362.25 299.96 433.11 259.05 418.21 250.44 396.32 237.79 385.4 231.49"/></g><g id="LINE-48" data-name="LINE"><line class="cls-1" x1="362.25" y1="299.94" x2="362.25" y2="317.14"/></g><g id="LINE-49" data-name="LINE"><line class="cls-1" x1="433.11" y1="259.05" x2="433.11" y2="276.23"/></g><g id="LINE-50" data-name="LINE"><line class="cls-1" x1="291.4" y1="259.03" x2="291.4" y2="276.21"/></g><g id="LWPOLYLINE-6" data-name="LWPOLYLINE"><polyline class="cls-1" points="198.48 329.88 269.33 370.8 340.19 329.89"/></g><g id="LINE-51" data-name="LINE"><line class="cls-1" x1="269.33" y1="353.61" x2="269.33" y2="370.8"/></g><g id="LINE-52" data-name="LINE"><line class="cls-1" x1="340.19" y1="312.7" x2="340.19" y2="329.89"/></g><g id="LINE-53" data-name="LINE"><line class="cls-1" x1="198.48" y1="312.68" x2="198.48" y2="329.88"/></g><g id="LINE-54" data-name="LINE"><line class="cls-1" x1="291.36" y1="366.33" x2="291.36" y2="383.51"/></g><g id="LINE-55" data-name="LINE"><line class="cls-1" x1="433.07" y1="366.35" x2="433.07" y2="383.53"/></g><g id="LWPOLYLINE-7" data-name="LWPOLYLINE"><line class="cls-1" x1="574.27" y1="252.1" x2="574.27" y2="268.46"/></g><g id="LWPOLYLINE-8" data-name="LWPOLYLINE"><polyline class="cls-1" points="588.43 277.45 602.61 285.64 630.95 269.28 630.95 252.1 602.61 235.73 574.27 252.1 602.61 268.47 630.95 252.1"/></g><g id="LWPOLYLINE-9" data-name="LWPOLYLINE"><line class="cls-1" x1="602.61" y1="268.47" x2="602.61" y2="285.64"/></g><g id="LWPOLYLINE-10" data-name="LWPOLYLINE"><polyline class="cls-1" points="531.75 276.64 531.75 293.82 560.09 310.19 588.43 293.82 588.43 276.65 560.1 260.28 531.75 276.64 560.09 293.01 588.43 276.65"/></g><g id="LWPOLYLINE-11" data-name="LWPOLYLINE"><line class="cls-1" x1="560.09" y1="293.01" x2="560.09" y2="310.19"/></g><g id="LWPOLYLINE-12" data-name="LWPOLYLINE"><polyline class="cls-1" points="489.24 252.09 489.24 269.26 517.58 285.63 531.75 277.45"/></g><g id="LWPOLYLINE-13" data-name="LWPOLYLINE"><polyline class="cls-1" points="545.92 268.46 545.92 252.09 517.59 235.72 489.24 252.09 517.58 268.46 545.92 252.09"/></g><g id="LWPOLYLINE-14" data-name="LWPOLYLINE"><line class="cls-1" x1="517.58" y1="268.46" x2="517.58" y2="285.63"/></g><g id="LWPOLYLINE-15" data-name="LWPOLYLINE"><line class="cls-1" x1="531.76" y1="227.54" x2="531.76" y2="243.91"/></g><g id="LWPOLYLINE-16" data-name="LWPOLYLINE"><line class="cls-1" x1="545.93" y1="252.9" x2="559.4" y2="260.68"/></g><g id="LWPOLYLINE-17" data-name="LWPOLYLINE"><line class="cls-1" x1="560.79" y1="260.68" x2="574.27" y2="252.9"/></g><g id="LWPOLYLINE-18" data-name="LWPOLYLINE"><polyline class="cls-1" points="588.44 243.91 588.44 227.55 560.1 211.18 531.76 227.54 560.1 243.91 588.44 227.55"/></g><g id="LWPOLYLINE-19" data-name="LWPOLYLINE"><line class="cls-1" x1="560.1" y1="243.91" x2="560.1" y2="260.28"/></g><g id="LWPOLYLINE-20" data-name="LWPOLYLINE"><line class="cls-1" x1="376.33" y1="137.8" x2="376.33" y2="154.17"/></g><g id="LWPOLYLINE-21" data-name="LWPOLYLINE"><polyline class="cls-1" points="433.01 137.81 404.67 154.17 401.99 152.62"/><polyline class="cls-1" points="390.75 146.13 376.33 137.8 390.5 129.62 404.67 121.44 433.01 137.81 433.01 154.98 404.67 171.34 401.99 169.79"/></g><g id="LWPOLYLINE-22" data-name="LWPOLYLINE"><line class="cls-1" x1="404.67" y1="154.17" x2="404.67" y2="171.34"/></g><g id="LWPOLYLINE-23" data-name="LWPOLYLINE"><polyline class="cls-1" points="376.58 154.31 376.33 154.17 362.86 146.39 362.16 145.98 361.46 146.39 347.99 154.16 333.82 162.35 348.25 170.69"/><polyline class="cls-1" points="333.82 162.35 333.82 163.15 333.82 179.03"/></g><g id="LWPOLYLINE-24" data-name="LWPOLYLINE"><polyline class="cls-1" points="291.31 137.79 291.31 154.97 319.65 171.34 333.82 163.15"/></g><g id="LWPOLYLINE-25" data-name="LWPOLYLINE"><polyline class="cls-1" points="347.99 154.16 347.99 137.8 319.65 121.43 291.31 137.79 319.65 154.16 347.99 137.8"/></g><g id="LWPOLYLINE-26" data-name="LWPOLYLINE"><line class="cls-1" x1="319.65" y1="154.16" x2="319.65" y2="171.33"/></g><g id="LWPOLYLINE-27" data-name="LWPOLYLINE"><line class="cls-1" x1="333.82" y1="113.25" x2="333.82" y2="129.61"/></g><g id="LWPOLYLINE-28" data-name="LWPOLYLINE"><line class="cls-1" x1="347.99" y1="138.6" x2="361.46" y2="146.39"/></g><g id="LWPOLYLINE-29" data-name="LWPOLYLINE"><line class="cls-1" x1="362.86" y1="146.39" x2="376.33" y2="138.61"/></g><g id="LWPOLYLINE-30" data-name="LWPOLYLINE"><polyline class="cls-1" points="390.5 129.62 390.5 113.25 362.16 96.88 333.82 113.25 362.16 129.62 390.5 113.25"/></g><g id="LWPOLYLINE-31" data-name="LWPOLYLINE"><line class="cls-1" x1="362.16" y1="129.62" x2="362.16" y2="145.98"/></g><g id="LWPOLYLINE-32" data-name="LWPOLYLINE"><line class="cls-1" x1="178.45" y1="252.05" x2="178.45" y2="268.42"/></g><g id="LWPOLYLINE-33" data-name="LWPOLYLINE"><polyline class="cls-1" points="192.62 277.41 206.79 285.6 235.13 269.23 235.13 252.06 206.79 235.69 178.45 252.05 206.79 268.42 235.13 252.06"/></g><g id="LWPOLYLINE-34" data-name="LWPOLYLINE"><line class="cls-1" x1="206.79" y1="268.42" x2="206.79" y2="285.59"/></g><g id="LWPOLYLINE-35" data-name="LWPOLYLINE"><polyline class="cls-1" points="135.93 276.6 135.93 293.77 164.27 310.14 192.62 293.78 192.62 276.6 164.28 260.23 135.93 276.6 164.27 292.97 192.62 276.6"/></g><g id="LWPOLYLINE-36" data-name="LWPOLYLINE"><line class="cls-1" x1="164.27" y1="292.97" x2="164.27" y2="310.14"/></g><g id="LWPOLYLINE-37" data-name="LWPOLYLINE"><polyline class="cls-1" points="93.42 252.04 93.42 269.21 121.76 285.58 135.93 277.4"/></g><g id="LWPOLYLINE-38" data-name="LWPOLYLINE"><polyline class="cls-1" points="150.11 268.41 150.11 252.05 121.77 235.68 93.42 252.04 121.76 268.41 150.11 252.05"/></g><g id="LWPOLYLINE-39" data-name="LWPOLYLINE"><line class="cls-1" x1="121.76" y1="268.41" x2="121.76" y2="285.59"/></g><g id="LWPOLYLINE-40" data-name="LWPOLYLINE"><line class="cls-1" x1="135.94" y1="227.5" x2="135.94" y2="243.86"/></g><g id="LWPOLYLINE-41" data-name="LWPOLYLINE"><line class="cls-1" x1="150.11" y1="252.85" x2="163.58" y2="260.64"/></g><g id="LWPOLYLINE-42" data-name="LWPOLYLINE"><line class="cls-1" x1="164.98" y1="260.64" x2="178.45" y2="252.86"/></g><g id="LWPOLYLINE-43" data-name="LWPOLYLINE"><polyline class="cls-1" points="192.62 243.87 192.62 227.5 164.28 211.13 135.94 227.5 164.28 243.87 192.62 227.5"/></g><g id="LWPOLYLINE-44" data-name="LWPOLYLINE"><line class="cls-1" x1="164.28" y1="243.87" x2="164.28" y2="260.23"/></g><g id="LWPOLYLINE-45" data-name="LWPOLYLINE"><polyline class="cls-1" points="135.93 137.36 135.93 154.53 164.27 170.9 192.61 154.54 192.61 137.37 164.28 121 135.93 137.36 164.27 153.73 192.61 137.37"/></g><g id="LWPOLYLINE-46" data-name="LWPOLYLINE"><line class="cls-1" x1="164.27" y1="153.73" x2="164.27" y2="170.9"/></g><path class="cls-2" d="M645.33,178.16c0-3.92,8.16-11.9,17.54-17.42s17.54-7.13,17.54-3.21-8.16,11.9-17.54,17.42S645.33,182.08,645.33,178.16ZM662.87,198q.9-.53,1.77-1.08a22.92,22.92,0,0,1,2.36-9c-1.47,1-2.88,1.9-4.13,2.63-5.27,3.1-13.31,6.76-17.54,5.72v5C645.33,205.17,653.49,203.54,662.87,198Zm0-11.53c9.38-5.52,17.54-13.5,17.54-17.42v-5c-4.24,6-12.29,11.82-17.54,14.91s-13.31,6.76-17.54,5.72v5C645.33,193.63,653.49,192,662.87,186.5Zm2.2,14.25c-.77.49-1.51.95-2.2,1.35-5.25,3.09-13.3,6.77-17.54,5.72v5c0,3.92,8.16,2.3,17.54-3.21a70.32,70.32,0,0,0,6.45-4.32A6.07,6.07,0,0,1,665.07,200.75ZM683.92,186a17.73,17.73,0,0,1-7.89,13.8c-4.36,2.56-7.9.54-7.9-4.52a17.71,17.71,0,0,1,7.9-13.8C680.38,179,683.92,181,683.92,186Z"/><path class="cls-2" d="M676,186.09v9.27"/><path class="cls-2" d="M680,188.38l-8,4.7"/><path class="cls-2" d="M473,45.66,437.3,66.29c-3.51,2-6.36,6.53-6.36,10S433.79,81,437.3,79l23.78-13.75a14.15,14.15,0,0,1,5.65-6.7,7.79,7.79,0,0,1,1.58-.71l.93-1a8.52,8.52,0,0,1,.2-.84,1.07,1.07,0,0,1-1.38-1.17,4.39,4.39,0,0,1,2.1-3.33,1.5,1.5,0,0,1,1.72-.1,13,13,0,0,1,3.59-3.19,5.86,5.86,0,0,1,3.76-.94C478.71,44.61,476.1,43.85,473,45.66ZM444.4,70.19l-5.78,3.34c-.91.53-1.65.22-1.65-.69a3.45,3.45,0,0,1,1.65-2.61l5.78-3.34c.91-.53,1.65-.22,1.65.69A3.45,3.45,0,0,1,444.4,70.19Z"/><path class="cls-2" d="M469.82,70.77c-.76.31-1.38.14-1.64-.42h-.1a10.19,10.19,0,0,1-1.35.93c-3.52,2-6.37.83-6.37-2.68a5.87,5.87,0,0,1,.05-.83L437.3,81.15c-3.51,2-6.36,6.53-6.36,10s2.85,4.71,6.36,2.68L473,73.23a12.21,12.21,0,0,0,2.32-1.79C472.89,72.68,470.76,72.39,469.82,70.77ZM444.4,85.05l-5.78,3.34c-.91.53-1.65.21-1.65-.7a3.41,3.41,0,0,1,1.65-2.6l5.78-3.34c.91-.53,1.65-.22,1.65.69A3.45,3.45,0,0,1,444.4,85.05Z"/><path class="cls-2" d="M437.3,64.14,473,43.51c3.5-2,6.36-6.53,6.36-10s-2.86-4.71-6.36-2.68L437.3,51.43c-3.51,2-6.36,6.53-6.36,10S433.79,66.17,437.3,64.14Zm32.86-27.46c1.16-.68,2.11-.28,2.11.88a4.38,4.38,0,0,1-2.11,3.32c-1.16.68-2.1.28-2.1-.88A4.37,4.37,0,0,1,470.16,36.68ZM438.62,55.37,444.4,52c.91-.53,1.65-.21,1.65.7a3.43,3.43,0,0,1-1.65,2.6l-5.78,3.34c-.91.53-1.65.22-1.65-.69A3.45,3.45,0,0,1,438.62,55.37Z"/><path class="cls-2" d="M475.62,61.82a6.8,6.8,0,0,0-2.4,2.56l-3.8.38a4.5,4.5,0,0,0,.34-1.59,2.17,2.17,0,0,0-.28-1.11l3.82-4a2.48,2.48,0,0,0,2.12-.37,6.35,6.35,0,0,0,3.07-4.84c0-1.69-1.37-2.27-3.07-1.29a6.39,6.39,0,0,0-3.07,4.84,2.27,2.27,0,0,0,.11.72l-4.1,4.28a2.91,2.91,0,0,0-1.67.47,6.36,6.36,0,0,0-3.07,4.84c0,1.69,1.37,2.27,3.07,1.29a6,6,0,0,0,1.53-1.3l4.36-.43c0,.13,0,.26,0,.39,0,1.69,1.37,2.27,3.06,1.29a6.36,6.36,0,0,0,3.07-4.84C478.69,61.42,477.32,60.84,475.62,61.82Z"/><path class="cls-3" d="M358.9,217.25l5.59-12.65c-2.64-.1-4.4-2-4.4-5.27,0-5,4-11.18,9-13.92s9-1,9,4a11.47,11.47,0,0,1-.39,2.84"/><path class="cls-3" d="M360.93,219.56a8.14,8.14,0,0,1-4.05,6.29c-2.23,1.24-4.05.43-4.05-1.8a8.16,8.16,0,0,1,4.05-6.29,4.2,4.2,0,0,1,2.05-.58C360.13,217.22,360.93,218.08,360.93,219.56Z"/><path class="cls-3" d="M377.12,210.19,366,216.4c0,3.06-1.57,6.91-4.39,10.15-4.26,4.88-9.77,6.52-12.3,3.67s-1.12-9.13,3.14-14a18.85,18.85,0,0,1,2.47-2.37"/><path class="cls-3" d="M379.06,205.62c1.92-2.2,4.4-3,5.55-1.66s.5,4.12-1.42,6.33-4.41,2.94-5.55,1.65a2.55,2.55,0,0,1-.57-1.72A7.37,7.37,0,0,1,379.06,205.62Z"/><path class="cls-3" d="M371.3,196.74l6,6c2.59-3.07,5.95-5.21,8.88-5.34,4.42-.21,6.18,4.21,3.93,9.86s-7.64,10.4-12.06,10.6a5.17,5.17,0,0,1-2.17-.33"/><path class="cls-3" d="M367.3,199.2c-2,.09-2.79-1.9-1.77-4.45S369,190.05,371,190s2.79,1.9,1.78,4.45a8.83,8.83,0,0,1-1.42,2.36A6.19,6.19,0,0,1,367.3,199.2Z"/><g id="LWPOLYLINE-47" data-name="LWPOLYLINE"><polygon class="cls-1" points="629.2 169.61 629.2 239.62 629.19 239.62 626.1 237.7 618.99 233.27 618.99 163.27 629.19 169.62 629.2 169.61"/><line class="cls-1" x1="659.76" y1="221.98" x2="668.03" y2="227.13"/></g><g id="LWPOLYLINE-48" data-name="LWPOLYLINE"><polygon class="cls-1" points="700.05 128.68 700.05 128.71 695.46 131.36 667.74 147.36 652.87 155.95 633.67 167.03 629.42 169.48 629.2 169.61 629.19 169.62 618.99 163.27 623.08 160.91 642.26 149.83 657.08 141.26 684.84 125.22 689.85 122.33 700.05 128.68"/></g><polygon class="cls-1" points="700.05 128.71 700.05 198.71 694.29 202.04 685.15 207.31 682.41 208.89 678.22 211.31 673.74 213.9 673.26 214.18 673.25 214.18 668.03 227.12 662.22 220.56 662.21 220.55 659.76 221.97 629.2 239.61 629.2 169.61 629.42 169.48 633.67 167.03 652.87 155.95 667.74 147.36 695.46 131.36 700.05 128.71"/><g id="LWPOLYLINE-49" data-name="LWPOLYLINE"><polygon class="cls-1" points="331.14 192.81 331.14 262.82 331.13 262.82 320.93 256.47 320.93 186.47 331.13 192.82 331.14 192.81"/><line class="cls-1" x1="361.7" y1="245.18" x2="369.97" y2="250.33"/></g><g id="LWPOLYLINE-50" data-name="LWPOLYLINE"><polygon class="cls-1" points="401.99 151.88 401.99 151.91 401.37 152.27 397.4 154.56 387.2 160.45 369.68 170.56 358.86 176.81 354.81 179.15 343.99 185.39 335.61 190.23 331.36 192.68 331.14 192.81 331.13 192.82 320.93 186.47 325.02 184.11 333.82 179.03 344.2 173.03 348.25 170.69 359.02 164.46 376.58 154.31 386.78 148.42 390.75 146.13 391.79 145.53 401.99 151.88"/></g><path class="cls-1" d="M402,152.62v-.71"/><polygon class="cls-1" points="401.99 152.62 401.99 221.91 400.2 222.95 396.23 225.24 387.09 230.51 385.4 231.49 380.16 234.51 375.68 237.1 375.2 237.38 375.19 237.38 369.97 250.32 364.16 243.76 364.15 243.75 361.7 245.17 331.14 262.81 331.14 192.81 331.36 192.68 335.61 190.23 343.99 185.39 354.81 179.15 358.86 176.81 369.68 170.56 387.2 160.45 397.4 154.56 401.37 152.27 401.99 152.62"/><g id="LWPOLYLINE-51" data-name="LWPOLYLINE"><polyline class="cls-1" points="419.02 56.79 419.02 117.79 419.01 117.79 408.81 111.44 408.81 41.44 419.01 47.79 419.02 47.78"/><line class="cls-1" x1="449.58" y1="100.15" x2="457.85" y2="105.3"/></g><g id="LWPOLYLINE-52" data-name="LWPOLYLINE"><polygon class="cls-1" points="489.87 6.85 489.87 6.88 485.28 9.53 457.56 25.53 442.69 34.12 426.27 43.6 423.49 45.2 419.24 47.65 419.02 47.78 419.01 47.79 408.81 41.44 412.9 39.08 415.68 37.48 432.08 28 446.9 19.43 474.66 3.39 479.67 0.5 489.87 6.85"/></g><polygon class="cls-1" points="489.87 6.88 489.87 76.88 484.11 80.21 474.97 85.48 471.83 87.29 468.04 89.48 463.56 92.07 463.08 92.35 463.07 92.35 457.85 105.29 452.04 98.73 452.03 98.72 449.58 100.14 419.02 117.78 419.02 47.78 419.24 47.65 423.49 45.2 426.27 43.6 442.69 34.12 457.56 25.53 485.28 9.53 489.87 6.88"/><g id="LINE-56" data-name="LINE"><line class="cls-4" x1="723.87" y1="232.84" x2="723.87" y2="250.03"/><line class="cls-4" x1="723.87" y1="232.84" x2="723.87" y2="250.03"/><line class="cls-4" x1="723.87" y1="232.84" x2="723.87" y2="232.84"/><line class="cls-4" x1="723.87" y1="250.03" x2="723.87" y2="250.03"/></g><g id="LINE-57" data-name="LINE"><line class="cls-4" x1="723.87" y1="250.03" x2="560.09" y2="344.59"/><line class="cls-4" x1="723.87" y1="250.03" x2="560.09" y2="344.59"/><line class="cls-4" x1="723.87" y1="250.03" x2="723.87" y2="250.03"/><line class="cls-4" x1="560.09" y1="344.59" x2="560.09" y2="344.59"/></g><g id="LINE-58" data-name="LINE"><line class="cls-4" x1="560.09" y1="327.39" x2="396.32" y2="232.84"/><line class="cls-4" x1="560.09" y1="327.39" x2="396.32" y2="232.84"/><line class="cls-4" x1="560.09" y1="327.39" x2="560.09" y2="327.39"/><line class="cls-4" x1="396.32" y1="232.84" x2="396.32" y2="232.84"/></g><g id="LINE-59" data-name="LINE"><line class="cls-4" x1="433.11" y1="271.24" x2="444.58" y2="277.86"/><line class="cls-4" x1="433.11" y1="271.24" x2="444.58" y2="277.86"/><line class="cls-4" x1="433.11" y1="271.24" x2="433.11" y2="271.24"/><line class="cls-4" x1="444.58" y1="277.86" x2="444.58" y2="277.86"/></g><g id="LINE-60" data-name="LINE"><line class="cls-4" x1="525.99" y1="324.89" x2="560.09" y2="344.59"/><line class="cls-4" x1="525.99" y1="324.89" x2="560.09" y2="344.59"/><line class="cls-4" x1="525.99" y1="324.89" x2="525.99" y2="324.89"/><line class="cls-4" x1="560.09" y1="344.59" x2="560.09" y2="344.59"/></g><g id="LINE-61" data-name="LINE"><line class="cls-4" x1="560.09" y1="327.39" x2="560.09" y2="344.59"/></g><g id="LINE-62" data-name="LINE"><line class="cls-4" x1="560.09" y1="327.39" x2="723.87" y2="232.84"/></g><g id="LINE-63" data-name="LINE"><line class="cls-4" x1="560.09" y1="327.39" x2="723.87" y2="232.84"/></g><g id="LINE-64" data-name="LINE"><line class="cls-4" x1="560.09" y1="327.39" x2="723.87" y2="232.84"/></g><g id="LINE-65" data-name="LINE"><line class="cls-4" x1="396.32" y1="232.8" x2="396.32" y2="237.79"/></g><g id="LINE-66" data-name="LINE"><line class="cls-4" x1="396.32" y1="232.8" x2="560.09" y2="138.25"/></g><g id="LINE-67" data-name="LINE"><line class="cls-4" x1="723.87" y1="232.84" x2="682.41" y2="208.89"/><line class="cls-4" x1="618.99" y1="172.27" x2="560.09" y2="138.25"/></g><g id="LINE-68" data-name="LINE"><line class="cls-4" x1="525.98" y1="364.28" x2="362.21" y2="458.84"/><line class="cls-4" x1="525.98" y1="364.28" x2="362.21" y2="458.84"/><line class="cls-4" x1="525.98" y1="364.28" x2="525.98" y2="364.28"/><line class="cls-4" x1="362.21" y1="458.84" x2="362.21" y2="458.84"/></g><g id="LINE-69" data-name="LINE"><line class="cls-4" x1="362.21" y1="441.64" x2="198.44" y2="347.09"/><line class="cls-4" x1="362.21" y1="441.64" x2="198.44" y2="347.09"/><line class="cls-4" x1="362.21" y1="441.64" x2="362.21" y2="441.64"/><line class="cls-4" x1="198.44" y1="347.09" x2="198.44" y2="347.09"/></g><g id="LINE-70" data-name="LINE"><line class="cls-4" x1="198.44" y1="364.24" x2="362.21" y2="458.84"/><line class="cls-4" x1="198.44" y1="364.24" x2="362.21" y2="458.84"/><line class="cls-4" x1="198.44" y1="364.24" x2="198.44" y2="364.24"/><line class="cls-4" x1="362.21" y1="458.84" x2="362.21" y2="458.84"/></g><g id="LINE-71" data-name="LINE"><line class="cls-4" x1="362.21" y1="441.64" x2="362.21" y2="458.84"/></g><g id="LINE-72" data-name="LINE"><line class="cls-4" x1="362.21" y1="441.64" x2="525.98" y2="347.09"/></g><g id="LINE-73" data-name="LINE"><line class="cls-4" x1="362.21" y1="441.64" x2="525.98" y2="347.09"/></g><g id="LINE-74" data-name="LINE"><line class="cls-4" x1="362.21" y1="441.64" x2="525.98" y2="347.09"/></g><g id="LINE-75" data-name="LINE"><line class="cls-4" x1="198.44" y1="347.05" x2="213.33" y2="338.45"/></g><g id="LINE-76" data-name="LINE"><line class="cls-4" x1="299.08" y1="288.95" x2="306.27" y2="284.8"/></g><g id="LINE-77" data-name="LINE"><line class="cls-4" x1="418.2" y1="284.84" x2="425.35" y2="288.97"/></g><g id="LINE-78" data-name="LINE"><line class="cls-4" x1="511.08" y1="338.48" x2="525.98" y2="347.09"/></g><g id="LINE-79" data-name="LINE"><line class="cls-4" x1="525.98" y1="347.09" x2="525.98" y2="364.28"/></g><g id="LINE-80" data-name="LINE"><line class="cls-4" x1="198.44" y1="347.09" x2="198.44" y2="364.24"/></g><g id="LINE-81" data-name="LINE"><line class="cls-4" x1="525.93" y1="118.54" x2="525.93" y2="135.73"/><line class="cls-4" x1="525.93" y1="118.54" x2="525.93" y2="135.73"/><line class="cls-4" x1="525.93" y1="118.54" x2="525.93" y2="118.54"/><line class="cls-4" x1="525.93" y1="135.73" x2="525.93" y2="135.73"/></g><g id="LINE-82" data-name="LINE"><line class="cls-4" x1="525.93" y1="135.73" x2="401.99" y2="207.29"/><line class="cls-4" x1="525.93" y1="135.73" x2="401.99" y2="207.29"/><line class="cls-4" x1="525.93" y1="135.73" x2="525.93" y2="135.73"/></g><g id="LINE-83" data-name="LINE"><line class="cls-4" x1="320.93" y1="189.3" x2="198.38" y2="118.54"/><line class="cls-4" x1="320.93" y1="189.3" x2="198.38" y2="118.54"/><line class="cls-4" x1="198.38" y1="118.54" x2="198.38" y2="118.54"/></g><g id="LINE-84" data-name="LINE"><line class="cls-4" x1="320.93" y1="206.47" x2="198.38" y2="135.69"/><line class="cls-4" x1="320.93" y1="206.47" x2="198.38" y2="135.69"/><line class="cls-4" x1="198.38" y1="135.69" x2="198.38" y2="135.69"/></g><g id="LINE-85" data-name="LINE"><line class="cls-4" x1="525.93" y1="118.54" x2="401.99" y2="190.1"/></g><g id="LINE-86" data-name="LINE"><line class="cls-4" x1="525.93" y1="118.54" x2="401.99" y2="190.1"/></g><g id="LINE-87" data-name="LINE"><line class="cls-4" x1="525.93" y1="118.54" x2="401.99" y2="190.1"/></g><g id="LINE-88" data-name="LINE"><polyline class="cls-4" points="198.38 135.7 198.38 135.69 198.38 118.54 198.38 118.51"/></g><g id="LINE-89" data-name="LINE"><polyline class="cls-4" points="198.38 118.51 291.48 64.76 291.49 64.76 306.36 56.17 362.16 23.95"/></g><g id="LINE-90" data-name="LINE"><line class="cls-4" x1="525.93" y1="118.54" x2="471.83" y2="87.29"/><line class="cls-4" x1="408.81" y1="50.89" x2="362.16" y2="23.95"/></g><g id="LINE-91" data-name="LINE"><line class="cls-4" x1="291.4" y1="271.14" x2="279.82" y2="277.83"/><line class="cls-4" x1="291.4" y1="271.14" x2="279.82" y2="277.83"/><line class="cls-4" x1="291.4" y1="271.14" x2="291.4" y2="271.14"/><line class="cls-4" x1="279.82" y1="277.83" x2="279.82" y2="277.83"/></g><g id="LINE-92" data-name="LINE"><line class="cls-4" x1="198.48" y1="324.79" x2="164.27" y2="344.54"/><line class="cls-4" x1="198.48" y1="324.79" x2="164.27" y2="344.54"/><line class="cls-4" x1="198.48" y1="324.79" x2="198.48" y2="324.79"/><line class="cls-4" x1="164.27" y1="344.54" x2="164.27" y2="344.54"/></g><g id="LINE-93" data-name="LINE"><line class="cls-4" x1="164.27" y1="327.35" x2="0.5" y2="232.79"/><line class="cls-4" x1="164.27" y1="327.35" x2="0.5" y2="232.79"/><line class="cls-4" x1="164.27" y1="327.35" x2="164.27" y2="327.35"/><line class="cls-4" x1="0.5" y1="232.79" x2="0.5" y2="232.79"/></g><g id="LINE-94" data-name="LINE"><line class="cls-4" x1="0.5" y1="249.94" x2="164.27" y2="344.54"/><line class="cls-4" x1="0.5" y1="249.94" x2="164.27" y2="344.54"/><line class="cls-4" x1="0.5" y1="249.94" x2="0.5" y2="249.94"/><line class="cls-4" x1="164.27" y1="344.54" x2="164.27" y2="344.54"/></g><g id="LINE-95" data-name="LINE"><line class="cls-4" x1="164.27" y1="327.35" x2="164.27" y2="344.54"/></g><g id="LINE-96" data-name="LINE"><polyline class="cls-4" points="320.93 236.9 301.8 247.95 279.84 260.62 251.5 276.99 237.32 285.17 208.98 301.54 164.27 327.35"/></g><g id="LINE-97" data-name="LINE"><polyline class="cls-4" points="320.93 236.9 301.8 247.95 279.84 260.62 251.5 276.99 237.32 285.17 208.98 301.54 164.27 327.35"/></g><g id="LINE-98" data-name="LINE"><polyline class="cls-4" points="320.93 236.9 301.8 247.95 279.84 260.62 251.5 276.99 237.32 285.17 208.98 301.54 164.27 327.35"/></g><g id="LINE-99" data-name="LINE"><line class="cls-4" x1="0.5" y1="232.76" x2="135.96" y2="154.55"/></g><g id="LINE-100" data-name="LINE"><line class="cls-4" x1="0.5" y1="232.79" x2="0.5" y2="249.94"/></g><g id="LINE-101" data-name="LINE"><polyline class="cls-4" points="320.93 228.68 317.55 226.73 192.59 154.55"/></g><g id="LWPOLYLINE-53" data-name="LWPOLYLINE"><polyline class="cls-4" points="291.36 383.51 362.21 424.44 433.07 383.53"/></g><g id="LWPOLYLINE-54" data-name="LWPOLYLINE"><polyline class="cls-4" points="362.22 325.42 291.36 366.33 362.21 407.25 433.07 366.35 362.22 325.42"/></g><g id="LINE-102" data-name="LINE"><line class="cls-4" x1="362.21" y1="407.24" x2="362.21" y2="424.44"/></g><g id="LWPOLYLINE-55" data-name="LWPOLYLINE"><polyline class="cls-4" points="269.34 271.77 198.48 312.68 269.33 353.61 340.19 312.7 269.34 271.77"/></g><g id="LWPOLYLINE-56" data-name="LWPOLYLINE"><polyline class="cls-4" points="291.4 276.21 362.25 317.14 433.11 276.23"/></g><g id="LWPOLYLINE-57" data-name="LWPOLYLINE"><polyline class="cls-4" points="320.93 241.98 306.2 250.49 291.4 259.03 362.25 299.96 433.11 259.05 418.21 250.44 396.32 237.79 385.4 231.49"/></g><g id="LINE-103" data-name="LINE"><line class="cls-4" x1="362.25" y1="299.94" x2="362.25" y2="317.14"/></g><g id="LINE-104" data-name="LINE"><line class="cls-4" x1="433.11" y1="259.05" x2="433.11" y2="276.23"/></g><g id="LINE-105" data-name="LINE"><line class="cls-4" x1="291.4" y1="259.03" x2="291.4" y2="276.21"/></g><g id="LWPOLYLINE-58" data-name="LWPOLYLINE"><polyline class="cls-4" points="198.48 329.88 269.33 370.8 340.19 329.89"/></g><g id="LINE-106" data-name="LINE"><line class="cls-4" x1="269.33" y1="353.61" x2="269.33" y2="370.8"/></g><g id="LINE-107" data-name="LINE"><line class="cls-4" x1="340.19" y1="312.7" x2="340.19" y2="329.89"/></g><g id="LINE-108" data-name="LINE"><line class="cls-4" x1="198.48" y1="312.68" x2="198.48" y2="329.88"/></g><g id="LINE-109" data-name="LINE"><line class="cls-4" x1="291.36" y1="366.33" x2="291.36" y2="383.51"/></g><g id="LINE-110" data-name="LINE"><line class="cls-4" x1="433.07" y1="366.35" x2="433.07" y2="383.53"/></g><g id="LWPOLYLINE-59" data-name="LWPOLYLINE"><line class="cls-4" x1="574.27" y1="252.1" x2="574.27" y2="268.46"/></g><g id="LWPOLYLINE-60" data-name="LWPOLYLINE"><polyline class="cls-4" points="588.43 277.45 602.61 285.64 630.95 269.28 630.95 252.1 602.61 235.73 574.27 252.1 602.61 268.47 630.95 252.1"/></g><g id="LWPOLYLINE-61" data-name="LWPOLYLINE"><line class="cls-4" x1="602.61" y1="268.47" x2="602.61" y2="285.64"/></g><g id="LWPOLYLINE-62" data-name="LWPOLYLINE"><polyline class="cls-4" points="531.75 276.64 531.75 293.82 560.09 310.19 588.43 293.82 588.43 276.65 560.1 260.28 531.75 276.64 560.09 293.01 588.43 276.65"/></g><g id="LWPOLYLINE-63" data-name="LWPOLYLINE"><line class="cls-4" x1="560.09" y1="293.01" x2="560.09" y2="310.19"/></g><g id="LWPOLYLINE-64" data-name="LWPOLYLINE"><polyline class="cls-4" points="489.24 252.09 489.24 269.26 517.58 285.63 531.75 277.45"/></g><g id="LWPOLYLINE-65" data-name="LWPOLYLINE"><polyline class="cls-4" points="545.92 268.46 545.92 252.09 517.59 235.72 489.24 252.09 517.58 268.46 545.92 252.09"/></g><g id="LWPOLYLINE-66" data-name="LWPOLYLINE"><line class="cls-4" x1="517.58" y1="268.46" x2="517.58" y2="285.63"/></g><g id="LWPOLYLINE-67" data-name="LWPOLYLINE"><line class="cls-4" x1="531.76" y1="227.54" x2="531.76" y2="243.91"/></g><g id="LWPOLYLINE-68" data-name="LWPOLYLINE"><line class="cls-4" x1="545.93" y1="252.9" x2="559.4" y2="260.68"/></g><g id="LWPOLYLINE-69" data-name="LWPOLYLINE"><line class="cls-4" x1="560.79" y1="260.68" x2="574.27" y2="252.9"/></g><g id="LWPOLYLINE-70" data-name="LWPOLYLINE"><polyline class="cls-4" points="588.44 243.91 588.44 227.55 560.1 211.18 531.76 227.54 560.1 243.91 588.44 227.55"/></g><g id="LWPOLYLINE-71" data-name="LWPOLYLINE"><line class="cls-4" x1="560.1" y1="243.91" x2="560.1" y2="260.28"/></g><g id="LWPOLYLINE-72" data-name="LWPOLYLINE"><line class="cls-4" x1="376.33" y1="137.8" x2="376.33" y2="154.17"/></g><g id="LWPOLYLINE-73" data-name="LWPOLYLINE"><polyline class="cls-4" points="433.01 137.81 404.67 154.17 401.99 152.62"/><polyline class="cls-4" points="390.75 146.13 376.33 137.8 390.5 129.62 404.67 121.44 433.01 137.81 433.01 154.98 404.67 171.34 401.99 169.79"/></g><g id="LWPOLYLINE-74" data-name="LWPOLYLINE"><line class="cls-4" x1="404.67" y1="154.17" x2="404.67" y2="171.34"/></g><g id="LWPOLYLINE-75" data-name="LWPOLYLINE"><polyline class="cls-4" points="376.58 154.31 376.33 154.17 362.86 146.39 362.16 145.98 361.46 146.39 347.99 154.16 333.82 162.35 348.25 170.69"/><polyline class="cls-4" points="333.82 162.35 333.82 163.15 333.82 179.03"/></g><g id="LWPOLYLINE-76" data-name="LWPOLYLINE"><polyline class="cls-4" points="291.31 137.79 291.31 154.97 319.65 171.34 333.82 163.15"/></g><g id="LWPOLYLINE-77" data-name="LWPOLYLINE"><polyline class="cls-4" points="347.99 154.16 347.99 137.8 319.65 121.43 291.31 137.79 319.65 154.16 347.99 137.8"/></g><g id="LWPOLYLINE-78" data-name="LWPOLYLINE"><line class="cls-4" x1="319.65" y1="154.16" x2="319.65" y2="171.33"/></g><g id="LWPOLYLINE-79" data-name="LWPOLYLINE"><line class="cls-4" x1="333.82" y1="113.25" x2="333.82" y2="129.61"/></g><g id="LWPOLYLINE-80" data-name="LWPOLYLINE"><line class="cls-4" x1="347.99" y1="138.6" x2="361.46" y2="146.39"/></g><g id="LWPOLYLINE-81" data-name="LWPOLYLINE"><line class="cls-4" x1="362.86" y1="146.39" x2="376.33" y2="138.61"/></g><g id="LWPOLYLINE-82" data-name="LWPOLYLINE"><polyline class="cls-4" points="390.5 129.62 390.5 113.25 362.16 96.88 333.82 113.25 362.16 129.62 390.5 113.25"/></g><g id="LWPOLYLINE-83" data-name="LWPOLYLINE"><line class="cls-4" x1="362.16" y1="129.62" x2="362.16" y2="145.98"/></g><g id="LWPOLYLINE-84" data-name="LWPOLYLINE"><line class="cls-4" x1="178.45" y1="252.05" x2="178.45" y2="268.42"/></g><g id="LWPOLYLINE-85" data-name="LWPOLYLINE"><polyline class="cls-4" points="192.62 277.41 206.79 285.6 235.13 269.23 235.13 252.06 206.79 235.69 178.45 252.05 206.79 268.42 235.13 252.06"/></g><g id="LWPOLYLINE-86" data-name="LWPOLYLINE"><line class="cls-4" x1="206.79" y1="268.42" x2="206.79" y2="285.59"/></g><g id="LWPOLYLINE-87" data-name="LWPOLYLINE"><polyline class="cls-4" points="135.93 276.6 135.93 293.77 164.27 310.14 192.62 293.78 192.62 276.6 164.28 260.23 135.93 276.6 164.27 292.97 192.62 276.6"/></g><g id="LWPOLYLINE-88" data-name="LWPOLYLINE"><line class="cls-4" x1="164.27" y1="292.97" x2="164.27" y2="310.14"/></g><g id="LWPOLYLINE-89" data-name="LWPOLYLINE"><polyline class="cls-4" points="93.42 252.04 93.42 269.21 121.76 285.58 135.93 277.4"/></g><g id="LWPOLYLINE-90" data-name="LWPOLYLINE"><polyline class="cls-4" points="150.11 268.41 150.11 252.05 121.77 235.68 93.42 252.04 121.76 268.41 150.11 252.05"/></g><g id="LWPOLYLINE-91" data-name="LWPOLYLINE"><line class="cls-4" x1="121.76" y1="268.41" x2="121.76" y2="285.59"/></g><g id="LWPOLYLINE-92" data-name="LWPOLYLINE"><line class="cls-4" x1="135.94" y1="227.5" x2="135.94" y2="243.86"/></g><g id="LWPOLYLINE-93" data-name="LWPOLYLINE"><line class="cls-4" x1="150.11" y1="252.85" x2="163.58" y2="260.64"/></g><g id="LWPOLYLINE-94" data-name="LWPOLYLINE"><line class="cls-4" x1="164.98" y1="260.64" x2="178.45" y2="252.86"/></g><g id="LWPOLYLINE-95" data-name="LWPOLYLINE"><polyline class="cls-4" points="192.62 243.87 192.62 227.5 164.28 211.13 135.94 227.5 164.28 243.87 192.62 227.5"/></g><g id="LWPOLYLINE-96" data-name="LWPOLYLINE"><line class="cls-4" x1="164.28" y1="243.87" x2="164.28" y2="260.23"/></g><g id="LWPOLYLINE-97" data-name="LWPOLYLINE"><polyline class="cls-4" points="135.93 137.36 135.93 154.53 164.27 170.9 192.61 154.54 192.61 137.37 164.28 121 135.93 137.36 164.27 153.73 192.61 137.37"/></g><g id="LWPOLYLINE-98" data-name="LWPOLYLINE"><line class="cls-4" x1="164.27" y1="153.73" x2="164.27" y2="170.9"/></g><path class="cls-4" d="M645.33,178.16c0-3.92,8.16-11.9,17.54-17.42s17.54-7.13,17.54-3.21-8.16,11.9-17.54,17.42S645.33,182.08,645.33,178.16ZM662.87,198q.9-.53,1.77-1.08a22.92,22.92,0,0,1,2.36-9c-1.47,1-2.88,1.9-4.13,2.63-5.27,3.1-13.31,6.76-17.54,5.72v5C645.33,205.17,653.49,203.54,662.87,198Zm0-11.53c9.38-5.52,17.54-13.5,17.54-17.42v-5c-4.24,6-12.29,11.82-17.54,14.91s-13.31,6.76-17.54,5.72v5C645.33,193.63,653.49,192,662.87,186.5Zm2.2,14.25c-.77.49-1.51.95-2.2,1.35-5.25,3.09-13.3,6.77-17.54,5.72v5c0,3.92,8.16,2.3,17.54-3.21a70.32,70.32,0,0,0,6.45-4.32A6.07,6.07,0,0,1,665.07,200.75ZM683.92,186a17.73,17.73,0,0,1-7.89,13.8c-4.36,2.56-7.9.54-7.9-4.52a17.71,17.71,0,0,1,7.9-13.8C680.38,179,683.92,181,683.92,186Z"/><path class="cls-4" d="M676,186.09v9.27"/><path class="cls-4" d="M680,188.38l-8,4.7"/><path class="cls-4" d="M473,45.66,437.3,66.29c-3.51,2-6.36,6.53-6.36,10S433.79,81,437.3,79l23.78-13.75a14.15,14.15,0,0,1,5.65-6.7,7.79,7.79,0,0,1,1.58-.71l.93-1a8.52,8.52,0,0,1,.2-.84,1.07,1.07,0,0,1-1.38-1.17,4.39,4.39,0,0,1,2.1-3.33,1.5,1.5,0,0,1,1.72-.1,13,13,0,0,1,3.59-3.19,5.86,5.86,0,0,1,3.76-.94C478.71,44.61,476.1,43.85,473,45.66ZM444.4,70.19l-5.78,3.34c-.91.53-1.65.22-1.65-.69a3.45,3.45,0,0,1,1.65-2.61l5.78-3.34c.91-.53,1.65-.22,1.65.69A3.45,3.45,0,0,1,444.4,70.19Z"/><path class="cls-4" d="M469.82,70.77c-.76.31-1.38.14-1.64-.42h-.1a10.19,10.19,0,0,1-1.35.93c-3.52,2-6.37.83-6.37-2.68a5.87,5.87,0,0,1,.05-.83L437.3,81.15c-3.51,2-6.36,6.53-6.36,10s2.85,4.71,6.36,2.68L473,73.23a12.21,12.21,0,0,0,2.32-1.79C472.89,72.68,470.76,72.39,469.82,70.77ZM444.4,85.05l-5.78,3.34c-.91.53-1.65.21-1.65-.7a3.41,3.41,0,0,1,1.65-2.6l5.78-3.34c.91-.53,1.65-.22,1.65.69A3.45,3.45,0,0,1,444.4,85.05Z"/><path class="cls-4" d="M437.3,64.14,473,43.51c3.5-2,6.36-6.53,6.36-10s-2.86-4.71-6.36-2.68L437.3,51.43c-3.51,2-6.36,6.53-6.36,10S433.79,66.17,437.3,64.14Zm32.86-27.46c1.16-.68,2.11-.28,2.11.88a4.38,4.38,0,0,1-2.11,3.32c-1.16.68-2.1.28-2.1-.88A4.37,4.37,0,0,1,470.16,36.68ZM438.62,55.37,444.4,52c.91-.53,1.65-.21,1.65.7a3.43,3.43,0,0,1-1.65,2.6l-5.78,3.34c-.91.53-1.65.22-1.65-.69A3.45,3.45,0,0,1,438.62,55.37Z"/><path class="cls-4" d="M475.62,61.82a6.8,6.8,0,0,0-2.4,2.56l-3.8.38a4.5,4.5,0,0,0,.34-1.59,2.17,2.17,0,0,0-.28-1.11l3.82-4a2.48,2.48,0,0,0,2.12-.37,6.35,6.35,0,0,0,3.07-4.84c0-1.69-1.37-2.27-3.07-1.29a6.39,6.39,0,0,0-3.07,4.84,2.27,2.27,0,0,0,.11.72l-4.1,4.28a2.91,2.91,0,0,0-1.67.47,6.36,6.36,0,0,0-3.07,4.84c0,1.69,1.37,2.27,3.07,1.29a6,6,0,0,0,1.53-1.3l4.36-.43c0,.13,0,.26,0,.39,0,1.69,1.37,2.27,3.06,1.29a6.36,6.36,0,0,0,3.07-4.84C478.69,61.42,477.32,60.84,475.62,61.82Z"/><path class="cls-4" d="M358.9,217.25l5.59-12.65c-2.64-.1-4.4-2-4.4-5.27,0-5,4-11.18,9-13.92s9-1,9,4a11.47,11.47,0,0,1-.39,2.84"/><path class="cls-4" d="M360.93,219.56a8.14,8.14,0,0,1-4.05,6.29c-2.23,1.24-4.05.43-4.05-1.8a8.16,8.16,0,0,1,4.05-6.29,4.2,4.2,0,0,1,2.05-.58C360.13,217.22,360.93,218.08,360.93,219.56Z"/><path class="cls-4" d="M377.12,210.19,366,216.4c0,3.06-1.57,6.91-4.39,10.15-4.26,4.88-9.77,6.52-12.3,3.67s-1.12-9.13,3.14-14a18.85,18.85,0,0,1,2.47-2.37"/><path class="cls-4" d="M379.06,205.62c1.92-2.2,4.4-3,5.55-1.66s.5,4.12-1.42,6.33-4.41,2.94-5.55,1.65a2.55,2.55,0,0,1-.57-1.72A7.37,7.37,0,0,1,379.06,205.62Z"/><path class="cls-4" d="M371.3,196.74l6,6c2.59-3.07,5.95-5.21,8.88-5.34,4.42-.21,6.18,4.21,3.93,9.86s-7.64,10.4-12.06,10.6a5.17,5.17,0,0,1-2.17-.33"/><path class="cls-4" d="M367.3,199.2c-2,.09-2.79-1.9-1.77-4.45S369,190.05,371,190s2.79,1.9,1.78,4.45a8.83,8.83,0,0,1-1.42,2.36A6.19,6.19,0,0,1,367.3,199.2Z"/><g id="LWPOLYLINE-99" data-name="LWPOLYLINE"><polygon class="cls-4" points="629.2 169.61 629.2 239.62 629.19 239.62 626.1 237.7 618.99 233.27 618.99 163.27 629.19 169.62 629.2 169.61"/><line class="cls-4" x1="659.76" y1="221.98" x2="668.03" y2="227.13"/></g><g id="LWPOLYLINE-100" data-name="LWPOLYLINE"><polygon class="cls-4" points="700.05 128.68 700.05 128.71 695.46 131.36 667.74 147.36 652.87 155.95 633.67 167.03 629.42 169.48 629.2 169.61 629.19 169.62 618.99 163.27 623.08 160.91 642.26 149.83 657.08 141.26 684.84 125.22 689.85 122.33 700.05 128.68"/></g><polygon class="cls-4" points="700.05 128.71 700.05 198.71 694.29 202.04 685.15 207.31 682.41 208.89 678.22 211.31 673.74 213.9 673.26 214.18 673.25 214.18 668.03 227.12 662.22 220.56 662.21 220.55 659.76 221.97 629.2 239.61 629.2 169.61 629.42 169.48 633.67 167.03 652.87 155.95 667.74 147.36 695.46 131.36 700.05 128.71"/><g id="LWPOLYLINE-101" data-name="LWPOLYLINE"><polygon class="cls-4" points="331.14 192.81 331.14 262.82 331.13 262.82 320.93 256.47 320.93 186.47 331.13 192.82 331.14 192.81"/><line class="cls-4" x1="361.7" y1="245.18" x2="369.97" y2="250.33"/></g><g id="LWPOLYLINE-102" data-name="LWPOLYLINE"><polygon class="cls-4" points="401.99 151.88 401.99 151.91 401.37 152.27 397.4 154.56 387.2 160.45 369.68 170.56 358.86 176.81 354.81 179.15 343.99 185.39 335.61 190.23 331.36 192.68 331.14 192.81 331.13 192.82 320.93 186.47 325.02 184.11 333.82 179.03 344.2 173.03 348.25 170.69 359.02 164.46 376.58 154.31 386.78 148.42 390.75 146.13 391.79 145.53 401.99 151.88"/></g><path class="cls-4" d="M402,152.62v-.71"/><polygon class="cls-4" points="401.99 152.62 401.99 221.91 400.2 222.95 396.23 225.24 387.09 230.51 385.4 231.49 380.16 234.51 375.68 237.1 375.2 237.38 375.19 237.38 369.97 250.32 364.16 243.76 364.15 243.75 361.7 245.17 331.14 262.81 331.14 192.81 331.36 192.68 335.61 190.23 343.99 185.39 354.81 179.15 358.86 176.81 369.68 170.56 387.2 160.45 397.4 154.56 401.37 152.27 401.99 152.62"/><g id="LWPOLYLINE-103" data-name="LWPOLYLINE"><polyline class="cls-4" points="419.02 56.79 419.02 117.79 419.01 117.79 408.81 111.44 408.81 41.44 419.01 47.79 419.02 47.78"/><line class="cls-4" x1="449.58" y1="100.15" x2="457.85" y2="105.3"/></g><g id="LWPOLYLINE-104" data-name="LWPOLYLINE"><polygon class="cls-4" points="489.87 6.85 489.87 6.88 485.28 9.53 457.56 25.53 442.69 34.12 426.27 43.6 423.49 45.2 419.24 47.65 419.02 47.78 419.01 47.79 408.81 41.44 412.9 39.08 415.68 37.48 432.08 28 446.9 19.43 474.66 3.39 479.67 0.5 489.87 6.85"/></g><polygon class="cls-4" points="489.87 6.88 489.87 76.88 484.11 80.21 474.97 85.48 471.83 87.29 468.04 89.48 463.56 92.07 463.08 92.35 463.07 92.35 457.85 105.29 452.04 98.73 452.03 98.72 449.58 100.14 419.02 117.78 419.02 47.78 419.24 47.65 423.49 45.2 426.27 43.6 442.69 34.12 457.56 25.53 485.28 9.53 489.87 6.88"/></g><g id="dash_l"><g id="LINE-111" data-name="LINE"><line class="cls-1" x1="560.09" y1="275.81" x2="560.09" y2="279.81"/><line class="cls-1" x1="560.09" y1="289.01" x2="560.09" y2="293.01"/></g><g id="LWPOLYLINE-105" data-name="LWPOLYLINE"><line class="cls-1" x1="291.3" y1="64.65" x2="294.76" y2="66.66"/><line class="cls-5" x1="300.22" y1="69.81" x2="348.42" y2="97.68"/><line class="cls-1" x1="351.15" y1="99.25" x2="354.61" y2="101.25"/></g><g id="LWPOLYLINE-106" data-name="LWPOLYLINE"><line class="cls-1" x1="408.81" y1="61.46" x2="405.35" y2="63.46"/><line class="cls-6" x1="400.38" y1="66.33" x2="368.1" y2="84.97"/><polyline class="cls-1" points="365.61 86.4 362.15 88.4 358.69 86.4"/><polyline class="cls-7" points="353.64 83.48 306.36 56.17 297.29 50.93"/><polyline class="cls-1" points="294.76 49.47 291.3 47.47 294.76 45.47"/><line class="cls-8" x1="299.81" y1="42.56" x2="356.17" y2="10.02"/><polyline class="cls-1" points="358.69 8.56 362.16 6.56 365.62 8.56"/><line class="cls-9" x1="371.45" y1="11.93" x2="409.3" y2="33.8"/><line class="cls-1" x1="412.22" y1="35.48" x2="415.68" y2="37.48"/></g><g id="LWPOLYLINE-107" data-name="LWPOLYLINE"><line class="cls-1" x1="408.81" y1="78.25" x2="405.32" y2="80.21"/><line class="cls-10" x1="399.49" y1="83.48" x2="375.2" y2="97.12"/><line class="cls-1" x1="372.29" y1="98.75" x2="368.8" y2="100.71"/></g><g id="LINE-112" data-name="LINE"><line class="cls-1" x1="291.3" y1="47.47" x2="291.3" y2="51.47"/><line class="cls-1" x1="291.3" y1="60.65" x2="291.3" y2="64.65"/></g><g id="LINE-113" data-name="LINE"><line class="cls-1" x1="362.15" y1="88.4" x2="362.15" y2="92.4"/><line class="cls-1" x1="362.15" y1="92.99" x2="362.15" y2="96.99"/></g><g id="LINE-114" data-name="LINE"><line class="cls-1" x1="362.16" y1="6.56" x2="362.16" y2="10.56"/><line class="cls-1" x1="362.16" y1="19.74" x2="362.16" y2="23.74"/></g><g id="LWPOLYLINE-108" data-name="LWPOLYLINE"><line class="cls-1" x1="626.1" y1="237.7" x2="622.64" y2="239.7"/><polyline class="cls-11" points="616.92 243 616.06 243.5 587.71 259.86 574.27 267.62 573.54 268.05 566.41 272.16"/><polyline class="cls-1" points="563.55 273.81 560.09 275.81 556.63 273.81"/><polyline class="cls-12" points="551.58 270.89 546.65 268.04 545.93 267.63 532.48 259.86 504.14 243.49 495.23 238.34"/><polyline class="cls-1" points="492.7 236.88 489.24 234.88 492.7 232.88"/><line class="cls-8" x1="497.75" y1="229.97" x2="554.11" y2="197.43"/><polyline class="cls-1" points="556.63 195.97 560.1 193.97 563.56 195.97"/><line class="cls-13" x1="568.59" y1="198.88" x2="613.01" y2="224.54"/><line class="cls-1" x1="615.53" y1="225.99" x2="618.99" y2="227.99"/></g><g id="LWPOLYLINE-109" data-name="LWPOLYLINE"><line class="cls-1" x1="269.34" y1="254.56" x2="265.88" y2="256.56"/><line class="cls-14" x1="259.45" y1="260.27" x2="247.67" y2="267.07"/><polyline class="cls-1" points="244.46 268.92 241 270.92 244.46 272.92"/><line class="cls-14" x1="250.88" y1="276.64" x2="262.66" y2="283.44"/><polyline class="cls-1" points="265.87 285.29 269.34 287.29 272.8 285.29"/><line class="cls-14" x1="279.23" y1="281.58" x2="291" y2="274.78"/><polyline class="cls-1" points="294.22 272.93 297.68 270.93 294.22 268.93"/><line class="cls-14" x1="287.79" y1="265.22" x2="276.02" y2="258.42"/><line class="cls-1" x1="272.8" y1="256.56" x2="269.34" y2="254.56"/></g><g id="LWPOLYLINE-110" data-name="LWPOLYLINE"><line class="cls-1" x1="226.83" y1="279.11" x2="223.36" y2="281.11"/><line class="cls-14" x1="216.94" y1="284.81" x2="205.16" y2="291.61"/><polyline class="cls-1" points="201.95 293.47 198.48 295.47 201.95 297.47"/><line class="cls-14" x1="208.37" y1="301.18" x2="220.15" y2="307.98"/><polyline class="cls-1" points="223.36 309.84 226.82 311.84 230.29 309.84"/><line class="cls-14" x1="236.71" y1="306.13" x2="248.49" y2="299.33"/><polyline class="cls-1" points="251.7 297.48 255.16 295.48 251.7 293.48"/><line class="cls-14" x1="245.28" y1="289.76" x2="233.5" y2="282.96"/><line class="cls-1" x1="230.29" y1="281.11" x2="226.83" y2="279.11"/></g><g id="LWPOLYLINE-111" data-name="LWPOLYLINE"><line class="cls-1" x1="311.85" y1="279.12" x2="308.39" y2="281.12"/><line class="cls-14" x1="301.96" y1="284.82" x2="290.18" y2="291.62"/><polyline class="cls-1" points="286.97 293.48 283.51 295.48 286.97 297.48"/><line class="cls-14" x1="293.39" y1="301.19" x2="305.17" y2="307.99"/><polyline class="cls-1" points="308.38 309.85 311.85 311.85 315.31 309.85"/><line class="cls-14" x1="321.73" y1="306.14" x2="333.51" y2="299.34"/><polyline class="cls-1" points="336.73 297.49 340.19 295.49 336.73 293.48"/><line class="cls-14" x1="330.3" y1="289.77" x2="318.53" y2="282.97"/><line class="cls-1" x1="315.31" y1="281.12" x2="311.85" y2="279.12"/></g><g id="LWPOLYLINE-112" data-name="LWPOLYLINE"><line class="cls-1" x1="269.34" y1="303.66" x2="265.87" y2="305.66"/><line class="cls-14" x1="259.45" y1="309.37" x2="247.67" y2="316.17"/><polyline class="cls-1" points="244.46 318.02 240.99 320.02 244.46 322.02"/><line class="cls-14" x1="250.88" y1="325.74" x2="262.66" y2="332.54"/><polyline class="cls-1" points="265.87 334.39 269.33 336.39 272.8 334.39"/><line class="cls-14" x1="279.22" y1="330.69" x2="291" y2="323.89"/><polyline class="cls-1" points="294.21 322.03 297.68 320.03 294.21 318.03"/><line class="cls-14" x1="287.79" y1="314.32" x2="276.01" y2="307.52"/><line class="cls-1" x1="272.8" y1="305.66" x2="269.34" y2="303.66"/></g><g id="LWPOLYLINE-113" data-name="LWPOLYLINE"><line class="cls-1" x1="43.01" y1="222.93" x2="43.01" y2="226.93"/><polyline class="cls-1" points="43.01 236.1 43.01 240.1 46.47 242.1"/><line class="cls-14" x1="52.9" y1="245.82" x2="64.67" y2="252.62"/><polyline class="cls-1" points="67.89 254.47 71.35 256.47 74.81 254.47"/><line class="cls-14" x1="81.24" y1="250.77" x2="93.02" y2="243.97"/><polyline class="cls-1" points="96.23 242.11 99.69 240.11 99.69 236.11"/><polyline class="cls-1" points="99.69 226.94 99.69 222.94 96.23 220.94"/><line class="cls-14" x1="89.8" y1="217.23" x2="78.03" y2="210.42"/><polyline class="cls-1" points="74.82 208.57 71.35 206.57 67.89 208.57"/><line class="cls-14" x1="61.46" y1="212.28" x2="49.69" y2="219.08"/><polyline class="cls-1" points="46.47 220.93 43.01 222.93 46.47 224.93"/><line class="cls-14" x1="52.9" y1="228.64" x2="64.67" y2="235.45"/><polyline class="cls-1" points="67.89 237.3 71.35 239.3 74.81 237.3"/><line class="cls-14" x1="81.24" y1="233.59" x2="93.02" y2="226.79"/><line class="cls-1" x1="96.23" y1="224.94" x2="99.69" y2="222.94"/></g><g id="LWPOLYLINE-114" data-name="LWPOLYLINE"><line class="cls-1" x1="71.35" y1="239.3" x2="71.35" y2="243.3"/><line class="cls-1" x1="71.35" y1="252.47" x2="71.35" y2="256.47"/></g><g id="LWPOLYLINE-115" data-name="LWPOLYLINE"><line class="cls-1" x1="0.5" y1="198.38" x2="0.5" y2="202.38"/><polyline class="cls-1" points="0.5 211.55 0.5 215.55 3.96 217.55"/><line class="cls-14" x1="10.39" y1="221.26" x2="22.16" y2="228.06"/><polyline class="cls-1" points="25.38 229.92 28.84 231.92 32.3 229.92"/><line class="cls-1" x1="39.55" y1="225.74" x2="43.01" y2="223.74"/></g><g id="LWPOLYLINE-116" data-name="LWPOLYLINE"><line class="cls-1" x1="57.18" y1="214.75" x2="57.18" y2="210.75"/><polyline class="cls-1" points="57.18 202.38 57.18 198.38 53.72 196.38"/><line class="cls-14" x1="47.3" y1="192.67" x2="35.52" y2="185.87"/><polyline class="cls-1" points="32.31 184.01 28.84 182.01 25.38 184.01"/><line class="cls-14" x1="18.95" y1="187.72" x2="7.18" y2="194.52"/><polyline class="cls-1" points="3.96 196.38 0.5 198.38 3.96 200.38"/><line class="cls-14" x1="10.39" y1="204.09" x2="22.16" y2="210.89"/><polyline class="cls-1" points="25.38 212.75 28.84 214.75 32.3 212.75"/><line class="cls-14" x1="38.73" y1="209.04" x2="50.51" y2="202.24"/><line class="cls-1" x1="53.72" y1="200.38" x2="57.18" y2="198.38"/></g><g id="LWPOLYLINE-117" data-name="LWPOLYLINE"><line class="cls-1" x1="28.84" y1="214.75" x2="28.84" y2="218.75"/><line class="cls-1" x1="28.84" y1="227.92" x2="28.84" y2="231.92"/></g><g id="LWPOLYLINE-118" data-name="LWPOLYLINE"><line class="cls-1" x1="43.01" y1="173.83" x2="43.01" y2="177.83"/><line class="cls-1" x1="43.01" y1="186.2" x2="43.01" y2="190.2"/></g><g id="LWPOLYLINE-119" data-name="LWPOLYLINE"><line class="cls-1" x1="57.18" y1="199.19" x2="60.65" y2="201.19"/><line class="cls-1" x1="67.19" y1="204.97" x2="70.66" y2="206.97"/></g><g id="LWPOLYLINE-120" data-name="LWPOLYLINE"><line class="cls-1" x1="72.05" y1="206.97" x2="75.52" y2="204.97"/><line class="cls-15" x1="81.73" y1="201.38" x2="93.13" y2="194.8"/><line class="cls-1" x1="96.23" y1="193.01" x2="99.7" y2="191.01"/></g><g id="LWPOLYLINE-121" data-name="LWPOLYLINE"><line class="cls-1" x1="99.7" y1="191.01" x2="99.7" y2="187.01"/><polyline class="cls-1" points="99.7 177.84 99.7 173.84 96.23 171.84"/><line class="cls-14" x1="89.81" y1="168.13" x2="78.03" y2="161.32"/><polyline class="cls-1" points="74.82 159.47 71.36 157.47 67.89 159.47"/><line class="cls-14" x1="61.47" y1="163.18" x2="49.69" y2="169.98"/><polyline class="cls-1" points="46.48 171.83 43.02 173.83 46.48 175.83"/><line class="cls-14" x1="52.9" y1="179.54" x2="64.68" y2="186.34"/><polyline class="cls-1" points="67.89 188.2 71.35 190.2 74.82 188.2"/><line class="cls-14" x1="81.24" y1="184.49" x2="93.02" y2="177.69"/><line class="cls-1" x1="96.23" y1="175.84" x2="99.7" y2="173.84"/></g><g id="LWPOLYLINE-122" data-name="LWPOLYLINE"><line class="cls-1" x1="71.35" y1="190.2" x2="71.35" y2="194.2"/><line class="cls-1" x1="71.35" y1="202.57" x2="71.35" y2="206.57"/></g><g id="LINE-115" data-name="LINE"><line class="cls-1" x1="0.5" y1="215.55" x2="3.96" y2="213.55"/><line class="cls-14" x1="10.39" y1="209.84" x2="22.17" y2="203.04"/><line class="cls-1" x1="25.38" y1="201.19" x2="28.84" y2="199.19"/></g><g id="LINE-116" data-name="LINE"><line class="cls-1" x1="43.71" y1="190.6" x2="47.18" y2="188.6"/><line class="cls-15" x1="53.39" y1="185.01" x2="64.79" y2="178.43"/><line class="cls-1" x1="67.89" y1="176.64" x2="71.36" y2="174.64"/></g><g id="LINE-117" data-name="LINE"><line class="cls-1" x1="71.36" y1="174.64" x2="74.82" y2="176.64"/><line class="cls-14" x1="81.25" y1="180.35" x2="93.02" y2="187.15"/><line class="cls-1" x1="96.23" y1="189.01" x2="99.7" y2="191.01"/></g><g id="LINE-118" data-name="LINE"><line class="cls-1" x1="71.36" y1="157.47" x2="71.36" y2="161.47"/><line class="cls-1" x1="71.36" y1="170.64" x2="71.36" y2="174.64"/></g><g id="LINE-119" data-name="LINE"><line class="cls-1" x1="71.35" y1="223.74" x2="67.89" y2="225.74"/><line class="cls-16" x1="61.47" y1="229.45" x2="49.69" y2="236.25"/><line class="cls-1" x1="46.47" y1="238.1" x2="43.01" y2="240.1"/></g><g id="LINE-120" data-name="LINE"><line class="cls-1" x1="28.84" y1="182.01" x2="28.84" y2="186.01"/><line class="cls-1" x1="28.84" y1="195.19" x2="28.84" y2="199.19"/></g><g id="LINE-121" data-name="LINE"><line class="cls-1" x1="28.84" y1="199.19" x2="32.31" y2="201.19"/><line class="cls-17" x1="38.52" y1="204.78" x2="49.91" y2="211.36"/><line class="cls-1" x1="53.02" y1="213.15" x2="56.48" y2="215.15"/></g><g id="LINE-122" data-name="LINE"><line class="cls-1" x1="71.35" y1="223.74" x2="74.82" y2="225.74"/><line class="cls-14" x1="81.24" y1="229.45" x2="93.02" y2="236.25"/><line class="cls-1" x1="96.23" y1="238.11" x2="99.69" y2="240.11"/></g><g id="LINE-123" data-name="LINE"><line class="cls-1" x1="71.35" y1="206.57" x2="71.35" y2="210.57"/><line class="cls-1" x1="71.35" y1="219.74" x2="71.35" y2="223.74"/></g><g id="LWPOLYLINE-123" data-name="LWPOLYLINE"><line class="cls-1" x1="93.42" y1="179.11" x2="96.88" y2="181.11"/><line class="cls-18" x1="101.93" y1="184.03" x2="158.28" y2="216.58"/><polyline class="cls-1" points="160.8 218.04 164.27 220.04 167.73 218.04"/><line class="cls-18" x1="172.78" y1="215.12" x2="229.14" y2="182.58"/><line class="cls-1" x1="231.66" y1="181.13" x2="235.12" y2="179.13"/></g><g id="LWPOLYLINE-124" data-name="LWPOLYLINE"><polyline class="cls-1" points="384.28 329.86 455.13 370.79 525.99 329.88"/></g><g id="LWPOLYLINE-125" data-name="LWPOLYLINE"><polyline class="cls-1" points="455.14 271.77 384.28 312.68 455.13 353.61 525.99 312.7 455.14 271.77"/></g><g id="LINE-124" data-name="LINE"><line class="cls-1" x1="455.13" y1="353.59" x2="455.13" y2="370.79"/></g><g id="LINE-125" data-name="LINE"><line class="cls-1" x1="525.99" y1="312.7" x2="525.99" y2="329.88"/></g><g id="LINE-126" data-name="LINE"><line class="cls-1" x1="384.28" y1="312.68" x2="384.28" y2="329.86"/></g></g></g></g></g></svg>