<?xml version="1.0" encoding="utf-8"?>
<!-- Generator: Adobe Illustrator 22.0.1, SVG Export Plug-In . SVG Version: 6.00 Build 0)  -->
<svg version="1.1" id="Warstwa_1" xmlns="http://www.w3.org/2000/svg" xmlns:xlink="http://www.w3.org/1999/xlink" x="0px" y="0px"
	 viewBox="0 0 708 270.1" style="enable-background:new 0 0 708 270.1;" xml:space="preserve">
<style type="text/css">
	.st0{fill:#F4FAFA;}
	.st1{fill:#8EC1F9;}
	.st2{fill:#80BCF5;}
	.st3{fill:#FFFFFF;}
	.st4{fill:#80A6F6;}
	.st5{fill:#78A1E6;}
	.st6{fill:#B0D0FA;}
	.st7{fill:#F62C3F;}
	.st8{fill:#C41D3E;}
	.st9{fill:#FF4864;}
	.st10{fill:#0087FA;}
	.st11{fill:#2FA8FB;}
	.st12{fill:#0080DA;}
	.st13{fill:#343EC1;}
	.st14{fill:#2A2BB4;}
	.st15{fill:#3F50D0;}
	.st16{fill:#B60F2A;}
	.st17{fill:#FF6480;}
	.st18{fill:#E19400;}
	.st19{fill:#FFBB00;}
	.st20{fill:#FFD464;}
	.st21{fill:#FFE09C;}
	.st22{fill:#A2C6FB;}
	.st23{fill:#91BBFF;}
	.st24{fill:#F59D00;}
	.st25{opacity:0.5;}
	.st26{fill:none;}
	.st27{fill:#DFEFFC;}
	.st28{opacity:0.5;fill:#DFEFFC;enable-background:new    ;}
	.st29{fill:#FAB000;}
	.st30{fill:#FFCA57;}
	.st31{fill:#FFCC5D;}
	.st32{fill:#007FFF;}
	.st33{fill:#0064DC;}
	.st34{fill:#005CB4;}
	.st35{fill:#005EB9;}
	.st36{fill:#292B41;}
	.st37{opacity:0.1;fill:#8EC1F9;enable-background:new    ;}
	.st38{opacity:0.48;fill:#DFEFFC;enable-background:new    ;}
	.st39{fill:#B9DBFC;}
	.st40{opacity:0.27;}
	.st41{fill:url(#SVGID_1_);}
	.st42{fill:#007AD0;}
	.st43{opacity:2.000000e-02;enable-background:new    ;}
	.st44{fill:#E9A100;}
	.st45{fill:#FFE7BA;}
	.st46{fill:#F5AE00;}
</style>
<title>ILLUSTRATION_PLATFORM</title>
<g>
	
		<image style="overflow:visible;enable-background:new    ;" width="1018" height="716" xlink:href="CEF2AB26AFF7C286.png"  transform="matrix(0.2397 0 0 0.2397 5.061768e-02 98.47)">
	</image>
	
		<image style="overflow:visible;enable-background:new    ;" width="1017" height="714" xlink:href="CEF2AB26AFF7C281.png"  transform="matrix(0.24 0 0 0.24 231.83 98.56)">
	</image>
	
		<image style="overflow:visible;enable-background:new    ;" width="1018" height="716" xlink:href="CEF2AB26AFF7C280.png"  transform="matrix(0.2397 0 0 0.2397 463.9706 98.47)">
	</image>
	<polygon class="st0" points="439.3,149.3 439.9,149 355.1,98.6 268,147.5 268.4,147.7 353.5,197.9 	"/>
	<g>
		<polygon class="st1" points="121.6,197.9 207.3,149.3 207.3,149.3 121.5,197.9 36.4,147.7 35.8,148 35.8,161 121.4,211.4 
			207.7,162.5 207.7,162.1 121.6,210.9 		"/>
		<polygon class="st0" points="207.3,149.3 207.9,149 123.1,98.6 36,147.5 36.4,147.7 121.5,197.9 		"/>
		<polygon class="st2" points="207.9,155.5 207.9,149 207.3,149.3 121.6,197.9 121.6,210.9 207.7,162.1 207.9,162 207.9,155.5 
			207.9,155.5 		"/>
		<path class="st1" d="M353.6,197.9l85.7-48.5l0,0L353.6,197.9l-85.2-50.2l-0.6,0.2v7.1h0.1c0.3,0,0.5,0.2,0.5,0.5s-0.2,0.5-0.5,0.5
			h-0.1v4.9l85.5,50.4l86.3-48.9v-0.4l-86,48.7V197.9z"/>
		<path class="st1" d="M586.1,197.9l85.7-48.5l0,0L639,167.9l-1,0.5l-0.6,0.3l-1,0.5l-3.6,2l-1,0.5l-4.2,2.4l-0.9,0.5L586.1,197.9
			l-28.3-16.6l-1-0.6l-6-3.5l-0.9-0.6l-4.9-2.9l-1-0.6l-5-2.9l-1-0.6l-37.6-22.2l-0.1,7.6h0.1c0.3,0,0.5,0.2,0.5,0.5
			s-0.2,0.5-0.5,0.5h-0.1l-0.1,4.9l85.5,50.4l86.3-48.9v-0.4l-86,48.7V197.9z"/>
		<polygon class="st0" points="539.1,170.2 544,173.1 545,173.7 549.9,176.6 550.8,177.1 556.9,180.7 557.8,181.2 586,197.9 
			626.9,174.7 627.8,174.2 632,171.9 632.9,171.3 636.5,169.3 637.5,168.8 638.1,168.4 639,167.9 671.8,149.3 672.3,149 
			639.6,129.5 638.9,129.1 638.7,129 633.5,125.9 632.7,125.4 627.8,122.5 626.9,122 620.8,118.4 619.9,117.8 587.6,98.6 
			549.5,119.9 548.6,120.5 546,121.9 545,122.5 542,124.1 541.2,124.6 500.5,147.5 538.1,169.6 		"/>
		<polygon class="st2" points="671.8,149.3 586.1,197.9 586.1,210.9 672.2,162.1 672.4,162 672.4,149 		"/>
		<path class="st3" d="M268.4,155.5c0-0.3-0.2-0.5-0.5-0.5h-0.1h-59.4c-0.3,0-0.5,0.2-0.5,0.5c0,0,0,0,0,0s0,0,0,0
			c0,0.3,0.2,0.5,0.5,0.5h59.4h0.1C268.2,156,268.4,155.8,268.4,155.5z"/>
		<path class="st3" d="M500.9,155.5c0-0.3-0.2-0.5-0.5-0.5h-0.1h-60.4c-0.3,0-0.5,0.2-0.5,0.5s0.2,0.5,0.5,0.5h60.4h0.1
			C500.7,156,500.9,155.8,500.9,155.5z"/>
	</g>
	<polygon class="st2" points="439.9,149 439.3,149.4 353.6,197.9 353.6,210.9 439.7,162.1 439.9,162 	"/>
	<polygon class="st4" points="119.9,128.9 119.9,170.1 157.2,148.9 156.6,106.3 	"/>
	<path class="st5" d="M96.3,110.2l2.8-1.5v-0.6c0-0.4,0.8-0.8,1.7-0.8c0.2,0,0.5,0,0.7,0.1l1.3-0.7l5.7,3.4v2.4l0.7,0.4h0.1
		c1,0,1.7,0.3,1.7,0.8v0.3l0.8,0.5v-12l3.5-1.9v-0.8c0-0.5,1-1,2.2-1c0.3,0,0.6,0,0.9,0.1l1.1-0.6L119.2,85l-36.1,20.6l13.2,8.4
		V110.2z"/>
	<path class="st6" d="M119.9,97.9l7.2,4.3v6.6l0.5-0.3l0.6,0.3c0.3-0.1,0.6-0.1,0.9-0.1c0.8,0,1.4,0.3,1.4,0.6v0.7l2.2,1.2
		c0.2,0,0.4,0,0.6,0c0.8,0,1.4,0.3,1.4,0.6v0.5l2.2,1.2v5l19.8-12.1L119.2,85l0.2,13.1L119.9,97.9z"/>
	<polygon class="st7" points="113.2,122.4 113.2,122.5 113.2,122.4 	"/>
	<path class="st7" d="M114.2,115.7c1,0,1.7,0.3,1.7,0.8v0.3l1.8,1l0,0l0.9-0.5v-0.2c0-0.1,0.1-0.2,0.2-0.2v-10.4l0,0l-7.2-4.1v12
		l2.3,1.3L114.2,115.7z"/>
	<path class="st8" d="M119,106.5L119,106.5L119,106.5v10.4c0.1,0,0.2-0.1,0.3-0.1h0.2l0.4-0.2l0,0l0.9-0.5v-0.2
		c0-0.1,0.3-0.3,0.6-0.3h0.2l0.4-0.2l0,0l0.9-0.5v-0.2c0-0.1,0-0.1,0.1-0.2l-0.1-3.4l4.1-2.4v-6.6L119,106.5z"/>
	<path class="st9" d="M119,106.5l8.2-4.4l-7.2-4.3l-0.5,0.3l-1.1,0.6c-0.3-0.1-0.6-0.1-0.9-0.1c-1.2,0-2.2,0.4-2.2,1s1,1,2.2,1
		s2.2-0.4,2.2-1v1.3c0,0.5-1,1-2.2,1s-2.2-0.4-2.2-1v-0.5l-3.5,1.9L119,106.5L119,106.5z M119,101.9c0,0.5,1,1,2.2,1s2.2-0.4,2.2-1
		v1.3c0,0.5-1,1-2.2,1s-2.2-0.4-2.2-1V101.9z"/>
	<path class="st8" d="M121.2,104.2c1.2,0,2.2-0.4,2.2-1V102c0,0.5-1,1-2.2,1s-2.2-0.4-2.2-1v1.3C119,103.8,120,104.2,121.2,104.2z"
		/>
	<path class="st8" d="M117.4,102c1.2,0,2.2-0.4,2.2-1v-1.3c0,0.5-1,1-2.2,1s-2.2-0.4-2.2-1v1.3C115.3,101.5,116.2,102,117.4,102z"/>
	<polygon class="st10" points="132.3,118.7 132.3,118.7 132.3,121.2 136.8,118.4 136.8,113.5 132.3,116.1 	"/>
	<path class="st11" d="M132.3,116.1l4.6-2.6l-2.2-1.2v0.3c0,0.3-0.6,0.6-1.4,0.6s-1.4-0.3-1.4-0.6v-0.8c0,0.3,0.6,0.6,1.4,0.6
		s1.4-0.3,1.4-0.6s-0.6-0.6-1.4-0.6c-0.2,0-0.4,0-0.6,0l-2.2-1.2v0.1c0,0.3-0.6,0.6-1.4,0.6s-1.4-0.3-1.4-0.6v-0.8
		c0,0.3,0.6,0.6,1.4,0.6s1.4-0.3,1.4-0.6s-0.6-0.6-1.4-0.6c-0.3,0-0.6,0-0.9,0.1l-0.6-0.3l-0.5,0.3l-4.1,2.4L132.3,116.1z
		 M129.5,113.2c0,0.3,0.6,0.6,1.4,0.6s1.4-0.3,1.4-0.6v0.8c0,0.3-0.6,0.6-1.4,0.6s-1.4-0.3-1.4-0.6V113.2z M126.6,111.5
		c0.8,0,1.4-0.3,1.4-0.6v0.8c0,0.3-0.6,0.6-1.4,0.6s-1.4-0.3-1.4-0.6v-0.8C125.3,111.2,125.9,111.5,126.6,111.5z"/>
	<path class="st12" d="M123.8,114.5l0.4-0.2l1.9,1.1l6.2,3.3v-2.6l-9.2-5l0.1,3.4c0.1-0.1,0.3-0.1,0.4-0.1L123.8,114.5z"/>
	<path class="st12" d="M126.6,112.3c0.8,0,1.4-0.3,1.4-0.6v-0.8c0,0.3-0.6,0.6-1.4,0.6s-1.4-0.3-1.4-0.6v0.8
		C125.3,112,125.9,112.3,126.6,112.3z"/>
	<path class="st12" d="M129.1,109.9c-0.8,0-1.4-0.3-1.4-0.6v0.8c0,0.3,0.6,0.6,1.4,0.6s1.4-0.3,1.4-0.6v-0.8
		C130.5,109.6,129.9,109.9,129.1,109.9z"/>
	<path class="st12" d="M130.9,114.7c0.8,0,1.4-0.3,1.4-0.6v-0.8c0,0.3-0.6,0.6-1.4,0.6s-1.4-0.3-1.4-0.6v0.8
		C129.5,114.4,130.1,114.7,130.9,114.7z"/>
	<path class="st12" d="M133.2,112.4c-0.8,0-1.4-0.3-1.4-0.6v0.8c0,0.3,0.6,0.6,1.4,0.6s1.4-0.3,1.4-0.6v-0.8
		C134.6,112.1,134,112.4,133.2,112.4z"/>
	<path class="st13" d="M123.1,116l-1-0.6l0,0L123.1,116L123.1,116z"/>
	<path class="st14" d="M124.7,116.1l1.4-0.8L124.7,116.1L124.7,116.1z"/>
	<path class="st15" d="M123.7,116c0.3,0,0.7,0,1,0.1l1.4-0.7l-1.9-1.1l-0.4,0.2h-0.2c-0.1,0-0.3,0-0.4,0.1c-0.1,0.1-0.1,0.1-0.1,0.2
		s0.2,0.2,0.6,0.2s0.6-0.1,0.6-0.2v0.3c0,0.1-0.3,0.3-0.6,0.3s-0.6-0.1-0.6-0.3V115l-0.9,0.5l1,0.6C123.3,116,123.5,116,123.7,116z
		 M124,115.3c0,0.2,0.2,0.3,0.6,0.3s0.6-0.1,0.6-0.3v0.3c0,0.1-0.3,0.2-0.6,0.2s-0.6-0.1-0.6-0.2V115.3z"/>
	<path class="st14" d="M124.5,115.9c0.3,0,0.6-0.1,0.6-0.2v-0.3c0,0.2-0.3,0.3-0.6,0.3s-0.6-0.1-0.6-0.3v0.3
		C124,115.8,124.2,115.9,124.5,115.9z"/>
	<path class="st14" d="M123.6,115.3c0.3,0,0.6-0.1,0.6-0.3v-0.3c0,0.1-0.3,0.2-0.6,0.2s-0.6-0.1-0.6-0.2v0.3
		C123,115.2,123.2,115.3,123.6,115.3z"/>
	<polygon class="st13" points="121.8,117.7 121.8,117.7 121.8,117.7 119.9,116.6 119.9,116.6 119.9,116.6 	"/>
	<polygon class="st14" points="121.8,117.7 121.8,117.7 121.8,117.7 121.8,117.7 121.8,117.8 121.8,117.7 121.8,117.7 	"/>
	<path class="st15" d="M121.8,117.7L121.8,117.7v-0.8l0,0v-0.3c0,0.1,0,0.1,0.1,0.1c0.3-0.4,0.7-0.6,1.2-0.6l-1-0.6l0,0l-0.4,0.2
		h-0.2c-0.3,0-0.6,0.1-0.6,0.3s0.3,0.2,0.6,0.2s0.6-0.1,0.6-0.2v0.3c0,0.1-0.2,0.3-0.6,0.3s-0.6-0.1-0.6-0.3v-0.1l-0.9,0.5
		L121.8,117.7L121.8,117.7z"/>
	<path class="st14" d="M121.8,116.8c0-0.1,0-0.1,0.1-0.2c0,0-0.1-0.1-0.1-0.1L121.8,116.8L121.8,116.8L121.8,116.8z"/>
	<path class="st14" d="M121.4,116.5c0.3,0,0.6-0.1,0.6-0.3v-0.3c0,0.1-0.2,0.2-0.6,0.2s-0.6-0.1-0.6-0.2v0.3
		C120.8,116.4,121.1,116.5,121.4,116.5z"/>
	<polygon class="st13" points="119.7,118.9 119.7,118.9 119.7,118.9 117.8,117.8 117.8,117.8 119.7,118.9 119.3,119.1 119.3,119.1 	
		"/>
	<polygon class="st14" points="119.7,118.9 119.7,118.9 119.7,118.9 119.7,118.9 120.2,118.6 	"/>
	<path class="st15" d="M119.7,118.9L119.7,118.9l0.5-0.3l1.6-0.9l0,0l-1.9-1.1l0,0l-0.4,0.2h-0.2c-0.1,0-0.2,0-0.3,0.1
		c-0.1,0-0.2,0.1-0.2,0.2s0.3,0.3,0.6,0.3s0.6-0.1,0.6-0.3v0.3c0,0.1-0.2,0.3-0.6,0.3s-0.6-0.1-0.6-0.3v-0.1l-0.9,0.5L119.7,118.9z
		 M119.7,117.7c0,0.1,0.3,0.2,0.6,0.2s0.6-0.1,0.6-0.2v0.3c0,0.1-0.2,0.3-0.6,0.3s-0.6-0.1-0.6-0.3V117.7z"/>
	<path class="st14" d="M120.3,118.3c0.3,0,0.6-0.1,0.6-0.3v-0.3c0,0.1-0.2,0.2-0.6,0.2s-0.6-0.1-0.6-0.2v0.3
		C119.7,118.2,120,118.3,120.3,118.3z"/>
	<path class="st14" d="M119.3,117.7c0.3,0,0.6-0.1,0.6-0.3v-0.3c0,0.1-0.2,0.3-0.6,0.3s-0.6-0.1-0.6-0.3v0.3
		C118.7,117.6,119,117.7,119.3,117.7z"/>
	<polygon class="st13" points="102,113.5 96.3,110.2 96.3,114 102,117.6 102,113.5 	"/>
	<polygon class="st14" points="108.4,112.4 108.4,112.4 108.5,110.1 102,113.5 102,113.5 102,113.5 102,117.6 102,117.6 102,115.8 	
		"/>
	<path class="st15" d="M102,113.5l6.5-3.5l-5.7-3.4l-1.3,0.7c-0.2,0-0.5-0.1-0.7-0.1c-1,0-1.7,0.3-1.7,0.8s0.8,0.8,1.7,0.8
		s1.7-0.3,1.7-0.8v1c0,0.4-0.8,0.8-1.7,0.8s-1.7-0.3-1.7-0.8v-0.4l-2.8,1.5L102,113.5L102,113.5z M102,109.9c0,0.4,0.8,0.8,1.7,0.8
		s1.7-0.3,1.7-0.8v1c0,0.4-0.8,0.8-1.7,0.8s-1.7-0.3-1.7-0.7V109.9z"/>
	<path class="st14" d="M103.8,111.7c0.9,0,1.7-0.3,1.7-0.8v-1c0,0.4-0.8,0.8-1.7,0.8s-1.7-0.3-1.7-0.8v1
		C102,111.4,102.8,111.7,103.8,111.7z"/>
	<path class="st14" d="M100.8,109.9c1,0,1.7-0.3,1.7-0.8v-1c0,0.4-0.8,0.8-1.7,0.8s-1.7-0.3-1.7-0.8v1
		C99.1,109.6,99.8,109.9,100.8,109.9z"/>
	<polygon class="st8" points="116.4,120.7 116.4,120.7 113.2,122.4 113.2,122.4 	"/>
	<path class="st8" d="M119.3,119.1L119.3,119.1l-0.5,0.3l0,0L119.3,119.1z"/>
	<polygon class="st7" points="102,115.8 102,117.6 113.2,124.7 113.2,122.5 	"/>
	<path class="st9" d="M102,115.8l11.2,6.7l0,0l3.2-1.7v-0.5c0-0.5,0.8-0.8,1.9-0.8c0.2,0,0.4,0,0.6,0l0.5-0.3l0.3-0.2l-1.9-1.1
		l-1.8-1v0.7c0,0.4-0.8,0.8-1.7,0.8c-0.2,0-0.3,0-0.5,0c0.1,0.1,0.2,0.2,0.2,0.4v1c0,0.4-0.8,0.8-1.7,0.8s-1.7-0.3-1.7-0.8v-1
		c0-0.4,0.8-0.8,1.7-0.8c0.2,0,0.3,0,0.5,0c-0.1-0.1-0.2-0.2-0.2-0.4v-1c0-0.4,0.7-0.7,1.6-0.8l-2.3-1.3l-0.8-0.5v0.8
		c0,0.4-0.8,0.8-1.7,0.8c-0.4,0-0.8-0.1-1.2-0.2c0.2,0.1,0.3,0.2,0.3,0.4v1c0,0.4-0.8,0.8-1.7,0.8s-1.7-0.3-1.7-0.8v-1
		c0-0.4,0.8-0.8,1.7-0.8c0.4,0,0.8,0.1,1.2,0.2c-0.2-0.1-0.3-0.2-0.3-0.4v-1c0-0.4,0.7-0.8,1.7-0.8l-0.7-0.4l0,0L102,115.8z"/>
	<path class="st16" d="M109.2,114.4c-1,0-1.7-0.3-1.7-0.8v1c0,0.2,0.1,0.3,0.3,0.4c0.1,0,0.2,0.1,0.2,0.1c0.4,0.1,0.8,0.2,1.2,0.2
		c1,0,1.7-0.3,1.7-0.8v-1C111,114.1,110.2,114.4,109.2,114.4z"/>
	<path class="st17" d="M107.5,113.6c0,0.4,0.8,0.8,1.7,0.8s1.7-0.3,1.7-0.8s-0.8-0.8-1.7-0.8h-0.1
		C108.2,112.9,107.5,113.2,107.5,113.6z"/>
	<path class="st16" d="M114.2,117.3c-0.9,0-1.7-0.3-1.7-0.8v1c0,0.2,0.1,0.3,0.2,0.4c0.4,0,0.7,0.2,1,0.4c0.2,0,0.3,0,0.5,0
		c1,0,1.7-0.3,1.7-0.8v-1C116,116.9,115.2,117.3,114.2,117.3z"/>
	<path class="st17" d="M114.2,117.3c1,0,1.7-0.3,1.7-0.8s-0.8-0.8-1.7-0.8h-0.1c-0.9,0-1.6,0.4-1.6,0.8S113.3,117.3,114.2,117.3z"/>
	<path class="st16" d="M106.6,116.4c-0.9,0-1.7-0.3-1.7-0.8v1c0,0.4,0.8,0.8,1.7,0.8s1.7-0.3,1.7-0.8v-1
		C108.3,116.1,107.5,116.4,106.6,116.4z"/>
	<path class="st17" d="M106.6,114.9c-0.9,0-1.7,0.3-1.7,0.8s0.8,0.8,1.7,0.8s1.7-0.3,1.7-0.8c0-0.2-0.1-0.3-0.3-0.4
		c-0.1-0.1-0.2-0.1-0.2-0.1C107.4,114.9,107,114.9,106.6,114.9z"/>
	<path class="st16" d="M112.2,119.4c-1,0-1.7-0.3-1.7-0.8v1c0,0.4,0.8,0.8,1.7,0.8s1.7-0.3,1.7-0.8v-1
		C114,119.1,113.2,119.4,112.2,119.4z"/>
	<path class="st17" d="M112.2,117.9c-1,0-1.7,0.3-1.7,0.8s0.8,0.8,1.7,0.8s1.7-0.3,1.7-0.8c0-0.2-0.1-0.3-0.2-0.4
		c-0.3-0.2-0.6-0.3-1-0.4C112.6,117.9,112.4,117.9,112.2,117.9z"/>
	<polygon class="st18" points="119.6,126.2 113.2,122.5 113.2,124.7 119.6,128.7 	"/>
	<polygon class="st19" points="132.3,121.2 132.3,118.7 119.6,126.2 119.6,128.7 119.9,128.9 	"/>
	<path class="st20" d="M126.1,115.4l-1.4,0.8c0.5,0.2,0.8,0.4,0.8,0.7v1.2c0,0.5-0.8,0.8-1.9,0.8s-1.9-0.4-1.9-0.8v-0.2l0,0
		l-1.6,0.9l-0.5,0.3l-0.3,0.2l-0.5,0.3c0.8,0.1,1.3,0.4,1.3,0.8v1.1c0,0.5-0.8,0.8-1.9,0.8s-1.9-0.4-1.9-0.8v-0.6l-3.2,1.7l0,0
		l6.4,3.8l12.7-7.5l0,0L126.1,115.4z M123.4,123.2c0,0.5-0.8,0.8-1.9,0.8s-1.9-0.4-1.9-0.8v-1.1c0-0.5,0.8-0.8,1.9-0.8
		s1.9,0.4,1.9,0.8V123.2z M128.9,120c0,0.5-0.8,0.8-1.9,0.8s-1.9-0.4-1.9-0.8v-1.1c0-0.5,0.8-0.8,1.9-0.8c1,0,1.9,0.4,1.9,0.8V120z"
		/>
	<path class="st18" d="M127.1,119.8c-1,0-1.9-0.4-1.9-0.8v1.1c0,0.5,0.8,0.8,1.9,0.8s1.9-0.4,1.9-0.8v-1.1
		C128.9,119.4,128.1,119.8,127.1,119.8z"/>
	<path class="st21" d="M127.1,119.8c1,0,1.9-0.4,1.9-0.8s-0.8-0.8-1.9-0.8s-1.9,0.4-1.9,0.8S126,119.8,127.1,119.8z"/>
	<path class="st18" d="M123.7,117.7c-1,0-1.9-0.4-1.9-0.8v1.2c0,0.5,0.8,0.8,1.9,0.8s1.9-0.4,1.9-0.8v-1.1
		C125.6,117.3,124.7,117.7,123.7,117.7z"/>
	<path class="st21" d="M123.7,116c-0.2,0-0.4,0-0.6,0.1l0,0c-0.5,0-0.9,0.2-1.2,0.6c0,0.1-0.1,0.1-0.1,0.2c0,0.5,0.8,0.8,1.9,0.8
		s1.9-0.4,1.9-0.8c0-0.3-0.3-0.6-0.8-0.7l0,0C124.4,116,124.1,116,123.7,116z"/>
	<path class="st18" d="M121.5,123c-1,0-1.9-0.4-1.9-0.8v1.1c0,0.5,0.8,0.8,1.9,0.8s1.9-0.4,1.9-0.8v-1.1
		C123.4,122.6,122.5,123,121.5,123z"/>
	<path class="st21" d="M121.5,121.3c-1,0-1.9,0.4-1.9,0.8s0.8,0.8,1.9,0.8s1.9-0.4,1.9-0.8S122.5,121.3,121.5,121.3z"/>
	<path class="st18" d="M116.4,121.3c0,0.5,0.8,0.8,1.9,0.8s1.9-0.4,1.9-0.8v-1.1c0,0.5-0.8,0.8-1.9,0.8s-1.9-0.4-1.9-0.8v0.5l0,0
		V121.3z"/>
	<path class="st21" d="M118.3,121c1,0,1.9-0.4,1.9-0.8s-0.5-0.7-1.3-0.8l0,0c-0.2,0-0.4,0-0.6,0c-1,0-1.9,0.4-1.9,0.8
		S117.2,121,118.3,121z"/>
	<path class="st22" d="M133.2,151.1l-13.4-22.2l-13.2,22.2l-23.1-14.9l0.2,12c1.9,0.6,36.1,21.9,36.1,21.9l37.4-21.3l-0.2-13.1
		L133.2,151.1z"/>
	<polygon class="st6" points="119.9,128.9 119.6,128.7 113.2,124.7 102,117.6 102,117.6 96.3,114 83.1,105.7 70.2,127.6 83.6,136.2 
		106.7,151.1 	"/>
	<polygon class="st23" points="132.3,121.2 119.9,128.9 133.2,151.1 157.1,135.7 169.6,127.6 156.6,106.3 136.8,118.4 	"/>
	<polygon class="st20" points="371.6,153.8 371.6,153.3 398.9,137.8 398.9,138.1 	"/>
	<polygon class="st24" points="371.7,153.8 371.7,153.3 358,145.5 358,145.9 	"/>
	<polygon class="st9" points="358,145.5 358,145.9 358,145.9 334.1,132.3 334.1,131.9 358,145.5 	"/>
	<g class="st25">
		<path class="st26" d="M581,140.6c0.3,0,0.7-0.1,0.9-0.4c0.2-0.2,0.4-0.5,0.4-0.9c0-0.3-0.1-0.7-0.3-0.9c-0.2-0.2-0.5-0.4-0.9-0.4
			c-0.3,0-0.7,0.1-0.9,0.4c-0.5,0.5-0.5,1.3,0,1.8C580.4,140.4,580.7,140.6,581,140.6L581,140.6z"/>
		<path class="st26" d="M572.8,162.7c0.7,0.2,1.4-0.1,1.6-0.8c0.2-0.7-0.1-1.4-0.8-1.6c-0.1,0-0.1,0-0.2,0c-0.1,0-0.2,0-0.3-0.1
			c-0.2,0-0.4,0.1-0.6,0.2c-0.6,0.3-0.8,1.1-0.5,1.7C572.2,162.4,572.4,162.6,572.8,162.7z"/>
		<path class="st26" d="M578.8,156.4c-0.3-0.1-0.7-0.1-1,0.1c-0.6,0.3-0.8,1.1-0.5,1.7c0.3,0.6,1.1,0.8,1.7,0.5
			c0.6-0.3,0.8-1.1,0.5-1.7C579.4,156.8,579.1,156.5,578.8,156.4z"/>
		<path class="st26" d="M580.7,172.4c-0.7,0-1.2,0.6-1.2,1.3c0,0.7,0.6,1.2,1.3,1.2c0.7,0,1.2-0.6,1.2-1.3
			C581.9,173,581.4,172.4,580.7,172.4z"/>
		<path class="st26" d="M586.2,189.3c-0.7,0-1.2,0.6-1.2,1.2s0.6,1.2,1.2,1.2s1.2-0.6,1.2-1.2S586.9,189.3,586.2,189.3z"/>
		<path class="st26" d="M602.1,146.6c0,0.7,0.6,1.2,1.2,1.2s1.2-0.6,1.2-1.2s-0.6-1.2-1.2-1.2c-0.1,0-0.3,0-0.4,0.1l-0.5,0.3
			C602.2,146,602.1,146.3,602.1,146.6z"/>
		<path class="st26" d="M544.3,156.1c-0.7,0-1.2,0.6-1.2,1.2s0.6,1.2,1.2,1.2s1.2-0.6,1.2-1.2S545,156.1,544.3,156.1z"/>
		<path class="st26" d="M561.6,155.6c0.7,0,1.2-0.6,1.2-1.2s-0.6-1.2-1.2-1.2s-1.2,0.6-1.2,1.2C560.3,155,560.9,155.6,561.6,155.6z"
			/>
		<path class="st26" d="M511.7,146.1c-0.7,0-1.2,0.6-1.2,1.2s0.6,1.2,1.2,1.2s1.2-0.6,1.2-1.2S512.4,146.1,511.7,146.1z"/>
		<path class="st26" d="M564.8,140c0.3,0,0.6-0.2,0.8-0.5c0.2-0.3,0.3-0.6,0.2-0.9c0-0.3-0.2-0.6-0.5-0.8c-0.2-0.2-0.5-0.3-0.8-0.2
			h-0.2c-0.7,0.1-1.2,0.7-1.1,1.4c0,0.3,0.2,0.6,0.5,0.8C564.1,140,564.4,140,564.8,140z"/>
		<path class="st26" d="M598.9,142.1c0.3,0.1,0.7,0.1,1-0.1c0.3-0.2,0.5-0.4,0.6-0.7c0.1-0.3,0.1-0.7-0.1-0.9
			c-0.2-0.3-0.4-0.5-0.7-0.6c-0.3-0.1-0.7-0.1-1,0.1c-0.6,0.3-0.8,1.1-0.5,1.7C598.3,141.8,598.6,142,598.9,142.1L598.9,142.1z"/>
		<path class="st26" d="M537.9,131.4c-0.7,0-1.2,0.6-1.2,1.2s0.6,1.2,1.2,1.2s1.2-0.6,1.2-1.2S538.6,131.4,537.9,131.4z"/>
		<circle class="st26" cx="573.5" cy="141.7" r="1.2"/>
		<circle class="st26" cx="620" cy="158.3" r="1.2"/>
		<path class="st26" d="M590.8,159.8L590.8,159.8c-0.4,0-0.7,0.2-0.9,0.4c-0.2,0.2-0.3,0.6-0.3,0.9c0,0.7,0.6,1.2,1.3,1.2
			c0,0,0,0,0,0c0.7,0,1.2-0.6,1.2-1.3c0-0.3-0.2-0.6-0.4-0.9C591.4,159.9,591.1,159.8,590.8,159.8z"/>
		<path class="st26" d="M616.1,143L616.1,143c-0.7,0-1.2,0.5-1.2,1.2c0,0.7,0.5,1.3,1.2,1.3c0,0,0,0,0,0c0.3,0,0.6-0.1,0.9-0.3
			c0.2-0.2,0.4-0.5,0.4-0.9C617.4,143.6,616.8,143,616.1,143L616.1,143z"/>
		<path class="st26" d="M662.7,147.3c-0.7,0-1.2,0.6-1.2,1.2s0.6,1.2,1.2,1.2s1.2-0.6,1.2-1.2S663.4,147.3,662.7,147.3z"/>
		<path class="st26" d="M602,159.9c-0.3,0-0.6,0.2-0.8,0.5c-0.2,0.3-0.3,0.6-0.2,0.9c0,0.3,0.2,0.6,0.5,0.8c0.5,0.4,1.3,0.3,1.8-0.2
			c0.2-0.3,0.3-0.6,0.2-0.9c0-0.3-0.2-0.6-0.5-0.8C602.7,159.9,602.3,159.9,602,159.9z"/>
		<path class="st26" d="M605.1,135.7c-0.3-0.1-0.7-0.1-1,0.1c-0.3,0.1-0.5,0.4-0.6,0.7c-0.2,0.7,0.2,1.4,0.8,1.6
			c0.7,0.2,1.4-0.2,1.6-0.8c0.1-0.3,0.1-0.7-0.1-1C605.6,136,605.4,135.8,605.1,135.7z"/>
		<circle class="st26" cx="614.7" cy="154.1" r="1.2"/>
		<path class="st27" d="M573.5,144c1.2,0,2.2-1,2.2-2.2s-1-2.2-2.2-2.2s-2.2,1-2.2,2.2S572.2,144,573.5,144z M573.5,140.5
			c0.7,0,1.2,0.6,1.2,1.2s-0.6,1.2-1.2,1.2s-1.2-0.6-1.2-1.2C572.2,141.1,572.8,140.5,573.5,140.5
			C573.5,140.5,573.5,140.5,573.5,140.5L573.5,140.5z"/>
		<path class="st27" d="M561.6,156.6c1.2,0,2.2-1,2.2-2.2s-1-2.2-2.2-2.2s-2.2,1-2.2,2.2c0,0.3,0.1,0.6,0.2,0.9l-21.4,14.4l1,0.6
			l21-14.2C560.5,156.4,561,156.6,561.6,156.6z M561.6,153.1c0.7,0,1.2,0.6,1.2,1.2s-0.6,1.2-1.2,1.2s-1.2-0.6-1.2-1.2
			S560.9,153.1,561.6,153.1z"/>
		<path class="st27" d="M613.1,155.7c0.4,0.4,1,0.7,1.6,0.7c0.5,0,1-0.2,1.4-0.5c0.5-0.4,0.8-1.1,0.8-1.8c0-1.2-1-2.2-2.2-2.2
			s-2.2,1-2.2,2.2c0,0.2,0,0.5,0.1,0.7l-4.6,2.8l-11.2-7.8l-0.9,0.6l33.2,23.1l1-0.6l-21.3-14.7L613.1,155.7z M614.7,152.9
			c0.7,0,1.2,0.6,1.2,1.2s-0.6,1.2-1.2,1.2s-1.2-0.6-1.2-1.2S614,152.9,614.7,152.9z"/>
		<path class="st27" d="M581,141.6L581,141.6c0.6,0,1.1-0.2,1.5-0.5l13.6,8.7l5-3.1l0,0c0,0.7,0.3,1.3,0.8,1.7
			c0.9,0.8,2.3,0.8,3.2-0.2c0.8-0.9,0.8-2.3-0.2-3.2c-0.2-0.2-0.4-0.3-0.6-0.4l29.3-18.5l-0.1-0.1l-0.8-0.5l-30.2,19.1
			c-0.3,0.1-0.5,0.3-0.7,0.5l-5.7,3.6l-13-8.3c0.1-0.3,0.2-0.6,0.2-0.9c0-1.2-1-2.3-2.2-2.3c0,0,0,0,0,0c-0.6,0-1.2,0.2-1.6,0.6
			c-0.9,0.9-0.9,2.3-0.1,3.2C579.9,141.3,580.4,141.6,581,141.6L581,141.6z M603.3,145.4c0.7,0,1.2,0.6,1.2,1.2s-0.6,1.2-1.2,1.2
			s-1.2-0.6-1.2-1.2c0-0.3,0.1-0.6,0.3-0.9l0.5-0.3C603.1,145.4,603.2,145.3,603.3,145.4L603.3,145.4z M580.2,138.4
			c0.2-0.2,0.6-0.4,0.9-0.4c0.3,0,0.6,0.2,0.9,0.4c0.2,0.2,0.4,0.6,0.3,0.9c0,0.3-0.1,0.6-0.4,0.9c-0.2,0.2-0.6,0.3-0.9,0.4
			c-0.7,0-1.2-0.6-1.2-1.3C579.8,139,579.9,138.7,580.2,138.4L580.2,138.4z"/>
		<path class="st27" d="M606.3,135.2c-0.2-0.2-0.5-0.4-0.9-0.5c-0.6-0.2-1.2-0.1-1.7,0.2c-0.5,0.3-0.9,0.8-1.1,1.3
			c-0.1,0.2-0.1,0.4-0.1,0.6c0,1,0.6,1.9,1.6,2.2c0.2,0.1,0.4,0.1,0.7,0.1c1,0,1.9-0.6,2.2-1.6c0.1-0.5,0.1-1-0.1-1.5l0,0l21.2-13.6
			l-0.5-0.8L606.3,135.2L606.3,135.2z M605.9,137.2c-0.2,0.7-0.9,1-1.6,0.8c-0.6-0.2-1-0.9-0.8-1.5c0.1-0.3,0.3-0.6,0.6-0.7
			c0.3-0.2,0.7-0.2,1-0.1c0.3,0.1,0.6,0.3,0.7,0.6C606,136.6,606,137,605.9,137.2L605.9,137.2z"/>
		<path class="st27" d="M597.3,139.8c-0.1,0.1-0.2,0.3-0.2,0.5c-0.1,0.2-0.1,0.4-0.1,0.6c0,1,0.6,1.9,1.6,2.2
			c0.2,0.1,0.4,0.1,0.7,0.1c0.4,0,0.7-0.1,1-0.3c0.5-0.3,0.9-0.8,1.1-1.3c0.2-0.6,0.1-1.2-0.2-1.7c-0.6-1.1-1.9-1.5-3-0.9
			c-0.1,0-0.1,0.1-0.2,0.1l0,0l-4.1-3l27-17.7l-0.5-0.8l-28.2,18.5L597.3,139.8L597.3,139.8z M598.1,140.5c0.1-0.3,0.3-0.6,0.6-0.7
			c0.3-0.2,0.7-0.2,1-0.1c0.3,0.1,0.6,0.3,0.7,0.6c0.2,0.3,0.2,0.6,0.1,0.9c-0.1,0.3-0.3,0.6-0.6,0.7c-0.3,0.2-0.7,0.2-1,0.1
			C598.2,141.9,597.9,141.2,598.1,140.5z"/>
		<path class="st27" d="M638.7,129l-21.1,13.6c-0.4-0.4-0.9-0.6-1.5-0.6l0,0c-0.6,0-1.2,0.2-1.6,0.6c-0.9,0.9-0.9,2.3,0,3.2
			c0.4,0.4,1,0.7,1.6,0.7h0c1.2,0,2.2-1,2.2-2.2c0-0.3,0-0.6-0.2-0.9l21.5-13.9l-0.8-0.5L638.7,129z M617,145.2
			c-0.2,0.2-0.6,0.3-0.9,0.3c-0.7,0-1.2-0.6-1.2-1.3c0,0,0,0,0,0c0-0.7,0.6-1.2,1.2-1.2l0,0c0.7,0,1.2,0.6,1.2,1.3
			C617.4,144.6,617.2,144.9,617,145.2z"/>
		<path class="st27" d="M590.7,158.8c-0.5,0-1,0.2-1.3,0.5l-12.2-8L544,173.1l1,0.6l32.2-21.2l11.6,7.6c-0.2,0.3-0.2,0.7-0.2,1
			c0,0.6,0.3,1.2,0.7,1.6c0.4,0.4,0.9,0.6,1.5,0.6h0.1c1.2-0.1,2.2-1.1,2.1-2.3c0,0,0,0,0,0c0-0.6-0.3-1.2-0.7-1.6
			C591.9,159,591.3,158.8,590.7,158.8z M591.7,161.9c-0.2,0.3-0.5,0.4-0.9,0.4c-0.7,0-1.3-0.5-1.3-1.2c0,0,0,0,0,0
			c0-0.3,0.1-0.7,0.3-0.9c0.2-0.2,0.5-0.4,0.9-0.4h0.1c0.3,0,0.6,0.1,0.8,0.3C592.1,160.6,592.2,161.3,591.7,161.9
			C591.7,161.9,591.7,161.9,591.7,161.9L591.7,161.9z"/>
		<path class="st27" d="M572.5,163.6c0.2,0.1,0.4,0.1,0.6,0.1c1,0,1.9-0.7,2.2-1.6c0.1-0.2,0.1-0.4,0.1-0.6c0-1.2-1-2.3-2.2-2.3
			c-1,0-1.9,0.7-2.2,1.7c-0.1,0.5-0.1,1,0.1,1.5l-21.1,14.2l0.9,0.6l20.7-14C571.8,163.4,572.2,163.5,572.5,163.6z M571.9,161.1
			c0.1-0.3,0.3-0.6,0.6-0.8c0.2-0.1,0.4-0.2,0.6-0.2c0.1,0,0.2,0,0.3,0.1c0.7,0.2,1.1,0.9,0.9,1.5s-0.9,1.1-1.5,0.9
			C572.1,162.5,571.7,161.8,571.9,161.1C571.9,161.1,571.9,161.1,571.9,161.1L571.9,161.1z"/>
		<path class="st27" d="M580.5,158.5c0-0.1,0.1-0.2,0.1-0.2c0.3-1.2-0.4-2.4-1.6-2.8c-1.2-0.4-2.4,0.3-2.8,1.5s0.3,2.4,1.5,2.8
			c0,0,0.1,0,0.1,0c0.2,0.1,0.4,0.1,0.6,0.1c0.6,0,1.1-0.2,1.5-0.6l4.2,2.5l-27.3,18.8l1,0.6l28.1-19.5L580.5,158.5z M579.7,158
			c-0.2,0.7-0.9,1-1.5,0.9c-0.7-0.2-1-0.9-0.9-1.5c0.1-0.3,0.3-0.6,0.6-0.7c0.3-0.2,0.7-0.2,1-0.1c0.3,0.1,0.6,0.3,0.8,0.6
			C579.8,157.3,579.8,157.7,579.7,158L579.7,158z"/>
		<path class="st27" d="M545.8,127.7l16.7,10.5c-0.1,0.3-0.1,0.7-0.1,1c0.1,0.6,0.4,1.1,0.9,1.5c0.4,0.3,0.9,0.4,1.3,0.4h0.3
			c0.6-0.1,1.1-0.4,1.5-0.9c0.7-1,0.5-2.4-0.4-3.2c-0.5-0.4-1.1-0.5-1.7-0.4c-0.5,0.1-1,0.3-1.3,0.7l0,0L542,124.1l-0.9,0.5
			l-0.1,0.1l4.6,2.9l0,0L545.8,127.7z M564.4,137.6h0.2c0.3,0,0.5,0.1,0.8,0.2c0.3,0.2,0.4,0.5,0.5,0.8c0,0.3,0,0.7-0.2,0.9
			c-0.2,0.3-0.5,0.4-0.8,0.5c-0.3,0.1-0.7,0-0.9-0.2c-0.6-0.4-0.7-1.2-0.3-1.7C563.8,137.8,564.1,137.6,564.4,137.6L564.4,137.6z"/>
		<polygon class="st27" points="570,133.9 570.5,133.1 569.9,132.7 549.5,119.9 548.6,120.5 569.4,133.6 		"/>
		<polygon class="st27" points="566.6,136 567.1,135.2 566.5,134.8 546,121.9 545,122.5 565.9,135.6 		"/>
		<path class="st27" d="M604.4,160.9c-0.2-1.2-1.3-2.1-2.5-1.9c0,0,0,0,0,0c-1.1,0.1-1.9,1.1-1.9,2.2c0,0.1,0,0.2,0,0.3
			c0.1,1.1,1.1,2,2.2,2h0.3c0.5-0.1,1-0.3,1.3-0.7l20.3,13.7l0.9-0.5l0.1-0.1l-20.7-14C604.4,161.6,604.4,161.2,604.4,160.9z
			 M603.1,161.9c-0.4,0.5-1.2,0.7-1.8,0.2c-0.3-0.2-0.4-0.5-0.5-0.8c0-0.3,0-0.7,0.2-0.9c0.2-0.3,0.5-0.4,0.8-0.5
			c0.3,0,0.7,0,0.9,0.2c0.3,0.2,0.4,0.5,0.5,0.8C603.4,161.3,603.3,161.6,603.1,161.9z"/>
		<path class="st27" d="M622,159.3c0.2-0.3,0.2-0.7,0.2-1c0-1.2-1-2.2-2.2-2.2s-2.2,1-2.2,2.2s1,2.2,2.2,2.2c0.5,0,1-0.2,1.4-0.5
			l0,0l13.9,10l1-0.5L622,159.3z M620,159.6c-0.7,0-1.2-0.6-1.2-1.2s0.6-1.2,1.2-1.2s1.2,0.6,1.2,1.2S620.7,159.6,620,159.6z"/>
		<path class="st28" d="M540.1,132.7c0-0.2,0-0.5-0.1-0.7l6.6-3.7l-0.8-0.6h-0.1l-6.2,3.5c-0.4-0.4-1-0.7-1.6-0.7
			c-0.5,0-1,0.2-1.4,0.5c-0.5,0.4-0.8,1.1-0.8,1.8c0,1.2,1,2.2,2.2,2.2S540.1,134,540.1,132.7L540.1,132.7z M537.9,133.9
			c-0.7,0-1.2-0.6-1.2-1.2s0.6-1.2,1.2-1.2s1.2,0.6,1.2,1.2S538.6,133.9,537.9,133.9z"/>
		<polygon class="st27" points="545.7,127.6 545.7,127.6 545.8,127.7 		"/>
		<polygon class="st28" points="545.7,127.6 545.7,127.6 545.8,127.7 		"/>
		<path class="st28" d="M582.1,171.9c-0.4-0.3-0.9-0.5-1.4-0.5c-0.6,0-1.2,0.3-1.6,0.7l-4.3-2.6l-0.9,0.6l4.7,2.8
			c-0.1,0.2-0.1,0.5-0.1,0.7c0,1.2,1,2.2,2.2,2.2s2.2-1,2.2-2.2C582.9,173,582.6,172.4,582.1,171.9L582.1,171.9z M580.7,174.9
			c-0.7,0-1.2-0.5-1.2-1.2c0,0,0,0,0,0c0-0.7,0.6-1.2,1.2-1.3c0.7,0,1.2,0.6,1.2,1.2S581.4,174.9,580.7,174.9z"/>
		<path class="st28" d="M544.3,155.1c-1.2,0-2.2,1-2.2,2.2c0,0.7,0.3,1.3,0.8,1.8c0.4,0.3,0.9,0.5,1.4,0.5c0.6,0,1.2-0.2,1.6-0.7
			l4.3,2.5l0.9-0.6l-4.7-2.8c0.1-0.2,0.1-0.5,0.1-0.7C546.5,156.1,545.5,155.1,544.3,155.1z M544.3,158.6c-0.7,0-1.2-0.6-1.2-1.2
			s0.6-1.2,1.2-1.2s1.2,0.6,1.2,1.2S545,158.6,544.3,158.6z"/>
		<path class="st28" d="M511.7,145.1c-1.2,0-2.2,1-2.2,2.2c0,0.7,0.3,1.3,0.9,1.8c0.4,0.3,0.9,0.5,1.4,0.5c0.6,0,1.2-0.2,1.6-0.7
			l0.5-0.9c0.1-0.2,0.1-0.5,0.1-0.7C513.9,146.1,512.9,145.1,511.7,145.1z M511.7,148.6c-0.7,0-1.2-0.6-1.2-1.2s0.6-1.2,1.2-1.2
			s1.2,0.6,1.2,1.2S512.4,148.6,511.7,148.6z"/>
		<path class="st28" d="M586.2,188.3c-1.2,0-2.2,1-2.2,2.2c0,0.7,0.3,1.3,0.8,1.8c0.4,0.3,0.9,0.5,1.4,0.5c0.6,0,1.2-0.2,1.6-0.7
			l0.5-0.9c0.1-0.2,0.1-0.5,0.1-0.7C588.4,189.3,587.4,188.3,586.2,188.3z M586.2,191.8c-0.7,0-1.2-0.6-1.2-1.2s0.6-1.2,1.2-1.2
			s1.2,0.6,1.2,1.2S586.9,191.8,586.2,191.8z"/>
		<path class="st28" d="M662.7,146.3c-1.2,0-2.2,1-2.2,2.2c0,0.7,0.3,1.3,0.8,1.8c0.4,0.3,0.9,0.5,1.4,0.5c0.6,0,1.2-0.2,1.6-0.7
			l0.5-0.9c0.1-0.2,0.1-0.5,0.1-0.7C664.9,147.3,663.9,146.3,662.7,146.3z M662.7,149.8c-0.7,0-1.2-0.6-1.2-1.2s0.6-1.2,1.2-1.2
			s1.2,0.6,1.2,1.2S663.4,149.8,662.7,149.8z"/>
	</g>
	<g>
		<path class="st26" d="M312.5,105.2C312.5,105.2,312.5,105.2,312.5,105.2C312.5,105.2,312.5,105.2,312.5,105.2
			C312.5,105.2,312.5,105.2,312.5,105.2z"/>
		<path class="st26" d="M318.2,159.3c0,0.1-0.1,0.2-0.2,0.1l-10.2-5.7l10.5,5.9V159.3z"/>
		<path class="st26" d="M320.7,113.8C320.7,113.7,320.7,113.7,320.7,113.8C320.7,113.7,320.7,113.7,320.7,113.8z"/>
		<path class="st26" d="M315.7,106.1C315.7,106.2,315.7,106.2,315.7,106.1c-0.8,0.4-1.8,0.7-2.7,0.8c0,0,0,0,0,0c-0.2,0-0.5,0-0.8,0
			c0,0,0,0,0,0c0,0,0,0,0,0c-0.3,0-0.5,0-0.7,0c0,0,0,0,0,0c-0.9-0.1-1.9-0.3-2.7-0.7v2.3c0,0.1,0,0.3,0.1,0.4
			c0-0.1-0.1-0.2-0.1-0.3v-2.3c0.9,0.4,1.8,0.6,2.7,0.7c0.3,0,0.5,0,0.8,0c0.3,0,0.5,0,0.8,0c0.9-0.1,1.8-0.3,2.7-0.7L315.7,106.1
			C315.8,106.1,315.8,106.1,315.7,106.1c0-0.4-1.5-0.8-3.5-0.8c0,0,0,0,0,0C314.2,105.3,315.7,105.7,315.7,106.1z"/>
		<path class="st26" d="M304.2,108.8c0-0.4,0.1-0.7,0.4-1C304.3,108.1,304.2,108.5,304.2,108.8z"/>
		<path class="st26" d="M314.3,105.3c-0.6-0.1-1.2-0.1-1.8-0.1C313.1,105.2,313.7,105.3,314.3,105.3z"/>
		<path class="st6" d="M324.6,126.7c0.5-0.6,0.9-1.4,1-2.2l1.5-6.4c-0.1,0.1-0.3,0.2-0.4,0.2c-1.3,0.6-2.9,0.4-4-0.7l-1.5,4.3
			l2.8,1.6l0,0l0,0l0,0l0,0L324.6,126.7z"/>
		<path class="st29" d="M327.2,118L327.2,118c1-0.7,1.6-1.8,1.5-3h-1.9c0,0.9-0.7,1.6-1.6,1.6c-0.9,0-1.6-0.7-1.6-1.6h-2
			c0,2,1.6,3.6,3.6,3.6c0.5,0,1-0.1,1.5-0.3C326.8,118.2,327,118.1,327.2,118C327.1,118,327.2,118,327.2,118z"/>
		<path class="st4" d="M321.1,121.9L321.1,121.9l-2.1-1.2c0,0,0,0,0,0c-4,2.6-9.2,2.6-13.2,0c-0.3-0.2-0.5-0.4-0.8-0.6
			c-0.2-0.2-0.4-0.3-0.5-0.5l-2,1.3l13.3,7.5l8-5l0,0L321.1,121.9z"/>
		<polygon class="st6" points="302.5,121 300.2,135.4 318.4,145.5 315.9,128.5 315.9,128.5 302.5,121 		"/>
		<path class="st5" d="M322.4,134.2c-0.4,0-0.8-0.1-1.2-0.3c-1.1-0.5-1.9-1.5-1.9-2.8c0,0,0,0,0,0c0-1.7,1.4-3.1,3.1-3.1
			c0,0,0,0,0,0h2.5l-0.3-1.2l-0.7-3.2l0,0l-8,5l2.6,17l0.1,0.1l1.4-0.8c0.2-0.2,0.5-0.3,0.7-0.5c0.2-0.1,0.5-0.2,0.7-0.3l6.1-3.5
			l-1.4-6.4l-0.1,0L322.4,134.2z"/>
		<path class="st29" d="M312.5,105.2C312.5,105.2,312.5,105.2,312.5,105.2C312.5,105.2,312.5,105.2,312.5,105.2
			C312.5,105.2,312.5,105.2,312.5,105.2c0.6,0,1.2,0,1.8,0.1c0,0,0,0,0,0C313.7,105.2,313.1,105.1,312.5,105.2c-1-0.1-2,0-2.9,0.3
			l0.9-0.1c0,0,0,0,0.1,0C311.2,105.2,311.9,105.2,312.5,105.2C312.5,105.2,312.5,105.2,312.5,105.2z"/>
		<path class="st29" d="M319,120.7C319.1,120.7,319.1,120.7,319,120.7c0.3-0.2,0.5-0.4,0.8-0.5c0.7-0.6,1.2-1.4,1.2-2.4v-0.5
			c-0.8,0-1.5-0.4-2.1-1l0.8-0.7c0.3,0.3,0.8,0.6,1.2,0.6v-2.4c-0.1,0-0.2-0.1-0.3-0.1c0,0,0,0,0,0c0,0,0,0,0,0
			c-0.2-0.1-0.4-0.4-0.4-0.7c0-0.4,0.3-0.8,0.7-0.8v-2.6c0-0.3-0.1-0.6-0.1-0.8c0.3,1.7-1.6,2.8-2.8,3.4c-3.9,2-8.6,1.8-12.2-0.6
			c-0.9-0.6-1.7-1.6-1.6-2.7c0-0.4,0.1-0.7,0.4-1c0.4-0.5,0.9-0.9,1.5-1.2l0.3-0.2l-0.4,0.2c-1.2,0.5-2,1.7-2,3v8.3
			c0,0.7,0.2,1.3,0.6,1.8c0.1,0.2,0.3,0.4,0.5,0.5c0.2,0.2,0.5,0.4,0.8,0.5C309.9,123.3,315,123.4,319,120.7z"/>
		<path class="st30" d="M313.1,106.9C313.1,106.9,313,106.9,313.1,106.9c-0.3,0-0.5,0-0.8,0C312.6,106.9,312.8,106.9,313.1,106.9z"
			/>
		<path class="st30" d="M305.8,111.5c3.7,2.4,8.3,2.6,12.2,0.6c1.3-0.7,3.1-1.7,2.8-3.4c0,0,0,0,0,0c0-0.1-0.1-0.2-0.1-0.3
			c-0.5-1.7-2.4-2.4-4-2.7c-0.8-0.2-1.6-0.3-2.4-0.3c0,0,0,0,0,0c0,0,0,0,0,0c-0.6,0-1.2-0.1-1.8-0.1c0,0,0,0,0,0c0,0,0,0,0,0
			c0,0,0,0,0,0c-0.6,0-1.3,0-1.9,0.1c0,0,0,0,0,0l-0.9,0.1c-1.1,0.2-2.2,0.5-3.2,0.9l-0.3,0.2c-0.6,0.3-1.1,0.7-1.5,1.2
			c-0.2,0.3-0.3,0.7-0.4,1C304.1,109.9,304.9,110.9,305.8,111.5z M308.8,106.1c0-0.4,1.5-0.8,3.5-0.8c0,0,0,0,0,0s0,0,0,0
			c1.9,0,3.5,0.3,3.5,0.8c0,0,0,0,0,0.1v0c0,0,0,0,0,0v2.2c0,0.5-0.4,1-0.9,1.1c-0.9,0.3-1.8,0.4-2.8,0.5c-0.9,0-1.7-0.1-2.5-0.4
			c-0.3-0.1-0.6-0.4-0.7-0.7c0-0.1-0.1-0.2-0.1-0.4L308.8,106.1L308.8,106.1C308.8,106.1,308.8,106.1,308.8,106.1z"/>
		<path class="st31" d="M311.5,106.9C311.5,106.9,311.5,106.9,311.5,106.9c0.3,0,0.5,0,0.8,0c0,0,0,0,0,0c0,0,0,0,0,0
			c0.3,0,0.5,0,0.7,0c0.9-0.1,1.8-0.3,2.7-0.7c0,0,0,0,0-0.1c0-0.4-1.6-0.8-3.5-0.8c0,0,0,0,0,0c-1.9,0-3.5,0.3-3.5,0.8
			c0,0,0,0,0,0.1h0C309.6,106.5,310.5,106.8,311.5,106.9z"/>
		<path class="st29" d="M312.3,106.9c-0.3,0-0.5,0-0.8,0c-0.9-0.1-1.9-0.3-2.7-0.7v2.3c0,0.1,0,0.2,0.1,0.3c0.1,0.3,0.4,0.6,0.7,0.7
			c0.8,0.3,1.7,0.5,2.5,0.4c1,0,1.9-0.2,2.8-0.5c0.5-0.1,0.9-0.6,0.9-1.1v-2.2c0,0,0,0,0,0c-0.8,0.4-1.7,0.6-2.7,0.7
			C312.8,106.9,312.6,106.9,312.3,106.9z"/>
		<path class="st32" d="M318.2,159.3v-6.6v-4.3c0-0.2,0-0.4,0-0.5l-10.5-5.8v11.7l10.2,5.7C318.1,159.4,318.2,159.4,318.2,159.3z"/>
		<path class="st33" d="M320.6,144.3c-0.3,0.1-0.5,0.3-0.7,0.5l1.4-0.8C321.1,144,320.9,144.1,320.6,144.3z"/>
		<polygon class="st34" points="327.6,153.6 330.9,151.5 327.6,149.9 		"/>
		<polygon class="st32" points="318.2,159.6 307.8,153.7 307.8,157 318.2,162.7 318.2,159.6 		"/>
		<path class="st32" d="M300.1,140.6v8.7c0,0.1,0,0.1,0.1,0.2l-0.1-0.1l-0.1,3.3l7.3,4v-3.3l-3-1.7l3,1.7v-11.7l-6.1-3.4
			C300.5,138.9,300.1,139.7,300.1,140.6z"/>
		<path class="st6" d="M330.4,123.2l-1.7,4.8h-6.4c-1.7,0.1-3,1.6-2.9,3.3c0.1,1.1,0.7,2.1,1.7,2.6c0.4,0.2,0.8,0.3,1.2,0.3l3.8-0.2
			l0.1,0l3.3-0.2c2-0.1,3.6-1.6,3.9-3.6l1.5-6.5c-0.6,0.4-1.3,0.6-2,0.6C331.9,124.3,331,123.9,330.4,123.2z"/>
		<path class="st19" d="M334.5,120.7c-0.1,0.9-0.8,1.5-1.7,1.5c-0.8-0.1-1.4-0.7-1.5-1.5h-2.1c0,2,1.6,3.6,3.6,3.6
			c2,0,3.6-1.6,3.6-3.6H334.5z"/>
		<path class="st33" d="M300.2,137.8l1,0.5l6.1,3.4v11.7v3.3l0.5,0.2v0v-3.3V142l10.5,5.8c0,0.2,0,0.4,0,0.5v4.3v6.6v0.3v0.1v3.1
			v0.1l12.6-7.9v-3.4l-3.3,2.1l0-5.4c0-1.7-0.9-3.2-2.4-4l-6.6,3.7l0-2.5l-0.1,0l-18.2-10.1V137.8z"/>
		<polygon class="st35" points="325.1,144.2 327.5,142.9 327.5,140.5 321.4,143.9 321.4,143.9 319.9,144.7 319.9,144.8 318.5,145.6 
			318.6,148 		"/>
		<path class="st36" d="M318.9,116.4c0.5,0.6,1.3,1,2.1,1v-1.1c-0.5,0-0.9-0.3-1.2-0.6L318.9,116.4z"/>
		<path class="st36" d="M320.3,113c0,0.3,0.1,0.6,0.4,0.7c0,0,0,0,0,0c0,0,0,0,0,0c0.1,0,0.2,0.1,0.3,0.1c0,0,0,0,0,0v-1.7v0
			C320.6,112.2,320.3,112.6,320.3,113z"/>
	</g>
	<path class="st26" d="M366.2,103.9l4.3,2.3h0.2L366.2,103.9L366.2,103.9z"/>
	<polygon class="st26" points="358.1,129.6 358,129.7 358.1,129.6 	"/>
	<polygon class="st26" points="349.4,109.1 347.8,108.2 349.4,109.1 	"/>
	<polygon class="st26" points="369.8,118.6 367.9,119.7 369.8,118.6 	"/>
	<path class="st26" d="M353.2,111.3L353.2,111.3l6.8,3.9l0,0L353.2,111.3z"/>
	<polygon class="st26" points="377,114.6 377,114.6 377,114.6 	"/>
	<polygon class="st26" points="364,117.5 364,117.5 367.9,119.7 367.9,119.7 	"/>
	<path class="st26" d="M372.4,117.2L372.4,117.2l-0.9,0.5l0,0L372.4,117.2z"/>
	<path class="st11" d="M349.5,109.1c2,0,3.7,0.8,3.7,1.7v0.6l6.8,3.9h0.2c2,0,3.7,0.7,3.7,1.7v0.6l3.9,2.2l2-1.1v-0.4
		c0-0.3,0.5-0.6,1.2-0.6c0.2,0,0.3,0,0.5,0l0.9-0.5l0,0l2-1.1v-0.4c0-0.3,0.5-0.5,1.2-0.5c0.2,0,0.3,0,0.5,0l0.9-0.5l0,0l2-1.1v-0.4
		c0-0.3,0.5-0.6,1.2-0.6c0.2,0,0.3,0,0.5,0l0.9-0.5l-5.9-3v0.6c0,0.8-1.5,1.6-3.5,1.6s-3.5-0.7-3.5-1.6v-2.1c0,0.9,1.5,1.6,3.5,1.6
		s3.5-0.7,3.5-1.6s-1.1-1.3-2.6-1.5l-1.3,0.7l-5.7-3v1c0,0.9-1.5,1.6-3.5,1.6s-3.5-0.7-3.5-1.6v-2.1c0,0.8,1.5,1.6,3.5,1.6
		c1,0,2.1-0.2,3-0.8l-4.2-2.2h-0.2l0,0l0,0c-0.7,0.1-1.3,0.4-1.8,0.9l-11.7,6l1.5,0.9L349.5,109.1z M362.9,111.2
		c0,0.9,1.5,1.6,3.5,1.6s3.5-0.7,3.5-1.6v2.1c0,0.9-1.5,1.6-3.5,1.6s-3.5-0.7-3.5-1.6V111.2z M353.1,106.6c0,0.9,1.5,1.6,3.5,1.6
		s3.5-0.7,3.5-1.6v2.1c0,0.8-1.5,1.5-3.5,1.5s-3.5-0.7-3.5-1.5V106.6z"/>
	<path class="st13" d="M379.2,115.9L379.2,115.9l-2.2-1.3l0,0L379.2,115.9z"/>
	<path class="st14" d="M382.8,116.1l2.9-1.6L382.8,116.1L382.8,116.1z"/>
	<path class="st14" d="M382.3,114.9c-0.7,0-1.2-0.2-1.2-0.6v0.7c0,0.3,0.5,0.6,1.2,0.6s1.2-0.2,1.2-0.6v-0.7
		C383.5,114.7,383,114.9,382.3,114.9z"/>
	<path class="st14" d="M379,113.8c0,0.3,0.5,0.6,1.2,0.6s1.2-0.2,1.2-0.6v-0.7c0,0.3-0.5,0.6-1.2,0.6s-1.2-0.2-1.2-0.6V113.8z"/>
	<path class="st15" d="M380.2,112.6c-0.7,0-1.2,0.2-1.2,0.6s0.5,0.6,1.2,0.6s1.2-0.2,1.2-0.6v0.7c0,0.3-0.5,0.6-1.2,0.6
		s-1.2-0.2-1.2-0.6v-0.3l-2,1.1l2.2,1.3c1.2-0.2,2.3-0.1,3.5,0.2l3-1.6l-4.1-2.4l-0.9,0.5C380.5,112.6,380.3,112.6,380.2,112.6z
		 M383.5,115.1c0,0.3-0.5,0.6-1.2,0.6s-1.2-0.2-1.2-0.6v-0.7c0,0.3,0.5,0.6,1.2,0.6s1.2-0.2,1.2-0.6V115.1z"/>
	<polygon class="st13" points="372.4,117.2 376.4,119.5 376.4,119.5 376.5,119.5 372.4,117.1 372.4,117.2 372.4,117.2 	"/>
	<polygon class="st14" points="376.5,119.5 376.5,119.5 376.4,119.5 376.4,119.5 376.5,119.5 376.5,119.5 376.5,119.4 	"/>
	<path class="st15" d="M376.5,119.5L376.5,119.5L376.5,119.5l0.1-1.7c0,0,0-0.1,0-0.1v-0.7c0,0.1,0.1,0.2,0.2,0.3
		c0.6-0.8,1.5-1.2,2.5-1.3l-2.1-1.3l0,0l-0.9,0.5c-0.2,0-0.3,0-0.5,0c-0.7,0-1.2,0.2-1.2,0.5s0.5,0.6,1.2,0.6s1.2-0.2,1.2-0.6v0.7
		c0,0.3-0.5,0.6-1.2,0.6s-1.2-0.2-1.2-0.6v-0.3l-2,1.1L376.5,119.5z"/>
	<path class="st14" d="M376.5,116.9v0.7c0,0,0,0.1,0,0.1v-0.2c0-0.1,0-0.3,0.1-0.4C376.6,117.1,376.5,117,376.5,116.9z"/>
	<path class="st14" d="M374.4,116.4c0,0.3,0.5,0.6,1.2,0.6s1.2-0.2,1.2-0.6v-0.7c0,0.3-0.5,0.6-1.2,0.6s-1.2-0.2-1.2-0.6V116.4z"/>
	<polygon class="st13" points="371.9,122 367.9,119.7 367.9,119.7 371.9,122 371.2,122.4 371.2,122.4 371.9,122.1 371.9,122 	"/>
	<polygon class="st14" points="371.9,122 371.9,122 371.9,122 371.9,122.1 373,121.4 	"/>
	<path class="st15" d="M372.4,117.2L372.4,117.2l-0.9,0.5l0,0c-0.2,0-0.3,0-0.5,0c-0.7,0-1.2,0.2-1.2,0.6s0.5,0.6,1.2,0.6
		s1.2-0.2,1.2-0.6v0.7c0,0.3-0.5,0.6-1.2,0.6s-1.2-0.2-1.2-0.6v-0.3l-2,1.1l4,2.3l0,0l1.1-0.6l3.5-1.9l0,0L372.4,117.2z
		 M374.4,120.2c0,0.3-0.5,0.6-1.2,0.6s-1.2-0.2-1.2-0.6v-0.7c0,0.3,0.5,0.6,1.2,0.6s1.2-0.2,1.2-0.6V120.2z"/>
	<path class="st14" d="M373.2,120c-0.7,0-1.2-0.2-1.2-0.6v0.7c0,0.3,0.5,0.6,1.2,0.6s1.2-0.2,1.2-0.6v-0.7
		C374.4,119.8,373.8,120,373.2,120z"/>
	<path class="st14" d="M369.8,118.9c0,0.3,0.5,0.6,1.2,0.6s1.2-0.2,1.2-0.6v-0.7c0,0.3-0.5,0.6-1.2,0.6s-1.2-0.2-1.2-0.6v0.4l0,0
		V118.9z"/>
	<polygon class="st8" points="358.1,129.6 358.1,129.6 364.9,125.9 364.9,125.9 	"/>
	<path class="st8" d="M370.1,123L370.1,123l1.1-0.6l0,0L370.1,123z"/>
	<polygon class="st7" points="358,129.7 334.1,115.4 334.1,130.9 334.1,131.3 334.2,146 358,160.1 358,160.1 358,160.1 	"/>
	<path class="st9" d="M364.9,125.9v-1.2c0-1,1.8-1.8,4-1.8c0.4,0,0.8,0,1.2,0.1l1.1-0.6l0.6-0.4l-4-2.3l-3.9-2.2v1.6
		c0,0.9-1.7,1.7-3.7,1.7c-0.4,0-0.7,0-1.1-0.1c0.3,0.2,0.5,0.5,0.5,0.8v2.2c0,0.9-1.7,1.7-3.7,1.7s-3.7-0.8-3.7-1.7v-2.2
		c0-0.9,1.7-1.7,3.7-1.7c0.4,0,0.7,0,1.1,0.1c-0.3-0.2-0.5-0.5-0.5-0.8v-2.2c0-0.9,1.5-1.6,3.4-1.7l-6.8-3.9v1.7
		c0,0.9-1.7,1.7-3.7,1.7c-0.9,0-1.8-0.1-2.6-0.5c0.3,0.2,0.6,0.5,0.6,0.9v2.2c0,0.9-1.7,1.7-3.7,1.7s-3.7-0.7-3.7-1.7v-2.2
		c0-0.9,1.7-1.7,3.7-1.7c0.9,0,1.8,0.1,2.6,0.5c-0.3-0.2-0.6-0.5-0.6-0.9v-2.2c0-0.9,1.6-1.6,3.5-1.7l-1.5-0.9l-13.8,7.2l24,14.3
		l0.1-0.1L364.9,125.9z"/>
	<path class="st16" d="M353.2,110.8c0,0.9-1.7,1.7-3.7,1.7s-3.7-0.8-3.7-1.7v2.2c0,0.4,0.3,0.7,0.6,0.9c0.2,0.1,0.4,0.2,0.5,0.3
		c0.8,0.3,1.7,0.5,2.6,0.5c2,0,3.7-0.8,3.7-1.7v-1.7l0,0V110.8z"/>
	<path class="st17" d="M349.5,112.4c2,0,3.7-0.8,3.7-1.7s-1.7-1.7-3.7-1.7h-0.2c-2,0-3.5,0.8-3.5,1.7S347.5,112.4,349.5,112.4z"/>
	<path class="st16" d="M364,116.8c0,0.9-1.7,1.7-3.7,1.7s-3.7-0.8-3.7-1.7v2.2c0,0.3,0.2,0.6,0.5,0.8c0.8,0.1,1.5,0.3,2.1,0.8
		c0.4,0,0.7,0.1,1.1,0.1c2,0,3.7-0.8,3.7-1.7V116.8z"/>
	<path class="st17" d="M360.3,118.5c2,0,3.7-0.8,3.7-1.7s-1.7-1.7-3.7-1.7H360c-1.9,0.1-3.4,0.8-3.4,1.7S358.2,118.5,360.3,118.5z"
		/>
	<path class="st16" d="M343.9,116.7c-2,0-3.7-0.7-3.7-1.7v2.2c0,0.9,1.7,1.7,3.7,1.7s3.7-0.7,3.7-1.7v-2.2
		C347.5,116,345.9,116.7,343.9,116.7z"/>
	<path class="st17" d="M343.9,113.4c-2,0-3.7,0.7-3.7,1.7s1.7,1.7,3.7,1.7s3.7-0.7,3.7-1.7c0-0.4-0.3-0.7-0.6-0.9
		c-0.2-0.1-0.3-0.2-0.5-0.3C345.6,113.6,344.7,113.4,343.9,113.4z"/>
	<path class="st16" d="M356,123.2c-2,0-3.7-0.8-3.7-1.7v2.2c0,0.9,1.7,1.7,3.7,1.7s3.7-0.8,3.7-1.7v-2.2
		C359.7,122.4,358,123.2,356,123.2z"/>
	<path class="st17" d="M356,119.8c-2,0-3.7,0.7-3.7,1.7s1.7,1.7,3.7,1.7s3.7-0.8,3.7-1.7c0-0.3-0.2-0.6-0.5-0.8
		c-0.6-0.4-1.4-0.7-2.1-0.8C356.7,119.8,356.4,119.8,356,119.8z"/>
	<polygon class="st18" points="371.7,144.8 371.7,137.7 358,129.7 358,129.7 358,160.1 358,160.1 371.5,167.2 371.5,144.9 	"/>
	<path class="st19" d="M398.9,121.7l-27.2,16v7.1l3.3-1.8v-0.8c0-0.5,1-1,2.2-1c0.3,0,0.6,0,0.9,0.1l1.6-0.9l7.2,4.3l-0.1,14
		l12.1-6.8L398.9,121.7z"/>
	<path class="st20" d="M371.7,137.7l27.2-16l-13.2-7.2l-2.9,1.6c1.1,0.3,1.8,0.9,1.8,1.5v2.4c0,1-1.8,1.8-4,1.8s-4-0.8-4-1.8v-0.5
		l-0.1,0.1l-3.5,1.9l-1.1,0.6l-0.7,0.4l-1.1,0.6c1.6,0.2,2.8,0.9,2.8,1.7v2.4c0,1-1.8,1.8-4,1.8s-4-0.8-4-1.8v-1.2l-6.7,3.7
		l-0.1,0.1L371.7,137.7z M383.7,122.1c0-1,1.8-1.8,4-1.8s4,0.8,4,1.8v2.4c0,1-1.8,1.8-4,1.8s-4-0.8-4-1.8V122.1z M371.8,128.9
		c0-1,1.8-1.8,4-1.8s4,0.8,4,1.8v2.4c0,1-1.8,1.8-4,1.8s-4-0.8-4-1.8V128.9z"/>
	<path class="st18" d="M387.7,126.3c2.2,0,4-0.8,4-1.8v-2.4c0,1-1.8,1.8-4,1.8s-4-0.8-4-1.8v2.4
		C383.7,125.5,385.5,126.3,387.7,126.3z"/>
	<path class="st21" d="M387.7,123.9c2.2,0,4-0.8,4-1.8s-1.8-1.8-4-1.8s-4,0.8-4,1.8S385.5,123.9,387.7,123.9z"/>
	<path class="st18" d="M380.5,119.4c-2.2,0-4-0.8-4-1.8v2.4c0,1,1.8,1.8,4,1.8s4-0.8,4-1.8v-2.4
		C384.5,118.6,382.8,119.4,380.5,119.4z"/>
	<path class="st21" d="M380.5,115.8c-0.4,0-0.9,0-1.3,0.1h-0.1c-1,0-1.9,0.5-2.5,1.3c-0.1,0.1-0.1,0.3-0.1,0.4c0,1,1.8,1.8,4,1.8
		s4-0.8,4-1.8c0-0.6-0.7-1.2-1.8-1.5h0C382,115.9,381.3,115.8,380.5,115.8z"/>
	<path class="st18" d="M375.8,133.1c2.2,0,4-0.8,4-1.8v-2.4c0,1-1.8,1.8-4,1.8s-4-0.8-4-1.8v2.4
		C371.8,132.3,373.6,133.1,375.8,133.1z"/>
	<path class="st21" d="M375.8,130.7c2.2,0,4-0.8,4-1.8s-1.8-1.8-4-1.8s-4,0.8-4,1.8S373.6,130.7,375.8,130.7z"/>
	<path class="st18" d="M368.9,126.5c-2.2,0-4-0.8-4-1.8v2.4c0,1,1.8,1.8,4,1.8s4-0.8,4-1.8v-2.4
		C372.9,125.7,371.1,126.5,368.9,126.5z"/>
	<path class="st21" d="M368.9,122.9c-2.2,0-4,0.8-4,1.8s1.8,1.8,4,1.8s4-0.8,4-1.8c0-0.8-1.2-1.5-2.8-1.7h0
		C369.7,123,369.3,122.9,368.9,122.9z"/>
	<path class="st12" d="M356.6,110.2c1.9,0,3.5-0.7,3.5-1.5v-2.1c0,0.9-1.5,1.6-3.5,1.6s-3.5-0.7-3.5-1.6v2.1
		C353.1,109.5,354.7,110.2,356.6,110.2z"/>
	<path class="st12" d="M365.7,103.5c-0.9,0.5-1.9,0.8-3,0.8c-1.9,0-3.5-0.7-3.5-1.6v2.1c0,0.9,1.5,1.6,3.5,1.6s3.5-0.7,3.5-1.6v-1
		L365.7,103.5z"/>
	<path class="st12" d="M366.4,114.8c1.9,0,3.5-0.7,3.5-1.6v-2.1c0,0.9-1.5,1.6-3.5,1.6s-3.5-0.7-3.5-1.6v2.1
		C362.9,114.1,364.4,114.8,366.4,114.8z"/>
	<path class="st12" d="M372.3,109.1c-1.9,0-3.5-0.7-3.5-1.6v2.1c0,0.8,1.5,1.6,3.5,1.6s3.5-0.7,3.5-1.6v-2.1
		C375.8,108.4,374.2,109.1,372.3,109.1z"/>
	<polygon class="st18" points="365.8,103.5 366.2,103.8 370.8,106.2 371.9,106.8 372.1,91.6 358.4,83.6 358.4,99.6 361.5,101.3 	"/>
	<polygon class="st19" points="371.9,106.8 373.2,106.1 399.3,91.3 399.3,75.6 372.1,91.6 	"/>
	<path class="st20" d="M399.3,75.6L386,68.4l-2.9,1.6c1.1,0.3,1.8,0.9,1.8,1.5v2.4c0,1-1.8,1.8-4,1.8s-4-0.8-4-1.8v-0.5l-6.4,3.5
		c1.6,0.2,2.8,0.9,2.8,1.7V81c0,1-1.8,1.8-4,1.8s-4-0.8-4-1.8v-1.2l-6.8,3.8l13.7,8L399.3,75.6z M384.1,76c0-1,1.8-1.8,4-1.8
		s4,0.8,4,1.8v2.4c0,1-1.8,1.8-4,1.8s-4-0.8-4-1.8V76z M372.2,82.8c0-1,1.8-1.8,4-1.8s4,0.8,4,1.8v2.4c0,1-1.8,1.8-4,1.8
		s-4-0.8-4-1.8V82.8z"/>
	<path class="st18" d="M388.1,80.2c2.2,0,4-0.8,4-1.8V76c0,1-1.8,1.8-4,1.8s-4-0.8-4-1.8v2.4C384.1,79.4,385.9,80.2,388.1,80.2z"/>
	<path class="st21" d="M388.1,77.8c2.2,0,4-0.8,4-1.8s-1.8-1.8-4-1.8s-4,0.8-4,1.8S385.9,77.8,388.1,77.8z"/>
	<path class="st18" d="M380.9,75.7c2.2,0,4-0.8,4-1.8v-2.4c0,1-1.8,1.8-4,1.8s-4-0.8-4-1.8v2.4C376.9,74.9,378.7,75.7,380.9,75.7z"
		/>
	<path class="st21" d="M380.9,73.3c2.2,0,4-0.8,4-1.8c0-0.6-0.7-1.2-1.8-1.5c-0.7-0.2-1.5-0.3-2.2-0.3c-2.2,0-4,0.8-4,1.8
		S378.7,73.3,380.9,73.3z"/>
	<path class="st18" d="M376.2,87c2.2,0,4-0.8,4-1.8v-2.4c0,1-1.8,1.8-4,1.8s-4-0.8-4-1.8v2.4C372.2,86.2,374,87,376.2,87z"/>
	<path class="st21" d="M376.2,84.6c2.2,0,4-0.8,4-1.8s-1.8-1.8-4-1.8s-4,0.8-4,1.8S374,84.6,376.2,84.6z"/>
	<path class="st18" d="M369.2,82.8c2.2,0,4-0.8,4-1.8v-2.4c0,1-1.8,1.8-4,1.8s-4-0.8-4-1.8V81C365.3,82,367,82.8,369.2,82.8z"/>
	<polygon class="st13" points="378.7,171.4 378.7,171.4 378.7,171.4 	"/>
	<polygon class="st13" points="378.7,149 378.7,149 371.5,144.9 371.5,167.2 371.5,167.2 378.7,171.4 	"/>
	<polygon class="st14" points="378.7,149 378.7,149 378.7,149 378.7,171.4 378.7,171.4 378.7,171.4 378.7,171.4 386.8,166.7 
		386.8,158.6 386.9,144.6 	"/>
	<path class="st15" d="M378.7,149L378.7,149l8.2-4.4l-7.2-4.3l-1.6,0.9c-0.3-0.1-0.6-0.1-0.9-0.1c-1.2,0-2.2,0.4-2.2,1s1,1,2.2,1
		s2.2-0.4,2.2-1v1.3c0,0.5-1,1-2.2,1s-2.2-0.4-2.2-1v-0.5l-3.3,1.8l-0.2,0.1L378.7,149z M378.8,144.4c0,0.5,1,1,2.2,1s2.2-0.4,2.2-1
		v1.3c0,0.5-1,1-2.2,1s-2.2-0.4-2.2-1V144.4z"/>
	<path class="st14" d="M381,146.7c1.2,0,2.2-0.4,2.2-1v-1.3c0,0.5-1,1-2.2,1s-2.2-0.4-2.2-1v1.3C378.8,146.3,379.8,146.7,381,146.7z
		"/>
	<path class="st14" d="M377.2,144.4c1.2,0,2.2-0.4,2.2-1v-1.3c0,0.5-1,1-2.2,1s-2.2-0.4-2.2-1v1.3C375,144,376,144.4,377.2,144.4z"
		/>
	<path class="st21" d="M369.2,80.4c2.2,0,4-0.8,4-1.8c0-0.8-1.2-1.5-2.8-1.7c-0.4-0.1-0.8-0.1-1.2-0.1c-2.2,0-4,0.8-4,1.8
		S367,80.4,369.2,80.4z"/>
	<polygon class="st37" points="378.7,171.4 439.9,149 398.7,124.5 398.9,151.8 386.4,158.8 386.8,166.7 	"/>
	<path class="st28" d="M549.8,133.5c-0.4-0.4-1-0.7-1.6-0.7c-0.5,0-1,0.2-1.4,0.5c-0.5,0.4-0.8,1.1-0.8,1.8c0,1.2,1,2.2,2.2,2.2
		s2.2-1,2.2-2.2c0-0.2,0-0.5-0.1-0.7l3.3-1.7l-0.9-0.6L549.8,133.5z M548.2,136.3c-0.7,0-1.2-0.6-1.2-1.2s0.6-1.2,1.2-1.2
		s1.2,0.6,1.2,1.2S548.9,136.3,548.2,136.3z"/>
	<path class="st38" d="M629.8,143.1c-0.3,1.2,0.4,2.4,1.6,2.8c1.2,0.4,2.4-0.3,2.8-1.5s-0.3-2.4-1.5-2.8c0,0-0.1,0-0.1,0
		c-0.2-0.1-0.4-0.1-0.6-0.1c-0.6,0-1.1,0.2-1.5,0.6l-5.3-3.2l-0.9,0.6l5.7,3.4C629.9,143,629.9,143,629.8,143.1z M630.8,143.4
		c0.2-0.7,0.9-1,1.5-0.9c0.7,0.2,1,0.9,0.9,1.5c-0.1,0.3-0.3,0.6-0.6,0.7c-0.3,0.2-0.7,0.2-1,0.1c-0.3-0.1-0.6-0.3-0.8-0.6
		C630.7,144,630.7,143.7,630.8,143.4L630.8,143.4z"/>
	<path class="st28" d="M577.2,151.4l0.9,0.6l14-9.7l-0.2-1.1L577.2,151.4z"/>
	<g>
		<path class="st26" d="M366.4,41.2c1.1,0,2,0.9,2,2c0,0,0,0,0,0C368.4,42.1,367.5,41.2,366.4,41.2c-1.1-0.1-2,0.8-2,1.9
			c0,0,0,0,0,0C364.5,42.1,365.3,41.2,366.4,41.2z"/>
		<path class="st26" d="M395.8,36.8h-5.9v0.1L395.8,36.8c2.7,0.1,5,1.7,6.1,4C400.9,38.4,398.5,36.8,395.8,36.8z"/>
		<polygon class="st26" points="395.6,49.9 395.6,49.9 395.6,49.9 		"/>
		<polygon class="st26" points="395.6,49.9 395.6,49.9 405.7,64.1 405.7,64.1 		"/>
		<path class="st26" d="M395.2,41.2c1.1,0,2,0.9,2,2c0,0,0,0,0,0C397.2,42.1,396.3,41.2,395.2,41.2c-1.1-0.1-2,0.8-2,1.9
			c0,0,0,0,0,0C393.2,42.1,394.1,41.2,395.2,41.2z"/>
		<path class="st1" d="M395.6,49.9L395.6,49.9L395.6,49.9L395.6,49.9l10.1,14.2l0,0l0,0L388.2,91l19.6-27.3l-9.9-14
			c-0.4,0.1-0.9,0.2-1.3,0.2l-0.2,0c0,0,0,0,0,0H395.6z"/>
		<polygon class="st1" points="365.7,64.4 369.8,77.2 370.8,77.1 367.8,64.4 376,49.9 373.9,49.9 		"/>
		<path class="st0" d="M388.2,91l17.5-26.9l0,0l-10.1-14.2h0h0l-0.1,0l0,0h0h0.7c0,0,0,0,0,0c1.7-0.1,3.2-0.8,4.3-1.9
			c1.2-1.2,1.9-2.8,1.9-4.6c0-0.9-0.2-1.8-0.6-2.6c-1-2.3-3.4-3.9-6-3.9h-5.9v-0.1v-4c0-2.1-0.8-4.1-2.1-5.7
			c-0.8-0.9-1.8-1.7-2.9-2.3c-1.2-0.6-2.5-0.9-3.8-0.8c-0.6,0-1.2,0.1-1.7,0.2c-3.9,0.9-6.6,4.3-6.6,8.3v4.4h-6.5
			c-1.7,0-3.4,0.7-4.6,1.9c-2.5,2.6-2.5,6.7,0.1,9.2c1.2,1.2,2.9,1.9,4.6,1.9h0.5l-10.1,14.2l9.3,14.2l3.8-1.1l0-0.1l-4.1-12.8
			l8.2-14.5h2.1h12.5l8.2,14.5L388.2,91z M364.4,43.2C364.4,43.2,364.4,43.2,364.4,43.2C364.4,43.2,364.4,43.2,364.4,43.2
			c0-1.2,0.9-2.1,2-2.1c1.1,0,2,0.9,2,2c0,0,0,0,0,0c0,0,0,0,0,0c0,1.1-0.9,2-2,2C365.3,45.2,364.4,44.3,364.4,43.2z M381.1,36.3
			c-2.2,0-3.9-1.8-3.9-3.9s1.8-3.9,3.9-3.9s3.9,1.8,3.9,3.9S383.3,36.3,381.1,36.3z M393.2,43.2c0-1.1,0.9-2,2-2c1.1,0,2,0.9,2,2
			c0,0,0,0,0,0c0,0,0,0,0,0c0,1.1-0.9,2-2,2C394.1,45.2,393.2,44.3,393.2,43.2C393.2,43.2,393.2,43.2,393.2,43.2
			C393.2,43.2,393.2,43.2,393.2,43.2z"/>
		<path class="st1" d="M372.8,36.8v-1.2h-5.4c-2.3,0.2-4.3,1.3-5.7,3.1c1.2-1.3,2.9-2,4.7-1.9H372.8z"/>
		<path class="st1" d="M389.9,36.8h5.9c2.7,0,5.1,1.7,6.1,4c0.4,0.8,0.6,1.7,0.6,2.6c0,1.8-0.7,3.4-1.9,4.6c1.7-1.5,2.8-3.6,2.9-5.9
			c-0.1-3.6-3-6.5-6.6-6.5H391v-4c0-3.5-2-6.7-5.2-8.2c0-0.2,0-0.3,0-0.5V0l-0.9,0.7h0v24c1.2,0.6,2.1,1.4,2.9,2.3
			c1.3,1.6,2.1,3.6,2.1,5.7V36.8z"/>
		<path class="st0" d="M384.9,0.7h-5.5l0,23.4c0.6-0.1,1.1-0.2,1.7-0.2c1.3,0,2.6,0.3,3.8,0.8L384.9,0.7L384.9,0.7z"/>
		<path class="st36" d="M395.2,45.2c1.1,0,2-0.9,2-2c0,0,0,0,0,0c0-1.1-0.9-2-2-2c-1.1,0-2,0.9-2,2c0,0,0,0,0,0
			C393.2,44.3,394.1,45.2,395.2,45.2z"/>
		<path class="st36" d="M368.4,43.2C368.4,43.2,368.4,43.2,368.4,43.2c0-1.1-0.9-2-2-2c-1.1,0-2,0.9-2,2c0,0,0,0,0,0
			c0,1.1,0.9,2,2,2C367.5,45.2,368.4,44.3,368.4,43.2z"/>
		<circle class="st36" cx="381.1" cy="32.4" r="3.9"/>
		<polygon class="st39" points="384.9,0.7 385.8,0 385.8,0 380.2,0 379.3,0.7 379.3,0.7 		"/>
	</g>
	<g class="st40">
		
			<image style="overflow:visible;enable-background:new    ;" width="614" height="490" xlink:href="CEF2AB26AFF7C28F.png"  transform="matrix(0.2395 0 0 0.2395 516.2704 82.63)">
		</image>
	</g>
	
		<linearGradient id="SVGID_1_" gradientUnits="userSpaceOnUse" x1="378.66" y1="133.1" x2="378.66" y2="163.16" gradientTransform="matrix(1 0 0 -1 0 270)">
		<stop  offset="0.12" style="stop-color:#FFD464"/>
		<stop  offset="0.18" style="stop-color:#FFD873;stop-opacity:0.91"/>
		<stop  offset="0.35" style="stop-color:#FFE49D;stop-opacity:0.63"/>
		<stop  offset="0.52" style="stop-color:#FFEDC0;stop-opacity:0.41"/>
		<stop  offset="0.67" style="stop-color:#FFF5DB;stop-opacity:0.23"/>
		<stop  offset="0.81" style="stop-color:#FFFAEF;stop-opacity:0.11"/>
		<stop  offset="0.92" style="stop-color:#FFFEFB;stop-opacity:3.000000e-02"/>
		<stop  offset="1" style="stop-color:#FFFFFF;stop-opacity:0"/>
	</linearGradient>
	<polygon class="st41" points="358.4,99.6 358,129.7 371.7,137.7 398.9,121.7 399.3,91.3 371.9,106.8 	"/>
	<polygon class="st26" points="592,47.3 574.9,75.2 574.9,75.2 589.6,66.7 601.2,73.5 595.5,52.7 594.5,48.8 	"/>
	<path class="st22" d="M575.8,102.8L575.8,102.8l-0.3,11.9l-8.2-4.7l0.3-12.5l-15.1-9.5l0.7,43.4c2,0.7,36.8,22.4,36.8,22.4v-42.1
		L575.8,102.8z"/>
	<polygon class="st4" points="589.9,111.8 589.9,153.8 608.9,143.1 608.4,100.4 	"/>
	<polygon class="st4" points="611.2,98.7 611.9,141.3 611.7,141.4 628,132.1 627.4,88.8 611.2,98.7 	"/>
	<polygon class="st6" points="627.4,88.8 605,75.7 611.2,98.7 	"/>
	<path class="st6" d="M567.6,97.6l8.9-6.6l8.2,5.8l-8.9,6l14.1,8.9l18.5-11.4l0,0l-9.1-18.7l-7.5-3.5h-22.2l-17.2,9.9L567.6,97.6
		L567.6,97.6z M576.6,82.6L576.6,82.6l-0.8,2l-0.4-0.3l0,0l0.6-1.3l-1.8,0.4l-0.4-0.3L576.6,82.6L576.6,82.6z M587,92.4L587,92.4
		L587,92.4L587,92.4l-0.2-1.7l-1.1,0.8l-0.4-0.3l1.8-1.3h0l0,0l0.1,1.7l1.1-0.8l0.4,0.3L587,92.4z M592.2,94L592.2,94
		c0-0.2-0.2-0.4-0.3-0.5c-0.4-0.3-1-0.3-1.4,0c-0.4,0.3-0.3,0.7,0.1,1c0.2,0.1,0.5,0.2,0.8,0.2h0.1v0.4l0,0c-0.4,0-0.8-0.1-1.1-0.3
		c-0.7-0.5-0.7-1.1-0.2-1.5c0.7-0.4,1.5-0.4,2.1,0.1c0.3,0.2,0.5,0.4,0.5,0.7l0,0L592.2,94z M595,96.6l-0.8,0.6l-0.3-0.2h0l0.7-0.5
		l0.2-1.3l0.5,0.3l-0.2,0.9l1.3-0.1l0.5,0.3L595,96.6z M597.5,88.4h-0.9l-0.3-1.8h0.9L597.5,88.4z M596.7,83.2L597,85H596l-0.3-1.8
		H596.7z M595.4,82.3l0.5,3.4l0.5,3.4l-4.9-0.2l-0.6-3.4l-0.5-3.4L595.4,82.3z M590.3,82.1l0.5,3.5l-5-0.3l-0.5-3.5L590.3,82.1z
		 M582.9,88.4l0.2-1.3l0.5,0.3l-0.1,0.9l1.3-0.1l0.5,0.3l-1.9,0.2l-0.8,0.5l-0.4-0.2l0,0L582.9,88.4z M578.5,85.8L578.5,85.8
		c0.1,0.2,0.2,0.4,0.4,0.5c0.2,0.2,0.5,0.2,0.6,0.1s0.1-0.2-0.2-0.5s-0.5-0.7-0.2-0.9c0.4-0.2,0.9-0.2,1.3,0.1
		c0.2,0.1,0.4,0.4,0.5,0.6l0,0l-0.5,0.1v-0.1c-0.1-0.2-0.2-0.3-0.3-0.4c-0.2-0.2-0.4-0.2-0.6-0.1s-0.1,0.2,0.2,0.5s0.5,0.7,0.2,0.9
		c-0.4,0.2-1,0.2-1.4-0.1c-0.3-0.2-0.5-0.4-0.6-0.7l0,0L578.5,85.8z"/>
	<polygon class="st6" points="574.9,75.2 593.4,74.8 597.3,76.8 601.4,78.8 604.1,84.1 601.2,73.5 589.6,66.7 	"/>
	<polygon class="st10" points="576.4,91.1 567.6,97.6 575.7,102.9 575.8,102.8 584.7,96.8 	"/>
	<polygon class="st42" points="567.6,97.6 567.6,97.7 567.2,110.1 575.5,114.8 575.7,102.9 	"/>
	<path class="st3" d="M578.5,86.5c0.4,0.3,0.9,0.4,1.4,0.1c0.3-0.2,0.2-0.5-0.2-0.9s-0.3-0.4-0.2-0.5s0.4-0.1,0.6,0.1
		c0.2,0.1,0.3,0.3,0.3,0.4v0.1l0.5-0.1l0,0c-0.1-0.3-0.3-0.5-0.5-0.6c-0.4-0.3-0.9-0.3-1.3-0.1c-0.3,0.2-0.2,0.5,0.2,0.9
		s0.3,0.4,0.2,0.5s-0.4,0.1-0.6-0.1c-0.2-0.1-0.3-0.3-0.4-0.5l0,0h-0.5l0,0C578,86.1,578.2,86.4,578.5,86.5z"/>
	<polygon class="st3" points="574.1,83.6 575.9,83.1 575.4,84.4 575.4,84.4 575.8,84.7 576.6,82.7 576.6,82.6 576.6,82.6 
		573.7,83.3 	"/>
	<polygon class="st3" points="587.4,91.6 587.3,89.9 587.2,89.9 587.2,89.8 585.3,91.2 585.7,91.4 586.8,90.6 587,92.3 587,92.3 
		587,92.3 587,92.4 588.9,91 588.5,90.8 	"/>
	<polygon class="st3" points="590.8,85.6 590.2,82.1 585.2,81.8 585.8,85.3 	"/>
	<polygon class="st3" points="591.5,88.9 596.4,89.2 595.9,85.7 595.4,82.3 590.5,82.1 591,85.5 	"/>
	<polygon class="st3" points="596.9,85 596.7,83.2 595.7,83.1 596,84.9 	"/>
	<polygon class="st3" points="596.5,88.3 597.4,88.4 597.2,86.6 596.2,86.5 	"/>
	<polygon class="st0" points="582.5,89.2 583.3,88.6 585.2,88.4 584.7,88.1 583.4,88.2 583.5,87.3 583.1,87 582.9,88.3 582.1,88.9 
		582.2,88.9 	"/>
	<polygon class="st0" points="595.1,96.2 595.2,95.3 594.7,94.9 594.5,96.3 593.8,96.8 593.8,96.9 594.2,97.1 595,96.6 596.8,96.4 
		596.3,96.1 	"/>
	<path class="st3" d="M592.1,93.2c-0.6-0.5-1.5-0.5-2.1-0.1c-0.5,0.4-0.5,1,0.2,1.5c0.3,0.2,0.7,0.3,1.1,0.3l0,0v-0.4h-0.1
		c-0.3,0-0.5-0.1-0.8-0.2c-0.4-0.3-0.5-0.7-0.1-1c0.4-0.3,1-0.3,1.4,0c0.2,0.1,0.3,0.3,0.3,0.5l0,0h0.5l0,0
		C592.5,93.6,592.4,93.3,592.1,93.2z"/>
	<polygon class="st43" points="574.9,75.2 569.6,78.2 569.6,78.2 574.9,75.2 	"/>
	<polygon class="st6" points="599.3,81.7 608.4,100.3 608.4,100.3 604.1,84.1 601.4,78.8 597.3,76.8 593.4,74.8 574.9,75.2 
		569.6,78.2 591.8,78.2 	"/>
	<polygon class="st43" points="599.3,81.7 608.4,100.3 608.4,100.3 604.1,84.1 601.4,78.8 597.3,76.8 593.4,74.8 574.9,75.2 
		569.6,78.2 591.8,78.2 	"/>
	<polygon class="st19" points="608.5,100.4 611.2,98.7 611.2,98.7 605,75.7 598.5,52.1 595.9,54 595.5,52.7 601.2,73.5 604.1,84.1 
		608.4,100.3 608.4,100.3 608.4,100.4 608.9,143.1 608.9,143.1 	"/>
	<polygon class="st44" points="611.2,98.7 608.5,100.4 608.9,143.1 611.7,141.4 611.9,141.3 	"/>
	<polygon class="st44" points="592,47.3 589.3,45.7 569.6,78.2 574.9,75.2 	"/>
	<polygon class="st21" points="592,47.3 594.5,48.8 594.4,48.8 598.3,51.1 598.3,37.6 586.2,30 586.5,43.9 589.3,45.7 	"/>
	<polygon class="st18" points="598.3,51.1 604,47.4 604,33.9 598.3,37.6 	"/>
	<polygon class="st45" points="604,33.9 592.4,26.2 586.2,30 598.3,37.6 	"/>
	<polygon class="st46" points="594.4,48.8 594.5,48.8 595.5,52.7 595.9,54 598.5,52.1 598.5,52.1 598.3,51.1 	"/>
	<path class="st21" d="M369.2,80.4c2.2,0,4-0.8,4-1.8c0-0.8-1.2-1.5-2.8-1.7c-0.4-0.1-0.8-0.1-1.2-0.1c-2.2,0-4,0.8-4,1.8
		S367,80.4,369.2,80.4z"/>
	<polygon class="st37" points="119.9,170.1 207.9,149 168.6,125.7 169.6,127.6 157.1,135.7 157.2,148.9 	"/>
</g>
</svg>
