<svg xmlns="http://www.w3.org/2000/svg" viewBox="0 0 724.37 452.5"><defs><style>.cls-1,.cls-10,.cls-11,.cls-12,.cls-13,.cls-14,.cls-2,.cls-3,.cls-4,.cls-5,.cls-6,.cls-7,.cls-8,.cls-9{fill:none;}.cls-1,.cls-10,.cls-11,.cls-12,.cls-13,.cls-14,.cls-4,.cls-5,.cls-6,.cls-7,.cls-8,.cls-9{stroke:#363a4d;}.cls-1,.cls-10,.cls-11,.cls-12,.cls-13,.cls-14,.cls-3,.cls-4,.cls-5,.cls-6,.cls-7,.cls-8,.cls-9{stroke-linecap:round;stroke-linejoin:round;}.cls-2{stroke:#231f20;stroke-miterlimit:10;}.cls-3{stroke:#7e39d7;}.cls-4{stroke-dasharray:7.77 5.83;}.cls-5{stroke-dasharray:9.89 7.42;}.cls-6{stroke-dasharray:9.57 7.18;}.cls-7{stroke-dasharray:9.89 7.42;}.cls-8{stroke-dasharray:9.57 7.18;}.cls-9{stroke-dasharray:8.91 6.68;}.cls-10{stroke-dasharray:10.36 7.77;}.cls-11{stroke-dasharray:8.83 6.63;}.cls-12{stroke-dasharray:8.9 6.68;}.cls-13{stroke-dasharray:8.93 6.69;}.cls-14{stroke-dasharray:8.93 6.69;}</style></defs><title>Asset 1</title><g id="Layer_2" data-name="Layer 2"><g id="P1"><g id="R"><g id="R-2" data-name="R"><g id="line_P"><g id="LINE"><line class="cls-1" x1="0.5" y1="226" x2="0.5" y2="243.19"/><line class="cls-1" x1="0.5" y1="226" x2="0.5" y2="243.19"/><line class="cls-1" x1="0.5" y1="226" x2="0.5" y2="226"/><line class="cls-1" x1="0.5" y1="243.19" x2="0.5" y2="243.19"/></g><g id="LINE-2" data-name="LINE"><line class="cls-1" x1="0.5" y1="243.19" x2="164.27" y2="337.75"/><line class="cls-1" x1="0.5" y1="243.19" x2="164.27" y2="337.75"/><line class="cls-1" x1="0.5" y1="243.19" x2="0.5" y2="243.19"/><line class="cls-1" x1="164.27" y1="337.75" x2="164.27" y2="337.75"/></g><g id="LINE-3" data-name="LINE"><line class="cls-1" x1="303.55" y1="240.15" x2="164.27" y2="320.56"/><line class="cls-1" x1="303.55" y1="240.15" x2="164.27" y2="320.56"/><line class="cls-1" x1="164.27" y1="320.56" x2="164.27" y2="320.56"/></g><g id="LINE-4" data-name="LINE"><line class="cls-1" x1="291.26" y1="264.4" x2="279.78" y2="271.03"/><line class="cls-1" x1="303.56" y1="257.3" x2="279.78" y2="271.03"/><line class="cls-1" x1="279.78" y1="271.03" x2="279.78" y2="271.03"/></g><g id="LINE-5" data-name="LINE"><line class="cls-1" x1="198.38" y1="318.05" x2="164.27" y2="337.75"/><line class="cls-1" x1="198.38" y1="318.05" x2="164.27" y2="337.75"/><line class="cls-1" x1="198.38" y1="318.05" x2="198.38" y2="318.05"/><line class="cls-1" x1="164.27" y1="337.75" x2="164.27" y2="337.75"/></g><g id="LINE-6" data-name="LINE"><line class="cls-1" x1="164.27" y1="320.56" x2="164.27" y2="337.75"/></g><g id="LINE-7" data-name="LINE"><line class="cls-1" x1="164.27" y1="320.56" x2="0.5" y2="226"/></g><g id="LINE-8" data-name="LINE"><line class="cls-1" x1="164.27" y1="320.56" x2="0.5" y2="226"/></g><g id="LINE-9" data-name="LINE"><line class="cls-1" x1="164.27" y1="320.56" x2="0.5" y2="226"/></g><g id="LINE-10" data-name="LINE"><line class="cls-1" x1="303.55" y1="211.83" x2="164.27" y2="131.42"/></g><g id="LINE-11" data-name="LINE"><line class="cls-1" x1="164.27" y1="131.41" x2="99.69" y2="168.71"/></g><g id="LINE-12" data-name="LINE"><line class="cls-1" x1="15.4" y1="217.4" x2="0.5" y2="226"/></g><g id="LINE-13" data-name="LINE"><line class="cls-1" x1="469.2" y1="307.47" x2="468.51" y2="307.07"/></g><g id="LINE-14" data-name="LINE"><polygon class="cls-1" points="384.61 169.65 384.61 239.65 378.85 242.98 369.71 248.25 368.52 248.94 362.78 252.25 358.3 254.84 357.82 255.12 357.81 255.12 352.59 268.06 346.78 261.5 346.77 261.49 344.32 262.91 313.76 280.55 313.76 210.55 313.98 210.42 318.23 207.97 326.8 203.01 337.43 196.89 341.7 194.43 352.3 188.3 380.02 172.3 384.61 169.65"/></g><g id="LINE-15" data-name="LINE"><line class="cls-1" x1="198.43" y1="128.9" x2="198.43" y2="111.71"/><line class="cls-1" x1="198.43" y1="128.9" x2="198.43" y2="111.71"/><line class="cls-1" x1="198.44" y1="111.71" x2="198.44" y2="111.71"/><line class="cls-1" x1="198.44" y1="128.9" x2="198.44" y2="128.9"/></g><g id="LINE-16" data-name="LINE"><line class="cls-1" x1="267.68" y1="168.88" x2="198.43" y2="128.9"/><line class="cls-1" x1="316.21" y1="196.9" x2="285.2" y2="179"/><line class="cls-1" x1="267.68" y1="168.88" x2="198.43" y2="128.9"/><line class="cls-1" x1="316.21" y1="196.9" x2="285.2" y2="179"/><line class="cls-1" x1="198.44" y1="128.9" x2="198.44" y2="128.9"/></g><g id="LINE-17" data-name="LINE"><line class="cls-1" x1="525.98" y1="111.71" x2="525.98" y2="111.71"/></g><g id="LINE-18" data-name="LINE"><line class="cls-1" x1="525.98" y1="128.85" x2="525.98" y2="128.85"/></g><g id="LINE-19" data-name="LINE"><line class="cls-1" x1="267.68" y1="151.69" x2="198.43" y2="111.71"/><line class="cls-1" x1="331.09" y1="188.3" x2="300.09" y2="170.4"/></g><g id="LINE-20" data-name="LINE"><line class="cls-1" x1="267.68" y1="151.69" x2="198.43" y2="111.71"/><line class="cls-1" x1="331.09" y1="188.3" x2="300.09" y2="170.4"/></g><g id="LINE-21" data-name="LINE"><line class="cls-1" x1="267.68" y1="151.69" x2="198.43" y2="111.71"/><line class="cls-1" x1="331.09" y1="188.3" x2="300.09" y2="170.4"/></g><g id="LINE-22" data-name="LINE"><polygon class="cls-1" points="525.98 111.71 525.98 128.86 384.61 210.51 384.61 193.34 525.98 111.71"/><line class="cls-1" x1="525.98" y1="128.87" x2="525.98" y2="128.86"/><line class="cls-1" x1="525.98" y1="111.71" x2="525.98" y2="111.68"/></g><g id="LINE-23" data-name="LINE"><line class="cls-1" x1="525.98" y1="111.67" x2="444.1" y2="64.39"/></g><g id="LINE-24" data-name="LINE"><line class="cls-1" x1="280.32" y1="64.42" x2="198.43" y2="111.71"/></g><g id="LINE-25" data-name="LINE"><line class="cls-1" x1="432.96" y1="264.31" x2="444.55" y2="271"/><line class="cls-1" x1="396.32" y1="243.25" x2="444.55" y2="271"/><line class="cls-1" x1="444.55" y1="271" x2="444.55" y2="271"/></g><g id="LINE-26" data-name="LINE"><line class="cls-1" x1="483.37" y1="293.41" x2="487.07" y2="295.55"/><line class="cls-1" x1="483.37" y1="293.41" x2="487.07" y2="295.55"/><line class="cls-1" x1="483.37" y1="293.41" x2="483.37" y2="293.41"/><line class="cls-1" x1="487.07" y1="295.55" x2="487.07" y2="295.55"/></g><g id="LINE-27" data-name="LINE"><line class="cls-1" x1="525.88" y1="317.96" x2="560.09" y2="337.71"/><line class="cls-1" x1="525.88" y1="317.96" x2="560.09" y2="337.71"/><line class="cls-1" x1="525.88" y1="317.96" x2="525.88" y2="317.96"/><line class="cls-1" x1="560.09" y1="337.71" x2="560.09" y2="337.71"/></g><g id="LINE-28" data-name="LINE"><line class="cls-1" x1="560.09" y1="320.51" x2="723.87" y2="225.96"/><line class="cls-1" x1="560.09" y1="320.51" x2="723.87" y2="225.96"/><line class="cls-1" x1="560.09" y1="320.51" x2="560.09" y2="320.51"/><line class="cls-1" x1="723.87" y1="225.96" x2="723.87" y2="225.96"/></g><g id="LINE-29" data-name="LINE"><line class="cls-1" x1="723.87" y1="243.11" x2="560.09" y2="337.71"/><line class="cls-1" x1="723.87" y1="243.11" x2="560.09" y2="337.71"/><line class="cls-1" x1="723.87" y1="243.11" x2="723.87" y2="243.11"/><line class="cls-1" x1="560.09" y1="337.71" x2="560.09" y2="337.71"/></g><g id="LINE-30" data-name="LINE"><line class="cls-1" x1="560.09" y1="320.51" x2="560.09" y2="337.71"/></g><g id="LINE-31" data-name="LINE"><line class="cls-1" x1="560.09" y1="320.51" x2="396.32" y2="225.96"/></g><g id="LINE-32" data-name="LINE"><line class="cls-1" x1="560.09" y1="320.51" x2="396.32" y2="225.96"/></g><g id="LINE-33" data-name="LINE"><line class="cls-1" x1="560.09" y1="320.51" x2="396.32" y2="225.96"/></g><g id="LINE-34" data-name="LINE"><line class="cls-1" x1="723.87" y1="225.92" x2="560.09" y2="131.37"/></g><g id="LINE-35" data-name="LINE"><line class="cls-1" x1="723.87" y1="225.96" x2="723.87" y2="243.11"/></g><g id="LINE-36" data-name="LINE"><line class="cls-1" x1="396.32" y1="225.96" x2="396.32" y2="243.25"/></g><g id="LINE-37" data-name="LINE"><line class="cls-1" x1="560.09" y1="131.37" x2="396.32" y2="225.96"/></g><g id="LWPOLYLINE"><polyline class="cls-1" points="433 376.68 362.16 417.6 291.3 376.69"/></g><g id="LWPOLYLINE-2" data-name="LWPOLYLINE"><polyline class="cls-1" points="362.15 318.59 433 359.5 362.16 400.42 291.3 359.51 362.15 318.59"/></g><g id="LINE-38" data-name="LINE"><line class="cls-1" x1="362.15" y1="400.41" x2="362.16" y2="417.6"/></g><g id="LWPOLYLINE-3" data-name="LWPOLYLINE"><polyline class="cls-1" points="340.09 323.03 269.24 363.95 198.38 323.04"/></g><g id="LWPOLYLINE-4" data-name="LWPOLYLINE"><polyline class="cls-1" points="269.23 264.94 340.09 305.85 269.24 346.77 198.38 305.86 269.23 264.94"/></g><g id="LINE-39" data-name="LINE"><line class="cls-1" x1="269.24" y1="346.76" x2="269.24" y2="363.95"/></g><g id="LINE-40" data-name="LINE"><line class="cls-1" x1="198.38" y1="305.86" x2="198.38" y2="323.04"/></g><g id="LINE-41" data-name="LINE"><line class="cls-1" x1="340.09" y1="305.85" x2="340.09" y2="323.03"/></g><g id="LINE-42" data-name="LINE"><line class="cls-1" x1="525.88" y1="305.85" x2="525.88" y2="323.04"/></g><g id="LINE-43" data-name="LINE"><line class="cls-1" x1="433" y1="359.5" x2="433" y2="376.68"/></g><g id="LINE-44" data-name="LINE"><line class="cls-1" x1="291.3" y1="359.51" x2="291.3" y2="376.69"/></g><g id="LWPOLYLINE-5" data-name="LWPOLYLINE"><line class="cls-1" x1="57.18" y1="191.62" x2="57.18" y2="207.99"/></g><g id="LWPOLYLINE-6" data-name="LWPOLYLINE"><polyline class="cls-1" points="43.02 216.97 28.84 225.16 0.5 208.8 0.5 191.62 28.84 175.25 57.18 191.62 28.84 207.99 0.5 191.62"/></g><g id="LWPOLYLINE-7" data-name="LWPOLYLINE"><line class="cls-1" x1="28.84" y1="207.99" x2="28.84" y2="225.16"/></g><g id="LWPOLYLINE-8" data-name="LWPOLYLINE"><polyline class="cls-1" points="99.7 216.16 99.7 233.34 71.36 249.71 43.02 233.34 43.02 216.17 71.35 199.8 99.7 216.16 71.36 232.53 43.02 216.17"/></g><g id="LWPOLYLINE-9" data-name="LWPOLYLINE"><line class="cls-1" x1="71.36" y1="232.53" x2="71.36" y2="249.71"/></g><g id="LWPOLYLINE-10" data-name="LWPOLYLINE"><polyline class="cls-1" points="122.77 220.01 113.86 225.16 99.69 216.98"/></g><g id="LWPOLYLINE-11" data-name="LWPOLYLINE"><polyline class="cls-1" points="85.52 191.62 98.96 199.38 113.86 207.98 122.77 202.83"/><polyline class="cls-1" points="85.52 207.99 85.52 207.15 85.52 192.42 85.52 191.62 99.69 183.44 113.86 175.25 127.31 183.01 139.06 189.8"/></g><g id="LWPOLYLINE-12" data-name="LWPOLYLINE"><line class="cls-1" x1="113.87" y1="207.98" x2="113.87" y2="225.15"/></g><g id="LWPOLYLINE-13" data-name="LWPOLYLINE"><line class="cls-1" x1="99.69" y1="167.06" x2="99.69" y2="183.43"/></g><g id="LWPOLYLINE-14" data-name="LWPOLYLINE"><line class="cls-1" x1="85.52" y1="192.42" x2="72.05" y2="200.2"/></g><g id="LWPOLYLINE-15" data-name="LWPOLYLINE"><line class="cls-1" x1="70.66" y1="200.2" x2="57.18" y2="192.43"/></g><g id="LWPOLYLINE-16" data-name="LWPOLYLINE"><polyline class="cls-1" points="43.01 183.44 43.01 167.07 71.35 150.7 99.69 167.06 71.35 183.43 43.01 167.07"/></g><g id="LWPOLYLINE-17" data-name="LWPOLYLINE"><line class="cls-1" x1="71.35" y1="183.43" x2="71.35" y2="199.8"/></g><g id="LWPOLYLINE-18" data-name="LWPOLYLINE"><line class="cls-1" x1="469.2" y1="305.86" x2="469.2" y2="322.23"/></g><g id="LWPOLYLINE-19" data-name="LWPOLYLINE"><polyline class="cls-1" points="483.37 331.22 497.54 339.41 525.88 323.04 525.88 305.87 497.54 289.5 469.2 305.86 497.54 322.23 525.88 305.87"/></g><g id="LWPOLYLINE-20" data-name="LWPOLYLINE"><line class="cls-1" x1="497.54" y1="322.23" x2="497.54" y2="339.41"/></g><g id="LWPOLYLINE-21" data-name="LWPOLYLINE"><polyline class="cls-1" points="426.69 330.41 426.69 347.58 455.02 363.95 483.37 347.59 483.37 330.42 455.03 314.05 426.69 330.41 455.02 346.78 483.37 330.42"/></g><g id="LWPOLYLINE-22" data-name="LWPOLYLINE"><line class="cls-1" x1="455.03" y1="346.78" x2="455.03" y2="363.95"/></g><g id="LWPOLYLINE-23" data-name="LWPOLYLINE"><polyline class="cls-1" points="384.18 305.85 384.18 323.03 412.52 339.4 426.69 331.22"/></g><g id="LWPOLYLINE-24" data-name="LWPOLYLINE"><polyline class="cls-1" points="440.86 322.23 440.86 305.86 412.52 289.49 384.18 305.85 412.52 322.22 440.86 305.86"/></g><g id="LWPOLYLINE-25" data-name="LWPOLYLINE"><line class="cls-1" x1="412.52" y1="322.22" x2="412.52" y2="339.4"/></g><g id="LWPOLYLINE-26" data-name="LWPOLYLINE"><line class="cls-1" x1="426.69" y1="281.31" x2="426.69" y2="297.68"/></g><g id="LWPOLYLINE-27" data-name="LWPOLYLINE"><line class="cls-1" x1="440.86" y1="306.67" x2="454.33" y2="314.45"/></g><g id="LWPOLYLINE-28" data-name="LWPOLYLINE"><line class="cls-1" x1="455.73" y1="314.45" x2="469.2" y2="306.67"/></g><g id="LWPOLYLINE-29" data-name="LWPOLYLINE"><polyline class="cls-1" points="483.37 297.68 483.37 281.31 455.03 264.94 426.69 281.31 455.03 297.68 483.37 281.31"/></g><g id="LWPOLYLINE-30" data-name="LWPOLYLINE"><line class="cls-1" x1="455.03" y1="297.68" x2="455.03" y2="314.05"/></g><g id="LINE-45" data-name="LINE"><line class="cls-1" x1="362.22" y1="111.71" x2="348.74" y2="103.93"/><polyline class="cls-1" points="280.32 64.42 295.21 73.01 310.75 81.99"/></g><g id="LINE-46" data-name="LINE"><line class="cls-1" x1="444.1" y1="64.39" x2="362.23" y2="111.71"/></g><g id="LWPOLYLINE-31" data-name="LWPOLYLINE"><polyline class="cls-1" points="390.55 16.86 390.55 34.04 362.21 50.41 333.87 34.04 333.87 16.87 362.21 0.5 390.55 16.86 362.21 33.23 333.87 16.87"/></g><g id="LWPOLYLINE-32" data-name="LWPOLYLINE"><line class="cls-1" x1="362.21" y1="33.23" x2="362.21" y2="50.41"/></g><g id="LWPOLYLINE-33" data-name="LWPOLYLINE"><polygon class="cls-1" points="132.98 205.55 132.98 275.56 132.97 275.56 122.77 269.21 122.77 199.21 125.79 201.09 132.97 205.56 132.98 205.55"/><line class="cls-1" x1="163.54" y1="257.91" x2="171.81" y2="263.06"/></g><g id="LWPOLYLINE-34" data-name="LWPOLYLINE"><polygon class="cls-1" points="203.83 164.62 203.83 164.65 199.24 167.3 171.52 183.3 156.65 191.89 142.2 200.23 137.45 202.97 133.2 205.42 132.98 205.55 132.97 205.56 125.79 201.09 122.77 199.21 126.86 196.85 139.06 189.8 146.04 185.76 160.86 177.2 188.62 161.16 193.63 158.26 203.83 164.62"/></g><polygon class="cls-1" points="203.83 164.65 203.83 234.65 198.07 237.98 195.42 239.51 188.93 243.25 182 247.25 177.52 249.84 177.04 250.12 177.03 250.12 171.81 263.06 166 256.5 165.99 256.49 163.54 257.91 132.98 275.55 132.98 205.55 133.2 205.42 137.45 202.97 142.2 200.23 156.65 191.89 171.52 183.3 199.24 167.3 203.83 164.65"/><g id="LWPOLYLINE-35" data-name="LWPOLYLINE"><polygon class="cls-1" points="277.89 113.22 277.89 183.23 277.88 183.23 267.68 176.88 267.68 106.88 277.88 113.23 277.89 113.22"/><line class="cls-1" x1="308.45" y1="165.59" x2="316.72" y2="170.74"/></g><g id="LWPOLYLINE-36" data-name="LWPOLYLINE"><polygon class="cls-1" points="348.74 72.29 348.74 72.32 344.15 74.97 321.37 88.12 316.43 90.97 301.56 99.56 282.36 110.64 278.11 113.09 277.89 113.22 277.88 113.23 267.68 106.88 271.77 104.52 290.95 93.44 305.77 84.87 310.75 81.99 333.53 68.83 338.54 65.94 348.74 72.29"/></g><polygon class="cls-1" points="348.74 72.32 348.74 142.32 342.98 145.65 333.84 150.92 326.91 154.92 322.43 157.51 321.95 157.79 321.94 157.79 316.72 170.73 310.91 164.17 310.9 164.16 308.45 165.58 300.09 170.4 285.2 179 277.89 183.22 277.89 113.22 278.11 113.09 282.36 110.64 301.56 99.56 316.43 90.97 321.37 88.12 344.15 74.97 348.74 72.32"/><g id="LWPOLYLINE-37" data-name="LWPOLYLINE"><polygon class="cls-1" points="313.76 210.55 313.76 280.56 313.75 280.56 307.97 276.96 303.55 274.21 303.55 204.21 313.75 210.56 313.76 210.55"/><line class="cls-1" x1="344.33" y1="262.92" x2="352.6" y2="268.07"/></g><g id="LWPOLYLINE-38" data-name="LWPOLYLINE"><polygon class="cls-1" points="384.61 169.62 384.61 169.65 380.02 172.3 352.3 188.3 341.7 194.43 337.43 196.89 326.8 203.01 318.23 207.97 313.98 210.42 313.76 210.55 313.75 210.56 303.55 204.21 307.64 201.85 316.21 196.9 326.82 190.76 331.09 188.3 341.64 182.2 369.4 166.16 374.41 163.26 384.61 169.62"/></g><path class="cls-2" d="M331.27,252l22.92-13.48V235.2l-22.92,13.48Zm0-13.25,22.92-13.49v-3.31l-22.92,13.48Zm35.1-9.05a1.3,1.3,0,0,0-2.15-1.22,4.34,4.34,0,0,0-1.52,1.62,4.26,4.26,0,0,0-.63,2.13,1.3,1.3,0,0,0,2.15,1.22,4.74,4.74,0,0,0,2.15-3.75Zm-35.1-4.21L354.19,212v-3.32l-22.92,13.48Zm35.1-9a1.49,1.49,0,0,0-.62-1.4,1.51,1.51,0,0,0-1.53.17,4.34,4.34,0,0,0-1.52,1.62,4.26,4.26,0,0,0-.63,2.13,1.3,1.3,0,0,0,2.15,1.23,4.44,4.44,0,0,0,1.53-1.62A4.35,4.35,0,0,0,366.37,216.44Zm0-13.26a1.49,1.49,0,0,0-.62-1.4,1.51,1.51,0,0,0-1.53.17,4.5,4.5,0,0,0-1.52,1.62,4.26,4.26,0,0,0-.63,2.13,1.3,1.3,0,0,0,2.15,1.23,4.29,4.29,0,0,0,1.53-1.62A4.35,4.35,0,0,0,366.37,203.18Zm2.15,20.28v9.94L328.4,257v-9.94Zm0-13.26v9.94l-40.12,23.6v-10Zm0-13.26v9.94l-40.12,23.6v-9.95Z"/><path class="cls-2" d="M316,109.83v-3.41l-20.85,15.46V156l20.85-9V108.75"/><path class="cls-2" d="M298,133.93v6.15l2.76-1.6"/><path class="cls-2" d="M304.46,136.3c-1.47.83-2.31,0-2.31-1.68a5.52,5.52,0,0,1,2.39-4.55c1.56-1,2.43-.09,2.43,1.59A5.34,5.34,0,0,1,304.46,136.3Z"/><path class="cls-2" d="M312,128.91l1.95-1.16v2.69a10.89,10.89,0,0,1-1.74,1.32c-1,.54-1.65.65-2.12.39a1.81,1.81,0,0,1-.72-1.74,6,6,0,0,1,3-4.91,3.88,3.88,0,0,1,1.49-.61"/><path class="cls-2" d="M318.5,142.11l10.68-6.28a5.05,5.05,0,0,0,2.26-3.94V103.37c0-1.44-1-2-2.26-1.28l-10.68,6.28Z"/><path class="cls-2" d="M159.42,244.16l-9.62,5.66V228.5l9.62-5.65Z"/><path class="cls-2" d="M159.42,244.16l-9.62,5.66V228.5l9.62-5.65Z"/><path class="cls-2" d="M173.81,235.7l-9.62,5.65v-11.8l9.62-5.65Z"/><path class="cls-2" d="M188.2,227.24l-9.61,5.65V204.94l9.61-5.66Z"/><path class="cls-2" d="M152.84,215.33a.34.34,0,0,0,.1.16L142.11,229.3a.41.41,0,0,0-.14-.15"/><path class="cls-2" d="M167.51,217.15a1.15,1.15,0,0,0-.15.29l-11.26-3.59a1.1,1.1,0,0,0,.15-.28"/><path class="cls-2" d="M181.94,194.15a.39.39,0,0,0,.17.09l-11.66,21.11a.39.39,0,0,0-.16-.07"/><path class="cls-2" d="M142.41,230.33a4.5,4.5,0,0,1-2,3.51c-1.11.65-2,.13-2-1.15a4.47,4.47,0,0,1,2-3.49,1.33,1.33,0,0,1,1.57,0,.41.41,0,0,1,.14.15A1.6,1.6,0,0,1,142.41,230.33Z"/><path class="cls-2" d="M156.62,212a3.86,3.86,0,0,1-.37,1.54,1.1,1.1,0,0,1-.15.28,4.15,4.15,0,0,1-1.49,1.68c-.7.41-1.31.37-1.67,0a.34.34,0,0,1-.1-.16,1.64,1.64,0,0,1-.24-.94,4.51,4.51,0,0,1,2-3.51C155.71,210.23,156.62,210.75,156.62,212Z"/><path class="cls-2" d="M171,216.62a4.48,4.48,0,0,1-2,3.5c-1.1.66-2,.14-2-1.14a3.82,3.82,0,0,1,.37-1.54,1.15,1.15,0,0,1,.15-.29,4.18,4.18,0,0,1,1.49-1.67,1.44,1.44,0,0,1,1.29-.2.39.39,0,0,1,.16.07A1.39,1.39,0,0,1,171,216.62Z"/><path class="cls-2" d="M185.4,190.53a4.51,4.51,0,0,1-2,3.51,1.42,1.42,0,0,1-1.28.2.39.39,0,0,1-.17-.09,1.42,1.42,0,0,1-.55-1.26,4.48,4.48,0,0,1,2-3.5C184.5,188.74,185.4,189.24,185.4,190.53Z"/><g id="LINE-47" data-name="LINE"><line class="cls-3" x1="0.5" y1="226" x2="0.5" y2="243.19"/><line class="cls-3" x1="0.5" y1="226" x2="0.5" y2="243.19"/><line class="cls-3" x1="0.5" y1="226" x2="0.5" y2="226"/><line class="cls-3" x1="0.5" y1="243.19" x2="0.5" y2="243.19"/></g><g id="LINE-48" data-name="LINE"><line class="cls-3" x1="0.5" y1="243.19" x2="164.27" y2="337.75"/><line class="cls-3" x1="0.5" y1="243.19" x2="164.27" y2="337.75"/><line class="cls-3" x1="0.5" y1="243.19" x2="0.5" y2="243.19"/><line class="cls-3" x1="164.27" y1="337.75" x2="164.27" y2="337.75"/></g><g id="LINE-49" data-name="LINE"><line class="cls-3" x1="303.55" y1="240.15" x2="164.27" y2="320.56"/><line class="cls-3" x1="303.55" y1="240.15" x2="164.27" y2="320.56"/><line class="cls-3" x1="164.27" y1="320.56" x2="164.27" y2="320.56"/></g><g id="LINE-50" data-name="LINE"><line class="cls-3" x1="291.26" y1="264.4" x2="279.78" y2="271.03"/><line class="cls-3" x1="303.56" y1="257.3" x2="279.78" y2="271.03"/><line class="cls-3" x1="279.78" y1="271.03" x2="279.78" y2="271.03"/></g><g id="LINE-51" data-name="LINE"><line class="cls-3" x1="198.38" y1="318.05" x2="164.27" y2="337.75"/><line class="cls-3" x1="198.38" y1="318.05" x2="164.27" y2="337.75"/><line class="cls-3" x1="198.38" y1="318.05" x2="198.38" y2="318.05"/><line class="cls-3" x1="164.27" y1="337.75" x2="164.27" y2="337.75"/></g><g id="LINE-52" data-name="LINE"><line class="cls-3" x1="164.27" y1="320.56" x2="164.27" y2="337.75"/></g><g id="LINE-53" data-name="LINE"><line class="cls-3" x1="164.27" y1="320.56" x2="0.5" y2="226"/></g><g id="LINE-54" data-name="LINE"><line class="cls-3" x1="164.27" y1="320.56" x2="0.5" y2="226"/></g><g id="LINE-55" data-name="LINE"><line class="cls-3" x1="164.27" y1="320.56" x2="0.5" y2="226"/></g><g id="LINE-56" data-name="LINE"><line class="cls-3" x1="303.55" y1="211.83" x2="164.27" y2="131.42"/></g><g id="LINE-57" data-name="LINE"><line class="cls-3" x1="164.27" y1="131.41" x2="99.69" y2="168.71"/></g><g id="LINE-58" data-name="LINE"><line class="cls-3" x1="15.4" y1="217.4" x2="0.5" y2="226"/></g><g id="LINE-59" data-name="LINE"><line class="cls-3" x1="469.2" y1="307.47" x2="468.51" y2="307.07"/></g><g id="LINE-60" data-name="LINE"><polygon class="cls-3" points="384.61 169.65 384.61 239.65 378.85 242.98 369.71 248.25 368.52 248.94 362.78 252.25 358.3 254.84 357.82 255.12 357.81 255.12 352.59 268.06 346.78 261.5 346.77 261.49 344.32 262.91 313.76 280.55 313.76 210.55 313.98 210.42 318.23 207.97 326.8 203.01 337.43 196.89 341.7 194.43 352.3 188.3 380.02 172.3 384.61 169.65"/></g><g id="LINE-61" data-name="LINE"><line class="cls-3" x1="198.43" y1="128.9" x2="198.43" y2="111.71"/><line class="cls-3" x1="198.43" y1="128.9" x2="198.43" y2="111.71"/><line class="cls-3" x1="198.44" y1="111.71" x2="198.44" y2="111.71"/><line class="cls-3" x1="198.44" y1="128.9" x2="198.44" y2="128.9"/></g><g id="LINE-62" data-name="LINE"><line class="cls-3" x1="267.68" y1="168.88" x2="198.43" y2="128.9"/><line class="cls-3" x1="316.21" y1="196.9" x2="285.2" y2="179"/><line class="cls-3" x1="267.68" y1="168.88" x2="198.43" y2="128.9"/><line class="cls-3" x1="316.21" y1="196.9" x2="285.2" y2="179"/><line class="cls-3" x1="198.44" y1="128.9" x2="198.44" y2="128.9"/></g><g id="LINE-63" data-name="LINE"><line class="cls-3" x1="525.98" y1="111.71" x2="525.98" y2="111.71"/></g><g id="LINE-64" data-name="LINE"><line class="cls-3" x1="525.98" y1="128.85" x2="525.98" y2="128.85"/></g><g id="LINE-65" data-name="LINE"><line class="cls-3" x1="267.68" y1="151.69" x2="198.43" y2="111.71"/><line class="cls-3" x1="331.09" y1="188.3" x2="300.09" y2="170.4"/></g><g id="LINE-66" data-name="LINE"><line class="cls-3" x1="267.68" y1="151.69" x2="198.43" y2="111.71"/><line class="cls-3" x1="331.09" y1="188.3" x2="300.09" y2="170.4"/></g><g id="LINE-67" data-name="LINE"><line class="cls-3" x1="267.68" y1="151.69" x2="198.43" y2="111.71"/><line class="cls-3" x1="331.09" y1="188.3" x2="300.09" y2="170.4"/></g><g id="LINE-68" data-name="LINE"><polygon class="cls-3" points="525.98 111.71 525.98 128.86 384.61 210.51 384.61 193.34 525.98 111.71"/><line class="cls-3" x1="525.98" y1="128.87" x2="525.98" y2="128.86"/><line class="cls-3" x1="525.98" y1="111.71" x2="525.98" y2="111.68"/></g><g id="LINE-69" data-name="LINE"><line class="cls-3" x1="525.98" y1="111.67" x2="444.1" y2="64.39"/></g><g id="LINE-70" data-name="LINE"><line class="cls-3" x1="280.32" y1="64.42" x2="198.43" y2="111.71"/></g><g id="LINE-71" data-name="LINE"><line class="cls-3" x1="432.96" y1="264.31" x2="444.55" y2="271"/><line class="cls-3" x1="396.32" y1="243.25" x2="444.55" y2="271"/><line class="cls-3" x1="444.55" y1="271" x2="444.55" y2="271"/></g><g id="LINE-72" data-name="LINE"><line class="cls-3" x1="483.37" y1="293.41" x2="487.07" y2="295.55"/><line class="cls-3" x1="483.37" y1="293.41" x2="487.07" y2="295.55"/><line class="cls-3" x1="483.37" y1="293.41" x2="483.37" y2="293.41"/><line class="cls-3" x1="487.07" y1="295.55" x2="487.07" y2="295.55"/></g><g id="LINE-73" data-name="LINE"><line class="cls-3" x1="525.88" y1="317.96" x2="560.09" y2="337.71"/><line class="cls-3" x1="525.88" y1="317.96" x2="560.09" y2="337.71"/><line class="cls-3" x1="525.88" y1="317.96" x2="525.88" y2="317.96"/><line class="cls-3" x1="560.09" y1="337.71" x2="560.09" y2="337.71"/></g><g id="LINE-74" data-name="LINE"><line class="cls-3" x1="560.09" y1="320.51" x2="723.87" y2="225.96"/><line class="cls-3" x1="560.09" y1="320.51" x2="723.87" y2="225.96"/><line class="cls-3" x1="560.09" y1="320.51" x2="560.09" y2="320.51"/><line class="cls-3" x1="723.87" y1="225.96" x2="723.87" y2="225.96"/></g><g id="LINE-75" data-name="LINE"><line class="cls-3" x1="723.87" y1="243.11" x2="560.09" y2="337.71"/><line class="cls-3" x1="723.87" y1="243.11" x2="560.09" y2="337.71"/><line class="cls-3" x1="723.87" y1="243.11" x2="723.87" y2="243.11"/><line class="cls-3" x1="560.09" y1="337.71" x2="560.09" y2="337.71"/></g><g id="LINE-76" data-name="LINE"><line class="cls-3" x1="560.09" y1="320.51" x2="560.09" y2="337.71"/></g><g id="LINE-77" data-name="LINE"><line class="cls-3" x1="560.09" y1="320.51" x2="396.32" y2="225.96"/></g><g id="LINE-78" data-name="LINE"><line class="cls-3" x1="560.09" y1="320.51" x2="396.32" y2="225.96"/></g><g id="LINE-79" data-name="LINE"><line class="cls-3" x1="560.09" y1="320.51" x2="396.32" y2="225.96"/></g><g id="LINE-80" data-name="LINE"><line class="cls-3" x1="723.87" y1="225.92" x2="560.09" y2="131.37"/></g><g id="LINE-81" data-name="LINE"><line class="cls-3" x1="723.87" y1="225.96" x2="723.87" y2="243.11"/></g><g id="LINE-82" data-name="LINE"><line class="cls-3" x1="396.32" y1="225.96" x2="396.32" y2="243.25"/></g><g id="LINE-83" data-name="LINE"><line class="cls-3" x1="560.09" y1="131.37" x2="396.32" y2="225.96"/></g><g id="LWPOLYLINE-39" data-name="LWPOLYLINE"><polyline class="cls-3" points="433 376.68 362.16 417.6 291.3 376.69"/></g><g id="LWPOLYLINE-40" data-name="LWPOLYLINE"><polyline class="cls-3" points="362.15 318.59 433 359.5 362.16 400.42 291.3 359.51 362.15 318.59"/></g><g id="LINE-84" data-name="LINE"><line class="cls-3" x1="362.15" y1="400.41" x2="362.16" y2="417.6"/></g><g id="LWPOLYLINE-41" data-name="LWPOLYLINE"><polyline class="cls-3" points="340.09 323.03 269.24 363.95 198.38 323.04"/></g><g id="LWPOLYLINE-42" data-name="LWPOLYLINE"><polyline class="cls-3" points="269.23 264.94 340.09 305.85 269.24 346.77 198.38 305.86 269.23 264.94"/></g><g id="LINE-85" data-name="LINE"><line class="cls-3" x1="269.24" y1="346.76" x2="269.24" y2="363.95"/></g><g id="LINE-86" data-name="LINE"><line class="cls-3" x1="198.38" y1="305.86" x2="198.38" y2="323.04"/></g><g id="LINE-87" data-name="LINE"><line class="cls-3" x1="340.09" y1="305.85" x2="340.09" y2="323.03"/></g><g id="LINE-88" data-name="LINE"><line class="cls-3" x1="525.88" y1="305.85" x2="525.88" y2="323.04"/></g><g id="LINE-89" data-name="LINE"><line class="cls-3" x1="433" y1="359.5" x2="433" y2="376.68"/></g><g id="LINE-90" data-name="LINE"><line class="cls-3" x1="291.3" y1="359.51" x2="291.3" y2="376.69"/></g><g id="LWPOLYLINE-43" data-name="LWPOLYLINE"><line class="cls-3" x1="57.18" y1="191.62" x2="57.18" y2="207.99"/></g><g id="LWPOLYLINE-44" data-name="LWPOLYLINE"><polyline class="cls-3" points="43.02 216.97 28.84 225.16 0.5 208.8 0.5 191.62 28.84 175.25 57.18 191.62 28.84 207.99 0.5 191.62"/></g><g id="LWPOLYLINE-45" data-name="LWPOLYLINE"><line class="cls-3" x1="28.84" y1="207.99" x2="28.84" y2="225.16"/></g><g id="LWPOLYLINE-46" data-name="LWPOLYLINE"><polyline class="cls-3" points="99.7 216.16 99.7 233.34 71.36 249.71 43.02 233.34 43.02 216.17 71.35 199.8 99.7 216.16 71.36 232.53 43.02 216.17"/></g><g id="LWPOLYLINE-47" data-name="LWPOLYLINE"><line class="cls-3" x1="71.36" y1="232.53" x2="71.36" y2="249.71"/></g><g id="LWPOLYLINE-48" data-name="LWPOLYLINE"><polyline class="cls-3" points="122.77 220.01 113.86 225.16 99.69 216.98"/></g><g id="LWPOLYLINE-49" data-name="LWPOLYLINE"><polyline class="cls-3" points="85.52 191.62 98.96 199.38 113.86 207.98 122.77 202.83"/><polyline class="cls-3" points="85.52 207.99 85.52 207.15 85.52 192.42 85.52 191.62 99.69 183.44 113.86 175.25 127.31 183.01 139.06 189.8"/></g><g id="LWPOLYLINE-50" data-name="LWPOLYLINE"><line class="cls-3" x1="113.87" y1="207.98" x2="113.87" y2="225.15"/></g><g id="LWPOLYLINE-51" data-name="LWPOLYLINE"><line class="cls-3" x1="99.69" y1="167.06" x2="99.69" y2="183.43"/></g><g id="LWPOLYLINE-52" data-name="LWPOLYLINE"><line class="cls-3" x1="85.52" y1="192.42" x2="72.05" y2="200.2"/></g><g id="LWPOLYLINE-53" data-name="LWPOLYLINE"><line class="cls-3" x1="70.66" y1="200.2" x2="57.18" y2="192.43"/></g><g id="LWPOLYLINE-54" data-name="LWPOLYLINE"><polyline class="cls-3" points="43.01 183.44 43.01 167.07 71.35 150.7 99.69 167.06 71.35 183.43 43.01 167.07"/></g><g id="LWPOLYLINE-55" data-name="LWPOLYLINE"><line class="cls-3" x1="71.35" y1="183.43" x2="71.35" y2="199.8"/></g><g id="LWPOLYLINE-56" data-name="LWPOLYLINE"><line class="cls-3" x1="469.2" y1="305.86" x2="469.2" y2="322.23"/></g><g id="LWPOLYLINE-57" data-name="LWPOLYLINE"><polyline class="cls-3" points="483.37 331.22 497.54 339.41 525.88 323.04 525.88 305.87 497.54 289.5 469.2 305.86 497.54 322.23 525.88 305.87"/></g><g id="LWPOLYLINE-58" data-name="LWPOLYLINE"><line class="cls-3" x1="497.54" y1="322.23" x2="497.54" y2="339.41"/></g><g id="LWPOLYLINE-59" data-name="LWPOLYLINE"><polyline class="cls-3" points="426.69 330.41 426.69 347.58 455.02 363.95 483.37 347.59 483.37 330.42 455.03 314.05 426.69 330.41 455.02 346.78 483.37 330.42"/></g><g id="LWPOLYLINE-60" data-name="LWPOLYLINE"><line class="cls-3" x1="455.03" y1="346.78" x2="455.03" y2="363.95"/></g><g id="LWPOLYLINE-61" data-name="LWPOLYLINE"><polyline class="cls-3" points="384.18 305.85 384.18 323.03 412.52 339.4 426.69 331.22"/></g><g id="LWPOLYLINE-62" data-name="LWPOLYLINE"><polyline class="cls-3" points="440.86 322.23 440.86 305.86 412.52 289.49 384.18 305.85 412.52 322.22 440.86 305.86"/></g><g id="LWPOLYLINE-63" data-name="LWPOLYLINE"><line class="cls-3" x1="412.52" y1="322.22" x2="412.52" y2="339.4"/></g><g id="LWPOLYLINE-64" data-name="LWPOLYLINE"><line class="cls-3" x1="426.69" y1="281.31" x2="426.69" y2="297.68"/></g><g id="LWPOLYLINE-65" data-name="LWPOLYLINE"><line class="cls-3" x1="440.86" y1="306.67" x2="454.33" y2="314.45"/></g><g id="LWPOLYLINE-66" data-name="LWPOLYLINE"><line class="cls-3" x1="455.73" y1="314.45" x2="469.2" y2="306.67"/></g><g id="LWPOLYLINE-67" data-name="LWPOLYLINE"><polyline class="cls-3" points="483.37 297.68 483.37 281.31 455.03 264.94 426.69 281.31 455.03 297.68 483.37 281.31"/></g><g id="LWPOLYLINE-68" data-name="LWPOLYLINE"><line class="cls-3" x1="455.03" y1="297.68" x2="455.03" y2="314.05"/></g><g id="LINE-91" data-name="LINE"><line class="cls-3" x1="362.22" y1="111.71" x2="348.74" y2="103.93"/><polyline class="cls-3" points="280.32 64.42 295.21 73.01 310.75 81.99"/></g><g id="LINE-92" data-name="LINE"><line class="cls-3" x1="444.1" y1="64.39" x2="362.23" y2="111.71"/></g><g id="LWPOLYLINE-69" data-name="LWPOLYLINE"><polyline class="cls-3" points="390.55 16.86 390.55 34.04 362.21 50.41 333.87 34.04 333.87 16.87 362.21 0.5 390.55 16.86 362.21 33.23 333.87 16.87"/></g><g id="LWPOLYLINE-70" data-name="LWPOLYLINE"><line class="cls-3" x1="362.21" y1="33.23" x2="362.21" y2="50.41"/></g><g id="LWPOLYLINE-71" data-name="LWPOLYLINE"><polygon class="cls-3" points="132.98 205.55 132.98 275.56 132.97 275.56 122.77 269.21 122.77 199.21 125.79 201.09 132.97 205.56 132.98 205.55"/><line class="cls-3" x1="163.54" y1="257.91" x2="171.81" y2="263.06"/></g><g id="LWPOLYLINE-72" data-name="LWPOLYLINE"><polygon class="cls-3" points="203.83 164.62 203.83 164.65 199.24 167.3 171.52 183.3 156.65 191.89 142.2 200.23 137.45 202.97 133.2 205.42 132.98 205.55 132.97 205.56 125.79 201.09 122.77 199.21 126.86 196.85 139.06 189.8 146.04 185.76 160.86 177.2 188.62 161.16 193.63 158.26 203.83 164.62"/></g><polygon class="cls-3" points="203.83 164.65 203.83 234.65 198.07 237.98 195.42 239.51 188.93 243.25 182 247.25 177.52 249.84 177.04 250.12 177.03 250.12 171.81 263.06 166 256.5 165.99 256.49 163.54 257.91 132.98 275.55 132.98 205.55 133.2 205.42 137.45 202.97 142.2 200.23 156.65 191.89 171.52 183.3 199.24 167.3 203.83 164.65"/><g id="LWPOLYLINE-73" data-name="LWPOLYLINE"><polygon class="cls-3" points="277.89 113.22 277.89 183.23 277.88 183.23 267.68 176.88 267.68 106.88 277.88 113.23 277.89 113.22"/><line class="cls-3" x1="308.45" y1="165.59" x2="316.72" y2="170.74"/></g><g id="LWPOLYLINE-74" data-name="LWPOLYLINE"><polygon class="cls-3" points="348.74 72.29 348.74 72.32 344.15 74.97 321.37 88.12 316.43 90.97 301.56 99.56 282.36 110.64 278.11 113.09 277.89 113.22 277.88 113.23 267.68 106.88 271.77 104.52 290.95 93.44 305.77 84.87 310.75 81.99 333.53 68.83 338.54 65.94 348.74 72.29"/></g><polygon class="cls-3" points="348.74 72.32 348.74 142.32 342.98 145.65 333.84 150.92 326.91 154.92 322.43 157.51 321.95 157.79 321.94 157.79 316.72 170.73 310.91 164.17 310.9 164.16 308.45 165.58 300.09 170.4 285.2 179 277.89 183.22 277.89 113.22 278.11 113.09 282.36 110.64 301.56 99.56 316.43 90.97 321.37 88.12 344.15 74.97 348.74 72.32"/><g id="LWPOLYLINE-75" data-name="LWPOLYLINE"><polygon class="cls-3" points="313.76 210.55 313.76 280.56 313.75 280.56 307.97 276.96 303.55 274.21 303.55 204.21 313.75 210.56 313.76 210.55"/><line class="cls-3" x1="344.33" y1="262.92" x2="352.6" y2="268.07"/></g><g id="LWPOLYLINE-76" data-name="LWPOLYLINE"><polygon class="cls-3" points="384.61 169.62 384.61 169.65 380.02 172.3 352.3 188.3 341.7 194.43 337.43 196.89 326.8 203.01 318.23 207.97 313.98 210.42 313.76 210.55 313.75 210.56 303.55 204.21 307.64 201.85 316.21 196.9 326.82 190.76 331.09 188.3 341.64 182.2 369.4 166.16 374.41 163.26 384.61 169.62"/></g><path class="cls-3" d="M331.27,252l22.92-13.48V235.2l-22.92,13.48Zm0-13.25,22.92-13.49v-3.31l-22.92,13.48Zm35.1-9.05a1.3,1.3,0,0,0-2.15-1.22,4.34,4.34,0,0,0-1.52,1.62,4.26,4.26,0,0,0-.63,2.13,1.3,1.3,0,0,0,2.15,1.22,4.74,4.74,0,0,0,2.15-3.75Zm-35.1-4.21L354.19,212v-3.32l-22.92,13.48Zm35.1-9a1.49,1.49,0,0,0-.62-1.4,1.51,1.51,0,0,0-1.53.17,4.34,4.34,0,0,0-1.52,1.62,4.26,4.26,0,0,0-.63,2.13,1.3,1.3,0,0,0,2.15,1.23,4.44,4.44,0,0,0,1.53-1.62A4.35,4.35,0,0,0,366.37,216.44Zm0-13.26a1.49,1.49,0,0,0-.62-1.4,1.51,1.51,0,0,0-1.53.17,4.5,4.5,0,0,0-1.52,1.62,4.26,4.26,0,0,0-.63,2.13,1.3,1.3,0,0,0,2.15,1.23,4.29,4.29,0,0,0,1.53-1.62A4.35,4.35,0,0,0,366.37,203.18Zm2.15,20.28v9.94L328.4,257v-9.94Zm0-13.26v9.94l-40.12,23.6v-10Zm0-13.26v9.94l-40.12,23.6v-9.95Z"/><path class="cls-3" d="M316,109.83v-3.41l-20.85,15.46V156l20.85-9V108.75"/><path class="cls-3" d="M298,133.93v6.15l2.76-1.6"/><path class="cls-3" d="M304.46,136.3c-1.47.83-2.31,0-2.31-1.68a5.52,5.52,0,0,1,2.39-4.55c1.56-1,2.43-.09,2.43,1.59A5.34,5.34,0,0,1,304.46,136.3Z"/><path class="cls-3" d="M312,128.91l1.95-1.16v2.69a10.89,10.89,0,0,1-1.74,1.32c-1,.54-1.65.65-2.12.39a1.81,1.81,0,0,1-.72-1.74,6,6,0,0,1,3-4.91,3.88,3.88,0,0,1,1.49-.61"/><path class="cls-3" d="M318.5,142.11l10.68-6.28a5.05,5.05,0,0,0,2.26-3.94V103.37c0-1.44-1-2-2.26-1.28l-10.68,6.28Z"/><path class="cls-3" d="M159.42,244.16l-9.62,5.66V228.5l9.62-5.65Z"/><path class="cls-3" d="M159.42,244.16l-9.62,5.66V228.5l9.62-5.65Z"/><path class="cls-3" d="M173.81,235.7l-9.62,5.65v-11.8l9.62-5.65Z"/><path class="cls-3" d="M188.2,227.24l-9.61,5.65V204.94l9.61-5.66Z"/><path class="cls-3" d="M152.84,215.33a.34.34,0,0,0,.1.16L142.11,229.3a.41.41,0,0,0-.14-.15"/><path class="cls-3" d="M167.51,217.15a1.15,1.15,0,0,0-.15.29l-11.26-3.59a1.1,1.1,0,0,0,.15-.28"/><path class="cls-3" d="M181.94,194.15a.39.39,0,0,0,.17.09l-11.66,21.11a.39.39,0,0,0-.16-.07"/><path class="cls-3" d="M142.41,230.33a4.5,4.5,0,0,1-2,3.51c-1.11.65-2,.13-2-1.15a4.47,4.47,0,0,1,2-3.49,1.33,1.33,0,0,1,1.57,0,.41.41,0,0,1,.14.15A1.6,1.6,0,0,1,142.41,230.33Z"/><path class="cls-3" d="M156.62,212a3.86,3.86,0,0,1-.37,1.54,1.1,1.1,0,0,1-.15.28,4.15,4.15,0,0,1-1.49,1.68c-.7.41-1.31.37-1.67,0a.34.34,0,0,1-.1-.16,1.64,1.64,0,0,1-.24-.94,4.51,4.51,0,0,1,2-3.51C155.71,210.23,156.62,210.75,156.62,212Z"/><path class="cls-3" d="M171,216.62a4.48,4.48,0,0,1-2,3.5c-1.1.66-2,.14-2-1.14a3.82,3.82,0,0,1,.37-1.54,1.15,1.15,0,0,1,.15-.29,4.18,4.18,0,0,1,1.49-1.67,1.44,1.44,0,0,1,1.29-.2.39.39,0,0,1,.16.07A1.39,1.39,0,0,1,171,216.62Z"/><path class="cls-3" d="M185.4,190.53a4.51,4.51,0,0,1-2,3.51,1.42,1.42,0,0,1-1.28.2.39.39,0,0,1-.17-.09,1.42,1.42,0,0,1-.55-1.26,4.48,4.48,0,0,1,2-3.5C184.5,188.74,185.4,189.24,185.4,190.53Z"/></g><g id="dash_P"><g id="LWPOLYLINE-77" data-name="LWPOLYLINE"><line class="cls-1" x1="71.35" y1="133.49" x2="74.81" y2="135.49"/><line class="cls-4" x1="79.86" y1="138.41" x2="136.22" y2="170.95"/><polyline class="cls-1" points="138.74 172.4 142.21 174.4 138.74 176.4"/><line class="cls-4" x1="133.7" y1="179.32" x2="77.34" y2="211.87"/><polyline class="cls-1" points="74.82 213.33 71.36 215.33 67.89 213.33"/><line class="cls-4" x1="62.85" y1="210.41" x2="6.49" y2="177.87"/><polyline class="cls-1" points="3.96 176.42 0.5 174.42 3.96 172.42"/><line class="cls-4" x1="9.01" y1="169.5" x2="65.36" y2="136.95"/><line class="cls-1" x1="67.89" y1="135.49" x2="71.35" y2="133.49"/></g><g id="LWPOLYLINE-78" data-name="LWPOLYLINE"><line class="cls-1" x1="681.36" y1="216.1" x2="681.36" y2="220.1"/><polyline class="cls-1" points="681.36 229.27 681.36 233.27 677.89 235.27"/><line class="cls-5" x1="671.47" y1="238.98" x2="659.69" y2="245.78"/><polyline class="cls-1" points="656.48 247.64 653.02 249.64 649.55 247.64"/><line class="cls-5" x1="643.13" y1="243.93" x2="631.35" y2="237.13"/><polyline class="cls-1" points="628.14 235.28 624.67 233.28 624.67 229.28"/><polyline class="cls-1" points="624.67 220.1 624.67 216.1 628.14 214.1"/><line class="cls-5" x1="634.56" y1="210.39" x2="646.34" y2="203.59"/><polyline class="cls-1" points="649.55 201.73 653.01 199.73 656.48 201.73"/><line class="cls-5" x1="662.9" y1="205.44" x2="674.68" y2="212.24"/><polyline class="cls-1" points="677.89 214.1 681.36 216.1 677.89 218.1"/><line class="cls-5" x1="671.47" y1="221.81" x2="659.69" y2="228.61"/><polyline class="cls-1" points="656.48 230.47 653.02 232.47 649.55 230.47"/><line class="cls-5" x1="643.13" y1="226.76" x2="631.35" y2="219.96"/><line class="cls-1" x1="628.14" y1="218.1" x2="624.67" y2="216.1"/></g><g id="LWPOLYLINE-79" data-name="LWPOLYLINE"><line class="cls-1" x1="653.02" y1="232.47" x2="653.02" y2="236.47"/><line class="cls-1" x1="653.02" y1="245.64" x2="653.02" y2="249.64"/></g><g id="LWPOLYLINE-80" data-name="LWPOLYLINE"><line class="cls-1" x1="723.87" y1="191.54" x2="723.87" y2="195.54"/><polyline class="cls-1" points="723.87 204.72 723.87 208.72 720.4 210.72"/><line class="cls-5" x1="713.98" y1="214.43" x2="702.2" y2="221.23"/><polyline class="cls-1" points="698.99 223.08 695.53 225.09 692.06 223.09"/><line class="cls-1" x1="684.82" y1="218.9" x2="681.36" y2="216.9"/></g><g id="LWPOLYLINE-81" data-name="LWPOLYLINE"><line class="cls-1" x1="667.18" y1="207.91" x2="667.18" y2="203.91"/><polyline class="cls-1" points="667.18 195.55 667.18 191.55 670.65 189.55"/><line class="cls-5" x1="677.07" y1="185.84" x2="688.85" y2="179.03"/><polyline class="cls-1" points="692.06 177.18 695.52 175.18 698.99 177.18"/><line class="cls-5" x1="705.41" y1="180.89" x2="717.19" y2="187.69"/><polyline class="cls-1" points="720.4 189.54 723.87 191.54 720.4 193.54"/><line class="cls-5" x1="713.98" y1="197.25" x2="702.2" y2="204.06"/><polyline class="cls-1" points="698.99 205.91 695.53 207.91 692.06 205.91"/><line class="cls-5" x1="685.64" y1="202.2" x2="673.86" y2="195.4"/><line class="cls-1" x1="670.65" y1="193.55" x2="667.18" y2="191.55"/></g><g id="LWPOLYLINE-82" data-name="LWPOLYLINE"><line class="cls-1" x1="695.53" y1="207.91" x2="695.53" y2="211.91"/><line class="cls-1" x1="695.53" y1="221.09" x2="695.53" y2="225.09"/></g><g id="LWPOLYLINE-83" data-name="LWPOLYLINE"><line class="cls-1" x1="681.35" y1="167" x2="681.35" y2="171"/><line class="cls-1" x1="681.35" y1="179.36" x2="681.35" y2="183.36"/></g><g id="LWPOLYLINE-84" data-name="LWPOLYLINE"><line class="cls-1" x1="667.18" y1="192.35" x2="663.72" y2="194.35"/><line class="cls-1" x1="657.17" y1="198.14" x2="653.71" y2="200.14"/></g><g id="LWPOLYLINE-85" data-name="LWPOLYLINE"><line class="cls-1" x1="652.31" y1="200.14" x2="648.85" y2="198.14"/><line class="cls-6" x1="642.63" y1="194.55" x2="631.24" y2="187.97"/><line class="cls-1" x1="628.13" y1="186.18" x2="624.67" y2="184.18"/></g><g id="LWPOLYLINE-86" data-name="LWPOLYLINE"><line class="cls-1" x1="624.67" y1="184.18" x2="624.67" y2="180.18"/><polyline class="cls-1" points="624.67 171 624.67 167 628.13 165"/><line class="cls-5" x1="634.56" y1="161.29" x2="646.33" y2="154.49"/><polyline class="cls-1" points="649.54 152.63 653.01 150.63 656.47 152.63"/><line class="cls-5" x1="662.9" y1="156.34" x2="674.67" y2="163.14"/><polyline class="cls-1" points="677.89 165 681.35 167 677.89 169"/><line class="cls-5" x1="671.46" y1="172.71" x2="659.69" y2="179.51"/><polyline class="cls-1" points="656.48 181.37 653.01 183.37 649.55 181.37"/><line class="cls-5" x1="643.12" y1="177.66" x2="631.34" y2="170.86"/><line class="cls-1" x1="628.13" y1="169" x2="624.67" y2="167"/></g><g id="LWPOLYLINE-87" data-name="LWPOLYLINE"><line class="cls-1" x1="653.01" y1="183.37" x2="653.01" y2="187.37"/><line class="cls-1" x1="653.01" y1="195.73" x2="653.01" y2="199.73"/></g><g id="LINE-93" data-name="LINE"><line class="cls-1" x1="723.87" y1="208.72" x2="720.4" y2="206.72"/><line class="cls-5" x1="713.98" y1="203.01" x2="702.2" y2="196.21"/><line class="cls-1" x1="698.99" y1="194.35" x2="695.52" y2="192.35"/></g><g id="LINE-94" data-name="LINE"><line class="cls-1" x1="680.65" y1="183.77" x2="677.19" y2="181.77"/><line class="cls-6" x1="670.97" y1="178.18" x2="659.58" y2="171.6"/><line class="cls-1" x1="656.47" y1="169.81" x2="653.01" y2="167.81"/></g><g id="LINE-95" data-name="LINE"><line class="cls-1" x1="653.01" y1="167.81" x2="649.54" y2="169.81"/><line class="cls-5" x1="643.12" y1="173.52" x2="631.34" y2="180.32"/><line class="cls-1" x1="628.13" y1="182.18" x2="624.67" y2="184.18"/></g><g id="LINE-96" data-name="LINE"><line class="cls-1" x1="653.01" y1="150.63" x2="653.01" y2="154.63"/><line class="cls-1" x1="653.01" y1="163.81" x2="653.01" y2="167.81"/></g><g id="LINE-97" data-name="LINE"><line class="cls-1" x1="653.01" y1="216.91" x2="656.48" y2="218.91"/><line class="cls-7" x1="662.9" y1="222.62" x2="674.68" y2="229.42"/><line class="cls-1" x1="677.89" y1="231.27" x2="681.36" y2="233.27"/></g><g id="LINE-98" data-name="LINE"><line class="cls-1" x1="695.52" y1="175.18" x2="695.52" y2="179.18"/><line class="cls-1" x1="695.52" y1="188.35" x2="695.52" y2="192.35"/></g><g id="LINE-99" data-name="LINE"><line class="cls-1" x1="695.52" y1="192.35" x2="692.06" y2="194.35"/><line class="cls-8" x1="685.85" y1="197.94" x2="674.45" y2="204.52"/><line class="cls-1" x1="671.35" y1="206.32" x2="667.88" y2="208.32"/></g><g id="LINE-100" data-name="LINE"><line class="cls-1" x1="653.01" y1="216.91" x2="649.55" y2="218.91"/><line class="cls-5" x1="643.13" y1="222.62" x2="631.35" y2="229.42"/><line class="cls-1" x1="628.14" y1="231.28" x2="624.67" y2="233.28"/></g><g id="LINE-101" data-name="LINE"><line class="cls-1" x1="653.01" y1="199.73" x2="653.01" y2="203.73"/><line class="cls-1" x1="653.01" y1="212.91" x2="653.01" y2="216.91"/></g><g id="LWPOLYLINE-88" data-name="LWPOLYLINE"><line class="cls-1" x1="630.95" y1="172.28" x2="627.49" y2="174.28"/><line class="cls-4" x1="622.44" y1="177.19" x2="566.09" y2="209.74"/><polyline class="cls-1" points="563.56 211.2 560.1 213.2 556.64 211.2"/><line class="cls-4" x1="551.59" y1="208.29" x2="495.23" y2="175.75"/><line class="cls-1" x1="492.71" y1="174.29" x2="489.24" y2="172.29"/></g><g id="LWPOLYLINE-89" data-name="LWPOLYLINE"><line class="cls-1" x1="93.43" y1="262.43" x2="96.89" y2="264.43"/><line class="cls-4" x1="101.94" y1="267.34" x2="158.29" y2="299.89"/><polyline class="cls-1" points="160.81 301.35 164.28 303.35 167.74 301.35"/><line class="cls-4" x1="172.79" y1="298.44" x2="229.14" y2="265.9"/><line class="cls-1" x1="231.67" y1="264.44" x2="235.13" y2="262.44"/></g><g id="LWPOLYLINE-90" data-name="LWPOLYLINE"><line class="cls-1" x1="93.43" y1="262.43" x2="96.89" y2="264.43"/><line class="cls-4" x1="101.94" y1="267.34" x2="158.29" y2="299.89"/><polyline class="cls-1" points="160.81 301.35 164.28 303.35 167.74 301.35"/><line class="cls-4" x1="172.79" y1="298.44" x2="229.14" y2="265.9"/><line class="cls-1" x1="231.67" y1="264.44" x2="235.13" y2="262.44"/></g><g id="LWPOLYLINE-91" data-name="LWPOLYLINE"><line class="cls-1" x1="235.13" y1="262.45" x2="231.67" y2="260.44"/><line class="cls-9" x1="225.88" y1="257.1" x2="201.78" y2="243.18"/><line class="cls-1" x1="198.89" y1="241.51" x2="195.42" y2="239.51"/><line class="cls-1" x1="122.77" y1="245.49" x2="119.31" y2="247.49"/><line class="cls-10" x1="112.58" y1="251.37" x2="100.25" y2="258.49"/><line class="cls-1" x1="96.89" y1="260.43" x2="93.42" y2="262.43"/></g><g id="LWPOLYLINE-92" data-name="LWPOLYLINE"><line class="cls-1" x1="489.24" y1="262.41" x2="492.71" y2="264.42"/><line class="cls-4" x1="497.75" y1="267.33" x2="554.11" y2="299.88"/><polyline class="cls-1" points="556.63 301.34 560.09 303.34 563.56 301.34"/><line class="cls-4" x1="568.6" y1="298.43" x2="624.96" y2="265.89"/><line class="cls-1" x1="627.49" y1="264.43" x2="630.95" y2="262.43"/></g><g id="LWPOLYLINE-93" data-name="LWPOLYLINE"><line class="cls-1" x1="560.1" y1="204.32" x2="556.64" y2="206.32"/><line class="cls-4" x1="551.59" y1="209.24" x2="495.23" y2="241.78"/><polyline class="cls-1" points="492.71 243.23 489.24 245.23 492.71 247.23"/><line class="cls-4" x1="497.75" y1="250.15" x2="554.11" y2="282.7"/><polyline class="cls-1" points="556.63 284.16 560.09 286.16 563.56 284.16"/><line class="cls-4" x1="568.6" y1="281.24" x2="624.96" y2="248.71"/><polyline class="cls-1" points="627.49 247.25 630.95 245.25 627.49 243.25"/><line class="cls-4" x1="622.44" y1="240.33" x2="566.09" y2="207.78"/><line class="cls-1" x1="563.56" y1="206.33" x2="560.1" y2="204.32"/></g><g id="LWPOLYLINE-94" data-name="LWPOLYLINE"><line class="cls-1" x1="489.24" y1="262.41" x2="492.71" y2="264.42"/><line class="cls-4" x1="497.75" y1="267.33" x2="554.11" y2="299.88"/><polyline class="cls-1" points="556.63 301.34 560.09 303.34 563.56 301.34"/><line class="cls-4" x1="568.6" y1="298.43" x2="624.96" y2="265.89"/><line class="cls-1" x1="627.49" y1="264.43" x2="630.95" y2="262.43"/></g><g id="LINE-102" data-name="LINE"><line class="cls-1" x1="630.95" y1="245.25" x2="630.95" y2="249.25"/><line class="cls-1" x1="630.95" y1="258.43" x2="630.95" y2="262.43"/></g><g id="LINE-103" data-name="LINE"><line class="cls-1" x1="489.24" y1="245.23" x2="489.24" y2="249.23"/><line class="cls-1" x1="489.24" y1="258.41" x2="489.24" y2="262.41"/></g><g id="LINE-104" data-name="LINE"><line class="cls-1" x1="560.09" y1="286.16" x2="560.09" y2="290.16"/><line class="cls-1" x1="560.09" y1="299.34" x2="560.09" y2="303.34"/></g><g id="LINE-105" data-name="LINE"><line class="cls-1" x1="560.1" y1="204.32" x2="560.1" y2="208.32"/><line class="cls-1" x1="560.1" y1="217.51" x2="560.1" y2="221.51"/></g><g id="LWPOLYLINE-95" data-name="LWPOLYLINE"><line class="cls-1" x1="489.24" y1="262.41" x2="492.71" y2="260.41"/><line class="cls-4" x1="497.75" y1="257.5" x2="554.11" y2="224.96"/><polyline class="cls-1" points="556.64 223.51 560.1 221.51 563.57 223.51"/><line class="cls-4" x1="568.61" y1="226.42" x2="624.96" y2="258.97"/><line class="cls-1" x1="627.49" y1="260.43" x2="630.95" y2="262.43"/></g><g id="LWPOLYLINE-96" data-name="LWPOLYLINE"><line class="cls-1" x1="376.38" y1="42.49" x2="379.85" y2="44.49"/><line class="cls-11" x1="385.58" y1="47.8" x2="422.88" y2="69.33"/><line class="cls-1" x1="425.75" y1="70.99" x2="429.21" y2="72.99"/></g><g id="LWPOLYLINE-97" data-name="LWPOLYLINE"><line class="cls-1" x1="295.21" y1="73.01" x2="298.68" y2="71.02"/><line class="cls-12" x1="304.47" y1="67.7" x2="342.13" y2="46.14"/><line class="cls-1" x1="345.03" y1="44.48" x2="348.5" y2="42.49"/></g><g id="LWPOLYLINE-98" data-name="LWPOLYLINE"><line class="cls-1" x1="390.55" y1="50.67" x2="387.09" y2="52.67"/><line class="cls-5" x1="380.67" y1="56.38" x2="368.89" y2="63.18"/><polyline class="cls-1" points="365.68 65.04 362.21 67.04 358.75 65.04"/><line class="cls-5" x1="352.32" y1="61.33" x2="340.55" y2="54.53"/><line class="cls-1" x1="337.33" y1="52.68" x2="333.87" y2="50.68"/></g><g id="LINE-106" data-name="LINE"><line class="cls-1" x1="362.21" y1="50.41" x2="362.21" y2="54.41"/><line class="cls-1" x1="362.21" y1="63.04" x2="362.21" y2="67.04"/></g><g id="LINE-107" data-name="LINE"><line class="cls-1" x1="390.55" y1="34.31" x2="390.55" y2="38.31"/><line class="cls-1" x1="390.55" y1="46.67" x2="390.55" y2="50.67"/></g><g id="LINE-108" data-name="LINE"><line class="cls-1" x1="333.87" y1="34.31" x2="333.87" y2="38.31"/><line class="cls-1" x1="333.87" y1="46.68" x2="333.87" y2="50.68"/></g><g id="LWPOLYLINE-99" data-name="LWPOLYLINE"><line class="cls-1" x1="390.55" y1="34.04" x2="394.03" y2="36.01"/><line class="cls-13" x1="399.85" y1="39.31" x2="437.71" y2="60.77"/><line class="cls-1" x1="440.62" y1="62.42" x2="444.1" y2="64.39"/></g><g id="LWPOLYLINE-100" data-name="LWPOLYLINE"><line class="cls-1" x1="280.32" y1="64.41" x2="283.8" y2="62.44"/><line class="cls-14" x1="289.63" y1="59.14" x2="327.48" y2="37.67"/><line class="cls-1" x1="330.39" y1="36.02" x2="333.87" y2="34.04"/></g><g id="LWPOLYLINE-101" data-name="LWPOLYLINE"><line class="cls-1" x1="455.73" y1="70.75" x2="452.27" y2="72.75"/><line class="cls-4" x1="447.22" y1="75.67" x2="390.86" y2="108.21"/><polyline class="cls-1" points="388.34 109.66 384.88 111.66 388.34 113.66"/><line class="cls-4" x1="393.38" y1="116.58" x2="449.74" y2="149.13"/><line class="cls-1" x1="452.26" y1="150.59" x2="455.72" y2="152.59"/></g><g id="LINE-109" data-name="LINE"><line class="cls-1" x1="198.38" y1="357.45" x2="362.16" y2="452"/><line class="cls-1" x1="198.38" y1="357.45" x2="362.16" y2="452"/><line class="cls-1" x1="198.38" y1="357.45" x2="198.38" y2="357.45"/><line class="cls-1" x1="362.16" y1="452" x2="362.16" y2="452"/></g><g id="LINE-110" data-name="LINE"><line class="cls-1" x1="362.16" y1="434.81" x2="525.93" y2="340.26"/><line class="cls-1" x1="362.16" y1="434.81" x2="525.93" y2="340.26"/><line class="cls-1" x1="362.16" y1="434.81" x2="362.16" y2="434.81"/><line class="cls-1" x1="525.93" y1="340.26" x2="525.93" y2="340.26"/></g><g id="LINE-111" data-name="LINE"><line class="cls-1" x1="525.93" y1="357.4" x2="362.16" y2="452"/><line class="cls-1" x1="525.93" y1="357.4" x2="362.16" y2="452"/><line class="cls-1" x1="525.93" y1="357.4" x2="525.93" y2="357.4"/><line class="cls-1" x1="362.16" y1="452" x2="362.16" y2="452"/></g><g id="LINE-112" data-name="LINE"><line class="cls-1" x1="362.16" y1="434.81" x2="198.38" y2="340.26"/></g><g id="LINE-113" data-name="LINE"><line class="cls-1" x1="525.93" y1="340.22" x2="511.03" y2="331.62"/></g><g id="LINE-114" data-name="LINE"><line class="cls-1" x1="525.93" y1="340.26" x2="525.93" y2="357.4"/></g><g id="LINE-115" data-name="LINE"><line class="cls-1" x1="362.16" y1="434.81" x2="362.16" y2="452"/></g><g id="LINE-116" data-name="LINE"><line class="cls-1" x1="362.16" y1="434.81" x2="198.38" y2="340.26"/></g><g id="LINE-117" data-name="LINE"><polyline class="cls-1" points="213.28 331.65 198.38 340.25 198.38 357.44"/></g><line class="cls-1" x1="426.69" y1="282.92" x2="368.52" y2="248.94"/><line class="cls-1" x1="307.97" y1="276.96" x2="299.01" y2="282.14"/></g></g></g></g></g></svg>