<svg xmlns="http://www.w3.org/2000/svg" viewBox="0 0 730.55 301.64"><defs><style>.cls-1{fill:#98a4e2;}.cls-1,.cls-10,.cls-13,.cls-14,.cls-2,.cls-3{stroke:#00122a;stroke-linecap:round;stroke-linejoin:round;}.cls-2{fill:#5c6ac4;}.cls-3{fill:#2c2868;}.cls-10,.cls-24,.cls-4{fill:#fff;}.cls-4{stroke:#030007;stroke-miterlimit:10;}.cls-16,.cls-5{font-size:12px;}.cls-15,.cls-5{font-family:Graphik-Regular, Graphik;}.cls-6{letter-spacing:0em;}.cls-7{letter-spacing:0em;}.cls-8{letter-spacing:-0.01em;}.cls-9{letter-spacing:0em;}.cls-11{letter-spacing:-0.02em;}.cls-12{letter-spacing:-0.01em;}.cls-13{fill:#953ad6;}.cls-14{fill:#7e39d7;}.cls-15{font-size:11.82px;fill:#18072b;}.cls-16{font-family:MyriadPro-Regular, Myriad Pro;letter-spacing:0.01em;}.cls-17{letter-spacing:0em;}.cls-18{letter-spacing:-0.01em;}.cls-19{letter-spacing:0em;}.cls-20{letter-spacing:-0.01em;}.cls-21{letter-spacing:0em;}.cls-22{letter-spacing:-0.02em;}.cls-23{letter-spacing:0.01em;}</style></defs><title>Asset 3</title><g id="Layer_2" data-name="Layer 2"><g id="STACK"><path class="cls-1" d="M413.57,198.49a60.91,60.91,0,0,1-55.43,60.66c-1.81.17-3.64.26-5.49.26H61.41c-1.85,0-3.68-.09-5.49-.26A60.91,60.91,0,1,1,73.08,138.7a62,62,0,0,1-1-10.8,60.93,60.93,0,0,1,95-50.53A100.93,100.93,0,0,1,359.61,138,60.93,60.93,0,0,1,413.57,198.49Z"/><rect class="cls-2" x="256.95" y="73.58" width="401.12" height="227.56" rx="6" ry="6"/><rect class="cls-3" x="346.55" y="148.77" width="49.65" height="88.83" rx="6" ry="6" transform="translate(564.56 -178.18) rotate(90)"/><rect class="cls-3" x="346.55" y="88" width="49.65" height="88.83" rx="6" ry="6" transform="translate(503.78 -238.96) rotate(90)"/><rect class="cls-3" x="346.55" y="28.35" width="49.65" height="88.83" rx="6" ry="6" transform="translate(444.14 -298.6) rotate(90)"/><rect class="cls-3" x="411.91" y="202.9" width="49.65" height="88.83" rx="6" ry="6" transform="translate(684.05 -189.42) rotate(90)"/><rect class="cls-3" x="510.99" y="202.9" width="49.65" height="88.83" rx="6" ry="6" transform="translate(783.13 -288.49) rotate(90)"/><rect class="cls-3" x="610.26" y="202.9" width="49.65" height="88.83" rx="6" ry="6" transform="translate(882.4 -387.77) rotate(90)"/><rect class="cls-4" x="398.51" y="262.84" width="76.45" height="18" rx="6" ry="6"/><text class="cls-5" transform="translate(415.9 275.36)"><tspan xml:space="preserve"> G</tspan><tspan class="cls-6" x="12.38" y="0">r</tspan><tspan class="cls-7" x="16.84" y="0">a</tspan><tspan class="cls-8" x="23.32" y="0">f</tspan><tspan class="cls-7" x="27.35" y="0">ana</tspan></text><rect class="cls-4" x="274.08" y="184.19" width="72.03" height="18" rx="6" ry="6"/><text class="cls-5" transform="translate(291.33 196.71)">Kabana</text><rect class="cls-4" x="499.8" y="262.18" width="72.03" height="18" rx="6" ry="6"/><text class="cls-5" transform="translate(520.27 274.7)">S<tspan class="cls-9" x="7.52" y="0">t</tspan><tspan class="cls-7" x="11.84" y="0">atsd</tspan></text><rect class="cls-4" x="599.07" y="262.93" width="72.03" height="18" rx="6" ry="6"/><text class="cls-5" transform="translate(615.9 275.45)">Fluentd</text><circle class="cls-10" cx="415" cy="225.58" r="2.98"/><rect class="cls-4" x="249.39" y="63.77" width="92.56" height="18" rx="6" ry="6"/><text class="cls-5" transform="translate(263.15 76.29)">ElasticS<tspan class="cls-9" x="43.79" y="0">e</tspan><tspan class="cls-7" x="50.66" y="0">a</tspan><tspan class="cls-11" x="57.14" y="0">r</tspan><tspan class="cls-7" x="61.47" y="0">ch</tspan></text><rect class="cls-4" x="249.12" y="123.41" width="99.44" height="18" rx="6" ry="6"/><text class="cls-5" transform="translate(268.53 135.94)">P<tspan class="cls-12" x="6.97" y="0">r</tspan><tspan x="11.3" y="0">ometheus</tspan></text><rect class="cls-13" x="366.45" y="9.28" width="333.6" height="232.97" rx="6" ry="6"/><circle class="cls-10" cx="577.35" cy="201.57" r="2.98"/><circle class="cls-10" cx="546.35" cy="200.57" r="2.98"/><circle class="cls-10" cx="393.67" cy="46.57" r="2.98"/><circle class="cls-10" cx="403.67" cy="76.57" r="2.98"/><circle class="cls-10" cx="383.67" cy="96.57" r="2.98"/><circle class="cls-10" cx="403.67" cy="156.57" r="2.98"/><circle class="cls-10" cx="393.67" cy="176.57" r="2.98"/><circle class="cls-10" cx="597.23" cy="213.52" r="2.98"/><circle class="cls-10" cx="629.23" cy="206.19" r="2.98"/><circle class="cls-10" cx="658.07" cy="212.15" r="2.98"/><circle class="cls-10" cx="685.82" cy="207.9" r="2.98"/><rect class="cls-14" x="416.49" y="0.5" width="313.55" height="188.08" rx="6" ry="6"/><rect class="cls-14" x="482.27" y="81.78" width="42" height="131.17" rx="6" ry="6" transform="translate(650.63 -355.9) rotate(90)"/><rect class="cls-4" x="463.55" y="138.36" width="79.43" height="18" rx="6" ry="6"/><text class="cls-15" transform="translate(492.81 150.82)">App</text><rect class="cls-14" x="623.12" y="30.01" width="42" height="131.17" rx="6" ry="6" transform="translate(739.71 -548.53) rotate(90)"/><rect class="cls-4" x="604.41" y="86.59" width="79.43" height="18" rx="6" ry="6"/><text class="cls-15" transform="translate(633.25 99.04)">Hub</text><rect class="cls-14" x="481.86" y="-23.7" width="42.81" height="131.17" rx="6" ry="6" transform="translate(545.15 -461.38) rotate(90)"/><rect class="cls-4" x="463.55" y="32.88" width="79.43" height="18" rx="6" ry="6"/><text class="cls-16" transform="translate(481.46 45.41)">G<tspan class="cls-17" x="7.85" y="0">a</tspan><tspan class="cls-18" x="13.58" y="0">t</tspan><tspan class="cls-7" x="17.48" y="0">e</tspan><tspan class="cls-19" x="23.5" y="0">w</tspan><tspan class="cls-20" x="32.28" y="0">a</tspan><tspan class="cls-21" x="37.97" y="0">y</tspan></text><text></text><rect class="cls-14" x="481.68" y="29.42" width="43.18" height="131.17" rx="6" ry="6" transform="translate(598.27 -408.27) rotate(90)"/><rect class="cls-4" x="463.55" y="86" width="79.43" height="18" rx="6" ry="6"/><text class="cls-5" transform="translate(485.93 98.52)">Engine</text><rect class="cls-14" x="623.12" y="81.78" width="42" height="131.17" rx="6" ry="6" transform="translate(791.49 -496.76) rotate(90)"/><rect class="cls-4" x="604.41" y="138.36" width="79.43" height="18" rx="6" ry="6"/><text class="cls-5" transform="translate(617.18 150.88)">Sto<tspan class="cls-9" x="19.03" y="0">r</tspan><tspan x="23.6" y="0">yscript</tspan></text><rect class="cls-4" x="266.57" y="273.14" width="108.65" height="18" rx="6" ry="6"/><text class="cls-5" transform="translate(292.3 285.59)"><tspan class="cls-22">K</tspan><tspan x="7.09" y="0">ubernet</tspan><tspan class="cls-9" x="51.32" y="0">e</tspan><tspan x="58.2" y="0">s</tspan></text><rect class="cls-4" x="92.09" y="250.03" width="136.08" height="18" rx="6" ry="6"/><rect class="cls-10" x="376.81" y="214.57" width="169" height="18" rx="6" ry="6"/><text class="cls-5" transform="translate(112.08 262.55)">A<tspan class="cls-12" x="8.09" y="0">n</tspan><tspan x="15.08" y="0">y Cloud P</tspan><tspan class="cls-12" x="68.5" y="0">ro</tspan><tspan class="cls-21" x="79.9" y="0">vider</tspan></text><text class="cls-5" transform="translate(402.32 227.02)">Managed Mic<tspan class="cls-12" x="75.62" y="0">r</tspan><tspan x="79.96" y="0">ose</tspan><tspan class="cls-23" x="99.78" y="0">r</tspan><tspan x="104.35" y="0">vic</tspan><tspan class="cls-23" x="120.66" y="0">e</tspan><tspan x="127.53" y="0">s</tspan></text><g id="Asyncy_Landing-Page_Final" data-name="Asyncy Landing-Page Final"><g id="HEADER"><g id="NAV"><g id="LOGO"><g id="Logotype"><g id="Group-3"><path id="Fill-1" class="cls-24" d="M611.6,40.76c-2-.45-2.45-.74-2.45-1.65,0-1.15.74-1.6,1.94-1.6a4.33,4.33,0,0,1,2.79,1l.23.22,1.19-1.88-.17-.17a6.37,6.37,0,0,0-4-1.37c-2.45,0-4.16,1.48-4.16,3.77,0,1.94,1.14,3.14,4.1,3.77,2,.46,2.56.86,2.56,1.71,0,1.09-.85,1.66-2.22,1.72A4.65,4.65,0,0,1,608.13,45l-.23-.23-1.26,1.89.18.17a6.62,6.62,0,0,0,4.49,1.6c2.68,0,4.5-1.6,4.5-3.94,0-1.94-1.31-3.14-4.21-3.72"/></g><polygon id="Fill-4" class="cls-24" points="632.38 40.29 629.16 35.34 626.53 35.34 631.27 42.6 631.27 47.79 631.56 47.79 633.55 47.79 633.55 42.55 638.29 35.34 635.6 35.34 632.38 40.29"/><g id="Group-8"><polygon id="Fill-6" class="cls-24" points="590.16 35.39 590 35.39 584.34 48.25 586.69 48.25 590.16 40.08 593.64 48.25 593.86 48.25 595.99 48.25 590.39 35.39 590.16 35.39"/></g><polygon id="Fill-9" class="cls-24" points="701.3 35.34 698.08 40.29 694.93 35.34 692.24 35.34 696.97 42.6 696.97 47.79 697.26 47.79 699.25 47.79 699.25 42.55 703.99 35.34 701.3 35.34"/><g id="Group-13"><polygon id="Fill-11" class="cls-24" points="657.25 43.28 650.22 35.39 649.99 35.39 649.7 35.39 649.7 48.25 651.95 48.25 651.95 40.59 659.04 48.48 659.15 48.48 659.21 48.48 659.5 48.48 659.5 35.62 657.25 35.62 657.25 43.28"/></g><g id="Group-16"><path id="Fill-14" class="cls-24" d="M680.73,44.94a4,4,0,0,1-3.12,1.42c-2.47,0-4.11-1.82-4.17-4.4a4.12,4.12,0,0,1,4.17-4.45,4.05,4.05,0,0,1,3,1.31l.24.23,1.47-1.66-.18-.17a6,6,0,0,0-4.53-1.83A6.31,6.31,0,0,0,671.15,42a6.3,6.3,0,0,0,6.46,6.52,6.08,6.08,0,0,0,4.59-1.89l.18-.17-1.47-1.71Z"/></g></g></g></g></g></g></g></g></svg>