<svg xmlns="http://www.w3.org/2000/svg" width="72" height="72" viewBox="0 0 72 72">
    <g fill="none" fill-rule="evenodd">
        <path fill="#C6C7DC" fill-rule="nonzero" d="M36.5 6C19.655 6 6 19.655 6 36.5S19.655 67 36.5 67 67 53.345 67 36.5 53.345 6 36.5 6zm0 46.215c-8.68 0-15.715-7.036-15.715-15.715 0-8.68 7.036-15.715 15.715-15.715 8.68 0 15.715 7.036 15.715 15.715 0 8.68-7.036 15.715-15.715 15.715z"/>
        <path fill="#C6C7DC" d="M36.5 6h-.008v14.785h.008c8.68 0 15.715 7.036 15.715 15.715 0 8.68-7.036 15.715-15.715 15.715h-.008V67h.008C53.345 67 67 53.345 67 36.5S53.345 6 36.5 6z"/>
        <path fill="#5C52FF" d="M27.636 7.31l2.565 14.79a15.66 15.66 0 0 1 6.299-1.315c2.237 0 4.365.468 6.292 1.31l2.564-14.787A30.498 30.498 0 0 0 36.5 6c-3.083 0-6.059.46-8.864 1.31zM45.356 65.69L42.79 50.9a15.66 15.66 0 0 1-6.299 1.315c-2.237 0-4.365-.468-6.292-1.31l-2.564 14.787A30.499 30.499 0 0 0 36.492 67c3.083 0 6.059-.46 8.864-1.31zM7.31 45.36l14.79-2.565a15.66 15.66 0 0 1-1.315-6.299c0-2.237.468-4.365 1.31-6.292L7.309 27.64A30.498 30.498 0 0 0 6 36.496c0 3.083.46 6.059 1.31 8.864zM65.69 27.64L50.9 30.205a15.66 15.66 0 0 1 1.315 6.299c0 2.237-.468 4.365-1.31 6.292l14.787 2.564A30.498 30.498 0 0 0 67 36.504c0-3.083-.46-6.059-1.31-8.864z"/>
    </g>
</svg>
