<?xml version="1.0" encoding="UTF-8"?>
<svg width="72px" height="72px" viewBox="0 0 72 72" version="1.1" xmlns="http://www.w3.org/2000/svg" xmlns:xlink="http://www.w3.org/1999/xlink">
    <!-- Generator: Sketch 52 (66869) - http://www.bohemiancoding.com/sketch -->
    <title>atoms / contact-card_help</title>
    <desc>Created with Sketch.</desc>
    <g id="atoms-/-contact-card_help" stroke="none" stroke-width="1" fill="none" fill-rule="evenodd">
        <g id="life-saver" transform="translate(6.000000, 6.000000)">
            <path d="M30.5,0 C13.6553027,0 0,13.6553027 0,30.5 C0,47.3446973 13.6553027,61 30.5,61 C47.3446973,61 61,47.3446973 61,30.5 C61,13.6553027 47.3446973,0 30.5,0 Z M30.5,46.2154824 C21.8206055,46.2154824 14.7845176,39.1793945 14.7845176,30.5 C14.7845176,21.8206055 21.8206055,14.7845176 30.5,14.7845176 C39.1793945,14.7845176 46.2154824,21.8206055 46.2154824,30.5 C46.2154824,39.1793945 39.1793945,46.2154824 30.5,46.2154824 Z" id="Shape" fill="#C6C7DC" fill-rule="nonzero"></path>
            <path d="M30.5,0 C30.4973789,0 30.4946387,0.000119140625 30.4920176,0 L30.4920176,14.7846367 C30.4946387,14.7846367 30.4973789,14.7845176 30.5,14.7845176 C39.1793945,14.7845176 46.2154824,21.8206055 46.2154824,30.5 C46.2154824,39.1793945 39.1793945,46.2154824 30.5,46.2154824 C30.4973789,46.2154824 30.4946387,46.2153633 30.4920176,46.2153633 L30.4920176,61 C30.4946387,60.9998809 30.4973789,61 30.5,61 C47.3446973,61 61,47.3446973 61,30.5 C61,13.6553027 47.3446973,0 30.5,0 Z" id="Path" fill="#C6C7DC"></path>
            <path d="M21.6361758,1.30995117 L24.2006777,16.0992344 C26.1293262,15.2544082 28.2596797,14.7845176 30.5,14.7845176 C32.7373418,14.7845176 34.8649551,15.2530977 36.7915781,16.0957793 L39.3559609,1.30756836 C36.5529395,0.458453125 33.5802617,0 30.5,0 C27.4168789,0 24.4413418,0.459167969 21.6361758,1.30995117 Z" id="Path" fill="#5805FC"></path>
            <path d="M30.5,14.7845176 C32.7373418,14.7845176 34.8649551,15.2530977 36.7915781,16.0957793 L39.3559609,1.30756836 C36.5529395,0.458453125 33.5802617,0 30.5,0 C30.5,5.68527148 30.5,9.54518945 30.5,14.7845176 Z" id="Path" fill="#5805FC"></path>
            <path d="M39.3558418,59.6900488 L36.7913398,44.9007656 C34.8626914,45.7455918 32.7323379,46.2154824 30.4920176,46.2154824 C28.2546758,46.2154824 26.1270625,45.7469023 24.2004395,44.9042207 L21.6360566,59.6924316 C24.4390781,60.5415469 27.411875,61 30.4920176,61 C33.5751387,61 36.5506758,60.540832 39.3558418,59.6900488 Z" id="Path" fill="#5805FC"></path>
            <path d="M39.3558418,59.6900488 L36.7913398,44.9007656 C34.8626914,45.7455918 32.7323379,46.2154824 30.4920176,46.2154824 C30.4920176,51.9105234 30.4920176,54.1700254 30.4920176,61 C33.5751387,61 36.5506758,60.540832 39.3558418,59.6900488 Z" id="Path" fill="#5805FC"></path>
            <path d="M1.30995117,39.3598926 L16.0992344,36.7953906 C15.2544082,34.8667422 14.7845176,32.7363887 14.7845176,30.4960684 C14.7845176,28.2587266 15.2530977,26.1311133 16.0957793,24.2044902 L1.30756836,21.6401074 C0.458453125,24.4430098 0,27.4158066 0,30.4960684 C0,33.5790703 0.459167969,36.5546074 1.30995117,39.3598926 Z" id="Path" fill="#5805FC"></path>
            <path d="M59.6900488,21.6401074 L44.9007656,24.2046094 C45.7455918,26.1332578 46.2154824,28.2636113 46.2154824,30.5039316 C46.2154824,32.7412734 45.7469023,34.8688867 44.9042207,36.7955098 L59.6924316,39.3598926 C60.5415469,36.5569902 61,33.5841934 61,30.5039316 C61,27.4209297 60.540832,24.4453926 59.6900488,21.6401074 Z" id="Path" fill="#5805FC"></path>
        </g>
    </g>
</svg>