<?xml version="1.0" encoding="UTF-8"?>
<svg width="72px" height="72px" viewBox="0 0 72 72" version="1.1" xmlns="http://www.w3.org/2000/svg" xmlns:xlink="http://www.w3.org/1999/xlink">
    <!-- Generator: Sketch 52 (66869) - http://www.bohemiancoding.com/sketch -->
    <title>atoms / contact-card_media</title>
    <desc>Created with Sketch.</desc>
    <g id="atoms-/-contact-card_media" stroke="none" stroke-width="1" fill="none" fill-rule="evenodd">
        <g id="newspaper" transform="translate(10.000000, 6.000000)">
            <path d="M40.875705,0 L23.9999586,0 C17.9190446,0 12.9720968,5.5197143 12.9720968,12.3046875 L12.9720968,38.6901855 L1.57540882,38.6901855 C0.705241633,38.6901855 -3.19744231e-14,39.4770813 -3.19744231e-14,40.447998 L-3.19744231e-14,51.2109375 C-3.19744231e-14,56.0572815 3.75578299,60.888 8.09923438,60.888 L40.8752948,60 C46.9562088,60 51.9031566,54.4802857 51.9031566,47.6953125 L51.9031566,12.3046875 C51.9035668,5.5197143 46.9562088,0 40.875705,0 Z" id="Path" fill="#5805FC"></path>
            <path d="M39.3884706,0 L20.2367503,0 C6.78451758,0 7.72159883,0 7.72159883,12.5097656 L7.72159883,61 L39.3884706,61 C46.289031,61 51.9036221,55.3882905 51.9036221,48.4902344 L51.9036221,12.5097656 C51.9036221,5.61170954 46.289031,0 39.3884706,0 Z" id="Path" fill="#C6C7DC"></path>
            <path d="M39.3884706,0 L30.89884,0 L30.89884,61 L39.3884706,61 C46.289031,61 51.9036221,55.3882905 51.9036221,48.4902344 L51.9036221,12.5097656 C51.9036221,2 53,0 39.3884706,0 Z" id="Path" fill="#C6C7DC"></path>
            <path d="M44.9038905,24.6970139 L18.0628946,24.6970139 C17.0753709,24.6970139 16.2750158,25.4970245 16.2750158,26.4841233 C16.2750158,27.4707566 17.0753709,28.2712326 18.0628946,28.2712326 L44.9038905,28.2712326 C45.8914141,28.2712326 46.6917693,27.4707566 46.6917693,26.4841233 C46.6917693,25.4970245 45.8914141,24.6970139 44.9038905,24.6970139 Z" id="Path" fill="#FFFFFF"></path>
            <path d="M18.0628946,20.9054565 L44.9038905,20.9054565 C45.8914141,20.9054565 46.6917693,20.1054458 46.6917693,19.1183472 C46.6917693,18.1312485 45.8914141,17.3312378 44.9038905,17.3312378 L18.0628946,17.3312378 C17.0753709,17.3312378 16.2750158,18.1312485 16.2750158,19.1183472 C16.2750158,20.1054458 17.0753709,20.9054565 18.0628946,20.9054565 Z" id="Path" fill="#FFFFFF"></path>
            <path d="M18.0628946,13.2669602 L34.066272,13.2669602 C35.0537958,13.2669602 35.8541508,12.4669495 35.8541508,11.4798508 C35.8541508,10.492752 35.0537958,9.69274142 34.066272,9.69274142 L18.0628946,9.69274142 C17.0753709,9.69274142 16.2750158,10.492752 16.2750158,11.4798508 C16.2750158,12.4669495 17.0753709,13.2669602 18.0628946,13.2669602 Z" id="Path" fill="#FFFFFF"></path>
            <path d="M44.9038905,32.1991501 L18.0628946,32.1991501 C17.0753709,32.1991501 16.2750158,32.9991607 16.2750158,33.9862595 C16.2750158,34.9733582 17.0753709,35.7733689 18.0628946,35.7733689 L44.9038905,35.7733689 C45.8914141,35.7733689 46.6917693,34.9733582 46.6917693,33.9862595 C46.6917693,32.9991607 45.8914141,32.1991501 44.9038905,32.1991501 Z" id="Path" fill="#FFFFFF"></path>
            <g id="Group" transform="translate(30.783838, 9.650391)" fill="#FFFFFF">
                <path d="M14.1200521,15.0466233 L0.115001608,15.0466233 L0.115001608,18.620842 L14.1200521,18.620842 C15.1075758,18.620842 15.9079309,17.8203659 15.9079309,16.8337326 C15.9079309,15.8466339 15.1075758,15.0466233 14.1200521,15.0466233 Z" id="Path"></path>
                <path d="M14.1200521,7.68084717 L0.115001608,7.68084717 L0.115001608,11.2550659 L14.1200521,11.2550659 C15.1075758,11.2550659 15.9079309,10.4550552 15.9079309,9.46795654 C15.9079309,8.48085788 15.1075758,7.68084717 14.1200521,7.68084717 Z" id="Path"></path>
                <path d="M3.28243365,0.0423507988 L0.115001608,0.0423507988 L0.115001608,3.61656955 L3.28243365,3.61656955 C4.26949173,3.61656955 5.07031244,2.81655884 5.07031244,1.82946017 C5.07031244,0.842361391 4.26995742,0.0423507988 3.28243365,0.0423507988 Z" id="Path"></path>
                <path d="M14.1200521,22.5487595 L0.115001608,22.5487595 L0.115001608,26.1229782 L14.1200521,26.1229782 C15.1075758,26.1229782 15.9079309,25.3229675 15.9079309,24.3358689 C15.9079309,23.3487701 15.1075758,22.5487595 14.1200521,22.5487595 Z" id="Path"></path>
                <path d="M14.1200521,30.0508957 L4.27880372,30.0508957 C3.29127996,30.0508957 2.49092493,30.8509063 2.49092493,31.8380051 C2.49092493,32.8246384 3.29127996,33.6251145 4.27880372,33.6251145 L14.1200521,33.6251145 C15.1075758,33.6251145 15.9079309,32.8246384 15.9079309,31.8380051 C15.9079309,30.8509063 15.1075758,30.0508957 14.1200521,30.0508957 Z" id="Path"></path>
                <path d="M14.1200521,37.553032 L4.27880372,37.553032 C3.29127996,37.553032 2.49092493,38.3530425 2.49092493,39.3401413 C2.49092493,40.3267746 3.29127996,41.1272507 4.27880372,41.1272507 L14.1200521,41.1272507 C15.1075758,41.1272507 15.9079309,40.3267746 15.9079309,39.3401413 C15.9079309,38.3530425 15.1075758,37.553032 14.1200521,37.553032 Z" id="Path"></path>
            </g>
            <path d="M26.3662879,39.7012863 L18.4484059,39.7012863 C17.4608822,39.7012863 16.6605271,40.5012969 16.6605271,41.4883957 L16.6605271,48.990532 C16.6605271,49.9771653 17.4608822,50.7776413 18.4484059,50.7776413 L26.3662879,50.7776413 C27.353346,50.7776413 28.1541667,49.9771653 28.1541667,48.990532 L28.1541667,41.4883957 C28.1541667,40.5012969 27.353346,39.7012863 26.3662879,39.7012863 Z" id="Path" fill="#5805FC"></path>
        </g>
    </g>
</svg>