<svg xmlns="http://www.w3.org/2000/svg" width="72" height="72" viewBox="0 0 72 72">
    <g fill="none" fill-rule="evenodd">
        <path fill="#5C52FF" d="M50.876 6H34c-6.081 0-11.028 5.52-11.028 12.305V44.69H11.575c-.87 0-1.575.787-1.575 1.758v10.763c0 4.846 3.756 9.677 8.1 9.677L50.874 66c6.081 0 11.028-5.52 11.028-12.305v-35.39C61.903 11.52 56.956 6 50.876 6z"/>
        <path fill="#C6C7DC" d="M49.388 6H30.237C16.785 6 17.722 6 17.722 18.51V67h31.666c6.901 0 12.516-5.612 12.516-12.51V18.51C61.904 11.612 56.289 6 49.388 6z"/>
        <path fill="#C6C7DC" d="M49.388 6h-8.49v61h8.49c6.901 0 12.516-5.612 12.516-12.51V18.51C61.904 8 63 6 49.388 6z"/>
        <path fill="#FFF" d="M54.904 30.697H28.063a1.787 1.787 0 1 0 0 3.574h26.84a1.788 1.788 0 1 0 0-3.574zM28.063 26.905h26.84a1.787 1.787 0 1 0 0-3.574h-26.84a1.787 1.787 0 1 0 0 3.574zM28.063 19.267h16.003a1.787 1.787 0 1 0 0-3.574H28.063a1.787 1.787 0 1 0 0 3.574zM54.904 38.2H28.063a1.787 1.787 0 1 0 0 3.573h26.84a1.787 1.787 0 1 0 0-3.574z"/>
        <g fill="#FFF">
            <path d="M54.904 30.697H40.899v3.574h14.005a1.788 1.788 0 1 0 0-3.574zM54.904 23.331H40.899v3.574h14.005a1.787 1.787 0 1 0 0-3.574zM44.066 15.693H40.9v3.574h3.167a1.788 1.788 0 1 0 0-3.574zM54.904 38.2H40.899v3.573h14.005a1.787 1.787 0 1 0 0-3.574zM54.904 45.701h-9.841a1.787 1.787 0 1 0 0 3.575h9.84a1.788 1.788 0 1 0 0-3.575zM54.904 53.203h-9.841a1.787 1.787 0 1 0 0 3.575h9.84a1.788 1.788 0 1 0 0-3.575z"/>
        </g>
        <path fill="#5C52FF" d="M36.366 45.701h-7.918c-.987 0-1.787.8-1.787 1.787v7.503c0 .986.8 1.787 1.787 1.787h7.918c.987 0 1.788-.8 1.788-1.787v-7.503c0-.987-.8-1.787-1.788-1.787z"/>
    </g>
</svg>
