<?xml version="1.0" encoding="UTF-8"?>
<svg width="72px" height="72px" viewBox="0 0 72 72" version="1.1" xmlns="http://www.w3.org/2000/svg" xmlns:xlink="http://www.w3.org/1999/xlink">
    <!-- Generator: Sketch 52 (66869) - http://www.bohemiancoding.com/sketch -->
    <title>atoms / contact-cards_sales</title>
    <desc>Created with Sketch.</desc>
    <g id="atoms-/-contact-cards_sales" stroke="none" stroke-width="1" fill="none" fill-rule="evenodd">
        <g id="conversation" transform="translate(1.000000, 1.000000)">
            <path d="M39.7773438,25.234375 L8.98046875,25.234375 C4.25585742,25.234375 0.42578125,29.0644512 0.42578125,33.7890625 L0.42578125,55.7460938 C0.42578125,60.4707051 4.25585742,64.3007812 8.98046875,64.3007812 L18.2450527,64.3007812 L18.1165898,64.3119023 L24.3789062,70.5742188 L24.3833262,64.3007812 L39.7773438,64.3007812 C44.5019551,64.3007812 48.3320312,60.4707051 48.3320312,55.7460938 L48.3320312,33.7890625 C48.3320312,29.0644512 44.5019551,25.234375 39.7773438,25.234375 Z" id="Path" fill="#C6C7DC"></path>
            <path d="M51.2769824,0.42578125 L47.6684727,0.42578125 C37.0109004,0.42578125 28.3710938,9.06544531 28.3710938,19.7231602 C28.3710938,30.3807324 37.0107578,39.0205391 47.6684727,39.0205391 L51.2769824,39.0205391 C53.2522598,39.0205391 55.157959,38.7231211 56.9523047,38.1717715 L62.875,44.0910449 L62.875,35.1466914 C67.550707,31.6251543 70.5742188,26.0273945 70.5742188,19.7230176 C70.5742188,9.06544531 61.9345547,0.42578125 51.2769824,0.42578125 Z" id="Path" fill="#5805FC"></path>
            <path d="M49.871875,25.6298867 C49.0845586,25.6298867 48.4460937,24.9915645 48.4460937,24.2041055 L48.4460937,20.778666 C48.4460937,19.5015937 49.3200977,18.4140078 50.5716484,18.1339844 C52.1163398,17.788375 53.1581582,16.3851211 53.0486582,14.7972285 C52.9402988,13.2250195 51.6729219,11.9576426 50.1005703,11.8492832 C49.2037539,11.7874043 48.3514219,12.0886719 47.6992695,12.6973379 C47.0465469,13.3065742 46.6869648,14.1336699 46.6869648,15.0260664 C46.6869648,15.8135254 46.0485,16.4518477 45.2611836,16.4518477 C44.4738672,16.4518477 43.8354023,15.8135254 43.8354023,15.0260664 C43.8354023,13.3591855 44.5344629,11.7506191 45.7535059,10.6127031 C46.9895156,9.45881836 48.6043555,8.88807812 50.2964727,9.0042793 C53.2814883,9.21001953 55.6876367,11.616168 55.893377,14.601041 C56.0979766,17.5696602 54.1704629,20.1985156 51.2975137,20.8925859 L51.2975137,24.2041055 C51.2976562,24.9915645 50.659334,25.6298867 49.871875,25.6298867 Z" id="Path" fill="#FFFFFF"></path>
            <path d="M49.871875,31.269707 C49.4968945,31.269707 49.129043,31.1185742 48.8638477,30.8533789 C48.5987949,30.5881836 48.4460937,30.220332 48.4460937,29.8439258 C48.4460937,29.4689453 48.5986523,29.1010938 48.8638477,28.8358984 C49.129043,28.5707031 49.4968945,28.4181445 49.871875,28.4181445 C50.2468555,28.4181445 50.614707,28.5707031 50.8799023,28.8358984 C51.1449551,29.1010938 51.2976562,29.4689453 51.2976562,29.8439258 C51.2976562,30.220332 51.1450977,30.5867578 50.8799023,30.8533789 C50.614707,31.1185742 50.2468555,31.269707 49.871875,31.269707 Z" id="Path" fill="#FFFFFF"></path>
            <path d="M38.2089844,46.0507812 L8.125,46.0507812 C7.33768359,46.0507812 6.69921875,45.412459 6.69921875,44.625 C6.69921875,43.837541 7.33768359,43.1992188 8.125,43.1992188 L38.2089844,43.1992188 C38.9963008,43.1992188 39.6347656,43.837541 39.6347656,44.625 C39.6347656,45.412459 38.9964434,46.0507812 38.2089844,46.0507812 Z" id="Path" fill="#FFFFFF"></path>
            <path d="M38.2089844,54.0351563 C37.8340039,54.0351563 37.4661523,53.8825977 37.200957,53.6174023 C36.9357617,53.352207 36.7832031,52.9843555 36.7832031,52.609375 C36.7832031,52.2343945 36.9356191,51.866543 37.200957,51.6013477 C37.4661523,51.3361523 37.8340039,51.1835938 38.2089844,51.1835938 C38.5839648,51.1835938 38.9518164,51.3361523 39.2168691,51.6013477 C39.4820645,51.866543 39.6347656,52.2343945 39.6347656,52.609375 C39.6347656,52.9857813 39.482207,53.352207 39.2168691,53.6174023 C38.9518164,53.8825977 38.5839648,54.0351563 38.2089844,54.0351563 Z" id="Path" fill="#FFFFFF"></path>
            <path d="M32.600959,54.0351563 L8.125,54.0351563 C7.33768359,54.0351563 6.69921875,53.396834 6.69921875,52.609375 C6.69921875,51.821916 7.33768359,51.1835938 8.125,51.1835938 L32.600959,51.1835938 C33.3882754,51.1835938 34.0267402,51.821916 34.0267402,52.609375 C34.0267402,53.396834 33.388418,54.0351563 32.600959,54.0351563 Z" id="Path" fill="#FFFFFF"></path>
            <path d="M28.9414062,38.0664062 L8.125,38.0664062 C7.33768359,38.0664062 6.69921875,37.428084 6.69921875,36.640625 C6.69921875,35.853166 7.33768359,35.2148438 8.125,35.2148438 L28.9414062,35.2148438 C29.7287227,35.2148438 30.3671875,35.853166 30.3671875,36.640625 C30.3671875,37.428084 29.7288652,38.0664062 28.9414062,38.0664062 Z" id="Path" fill="#FFFFFF"></path>
        </g>
    </g>
</svg>