<svg xmlns="http://www.w3.org/2000/svg" width="72" height="72" viewBox="0 0 72 72">
    <g fill="none" fill-rule="evenodd">
        <path fill="#C6C7DC" d="M40.777 26.234H9.98a8.555 8.555 0 0 0-8.554 8.555v21.957a8.555 8.555 0 0 0 8.554 8.555h9.265l-.128.01 6.262 6.263.004-6.273h15.394a8.555 8.555 0 0 0 8.555-8.555V34.79a8.555 8.555 0 0 0-8.555-8.555z"/>
        <path fill="#5C52FF" d="M52.277 1.426h-3.609c-10.657 0-19.297 8.64-19.297 19.297 0 10.658 8.64 19.298 19.297 19.298h3.609c1.975 0 3.881-.298 5.675-.85l5.923 5.92v-8.944c4.676-3.522 7.7-9.12 7.7-15.424 0-10.658-8.64-19.297-19.298-19.297z"/>
        <path fill="#FFF" d="M50.872 26.63a1.426 1.426 0 0 1-1.426-1.426V21.78c0-1.277.874-2.365 2.126-2.645a3.17 3.17 0 0 0 2.477-3.337 3.187 3.187 0 0 0-5.35-2.1 3.154 3.154 0 0 0-1.012 2.33 1.426 1.426 0 0 1-2.852 0c0-1.668.7-3.276 1.919-4.414a5.99 5.99 0 0 1 4.542-1.609 6.05 6.05 0 0 1 5.597 5.597 6.005 6.005 0 0 1-4.595 6.292v3.311c0 .788-.639 1.426-1.426 1.426zM50.872 32.27c-.375 0-.743-.151-1.008-.417a1.438 1.438 0 0 1-.418-1.01c0-.374.153-.742.418-1.007a1.437 1.437 0 0 1 1.008-.418c.375 0 .743.153 1.008.418s.418.633.418 1.008c0 .376-.153.743-.418 1.01a1.435 1.435 0 0 1-1.008.416zM39.209 47.05H9.125a1.426 1.426 0 0 1 0-2.85h30.084a1.426 1.426 0 0 1 0 2.85zM39.209 55.035c-.375 0-.743-.152-1.008-.418a1.437 1.437 0 0 1-.418-1.008c0-.375.153-.742.418-1.008a1.437 1.437 0 0 1 1.008-.417c.375 0 .743.152 1.008.417.265.266.418.633.418 1.008 0 .377-.153.743-.418 1.008a1.436 1.436 0 0 1-1.008.418zM33.601 55.035H9.125a1.426 1.426 0 0 1 0-2.851h24.476a1.426 1.426 0 0 1 0 2.851zM29.941 39.066H9.125a1.426 1.426 0 0 1 0-2.851h20.816a1.426 1.426 0 0 1 0 2.851z"/>
    </g>
</svg>
