<svg xmlns="http://www.w3.org/2000/svg" xmlns:xlink="http://www.w3.org/1999/xlink" viewBox="0 0 226.31 305.02"><defs><style>.cls-1{isolation:isolate;}.cls-2,.cls-27,.cls-28{fill:#30323d;}.cls-2{opacity:0.15;}.cls-2,.cls-27,.cls-28,.cls-8{mix-blend-mode:multiply;}.cls-3{fill:url(#linear-gradient);}.cls-4{fill:url(#linear-gradient-2);}.cls-25,.cls-34,.cls-36,.cls-37,.cls-5{fill:none;}.cls-5{stroke:#36527a;stroke-linecap:round;stroke-linejoin:round;}.cls-25,.cls-5{stroke-width:2px;}.cls-6{fill:url(#linear-gradient-3);}.cls-7{fill:url(#linear-gradient-4);}.cls-8{fill:#dfe3ea;opacity:0.8;}.cls-9{fill:url(#linear-gradient-5);}.cls-10{fill:url(#linear-gradient-6);}.cls-11{fill:url(#linear-gradient-7);}.cls-12{fill:url(#linear-gradient-8);}.cls-13{fill:url(#linear-gradient-9);}.cls-14{fill:url(#linear-gradient-10);}.cls-15{fill:url(#linear-gradient-11);}.cls-16{fill:#36527a;}.cls-17{fill:url(#linear-gradient-12);}.cls-18{fill:url(#linear-gradient-13);}.cls-19{fill:url(#linear-gradient-14);}.cls-20{fill:url(#linear-gradient-15);}.cls-21{fill:url(#linear-gradient-16);}.cls-22{fill:url(#linear-gradient-17);}.cls-23{fill:url(#linear-gradient-18);}.cls-24{fill:url(#linear-gradient-19);}.cls-25{stroke:#c3cbd7;}.cls-25,.cls-36,.cls-37{stroke-miterlimit:10;}.cls-26{fill:url(#linear-gradient-20);}.cls-27{opacity:0.6;}.cls-28{opacity:0.2;}.cls-29{fill:url(#linear-gradient-21);}.cls-30{fill:url(#linear-gradient-22);}.cls-31{fill:url(#linear-gradient-23);}.cls-32{fill:url(#linear-gradient-24);}.cls-33{fill:#fff;}.cls-35{fill:url(#linear-gradient-25);}.cls-36{stroke-width:4px;stroke:url(#linear-gradient-26);}.cls-37{stroke:#7084a1;stroke-width:10px;}.cls-38{fill:url(#linear-gradient-27);}.cls-39{fill:#f65859;}.cls-40{fill:url(#linear-gradient-28);}</style><linearGradient id="linear-gradient" x1="182.96" y1="83.23" x2="182.96" y2="21.83" gradientTransform="matrix(1, -0.01, 0.01, 1, -20.83, -5.2)" gradientUnits="userSpaceOnUse"><stop offset="0" stop-color="#b5bfce"/><stop offset="1" stop-color="#fff"/></linearGradient><linearGradient id="linear-gradient-2" x1="87.33" y1="245.22" x2="87.33" y2="73.74" gradientTransform="translate(-20.16 -5.67)" gradientUnits="userSpaceOnUse"><stop offset="0" stop-color="#5e7595"/><stop offset="1" stop-color="#abb7c7"/></linearGradient><linearGradient id="linear-gradient-3" x1="98.07" y1="194.46" x2="98.07" y2="22.99" gradientTransform="translate(-20.16 -5.72)" gradientUnits="userSpaceOnUse"><stop offset="0" stop-color="#5e7595"/><stop offset="1" stop-color="#a2b0c2"/></linearGradient><linearGradient id="linear-gradient-4" x1="552.17" y1="-555.06" x2="552.26" y2="-647.88" gradientTransform="translate(683.51 719.21) rotate(-81.89)" gradientUnits="userSpaceOnUse"><stop offset="0" stop-color="#cbd2dd"/><stop offset="1" stop-color="#fff"/></linearGradient><linearGradient id="linear-gradient-5" x1="3421.21" y1="1454.55" x2="3358.03" y2="1435.41" gradientTransform="matrix(-0.7, -0.81, -0.77, 0.67, 3698.5, 1834.41)" xlink:href="#linear-gradient"/><linearGradient id="linear-gradient-6" x1="337.14" y1="-371.3" x2="312.57" y2="-378.75" gradientTransform="matrix(0.94, 0.34, 0.34, -0.94, 29.22, -396.76)" xlink:href="#linear-gradient"/><linearGradient id="linear-gradient-7" x1="353.22" y1="558.57" x2="424.44" y2="558.57" gradientTransform="translate(-459.44 63.83) rotate(-57.93)" gradientUnits="userSpaceOnUse"><stop offset="0" stop-color="#36527a"/><stop offset="1" stop-color="#607796"/></linearGradient><linearGradient id="linear-gradient-8" x1="359.41" y1="542.58" x2="369.23" y2="562.5" xlink:href="#linear-gradient-7"/><linearGradient id="linear-gradient-9" x1="114.29" y1="322.17" x2="114.29" y2="89.38" gradientTransform="matrix(1, -0.01, 0.01, 1, -20.83, -5.2)" gradientUnits="userSpaceOnUse"><stop offset="0" stop-color="#afbaca"/><stop offset="1" stop-color="#fff"/></linearGradient><linearGradient id="linear-gradient-10" x1="40.04" y1="281.41" x2="101.78" y2="281.41" gradientTransform="matrix(1, -0.01, 0.01, 1, -20.83, -5.2)" xlink:href="#linear-gradient-7"/><linearGradient id="linear-gradient-11" x1="56.91" y1="257.71" x2="114.75" y2="257.71" gradientTransform="matrix(1, -0.01, 0.01, 1, -20.83, -5.2)" xlink:href="#linear-gradient-7"/><linearGradient id="linear-gradient-12" x1="86.31" y1="185.27" x2="57.17" y2="120.01" gradientTransform="matrix(1, -0.01, 0.01, 1, -20.83, -5.2)" xlink:href="#linear-gradient-4"/><linearGradient id="linear-gradient-13" x1="43.62" y1="147.34" x2="88.39" y2="134.92" gradientTransform="matrix(1, -0.01, 0.01, 1, -20.83, -5.2)" xlink:href="#linear-gradient-7"/><linearGradient id="linear-gradient-14" x1="36.34" y1="191.72" x2="76.08" y2="191.72" gradientTransform="matrix(1, -0.01, 0.01, 1, -20.83, -5.2)" xlink:href="#linear-gradient-7"/><linearGradient id="linear-gradient-15" x1="82.51" y1="183.36" x2="22.72" y2="162.33" xlink:href="#linear-gradient"/><linearGradient id="linear-gradient-16" x1="48.25" y1="189.95" x2="48.25" y2="134.94" xlink:href="#linear-gradient"/><linearGradient id="linear-gradient-17" x1="129.14" y1="135.34" x2="131.32" y2="92.92" gradientTransform="matrix(1, -0.01, 0.01, 1, -20.83, -5.2)" xlink:href="#linear-gradient-7"/><linearGradient id="linear-gradient-18" x1="129.82" y1="285.22" x2="129.82" y2="5.36" xlink:href="#linear-gradient-9"/><linearGradient id="linear-gradient-19" x1="76.64" y1="87.46" x2="76.64" y2="40.83" xlink:href="#linear-gradient"/><linearGradient id="linear-gradient-20" x1="99.78" y1="47.09" x2="170.02" y2="85.24" gradientTransform="matrix(1, -0.01, 0.01, 1, -20.83, -5.2)" gradientUnits="userSpaceOnUse"><stop offset="0" stop-color="#a115ff"/><stop offset="0.1" stop-color="#9d1efe"/><stop offset="0.26" stop-color="#9235fc"/><stop offset="0.45" stop-color="#805bf8"/><stop offset="0.68" stop-color="#678ff2"/><stop offset="0.93" stop-color="#48d2eb"/><stop offset="1" stop-color="#3fe5e9"/></linearGradient><linearGradient id="linear-gradient-21" x1="4748.39" y1="228.44" x2="4818.69" y2="228.44" gradientTransform="matrix(-1, 0.01, 0.01, 1, 4845.49, -30.98)" gradientUnits="userSpaceOnUse"><stop offset="0" stop-color="#607796"/><stop offset="1" stop-color="#36527a"/></linearGradient><linearGradient id="linear-gradient-22" x1="148.99" y1="237.47" x2="188.41" y2="228.93" gradientTransform="matrix(1, -0.01, 0.01, 1, -20.83, -5.2)" xlink:href="#linear-gradient-7"/><linearGradient id="linear-gradient-23" x1="132.66" y1="278.65" x2="193.64" y2="278.65" gradientTransform="matrix(1, -0.01, 0.01, 1, -20.83, -5.2)" xlink:href="#linear-gradient-7"/><linearGradient id="linear-gradient-24" x1="134.33" y1="258.71" x2="182.34" y2="258.71" gradientTransform="matrix(1, -0.01, 0.01, 1, -20.83, -5.2)" xlink:href="#linear-gradient-7"/><linearGradient id="linear-gradient-25" x1="77.69" y1="85.92" x2="77.69" y2="47.15" gradientTransform="matrix(1, -0.01, 0.01, 1, -20.83, -5.2)" gradientUnits="userSpaceOnUse"><stop offset="0" stop-color="#667c9a"/><stop offset="1" stop-color="#b3bdcd"/></linearGradient><linearGradient id="linear-gradient-26" x1="98.19" y1="187.32" x2="101.85" y2="151.5" gradientTransform="matrix(1, -0.01, 0.01, 1, -20.83, -5.2)" gradientUnits="userSpaceOnUse"><stop offset="0" stop-color="#a9b5c6"/><stop offset="1" stop-color="#cbd2dd"/></linearGradient><linearGradient id="linear-gradient-27" x1="140.85" y1="185.86" x2="145.73" y2="120.22" gradientTransform="matrix(1, -0.01, 0.01, 1, -20.83, -5.2)" xlink:href="#linear-gradient-7"/><linearGradient id="linear-gradient-28" x1="140" y1="198.88" x2="140" y2="198.84" xlink:href="#linear-gradient"/></defs><title>astronaut 2</title><g class="cls-1"><g id="Layer_2" data-name="Layer 2"><g id="slide_7.1" data-name="slide 7.1"><ellipse class="cls-2" cx="95.37" cy="280.58" rx="95.37" ry="24.43" transform="translate(-1.49 0.51) rotate(-0.3)"/><path class="cls-3" d="M156,34s12.69,1.92,13.73,17.22c1.09,16.12-5.87,20.19-11.36,20.21S156,34,156,34Z"/><rect class="cls-4" x="46.65" y="68.46" width="41.04" height="104.58" transform="translate(-0.64 0.36) rotate(-0.3)"/><line class="cls-5" x1="52.33" y1="100.43" x2="52.42" y2="118"/><rect class="cls-6" x="58.58" y="68.41" width="38.66" height="104.58" transform="translate(-0.64 0.41) rotate(-0.3)"/><path class="cls-7" d="M138.78,118.8c-2.2-3.4-12.43-16.07-8.44-16.41,16.4-1.4,54.74-34.11,54.73-48.9,0-8.7,32.06-2.18,30.28,8.28-2.65,15.59-36.9,51.52-55.52,60S145,128.39,138.78,118.8Z"/><path class="cls-8" d="M159.83,121.73a44.41,44.41,0,0,1-13.74,3.74c14.6-9.54,44.28-25.4,65.74-70.36,2.48,1.89,3.95,4.16,3.52,6.67C212.7,77.35,178.45,113.29,159.83,121.73Z"/><path class="cls-9" d="M215.54,63.07c-9.44-2-18.3-7.54-26.38-16.08-2.56-2.71-8.65,5.4-4.63,10.72,6,7.89,16.95,15.51,26.91,16.54C217.32,74.85,220.68,64.18,215.54,63.07Z"/><path class="cls-10" d="M211.44,74.25a29.47,29.47,0,0,1-7.95-2.07c1.85-3.54,2.68-8.67,3-12.18a42.54,42.54,0,0,0,9,3.07C220.68,64.18,217.32,74.85,211.44,74.25Z"/><path class="cls-11" d="M189.81,48.72C194,40,205.9,30.34,213.13,29.49c7.8-.91,14.31,8.15,13,17.78-.78,5.84-5.72,19.37-13.13,20.42C207.17,67.49,186.48,55.58,189.81,48.72Z"/><path class="cls-12" d="M202.28,35.73c-2,.23-8.65,1-11.12,3.59-4.32,4.49-1.51,13.24-1.51,13.24,1.08,3.49,9,8.46,9,8.46a9.38,9.38,0,0,0,2.19-6.84c-.34-3.13-2.59-5.56-2.82-8.26a.21.21,0,0,1,0-.06c.81-1.3,3.39-1.93,5.54-2.39C207.34,42.68,206.9,35.22,202.28,35.73Z"/><path class="cls-13" d="M157.85,259.36c3.92-23.87,12-60.75,11.75-97.87-.16-30.61-9.68-57.81-23.08-75.82-12.26-16.47-65.58-7.56-71.59-1.83-8.66,8.27-12.44,42.8-9,65.79,2.77,27.85-14.22,71.83-27,100.79-7.27,16.47-15.92,18.45-18.41,22-2.34,3.3,0,6.63,2.77,7.93,11,5.1,36.73,5.47,46.55-1.49,3.6-2.55,7.56-9.52,12.08-16.86a521.5,521.5,0,0,0,34.86-69.08c1.25.05,2.51.07,3.8.06a127.35,127.35,0,0,1-1,37.64c-4.22,23-11.43,37.57-4.59,44.14,11.36,10.91,54.05,11,55.34,3.61S156.59,267.05,157.85,259.36Z"/><path class="cls-14" d="M46.59,275.39c-14.12.08-22.51-4.26-20.44-7.66-2.57,2-4.63,3.21-5.65,4.65-2.34,3.3,0,6.63,2.77,7.93,11,5.1,36.73,5.47,46.55-1.49,2.64-1.87,5.48-6.13,8.59-11.16C74.74,272.57,58.65,275.33,46.59,275.39Z"/><path class="cls-15" d="M41.75,243.52c6.37,6.34,39.07,7.7,49.76,2.84l-6.27,11.27C70.66,263,46.08,261,36.37,254.27Z"/><path class="cls-8" d="M68.91,214.52c4.56-17.32,9.94-38.35,11-67.53.62-16.83,6.34-37.31,22.1-42.33L73.66,85.31c-7.75,10.28-11,42.49-7.75,64.32,2.77,27.85-14.22,71.83-27,100.79-7.27,16.47-15.92,18.45-18.41,22-2.34,3.3,0,6.63,2.77,7.93a46.92,46.92,0,0,0,14.1,3.36C50.83,264.54,62.77,237.87,68.91,214.52Z"/><path class="cls-16" d="M44,203.59c4.32-2.55,6-8.08,5.83-11.57-.09-2.25-3-9.85-5.81-10.89s-6.77,16.92-6.77,16.92Z"/><path class="cls-17" d="M71.48,92.53C58.8,99.7,34.72,132,24.46,158,16,179.49,18.32,184,30,186.2c8.89,1.68,16-1.08,22.12-17.74C59.63,148,65.8,142,71.51,135.5,82.63,122.79,77.13,89.33,71.48,92.53Z"/><path class="cls-8" d="M31.39,175.36c8-30.16,28.34-59.82,45.47-74.19-1.21-6-3.28-9.83-5.38-8.64C58.8,99.7,34.72,132,24.46,158c-7.52,19.05-6.52,24.72,1.95,27.31C28.46,183.16,30.19,179.9,31.39,175.36Z"/><path class="cls-18" d="M28.79,145a162.61,162.61,0,0,1,13.43-22.66c3.71-5.13,16.93,1.19,14.36,4.66-3.65,4.92-9.42,15.6-13.28,23.63C41.18,155.07,26.46,150.13,28.79,145Z"/><path class="cls-19" d="M53.62,190.73c-.74-2.19-3.76-7.32-4-13.2.38-.68.76-1.36,1.17-2.05l-1.11-.11a1.48,1.48,0,0,0,0-.21s-.26,0-.66.13c-12.77-1.63-27.48-8.45-27.48-8.45-10.3,17.39-4.66,33.41,0,36.64,5.63,3.92,25.38,2.32,24.09-2.3-.61-2.21-3.2-4.1-2.8-6.15a45.33,45.33,0,0,1,1.18-4.6,31.11,31.11,0,0,0,2.88,4.73C49.47,198.59,54.47,193.22,53.62,190.73Z"/><path class="cls-20" d="M25,158.94A70.33,70.33,0,0,0,52.61,168c2.48.26.45,9.59-3.38,9.27-8.24-.69-22.36-4.72-28.47-9C16.51,165.27,21.67,157.11,25,158.94Z"/><path class="cls-21" d="M25,158.94c-3.32-1.83-8.48,6.33-4.23,9.31a48,48,0,0,0,11.83,5.34c2.64-1.49,4.62-5.88,4.91-9A79.1,79.1,0,0,1,25,158.94Z"/><path class="cls-22" d="M123.31,83.48a100.5,100.5,0,0,0-35.75,1.86c-4,1-13.74,4.06-17.59,7.93,6.18,10.84,25.7,17.42,44.86,15.94,17.09-1.32,33.37-9.56,36.66-17.67C146.74,88,134.89,85.22,123.31,83.48Z"/><path class="cls-23" d="M105.26.26c34-3.34,57.48,25.9,58.79,50.19,1.95,29.59-7.21,50.93-48.42,54.09-35.66,2.74-61-12.9-61.28-45.28C54.11,29.86,71.72,3.56,105.26.26Z"/><path class="cls-8" d="M69.55,60c.73-28.62,16.34-57.82,41.78-60a54.45,54.45,0,0,0-6.07.25c-33.54,3.3-51.15,29.6-50.91,59,.23,28.09,19.34,43.57,47.68,45.4C81.17,101.31,68.93,84.53,69.55,60Z"/><path class="cls-24" d="M46.14,52.85c2.89-10.48,10.69-13.66,15-9.67,3.43,3.16,6.13,7.84,6.18,16.92,0,10-1.77,20.17-8.9,20.2C46.87,80.36,42.78,65,46.14,52.85Z"/><path class="cls-25" d="M112.73,93.53c-14.91.08-26.66-3-32.26-8.58-10.3-10.19-9-35.72-2.42-43.66,5.14-6.21,12.08-7.1,18.83-7.14,2.17,0,4.42.08,6.8.16,2.61.1,5.31.2,8.15.18,1.42,0,2.74,0,4-.1,4-.2,7.57-.61,11.08-1a105,105,0,0,1,10.71-.86c6.06,0,10.32,1.28,13.8,4.26,5.46,4.66,6.18,16.18,6.23,20.92,0,3.6-.2,15.83-5.16,22.06-6.71,8.43-18.38,12.9-35.67,13.67C115.47,93.49,114.09,93.52,112.73,93.53Z"/><path class="cls-26" d="M80.69,43.48C88,34.62,100,38.61,116,37.81c15-.74,26-4.56,33.2,1.58,6.52,5.57,6.67,30.61.6,38.23C143,86.15,130.85,89.37,116.7,90c-16,.71-28.6-2.34-33.81-7.49C73.81,73.53,75.22,50.1,80.69,43.48Z"/><path class="cls-27" d="M149.23,39.39A12.73,12.73,0,0,0,147,37.85c5.38,7.36,5.16,29.83-.53,37-6.79,8.54-19,11.75-33.13,12.38-13.63.6-24.84-1.54-31.07-5.38.21.23.42.47.65.69,5.21,5.15,17.86,8.2,33.81,7.49,14.15-.63,26.34-3.85,33.13-12.38C155.9,70,155.75,45,149.23,39.39Z"/><path class="cls-28" d="M147.44,80.19c-33.23,9-44.78-2.39-48.71-11.16C96,62.9,95.2,48.3,100.08,37.63c-8.22-.22-14.75.24-19.39,5.85-5.47,6.62-6.88,30.05,2.2,39,5.21,5.15,17.86,8.2,33.81,7.49C129.33,89.44,140.38,86.81,147.44,80.19Z"/><path class="cls-29" d="M77.55,214.3c-10.66-.46-18.82-2.51-22.79-4.37-3-1.43-10.12,19.67-8,20.79,6.29,3.4,15.34,5.32,25.21,5C78,235.49,82.56,214.52,77.55,214.3Z"/><path class="cls-30" d="M142,214.82a86,86,0,0,0,23.67.63c2.78-.33-.83,22.18-3.12,22.69-6.44,1.43-16.45,1.52-24-.88C134.11,235.85,136.07,213.8,142,214.82Z"/><path class="cls-31" d="M112.56,261.84c-.89,5.78-.54,10.07,2.39,12.88,11.36,10.91,54.05,11,55.34,3.61.39-2.24-.69-4.15-2.34-5.93.86,2.05-9.95,6.15-31.34,2.5C122.72,272.52,112.12,266.52,112.56,261.84Z"/><path class="cls-32" d="M116.43,243.36c4,5.41,37.11,10.6,43.34,7.81-.51,4.14-.88,7.6-1.07,10.06-12.39,2.62-37.3-1.48-44.74-7.94C114.77,250.42,116.43,243.36,116.43,243.36Z"/><ellipse class="cls-33" cx="86.43" cy="50.8" rx="3.6" ry="4.71" transform="translate(-0.27 0.46) rotate(-0.3)"/><ellipse class="cls-33" cx="86.51" cy="62" rx="1.97" ry="2.58" transform="translate(-0.33 0.46) rotate(-0.3)"/><path class="cls-34" d="M46.14,52.85c2.89-10.48,10.69-13.66,15-9.67,3.43,3.16,6.13,7.84,6.18,16.92,0,10-1.77,20.17-8.9,20.2C46.87,80.36,42.78,65,46.14,52.85Z"/><path class="cls-35" d="M56.37,41.54A9.13,9.13,0,0,0,51,44.18c4.6,1.57,7.47,8.32,7.36,17.53-.1,8.55-2.28,14-4.57,17.65a11.31,11.31,0,0,0,4.66.94c.2,0,.38,0,.58,0a39.25,39.25,0,0,0,4.34-18.48C63.46,52.48,60.88,45.26,56.37,41.54Z"/><path class="cls-36" d="M61.76,173.07c0,5,4.73,6.17,8.36,5.05,3.17-1,7.78-5.78,9.93-14.5,3.28-13.36,11.65-13.88,20.58-14"/><line class="cls-37" x1="91.9" y1="150.41" x2="101.64" y2="150.36"/><path class="cls-38" d="M143.47,161.55a162.43,162.43,0,0,1-39.11,1.37,5,5,0,0,1-4.63-5.22c.52-11.66.68-24.08,0-35.18a5.13,5.13,0,0,1,5.13-5.42,341.92,341.92,0,0,0,35.76-1.47,5.42,5.42,0,0,1,6,4.83,291.26,291.26,0,0,1,1.2,36.14A5.22,5.22,0,0,1,143.47,161.55Z"/><circle class="cls-39" cx="139.35" cy="123.05" r="2.39"/><path class="cls-5" d="M107.11,131.85c8.82.73,30.05-.42,33.94-1"/><path class="cls-5" d="M107.15,138.85c8.81.73,30-.42,33.93-1"/><path class="cls-5" d="M107.19,145.84c8.81.73,30.05-.42,33.93-1"/><path class="cls-5" d="M107.22,152.84c8.82.73,30.05-.42,33.94-1"/><path class="cls-16" d="M52.89,214.17a14.94,14.94,0,0,0,4.18,2.64,37.17,37.17,0,0,0,5.06,1.85,58.21,58.21,0,0,0,10.77,2.15,59.49,59.49,0,0,1-11.15-.31,39.43,39.43,0,0,1-5.61-1,18.53,18.53,0,0,1-5.61-2.37Z"/><path class="cls-16" d="M164.28,226.9a87.49,87.49,0,0,1-10.71-1.19c-1.75-.3-3.5-.63-5.23-1a41,41,0,0,1-5.12-1.46,38.59,38.59,0,0,0,5.24.52c1.76.08,3.51.1,5.26.08a82.35,82.35,0,0,0,10.37-.68Z"/><path class="cls-16" d="M163.32,233.93a87.27,87.27,0,0,1-10.71-1.19c-1.76-.3-3.51-.63-5.24-1a42.05,42.05,0,0,1-5.11-1.45,41.88,41.88,0,0,0,5.24.52c1.75.07,3.5.09,5.25.08a84.26,84.26,0,0,0,10.37-.69Z"/><path class="cls-16" d="M50.1,221.42a15.47,15.47,0,0,0,4.19,2.64,37.9,37.9,0,0,0,5.05,1.85,58.15,58.15,0,0,0,10.78,2.15A59.6,59.6,0,0,1,59,227.75a41.16,41.16,0,0,1-5.61-1,18.16,18.16,0,0,1-5.6-2.38Z"/><path class="cls-40" d="M119.88,192.94h.68A2.58,2.58,0,0,0,119.88,192.94Z"/><path class="cls-8" d="M131,237.43c2.62-12,6.08-34.34,6-46.28a48,48,0,0,1-16.49,1.79,127.35,127.35,0,0,1-1,37.64c-4.22,23-11.43,37.57-4.59,44.14,2.85,2.74,7.68,4.8,13.33,6.23C123.63,268.84,128.63,248.37,131,237.43Z"/><line class="cls-5" x1="52.26" y1="87.8" x2="52.29" y2="93.17"/></g></g></g></svg>