<svg xmlns="http://www.w3.org/2000/svg" xmlns:xlink="http://www.w3.org/1999/xlink" viewBox="0 0 218.03 306.11"><defs><style>.cls-1{isolation:isolate;}.cls-2,.cls-28,.cls-29{fill:#30323d;}.cls-2{opacity:0.15;}.cls-2,.cls-28,.cls-29,.cls-8{mix-blend-mode:multiply;}.cls-3{fill:url(#linear-gradient);}.cls-4{fill:url(#linear-gradient-2);}.cls-26,.cls-35,.cls-37,.cls-38,.cls-5{fill:none;}.cls-5{stroke:#36527a;stroke-linecap:round;stroke-linejoin:round;}.cls-26,.cls-5{stroke-width:2px;}.cls-6{fill:url(#linear-gradient-3);}.cls-7{fill:url(#linear-gradient-4);}.cls-8{fill:#dfe3ea;opacity:0.8;}.cls-9{fill:url(#linear-gradient-5);}.cls-10{fill:url(#linear-gradient-6);}.cls-11{fill:url(#linear-gradient-7);}.cls-12{fill:url(#linear-gradient-8);}.cls-13{fill:url(#linear-gradient-9);}.cls-14{fill:url(#linear-gradient-10);}.cls-15{fill:url(#linear-gradient-11);}.cls-16{fill:url(#linear-gradient-12);}.cls-17{fill:#36527a;}.cls-18{fill:url(#linear-gradient-13);}.cls-19{fill:url(#linear-gradient-14);}.cls-20{fill:url(#linear-gradient-15);}.cls-21{fill:url(#linear-gradient-16);}.cls-22{fill:url(#linear-gradient-17);}.cls-23{fill:url(#linear-gradient-18);}.cls-24{fill:url(#linear-gradient-19);}.cls-25{fill:url(#linear-gradient-20);}.cls-26{stroke:#c3cbd7;}.cls-26,.cls-37,.cls-38{stroke-miterlimit:10;}.cls-27{fill:url(#linear-gradient-21);}.cls-28{opacity:0.6;}.cls-29{opacity:0.2;}.cls-30{fill:url(#linear-gradient-22);}.cls-31{fill:url(#linear-gradient-23);}.cls-32{fill:url(#linear-gradient-24);}.cls-33{fill:url(#linear-gradient-25);}.cls-34{fill:#fff;}.cls-36{fill:url(#linear-gradient-26);}.cls-37{stroke-width:4px;stroke:url(#linear-gradient-27);}.cls-38{stroke:#7084a1;stroke-width:10px;}.cls-39{fill:url(#linear-gradient-28);}.cls-40{fill:#f65859;}.cls-41{fill:url(#linear-gradient-29);}</style><linearGradient id="linear-gradient" x1="139.42" y1="68.75" x2="139.42" y2="7.36" gradientTransform="translate(8.04 13.86) rotate(-3.41)" gradientUnits="userSpaceOnUse"><stop offset="0" stop-color="#b5bfce"/><stop offset="1" stop-color="#fff"/></linearGradient><linearGradient id="linear-gradient-2" x1="43.8" y1="230.74" x2="43.8" y2="59.27" gradientTransform="translate(14.61 11.06)" gradientUnits="userSpaceOnUse"><stop offset="0" stop-color="#5e7595"/><stop offset="1" stop-color="#abb7c7"/></linearGradient><linearGradient id="linear-gradient-3" x1="54.54" y1="179.99" x2="54.54" y2="8.51" gradientTransform="translate(14.59 10.42)" gradientUnits="userSpaceOnUse"><stop offset="0" stop-color="#5e7595"/><stop offset="1" stop-color="#a2b0c2"/></linearGradient><linearGradient id="linear-gradient-4" x1="1385.92" y1="-833.77" x2="1386" y2="-922.14" gradientTransform="translate(-1303.8 866.18) rotate(5.53)" gradientUnits="userSpaceOnUse"><stop offset="0" stop-color="#cbd2dd"/><stop offset="1" stop-color="#fff"/></linearGradient><linearGradient id="linear-gradient-5" x1="4223.67" y1="1193.21" x2="4160.49" y2="1174.07" gradientTransform="matrix(0.88, -0.6, -0.58, -0.84, -2824.06, 3691.35)" xlink:href="#linear-gradient"/><linearGradient id="linear-gradient-6" x1="148.39" y1="176.85" x2="123.83" y2="169.41" gradientTransform="matrix(-0.45, 0.89, 0.89, 0.45, 90.49, -41.86)" xlink:href="#linear-gradient"/><linearGradient id="linear-gradient-7" x1="991.37" y1="921.21" x2="1047.15" y2="921.21" gradientTransform="translate(-160.33 -1153.72) rotate(32.14)" gradientUnits="userSpaceOnUse"><stop offset="0" stop-color="#36527a"/><stop offset="1" stop-color="#607796"/></linearGradient><linearGradient id="linear-gradient-8" x1="1008.51" y1="912.4" x2="1017.53" y2="930.71" gradientTransform="matrix(0.79, -0.61, -0.61, -0.79, -43.66, 1482.81)" xlink:href="#linear-gradient-7"/><linearGradient id="linear-gradient-9" x1="989.34" y1="926.87" x2="1020.59" y2="919.06" xlink:href="#linear-gradient-7"/><linearGradient id="linear-gradient-10" x1="70.76" y1="307.69" x2="70.76" y2="74.91" gradientTransform="translate(8.04 13.86) rotate(-3.41)" gradientUnits="userSpaceOnUse"><stop offset="0" stop-color="#afbaca"/><stop offset="1" stop-color="#fff"/></linearGradient><linearGradient id="linear-gradient-11" x1="-3.49" y1="266.94" x2="58.25" y2="266.94" gradientTransform="translate(8.04 13.86) rotate(-3.41)" xlink:href="#linear-gradient-7"/><linearGradient id="linear-gradient-12" x1="13.38" y1="243.24" x2="71.22" y2="243.24" gradientTransform="translate(8.04 13.86) rotate(-3.41)" xlink:href="#linear-gradient-7"/><linearGradient id="linear-gradient-13" x1="42.78" y1="170.79" x2="13.63" y2="105.54" gradientTransform="translate(8.04 13.86) rotate(-3.41)" xlink:href="#linear-gradient-4"/><linearGradient id="linear-gradient-14" x1="0.09" y1="132.87" x2="44.85" y2="120.44" gradientTransform="translate(8.04 13.86) rotate(-3.41)" xlink:href="#linear-gradient-7"/><linearGradient id="linear-gradient-15" x1="144.74" y1="72.26" x2="184.48" y2="72.26" gradientTransform="translate(-137.39 127.68) rotate(-3.41)" xlink:href="#linear-gradient-7"/><linearGradient id="linear-gradient-16" x1="38.98" y1="168.89" x2="-20.81" y2="147.85" xlink:href="#linear-gradient"/><linearGradient id="linear-gradient-17" x1="4.72" y1="175.48" x2="4.72" y2="120.47" xlink:href="#linear-gradient"/><linearGradient id="linear-gradient-18" x1="85.6" y1="120.86" x2="87.79" y2="78.45" gradientTransform="translate(8.04 13.86) rotate(-3.41)" xlink:href="#linear-gradient-7"/><linearGradient id="linear-gradient-19" x1="86.28" y1="270.75" x2="86.28" y2="-9.11" xlink:href="#linear-gradient-10"/><linearGradient id="linear-gradient-20" x1="33.11" y1="72.98" x2="33.11" y2="26.35" xlink:href="#linear-gradient"/><linearGradient id="linear-gradient-21" x1="56.25" y1="32.62" x2="126.49" y2="70.76" gradientTransform="translate(8.04 13.86) rotate(-3.41)" gradientUnits="userSpaceOnUse"><stop offset="0" stop-color="#a115ff"/><stop offset="0.1" stop-color="#9d1efe"/><stop offset="0.26" stop-color="#9235fc"/><stop offset="0.45" stop-color="#805bf8"/><stop offset="0.68" stop-color="#678ff2"/><stop offset="0.93" stop-color="#48d2eb"/><stop offset="1" stop-color="#3fe5e9"/></linearGradient><linearGradient id="linear-gradient-22" x1="5233.54" y1="213.96" x2="5303.84" y2="213.96" gradientTransform="matrix(-1, 0.06, 0.06, 1, 5306.67, -301.43)" gradientUnits="userSpaceOnUse"><stop offset="0" stop-color="#607796"/><stop offset="1" stop-color="#36527a"/></linearGradient><linearGradient id="linear-gradient-23" x1="105.45" y1="222.99" x2="144.88" y2="214.45" gradientTransform="translate(8.04 13.86) rotate(-3.41)" xlink:href="#linear-gradient-7"/><linearGradient id="linear-gradient-24" x1="89.13" y1="264.18" x2="150.11" y2="264.18" gradientTransform="translate(8.04 13.86) rotate(-3.41)" xlink:href="#linear-gradient-7"/><linearGradient id="linear-gradient-25" x1="90.79" y1="244.23" x2="138.81" y2="244.23" gradientTransform="translate(8.04 13.86) rotate(-3.41)" xlink:href="#linear-gradient-7"/><linearGradient id="linear-gradient-26" x1="34.15" y1="71.45" x2="34.15" y2="32.68" gradientTransform="translate(8.04 13.86) rotate(-3.41)" gradientUnits="userSpaceOnUse"><stop offset="0" stop-color="#667c9a"/><stop offset="1" stop-color="#b3bdcd"/></linearGradient><linearGradient id="linear-gradient-27" x1="54.65" y1="172.85" x2="58.32" y2="137.03" gradientTransform="translate(8.04 13.86) rotate(-3.41)" gradientUnits="userSpaceOnUse"><stop offset="0" stop-color="#a9b5c6"/><stop offset="1" stop-color="#cbd2dd"/></linearGradient><linearGradient id="linear-gradient-28" x1="97.31" y1="171.39" x2="102.2" y2="105.75" gradientTransform="translate(8.04 13.86) rotate(-3.41)" xlink:href="#linear-gradient-7"/><linearGradient id="linear-gradient-29" x1="96.46" y1="184.41" x2="96.46" y2="184.36" xlink:href="#linear-gradient"/></defs><title>astronaut 3</title><g class="cls-1"><g id="Layer_2" data-name="Layer 2"><g id="slide_7.1" data-name="slide 7.1"><ellipse class="cls-2" cx="95.21" cy="281.07" rx="95.37" ry="24.43" transform="translate(-16.53 6.15) rotate(-3.41)"/><path class="cls-3" d="M142.38,31.57S155.16,32.8,157,48c2,16-4.77,20.48-10.25,20.8S142.38,31.57,142.38,31.57Z"/><rect class="cls-4" x="37.88" y="70.71" width="41.04" height="104.58" transform="translate(-7.2 3.69) rotate(-3.41)"/><line class="cls-5" x1="42.49" y1="103.51" x2="43.53" y2="121.05"/><rect class="cls-6" x="49.8" y="70.07" width="38.66" height="104.58" transform="translate(-7.15 4.32) rotate(-3.41)"/><path class="cls-7" d="M131,90.69c11.07,1.57,47.72,25.15,65.53,47.26,5.45,6.78-1.8,41.37-8.22,32.92-24.21-31.86-48.55-37.45-57.81-55.67S119.7,89.08,131,90.69Z"/><path class="cls-8" d="M130.51,115.2a44.23,44.23,0,0,1-4.36-13.56c7.95,16.3,54.53,38.46,70,63.11-1.78,2.56-7.16,8.73-8.53,6.59C170.29,144.3,139.77,133.42,130.51,115.2Z"/><path class="cls-9" d="M187.27,167.46c3.1-9.14,9.56-17.33,18.95-24.39,3-2.24-4.38-9.21-10.12-5.81-8.52,5-17.33,15.08-19.48,24.86C175.36,167.9,185.58,172.44,187.27,167.46Z"/><path class="cls-10" d="M176.62,162.12a29.76,29.76,0,0,1,3-7.66c3.3,2.24,8.31,3.65,11.76,4.41a41.82,41.82,0,0,0-4.07,8.59C185.58,172.44,175.36,167.9,176.62,162.12Z"/><path class="cls-11" d="M201.77,142.3c8.67,4.23,17.49,8.18,16.12,14.36-1,4.6-9.63,20.44-14.72,22-5.63,1.71-19.36-5.74-20.4-13.14C183,159.65,194.91,139,201.77,142.3Z"/><path class="cls-12" d="M207.59,133c-1.42,1.76-2.74,3.79-4.14,4.89a3.68,3.68,0,0,0-1.1,1.43c-1.89,1.08-3.56,2.49-5.18,3.58a16.53,16.53,0,0,0-5.55,5.44c3,.12,6.12,1.52,9.17.38l.1,0a20.52,20.52,0,0,0,9.92-3.52c2.05-1.34,4.87-6.75,5.06-9.1C216.33,130.62,210,129.93,207.59,133Zm-6.38,15.52-.14.07Z"/><path class="cls-13" d="M206.91,147.88c5.46,10,9.68,9.88,11,8.78-.66,5.94-9.75,20.37-14,22.46-4.66,2.32-14.47-2.66-14.3-9.31C190.58,164.42,204.32,143.11,206.91,147.88Z"/><path class="cls-14" d="M156.46,256.5c2.62-24.05,8.64-61.31,6.43-98.37-1.81-30.55-12.8-57.2-27.15-74.45-13.14-15.79-65.89-4-71.58,2-8.2,8.73-10.11,43.41-5.45,66.18C63,179.57,48.4,224.4,37.21,254,30.84,270.85,22.3,273.29,20,276.93c-2.16,3.42.34,6.62,3.2,7.77,11.24,4.5,37,3.48,46.39-4,3.46-2.74,7-9.91,11.16-17.48,11-20.24,24.18-50.52,31.07-70.88,1.25,0,2.51-.05,3.79-.14a127.29,127.29,0,0,1,1,37.64c-3,23.21-9.38,38.14-2.19,44.33,11.93,10.27,54.57,8.07,55.45.61S155.61,264.24,156.46,256.5Z"/><path class="cls-15" d="M46.22,278.53c-14.09.84-22.7-3-20.82-6.55-2.46,2.17-4.45,3.46-5.39,4.95-2.16,3.42.34,6.62,3.2,7.77,11.24,4.5,37,3.48,46.39-4,2.54-2,5.14-6.41,8-11.61C74.18,274.19,58.26,277.81,46.22,278.53Z"/><path class="cls-16" d="M39.67,247c6.7,6,39.42,5.58,49.84.15L83.86,258.7c-14.27,6.17-38.93,5.5-49-.71Z"/><path class="cls-8" d="M65.22,216.54c3.61-17.55,7.85-38.83,7.35-68-.3-16.83,4.31-37.59,19.78-43.46L63,87.26c-7.18,10.68-8.68,43-4.26,64.64C63,179.57,48.4,224.4,37.21,254,30.84,270.85,22.3,273.29,20,276.93c-2.16,3.42.34,6.62,3.2,7.77a46.78,46.78,0,0,0,14.25,2.59C49.87,267.46,60.35,240.18,65.22,216.54Z"/><path class="cls-17" d="M39.74,207c4.16-2.78,5.51-8.39,5.19-11.86-.21-2.25-3.56-9.68-6.39-10.57s-5.85,17.27-5.85,17.27Z"/><path class="cls-18" d="M61.19,94.58c-12.28,7.86-34.58,41.44-43.41,68-7.3,21.9-4.73,26.25,7,27.83,9,1.2,15.91-1.94,21.13-18.91,6.4-20.81,12.24-27.13,17.59-34C74,124.19,66.65,91.09,61.19,94.58Z"/><path class="cls-8" d="M25.64,179.46C32,148.92,50.7,118.2,67,102.92c-1.54-5.89-3.82-9.63-5.84-8.34-12.28,7.86-34.58,41.44-43.41,68C11.3,182,12.6,187.58,21.2,189.7,23.13,187.41,24.68,184.06,25.64,179.46Z"/><path class="cls-19" d="M21.39,149.3a162.59,162.59,0,0,1,12.19-23.36c3.42-5.32,17,.28,14.59,3.88-3.37,5.11-8.56,16.09-12,24.32C34.31,158.67,19.34,154.54,21.39,149.3Z"/><path class="cls-20" d="M48.67,193.61c-.87-2.15-4.15-7.1-4.68-13,.34-.7.68-1.39,1-2.11l-1.11-.05v-.2l-.66.15c-12.83-.93-27.89-7-27.89-7-9.35,17.93-2.85,33.62,2,36.59,5.83,3.61,25.46,1,23.93-3.6-.73-2.17-3.41-3.91-3.13-6a44.9,44.9,0,0,1,.93-4.65,32.38,32.38,0,0,0,3.13,4.57C45,201.68,49.65,196.05,48.67,193.61Z"/><path class="cls-21" d="M18.35,163.42A70.49,70.49,0,0,0,46.42,171c2.5.13,1,9.56-2.87,9.45-8.27-.25-22.59-3.51-28.91-7.46C10.23,170.19,14.94,161.76,18.35,163.42Z"/><path class="cls-22" d="M18.35,163.42c-3.41-1.66-8.12,6.77-3.71,9.52a47.58,47.58,0,0,0,12.1,4.69c2.55-1.63,4.29-6.12,4.41-9.22A80.05,80.05,0,0,1,18.35,163.42Z"/><path class="cls-23" d="M112.44,82.74a100.39,100.39,0,0,0-35.59,3.8c-3.9,1.18-13.5,4.79-17.13,8.87,6.75,10.49,26.6,16,45.66,13.49,17-2.24,32.79-11.36,35.65-19.63C136.09,86,124.11,83.85,112.44,82.74Z"/><path class="cls-24" d="M89.92.63c33.74-5.18,58.8,22.74,61.42,46.93,3.55,29.44-4.44,51.25-45.43,56.63-35.45,4.66-61.61-9.58-63.63-41.9C40.45,33,56.61,5.74,89.92.63Z"/><path class="cls-8" d="M57.5,62.2C56.68,33.58,70.68,3.58,96,.05a50.88,50.88,0,0,0-6,.58C56.61,5.74,40.45,33,42.28,62.29,44,90.33,64,104.75,92.35,105,71.33,102.83,58.21,86.74,57.5,62.2Z"/><path class="cls-25" d="M33.73,56.33c2.32-10.61,9.94-14.21,14.47-10.47,3.59,3,6.54,7.51,7.08,16.57.59,10-.67,20.23-7.79,20.65C36,83.77,31,68.68,33.73,56.33Z"/><path class="cls-26" d="M102.43,93.35c-14.88.89-26.79-1.6-32.67-6.82C58.92,76.91,58.84,51.34,65,43.07c4.8-6.48,11.68-7.75,18.41-8.15,2.17-.13,4.42-.17,6.81-.21,2.61-.05,5.31-.09,8.15-.26,1.41-.08,2.72-.19,4-.32,3.93-.41,7.53-1,11-1.61A104.44,104.44,0,0,1,124,31.09c6-.36,10.37.72,14,3.5,5.7,4.36,7,15.82,7.36,20.55.23,3.59.65,15.82-4,22.31-6.24,8.78-17.65,13.88-34.87,15.58C105.16,93.16,103.78,93.27,102.43,93.35Z"/><path class="cls-27" d="M67.73,45.11c6.84-9.25,19.06-5.91,35-7.57,15-1.56,25.72-6,33.24-.22,6.82,5.21,8.32,30.2,2.68,38.14-6.33,8.89-18.32,12.76-32.42,14.15C90.31,91.18,77.51,88.83,72,84,62.48,75.49,62.62,52,67.73,45.11Z"/><path class="cls-28" d="M135.94,37.32a12.53,12.53,0,0,0-2.33-1.42c5.77,7.06,6.76,29.51,1.47,36.95-6.33,8.89-18.32,12.76-32.42,14.15-13.58,1.34-24.88-.19-31.31-3.7.22.23.45.46.68.66,5.48,4.87,18.28,7.22,34.17,5.65,14.1-1.39,26.09-5.26,32.42-14.15C144.26,67.52,142.76,42.53,135.94,37.32Z"/><path class="cls-29" d="M136.37,78.15c-32.7,10.82-44.85,0-49.24-8.51-3.08-6-4.65-20.5-.36-31.42-8.22.22-14.71,1-19,6.89C62.62,52,62.48,75.49,72,84c5.48,4.87,18.28,7.22,34.17,5.65C118.78,88.37,129.67,85.14,136.37,78.15Z"/><path class="cls-30" d="M73.84,215.85c-10.67.12-18.93-1.49-23-3.13-3.12-1.26-9,20.19-6.91,21.2,6.46,3.05,15.61,4.47,25.44,3.6C75.46,237,78.85,215.8,73.84,215.85Z"/><path class="cls-31" d="M138.23,212.88a85.71,85.71,0,0,0,23.67-.65c2.76-.48.37,22.19-1.89,22.83-6.35,1.77-16.34,2.4-24,.41C131.48,234.31,132.24,212.18,138.23,212.88Z"/><path class="cls-32" d="M111.37,261.42c-.58,5.82,0,10.09,3.08,12.74,11.93,10.27,54.57,8.07,55.45.61.27-2.26-.91-4.11-2.66-5.8,1,2-9.6,6.68-31.15,4.19C122.08,271.54,111.18,266.12,111.37,261.42Z"/><path class="cls-33" d="M114.23,242.76c4.31,5.19,37.63,8.58,43.69,5.46-.28,4.16-.46,7.63-.52,10.1-12.22,3.29-37.32.54-45.1-5.5C113,249.91,114.23,242.76,114.23,242.76Z"/><ellipse class="cls-34" cx="73.86" cy="52.1" rx="3.6" ry="4.71" transform="translate(-2.96 4.48) rotate(-3.41)"/><ellipse class="cls-34" cx="74.54" cy="63.29" rx="1.97" ry="2.58" transform="translate(-3.63 4.54) rotate(-3.41)"/><path class="cls-35" d="M33.73,56.33c2.32-10.61,9.94-14.21,14.47-10.47,3.59,3,6.54,7.51,7.08,16.57.59,10-.67,20.23-7.79,20.65C36,83.77,31,68.68,33.73,56.33Z"/><path class="cls-36" d="M43.33,44.49a9.19,9.19,0,0,0-5.24,2.92c4.69,1.32,7.92,7.91,8.31,17.11.36,8.54-1.53,14.11-3.61,17.88a11.23,11.23,0,0,0,4.7.68c.2,0,.38-.06.57-.08A39.23,39.23,0,0,0,51.4,64.31C51,55,48,48,43.33,44.49Z"/><path class="cls-37" d="M55.84,175.53c.29,4.95,5,5.91,8.62,4.59,3.1-1.15,7.46-6.19,9.12-15,2.56-13.52,10.89-14.5,19.8-15.14"/><line class="cls-38" x1="84.7" y1="151.27" x2="94.43" y2="150.7"/><path class="cls-39" d="M136.8,159.61a162.11,162.11,0,0,1-39,3.48,5,5,0,0,1-4.91-5c-.11-11.67-.63-24.08-1.86-35.13a5.14,5.14,0,0,1,4.84-5.69,343.87,343.87,0,0,0,35.62-3.4,5.42,5.42,0,0,1,6.23,4.5,295,295,0,0,1,3.15,36A5.22,5.22,0,0,1,136.8,159.61Z"/><circle class="cls-40" cx="130.6" cy="121.39" r="2.39"/><path class="cls-5" d="M98.89,131.92c8.84.25,30-2,33.83-2.79"/><path class="cls-5" d="M99.31,138.9c8.84.26,30-2,33.83-2.79"/><path class="cls-5" d="M99.72,145.89c8.84.25,30-2,33.84-2.8"/><path class="cls-5" d="M100.14,152.87c8.84.25,30-2,33.83-2.79"/><path class="cls-17" d="M49.2,217.05a15.18,15.18,0,0,0,4.32,2.42A37.51,37.51,0,0,0,58.67,221a58.12,58.12,0,0,0,10.88,1.56,59.34,59.34,0,0,1-11.16.3,41,41,0,0,1-5.66-.73A18.4,18.4,0,0,1,47,220.1Z"/><path class="cls-17" d="M161.12,223.74a88.86,88.86,0,0,1-10.76-.61c-1.77-.2-3.53-.44-5.28-.74a41.46,41.46,0,0,1-5.19-1.17,42.24,42.24,0,0,0,5.27.23c1.75,0,3.5-.09,5.25-.2A84.82,84.82,0,0,0,160.73,220Z"/><path class="cls-17" d="M160.54,230.81a86.76,86.76,0,0,1-10.76-.61c-1.77-.2-3.53-.44-5.28-.74a39.76,39.76,0,0,1-5.19-1.17,40.27,40.27,0,0,0,5.26.24c1.76,0,3.51-.1,5.25-.21a82.66,82.66,0,0,0,10.32-1.25Z"/><path class="cls-17" d="M46.81,224.44a15.09,15.09,0,0,0,4.33,2.41,39.3,39.3,0,0,0,5.14,1.58A58.12,58.12,0,0,0,67.16,230a60.17,60.17,0,0,1-11.16.3,42.57,42.57,0,0,1-5.66-.73,18.26,18.26,0,0,1-5.72-2.07Z"/><path class="cls-41" d="M115,192.23l.67,0A3,3,0,0,0,115,192.23Z"/><path class="cls-8" d="M128.48,236.06c2-12.08,4.22-34.63,3.51-46.54a48.21,48.21,0,0,1-16.37,2.67,127.29,127.29,0,0,1,1,37.64c-3,23.21-9.38,38.14-2.19,44.33,3,2.58,7.93,4.37,13.65,5.49C122.8,267.82,126.68,247.1,128.48,236.06Z"/><line class="cls-5" x1="41.74" y1="90.91" x2="42.05" y2="96.26"/></g></g></g></svg>