<?xml version="1.0" encoding="UTF-8"?>
<svg width="592px" height="285px" viewBox="0 0 592 285" version="1.1" xmlns="http://www.w3.org/2000/svg" xmlns:xlink="http://www.w3.org/1999/xlink">
    <!-- Generator: Sketch 52 (66869) - http://www.bohemiancoding.com/sketch -->
    <title>molecules / illustration - dashboard</title>
    <desc>Created with Sketch.</desc>
    <defs>
        <filter x="-78.5%" y="-119.9%" width="257.0%" height="339.9%" filterUnits="objectBoundingBox" id="filter-1">
            <feOffset dx="0" dy="15" in="SourceAlpha" result="shadowOffsetOuter1"></feOffset>
            <feGaussianBlur stdDeviation="154.5" in="shadowOffsetOuter1" result="shadowBlurOuter1"></feGaussianBlur>
            <feColorMatrix values="0 0 0 0 0   0 0 0 0 0   0 0 0 0 0  0 0 0 0.295346467 0" type="matrix" in="shadowBlurOuter1" result="shadowMatrixOuter1"></feColorMatrix>
            <feMerge>
                <feMergeNode in="shadowMatrixOuter1"></feMergeNode>
                <feMergeNode in="SourceGraphic"></feMergeNode>
            </feMerge>
        </filter>
    </defs>
    <g id="molecules-/-illustration---dashboard" stroke="none" stroke-width="1" fill="none" fill-rule="evenodd">
        <g id="atoms-/-illustration---asyncy_dashboard">
            <g id="Group-10">
                <path d="M440.78,82.6 L442.436,82.6 L442.436,91 L440.78,91 L440.78,82.6 Z M449.856,82.6 L451.512,82.6 L451.512,91 L450.252,91 L446.652,85.864 L446.652,91 L444.996,91 L444.996,82.6 L446.256,82.6 L449.856,87.724 L449.856,82.6 Z M456.808,91.168 C455.975996,91.168 455.276003,90.9820019 454.708,90.61 C454.139997,90.2379981 453.740001,89.7320032 453.508,89.092 L454.924,88.264 C455.252002,89.1200043 455.895995,89.548 456.856,89.548 C457.320002,89.548 457.659999,89.4640008 457.876,89.296 C458.092001,89.1279992 458.2,88.9160013 458.2,88.66 C458.2,88.3639985 458.068001,88.1340008 457.804,87.97 C457.539999,87.8059992 457.068003,87.628001 456.388,87.436 C456.011998,87.3239994 455.694001,87.2120006 455.434,87.1 C455.173999,86.9879994 454.914001,86.8380009 454.654,86.65 C454.393999,86.4619991 454.196001,86.2240014 454.06,85.936 C453.923999,85.6479986 453.856,85.3120019 453.856,84.928 C453.856,84.1679962 454.125997,83.5620023 454.666,83.11 C455.206003,82.6579977 455.855996,82.432 456.616,82.432 C457.296003,82.432 457.893997,82.5979983 458.41,82.93 C458.926003,83.2620017 459.327999,83.723997 459.616,84.316 L458.224,85.12 C457.887998,84.3999964 457.352004,84.04 456.616,84.04 C456.271998,84.04 456.002001,84.1179992 455.806,84.274 C455.609999,84.4300008 455.512,84.6319988 455.512,84.88 C455.512,85.1440013 455.621999,85.3579992 455.842,85.522 C456.062001,85.6860008 456.483997,85.863999 457.108,86.056 C457.364001,86.1360004 457.557999,86.1979998 457.69,86.242 C457.822001,86.2860002 458.001999,86.3539995 458.23,86.446 C458.458001,86.5380005 458.633999,86.6239996 458.758,86.704 C458.882001,86.7840004 459.023999,86.8919993 459.184,87.028 C459.344001,87.1640007 459.466,87.3039993 459.55,87.448 C459.634,87.5920007 459.706,87.765999 459.766,87.97 C459.826,88.174001 459.856,88.3959988 459.856,88.636 C459.856,89.4120039 459.574003,90.0279977 459.01,90.484 C458.445997,90.9400023 457.712005,91.168 456.808,91.168 Z M461.876,82.6 L463.532,82.6 L463.532,91 L461.876,91 L461.876,82.6 Z M474.336,86.488 L474.336,87.136 C474.336,88.336006 473.952004,89.3079963 473.184,90.052 C472.415996,90.7960037 471.424006,91.168 470.208,91.168 C468.911994,91.168 467.838004,90.7460042 466.986,89.902 C466.133996,89.0579958 465.708,88.0280061 465.708,86.812 C465.708,85.5879939 466.129996,84.5520042 466.974,83.704 C467.818004,82.8559958 468.863994,82.432 470.112,82.432 C470.896004,82.432 471.611997,82.6099982 472.26,82.966 C472.908003,83.3220018 473.411998,83.795997 473.772,84.388 L472.356,85.204 C472.155999,84.8599983 471.854002,84.5800011 471.45,84.364 C471.045998,84.1479989 470.596002,84.04 470.1,84.04 C469.299996,84.04 468.642003,84.3019974 468.126,84.826 C467.609997,85.3500026 467.352,86.011996 467.352,86.812 C467.352,87.604004 467.613997,88.2579974 468.138,88.774 C468.662003,89.2900026 469.355996,89.548 470.22,89.548 C470.860003,89.548 471.389998,89.4060014 471.81,89.122 C472.230002,88.8379986 472.515999,88.4480025 472.668,87.952 L470.124,87.952 L470.124,86.488 L474.336,86.488 Z M481.288,82.6 L482.932,82.6 L482.932,91 L481.288,91 L481.288,87.52 L478.168,87.52 L478.168,91 L476.512,91 L476.512,82.6 L478.168,82.6 L478.168,85.936 L481.288,85.936 L481.288,82.6 Z M491.048,82.6 L491.048,84.184 L488.78,84.184 L488.78,91 L487.124,91 L487.124,84.184 L484.868,84.184 L484.868,82.6 L491.048,82.6 Z M495.84,91.168 C495.007996,91.168 494.308003,90.9820019 493.74,90.61 C493.171997,90.2379981 492.772001,89.7320032 492.54,89.092 L493.956,88.264 C494.284002,89.1200043 494.927995,89.548 495.888,89.548 C496.352002,89.548 496.691999,89.4640008 496.908,89.296 C497.124001,89.1279992 497.232,88.9160013 497.232,88.66 C497.232,88.3639985 497.100001,88.1340008 496.836,87.97 C496.571999,87.8059992 496.100003,87.628001 495.42,87.436 C495.043998,87.3239994 494.726001,87.2120006 494.466,87.1 C494.205999,86.9879994 493.946001,86.8380009 493.686,86.65 C493.425999,86.4619991 493.228001,86.2240014 493.092,85.936 C492.955999,85.6479986 492.888,85.3120019 492.888,84.928 C492.888,84.1679962 493.157997,83.5620023 493.698,83.11 C494.238003,82.6579977 494.887996,82.432 495.648,82.432 C496.328003,82.432 496.925997,82.5979983 497.442,82.93 C497.958003,83.2620017 498.359999,83.723997 498.648,84.316 L497.256,85.12 C496.919998,84.3999964 496.384004,84.04 495.648,84.04 C495.303998,84.04 495.034001,84.1179992 494.838,84.274 C494.641999,84.4300008 494.544,84.6319988 494.544,84.88 C494.544,85.1440013 494.653999,85.3579992 494.874,85.522 C495.094001,85.6860008 495.515997,85.863999 496.14,86.056 C496.396001,86.1360004 496.589999,86.1979998 496.722,86.242 C496.854001,86.2860002 497.033999,86.3539995 497.262,86.446 C497.490001,86.5380005 497.665999,86.6239996 497.79,86.704 C497.914001,86.7840004 498.055999,86.8919993 498.216,87.028 C498.376001,87.1640007 498.498,87.3039993 498.582,87.448 C498.666,87.5920007 498.738,87.765999 498.798,87.97 C498.858,88.174001 498.888,88.3959988 498.888,88.636 C498.888,89.4120039 498.606003,90.0279977 498.042,90.484 C497.477997,90.9400023 496.744005,91.168 495.84,91.168 Z" id="Insights" fill="#C6C7DC"></path>
                <path d="M446.336,15.6 L446.336,17.184 L444.068,17.184 L444.068,24 L442.412,24 L442.412,17.184 L440.156,17.184 L440.156,15.6 L446.336,15.6 Z M452.868,24 L451.176,21.084 L449.916,21.084 L449.916,24 L448.26,24 L448.26,15.6 L451.62,15.6 C452.396004,15.6 453.055997,15.8719973 453.6,16.416 C454.144003,16.9600027 454.416,17.6159962 454.416,18.384 C454.416,18.9040026 454.268001,19.3859978 453.972,19.83 C453.675999,20.2740022 453.284002,20.6079989 452.796,20.832 L454.656,24 L452.868,24 Z M449.916,17.148 L449.916,19.632 L451.62,19.632 C451.932002,19.632 452.199999,19.5100012 452.424,19.266 C452.648001,19.0219988 452.76,18.7280017 452.76,18.384 C452.76,18.0399983 452.648001,17.7480012 452.424,17.508 C452.199999,17.2679988 451.932002,17.148 451.62,17.148 L449.916,17.148 Z M458.284,22.416 L461.824,22.416 L461.824,24 L456.628,24 L456.628,15.6 L461.764,15.6 L461.764,17.184 L458.284,17.184 L458.284,18.972 L461.464,18.972 L461.464,20.532 L458.284,20.532 L458.284,22.416 Z M468.848,15.6 L470.504,15.6 L470.504,24 L469.244,24 L465.644,18.864 L465.644,24 L463.988,24 L463.988,15.6 L465.248,15.6 L468.848,20.724 L468.848,15.6 Z M476.4,15.6 C477.552006,15.6 478.513996,16.003996 479.286,16.812 C480.058004,17.620004 480.444,18.6159941 480.444,19.8 C480.444,20.9840059 480.058004,21.979996 479.286,22.788 C478.513996,23.596004 477.552006,24 476.4,24 L473.064,24 L473.064,15.6 L476.4,15.6 Z M476.4,22.416 C477.128004,22.416 477.719998,22.1740024 478.176,21.69 C478.632002,21.2059976 478.86,20.5760039 478.86,19.8 C478.86,19.0239961 478.632002,18.3940024 478.176,17.91 C477.719998,17.4259976 477.128004,17.184 476.4,17.184 L474.72,17.184 L474.72,22.416 L476.4,22.416 Z M485.188,24.168 C484.355996,24.168 483.656003,23.9820019 483.088,23.61 C482.519997,23.2379981 482.120001,22.7320032 481.888,22.092 L483.304,21.264 C483.632002,22.1200043 484.275995,22.548 485.236,22.548 C485.700002,22.548 486.039999,22.4640008 486.256,22.296 C486.472001,22.1279992 486.58,21.9160013 486.58,21.66 C486.58,21.3639985 486.448001,21.1340008 486.184,20.97 C485.919999,20.8059992 485.448003,20.628001 484.768,20.436 C484.391998,20.3239994 484.074001,20.2120006 483.814,20.1 C483.553999,19.9879994 483.294001,19.8380009 483.034,19.65 C482.773999,19.4619991 482.576001,19.2240014 482.44,18.936 C482.303999,18.6479986 482.236,18.3120019 482.236,17.928 C482.236,17.1679962 482.505997,16.5620023 483.046,16.11 C483.586003,15.6579977 484.235996,15.432 484.996,15.432 C485.676003,15.432 486.273997,15.5979983 486.79,15.93 C487.306003,16.2620017 487.707999,16.723997 487.996,17.316 L486.604,18.12 C486.267998,17.3999964 485.732004,17.04 484.996,17.04 C484.651998,17.04 484.382001,17.1179992 484.186,17.274 C483.989999,17.4300008 483.892,17.6319988 483.892,17.88 C483.892,18.1440013 484.001999,18.3579992 484.222,18.522 C484.442001,18.6860008 484.863997,18.863999 485.488,19.056 C485.744001,19.1360004 485.937999,19.1979998 486.07,19.242 C486.202001,19.2860002 486.381999,19.3539995 486.61,19.446 C486.838001,19.5380005 487.013999,19.6239996 487.138,19.704 C487.262001,19.7840004 487.403999,19.8919993 487.564,20.028 C487.724001,20.1640007 487.846,20.3039993 487.93,20.448 C488.014,20.5920007 488.086,20.765999 488.146,20.97 C488.206,21.174001 488.236,21.3959988 488.236,21.636 C488.236,22.4120039 487.954003,23.0279977 487.39,23.484 C486.825997,23.9400023 486.092005,24.168 485.188,24.168 Z" id="TRENDS" fill="#C6C7DC"></path>
                <path d="M449,182.6 L449,191 L447.356,191 L447.356,185.552 L444.992,189.452 L444.8,189.452 L442.436,185.564 L442.436,191 L440.78,191 L440.78,182.6 L442.484,182.6 L444.896,186.572 L447.296,182.6 L449,182.6 Z M453.216,189.416 L456.756,189.416 L456.756,191 L451.56,191 L451.56,182.6 L456.696,182.6 L456.696,184.184 L453.216,184.184 L453.216,185.972 L456.396,185.972 L456.396,187.532 L453.216,187.532 L453.216,189.416 Z M464.476,182.6 L464.476,184.184 L462.208,184.184 L462.208,191 L460.552,191 L460.552,184.184 L458.296,184.184 L458.296,182.6 L464.476,182.6 Z M471.008,191 L469.316,188.084 L468.056,188.084 L468.056,191 L466.4,191 L466.4,182.6 L469.76,182.6 C470.536004,182.6 471.195997,182.871997 471.74,183.416 C472.284003,183.960003 472.556,184.615996 472.556,185.384 C472.556,185.904003 472.408001,186.385998 472.112,186.83 C471.815999,187.274002 471.424002,187.607999 470.936,187.832 L472.796,191 L471.008,191 Z M468.056,184.148 L468.056,186.632 L469.76,186.632 C470.072002,186.632 470.339999,186.510001 470.564,186.266 C470.788001,186.021999 470.9,185.728002 470.9,185.384 C470.9,185.039998 470.788001,184.748001 470.564,184.508 C470.339999,184.267999 470.072002,184.148 469.76,184.148 L468.056,184.148 Z M474.768,182.6 L476.424,182.6 L476.424,191 L474.768,191 L474.768,182.6 Z M482.968,191.168 C481.703994,191.168 480.660004,190.748004 479.836,189.908 C479.011996,189.067996 478.6,188.032006 478.6,186.8 C478.6,185.559994 479.011996,184.522004 479.836,183.686 C480.660004,182.849996 481.703994,182.432 482.968,182.432 C483.728004,182.432 484.429997,182.609998 485.074,182.966 C485.718003,183.322002 486.219998,183.803997 486.58,184.412 L485.152,185.24 C484.943999,184.863998 484.648002,184.570001 484.264,184.358 C483.879998,184.145999 483.448002,184.04 482.968,184.04 C482.151996,184.04 481.494003,184.295997 480.994,184.808 C480.493997,185.320003 480.244,185.983996 480.244,186.8 C480.244,187.608004 480.493997,188.267997 480.994,188.78 C481.494003,189.292003 482.151996,189.548 482.968,189.548 C483.448002,189.548 483.881998,189.442001 484.27,189.23 C484.658002,189.017999 484.951999,188.728002 485.152,188.36 L486.58,189.188 C486.219998,189.796003 485.720003,190.277998 485.08,190.634 C484.439997,190.990002 483.736004,191.168 482.968,191.168 Z M491.468,191.168 C490.635996,191.168 489.936003,190.982002 489.368,190.61 C488.799997,190.237998 488.400001,189.732003 488.168,189.092 L489.584,188.264 C489.912002,189.120004 490.555995,189.548 491.516,189.548 C491.980002,189.548 492.319999,189.464001 492.536,189.296 C492.752001,189.127999 492.86,188.916001 492.86,188.66 C492.86,188.363999 492.728001,188.134001 492.464,187.97 C492.199999,187.805999 491.728003,187.628001 491.048,187.436 C490.671998,187.323999 490.354001,187.212001 490.094,187.1 C489.833999,186.987999 489.574001,186.838001 489.314,186.65 C489.053999,186.461999 488.856001,186.224001 488.72,185.936 C488.583999,185.647999 488.516,185.312002 488.516,184.928 C488.516,184.167996 488.785997,183.562002 489.326,183.11 C489.866003,182.657998 490.515996,182.432 491.276,182.432 C491.956003,182.432 492.553997,182.597998 493.07,182.93 C493.586003,183.262002 493.987999,183.723997 494.276,184.316 L492.884,185.12 C492.547998,184.399996 492.012004,184.04 491.276,184.04 C490.931998,184.04 490.662001,184.117999 490.466,184.274 C490.269999,184.430001 490.172,184.631999 490.172,184.88 C490.172,185.144001 490.281999,185.357999 490.502,185.522 C490.722001,185.686001 491.143997,185.863999 491.768,186.056 C492.024001,186.136 492.217999,186.198 492.35,186.242 C492.482001,186.286 492.661999,186.354 492.89,186.446 C493.118001,186.538 493.293999,186.624 493.418,186.704 C493.542001,186.784 493.683999,186.891999 493.844,187.028 C494.004001,187.164001 494.126,187.303999 494.21,187.448 C494.294,187.592001 494.366,187.765999 494.426,187.97 C494.486,188.174001 494.516,188.395999 494.516,188.636 C494.516,189.412004 494.234003,190.027998 493.67,190.484 C493.105997,190.940002 492.372005,191.168 491.468,191.168 Z" id="METRICS" fill="#C6C7DC"></path>
                <path d="M442.436,275.416 L445.64,275.416 L445.64,277 L440.78,277 L440.78,268.6 L442.436,268.6 L442.436,275.416 Z M454.128,275.908 C453.279996,276.748004 452.248006,277.168 451.032,277.168 C449.815994,277.168 448.786004,276.746004 447.942,275.902 C447.097996,275.057996 446.676,274.024006 446.676,272.8 C446.676,271.575994 447.097996,270.542004 447.942,269.698 C448.786004,268.853996 449.815994,268.432 451.032,268.432 C452.248006,268.432 453.279996,268.853996 454.128,269.698 C454.976004,270.542004 455.4,271.575994 455.4,272.8 C455.4,274.024006 454.976004,275.059996 454.128,275.908 Z M449.1,274.78 C449.620003,275.292003 450.263996,275.548 451.032,275.548 C451.800004,275.548 452.443997,275.290003 452.964,274.774 C453.484003,274.257997 453.744,273.600004 453.744,272.8 C453.744,271.999996 453.484003,271.340003 452.964,270.82 C452.443997,270.299997 451.800004,270.04 451.032,270.04 C450.263996,270.04 449.620003,270.299997 449.1,270.82 C448.579997,271.340003 448.32,271.999996 448.32,272.8 C448.32,273.600004 448.579997,274.259997 449.1,274.78 Z M465.808,272.488 L465.808,273.136 C465.808,274.336006 465.424004,275.307996 464.656,276.052 C463.887996,276.796004 462.896006,277.168 461.68,277.168 C460.383994,277.168 459.310004,276.746004 458.458,275.902 C457.605996,275.057996 457.18,274.028006 457.18,272.812 C457.18,271.587994 457.601996,270.552004 458.446,269.704 C459.290004,268.855996 460.335994,268.432 461.584,268.432 C462.368004,268.432 463.083997,268.609998 463.732,268.966 C464.380003,269.322002 464.883998,269.795997 465.244,270.388 L463.828,271.204 C463.627999,270.859998 463.326002,270.580001 462.922,270.364 C462.517998,270.147999 462.068002,270.04 461.572,270.04 C460.771996,270.04 460.114003,270.301997 459.598,270.826 C459.081997,271.350003 458.824,272.011996 458.824,272.812 C458.824,273.604004 459.085997,274.257997 459.61,274.774 C460.134003,275.290003 460.827996,275.548 461.692,275.548 C462.332003,275.548 462.861998,275.406001 463.282,275.122 C463.702002,274.837999 463.987999,274.448002 464.14,273.952 L461.596,273.952 L461.596,272.488 L465.808,272.488 Z M470.552,277.168 C469.719996,277.168 469.020003,276.982002 468.452,276.61 C467.883997,276.237998 467.484001,275.732003 467.252,275.092 L468.668,274.264 C468.996002,275.120004 469.639995,275.548 470.6,275.548 C471.064002,275.548 471.403999,275.464001 471.62,275.296 C471.836001,275.127999 471.944,274.916001 471.944,274.66 C471.944,274.363999 471.812001,274.134001 471.548,273.97 C471.283999,273.805999 470.812003,273.628001 470.132,273.436 C469.755998,273.323999 469.438001,273.212001 469.178,273.1 C468.917999,272.987999 468.658001,272.838001 468.398,272.65 C468.137999,272.461999 467.940001,272.224001 467.804,271.936 C467.667999,271.647999 467.6,271.312002 467.6,270.928 C467.6,270.167996 467.869997,269.562002 468.41,269.11 C468.950003,268.657998 469.599996,268.432 470.36,268.432 C471.040003,268.432 471.637997,268.597998 472.154,268.93 C472.670003,269.262002 473.071999,269.723997 473.36,270.316 L471.968,271.12 C471.631998,270.399996 471.096004,270.04 470.36,270.04 C470.015998,270.04 469.746001,270.117999 469.55,270.274 C469.353999,270.430001 469.256,270.631999 469.256,270.88 C469.256,271.144001 469.365999,271.357999 469.586,271.522 C469.806001,271.686001 470.227997,271.863999 470.852,272.056 C471.108001,272.136 471.301999,272.198 471.434,272.242 C471.566001,272.286 471.745999,272.354 471.974,272.446 C472.202001,272.538 472.377999,272.624 472.502,272.704 C472.626001,272.784 472.767999,272.891999 472.928,273.028 C473.088001,273.164001 473.21,273.303999 473.294,273.448 C473.378,273.592001 473.45,273.765999 473.51,273.97 C473.57,274.174001 473.6,274.395999 473.6,274.636 C473.6,275.412004 473.318003,276.027998 472.754,276.484 C472.189997,276.940002 471.456005,277.168 470.552,277.168 Z" id="LOGS" fill="#C6C7DC"></path>
                <g id="Group" filter="url(#filter-1)">
                    <rect id="Rectangle" fill="#21212A" x="-5.68434189e-14" y="0.12234763" width="413.577426" height="270.308736" rx="12.2399998"></rect>
                    <path d="M12.2485207,0 L401.328905,0 C408.093577,4.13751392e-16 413.577426,5.47768997 413.577426,12.234763 L413.577426,27.901377 L-5.68434189e-14,27.901377 L-5.68434189e-14,12.234763 C-5.76718522e-14,5.47768997 5.48384951,1.24125418e-15 12.2485207,0 Z" id="Path" fill="#1E1E27"></path>
                    <ellipse id="Oval" fill="#FF5F57" cx="19.0586982" cy="13.9782167" rx="3.56431953" ry="3.61537246"></ellipse>
                    <ellipse id="Oval" fill="#FFBC2D" cx="30.7131657" cy="13.9782167" rx="3.56431953" ry="3.61537246"></ellipse>
                    <ellipse id="Oval" fill="#29CA42" cx="42.3308876" cy="13.9782167" rx="3.56431953" ry="3.61537246"></ellipse>
                    <rect id="Rectangle" fill="#464769" x="40.6650888" y="40.5582393" width="33.9651479" height="5.26706546" rx="2.63353273"></rect>
                    <rect id="Rectangle" fill="#262633" x="25.7953846" y="81.3856433" width="38.4726036" height="3.11986456" rx="1.55993228"></rect>
                    <rect id="Rectangle" fill="#262633" x="9.97029586" y="65.2296388" width="27.8408876" height="3.11986456" rx="1.55993228"></rect>
                    <rect id="Rectangle" fill="#262633" x="80.0808284" y="65.2296388" width="11.1767751" height="3.11986456" rx="1.55993228"></rect>
                    <rect id="Rectangle" fill="#262633" x="9.97029586" y="138.552573" width="27.8408876" height="3.11986456" rx="1.55993228"></rect>
                    <rect id="Rectangle" fill="#262633" x="80.0808284" y="138.552573" width="11.1767751" height="3.11986456" rx="1.55993228"></rect>
                    <rect id="Rectangle" fill="#464769" x="9.97029586" y="78.1740181" width="9.54772189" height="9.53699774" rx="2.71115995"></rect>
                    <rect id="Rectangle" fill="#262633" x="25.7953846" y="98.2940858" width="46.4831361" height="3.11986456" rx="1.55993228"></rect>
                    <rect id="Rectangle" fill="#464769" x="9.97029586" y="95.0824605" width="9.54772189" height="9.53699774" rx="2.71115995"></rect>
                    <rect id="Rectangle" fill="#262633" x="25.7953846" y="115.202528" width="31.8522781" height="3.11986456" rx="1.55993228"></rect>
                    <rect id="Rectangle" fill="#464769" x="9.97029586" y="111.990903" width="9.54772189" height="9.53699774" rx="2.71115995"></rect>
                    <path d="M9.97029586,180.389345 L91.2514793,180.389345 L91.2514793,191.474041 C91.2514793,192.5416 90.8269162,193.565435 90.0711889,194.320313 C89.3154617,195.075191 88.2904757,195.499278 87.221716,195.499278 L14.0000592,195.499278 C11.7744823,195.499278 9.97029586,193.697118 9.97029586,191.474041 L9.97029586,180.389345 Z" id="Path" fill="#262633"></path>
                    <rect id="Rectangle" fill="#464769" x="113.715266" y="42.2344018" width="27.8408876" height="3.11986456" rx="1.55993228"></rect>
                    <rect id="Rectangle" fill="#464769" x="256.526893" y="42.2344018" width="27.8408876" height="3.11986456" rx="1.55993228"></rect>
                    <rect id="Rectangle" fill="#464769" x="113.715266" y="163.872415" width="27.8408876" height="3.11986456" rx="1.55993228"></rect>
                    <rect id="Rectangle" fill="#464769" x="256.526893" y="163.872415" width="27.8408876" height="3.11986456" rx="1.55993228"></rect>
                    <polygon id="Path" fill="#464769" fill-rule="nonzero" points="308.04347 70.5907213 308.106115 70.0845834 363.746988 76.97128 362.946144 77.3466103 310.978083 101.701205 286.444296 116.089286 286.186296 115.649359 310.740868 101.250342 361.92887 77.2601421"></polygon>
                    <path d="M349.719604,115.56358 L349.607598,115.699701 L349.638531,115.611012 L349.719604,115.56358 Z M362.597154,78.4570829 L363.078704,78.625039 L350.089148,115.867658 L349.977141,116.003779 L329.754834,127.834794 L329.497297,127.394596 L349.638531,115.611012 L362.597154,78.4570829 Z" id="Path" fill="#464769" fill-rule="nonzero"></path>
                    <polygon id="Path" fill="#464769" fill-rule="nonzero" points="272.688114 73.0512268 272.652774 72.5424527 309.323679 69.9952903 265.460352 92.0436148 265.231304 91.5879428 306.825907 70.6800145"></polygon>
                    <ellipse id="Oval" fill="#464769" cx="362.837929" cy="77.1157111" rx="21.9922189" ry="21.9675169"></ellipse>
                    <ellipse id="Oval" fill="#464769" cx="308.068669" cy="70.3376524" rx="9.30887574" ry="9.29841986"></ellipse>
                    <ellipse id="Oval" fill="#464769" cx="349.848373" cy="115.783679" rx="6.5345858" ry="6.52724605"></ellipse>
                    <ellipse id="Oval" fill="#464769" cx="310.849083" cy="101.481242" rx="6.5345858" ry="6.52724605"></ellipse>
                    <path d="M13.7952958,152.430982 C11.8236393,152.430982 10.2252959,154.029325 10.2252959,156.000982 L10.2252959,191.649808 C10.2252959,193.621465 11.8236393,195.219808 13.7952958,195.219808 L87.4264794,195.219808 C89.3981359,195.219808 90.9964793,193.621465 90.9964793,191.649808 L90.9964793,156.000982 C90.9964793,154.029325 89.3981359,152.430982 87.4264794,152.430982 L13.7952958,152.430982 Z M13.7952958,151.920982 L87.4264794,151.920982 C89.6798011,151.920982 91.5064793,153.74766 91.5064793,156.000982 L91.5064793,191.649808 C91.5064793,193.90313 89.6798011,195.729808 87.4264794,195.729808 L13.7952958,195.729808 C11.541974,195.729808 9.71529586,193.90313 9.71529586,191.649808 L9.71529586,156.000982 C9.71529586,153.74766 11.541974,151.920982 13.7952958,151.920982 Z" id="Rectangle" fill="#464769" fill-rule="nonzero"></path>
                    <ellipse id="Oval" fill="#C0C0DD" opacity="0.2" cx="286.315296" cy="115.869323" rx="6.20387574" ry="6.19690745"></ellipse>
                    <ellipse id="Oval" fill="#C0C0DD" cx="286.315296" cy="115.869323" rx="4.4952071" ry="4.49015801"></ellipse>
                    <ellipse id="Oval" fill="#464769" cx="329.944527" cy="127.614695" rx="3.21523669" ry="3.21162528"></ellipse>
                    <ellipse id="Oval" fill="#C0C0DD" opacity="0.2" cx="272.670444" cy="72.7968397" rx="4.42171598" ry="4.41674944"></ellipse>
                    <ellipse id="Oval" fill="#C0C0DD" cx="272.670444" cy="72.7968397" rx="3.14174556" ry="3.1382167"></ellipse>
                    <ellipse id="Oval" fill="#464769" cx="265.345828" cy="91.8157788" rx="3.14174556" ry="3.1382167"></ellipse>
                    <path d="M232.039882,69.9111059 L232.039882,123.932031 C232.039883,127.34424 229.272618,130.111253 225.856598,130.114774 L119.674172,130.114774 C118.033216,130.114775 116.459545,129.463196 115.299771,128.303529 C114.139942,127.143805 113.489192,125.571076 113.490888,123.932032 L113.490888,84.3130477 L113.798835,84.3784129 L126.047761,86.9783864 C128.065886,87.4101854 130.171928,86.9307027 131.803454,85.6679562 L136.439456,82.0832195 C139.387954,79.801851 143.563985,80.0199779 146.258079,82.5959749 L150.006287,86.1747971 C151.795911,87.8865384 154.355854,88.5302914 156.743401,87.8690761 L167.528492,84.8714845 C169.646584,84.2852856 171.894901,84.3729263 173.960569,85.1221303 L182.675086,88.2724716 C184.757087,89.0221315 187.070752,88.751013 188.922144,87.5406386 L198.347213,81.356076 C200.380907,80.0193133 202.936373,79.7480115 205.206029,80.6279569 L211.618017,83.1176876 C214.095307,84.0782547 216.903094,83.5620925 218.875639,81.7835482 L232.039882,69.9111059 Z M219.217179,82.1622965 C217.101608,84.0698001 214.090415,84.6233549 211.433528,83.5931492 L205.02155,81.1034225 C202.905711,80.2831118 200.523273,80.5360439 198.627175,81.7823636 L189.201578,87.9672727 C187.215856,89.2654675 184.734886,89.556191 182.502005,88.7522038 L173.786931,85.6016612 C171.82056,84.8884718 169.680561,84.8050534 167.664795,85.3629329 L156.879745,88.3605128 C154.318833,89.0697408 151.573262,88.3793075 149.653933,86.5435059 L145.905755,82.9647129 C143.393945,80.56301 139.500456,80.3596411 136.751487,82.4866262 L132.115513,86.0713407 C130.365303,87.4259443 128.10602,87.9403156 125.941461,87.4771853 L114.000888,84.9426634 L114.000887,123.932295 C113.999332,125.436131 114.596318,126.878924 115.660379,127.942888 C116.724495,129.006907 118.168447,129.604775 119.674172,129.604774 L225.856335,129.604774 C228.99076,129.601543 231.529883,127.062652 231.529882,123.932032 L231.529882,71.0578332 L219.217179,82.1622965 Z" id="Path" fill="#464769" fill-rule="nonzero"></path>
                    <path d="M231.784882,82.7192325 L219.04642,94.2076749 C217.002351,96.0507093 214.092861,96.5855678 211.525828,95.5902032 L205.113728,93.1004289 C202.921042,92.2503246 200.45209,92.5124416 198.487278,93.8039278 L189.062041,99.9886005 C187.143304,101.243003 184.745987,101.523924 182.588698,100.747156 L173.873876,97.5967043 C171.857731,96.865462 169.663572,96.7799325 167.596509,97.352009 L156.811686,100.349526 C154.337344,101.034779 151.684587,100.367686 149.83003,98.5938375 L146.081982,95.0151693 C143.478965,92.526257 139.444205,92.3155091 136.595503,94.5196614 L131.959438,98.104447 C130.268615,99.4130865 128.085953,99.9100135 125.994408,99.4625056 L113.745888,96.8626185 L113.745888,123.932032 C113.744262,125.503604 114.36813,127.011365 115.480075,128.123208 C116.59202,129.235052 118.100831,129.859775 119.674172,129.859774 L225.856598,129.859774 C229.131689,129.856398 231.784883,127.203446 231.784882,123.932032 L231.784882,82.7192325 Z" id="Path" fill="#464769" opacity="0.5"></path>
                    <path d="M231.784882,94.9539955 L219.04642,106.442438 C217.002351,108.285472 214.092861,108.820331 211.525828,107.824966 L205.113728,105.335192 C202.921042,104.485088 200.45209,104.747205 198.487278,106.038691 L189.062041,112.223363 C187.143304,113.477766 184.745987,113.758687 182.588698,112.981919 L173.873876,109.831467 C171.857731,109.100225 169.663572,109.014695 167.596509,109.586772 L156.811686,112.584289 C154.337344,113.269542 151.684587,112.602449 149.83003,110.8286 L146.081982,107.249932 C143.478965,104.76102 139.444205,104.550272 136.595503,106.754424 L131.959438,110.33921 C130.268615,111.647849 128.085953,112.144776 125.994408,111.697269 L113.745888,109.097381 L113.745888,123.932032 C113.744262,125.503604 114.36813,127.011365 115.480075,128.123208 C116.59202,129.235052 118.100831,129.859775 119.674172,129.859774 L225.856598,129.859774 C229.131689,129.856398 231.784883,127.203446 231.784882,123.932032 L231.784882,94.9539955 Z" id="Path" fill="#C0C0DD"></path>
                    <path d="M119.639426,59.0430361 C116.508436,59.0430361 113.970266,61.5812055 113.970266,64.712196 L113.970266,123.947849 C113.970266,127.07884 116.508436,129.617009 119.639426,129.617009 L225.860722,129.617009 C228.991712,129.617009 231.529882,127.07884 231.529882,123.947849 L231.529882,64.712196 C231.529882,61.5812055 228.991712,59.0430361 225.860722,59.0430361 L119.639426,59.0430361 Z M119.639426,58.5330361 L225.860722,58.5330361 C229.273378,58.5330361 232.039882,61.2995402 232.039882,64.712196 L232.039882,123.947849 C232.039882,127.360505 229.273378,130.127009 225.860722,130.127009 L119.639426,130.127009 C116.22677,130.127009 113.460266,127.360505 113.460266,123.947849 L113.460266,64.712196 C113.460266,61.2995402 116.22677,58.5330361 119.639426,58.5330361 Z" id="Rectangle" fill="#2B2B3A" fill-rule="nonzero"></path>
                    <path d="M113.715266,192.978916 L181.08213,192.978916 C182.12389,192.978916 182.968402,193.822481 182.968402,194.86307 C182.968402,195.903659 182.12389,196.747223 181.08213,196.747223 L113.715266,196.747223 L113.715266,192.978916 Z" id="Path" fill="#C0C0DD"></path>
                    <path d="M113.715266,196.747223 L166.194053,196.747223 C167.235813,196.747223 168.080325,197.590788 168.080325,198.631377 C168.080325,199.671966 167.235813,200.51553 166.194053,200.51553 L113.715266,200.51553 L113.715266,196.747223 Z" id="Path" fill="#464769" opacity="0.5"></path>
                    <path d="M113.715266,200.368713 L174.345444,200.368713 C175.387203,200.368713 176.231716,201.212278 176.231716,202.252867 C176.231716,203.293456 175.387203,204.13702 174.345444,204.13702 L113.715266,204.13702 L113.715266,200.368713 Z" id="Path" fill="#464769"></path>
                    <path d="M113.715266,212.107968 L139.669882,212.107968 C140.711641,212.107968 141.556154,212.951533 141.556154,213.992122 C141.556154,215.032711 140.711641,215.876275 139.669882,215.876275 L113.715266,215.876275 L113.715266,212.107968 Z" id="Path" fill="#C0C0DD"></path>
                    <path d="M113.715266,215.882393 L195.596627,215.882393 C196.638387,215.882393 197.482899,216.725957 197.482899,217.766546 C197.482899,218.807136 196.638387,219.6507 195.596627,219.6507 L113.715266,219.6507 L113.715266,215.882393 Z" id="Path" fill="#464769" opacity="0.5"></path>
                    <path d="M113.715266,219.497765 L168.490651,219.497765 C169.53241,219.497765 170.376923,220.341329 170.376923,221.381919 C170.376923,222.422508 169.53241,223.266072 168.490651,223.266072 L113.715266,223.266072 L113.715266,219.497765 Z" id="Path" fill="#464769"></path>
                    <path d="M113.715266,231.096321 L172.018225,231.096321 C173.059984,231.096321 173.904497,231.939885 173.904497,232.980474 C173.904497,234.021063 173.059984,234.864628 172.018225,234.864628 L113.715266,234.864628 L113.715266,231.096321 Z" id="Path" fill="#C0C0DD"></path>
                    <path d="M113.715266,234.864628 L158.998047,234.864628 C160.03742,234.864622 160.880945,235.704464 160.88432,236.742664 C160.88432,237.783253 160.039807,238.626817 158.998047,238.626817 L113.715266,238.626817 L113.715266,234.85851 L113.715266,234.864628 Z" id="Path" fill="#464769" opacity="0.5"></path>
                    <path d="M113.715266,238.486117 L187.941302,238.486117 C188.983061,238.486117 189.827574,239.329682 189.827574,240.370271 C189.827574,241.41086 188.983061,242.254424 187.941302,242.254424 L113.715266,242.254424 L113.715266,238.486117 Z" id="Path" fill="#464769"></path>
                    <path d="M119.639426,181.084797 C116.508436,181.084797 113.970266,183.622966 113.970266,186.753957 L113.970266,245.98961 C113.970266,249.1206 116.508436,251.65877 119.639426,251.65877 L225.860722,251.65877 C228.991712,251.65877 231.529882,249.1206 231.529882,245.98961 L231.529882,186.753957 C231.529882,183.622966 228.991712,181.084797 225.860722,181.084797 L119.639426,181.084797 Z M119.639426,180.574797 L225.860722,180.574797 C229.273378,180.574797 232.039882,183.341301 232.039882,186.753957 L232.039882,245.98961 C232.039882,249.402266 229.273378,252.16877 225.860722,252.16877 L119.639426,252.16877 C116.22677,252.16877 113.460266,249.402266 113.460266,245.98961 L113.460266,186.753957 C113.460266,183.341301 116.22677,180.574797 119.639426,180.574797 Z" id="Rectangle" fill="#2B2B3A" fill-rule="nonzero"></path>
                    <path d="M312.50913,209.7558 L318.448918,208.281582 C322.120259,223.073824 314.424994,238.326214 300.339897,244.177947 C286.256345,250.029038 270.005786,244.727716 262.093482,231.699868 L267.324329,228.522977 C273.667497,238.967193 286.698459,243.218207 297.991884,238.52629 C309.283762,233.835015 315.451387,221.610482 312.50913,209.7558 Z" id="Path" fill="#464769" fill-rule="nonzero"></path>
                    <path d="M288.485704,184.865942 L288.480864,190.98595 C279.534358,190.978873 271.281152,195.795479 266.895134,203.582582 C262.509762,211.368537 262.673028,220.912128 267.322187,228.543925 L262.095623,231.727858 C256.294281,222.204702 256.090534,210.294817 261.562781,200.579181 C267.034381,190.864697 277.328292,184.857126 288.485704,184.865942 Z" id="Path" fill="#262633" fill-rule="nonzero"></path>
                    <path d="M288.483096,190.985959 L288.483472,184.865959 C302.669963,184.866831 315.031129,194.52505 318.448741,208.280869 L312.509307,209.756512 C309.769842,198.730221 299.859167,190.986659 288.483096,190.985959 Z" id="Path" fill="#C0C0DD" fill-rule="nonzero"></path>
                    <path d="M380.641702,230.030153 L385.625753,233.581721 C379.601394,242.035935 369.725495,246.896999 359.344831,246.518228 C348.964065,246.139454 339.469364,240.571491 334.078464,231.700568 L339.308459,228.522276 C343.630268,235.633969 351.243444,240.098552 359.567989,240.402298 C367.892635,240.706048 375.811824,236.808106 380.641702,230.030153 Z" id="Path" fill="#464769" fill-rule="nonzero"></path>
                    <path d="M360.467868,184.865959 L360.467812,190.985959 C351.523821,190.985877 343.275588,195.80391 338.890801,203.588827 C334.506661,211.372596 334.666124,220.912686 339.307991,228.545974 L334.078932,231.725809 C328.287257,222.201726 328.088276,210.297379 333.558449,200.585426 C339.027976,190.87462 349.314681,184.865857 360.467868,184.865959 Z" id="Path" fill="#262633" fill-rule="nonzero"></path>
                    <path d="M360.468325,190.985959 L360.467355,184.865959 C374.656381,184.863711 387.021199,194.522592 390.439421,208.280869 L384.499987,209.756512 C381.760033,198.72825 371.84643,190.984156 360.468325,190.985959 Z" id="Path" fill="#C0C0DD" fill-rule="nonzero"></path>
                    <path d="M384.498183,209.749213 L390.441225,208.288169 C391.038034,210.715788 391.339175,213.206531 391.338103,215.700346 C391.347829,222.111043 389.34992,228.364125 385.624359,233.583676 L380.643097,230.028198 C383.626262,225.848751 385.225897,220.842193 385.218107,215.70368 C385.218965,213.697157 384.977242,211.697866 384.498183,209.749213 Z" id="Path" fill="#C0C0DD" fill-rule="nonzero"></path>
                    <path d="M14.1531657,47.8562754 L19.7629882,36.6002935 C20.0284979,36.0695617 20.5714695,35.7342765 21.1654438,35.7342765 C21.7594181,35.7342765 22.3023897,36.0695617 22.5678994,36.6002935 L26.2730769,44.0451467 C25.3973077,44.5223025 24.4357988,44.9811061 23.4497929,45.4093228 L21.1654438,40.8274041 L17.9563314,47.2506546 C16.7096962,47.5676871 15.4366937,47.7704016 14.1531657,47.8562754 Z M32.2748521,38.8943115 C31.9502663,38.0439955 30.7070414,37.6341309 28.8942604,37.6341309 C27.2143465,37.6731649 25.5450201,37.9113722 23.9213609,38.3437472 L24.1234615,38.741377 C25.6814759,38.3293327 27.2829427,38.1034489 28.8942604,38.068465 C30.5478107,38.068465 31.6318047,38.4232731 31.8706509,39.047246 C32.1523669,39.7752144 31.3439645,40.9925734 29.708787,42.3078104 C27.4690364,43.9946127 24.9927546,45.3426704 22.3596746,46.3085779 C19.0709467,47.5809932 15.8189645,48.3273138 13.430503,48.3273138 C11.7830769,48.3273138 10.6990828,47.9663883 10.4602367,47.3424153 C10.1785207,46.614447 10.9869231,45.397088 12.6221006,44.0879684 C13.9423987,43.0641105 15.3645795,42.178552 16.866213,41.4452596 L17.1907988,40.8335214 C12.4812426,43.0847178 9.41911243,45.8681264 10.0560355,47.5259368 C10.4112426,48.3273138 11.6360947,48.7494131 13.430503,48.7494131 L13.761213,48.7494131 C13.6606007,49.2149997 13.7775859,49.7010177 14.0790879,50.0700321 C14.3805899,50.4390465 14.8338333,50.6509428 15.3106509,50.6458014 C15.6027117,50.6480205 15.8894074,50.5674116 16.137426,50.4133409 C16.380708,50.2646115 16.5795285,50.0533379 16.7131065,49.8016027 L17.4725148,48.2783747 C19.1980536,47.8957909 20.8913637,47.3803921 22.5372781,46.7367946 C22.9904734,46.5593905 23.4314201,46.3819865 23.8601183,46.198465 L25.6606509,49.8016027 C25.9228174,50.3320466 26.4647593,50.6668184 27.0569822,50.6641535 C27.6001955,50.662637 28.1039144,50.3803551 28.3883337,49.9180698 C28.672753,49.4557845 28.6973383,48.8793792 28.4533136,48.394605 L26.6772781,44.8281716 C30.486568,42.7176749 32.838284,40.3747178 32.2748521,38.8943115 Z" id="Shape" fill="#C0C0DD" fill-rule="nonzero"></path>
                </g>
                <path d="M397.947158,73.5 C397.39517,73.5 397.254584,73.2761424 397.254584,73 C397.254584,72.7238576 397.478442,72.5 397.754584,72.5 L433.236383,72.5 C436.985528,72.5 440.450219,74.4990205 442.326647,77.7448026 L451.174076,93.0487882 C452.871797,95.9854482 456.006518,97.7940858 459.398601,97.7940858 L591.393279,97.7940858 C591.669422,97.7940858 591.893279,98.0179434 591.893279,98.2940858 C591.893279,98.5702282 591.669422,98.7940858 591.393279,98.7940858 L459.398601,98.7940858 C455.649457,98.7940858 452.184765,96.7950653 450.308337,93.5492832 L441.460908,78.2452976 C439.763187,75.3086376 436.628466,73.5 433.236383,73.5 L397.947158,73.5 Z" id="Path-13" fill="#464769" fill-rule="nonzero" transform="translate(494.573932, 85.647043) scale(-1, 1) translate(-494.573932, -85.647043) "></path>
                <path d="M408.005728,198.607936 C407.729604,198.611099 407.503196,198.389821 407.500033,198.113696 C407.496869,197.837572 407.718148,197.611165 407.994272,197.608001 L440.183979,197.17377 C446.971658,197.096008 453.230467,193.493996 456.707764,187.664155 L486.629752,137.498633 C490.328239,131.297958 497.015839,127.5 504.235754,127.5 L592.280989,127.5 C592.557131,127.5 592.780989,127.723858 592.780989,128 C592.780989,128.276142 592.557131,128.5 592.280989,128.5 L504.235754,128.5 C497.36803,128.5 491.006654,132.112692 487.488582,138.010895 L457.566594,188.176417 C453.910974,194.305224 447.3312,198.091954 440.195434,198.173705 L408.005728,198.607936 Z" id="Path-10-Copy" fill="#464769" fill-rule="nonzero" transform="translate(500.140494, 163.053985) scale(-1, -1) translate(-500.140494, -163.053985) "></path>
                <path d="M181.48,284.053772 C181.203858,284.053772 180.98,283.829914 180.98,283.553772 C180.98,283.27763 181.203858,283.053772 181.48,283.053772 L211.292012,283.053772 C219.629292,283.053772 227.044259,277.753313 229.742531,269.864741 L263.776113,170.365392 C266.612759,162.072277 274.40798,156.5 283.172813,156.5 L577.089987,156.5 C581.949346,156.5 586.173856,159.834339 587.302728,164.560756 L592.882484,187.922341 C592.946634,188.190928 592.780905,188.460666 592.512317,188.524816 C592.24373,188.588966 591.973992,188.423237 591.909842,188.15465 L586.330086,164.793065 C585.308725,160.516783 581.48655,157.5 577.089987,157.5 L283.172813,157.5 C274.835532,157.5 267.420566,162.800459 264.722293,170.689031 L230.688712,270.18838 C227.852066,278.481495 220.056845,284.053772 211.292012,284.053772 L181.48,284.053772 Z" id="Path-10-Copy-2" fill="#464769" fill-rule="nonzero" transform="translate(386.938138, 220.276886) scale(-1, -1) translate(-386.938138, -220.276886) "></path>
            </g>
        </g>
        <path d="M589,43.2890525 L524.760044,43.2890525 C523.400994,43.2890525 522.056206,43.0120293 520.807803,42.4748999 L496.029963,31.8141526 C494.78156,31.2770233 493.436772,31 492.077722,31 L205.725636,31 C202.525693,31 199.519005,32.5313896 197.637312,35.1196071 L189,47" id="Path-9" stroke="#464769" stroke-linecap="round" fill-rule="nonzero"></path>
    </g>
</svg>