<svg xmlns="http://www.w3.org/2000/svg" width="375" height="422" viewBox="0 0 375 422">
    <defs>
        <filter id="a" width="270.3%" height="361.6%" x="-85.2%" y="-130.8%" filterUnits="objectBoundingBox">
            <feOffset dy="12" in="SourceAlpha" result="shadowOffsetOuter1"/>
            <feGaussianBlur in="shadowOffsetOuter1" result="shadowBlurOuter1" stdDeviation="128"/>
            <feColorMatrix in="shadowBlurOuter1" result="shadowMatrixOuter1" values="0 0 0 0 0 0 0 0 0 0 0 0 0 0 0 0 0 0 0.295346467 0"/>
            <feMerge>
                <feMergeNode in="shadowMatrixOuter1"/>
                <feMergeNode in="SourceGraphic"/>
            </feMerge>
        </filter>
    </defs>
    <g fill="none" fill-rule="evenodd">
        <g filter="url(#a)" transform="translate(16 87)">
            <rect width="343.529" height="223.863" y=".101" fill="#21212A" rx="10.161"/>
            <path fill="#C6C7DC" d="M255.425 209.135v6.73h-1.285V211.5l-1.848 3.125h-.15l-1.848-3.115v4.355H249v-6.73h1.332l1.885 3.182 1.876-3.182h1.332zm3.295 5.461h2.767v1.27h-4.061v-6.731h4.014v1.269h-2.72v1.433h2.485v1.25h-2.485v1.51zm8.8-5.461v1.269h-1.772v5.461h-1.294v-5.461h-1.764v-1.27h4.83zm5.106 6.73l-1.322-2.336h-.985v2.336h-1.294v-6.73h2.626c.606 0 1.122.218 1.547.653.425.436.638.962.638 1.577 0 .417-.116.803-.347 1.159a2.188 2.188 0 0 1-.92.803l1.455 2.538h-1.398zm-2.307-5.49v1.99h1.332a.816.816 0 0 0 .628-.293c.175-.195.263-.431.263-.707 0-.275-.088-.51-.263-.702a.821.821 0 0 0-.628-.288h-1.332zm5.246-1.24h1.294v6.73h-1.294v-6.73zm6.41 6.865c-.989 0-1.805-.337-2.449-1.01-.644-.673-.966-1.503-.966-2.49 0-.994.322-1.825.966-2.495.644-.67 1.46-1.005 2.448-1.005.594 0 1.143.143 1.646.428.503.285.896.671 1.177 1.159l-1.116.663a1.755 1.755 0 0 0-.694-.707 2.02 2.02 0 0 0-1.013-.255c-.638 0-1.152.206-1.543.616-.39.41-.586.942-.586 1.596 0 .647.195 1.176.586 1.587.391.41.905.615 1.543.615.375 0 .714-.085 1.018-.255.303-.17.533-.402.69-.697l1.115.663a3.1 3.1 0 0 1-1.172 1.16c-.5.284-1.05.427-1.65.427zm6.643 0c-.65 0-1.198-.149-1.642-.447a2.383 2.383 0 0 1-.938-1.216l1.107-.664c.257.686.76 1.029 1.51 1.029.363 0 .629-.067.797-.202a.625.625 0 0 0 .254-.51.62.62 0 0 0-.31-.553c-.206-.13-.575-.274-1.107-.427a6.765 6.765 0 0 1-.745-.27 3.197 3.197 0 0 1-.61-.36 1.463 1.463 0 0 1-.464-.572c-.106-.231-.16-.5-.16-.808 0-.609.211-1.095.634-1.457.422-.362.93-.543 1.524-.543.531 0 .999.133 1.402.399.403.266.717.636.942 1.11l-1.088.645c-.262-.577-.681-.866-1.256-.866-.27 0-.48.063-.633.188a.598.598 0 0 0-.23.486c0 .211.086.383.258.514.172.131.501.274.99.428.2.064.35.114.454.149.103.035.244.09.422.163.178.074.316.143.413.207.097.064.208.15.333.26.125.109.22.22.286.336a1.929 1.929 0 0 1 .24.952c-.001.622-.221 1.116-.662 1.48-.441.366-1.015.549-1.721.549z"/>
            <path fill="#1E1E27" d="M10.174 0h323.18c5.62 0 10.175 4.536 10.175 10.133v12.974H0V10.133C0 4.536 4.555 0 10.174 0z"/>
            <ellipse cx="15.831" cy="11.576" fill="#FF5F57" rx="2.961" ry="2.994"/>
            <ellipse cx="25.511" cy="11.576" fill="#FFBC2D" rx="2.961" ry="2.994"/>
            <ellipse cx="35.161" cy="11.576" fill="#29CA42" rx="2.961" ry="2.994"/>
            <rect width="28.212" height="4.362" x="33.778" y="33.589" fill="#464769" rx="2.181"/>
            <rect width="31.956" height="2.584" x="21.426" y="67.402" fill="#262633" rx="1.292"/>
            <rect width="23.125" height="2.584" x="8.282" y="54.022" fill="#262633" rx="1.292"/>
            <rect width="9.284" height="2.584" x="66.517" y="54.022" fill="#262633" rx="1.292"/>
            <rect width="23.125" height="2.584" x="8.282" y="114.746" fill="#262633" rx="1.292"/>
            <rect width="9.284" height="2.584" x="66.517" y="114.746" fill="#262633" rx="1.292"/>
            <rect width="7.931" height="7.898" x="8.282" y="64.742" fill="#464769" rx="2.251"/>
            <rect width="38.61" height="2.584" x="21.426" y="81.405" fill="#262633" rx="1.292"/>
            <rect width="7.931" height="7.898" x="8.282" y="78.745" fill="#464769" rx="2.251"/>
            <rect width="26.457" height="2.584" x="21.426" y="95.408" fill="#262633" rx="1.292"/>
            <rect width="7.931" height="7.898" x="8.282" y="92.748" fill="#464769" rx="2.251"/>
            <path fill="#262633" d="M8.282 149.394h67.514v9.18c0 .884-.353 1.732-.98 2.357a3.354 3.354 0 0 1-2.367.977h-60.82a3.34 3.34 0 0 1-3.347-3.334v-9.18z"/>
            <rect width="23.125" height="2.584" x="94.455" y="34.977" fill="#464769" rx="1.292"/>
            <rect width="23.125" height="2.584" x="213.078" y="34.977" fill="#464769" rx="1.292"/>
            <rect width="23.125" height="2.584" x="94.455" y="135.715" fill="#464769" rx="1.292"/>
            <rect width="23.125" height="2.584" x="213.078" y="135.715" fill="#464769" rx="1.292"/>
            <path fill="#464769" fill-rule="nonzero" d="M255.87 58.461l.051-.419 46.217 5.704-.665.31-43.166 20.17-20.378 11.916-.215-.364 20.396-11.925 42.518-19.868zM290.487 95.707l-.093.113.025-.074.068-.04zm10.696-30.73l.4.138-10.79 30.844-.092.112-16.798 9.799-.213-.365 16.73-9.759 10.763-30.77z"/>
            <path fill="#464769" fill-rule="nonzero" d="M226.502 60.5l-.03-.422 30.46-2.11-36.433 18.26-.19-.377 34.55-17.316z"/>
            <ellipse cx="301.383" cy="63.865" fill="#464769" rx="18.267" ry="18.193"/>
            <ellipse cx="255.89" cy="58.252" fill="#464769" rx="7.732" ry="7.701"/>
            <ellipse cx="290.594" cy="95.889" fill="#464769" rx="5.428" ry="5.406"/>
            <ellipse cx="258.2" cy="84.044" fill="#464769" rx="5.428" ry="5.406"/>
            <path fill="#464769" fill-rule="nonzero" d="M11.459 126.24a2.961 2.961 0 0 0-2.966 2.956v29.524a2.961 2.961 0 0 0 2.966 2.956h61.16a2.961 2.961 0 0 0 2.965-2.956v-29.524a2.961 2.961 0 0 0-2.965-2.957h-61.16zm0-.423h61.16a3.384 3.384 0 0 1 3.389 3.38v29.523a3.384 3.384 0 0 1-3.39 3.378h-61.16a3.384 3.384 0 0 1-3.388-3.378v-29.524a3.384 3.384 0 0 1 3.389-3.379z"/>
            <ellipse cx="237.821" cy="95.96" fill="#C0C0DD" opacity=".2" rx="5.153" ry="5.132"/>
            <ellipse cx="237.821" cy="95.96" fill="#C0C0DD" rx="3.734" ry="3.719"/>
            <ellipse cx="274.061" cy="105.687" fill="#464769" rx="2.671" ry="2.66"/>
            <ellipse cx="226.488" cy="60.288" fill="#C0C0DD" opacity=".2" rx="3.673" ry="3.658"/>
            <ellipse cx="226.488" cy="60.288" fill="#C0C0DD" rx="2.61" ry="2.599"/>
            <ellipse cx="220.404" cy="76.04" fill="#464769" rx="2.61" ry="2.599"/>
            <path fill="#464769" fill-rule="nonzero" d="M192.739 57.899v44.738c0 2.826-2.299 5.118-5.136 5.12H99.405c-1.363 0-2.67-.539-3.634-1.5a5.105 5.105 0 0 1-1.502-3.62V69.826l.255.054 10.175 2.153a5.835 5.835 0 0 0 4.78-1.085l3.851-2.969a6.274 6.274 0 0 1 8.156.425l3.113 2.964a5.854 5.854 0 0 0 5.596 1.403l8.959-2.483a8.817 8.817 0 0 1 5.342.208l7.239 2.609c1.73.62 3.651.396 5.189-.606l7.829-5.122a6.272 6.272 0 0 1 5.697-.603l5.326 2.062a5.86 5.86 0 0 0 6.028-1.105L192.74 57.9zm-10.651 10.146a6.285 6.285 0 0 1-6.465 1.185l-5.326-2.062a5.847 5.847 0 0 0-5.312.562l-7.829 5.122a6.297 6.297 0 0 1-5.565.65l-7.239-2.609a8.392 8.392 0 0 0-5.085-.198l-8.958 2.483a6.278 6.278 0 0 1-6.002-1.505l-3.114-2.964a5.85 5.85 0 0 0-7.603-.396l-3.851 2.97a6.26 6.26 0 0 1-5.129 1.163l-9.918-2.099v32.29a4.683 4.683 0 0 0 1.379 3.322 4.722 4.722 0 0 0 3.334 1.376h88.198c2.603-.002 4.712-2.105 4.712-4.698V58.848l-10.227 9.197z"/>
            <path fill="#464769" d="M192.527 68.506l-10.581 9.514a6.072 6.072 0 0 1-6.247 1.145l-5.326-2.062a6.06 6.06 0 0 0-5.504.583l-7.829 5.122a6.085 6.085 0 0 1-5.377.628l-7.239-2.609a8.605 8.605 0 0 0-5.214-.203l-8.958 2.483a6.066 6.066 0 0 1-5.799-1.454l-3.113-2.964a6.062 6.062 0 0 0-7.88-.41l-3.85 2.969a6.047 6.047 0 0 1-4.956 1.124L94.48 80.22v22.418a4.894 4.894 0 0 0 1.44 3.471 4.934 4.934 0 0 0 3.485 1.439h88.198c2.72-.003 4.924-2.2 4.924-4.91V68.506z" opacity=".5"/>
            <path fill="#C0C0DD" d="M192.527 78.638l-10.581 9.515a6.072 6.072 0 0 1-6.247 1.145l-5.326-2.062a6.06 6.06 0 0 0-5.504.583l-7.829 5.122a6.085 6.085 0 0 1-5.377.628l-7.239-2.61a8.605 8.605 0 0 0-5.214-.202l-8.958 2.482a6.066 6.066 0 0 1-5.799-1.454l-3.113-2.963a6.062 6.062 0 0 0-7.88-.41l-3.85 2.968a6.047 6.047 0 0 1-4.956 1.125L94.48 90.352v12.285a4.894 4.894 0 0 0 1.44 3.471 4.934 4.934 0 0 0 3.485 1.439h88.198c2.72-.003 4.924-2.2 4.924-4.91V78.638z"/>
            <path fill="#2B2B3A" fill-rule="nonzero" d="M99.376 48.898a4.702 4.702 0 0 0-4.71 4.695v49.057a4.702 4.702 0 0 0 4.71 4.696h88.23c2.6 0 4.71-2.103 4.71-4.696V53.593a4.702 4.702 0 0 0-4.71-4.695h-88.23zm0-.422h88.23c2.835 0 5.133 2.29 5.133 5.117v49.057c0 2.827-2.298 5.118-5.133 5.118h-88.23c-2.835 0-5.133-2.291-5.133-5.118V53.593c0-2.826 2.298-5.117 5.133-5.117z"/>
            <path fill="#C0C0DD" d="M94.455 159.82h55.957c.865 0 1.567.699 1.567 1.56 0 .862-.702 1.561-1.567 1.561H94.455v-3.12z"/>
            <path fill="#464769" d="M94.455 162.941h43.59c.866 0 1.567.699 1.567 1.56 0 .862-.701 1.56-1.567 1.56h-43.59v-3.12z" opacity=".5"/>
            <path fill="#464769" d="M94.455 165.94h50.361c.865 0 1.567.699 1.567 1.56 0 .862-.702 1.561-1.567 1.561H94.455v-3.12z"/>
            <path fill="#C0C0DD" d="M94.455 175.662h21.559c.865 0 1.566.7 1.566 1.56 0 .863-.701 1.561-1.566 1.561H94.455v-3.12z"/>
            <path fill="#464769" d="M94.455 178.788h68.013c.865 0 1.567.699 1.567 1.56 0 .863-.702 1.561-1.567 1.561H94.455v-3.12z" opacity=".5"/>
            <path fill="#464769" d="M94.455 181.782h45.498c.865 0 1.567.7 1.567 1.56 0 .863-.702 1.561-1.567 1.561H94.455v-3.12z"/>
            <path fill="#C0C0DD" d="M94.455 191.388h48.428c.865 0 1.567.699 1.567 1.56 0 .862-.702 1.56-1.567 1.56H94.455v-3.12z"/>
            <path fill="#464769" d="M94.455 194.509h37.613c.863 0 1.564.695 1.567 1.555 0 .862-.702 1.56-1.567 1.56H94.455v-3.12.005z" opacity=".5"/>
            <path fill="#464769" d="M94.455 197.508h61.654c.866 0 1.567.699 1.567 1.56 0 .862-.701 1.561-1.567 1.561H94.455v-3.12z"/>
            <path fill="#2B2B3A" fill-rule="nonzero" d="M99.376 149.97a4.702 4.702 0 0 0-4.71 4.695v49.057a4.702 4.702 0 0 0 4.71 4.695h88.23c2.6 0 4.71-2.102 4.71-4.695v-49.057a4.702 4.702 0 0 0-4.71-4.695h-88.23zm0-.423h88.23c2.835 0 5.133 2.292 5.133 5.118v49.057c0 2.827-2.298 5.118-5.133 5.118h-88.23c-2.835 0-5.133-2.291-5.133-5.118v-49.057c0-2.826 2.298-5.118 5.133-5.118z"/>
            <path fill="#464769" fill-rule="nonzero" d="M259.579 173.714l4.933-1.22c3.05 12.25-3.342 24.882-15.041 29.728s-25.197.455-31.769-10.334l4.345-2.631c5.269 8.65 16.093 12.17 25.473 8.284 9.38-3.885 14.503-14.009 12.059-23.827z"/>
            <path fill="#262633" fill-rule="nonzero" d="M239.624 153.101l-.004 5.069c-7.431-.006-14.286 3.983-17.93 10.432a20.392 20.392 0 0 0 .355 20.672l-4.341 2.637a25.448 25.448 0 0 1-.443-25.796c4.545-8.046 13.096-13.021 22.363-13.014z"/>
            <path fill="#C0C0DD" fill-rule="nonzero" d="M239.622 158.17V153.1c11.784.001 22.052 8 24.89 19.392l-4.933 1.222c-2.276-9.132-10.508-15.545-19.957-15.545z"/>
            <path fill="#464769" fill-rule="nonzero" d="M316.172 190.505l4.14 2.941a25.682 25.682 0 0 1-21.83 10.714 25.665 25.665 0 0 1-20.987-12.271l4.344-2.633a20.579 20.579 0 0 0 16.828 9.84 20.593 20.593 0 0 0 17.505-8.59z"/>
            <path fill="#262633" fill-rule="nonzero" d="M299.415 153.101v5.069c-7.43 0-14.28 3.99-17.923 10.437a20.402 20.402 0 0 0 .347 20.669l-4.344 2.633a25.458 25.458 0 0 1-.432-25.79c4.543-8.041 13.087-13.018 22.352-13.018z"/>
            <path fill="#C0C0DD" fill-rule="nonzero" d="M299.415 158.17V153.1c11.785-.002 22.055 7.998 24.895 19.392l-4.934 1.222c-2.276-9.133-10.51-15.547-19.961-15.545z"/>
            <path fill="#C0C0DD" fill-rule="nonzero" d="M319.375 173.709l4.936-1.21c.496 2.01.746 4.073.745 6.139a25.375 25.375 0 0 1-4.746 14.81l-4.137-2.944a20.32 20.32 0 0 0 3.8-11.864c0-1.661-.2-3.317-.598-4.931zM11.756 39.633l4.66-9.322a1.303 1.303 0 0 1 2.33 0l3.077 6.166c-.727.395-1.526.775-2.345 1.13l-1.897-3.795-2.666 5.32c-1.035.262-2.093.43-3.159.501zm15.052-7.422c-.27-.704-1.302-1.043-2.808-1.043-1.395.032-2.782.23-4.13.587l.168.33A16.984 16.984 0 0 1 24 31.527c1.374 0 2.274.294 2.473.81.234.604-.438 1.612-1.796 2.701a23.756 23.756 0 0 1-6.104 3.314c-2.732 1.053-5.433 1.671-7.417 1.671-1.369 0-2.269-.298-2.467-.815-.234-.603.437-1.611 1.795-2.695a20.27 20.27 0 0 1 3.526-2.19l.27-.506c-3.913 1.865-6.456 4.17-5.927 5.543.295.663 1.312 1.013 2.803 1.013h.274c-.083.386.014.788.264 1.094.25.305.627.48 1.023.477a1.32 1.32 0 0 0 1.165-.7l.631-1.261a28.543 28.543 0 0 0 4.207-1.277c.377-.147.743-.294 1.099-.446l1.495 2.984c.218.44.668.717 1.16.715.451-.001.87-.235 1.106-.618.236-.383.257-.86.054-1.262l-1.475-2.953c3.164-1.748 5.117-3.689 4.65-4.915z"/>
        </g>
        <path fill="#21212A" d="M146.884 183.135v1.269h-1.792v5.461h-1.309v-5.461H142v-1.27h4.884zm5.163 6.73l-1.337-2.336h-.996v2.336h-1.309v-6.73h2.656c.613 0 1.135.218 1.564.653.43.436.645.962.645 1.577 0 .417-.117.803-.35 1.159a2.205 2.205 0 0 1-.93.803l1.47 2.538h-1.413zm-2.333-5.49v1.99h1.347a.828.828 0 0 0 .635-.293c.177-.195.266-.431.266-.707a.999.999 0 0 0-.266-.702.834.834 0 0 0-.635-.288h-1.347zm6.613 4.221h2.798v1.27h-4.106v-6.731h4.059v1.269h-2.75v1.433h2.513v1.25h-2.514v1.51zm8.35-5.461h1.309v6.73h-.996l-2.846-4.115v4.115h-1.308v-6.73h.995l2.846 4.105v-4.105zm5.968 0c.91 0 1.671.323 2.281.97.61.648.916 1.446.916 2.395 0 .949-.305 1.747-.916 2.394-.61.648-1.37.971-2.28.971h-2.637v-6.73h2.636zm0 5.461c.576 0 1.044-.194 1.404-.582.36-.387.54-.892.54-1.514s-.18-1.127-.54-1.514c-.36-.388-.828-.582-1.404-.582h-1.327v4.192h1.327zm6.946 1.404c-.658 0-1.21-.149-1.66-.447a2.386 2.386 0 0 1-.948-1.216l1.119-.664c.26.686.768 1.029 1.527 1.029.367 0 .635-.067.806-.202a.623.623 0 0 0 .256-.51.62.62 0 0 0-.313-.552c-.208-.132-.581-.275-1.119-.428a6.89 6.89 0 0 1-.754-.27 3.24 3.24 0 0 1-.616-.36 1.466 1.466 0 0 1-.47-.572c-.107-.231-.161-.5-.161-.808 0-.609.213-1.095.64-1.457.427-.362.94-.543 1.541-.543.538 0 1.01.133 1.418.399.408.266.726.636.953 1.11l-1.1.645c-.265-.577-.689-.866-1.27-.866-.273 0-.486.063-.64.188a.595.595 0 0 0-.233.486c0 .211.087.383.26.514.174.131.508.274 1.001.428.202.064.356.114.46.149.104.035.247.09.427.163.18.074.32.143.417.207.098.064.21.15.337.26.126.109.223.22.29.336.066.116.122.255.17.419.047.163.071.34.071.533 0 .622-.223 1.116-.669 1.48-.445.366-1.026.549-1.74.549z"/>
        <path fill="#C6C7DC" d="M264 202.135h1.31v6.73H264v-6.73zm7.185 0h1.31v6.73h-.997l-2.85-4.115v4.115h-1.31v-6.73h.997l2.85 4.105v-4.105zm5.503 6.865c-.658 0-1.213-.149-1.662-.447a2.387 2.387 0 0 1-.95-1.216l1.12-.664c.26.686.77 1.029 1.53 1.029.368 0 .637-.067.808-.202a.623.623 0 0 0 .256-.51.62.62 0 0 0-.313-.552c-.21-.132-.583-.275-1.121-.428a6.91 6.91 0 0 1-.755-.27 3.247 3.247 0 0 1-.618-.36 1.466 1.466 0 0 1-.47-.572c-.108-.231-.162-.5-.162-.808 0-.609.214-1.095.642-1.457.427-.362.942-.543 1.543-.543.539 0 1.012.133 1.42.399.409.266.727.636.955 1.11l-1.102.645c-.266-.577-.69-.866-1.273-.866-.272 0-.486.063-.641.188a.595.595 0 0 0-.233.486c0 .211.087.383.262.514.174.131.508.274 1.002.428.202.064.356.114.46.149a7.8 7.8 0 0 1 .428.163c.18.074.32.143.418.207.098.064.21.15.337.26.127.109.223.22.29.336.066.116.123.255.17.418.048.164.072.342.072.534 0 .622-.223 1.116-.67 1.48-.446.366-1.027.549-1.743.549zm4.012-6.865h1.311v6.73h-1.31v-6.73zm9.864 3.115v.52c0 .96-.304 1.74-.912 2.336-.608.596-1.393.894-2.356.894-1.026 0-1.876-.338-2.55-1.014-.675-.677-1.012-1.502-1.012-2.476 0-.981.334-1.811 1.002-2.49.668-.68 1.496-1.02 2.484-1.02.62 0 1.188.143 1.7.428.513.285.912.665 1.197 1.14l-1.12.653a1.773 1.773 0 0 0-.718-.673 2.209 2.209 0 0 0-1.068-.26c-.634 0-1.155.21-1.563.63-.409.42-.613.95-.613 1.592 0 .634.208 1.158.622 1.572.415.413.965.62 1.649.62.506 0 .926-.114 1.258-.341.333-.228.56-.54.68-.938h-2.014v-1.173h3.334zm5.503-3.115h1.302v6.73h-1.302v-2.788h-2.47v2.788h-1.31v-6.73h1.31v2.673h2.47v-2.673zm7.727 0v1.269h-1.796v5.461h-1.31v-5.461H298.9v-1.27h4.893zm3.793 6.865c-.659 0-1.213-.149-1.662-.447a2.387 2.387 0 0 1-.95-1.216l1.12-.664c.26.686.77 1.029 1.53 1.029.367 0 .637-.067.808-.202a.623.623 0 0 0 .256-.51.62.62 0 0 0-.313-.552c-.21-.132-.583-.275-1.121-.428a6.91 6.91 0 0 1-.756-.27 3.247 3.247 0 0 1-.617-.36 1.466 1.466 0 0 1-.47-.572c-.108-.231-.162-.5-.162-.808 0-.609.214-1.095.641-1.457.428-.362.942-.543 1.544-.543.538 0 1.012.133 1.42.399.409.266.727.636.955 1.11l-1.102.645c-.266-.577-.69-.866-1.273-.866-.272 0-.486.063-.641.188a.595.595 0 0 0-.233.486c0 .211.087.383.261.514.175.131.509.274 1.003.428.202.064.356.114.46.149a7.8 7.8 0 0 1 .428.163c.18.074.32.143.418.207.098.064.21.15.337.26.127.109.223.22.29.336.066.116.123.255.17.418.048.164.072.342.072.534 0 .622-.223 1.116-.67 1.48-.446.366-1.027.549-1.743.549zM111.312 239.596h2.538v1.27H110v-6.731h1.312v5.461zm9.262.394c-.672.673-1.489 1.01-2.452 1.01-.964 0-1.78-.338-2.448-1.014-.669-.677-1.003-1.505-1.003-2.486 0-.98.334-1.81 1.003-2.486.668-.676 1.484-1.014 2.448-1.014.963 0 1.78.338 2.452 1.014.672.677 1.008 1.505 1.008 2.486 0 .98-.336 1.81-1.008 2.49zm-3.983-.903c.412.41.922.615 1.53.615.609 0 1.12-.207 1.531-.62.412-.414.618-.941.618-1.582 0-.641-.206-1.17-.618-1.587-.412-.416-.922-.625-1.53-.625-.609 0-1.119.209-1.53.625-.413.417-.619.946-.619 1.587s.206 1.17.618 1.587zm13.236-1.837v.52c0 .96-.304 1.74-.912 2.336-.609.596-1.395.894-2.358.894-1.027 0-1.878-.338-2.552-1.014-.675-.677-1.013-1.502-1.013-2.476 0-.981.334-1.811 1.003-2.49.669-.68 1.497-1.02 2.486-1.02.621 0 1.188.143 1.702.428a3.15 3.15 0 0 1 1.197 1.14l-1.121.653a1.774 1.774 0 0 0-.718-.673 2.212 2.212 0 0 0-1.07-.26c-.633 0-1.155.21-1.563.63-.41.42-.614.95-.614 1.592 0 .634.208 1.158.623 1.572.415.413.965.62 1.65.62.506 0 .926-.114 1.26-.341.332-.228.558-.54.679-.938h-2.016v-1.173h3.337zm3.758 3.75c-.659 0-1.213-.149-1.663-.447a2.387 2.387 0 0 1-.95-1.216l1.12-.664c.26.686.77 1.029 1.531 1.029.368 0 .637-.067.808-.202a.623.623 0 0 0 .257-.51.62.62 0 0 0-.314-.553c-.209-.13-.583-.274-1.121-.427-.298-.09-.55-.18-.756-.27a3.25 3.25 0 0 1-.618-.36 1.467 1.467 0 0 1-.47-.572c-.108-.231-.162-.5-.162-.808 0-.609.214-1.095.641-1.457.428-.362.943-.543 1.545-.543.539 0 1.013.133 1.421.399.41.266.728.636.956 1.11l-1.103.645c-.266-.577-.69-.866-1.274-.866-.272 0-.486.063-.641.188a.595.595 0 0 0-.233.486c0 .211.087.383.261.514.174.131.509.274 1.003.428.203.064.357.114.461.149.105.035.247.09.428.163.18.074.32.143.418.207.098.064.21.15.338.26.126.109.223.22.29.336.066.116.123.255.17.418.048.164.072.342.072.534 0 .622-.223 1.116-.67 1.48-.447.366-1.028.549-1.745.549z"/>
    </g>
</svg>
