<svg xmlns="http://www.w3.org/2000/svg" width="375" height="496" viewBox="0 0 375 496">
    <defs>
        <filter id="a" width="270.3%" height="358.1%" x="-85.2%" y="-129.1%" filterUnits="objectBoundingBox">
            <feOffset dy="12" in="SourceAlpha" result="shadowOffsetOuter1"/>
            <feGaussianBlur in="shadowOffsetOuter1" result="shadowBlurOuter1" stdDeviation="128"/>
            <feColorMatrix in="shadowBlurOuter1" result="shadowMatrixOuter1" values="0 0 0 0 0 0 0 0 0 0 0 0 0 0 0 0 0 0 0.295346467 0"/>
            <feMerge>
                <feMergeNode in="shadowMatrixOuter1"/>
                <feMergeNode in="SourceGraphic"/>
            </feMerge>
        </filter>
        <linearGradient id="b" x1="103.219%" x2="103.219%" y1="-34.418%" y2="63.348%">
            <stop offset="0%" stop-color="#5805FC"/>
            <stop offset="100%" stop-color="#9772E0"/>
        </linearGradient>
    </defs>
    <g fill="none" fill-rule="evenodd">
        <g filter="url(#a)" transform="translate(16 159)">
            <rect width="343.868" height="226.421" fill="#21212A" rx="10.173"/>
            <path fill="#1E1E27" d="M10.184.835h323.5c5.624 0 10.184 4.588 10.184 10.248v13.123H0V11.083C0 5.423 4.56.835 10.184.835z"/>
            <ellipse cx="15.846" cy="12.543" fill="#FF5F57" rx="2.964" ry="3.028"/>
            <ellipse cx="25.536" cy="12.543" fill="#FFBC2D" rx="2.964" ry="3.028"/>
            <ellipse cx="35.196" cy="12.543" fill="#29CA42" rx="2.964" ry="3.028"/>
            <rect width="27.945" height="4.412" x="81.324" y="63.4" fill="#464769" rx="2.192"/>
            <rect width="48.649" height="4.412" x="81.604" y="145.664" fill="#464769" rx="2.192"/>
            <rect width="26.163" height="4.412" x="21.035" y="60.336" fill="#C0C0DD" rx="2.192"/>
            <rect width="24.818" height="2.613" x="30.577" y="74.633" fill="#464769" rx="1.297"/>
            <rect width="13.932" height="2.613" x="30.577" y="87.586" fill="#464769" rx="1.297"/>
            <rect width="27.212" height="2.613" x="30.577" y="100.545" fill="#464769" rx="1.297"/>
            <rect width="8.687" height="2.613" x="30.577" y="113.499" fill="#464769" rx="1.297"/>
            <rect width="18.474" height="2.613" x="30.577" y="126.453" fill="#464769" rx="1.297"/>
            <rect width="15.256" height="2.613" x="30.577" y="139.407" fill="#464769" rx="1.297"/>
            <rect width="24.925" height="2.613" x="30.577" y="152.361" fill="#464769" rx="1.297"/>
            <rect width="18.474" height="2.613" x="30.577" y="165.315" fill="#464769" rx="1.297"/>
            <rect width="19.314" height="2.613" x="30.577" y="178.269" fill="#464769" rx="1.297"/>
            <ellipse cx="22.787" cy="75.939" fill="#464769" rx="1.752" ry="1.763"/>
            <ellipse cx="22.787" cy="88.893" fill="#464769" rx="1.752" ry="1.763"/>
            <ellipse cx="22.787" cy="101.847" fill="#464769" rx="1.752" ry="1.763"/>
            <ellipse cx="22.787" cy="114.806" fill="#464769" rx="1.752" ry="1.763"/>
            <ellipse cx="22.787" cy="127.76" fill="#464769" rx="1.752" ry="1.763"/>
            <ellipse cx="22.787" cy="140.714" fill="#464769" rx="1.752" ry="1.763"/>
            <ellipse cx="22.787" cy="153.668" fill="#464769" rx="1.752" ry="1.763"/>
            <ellipse cx="22.787" cy="166.621" fill="#464769" rx="1.752" ry="1.763"/>
            <ellipse cx="22.787" cy="179.575" fill="#464769" rx="1.752" ry="1.763"/>
            <rect width="230.357" height="11.616" x="81.604" y="38.753" fill="#2C2E44" rx="3.952"/>
            <rect width="68.513" height="36.971" x="81.604" y="90.133" fill="#464769" rx="6.038"/>
            <ellipse cx="115.858" cy="90.108" fill="#C0C0DD" rx="14.583" ry="14.676"/>
            <rect width="68.513" height="36.971" x="162.526" y="90.133" fill="#464769" rx="6.038"/>
            <ellipse cx="196.78" cy="90.108" fill="#C0C0DD" rx="14.583" ry="14.676"/>
            <rect width="68.513" height="36.971" x="243.448" y="90.133" fill="#464769" rx="6.038"/>
            <ellipse cx="277.321" cy="89.786" fill="#C0C0DD" rx="14.583" ry="14.676"/>
            <ellipse cx="91.712" cy="170.731" fill="#464769" rx="10.108" ry="10.171"/>
            <rect width="41.184" height="2.613" x="107.543" y="165.986" fill="#C0C0DD" rx="1.297"/>
            <rect width="75.749" height="2.613" x="107.543" y="172.863" fill="#464769" rx="1.297"/>
            <ellipse cx="91.712" cy="201.127" fill="#464769" rx="10.108" ry="10.171"/>
            <rect width="41.184" height="2.613" x="107.543" y="196.383" fill="#C0C0DD" rx="1.297"/>
            <rect width="75.749" height="2.613" x="107.543" y="203.259" fill="#464769" rx="1.297"/>
            <ellipse cx="220.464" cy="170.407" fill="#464769" rx="10.108" ry="10.171"/>
            <rect width="41.184" height="2.613" x="236.518" y="165.986" fill="#C0C0DD" rx="1.297"/>
            <rect width="75.749" height="2.613" x="236.518" y="172.863" fill="#464769" rx="1.297"/>
            <ellipse cx="220.687" cy="201.127" fill="#464769" rx="10.108" ry="10.171"/>
            <rect width="41.184" height="2.613" x="236.518" y="196.383" fill="#C0C0DD" rx="1.297"/>
            <rect width="75.749" height="2.613" x="236.518" y="203.259" fill="#464769" rx="1.297"/>
            <path fill="#C0C0DD" d="M219.424 198.76v-1.568a.324.324 0 1 0-.555-.236l-3.126 3.147a.685.685 0 0 0 0 .958l3.126 3.146a.324.324 0 0 0 .555-.236v-1.757a8.079 8.079 0 0 1 6.401 3.192c-.733-5.693-5.342-6.528-6.4-6.646z"/>
            <path fill="#C0C0DD" fill-rule="nonzero" d="M29.36 47.306l4.67-9.434c.219-.445.67-.727 1.163-.727.494 0 .945.282 1.164.727l3.086 6.226c-.729.4-1.528.784-2.348 1.142l-1.9-3.838-2.667 5.391a18.038 18.038 0 0 1-3.168.513zm15.073-7.528c-.275-.697-1.309-1.025-2.811-1.025a17.505 17.505 0 0 0-4.135.595l.163.338a16.943 16.943 0 0 1 3.972-.569c1.37 0 2.271.297 2.47.825.234.61-.438 1.63-1.793 2.726a23.831 23.831 0 0 1-6.11 3.356c-2.735 1.066-5.444 1.676-7.424 1.676-1.37 0-2.271-.302-2.47-.825-.234-.61.438-1.63 1.798-2.726a19.875 19.875 0 0 1 3.528-2.214l.265-.512c-3.91 1.85-6.457 4.181-5.917 5.57.27.712 1.304 1.056 2.806 1.056h.25c-.085.388.01.794.256 1.105.248.31.621.492 1.016.493.242 0 .479-.07.683-.2.214-.119.39-.296.509-.512l.631-1.276a28.54 28.54 0 0 0 4.211-1.291c.377-.144.739-.297 1.1-.451l1.492 3.018c.221.445.672.726 1.166.728.457-.002.88-.243 1.117-.637.236-.393.25-.882.04-1.29l-1.483-2.987c3.183-1.748 5.138-3.726 4.67-4.97z"/>
            <path fill="#464769" d="M195.423 89.452l2.062-.695.664 1.997-2.061.695z"/>
            <g fill="#464769">
                <path d="M195.423 89.452l2.062-.695.664 1.997-2.061.695z"/>
                <path fill-rule="nonzero" d="M203.848 87.976c-1.589-5.334-3.885-6.58-9.166-4.976-5.28 1.604-6.538 3.91-4.95 9.224 1.59 5.314 3.891 6.574 9.167 4.975 5.275-1.598 6.538-3.889 4.949-9.223zm-2.684 3.464l-1.018.333.346 1.025a.81.81 0 0 1-.509 1.025.795.795 0 0 1-1.013-.507l-.346-1.026-2.037.697.346 1.025a.81.81 0 0 1-.784 1.071.805.805 0 0 1-.739-.553l-.346-1.025-1.018.338a.801.801 0 0 1-1.048-.644.805.805 0 0 1 .539-.883l1.018-.333-.662-1.998-1.018.338a.801.801 0 0 1-1.043-.644.805.805 0 0 1 .539-.883l1.018-.338-.346-1.025a.814.814 0 0 1 .161-.794.802.802 0 0 1 1.366.281l.347 1.025 2.036-.697-.346-1.025a.814.814 0 0 1 .162-.793.802.802 0 0 1 1.366.281l.346 1.025 1.018-.333a.804.804 0 0 1 1.019.512.811.811 0 0 1-.51 1.025l-1.018.338.662 1.999 1.019-.339a.801.801 0 0 1 .788.163.813.813 0 0 1-.28 1.375l-.015-.036z"/>
            </g>
        </g>
        <path fill="#464769" fill-rule="nonzero" d="M293.288 242.456c-2.526 0-4.573 2.133-4.573 4.764 0 2.632 3.775 8.589 4.573 8.589.797 0 4.572-5.957 4.572-8.59-.003-2.629-2.048-4.76-4.572-4.763zm.097 6.622a1.578 1.578 0 0 1-1.458-1.015 1.693 1.693 0 0 1 .345-1.792 1.531 1.531 0 0 1 1.72-.352c.59.257.973.858.97 1.523a1.68 1.68 0 0 1-.458 1.17c-.296.31-.699.485-1.119.485v-.019z"/>
        <g transform="translate(230.513 323.408)">
            <path fill="#C0C0DD" d="M10.853 7.027l1.281-1.22-1.292-1.232.48-1.703-1.72-.417L9.162.777l-1.72.473L6.195 0l-1.26 1.263L3.194.795l-.425 1.68-1.717.43.484 1.68-1.28 1.222 1.292 1.23-.48 1.701 1.72.417.438 1.68 1.72-.475 1.248 1.252 1.26-1.263 1.74.468.426-1.68 1.718-.429z"/>
            <ellipse cx="6.286" cy="5.896" fill="#464769" rx="3.953" ry="3.864"/>
            <ellipse cx="6.282" cy="5.892" fill="#C0C0DD" rx="3.429" ry="3.352"/>
        </g>
        <path fill="#F2F3F9" d="M21.819 68c-1.684 0-3.075-.577-4.172-1.73C16.549 65.114 16 63.691 16 62c0-1.703.549-3.13 1.647-4.277C18.744 56.574 20.135 56 21.819 56c1.012 0 1.947.245 2.805.734a5.283 5.283 0 0 1 2.006 1.986l-1.902 1.137a3 3 0 0 0-1.183-1.211 3.427 3.427 0 0 0-1.726-.437c-1.087 0-1.964.351-2.63 1.055-.666.703-.999 1.615-.999 2.736 0 1.11.333 2.016 1 2.72.665.703 1.542 1.055 2.629 1.055.64 0 1.217-.146 1.734-.437.517-.291.909-.69 1.175-1.195l1.902 1.137a5.3 5.3 0 0 1-1.998 1.986A5.555 5.555 0 0 1 21.82 68zm13.807-.23l-2.254-4.006h-1.678v4.005h-2.206V56.231h4.476c1.034 0 1.913.373 2.638 1.12.724.748 1.087 1.649 1.087 2.704 0 .714-.198 1.376-.592 1.986a3.736 3.736 0 0 1-1.566 1.377l2.477 4.351h-2.382zm-3.932-9.413v3.412h2.27c.416 0 .773-.167 1.071-.503.298-.335.448-.739.448-1.211 0-.473-.15-.874-.448-1.203-.298-.33-.655-.495-1.071-.495h-2.27zm11.314 7.236h4.716v2.176h-6.922V56.231h6.842v2.176h-4.636v2.456h4.236v2.142h-4.236v2.588zm15.134 2.176l-.671-2.077h-4.46l-.672 2.077h-2.381l3.916-11.538h2.734l3.932 11.538h-2.398zm-4.428-4.203h3.07l-1.535-4.714-1.535 4.714zm15.998-7.335v2.176h-3.021v9.362h-2.206v-9.362h-3.006V56.23h8.233zm4.936 9.362h4.715v2.176h-6.921V56.231h6.841v2.176h-4.635v2.456h4.236v2.142h-4.236v2.588zM91.728 68c-1.108 0-2.04-.255-2.797-.766a4.081 4.081 0 0 1-1.599-2.086l1.887-1.137c.436 1.176 1.294 1.764 2.573 1.764.618 0 1.071-.116 1.359-.346.288-.231.432-.522.432-.874 0-.407-.176-.723-.528-.948-.352-.225-.98-.47-1.886-.733-.501-.154-.925-.308-1.271-.462a5.442 5.442 0 0 1-1.04-.618 2.504 2.504 0 0 1-.79-.98c-.182-.396-.272-.858-.272-1.385 0-1.044.36-1.877 1.079-2.498.72-.62 1.585-.931 2.597-.931.906 0 1.703.228 2.39.684.688.456 1.223 1.09 1.607 1.904l-1.854 1.104c-.448-.989-1.162-1.483-2.143-1.483-.458 0-.817.107-1.079.321a1.027 1.027 0 0 0-.391.833c0 .362.146.656.44.882.292.225.855.47 1.686.733.34.11.6.195.775.256.176.06.416.153.72.28.303.126.538.244.703.354.165.11.354.258.567.445.214.187.376.38.488.577.112.198.208.437.288.717.08.28.12.585.12.915 0 1.066-.376 1.912-1.127 2.538-.752.627-1.73.94-2.934.94zm9.124-2.407h4.268v2.176h-6.474V56.231h2.206v9.362zm14.527 2.176l-.671-2.077h-4.46l-.672 2.077h-2.382l3.917-11.538h2.733l3.933 11.538h-2.398zm-4.428-4.203h3.07l-1.535-4.714-1.535 4.714zM125.271 68c-1.685 0-3.075-.577-4.173-1.73-1.098-1.155-1.647-2.578-1.647-4.27 0-1.703.55-3.13 1.647-4.277 1.098-1.149 2.488-1.723 4.172-1.723 1.013 0 1.948.245 2.806.734a5.283 5.283 0 0 1 2.006 1.986l-1.902 1.137a3 3 0 0 0-1.183-1.211 3.427 3.427 0 0 0-1.727-.437c-1.087 0-1.963.351-2.63 1.055-.665.703-.998 1.615-.998 2.736 0 1.11.333 2.016.999 2.72.666.703 1.542 1.055 2.63 1.055.639 0 1.217-.146 1.734-.437.517-.291.908-.69 1.175-1.195l1.902 1.137a5.3 5.3 0 0 1-1.998 1.986 5.555 5.555 0 0 1-2.814.734zm16.413-.23h-2.542l-3.997-5.407v5.406h-2.206V56.231h2.206v5.093l3.837-5.093h2.542l-4.14 5.604 4.3 5.934zm9.347-5.984c.98.582 1.47 1.461 1.47 2.637 0 .978-.335 1.78-1.006 2.407-.672.626-1.498.94-2.478.94h-4.748V56.23h4.412c.96 0 1.767.306 2.422.916.656.61.983 1.387.983 2.332 0 .956-.351 1.725-1.055 2.308zm-2.35-3.429h-2.206v2.539h2.206c.341 0 .626-.121.856-.363.229-.242.343-.544.343-.907 0-.362-.112-.664-.335-.906a1.123 1.123 0 0 0-.864-.363zm.336 7.286c.373 0 .682-.13.927-.388s.368-.585.368-.98c0-.385-.123-.706-.368-.965a1.224 1.224 0 0 0-.927-.387h-2.542v2.72h2.542zm15.838.626C163.725 67.423 162.35 68 160.73 68c-1.62 0-2.992-.58-4.117-1.739-1.124-1.16-1.686-2.58-1.686-4.261s.562-3.102 1.686-4.261c1.125-1.16 2.497-1.739 4.117-1.739s2.994.58 4.124 1.739c1.13 1.16 1.694 2.58 1.694 4.261s-.564 3.104-1.694 4.27zm-6.698-1.55c.693.704 1.55 1.056 2.574 1.056 1.023 0 1.88-.355 2.573-1.063.693-.71 1.04-1.613 1.04-2.712 0-1.099-.347-2.005-1.04-2.72-.692-.714-1.55-1.071-2.573-1.071-1.024 0-1.881.357-2.574 1.071-.693.715-1.04 1.621-1.04 2.72 0 1.099.347 2.005 1.04 2.72zM177 56.232v2.176h-3.021v9.362h-2.206v-9.362h-3.006V56.23H177z"/>
        <rect width="40" height="40" fill="#464769" fill-rule="nonzero" rx="14.4" transform="translate(16)"/>
        <g fill="#E6E6E6">
            <path d="M34.188 19.02l2.595-.857.93 2.57-2.645.862z"/>
            <path fill-rule="nonzero" d="M45.165 17.248C43.1 10.38 40.12 8.774 33.25 10.838c-6.87 2.066-8.475 5.038-6.416 11.913 2.059 6.875 5.044 8.474 11.914 6.41 6.87-2.066 8.475-5.005 6.416-11.913zm-3.477 4.46l-1.295.434.447 1.347a1.036 1.036 0 0 1-.648 1.295.971.971 0 0 1-.356.052 1.03 1.03 0 0 1-.958-.706l-.447-1.34-2.674.893.453 1.34a1.036 1.036 0 0 1-.647 1.295.971.971 0 0 1-.356.052 1.023 1.023 0 0 1-.958-.706l-.447-1.34-1.295.434a.99.99 0 0 1-.356.052 1.023 1.023 0 0 1-.958-.706 1.036 1.036 0 0 1 .647-1.295l1.295-.434-.861-2.59-1.295.435a.971.971 0 0 1-.356.051 1.023 1.023 0 0 1-.958-.705 1.042 1.042 0 0 1 .647-1.295l1.295-.434-.447-1.34a1.036 1.036 0 0 1 1.943-.647l.446 1.34 2.674-.9-.453-1.34a1.036 1.036 0 0 1 1.943-.648l.446 1.34 1.295-.433a1.036 1.036 0 1 1 .648 1.942l-1.295.434.86 2.59 1.296-.434a1.036 1.036 0 1 1 .647 1.942l.078.026z"/>
        </g>
        <path stroke="url(#b)" d="M19 84v19.175a5 5 0 0 0 5 5h168a5 5 0 0 1 5 5V225" transform="translate(16)"/>
        <g>
            <g fill-rule="nonzero" transform="translate(217)">
                <rect width="40" height="40" fill="#464769" rx="14.4"/>
                <path fill="#E6E6E6" d="M20 9.778c-4.172 0-7.556 3.344-7.556 7.466 0 5.6 7.556 13.867 7.556 13.867s7.556-8.267 7.556-13.867c0-4.122-3.384-7.466-7.556-7.466zm0 10.133c-1.49 0-2.698-1.195-2.698-2.667 0-1.472 1.208-2.666 2.698-2.666s2.698 1.194 2.698 2.666S21.49 19.911 20 19.911z"/>
            </g>
        </g>
        <path fill="#F2F3F9" d="M228.504 61.571v.89c0 1.649-.512 2.984-1.536 4.006C225.944 67.489 224.62 68 223 68c-1.728 0-3.16-.58-4.296-1.739-1.136-1.16-1.704-2.574-1.704-4.245 0-1.68.563-3.104 1.688-4.269S221.208 56 222.872 56c1.045 0 2 .245 2.864.734a5.346 5.346 0 0 1 2.016 1.953l-1.888 1.12c-.267-.472-.67-.856-1.208-1.153a3.668 3.668 0 0 0-1.8-.445c-1.067 0-1.944.36-2.632 1.08-.688.72-1.032 1.629-1.032 2.727 0 1.088.35 1.987 1.048 2.696.699.708 1.624 1.063 2.776 1.063.853 0 1.56-.195 2.12-.585.56-.39.941-.926 1.144-1.608h-3.392v-2.01h5.616zm5.275 4.022h4.72v2.176h-6.927V56.231h6.847v2.176h-4.64v2.456h4.24v2.142h-4.24v2.588zm15.18-9.362v2.176h-3.024v9.362h-2.208v-9.362h-3.008V56.23h8.24zm10.44 9.362h4.272v2.176h-6.48V56.231h2.208v9.362zm15.755.676c-1.13 1.154-2.506 1.731-4.128 1.731-1.621 0-2.994-.58-4.12-1.739-1.125-1.16-1.688-2.58-1.688-4.261s.563-3.102 1.688-4.261c1.126-1.16 2.499-1.739 4.12-1.739 1.622 0 2.998.58 4.128 1.739 1.13 1.16 1.696 2.58 1.696 4.261s-.565 3.104-1.696 4.27zm-6.704-1.55c.694.704 1.552 1.056 2.576 1.056s1.883-.355 2.576-1.063c.694-.71 1.04-1.613 1.04-2.712 0-1.099-.346-2.005-1.04-2.72-.693-.714-1.552-1.071-2.576-1.071s-1.882.357-2.576 1.071c-.693.715-1.04 1.621-1.04 2.72 0 1.099.347 2.005 1.04 2.72zM285.214 68c-1.685 0-3.077-.577-4.176-1.73-1.099-1.155-1.648-2.578-1.648-4.27 0-1.703.55-3.13 1.648-4.277 1.099-1.149 2.49-1.723 4.176-1.723 1.013 0 1.95.245 2.808.734a5.285 5.285 0 0 1 2.008 1.986l-1.904 1.137a3.002 3.002 0 0 0-1.184-1.211 3.433 3.433 0 0 0-1.728-.437c-1.088 0-1.965.351-2.632 1.055-.667.703-1 1.615-1 2.736 0 1.11.333 2.016 1 2.72.667.703 1.544 1.055 2.632 1.055.64 0 1.218-.146 1.736-.437a2.91 2.91 0 0 0 1.176-1.195l1.904 1.137a5.302 5.302 0 0 1-2 1.986 5.564 5.564 0 0 1-2.816.734zm14.827-.23l-.672-2.078h-4.463l-.672 2.077h-2.384l3.92-11.538h2.735l3.936 11.538h-2.4zm-4.431-4.204h3.071l-1.536-4.714-1.535 4.714zm16.011-7.335v2.176h-3.024v9.362h-2.208v-9.362h-3.008V56.23h8.24zm2.732 0h2.208v11.538h-2.208V56.231zm15.211 10.038c-1.13 1.154-2.506 1.731-4.127 1.731-1.622 0-2.995-.58-4.12-1.739-1.126-1.16-1.688-2.58-1.688-4.261s.562-3.102 1.688-4.261c1.125-1.16 2.498-1.739 4.12-1.739 1.62 0 2.997.58 4.127 1.739 1.131 1.16 1.696 2.58 1.696 4.261s-.565 3.104-1.696 4.27zm-6.703-1.55c.693.704 1.552 1.056 2.576 1.056s1.882-.355 2.575-1.063c.694-.71 1.04-1.613 1.04-2.712 0-1.099-.346-2.005-1.04-2.72-.693-.714-1.551-1.071-2.575-1.071-1.024 0-1.883.357-2.576 1.071-.694.715-1.04 1.621-1.04 2.72 0 1.099.346 2.005 1.04 2.72zm17.931-8.488H343v11.538h-1.68l-4.8-7.055v7.055h-2.208V56.231h1.68l4.8 7.038v-7.038z"/>
        <path stroke="url(#b)" d="M224 85v35.608a5 5 0 0 0 5 5h44a5 5 0 0 1 5 5V226" transform="translate(16)"/>
    </g>
</svg>
