<?xml version="1.0" encoding="UTF-8"?>
<svg width="607px" height="272px" viewBox="0 0 607 272" version="1.1" xmlns="http://www.w3.org/2000/svg" xmlns:xlink="http://www.w3.org/1999/xlink">
    <!-- Generator: Sketch 52 (66869) - http://www.bohemiancoding.com/sketch -->
    <title>molecules / illustration - asyncyhub</title>
    <desc>Created with Sketch.</desc>
    <defs>
        <filter x="-78.5%" y="-119.5%" width="257.0%" height="339.0%" filterUnits="objectBoundingBox" id="filter-1">
            <feOffset dx="0" dy="15" in="SourceAlpha" result="shadowOffsetOuter1"></feOffset>
            <feGaussianBlur stdDeviation="154.5" in="shadowOffsetOuter1" result="shadowBlurOuter1"></feGaussianBlur>
            <feColorMatrix values="0 0 0 0 0   0 0 0 0 0   0 0 0 0 0  0 0 0 0.295346467 0" type="matrix" in="shadowBlurOuter1" result="shadowMatrixOuter1"></feColorMatrix>
            <feMerge>
                <feMergeNode in="shadowMatrixOuter1"></feMergeNode>
                <feMergeNode in="SourceGraphic"></feMergeNode>
            </feMerge>
        </filter>
    </defs>
    <g id="molecules-/-illustration---asyncyhub" stroke="none" stroke-width="1" fill="none" fill-rule="evenodd">
        <g id="Group-8">
            <g id="hub-window" filter="url(#filter-1)">
                <rect id="Rectangle" fill="#21212A" x="0" y="0" width="413.577426" height="271.306185" rx="12.2363983"></rect>
                <path d="M12.2485207,1 L401.328905,1 C408.093577,1 413.577426,6.49790285 413.577426,13.2799097 L413.577426,29.0043341 L0,29.0043341 L0,13.2799097 C-8.28433293e-16,6.49790285 5.48384951,1 12.2485207,1 Z" id="Path" fill="#1E1E27"></path>
                <ellipse id="Oval" fill="#FF5F57" cx="19.0586982" cy="15.0297968" rx="3.56431953" ry="3.62871332"></ellipse>
                <ellipse id="Oval" fill="#FFBC2D" cx="30.7131657" cy="15.0297968" rx="3.56431953" ry="3.62871332"></ellipse>
                <ellipse id="Oval" fill="#29CA42" cx="42.3308876" cy="15.0297968" rx="3.56431953" ry="3.62871332"></ellipse>
                <rect id="Rectangle" fill="#464769" x="97.8105621" y="75.9688488" width="33.6099408" height="5.28650113" rx="2.63694383"></rect>
                <rect id="Rectangle" fill="#464769" x="98.1473964" y="174.539684" width="58.5111834" height="5.28650113" rx="2.63694383"></rect>
                <rect id="Rectangle" fill="#C0C0DD" x="25.2993195" y="72.2971558" width="31.4664497" height="5.28650113" rx="2.63694383"></rect>
                <rect id="Rectangle" fill="#464769" x="36.7761834" y="89.4276298" width="29.849645" height="3.13137698" rx="1.56014078"></rect>
                <rect id="Rectangle" fill="#464769" x="36.7761834" y="104.949436" width="16.7559763" height="3.13137698" rx="1.56014078"></rect>
                <rect id="Rectangle" fill="#464769" x="36.7761834" y="120.477381" width="32.7280473" height="3.13137698" rx="1.56014078"></rect>
                <rect id="Rectangle" fill="#464769" x="36.7761834" y="135.999187" width="10.4479882" height="3.13137698" rx="1.56014078"></rect>
                <rect id="Rectangle" fill="#464769" x="36.7761834" y="151.520993" width="22.2188166" height="3.13137698" rx="1.56014078"></rect>
                <rect id="Rectangle" fill="#464769" x="36.7761834" y="167.042799" width="18.348284" height="3.13137698" rx="1.56014078"></rect>
                <rect id="Rectangle" fill="#464769" x="36.7761834" y="182.564605" width="29.9782544" height="3.13137698" rx="1.56014078"></rect>
                <rect id="Rectangle" fill="#464769" x="36.7761834" y="198.086411" width="22.2188166" height="3.13137698" rx="1.56014078"></rect>
                <rect id="Rectangle" fill="#464769" x="36.7761834" y="213.608217" width="23.2293195" height="3.13137698" rx="1.56014078"></rect>
                <ellipse id="Oval" fill="#464769" cx="27.4060651" cy="90.9933183" rx="2.10674556" ry="2.11214447"></ellipse>
                <ellipse id="Oval" fill="#464769" cx="27.4060651" cy="106.515124" rx="2.10674556" ry="2.11214447"></ellipse>
                <ellipse id="Oval" fill="#464769" cx="27.4060651" cy="122.03693" rx="2.10674556" ry="2.11214447"></ellipse>
                <ellipse id="Oval" fill="#464769" cx="27.4060651" cy="137.564876" rx="2.10674556" ry="2.11214447"></ellipse>
                <ellipse id="Oval" fill="#464769" cx="27.4060651" cy="153.086682" rx="2.10674556" ry="2.11214447"></ellipse>
                <ellipse id="Oval" fill="#464769" cx="27.4060651" cy="168.608488" rx="2.10674556" ry="2.11214447"></ellipse>
                <ellipse id="Oval" fill="#464769" cx="27.4060651" cy="184.130293" rx="2.10674556" ry="2.11214447"></ellipse>
                <ellipse id="Oval" fill="#464769" cx="27.4060651" cy="199.652099" rx="2.10674556" ry="2.11214447"></ellipse>
                <ellipse id="Oval" fill="#464769" cx="27.4060651" cy="215.173905" rx="2.10674556" ry="2.11214447"></ellipse>
                <rect id="Rectangle" fill="#2C2E44" x="98.1473964" y="46.4356659" width="277.055414" height="13.9192777" rx="4.75384073"></rect>
                <rect id="Rectangle" fill="#464769" x="98.1473964" y="108.000993" width="82.4019231" height="44.2997743" rx="7.26230238"></rect>
                <ellipse id="Oval" fill="#C0C0DD" cx="139.345296" cy="107.970293" rx="17.5398817" ry="17.5848307"></ellipse>
                <rect id="Rectangle" fill="#464769" x="195.474142" y="108.000993" width="82.4019231" height="44.2997743" rx="7.26230238"></rect>
                <ellipse id="Oval" fill="#C0C0DD" cx="236.672041" cy="107.970293" rx="17.5398817" ry="17.5848307"></ellipse>
                <rect id="Rectangle" fill="#464769" x="292.800888" y="108.000993" width="82.4019231" height="44.2997743" rx="7.26230238"></rect>
                <ellipse id="Oval" fill="#C0C0DD" cx="333.539882" cy="107.584831" rx="17.5398817" ry="17.5848307"></ellipse>
                <ellipse id="Oval" fill="#464769" cx="110.304053" cy="204.576343" rx="12.1566568" ry="12.1878104"></ellipse>
                <rect id="Rectangle" fill="#C0C0DD" x="129.344379" y="198.890745" width="49.5330178" height="3.13137698" rx="1.56014078"></rect>
                <rect id="Rectangle" fill="#464769" x="129.344379" y="207.130564" width="91.104497" height="3.13137698" rx="1.56014078"></rect>
                <ellipse id="Oval" fill="#464769" cx="110.304053" cy="240.998555" rx="12.1566568" ry="12.1878104"></ellipse>
                <rect id="Rectangle" fill="#C0C0DD" x="129.344379" y="235.312957" width="49.5330178" height="3.13137698" rx="1.56014078"></rect>
                <rect id="Rectangle" fill="#464769" x="129.344379" y="243.552777" width="91.104497" height="3.13137698" rx="1.56014078"></rect>
                <ellipse id="Oval" fill="#464769" cx="265.156657" cy="204.18781" rx="12.1566568" ry="12.1878104"></ellipse>
                <rect id="Rectangle" fill="#C0C0DD" x="284.465769" y="198.890745" width="49.5330178" height="3.13137698" rx="1.56014078"></rect>
                <rect id="Rectangle" fill="#464769" x="284.465769" y="207.130564" width="91.104497" height="3.13137698" rx="1.56014078"></rect>
                <ellipse id="Oval" fill="#464769" cx="265.425444" cy="240.998555" rx="12.1566568" ry="12.1878104"></ellipse>
                <rect id="Rectangle" fill="#C0C0DD" x="284.465769" y="235.312957" width="49.5330178" height="3.13137698" rx="1.56014078"></rect>
                <rect id="Rectangle" fill="#464769" x="284.465769" y="243.552777" width="91.104497" height="3.13137698" rx="1.56014078"></rect>
                <path d="M263.906627,238.161896 L263.906627,236.28307 C263.907851,236.123985 263.813279,235.979857 263.667082,235.918001 C263.520885,235.856145 263.351912,235.888768 263.239083,236.000632 L259.478787,239.770564 C259.165121,240.088691 259.165121,240.600609 259.478787,240.918736 L263.239083,244.688668 C263.351912,244.800533 263.520885,244.833155 263.667082,244.771299 C263.813279,244.709443 263.907851,244.565315 263.906627,244.40623 L263.906627,242.300226 C266.925382,242.310032 269.768894,243.722958 271.604822,246.125418 C270.722929,239.303928 265.180473,238.303115 263.906627,238.161896 Z" id="Path" fill="#C0C0DD"></path>
                <path d="M35.3124852,56.6832506 L40.928432,45.3795937 C41.1919323,44.8463107 41.7342168,44.5089077 42.3278254,44.5089077 C42.9214341,44.5089077 43.4637186,44.8463107 43.7272189,45.3795937 L47.4385207,52.8396388 C46.5627515,53.3185553 45.6012426,53.7790519 44.6152367,54.2088488 L42.3308876,49.6100226 L39.1217751,56.0692551 C37.8725856,56.386283 36.5978407,56.5917511 35.3124852,56.6832506 Z M53.4402959,47.6636569 C53.1095858,46.828623 51.8663609,46.4356659 50.0597041,46.4356659 C48.3797568,46.4744381 46.7103826,46.7135312 45.0868047,47.1479007 L45.2827811,47.5531377 C46.8427732,47.1382075 48.4461866,46.9094447 50.0597041,46.8716027 C51.7071302,46.8716027 52.7911243,47.2277201 53.0299704,47.8601354 C53.3116864,48.5907901 52.503284,49.8126411 50.8742308,51.1265914 C48.6336553,52.8199045 46.1576405,54.1748593 43.5251183,55.1482619 C40.2363905,56.4253725 36.978284,57.1560271 34.5959467,57.1560271 C32.9485207,57.1560271 31.8645266,56.7937698 31.6256805,56.1674944 C31.3439645,55.4368397 32.1523669,54.2149887 33.7875444,52.9010384 C35.1059468,51.870679 36.528419,50.9816707 38.0316568,50.2485779 L38.3501183,49.6345824 C33.6466864,51.8511061 30.5845562,54.6447856 31.2337278,56.3087133 C31.5583136,57.162167 32.8015385,57.573544 34.6081953,57.573544 L34.908284,57.573544 C34.8065278,58.0391785 34.9201751,58.5259749 35.2174829,58.897966 C35.5147908,59.269957 35.9638924,59.487271 36.4393491,59.4892099 C36.730026,59.4891099 37.0146687,59.4060538 37.26,59.2497517 C37.5175977,59.1067994 37.7298391,58.894014 37.872426,58.6357562 L38.6318343,57.1069074 C40.357144,56.7220385 42.0503876,56.2047581 43.6965976,55.5596388 C44.1497929,55.3877201 44.5846154,55.2035214 45.0194379,55.0193228 L46.8138462,58.6357562 C47.0797124,59.1684762 47.6221446,59.5056935 48.2163018,59.5076298 C48.7659098,59.5059387 49.2748315,59.2169406 49.5588909,58.7452223 C49.8429504,58.2735039 49.8610004,57.6873957 49.6065089,57.1990068 L47.8243491,53.6194131 C51.6520118,51.5256885 54.0037278,49.1556659 53.4402959,47.6636569 Z" id="Shape" fill="#C0C0DD" fill-rule="nonzero"></path>
                <polygon id="Rectangle" fill="#464769" transform="translate(236.679186, 107.964455) rotate(-18.520000) translate(-236.679186, -107.964455) " points="235.37229 106.704029 237.988025 106.70201 237.986082 109.224881 235.370347 109.226899"></polygon>
                <g id="Group" transform="translate(227.000000, 98.000000)" fill="#464769">
                    <polygon id="Rectangle" transform="translate(9.679186, 9.964455) rotate(-18.520000) translate(-9.679186, -9.964455) " points="8.3722895 8.70402876 10.9880248 8.70201035 10.986082 11.224881 8.37034672 11.2268994"></polygon>
                    <path d="M18.1725148,7.41607223 C16.2617456,1.02437923 13.4997041,-0.467629797 7.14884615,1.45417607 C0.797988166,3.37598194 -0.714704142,6.13896163 1.19606509,12.5060948 C3.10683432,18.873228 5.875,20.3836569 12.2197337,18.467991 C18.5644675,16.5523251 20.083284,13.8077652 18.1725148,7.41607223 Z M14.9450296,11.5666817 L13.7201775,11.9657788 L14.1366272,13.1937698 C14.2197548,13.4379815 14.2017519,13.7054115 14.0866475,13.9362102 C13.9715432,14.1670089 13.7689477,14.3419061 13.5242012,14.4217607 C13.4180607,14.4589779 13.3058355,14.4756465 13.1934911,14.4708804 C12.7884975,14.4627712 12.4326275,14.1994907 12.3054734,13.8139052 L11.8890237,12.5859142 L9.43931953,13.4209481 L9.85576923,14.6489391 C9.9388968,14.8931508 9.92089391,15.1605808 9.80578955,15.3913795 C9.69068518,15.6221782 9.48808976,15.7970754 9.2433432,15.87693 C9.13680812,15.913141 9.02512363,15.9318027 8.91263314,15.9321896 C8.50726678,15.9195661 8.15276224,15.6548447 8.02461538,15.2690745 L7.60816568,14.0410835 L6.38331361,14.4463205 C6.27717308,14.4835378 6.16494794,14.5002063 6.05260355,14.4954402 C5.58469286,14.4853735 5.19198049,14.1389942 5.12240651,13.67499 C5.05283253,13.2109857 5.32660951,12.7641585 5.77088757,12.616614 L6.99573964,12.2175169 L6.1995858,9.82293454 L4.97473373,10.2281716 C4.86998331,10.2623897 4.76030549,10.2789872 4.65014793,10.2772912 C4.18223724,10.2672245 3.78952487,9.92084526 3.71995089,9.456841 C3.65037691,8.99283674 3.92415389,8.54600953 4.36843195,8.39846501 L5.59328402,7.99322799 L5.17683432,6.76523702 C5.06743492,6.43619782 5.14143733,6.07363961 5.37096556,5.81413457 C5.60049379,5.55462952 5.95067703,5.43760264 6.28960465,5.50713681 C6.62853226,5.57667099 6.90471307,5.82220232 7.01411243,6.15124153 L7.43056213,7.37923251 L9.88026627,6.54419865 L9.46381657,5.31620767 C9.35441718,4.98716848 9.4284196,4.62461029 9.65794783,4.36510525 C9.88747606,4.10560022 10.2376593,3.98857334 10.5765869,4.05810751 C10.9155145,4.12764167 11.1916953,4.37317299 11.3010947,4.70221219 L11.7175444,5.93020316 L12.9423964,5.53110609 C13.4497468,5.36155592 13.9981317,5.63645107 14.1672485,6.14510158 C14.3363653,6.65375209 14.0621728,7.20354238 13.5548225,7.37309255 L12.3299704,7.77832957 L13.1261243,10.172912 L14.3509763,9.76767494 C14.6791745,9.65799521 15.0408059,9.73218728 15.2996476,9.96230371 C15.5584893,10.1924201 15.675217,10.5435008 15.6058606,10.8832969 C15.5365042,11.2230931 15.2916005,11.4999817 14.9634024,11.6096614 L14.9450296,11.5666817 Z" id="Shape" fill-rule="nonzero"></path>
                </g>
            </g>
            <path d="M263.92793,73.0264108 C263.264421,73.0264108 263,72.780699 263,72.5029355 C263,72.2251719 263.214112,72 263.478232,72 L557.291098,72 C561.605257,72 565.437414,74.8976176 566.811192,79.1984505 L571.692843,94.4812453 C572.935785,98.3724751 576.402974,100.994129 580.306261,100.994129 L600.521768,100.994129 C600.785888,100.994129 601,101.219301 601,101.497065 C601,101.774828 600.785888,102 600.521768,102 L580.306261,102 C575.992102,102 572.159945,99.1023824 570.786167,94.8015495 L565.904516,79.5187547 C564.661574,75.6275249 561.194385,73.0058709 557.291098,73.0058709 L263.92793,73.0264108 Z" id="Path-13" fill="#464769" fill-rule="nonzero" transform="translate(432.000000, 87.000000) scale(-1, 1) translate(-432.000000, -87.000000) "></path>
            <path d="M393,241.5 C392.723858,241.5 392.5,241.276142 392.5,241 C392.5,240.723858 392.723858,240.5 393,240.5 L437.820509,240.5 C444.115767,240.5 450.023795,237.460866 453.684542,232.33942 L501.761426,165.079072 C505.609904,159.694987 511.820907,156.5 518.439,156.5 L601.396163,156.5 C601.672305,156.5 601.896163,156.723858 601.896163,157 C601.896163,157.276142 601.672305,157.5 601.396163,157.5 L518.439,157.5 C512.143741,157.5 506.235714,160.539134 502.574966,165.66058 L454.498082,232.920928 C450.649604,238.305013 444.438601,241.5 437.820509,241.5 L393,241.5 Z" id="Path-10-Copy-2" fill="#464769" fill-rule="nonzero" transform="translate(497.198081, 199.000000) scale(-1, -1) translate(-497.198081, -199.000000) "></path>
            <path d="M601.715506,132 L500.382555,132.861753 C496.796731,132.892247 493.501741,134.840421 491.746863,137.967634 L459.632724,195.195394 C457.851669,198.369253 454.486909,200.324886 450.847542,200.301429 L373,199.799684" id="Path-2" stroke="#464769" stroke-linecap="round" fill-rule="nonzero"></path>
            <path d="M601,102 L362.601046,102" id="Path-2-Copy" stroke="#464769" stroke-linecap="round" fill-rule="nonzero" transform="translate(481.800523, 102.000000) scale(1, -1) translate(-481.800523, -102.000000) "></path>
        </g>
        <path d="M333.5,100 C330.462434,100 328,102.555699 328,105.708314 C328,108.862708 332.540613,116 333.5,116 C334.459387,116 339,108.862708 339,105.708314 C338.995966,102.557435 336.535893,100.004187 333.5,100 Z M333.617177,107.935392 C332.849326,107.935386 332.157224,107.454914 331.864069,106.718348 C331.570914,105.981782 331.734543,105.134439 332.278545,104.572013 C332.822547,104.009587 333.639594,103.843039 334.348142,104.150145 C335.056689,104.45725 335.516946,105.177419 335.513981,105.974347 C335.517886,106.499093 335.319769,107.00374 334.963625,107.376227 C334.607482,107.748715 334.122789,107.95821 333.617177,107.958195 L333.617177,107.935392 Z" id="Shape" fill="#464769" fill-rule="nonzero"></path>
        <g id="Group-2" transform="translate(258.000000, 197.000000)">
            <polygon id="Path" fill="#C0C0DD" points="13.0534526 8.41992559 14.5939354 6.95759848 13.0397547 5.48193084 13.6161186 3.44185624 11.5477412 2.94209953 11.0209003 0.93075838 8.95146924 1.49824392 7.45102633 5.32907052e-15 5.93583188 1.51363684 3.84111242 0.952308464 3.33007674 2.9667282 1.26486038 3.47982543 1.84754643 5.49424517 0.307063609 6.95759848 1.86124429 8.43223992 1.28488034 10.4702621 3.35325774 10.9700188 3.88009865 12.9823862 5.94847606 12.4138745 7.44997265 13.9141708 8.96411342 12.4005339 11.0567255 12.9618623 11.5698686 10.9474426 13.6361386 10.4343453"></polygon>
            <ellipse id="Oval" fill="#464769" cx="7.56085895" cy="7.06456589" rx="4.75379534" ry="4.62978328"></ellipse>
            <ellipse id="Oval" fill="#C0C0DD" cx="7.55563874" cy="7.05948187" rx="4.12357513" ry="4.0160036"></ellipse>
        </g>
    </g>
</svg>