<svg xmlns="http://www.w3.org/2000/svg" width="375" height="463" viewBox="0 0 375 463">
    <defs>
        <filter id="a" width="271.4%" height="352.4%" x="-85.7%" y="-126.2%" filterUnits="objectBoundingBox">
            <feOffset dy="13" in="SourceAlpha" result="shadowOffsetOuter1"/>
            <feGaussianBlur in="shadowOffsetOuter1" result="shadowBlurOuter1" stdDeviation="127.5"/>
            <feColorMatrix in="shadowBlurOuter1" result="shadowMatrixOuter1" values="0 0 0 0 0 0 0 0 0 0 0 0 0 0 0 0 0 0 0.295346467 0"/>
            <feMerge>
                <feMergeNode in="shadowMatrixOuter1"/>
                <feMergeNode in="SourceGraphic"/>
            </feMerge>
        </filter>
        <linearGradient id="b" x1="103.219%" x2="103.219%" y1="-34.418%" y2="63.348%">
            <stop offset="0%" stop-color="#5805FC"/>
            <stop offset="100%" stop-color="#9772E0"/>
        </linearGradient>
    </defs>
    <g fill="none" fill-rule="evenodd">
        <g filter="url(#a)" transform="translate(16 118)">
            <rect width="343" height="223.863" y="9.137" fill="#21212A" rx="15.262"/>
            <path fill="#1E1E27" d="M10.158 9.137h322.684c5.61 0 10.158 4.48 10.158 10.006V31.98H0V19.143C0 13.617 4.548 9.137 10.158 9.137z"/>
            <path fill="#7B7B8F" d="M280.688 24.264h-1.163l-1.829-2.402v2.402h-1.01v-5.126h1.01v2.263l1.756-2.263h1.163l-1.895 2.49 1.968 2.636zm3.094.102c-.57 0-1.038-.161-1.404-.483-.366-.322-.549-.754-.549-1.296v-3.449h1.002v3.368c0 .269.077.481.23.637.154.157.395.235.721.235.327 0 .567-.078.721-.235.154-.156.23-.368.23-.637v-3.368h1.01v3.449c0 .542-.183.974-.549 1.296-.366.322-.836.483-1.412.483zm6.877-2.76c.448.258.673.649.673 1.171 0 .435-.154.791-.461 1.07-.307.277-.685.417-1.134.417h-2.173v-5.126h2.02c.438 0 .808.136 1.108.407.3.27.45.616.45 1.036 0 .424-.161.766-.483 1.025zm-1.076-1.523h-1.01v1.127h1.01a.525.525 0 0 0 .392-.16.553.553 0 0 0 .157-.403.56.56 0 0 0-.154-.403.522.522 0 0 0-.395-.161zm.154 3.236c.17 0 .312-.057.424-.172a.597.597 0 0 0 .169-.436.588.588 0 0 0-.169-.428.569.569 0 0 0-.424-.172h-1.163v1.208h1.163zm4.177-.022h2.158v.967h-3.168v-5.126h3.131v.967h-2.121v1.09h1.939v.953h-1.939v1.15zm6.591.967l-1.031-1.78h-.769v1.78h-1.01v-5.126h2.05c.472 0 .875.166 1.206.498.332.332.498.732.498 1.201 0 .317-.09.611-.271.882-.18.271-.42.475-.717.612l1.134 1.933h-1.09zm-1.8-4.181v1.515h1.04c.19 0 .353-.074.49-.223a.768.768 0 0 0 .204-.538.755.755 0 0 0-.205-.534.647.647 0 0 0-.49-.22h-1.039zm7.36-.945h1.009v5.126h-.768l-2.195-3.134v3.134h-1.01v-5.126h.769l2.195 3.127v-3.127zm3.884 4.16h2.158v.966h-3.168v-5.126h3.131v.967h-2.121v1.09h1.938v.953h-1.938v1.15zm7.169-4.16v.967h-1.383v4.159h-1.01v-4.16h-1.375v-.966h3.768zm2.487 4.16h2.158v.966h-3.168v-5.126h3.131v.967h-2.121v1.09h1.939v.953h-1.939v1.15zm5.53 1.068c-.507 0-.934-.113-1.28-.34a1.82 1.82 0 0 1-.731-.927l.863-.505c.2.522.592.784 1.178.784.282 0 .49-.052.621-.154a.472.472 0 0 0 .198-.388.47.47 0 0 0-.242-.421c-.16-.1-.448-.209-.863-.326a5.36 5.36 0 0 1-.581-.205 2.508 2.508 0 0 1-.476-.275 1.12 1.12 0 0 1-.362-.435 1.427 1.427 0 0 1-.124-.615c0-.464.164-.834.494-1.11a1.79 1.79 0 0 1 1.188-.413c.415 0 .78.101 1.094.304.314.202.56.484.735.845l-.849.491c-.204-.44-.531-.659-.98-.659-.21 0-.374.048-.494.143a.451.451 0 0 0-.179.37c0 .16.067.291.201.391.135.1.392.209.772.326.156.049.274.087.355.114.08.026.19.068.33.124.138.056.245.109.321.157.076.05.162.115.26.198.097.083.172.168.223.256a1.44 1.44 0 0 1 .186.725c0 .474-.172.85-.515 1.128-.344.278-.792.417-1.343.417z"/>
            <rect width="68.6" height="47.971" x="99.851" y="146.958" fill="#464769" rx="9.058"/>
            <ellipse cx="144.06" cy="179.699" fill="#C0C0DD" rx="6.86" ry="6.853"/>
            <ellipse cx="121.193" cy="162.948" fill="#C0C0DD" rx="6.86" ry="6.853"/>
            <rect width="68.6" height="47.971" x="230.953" y="90.611" fill="#464769" rx="9.058"/>
            <ellipse cx="283.667" cy="121.954" fill="#C0C0DD" rx="5.215" ry="5.206"/>
            <ellipse cx="249.247" cy="124.114" fill="#C0C0DD" rx="6.86" ry="6.853"/>
            <ellipse cx="8.746" cy="8.833" fill="#C0C0DD" rx="8.384" ry="8.376" transform="translate(256.633 97.152)"/>
            <rect width="68.6" height="47.971" x="38.873" y="58.631" fill="#464769" rx="9.058"/>
            <g transform="translate(60.868 76.569)">
                <ellipse cx="9.528" cy="9.518" fill="#C0C0DD" rx="9.528" ry="9.518"/>
                <path fill="#464769" d="M9.581 9.351l1.004-.336.337 1-1.003.337z"/>
                <path fill="#464769" fill-rule="nonzero" d="M14.479 8.239c-.982-3.263-2.403-4.053-5.672-3.047C5.537 6.2 4.745 7.583 5.76 10.846c1.015 3.262 2.396 4.053 5.665 3.046 3.27-1.006 4.028-2.39 3.053-5.653zm-1.658 2.114l-.616.21.216.634a.492.492 0 0 1-.566.676.494.494 0 0 1-.368-.365l-.217-.635-1.272.425.217.635a.492.492 0 0 1-.567.676.494.494 0 0 1-.368-.365l-.216-.635-.616.21a.494.494 0 0 1-.312-.933l.616-.209-.412-1.223-.616.21a.468.468 0 0 1-.17 0 .494.494 0 0 1-.142-.96l.616-.209-.216-.635a.494.494 0 1 1 .94-.31l.21.635 1.273-.426-.217-.635a.494.494 0 1 1 .941-.31l.21.634.616-.209a.488.488 0 0 1 .623.31.485.485 0 0 1-.312.622l-.616.21.413 1.222.616-.21a.495.495 0 0 1 .677.566.494.494 0 0 1-.365.367v.027z"/>
            </g>
            <ellipse cx="169.976" cy="98.225" fill="#C0C0DD" rx="6.86" ry="6.853"/>
            <path stroke="#C0C0DD" stroke-width=".763" d="M157.018 181.984l.762.259"/>
            <path stroke="#C0C0DD" stroke-dasharray="2.282" stroke-linecap="round" stroke-width=".763" d="M159.304 182.724c8.836 1.779 33.817 5.013 57.553-10.61 18.678-12.293 26.505-29.62 29.34-37.34"/>
            <path stroke="#C0C0DD" stroke-width=".763" d="M246.198 134.013c.137-.268.267-.536.38-.761"/>
            <path fill="#C0C0DD" d="M156.87 183.507l.328-.213-1.129-1.547 1.711-.954-.202-.332-2.085 1.166zM247.722 134.62l-.368.155-.76-1.75-1.745.863-.176-.341 2.12-1.057z"/>
            <path stroke="#C0C0DD" stroke-dasharray="2.289" stroke-linecap="round" stroke-width=".763" d="M256.107 97.464c-4.28-3.94-17.926-15.354-38.84-16.634-20.28-1.249-34.849 7.77-39.67 11.106"/>
            <path fill="#C0C0DD" d="M256.926 95.505l-.505.045.237 2.448-2.493.055.01.498 3.04-.07zM177.531 89.088l.491.129-.576 2.682 2.438.442-.08.554-2.968-.537z"/>
            <path stroke="#C0C0DD" stroke-dasharray="2.289" stroke-linecap="round" stroke-width=".763" d="M163.116 92.895c-3.923-4.736-16.18-18.12-37.309-22.78-22.069-4.892-39.57 2.849-45.011 5.567"/>
            <path fill="#C0C0DD" d="M163.878 90.636l-.487-.025-.117 2.477-2.387-.302-.058.503 2.908.368zM81.886 73.098l.47.181-.894 2.388 2.382.741-.146.497L80.796 76z"/>
            <path stroke="#C0C0DD" stroke-dasharray="2.289" stroke-linecap="round" stroke-width=".763" d="M107.643 160.663c-5.095-.526-31.851-4.083-45.828-22.777-12.914-17.272-5.02-34.245-3.12-37.828"/>
            <path fill="#C0C0DD" d="M111.505 158.38l-.43.296 1.695 1.816-2.248 1.304.31.39 2.74-1.595zM60.567 100.826l-.463.195-.936-2.342-2.194 1.135-.219-.462 2.672-1.377z"/>
            <path stroke="#C0C0DD" stroke-dasharray="2.289" stroke-linecap="round" stroke-width=".763" d="M153.207 171.324c4.064-2.814 16.038-12.061 20.894-29.233 4.806-16.995-.437-30.97-2.398-35.49"/>
            <path fill="#C0C0DD" d="M154.666 172.846l.065-.453-2.448-.289.49-2.212-.49-.091-.6 2.693zM174.549 107.103l-.207.463-2.27-1.039-.86 2.359-.474-.179 1.046-2.867z"/>
            <path fill="#316DE6" d="M33.325 4.234a1.437 1.437 0 0 0-.719-.83L25.693.118a1.284 1.284 0 0 0-.568-.115 2.423 2.423 0 0 0-.563.045L17.649 3.36c-.347.154-.6.461-.684.83l-1.7 7.41c-.065.378.025.767.252 1.079l4.781 5.881c.28.276.649.443 1.041.47h7.617c.407.042.805-.138 1.041-.47l4.781-5.881c.224-.313.32-.699.272-1.08l-1.725-7.365z"/>
            <path fill="#FFF" fill-rule="nonzero" d="M32.497 11.127s-.046 0-.046-.025-.046 0-.093 0c-.094-.01-.189-.01-.283 0a.278.278 0 0 1-.14 0 4.263 4.263 0 0 1-.788-.134.274.274 0 0 1-.164-.154l-.196-.114a5.644 5.644 0 0 0-.093-1.986 5.884 5.884 0 0 0-.814-1.831l.14-.134v-.025c-.001-.072.024-.143.071-.199.2-.17.418-.322.65-.452l.139-.064.257-.134c0-.025.047-.025.067-.045.02-.02 0-.025 0-.045a.42.42 0 0 0 .098-.61.444.444 0 0 0-.325-.159.559.559 0 0 0-.324.114c-.026.025-.046.045-.072.045-.068.063-.13.13-.186.203-.025.045-.072.065-.092.09a3.058 3.058 0 0 1-.583.496.38.38 0 0 1-.139.045.139.139 0 0 1-.092 0l-.186.114c-.185-.179-.397-.357-.582-.536a6.096 6.096 0 0 0-3.086-1.177v-.178a.317.317 0 0 1-.119-.18 4.307 4.307 0 0 1 .047-.759V3.16c0-.044 0-.178.046-.268v-.134a.456.456 0 0 0-.397-.471.483.483 0 0 0-.396.159.43.43 0 0 0-.14.312v.114c.006.093.022.184.047.273a.25.25 0 0 1 .026.135c.039.25.054.505.046.759a.302.302 0 0 1-.119.179V4.44c-.257.024-.515.069-.788.113a5.62 5.62 0 0 0-2.86 1.564l-.138-.09h-.093a.38.38 0 0 1-.14-.044 4.133 4.133 0 0 1-.581-.496c0-.045-.072-.065-.093-.09a3.53 3.53 0 0 0-.186-.198c-.067-.065-.046-.025-.072-.045V5.13a.591.591 0 0 0-.324-.109.355.355 0 0 0-.325.154.483.483 0 0 0 .093.625v.025s.046.045.072.045c.081.05.165.095.252.134l.14.064c.234.125.452.277.649.452a.228.228 0 0 1 .072.199l.129.124c0 .045-.047.064-.072.11a5.16 5.16 0 0 0-.81 3.668l-.185.044c0 .065-.093.11-.16.154a4.13 4.13 0 0 1-.793.134.278.278 0 0 0-.139 0h-.417a.444.444 0 0 0-.371.497c.05.202.25.336.463.313.04.009.08.009.119 0v-.025c0-.025.072 0 .093 0 .087-.025.173-.055.257-.09a.38.38 0 0 1 .14-.044c.248-.09.505-.156.767-.199a.274.274 0 0 1 .185.065v.024l.212-.024a5.401 5.401 0 0 0 1.9 2.616c.196.155.406.292.63.407l-.068.293v.025c.042.067.051.148.026.223a3.55 3.55 0 0 1-.376.645v.025a.35.35 0 0 1-.093.11c-.046.044-.092.138-.16.228-.066.09-.025.044-.046.064a.453.453 0 0 0 .186.601c.05.026.107.041.165.045a.517.517 0 0 0 .443-.268s0-.045.046-.07c.046-.025.072-.154.093-.243l.046-.134a3.67 3.67 0 0 1 .304-.695.324.324 0 0 1 .186-.134l.092-.179a5.618 5.618 0 0 0 2.02.357c.424.003.847-.048 1.257-.153.257-.065.51-.145.757-.239l.093.16h.026a.4.4 0 0 1 .185.133c.124.222.224.454.3.695l.046.134a.805.805 0 0 0 .092.243c.026.025.026.045.047.07.02.025 0 0 0 0a.517.517 0 0 0 .438.268.483.483 0 0 0 .185-.045.376.376 0 0 0 .211-.243.541.541 0 0 0 0-.337h-.025s0-.045-.047-.07a.73.73 0 0 0-.165-.223.365.365 0 0 0-.092-.115v-.044a2.634 2.634 0 0 1-.371-.646.264.264 0 0 1 0-.223v-.025l-.067-.179a5.591 5.591 0 0 0 2.509-3.043l.185.025v-.025a.274.274 0 0 1 .186-.064c.253.043.502.11.742.198.041.026.09.042.139.045.081.046.168.085.257.114h.093c.046 0 .026 0 .046.025.04.01.08.01.119 0a.515.515 0 0 0 .464-.313.538.538 0 0 0-.418-.466l.14.084zm-6.697-.695l-.629.288-.623-.288-.165-.65.443-.536h.695l.443.536-.164.65zm3.786-1.454a4.2 4.2 0 0 1 .093 1.41l-2.205-.606a.377.377 0 0 1-.252-.166.351.351 0 0 1-.042-.291.33.33 0 0 1 .093-.159l1.742-1.519c.255.413.443.862.556 1.33h.015zm-1.272-2.135l-1.901 1.3c-.17.1-.391.061-.515-.089a.205.205 0 0 1-.073-.159l-.139-2.258c.994.1 1.922.525 2.628 1.206zm-4.2-1.142l.465-.09-.119 2.225a.38.38 0 0 1-.391.357.483.483 0 0 1-.186-.045l-1.932-1.305a4.688 4.688 0 0 1 2.164-1.157v.015zm-2.833 1.986l1.716 1.49a.348.348 0 0 1 .046.496.264.264 0 0 1-.185.114l-2.252.625a4.598 4.598 0 0 1 .675-2.755v.03zm-.396 3.783l2.297-.383a.384.384 0 0 1 .397.293.269.269 0 0 1 0 .224l-.88 2.055a4.404 4.404 0 0 1-1.814-2.22v.03zm5.265 2.74a4.697 4.697 0 0 1-1 .114 5.443 5.443 0 0 1-1.463-.223l1.139-1.986a.37.37 0 0 1 .464-.09c.068.046.132.097.19.155l1.113 1.946c-.134.02-.273.04-.443.084zm2.834-1.946a4.363 4.363 0 0 1-1.391 1.345l-.907-2.105a.363.363 0 0 1 .206-.427.803.803 0 0 1 .211-.044l2.324.382a3.353 3.353 0 0 1-.438.849h-.005z"/>
            <path fill="#464769" d="M143.314 177.844v-.985a.204.204 0 0 0-.119-.19.184.184 0 0 0-.21.045l-1.857 1.97a.43.43 0 0 0-.117.298.43.43 0 0 0 .117.297l1.857 1.971a.184.184 0 0 0 .21.045.204.204 0 0 0 .119-.19v-1.119c1.488.007 2.89.745 3.795 1.998-.153-2.174-1.752-3.918-3.795-4.14z"/>
        </g>
        <g transform="translate(277.568 220.092)">
            <path fill="#464769" d="M7.158 4.952l.845-.86-.853-.868.317-1.2-1.135-.294L6.043.547 4.91.881 4.086 0l-.831.89L2.106.56l-.28 1.185-1.132.301.32 1.185-.846.86.853.868-.316 1.198 1.134.294.289 1.184L3.262 7.3l.823.883.83-.89 1.148.33.281-1.185 1.134-.302z"/>
            <ellipse cx="4.146" cy="4.155" fill="#C0C0DD" rx="2.607" ry="2.723"/>
            <ellipse cx="4.143" cy="4.152" fill="#464769" rx="2.261" ry="2.362"/>
        </g>
        <path fill="#464769" fill-rule="nonzero" d="M185.855 211.859c-1.589.003-2.876 1.316-2.879 2.936 0 1.62 2.378 5.297 2.879 5.297.5 0 2.879-3.678 2.879-5.297 0-1.622-1.29-2.936-2.88-2.936zm.064 4.083a.995.995 0 0 1-.924-.624 1.03 1.03 0 0 1 .215-1.11.981.981 0 0 1 1.088-.218c.372.158.614.53.612.942a1 1 0 0 1-.99 1.01z"/>
        <path fill-rule="nonzero" stroke="url(#b)" d="M19 79v15.746a5 5 0 0 0 5 5h237a5 5 0 0 1 5 5V200" transform="translate(16)"/>
        <path fill="#F2F3F9" d="M27.495 61.571v.89c0 1.649-.512 2.984-1.535 4.006C24.937 67.489 23.615 68 21.995 68c-1.726 0-3.157-.58-4.292-1.739C16.568 65.101 16 63.687 16 62.016c0-1.68.562-3.104 1.687-4.269C18.81 56.582 20.205 56 21.867 56c1.045 0 1.999.245 2.862.734a5.343 5.343 0 0 1 2.015 1.953l-1.887 1.12c-.266-.472-.669-.856-1.207-1.153a3.663 3.663 0 0 0-1.799-.445c-1.065 0-1.942.36-2.63 1.08-.687.72-1.03 1.629-1.03 2.727 0 1.088.348 1.987 1.046 2.696.699.708 1.623 1.063 2.774 1.063.853 0 1.56-.195 2.119-.585.56-.39.94-.926 1.143-1.608h-3.39v-2.01h5.612zm5.272 4.022h4.716v2.176h-6.922V56.231h6.842v2.176h-4.636v2.456h4.237v2.142h-4.237v2.588zm15.168-9.362v2.176h-3.022v9.362h-2.206v-9.362h-3.006V56.23h8.234zm14.908 2.176h-4.476v2.736h4.349v2.176h-4.35v4.45h-2.205V56.231h6.682v2.176zm12.53 7.862C74.244 67.423 72.87 68 71.25 68c-1.62 0-2.992-.58-4.117-1.739-1.124-1.16-1.687-2.58-1.687-4.261s.563-3.102 1.687-4.261C68.257 56.579 69.63 56 71.25 56s2.995.58 4.125 1.739c1.13 1.16 1.694 2.58 1.694 4.261s-.565 3.104-1.694 4.27zm-6.698-1.55c.693.704 1.55 1.056 2.574 1.056 1.023 0 1.881-.355 2.574-1.063.693-.71 1.039-1.613 1.039-2.712 0-1.099-.346-2.005-1.04-2.72-.692-.714-1.55-1.071-2.573-1.071s-1.881.357-2.574 1.071c-.693.715-1.04 1.621-1.04 2.72 0 1.099.347 2.005 1.04 2.72zm17.582 3.05l-2.254-4.005h-1.679v4.005h-2.206V56.231h4.476c1.034 0 1.914.373 2.638 1.12.725.748 1.088 1.649 1.088 2.704 0 .714-.198 1.376-.592 1.986a3.736 3.736 0 0 1-1.567 1.377l2.478 4.351h-2.382zm-3.933-9.412v3.412h2.27c.416 0 .773-.167 1.072-.503.298-.335.447-.739.447-1.211 0-.473-.149-.874-.447-1.203-.299-.33-.656-.495-1.072-.495h-2.27zm11.315 7.236h4.717v2.176h-6.923V56.231h6.843v2.176h-4.637v2.456h4.237v2.142h-4.237v2.588zM106.633 68c-1.684 0-3.075-.577-4.173-1.73-1.097-1.155-1.646-2.578-1.646-4.27 0-1.703.549-3.13 1.646-4.277 1.098-1.149 2.49-1.723 4.173-1.723a5.57 5.57 0 0 1 2.806.734 5.283 5.283 0 0 1 2.006 1.986l-1.902 1.137a3 3 0 0 0-1.183-1.211 3.428 3.428 0 0 0-1.727-.437c-1.087 0-1.964.351-2.63 1.055-.666.703-.999 1.615-.999 2.736 0 1.11.333 2.016 1 2.72.665.703 1.542 1.055 2.63 1.055.639 0 1.217-.146 1.734-.437.517-.291.908-.69 1.175-1.195l1.902 1.137a5.3 5.3 0 0 1-1.998 1.986 5.556 5.556 0 0 1-2.814.734zm14.817-.23l-.672-2.078h-4.46l-.672 2.077h-2.382l3.917-11.538h2.734l3.933 11.538h-2.398zm-4.429-4.204h3.07l-1.535-4.714-1.535 4.714zM130 68c-1.109 0-2.041-.255-2.798-.766a4.081 4.081 0 0 1-1.599-2.086l1.887-1.137c.437 1.176 1.295 1.764 2.574 1.764.618 0 1.071-.116 1.359-.346.288-.231.431-.522.431-.874 0-.407-.175-.723-.527-.948-.352-.225-.98-.47-1.887-.733a11.49 11.49 0 0 1-1.27-.462 5.442 5.442 0 0 1-1.04-.618 2.505 2.505 0 0 1-.791-.98c-.181-.396-.272-.858-.272-1.385 0-1.044.36-1.877 1.08-2.498.719-.62 1.585-.931 2.597-.931.906 0 1.703.228 2.39.684.688.456 1.223 1.09 1.607 1.904l-1.855 1.104c-.447-.989-1.161-1.483-2.142-1.483-.458 0-.818.107-1.079.321a1.027 1.027 0 0 0-.392.833c0 .362.147.656.44.882.293.225.855.47 1.687.733.34.11.6.195.775.256.176.06.416.153.72.28.303.126.538.244.703.354.165.11.354.258.567.445.214.187.376.38.488.577.112.198.208.437.288.717.08.28.12.585.12.915 0 1.066-.376 1.912-1.127 2.538-.752.627-1.73.94-2.934.94zM144 56.23v2.177h-3.022v9.362h-2.206v-9.362h-3.006V56.23H144z"/>
        <rect width="40" height="40" fill="#464769" fill-rule="nonzero" rx="14.4" transform="translate(16)"/>
        <g transform="translate(25 9)">
            <path fill="#E6E6E6" d="M19.502 13.228l2.357-2.298-2.378-2.318.882-3.205-3.165-.785-.806-3.16-3.166.892L10.93 0 8.612 2.378l-3.205-.882-.782 3.165-3.16.806.892 3.164L0 10.931l2.378 2.316-.882 3.202 3.165.785.806 3.161 3.164-.893 2.298 2.357 2.316-2.378 3.202.882.785-3.165 3.162-.806z"/>
            <circle cx="11.063" cy="10.749" r="7.606" fill="#2D2E3D"/>
            <circle cx="10.998" cy="10.683" r="6.598" fill="#E6E6E6"/>
        </g>
        <path fill="#F2F3F9" d="M192.386 68c-1.106 0-2.036-.255-2.79-.766A4.08 4.08 0 0 1 188 65.148l1.882-1.137c.436 1.176 1.292 1.764 2.568 1.764.617 0 1.069-.116 1.356-.346.287-.231.43-.522.43-.874 0-.407-.175-.723-.526-.948-.35-.225-.978-.47-1.882-.733-.5-.154-.922-.308-1.268-.462a5.427 5.427 0 0 1-1.037-.618 2.503 2.503 0 0 1-.79-.98c-.18-.396-.27-.858-.27-1.385 0-1.044.358-1.877 1.076-2.498.718-.62 1.582-.931 2.592-.931.904 0 1.699.228 2.385.684.686.456 1.22 1.09 1.603 1.904l-1.85 1.104c-.447-.989-1.16-1.483-2.138-1.483-.457 0-.816.107-1.076.321-.261.215-.391.492-.391.833 0 .362.146.656.438.882.293.225.854.47 1.683.733.34.11.598.195.774.256.175.06.414.153.718.28.303.126.537.244.701.354.165.11.354.258.567.445.212.187.374.38.486.577.112.198.207.437.287.717.08.28.12.585.12.915 0 1.066-.375 1.912-1.125 2.538-.75.627-1.725.94-2.927.94zm9.104-2.407h4.706v2.176h-6.907V56.231h6.827v2.176h-4.626v2.456h4.227v2.142h-4.227v2.588zm14.208-9.362h2.201v11.538h-1.674l-4.786-7.055v7.055h-2.2V56.231h1.674l4.785 7.038v-7.038zm10.205 0c1.53 0 2.81.555 3.836 1.665 1.026 1.11 1.539 2.478 1.539 4.104s-.513 2.994-1.54 4.104c-1.025 1.11-2.304 1.665-3.835 1.665h-4.435V56.231h4.435zm0 9.362c.967 0 1.754-.332 2.36-.997.606-.665.91-1.53.91-2.596s-.304-1.931-.91-2.596c-.606-.665-1.393-.997-2.36-.997h-2.234v7.186h2.234zm20.041 2.176l-2.249-4.005h-1.674v4.005h-2.202V56.231h4.467c1.031 0 1.908.373 2.631 1.12.724.748 1.085 1.649 1.085 2.704 0 .714-.197 1.376-.59 1.986a3.73 3.73 0 0 1-1.563 1.377l2.472 4.351h-2.377zm-3.923-9.412v3.412h2.265c.414 0 .77-.167 1.068-.503.298-.335.447-.739.447-1.211 0-.473-.149-.874-.447-1.203-.297-.33-.654-.495-1.068-.495h-2.265zm11.289 7.236h4.705v2.176h-6.907V56.231h6.827v2.176h-4.625v2.456h4.227v2.142h-4.227v2.588zm11.91-9.362c1.075 0 1.979.373 2.712 1.12.734.748 1.101 1.665 1.101 2.753s-.367 2.006-1.1 2.753c-.734.747-1.638 1.121-2.712 1.121h-1.962v3.791h-2.201V56.231h4.163zm0 5.62c.469 0 .857-.167 1.165-.502.309-.335.463-.75.463-1.245 0-.505-.154-.923-.463-1.252a1.527 1.527 0 0 0-1.164-.495h-1.962v3.495h1.962zm8.945 3.742h4.259v2.176h-6.46V56.231h2.201v9.362zM290 56.231l-3.828 7.038v4.5h-2.185v-4.5l-3.813-7.038h2.489l2.424 4.813 2.425-4.813H290z"/>
        <g>
            <g transform="translate(188)">
                <rect width="40" height="40" fill="#464769" fill-rule="nonzero" rx="14.4"/>
                <path fill="#E6E6E6" d="M18.272 16.06v-2.276a.9.9 0 0 0-1.548-.625l-5.454 5.653a.9.9 0 0 0 0 1.25l5.454 5.653a.9.9 0 0 0 1.548-.625v-2.388c5.432 0 9.234 1.802 11.95 5.742-1.086-5.63-4.345-11.259-11.95-12.385z"/>
            </g>
        </g>
        <path fill-rule="nonzero" stroke="url(#b)" d="M191 82v194a5 5 0 0 1-5 5h-10" transform="translate(16)"/>
    </g>
</svg>
