<svg xmlns="http://www.w3.org/2000/svg" width="262" height="306" viewBox="0 0 262 306">
    <g fill="none" fill-rule="evenodd">
        <g fill-rule="nonzero" transform="rotate(90 1 17.5)">
            <path stroke="#C6C7DC" stroke-dasharray="4,6" stroke-linecap="round" d="M.77 12.734h269.903"/>
            <circle cx="270.462" cy="12.5" r="5" fill="#5805FC" stroke="#5805FC" stroke-width="2"/>
            <circle cx="1.538" cy="12.5" r="5" fill="#F2F3F9" stroke="#5805FC" stroke-width="2"/>
            <circle cx="90.769" cy="12.5" r="5" fill="#AFA3C8" stroke="#5805FC" stroke-width="2"/>
            <circle cx="180" cy="12.5" r="5" fill="#8367BB" stroke="#5805FC" stroke-width="2"/>
        </g>
        <path fill="#F2F3F9" d="M106.352 26.224c-1.685 0-3.077-.56-4.176-1.68-1.099-1.12-1.648-2.501-1.648-4.144 0-1.653.55-3.037 1.648-4.152 1.099-1.115 2.49-1.672 4.176-1.672 1.013 0 1.95.237 2.808.712a5.213 5.213 0 0 1 2.008 1.928l-1.904 1.104a2.956 2.956 0 0 0-1.184-1.176 3.515 3.515 0 0 0-1.728-.424c-1.088 0-1.965.341-2.632 1.024s-1 1.568-1 2.656c0 1.077.333 1.957 1 2.64s1.544 1.024 2.632 1.024a3.56 3.56 0 0 0 1.736-.424c.517-.283.91-.67 1.176-1.16l1.904 1.104a5.228 5.228 0 0 1-2 1.928 5.695 5.695 0 0 1-2.816.712zm13.82-.224l-2.256-3.888h-1.68V26h-2.208V14.8h4.48c1.035 0 1.915.363 2.64 1.088a3.576 3.576 0 0 1 1.088 2.624c0 .693-.197 1.336-.592 1.928a3.706 3.706 0 0 1-1.568 1.336l2.48 4.224h-2.384zm-3.936-9.136v3.312h2.272c.416 0 .773-.163 1.072-.488.299-.325.448-.717.448-1.176 0-.459-.15-.848-.448-1.168a1.416 1.416 0 0 0-1.072-.48h-2.272zm11.324 7.024h4.72V26h-6.928V14.8h6.848v2.112h-4.64v2.384h4.24v2.08h-4.24v2.512zM142.708 26l-.672-2.016h-4.464L136.9 26h-2.384l3.92-11.2h2.736l3.936 11.2h-2.4zm-4.432-4.08h3.072l-1.536-4.576-1.536 4.576zm16.012-7.12v2.112h-3.024V26h-2.208v-9.088h-3.008V14.8h8.24zm4.94 9.088h4.72V26h-6.928V14.8h6.848v2.112h-4.64v2.384h4.24v2.08h-4.24v2.512zm17.096 2.336c-1.11 0-2.043-.248-2.8-.744a3.98 3.98 0 0 1-1.6-2.024l1.888-1.104c.437 1.141 1.296 1.712 2.576 1.712.619 0 1.072-.112 1.36-.336.288-.224.432-.507.432-.848 0-.395-.176-.701-.528-.92-.352-.219-.981-.456-1.888-.712a11.73 11.73 0 0 1-1.272-.448 5.486 5.486 0 0 1-1.04-.6 2.447 2.447 0 0 1-.792-.952c-.181-.384-.272-.832-.272-1.344 0-1.013.36-1.821 1.08-2.424.72-.603 1.587-.904 2.6-.904.907 0 1.704.221 2.392.664.688.443 1.224 1.059 1.608 1.848l-1.856 1.072c-.448-.96-1.163-1.44-2.144-1.44-.459 0-.819.104-1.08.312a.985.985 0 0 0-.392.808c0 .352.147.637.44.856.293.219.856.456 1.688.712.341.107.6.19.776.248.176.059.416.15.72.272.304.123.539.237.704.344.165.107.355.25.568.432.213.181.376.368.488.56.112.192.208.424.288.696.08.272.12.568.12.888 0 1.035-.376 1.856-1.128 2.464-.752.608-1.73.912-2.936.912zm9.132-2.336h4.272V26h-6.48V14.8h2.208v9.088zM199.996 26l-.672-2.016h-4.464L194.188 26h-2.384l3.92-11.2h2.736l3.936 11.2h-2.4zm-4.432-4.08h3.072l-1.536-4.576-1.536 4.576zm14.332 4.304c-1.685 0-3.077-.56-4.176-1.68-1.099-1.12-1.648-2.501-1.648-4.144 0-1.653.55-3.037 1.648-4.152 1.099-1.115 2.49-1.672 4.176-1.672 1.013 0 1.95.237 2.808.712a5.213 5.213 0 0 1 2.008 1.928l-1.904 1.104a2.956 2.956 0 0 0-1.184-1.176 3.515 3.515 0 0 0-1.728-.424c-1.088 0-1.965.341-2.632 1.024s-1 1.568-1 2.656c0 1.077.333 1.957 1 2.64s1.544 1.024 2.632 1.024a3.56 3.56 0 0 0 1.736-.424c.517-.283.91-.67 1.176-1.16l1.904 1.104a5.228 5.228 0 0 1-2 1.928 5.695 5.695 0 0 1-2.816.712zM226.324 26h-2.544l-4-5.248V26h-2.208V14.8h2.208v4.944l3.84-4.944h2.544l-4.144 5.44 4.304 5.76zm9.356-5.808c.981.565 1.472 1.419 1.472 2.56 0 .95-.336 1.728-1.008 2.336-.672.608-1.499.912-2.48.912h-4.752V14.8h4.416c.96 0 1.768.296 2.424.888.656.592.984 1.347.984 2.264 0 .928-.352 1.675-1.056 2.24zm-2.352-3.328h-2.208v2.464h2.208c.341 0 .627-.117.856-.352.23-.235.344-.528.344-.88s-.112-.645-.336-.88c-.224-.235-.512-.352-.864-.352zm.336 7.072c.373 0 .683-.125.928-.376.245-.25.368-.568.368-.952 0-.373-.123-.685-.368-.936a1.244 1.244 0 0 0-.928-.376h-2.544v2.64h2.544zm15.852.608c-1.13 1.12-2.507 1.68-4.128 1.68s-2.995-.563-4.12-1.688-1.688-2.504-1.688-4.136c0-1.632.563-3.01 1.688-4.136 1.125-1.125 2.499-1.688 4.12-1.688s2.997.563 4.128 1.688c1.13 1.125 1.696 2.504 1.696 4.136 0 1.632-.565 3.013-1.696 4.144zm-6.704-1.504c.693.683 1.552 1.024 2.576 1.024s1.883-.344 2.576-1.032c.693-.688 1.04-1.565 1.04-2.632 0-1.067-.347-1.947-1.04-2.64-.693-.693-1.552-1.04-2.576-1.04s-1.883.347-2.576 1.04c-.693.693-1.04 1.573-1.04 2.64 0 1.067.347 1.947 1.04 2.64zm18.86-8.24v2.112h-3.024V26h-2.208v-9.088h-3.008V14.8h8.24zM112.032 108.984v.864c0 1.6-.512 2.896-1.536 3.888s-2.347 1.488-3.968 1.488c-1.728 0-3.16-.563-4.296-1.688-1.136-1.125-1.704-2.499-1.704-4.12 0-1.632.563-3.013 1.688-4.144 1.125-1.13 2.52-1.696 4.184-1.696 1.045 0 2 .237 2.864.712.864.475 1.536 1.107 2.016 1.896l-1.888 1.088c-.267-.459-.67-.832-1.208-1.12a3.757 3.757 0 0 0-1.8-.432c-1.067 0-1.944.35-2.632 1.048-.688.699-1.032 1.581-1.032 2.648 0 1.056.35 1.928 1.048 2.616.699.688 1.624 1.032 2.776 1.032.853 0 1.56-.19 2.12-.568.56-.379.941-.899 1.144-1.56h-3.392v-1.952h5.616zm5.276 3.904h4.72V115H115.1v-11.2h6.848v2.112h-4.64v2.384h4.24v2.08h-4.24v2.512zm15.18-9.088v2.112h-3.024V115h-2.208v-9.088h-3.008V103.8h8.24zm10.44 9.088h4.272V115h-6.48v-11.2h2.208v9.088zm15.756.656c-1.13 1.12-2.507 1.68-4.128 1.68s-2.995-.563-4.12-1.688-1.688-2.504-1.688-4.136c0-1.632.563-3.01 1.688-4.136 1.125-1.125 2.499-1.688 4.12-1.688s2.997.563 4.128 1.688c1.13 1.125 1.696 2.504 1.696 4.136 0 1.632-.565 3.013-1.696 4.144zm-6.704-1.504c.693.683 1.552 1.024 2.576 1.024s1.883-.344 2.576-1.032c.693-.688 1.04-1.565 1.04-2.632 0-1.067-.347-1.947-1.04-2.64-.693-.693-1.552-1.04-2.576-1.04s-1.883.347-2.576 1.04c-.693.693-1.04 1.573-1.04 2.64 0 1.067.347 1.947 1.04 2.64zm16.764 3.184c-1.685 0-3.077-.56-4.176-1.68-1.099-1.12-1.648-2.501-1.648-4.144 0-1.653.55-3.037 1.648-4.152 1.099-1.115 2.49-1.672 4.176-1.672 1.013 0 1.95.237 2.808.712a5.213 5.213 0 0 1 2.008 1.928l-1.904 1.104a2.956 2.956 0 0 0-1.184-1.176 3.515 3.515 0 0 0-1.728-.424c-1.088 0-1.965.341-2.632 1.024s-1 1.568-1 2.656c0 1.077.333 1.957 1 2.64s1.544 1.024 2.632 1.024a3.56 3.56 0 0 0 1.736-.424c.517-.283.91-.67 1.176-1.16l1.904 1.104a5.228 5.228 0 0 1-2 1.928 5.695 5.695 0 0 1-2.816.712zm14.828-.224l-.672-2.016h-4.464l-.672 2.016h-2.384l3.92-11.2h2.736l3.936 11.2h-2.4zm-4.432-4.08h3.072l-1.536-4.576-1.536 4.576zm16.012-7.12v2.112h-3.024V115h-2.208v-9.088h-3.008V103.8h8.24zm2.732 0h2.208V115h-2.208v-11.2zm15.212 9.744c-1.13 1.12-2.507 1.68-4.128 1.68s-2.995-.563-4.12-1.688-1.688-2.504-1.688-4.136c0-1.632.563-3.01 1.688-4.136 1.125-1.125 2.499-1.688 4.12-1.688s2.997.563 4.128 1.688c1.13 1.125 1.696 2.504 1.696 4.136 0 1.632-.565 3.013-1.696 4.144zm-6.704-1.504c.693.683 1.552 1.024 2.576 1.024s1.883-.344 2.576-1.032c.693-.688 1.04-1.565 1.04-2.632 0-1.067-.347-1.947-1.04-2.64-.693-.693-1.552-1.04-2.576-1.04s-1.883.347-2.576 1.04c-.693.693-1.04 1.573-1.04 2.64 0 1.067.347 1.947 1.04 2.64zm17.932-8.24h2.208V115h-1.68l-4.8-6.848V115h-2.208v-11.2h1.68l4.8 6.832V103.8zM104.864 292.224c-1.11 0-2.043-.248-2.8-.744a3.98 3.98 0 0 1-1.6-2.024l1.888-1.104c.437 1.141 1.296 1.712 2.576 1.712.619 0 1.072-.112 1.36-.336.288-.224.432-.507.432-.848 0-.395-.176-.701-.528-.92-.352-.219-.981-.456-1.888-.712a11.73 11.73 0 0 1-1.272-.448 5.486 5.486 0 0 1-1.04-.6 2.447 2.447 0 0 1-.792-.952c-.181-.384-.272-.832-.272-1.344 0-1.013.36-1.821 1.08-2.424.72-.603 1.587-.904 2.6-.904.907 0 1.704.221 2.392.664.688.443 1.224 1.059 1.608 1.848l-1.856 1.072c-.448-.96-1.163-1.44-2.144-1.44-.459 0-.819.104-1.08.312a.985.985 0 0 0-.392.808c0 .352.147.637.44.856.293.219.856.456 1.688.712.341.107.6.19.776.248.176.059.416.15.72.272.304.123.539.237.704.344.165.107.355.25.568.432.213.181.376.368.488.56.112.192.208.424.288.696.08.272.12.568.12.888 0 1.035-.376 1.856-1.128 2.464-.752.608-1.73.912-2.936.912zm9.132-2.336h4.72V292h-6.928v-11.2h6.848v2.112h-4.64v2.384h4.24v2.08h-4.24v2.512zm14.252-9.088h2.208V292h-1.68l-4.8-6.848V292h-2.208v-11.2h1.68l4.8 6.832V280.8zm10.236 0c1.536 0 2.819.539 3.848 1.616 1.03 1.077 1.544 2.405 1.544 3.984 0 1.579-.515 2.907-1.544 3.984-1.03 1.077-2.312 1.616-3.848 1.616h-4.448v-11.2h4.448zm0 9.088c.97 0 1.76-.323 2.368-.968.608-.645.912-1.485.912-2.52s-.304-1.875-.912-2.52c-.608-.645-1.397-.968-2.368-.968h-2.24v6.976h2.24zM158.588 292l-2.256-3.888h-1.68V292h-2.208v-11.2h4.48c1.035 0 1.915.363 2.64 1.088a3.576 3.576 0 0 1 1.088 2.624c0 .693-.197 1.336-.592 1.928a3.706 3.706 0 0 1-1.568 1.336l2.48 4.224h-2.384zm-3.936-9.136v3.312h2.272c.416 0 .773-.163 1.072-.488.299-.325.448-.717.448-1.176 0-.459-.15-.848-.448-1.168a1.416 1.416 0 0 0-1.072-.48h-2.272zm11.324 7.024h4.72V292h-6.928v-11.2h6.848v2.112h-4.64v2.384h4.24v2.08h-4.24v2.512zm11.948-9.088c1.077 0 1.984.363 2.72 1.088.736.725 1.104 1.616 1.104 2.672s-.368 1.947-1.104 2.672c-.736.725-1.643 1.088-2.72 1.088h-1.968V292h-2.208v-11.2h4.176zm0 5.456c.47 0 .859-.163 1.168-.488.31-.325.464-.728.464-1.208 0-.49-.155-.896-.464-1.216-.31-.32-.699-.48-1.168-.48h-1.968v3.392h1.968zm8.972 3.632h4.272V292h-6.48v-11.2h2.208v9.088zm15.884-9.088l-3.84 6.832V292h-2.192v-4.368l-3.824-6.832h2.496l2.432 4.672 2.432-4.672h2.496z"/>
        <rect width="40" height="40" fill="#464769" fill-rule="nonzero" rx="14.4" transform="translate(36)"/>
        <g fill="#E6E6E6">
            <path d="M54.188 19.02l2.595-.857.93 2.57-2.645.862z"/>
            <path fill-rule="nonzero" d="M65.165 17.248C63.1 10.38 60.12 8.774 53.25 10.838c-6.87 2.066-8.475 5.038-6.416 11.913 2.059 6.875 5.044 8.474 11.914 6.41 6.87-2.066 8.475-5.005 6.416-11.913zm-3.477 4.46l-1.295.434.447 1.347a1.036 1.036 0 0 1-.648 1.295.971.971 0 0 1-.356.052 1.03 1.03 0 0 1-.958-.706l-.447-1.34-2.674.893.453 1.34a1.036 1.036 0 0 1-.647 1.295.971.971 0 0 1-.356.052 1.023 1.023 0 0 1-.958-.706l-.447-1.34-1.295.434a.99.99 0 0 1-.356.052 1.023 1.023 0 0 1-.958-.706 1.036 1.036 0 0 1 .647-1.295l1.295-.434-.861-2.59-1.295.435a.971.971 0 0 1-.356.051 1.023 1.023 0 0 1-.958-.705 1.042 1.042 0 0 1 .647-1.295l1.295-.434-.447-1.34a1.036 1.036 0 0 1 1.943-.647l.446 1.34 2.674-.9-.453-1.34a1.036 1.036 0 0 1 1.943-.648l.446 1.34 1.295-.433a1.036 1.036 0 1 1 .648 1.942l-1.295.434.86 2.59 1.296-.434a1.036 1.036 0 1 1 .647 1.942l.078.026z"/>
        </g>
        <g fill-rule="nonzero" transform="translate(36 89)">
            <rect width="40" height="40" fill="#464769" rx="14.4"/>
            <path fill="#E6E6E6" d="M20 9.778c-4.172 0-7.556 3.344-7.556 7.466 0 5.6 7.556 13.867 7.556 13.867s7.556-8.267 7.556-13.867c0-4.122-3.384-7.466-7.556-7.466zm0 10.133c-1.49 0-2.698-1.195-2.698-2.667 0-1.472 1.208-2.666 2.698-2.666s2.698 1.194 2.698 2.666S21.49 19.911 20 19.911z"/>
        </g>
        <path fill="#F2F3F9" d="M112.032 196.984v.864c0 1.6-.512 2.896-1.536 3.888s-2.347 1.488-3.968 1.488c-1.728 0-3.16-.563-4.296-1.688-1.136-1.125-1.704-2.499-1.704-4.12 0-1.632.563-3.013 1.688-4.144 1.125-1.13 2.52-1.696 4.184-1.696 1.045 0 2 .237 2.864.712.864.475 1.536 1.107 2.016 1.896l-1.888 1.088c-.267-.459-.67-.832-1.208-1.12a3.757 3.757 0 0 0-1.8-.432c-1.067 0-1.944.35-2.632 1.048-.688.699-1.032 1.581-1.032 2.648 0 1.056.35 1.928 1.048 2.616.699.688 1.624 1.032 2.776 1.032.853 0 1.56-.19 2.12-.568.56-.379.941-.899 1.144-1.56h-3.392v-1.952h5.616zm5.276 3.904h4.72V203H115.1v-11.2h6.848v2.112h-4.64v2.384h4.24v2.08h-4.24v2.512zm15.18-9.088v2.112h-3.024V203h-2.208v-9.088h-3.008V191.8h8.24zm14.92 2.112h-4.48v2.656h4.352v2.112h-4.352V203h-2.208v-11.2h6.688v2.112zm12.54 7.632c-1.13 1.12-2.507 1.68-4.128 1.68s-2.995-.563-4.12-1.688-1.688-2.504-1.688-4.136c0-1.632.563-3.01 1.688-4.136 1.125-1.125 2.499-1.688 4.12-1.688s2.997.563 4.128 1.688c1.13 1.125 1.696 2.504 1.696 4.136 0 1.632-.565 3.013-1.696 4.144zm-6.704-1.504c.693.683 1.552 1.024 2.576 1.024s1.883-.344 2.576-1.032c.693-.688 1.04-1.565 1.04-2.632 0-1.067-.347-1.947-1.04-2.64-.693-.693-1.552-1.04-2.576-1.04s-1.883.347-2.576 1.04c-.693.693-1.04 1.573-1.04 2.64 0 1.067.347 1.947 1.04 2.64zM170.84 203l-2.256-3.888h-1.68V203h-2.208v-11.2h4.48c1.035 0 1.915.363 2.64 1.088a3.576 3.576 0 0 1 1.088 2.624c0 .693-.197 1.336-.592 1.928a3.706 3.706 0 0 1-1.568 1.336l2.48 4.224h-2.384zm-3.936-9.136v3.312h2.272c.416 0 .773-.163 1.072-.488.299-.325.448-.717.448-1.176 0-.459-.15-.848-.448-1.168a1.416 1.416 0 0 0-1.072-.48h-2.272zm11.324 7.024h4.72V203h-6.928v-11.2h6.848v2.112h-4.64v2.384h4.24v2.08h-4.24v2.512zm13.004 2.336c-1.685 0-3.077-.56-4.176-1.68-1.099-1.12-1.648-2.501-1.648-4.144 0-1.653.55-3.037 1.648-4.152 1.099-1.115 2.49-1.672 4.176-1.672 1.013 0 1.95.237 2.808.712a5.213 5.213 0 0 1 2.008 1.928l-1.904 1.104a2.956 2.956 0 0 0-1.184-1.176 3.515 3.515 0 0 0-1.728-.424c-1.088 0-1.965.341-2.632 1.024s-1 1.568-1 2.656c0 1.077.333 1.957 1 2.64s1.544 1.024 2.632 1.024a3.56 3.56 0 0 0 1.736-.424c.517-.283.91-.67 1.176-1.16l1.904 1.104a5.228 5.228 0 0 1-2 1.928 5.695 5.695 0 0 1-2.816.712zM206.06 203l-.672-2.016h-4.464l-.672 2.016h-2.384l3.92-11.2h2.736l3.936 11.2h-2.4zm-4.432-4.08h3.072l-1.536-4.576-1.536 4.576zm12.988 4.304c-1.11 0-2.043-.248-2.8-.744a3.98 3.98 0 0 1-1.6-2.024l1.888-1.104c.437 1.141 1.296 1.712 2.576 1.712.619 0 1.072-.112 1.36-.336.288-.224.432-.507.432-.848 0-.395-.176-.701-.528-.92-.352-.219-.981-.456-1.888-.712a11.73 11.73 0 0 1-1.272-.448 5.486 5.486 0 0 1-1.04-.6 2.447 2.447 0 0 1-.792-.952c-.181-.384-.272-.832-.272-1.344 0-1.013.36-1.821 1.08-2.424.72-.603 1.587-.904 2.6-.904.907 0 1.704.221 2.392.664.688.443 1.224 1.059 1.608 1.848l-1.856 1.072c-.448-.96-1.163-1.44-2.144-1.44-.459 0-.819.104-1.08.312a.985.985 0 0 0-.392.808c0 .352.147.637.44.856.293.219.856.456 1.688.712.341.107.6.19.776.248.176.059.416.15.72.272.304.123.539.237.704.344.165.107.355.25.568.432.213.181.376.368.488.56.112.192.208.424.288.696.08.272.12.568.12.888 0 1.035-.376 1.856-1.128 2.464-.752.608-1.73.912-2.936.912zm14.012-11.424v2.112h-3.024V203h-2.208v-9.088h-3.008V191.8h8.24z"/>
        <rect width="40" height="40" fill="#464769" fill-rule="nonzero" rx="14.4" transform="translate(36 177)"/>
        <g transform="translate(45 186)">
            <path fill="#E6E6E6" d="M19.502 13.228l2.357-2.298-2.378-2.318.882-3.205-3.165-.785-.806-3.16-3.166.892L10.93 0 8.612 2.378l-3.205-.882-.782 3.165-3.16.806.892 3.164L0 10.931l2.378 2.316-.882 3.202 3.165.785.806 3.161 3.164-.893 2.298 2.357 2.316-2.378 3.202.882.785-3.165 3.162-.806z"/>
            <circle cx="11.063" cy="10.749" r="7.606" fill="#2D2E3D"/>
            <circle cx="10.998" cy="10.683" r="6.598" fill="#E6E6E6"/>
        </g>
        <g>
            <g transform="translate(36 266)">
                <rect width="40" height="40" fill="#464769" fill-rule="nonzero" rx="14.4"/>
                <path fill="#E6E6E6" d="M18.272 16.06v-2.276a.9.9 0 0 0-1.548-.625l-5.454 5.653a.9.9 0 0 0 0 1.25l5.454 5.653a.9.9 0 0 0 1.548-.625v-2.388c5.432 0 9.234 1.802 11.95 5.742-1.086-5.63-4.345-11.259-11.95-12.385z"/>
            </g>
        </g>
    </g>
</svg>
