<?xml version="1.0" encoding="UTF-8"?>
<svg width="605px" height="306px" viewBox="0 0 605 306" version="1.1" xmlns="http://www.w3.org/2000/svg" xmlns:xlink="http://www.w3.org/1999/xlink">
    <!-- Generator: Sketch 52 (66869) - http://www.bohemiancoding.com/sketch -->
    <title>molecules / illustration - meet storyscript</title>
    <desc>Created with Sketch.</desc>
    <g id="molecules-/-illustration---meet-storyscript" stroke="none" stroke-width="1" fill="none" fill-rule="evenodd">
        <g id="Group-6">
            <path d="M70.352,26.224 C68.6666582,26.224 67.2746722,25.6640056 66.176,24.544 C65.0773278,23.4239944 64.528,22.0426749 64.528,20.4 C64.528,18.7466584 65.0773278,17.3626722 66.176,16.248 C67.2746722,15.1333278 68.6666582,14.576 70.352,14.576 C71.3653384,14.576 72.301329,14.813331 73.16,15.288 C74.018671,15.762669 74.6879976,16.4053293 75.168,17.216 L73.264,18.32 C72.9866653,17.8186642 72.5920026,17.4266681 72.08,17.144 C71.5679974,16.8613319 70.9920032,16.72 70.352,16.72 C69.2639946,16.72 68.38667,17.0613299 67.72,17.744 C67.05333,18.4266701 66.72,19.3119946 66.72,20.4 C66.72,21.4773387 67.05333,22.3573299 67.72,23.04 C68.38667,23.7226701 69.2639946,24.064 70.352,24.064 C70.9920032,24.064 71.5706641,23.9226681 72.088,23.64 C72.6053359,23.3573319 72.997332,22.9706691 73.264,22.48 L75.168,23.584 C74.6879976,24.3946707 74.0213376,25.037331 73.168,25.512 C72.3146624,25.986669 71.3760051,26.224 70.352,26.224 Z M84.172,26 L81.916,22.112 L80.236,22.112 L80.236,26 L78.028,26 L78.028,14.8 L82.508,14.8 C83.5426718,14.8 84.422663,15.162663 85.148,15.888 C85.873337,16.613337 86.236,17.4879949 86.236,18.512 C86.236,19.2053368 86.0386686,19.847997 85.644,20.44 C85.2493314,21.032003 84.7266699,21.4773318 84.076,21.776 L86.556,26 L84.172,26 Z M80.236,16.864 L80.236,20.176 L82.508,20.176 C82.9240021,20.176 83.2813318,20.013335 83.58,19.688 C83.8786682,19.362665 84.028,18.970669 84.028,18.512 C84.028,18.053331 83.8786682,17.6640016 83.58,17.344 C83.2813318,17.0239984 82.9240021,16.864 82.508,16.864 L80.236,16.864 Z M91.56,23.888 L96.28,23.888 L96.28,26 L89.352,26 L89.352,14.8 L96.2,14.8 L96.2,16.912 L91.56,16.912 L91.56,19.296 L95.8,19.296 L95.8,21.376 L91.56,21.376 L91.56,23.888 Z M106.708,26 L106.036,23.984 L101.572,23.984 L100.9,26 L98.516,26 L102.436,14.8 L105.172,14.8 L109.108,26 L106.708,26 Z M102.276,21.92 L105.348,21.92 L103.812,17.344 L102.276,21.92 Z M118.288,14.8 L118.288,16.912 L115.264,16.912 L115.264,26 L113.056,26 L113.056,16.912 L110.048,16.912 L110.048,14.8 L118.288,14.8 Z M123.228,23.888 L127.948,23.888 L127.948,26 L121.02,26 L121.02,14.8 L127.868,14.8 L127.868,16.912 L123.228,16.912 L123.228,19.296 L127.468,19.296 L127.468,21.376 L123.228,21.376 L123.228,23.888 Z M140.324,26.224 C139.214661,26.224 138.281337,25.9760025 137.524,25.48 C136.766663,24.9839975 136.233335,24.3093376 135.924,23.456 L137.812,22.352 C138.249336,23.493339 139.107994,24.064 140.388,24.064 C141.00667,24.064 141.459999,23.9520011 141.748,23.728 C142.036001,23.5039989 142.18,23.221335 142.18,22.88 C142.18,22.4853314 142.004002,22.1786678 141.652,21.96 C141.299998,21.7413322 140.670671,21.5040013 139.764,21.248 C139.262664,21.0986659 138.838668,20.9493341 138.492,20.8 C138.145332,20.6506659 137.798668,20.4506679 137.452,20.2 C137.105332,19.9493321 136.841334,19.6320019 136.66,19.248 C136.478666,18.8639981 136.388,18.4160026 136.388,17.904 C136.388,16.8906616 136.747996,16.0826697 137.468,15.48 C138.188004,14.8773303 139.054662,14.576 140.068,14.576 C140.974671,14.576 141.771997,14.7973311 142.46,15.24 C143.148003,15.6826689 143.683998,16.2986627 144.068,17.088 L142.212,18.16 C141.763998,17.1999952 141.049338,16.72 140.068,16.72 C139.609331,16.72 139.249335,16.823999 138.988,17.032 C138.726665,17.240001 138.596,17.5093317 138.596,17.84 C138.596,18.1920018 138.742665,18.4773322 139.036,18.696 C139.329335,18.9146678 139.891996,19.1519987 140.724,19.408 C141.065335,19.5146672 141.323999,19.597333 141.5,19.656 C141.676001,19.714667 141.915998,19.8053327 142.22,19.928 C142.524002,20.0506673 142.758666,20.1653328 142.924,20.272 C143.089334,20.3786672 143.278666,20.5226658 143.492,20.704 C143.705334,20.8853342 143.867999,21.071999 143.98,21.264 C144.092001,21.456001 144.188,21.6879986 144.268,21.96 C144.348,22.2320014 144.388,22.5279984 144.388,22.848 C144.388,23.8826718 144.012004,24.703997 143.26,25.312 C142.507996,25.920003 141.529339,26.224 140.324,26.224 Z M149.456,23.888 L153.728,23.888 L153.728,26 L147.248,26 L147.248,14.8 L149.456,14.8 L149.456,23.888 Z M163.996,26 L163.324,23.984 L158.86,23.984 L158.188,26 L155.804,26 L159.724,14.8 L162.46,14.8 L166.396,26 L163.996,26 Z M159.564,21.92 L162.636,21.92 L161.1,17.344 L159.564,21.92 Z M173.896,26.224 C172.210658,26.224 170.818672,25.6640056 169.72,24.544 C168.621328,23.4239944 168.072,22.0426749 168.072,20.4 C168.072,18.7466584 168.621328,17.3626722 169.72,16.248 C170.818672,15.1333278 172.210658,14.576 173.896,14.576 C174.909338,14.576 175.845329,14.813331 176.704,15.288 C177.562671,15.762669 178.231998,16.4053293 178.712,17.216 L176.808,18.32 C176.530665,17.8186642 176.136003,17.4266681 175.624,17.144 C175.111997,16.8613319 174.536003,16.72 173.896,16.72 C172.807995,16.72 171.93067,17.0613299 171.264,17.744 C170.59733,18.4266701 170.264,19.3119946 170.264,20.4 C170.264,21.4773387 170.59733,22.3573299 171.264,23.04 C171.93067,23.7226701 172.807995,24.064 173.896,24.064 C174.536003,24.064 175.114664,23.9226681 175.632,23.64 C176.149336,23.3573319 176.541332,22.9706691 176.808,22.48 L178.712,23.584 C178.231998,24.3946707 177.565338,25.037331 176.712,25.512 C175.858662,25.986669 174.920005,26.224 173.896,26.224 Z M190.324,26 L187.78,26 L183.78,20.752 L183.78,26 L181.572,26 L181.572,14.8 L183.78,14.8 L183.78,19.744 L187.62,14.8 L190.164,14.8 L186.02,20.24 L190.324,26 Z M199.68,20.192 C200.661338,20.7573362 201.152,21.610661 201.152,22.752 C201.152,23.7013381 200.816003,24.479997 200.144,25.088 C199.471997,25.696003 198.645338,26 197.664,26 L192.912,26 L192.912,14.8 L197.328,14.8 C198.288005,14.8 199.095997,15.095997 199.752,15.688 C200.408003,16.280003 200.736,17.0346621 200.736,17.952 C200.736,18.8800046 200.384004,19.6266638 199.68,20.192 Z M197.328,16.864 L195.12,16.864 L195.12,19.328 L197.328,19.328 C197.669335,19.328 197.954666,19.2106678 198.184,18.976 C198.413334,18.7413322 198.528,18.4480018 198.528,18.096 C198.528,17.7439982 198.416001,17.4506678 198.192,17.216 C197.967999,16.9813322 197.680002,16.864 197.328,16.864 Z M197.664,23.936 C198.037335,23.936 198.346665,23.8106679 198.592,23.56 C198.837335,23.3093321 198.96,22.9920019 198.96,22.608 C198.96,22.2346648 198.837335,21.9226679 198.592,21.672 C198.346665,21.4213321 198.037335,21.296 197.664,21.296 L195.12,21.296 L195.12,23.936 L197.664,23.936 Z M213.516,24.544 C212.385328,25.6640056 211.009341,26.224 209.388,26.224 C207.766659,26.224 206.393339,25.661339 205.268,24.536 C204.142661,23.410661 203.58,22.0320082 203.58,20.4 C203.58,18.7679918 204.142661,17.389339 205.268,16.264 C206.393339,15.138661 207.766659,14.576 209.388,14.576 C211.009341,14.576 212.385328,15.138661 213.516,16.264 C214.646672,17.389339 215.212,18.7679918 215.212,20.4 C215.212,22.0320082 214.646672,23.4133277 213.516,24.544 Z M206.812,23.04 C207.505337,23.7226701 208.363995,24.064 209.388,24.064 C210.412005,24.064 211.270663,23.7200034 211.964,23.032 C212.657337,22.3439966 213.004,21.466672 213.004,20.4 C213.004,19.333328 212.657337,18.4533368 211.964,17.76 C211.270663,17.0666632 210.412005,16.72 209.388,16.72 C208.363995,16.72 207.505337,17.0666632 206.812,17.76 C206.118663,18.4533368 205.772,19.333328 205.772,20.4 C205.772,21.466672 206.118663,22.3466632 206.812,23.04 Z M225.672,14.8 L225.672,16.912 L222.648,16.912 L222.648,26 L220.44,26 L220.44,16.912 L217.432,16.912 L217.432,14.8 L225.672,14.8 Z" id="CREATE-SLACKBOT" fill="#F2F3F9"></path>
            <path d="M76.032,108.984 L76.032,109.848 C76.032,111.448008 75.5200051,112.743995 74.496,113.736 C73.4719949,114.728005 72.1493414,115.224 70.528,115.224 C68.7999914,115.224 67.3680057,114.661339 66.232,113.536 C65.0959943,112.410661 64.528,111.037341 64.528,109.416 C64.528,107.783992 65.090661,106.402672 66.216,105.272 C67.341339,104.141328 68.7359917,103.576 70.4,103.576 C71.4453386,103.576 72.3999957,103.813331 73.264,104.288 C74.1280043,104.762669 74.7999976,105.394663 75.28,106.184 L73.392,107.272 C73.125332,106.813331 72.7226694,106.440001 72.184,106.152 C71.6453306,105.863999 71.0453366,105.72 70.384,105.72 C69.317328,105.72 68.4400034,106.06933 67.752,106.768 C67.0639966,107.46667 66.72,108.349328 66.72,109.416 C66.72,110.472005 67.0693298,111.343997 67.768,112.032 C68.4666702,112.720003 69.3919942,113.064 70.544,113.064 C71.3973376,113.064 72.1039972,112.874669 72.664,112.496 C73.2240028,112.117331 73.6053323,111.597337 73.808,110.936 L70.416,110.936 L70.416,108.984 L76.032,108.984 Z M81.308,112.888 L86.028,112.888 L86.028,115 L79.1,115 L79.1,103.8 L85.948,103.8 L85.948,105.912 L81.308,105.912 L81.308,108.296 L85.548,108.296 L85.548,110.376 L81.308,110.376 L81.308,112.888 Z M96.488,103.8 L96.488,105.912 L93.464,105.912 L93.464,115 L91.256,115 L91.256,105.912 L88.248,105.912 L88.248,103.8 L96.488,103.8 Z M106.928,112.888 L111.2,112.888 L111.2,115 L104.72,115 L104.72,103.8 L106.928,103.8 L106.928,112.888 Z M122.684,113.544 C121.553328,114.664006 120.177341,115.224 118.556,115.224 C116.934659,115.224 115.561339,114.661339 114.436,113.536 C113.310661,112.410661 112.748,111.032008 112.748,109.4 C112.748,107.767992 113.310661,106.389339 114.436,105.264 C115.561339,104.138661 116.934659,103.576 118.556,103.576 C120.177341,103.576 121.553328,104.138661 122.684,105.264 C123.814672,106.389339 124.38,107.767992 124.38,109.4 C124.38,111.032008 123.814672,112.413328 122.684,113.544 Z M115.98,112.04 C116.673337,112.72267 117.531995,113.064 118.556,113.064 C119.580005,113.064 120.438663,112.720003 121.132,112.032 C121.825337,111.343997 122.172,110.466672 122.172,109.4 C122.172,108.333328 121.825337,107.453337 121.132,106.76 C120.438663,106.066663 119.580005,105.72 118.556,105.72 C117.531995,105.72 116.673337,106.066663 115.98,106.76 C115.286663,107.453337 114.94,108.333328 114.94,109.4 C114.94,110.466672 115.286663,111.346663 115.98,112.04 Z M132.744,115.224 C131.058658,115.224 129.666672,114.664006 128.568,113.544 C127.469328,112.423994 126.92,111.042675 126.92,109.4 C126.92,107.746658 127.469328,106.362672 128.568,105.248 C129.666672,104.133328 131.058658,103.576 132.744,103.576 C133.757338,103.576 134.693329,103.813331 135.552,104.288 C136.410671,104.762669 137.079998,105.405329 137.56,106.216 L135.656,107.32 C135.378665,106.818664 134.984003,106.426668 134.472,106.144 C133.959997,105.861332 133.384003,105.72 132.744,105.72 C131.655995,105.72 130.77867,106.06133 130.112,106.744 C129.44533,107.42667 129.112,108.311995 129.112,109.4 C129.112,110.477339 129.44533,111.35733 130.112,112.04 C130.77867,112.72267 131.655995,113.064 132.744,113.064 C133.384003,113.064 133.962664,112.922668 134.48,112.64 C134.997336,112.357332 135.389332,111.970669 135.656,111.48 L137.56,112.584 C137.079998,113.394671 136.413338,114.037331 135.56,114.512 C134.706662,114.986669 133.768005,115.224 132.744,115.224 Z M147.572,115 L146.9,112.984 L142.436,112.984 L141.764,115 L139.38,115 L143.3,103.8 L146.036,103.8 L149.972,115 L147.572,115 Z M143.14,110.92 L146.212,110.92 L144.676,106.344 L143.14,110.92 Z M159.152,103.8 L159.152,105.912 L156.128,105.912 L156.128,115 L153.92,115 L153.92,105.912 L150.912,105.912 L150.912,103.8 L159.152,103.8 Z M161.884,103.8 L164.092,103.8 L164.092,115 L161.884,115 L161.884,103.8 Z M177.096,113.544 C175.965328,114.664006 174.589341,115.224 172.968,115.224 C171.346659,115.224 169.973339,114.661339 168.848,113.536 C167.722661,112.410661 167.16,111.032008 167.16,109.4 C167.16,107.767992 167.722661,106.389339 168.848,105.264 C169.973339,104.138661 171.346659,103.576 172.968,103.576 C174.589341,103.576 175.965328,104.138661 177.096,105.264 C178.226672,106.389339 178.792,107.767992 178.792,109.4 C178.792,111.032008 178.226672,112.413328 177.096,113.544 Z M170.392,112.04 C171.085337,112.72267 171.943995,113.064 172.968,113.064 C173.992005,113.064 174.850663,112.720003 175.544,112.032 C176.237337,111.343997 176.584,110.466672 176.584,109.4 C176.584,108.333328 176.237337,107.453337 175.544,106.76 C174.850663,106.066663 173.992005,105.72 172.968,105.72 C171.943995,105.72 171.085337,106.066663 170.392,106.76 C169.698663,107.453337 169.352,108.333328 169.352,109.4 C169.352,110.466672 169.698663,111.346663 170.392,112.04 Z M188.324,103.8 L190.532,103.8 L190.532,115 L188.852,115 L184.052,108.152 L184.052,115 L181.844,115 L181.844,103.8 L183.524,103.8 L188.324,110.632 L188.324,103.8 Z" id="GET-LOCATION" fill="#F2F3F9"></path>
            <path d="M68.864,292.224 C67.7546611,292.224 66.8213371,291.976002 66.064,291.48 C65.3066629,290.983998 64.7733349,290.309338 64.464,289.456 L66.352,288.352 C66.7893355,289.493339 67.6479936,290.064 68.928,290.064 C69.5466698,290.064 69.9999986,289.952001 70.288,289.728 C70.5760014,289.503999 70.72,289.221335 70.72,288.88 C70.72,288.485331 70.5440018,288.178668 70.192,287.96 C69.8399982,287.741332 69.2106712,287.504001 68.304,287.248 C67.8026642,287.098666 67.3786684,286.949334 67.032,286.8 C66.6853316,286.650666 66.3386684,286.450668 65.992,286.2 C65.6453316,285.949332 65.3813342,285.632002 65.2,285.248 C65.0186658,284.863998 64.928,284.416003 64.928,283.904 C64.928,282.890662 65.2879964,282.08267 66.008,281.48 C66.7280036,280.87733 67.5946616,280.576 68.608,280.576 C69.5146712,280.576 70.3119966,280.797331 71,281.24 C71.6880034,281.682669 72.2239981,282.298663 72.608,283.088 L70.752,284.16 C70.3039978,283.199995 69.5893382,282.72 68.608,282.72 C68.149331,282.72 67.7893346,282.823999 67.528,283.032 C67.2666654,283.240001 67.136,283.509332 67.136,283.84 C67.136,284.192002 67.2826652,284.477332 67.576,284.696 C67.8693348,284.914668 68.4319958,285.151999 69.264,285.408 C69.605335,285.514667 69.8639991,285.597333 70.04,285.656 C70.2160009,285.714667 70.4559985,285.805333 70.76,285.928 C71.0640015,286.050667 71.2986658,286.165333 71.464,286.272 C71.6293342,286.378667 71.8186656,286.522666 72.032,286.704 C72.2453344,286.885334 72.4079994,287.071999 72.52,287.264 C72.6320006,287.456001 72.7279996,287.687999 72.808,287.96 C72.8880004,288.232001 72.928,288.527998 72.928,288.848 C72.928,289.882672 72.5520038,290.703997 71.8,291.312 C71.0479962,291.920003 70.0693394,292.224 68.864,292.224 Z M77.996,289.888 L82.716,289.888 L82.716,292 L75.788,292 L75.788,280.8 L82.636,280.8 L82.636,282.912 L77.996,282.912 L77.996,285.296 L82.236,285.296 L82.236,287.376 L77.996,287.376 L77.996,289.888 Z M92.248,280.8 L94.456,280.8 L94.456,292 L92.776,292 L87.976,285.152 L87.976,292 L85.768,292 L85.768,280.8 L87.448,280.8 L92.248,287.632 L92.248,280.8 Z M102.484,280.8 C104.020008,280.8 105.302662,281.338661 106.332,282.416 C107.361338,283.493339 107.876,284.821325 107.876,286.4 C107.876,287.978675 107.361338,289.306661 106.332,290.384 C105.302662,291.461339 104.020008,292 102.484,292 L98.036,292 L98.036,280.8 L102.484,280.8 Z M102.484,289.888 C103.454672,289.888 104.243997,289.565337 104.852,288.92 C105.460003,288.274663 105.764,287.434672 105.764,286.4 C105.764,285.365328 105.460003,284.525337 104.852,283.88 C104.243997,283.234663 103.454672,282.912 102.484,282.912 L100.244,282.912 L100.244,289.888 L102.484,289.888 Z M122.588,292 L120.332,288.112 L118.652,288.112 L118.652,292 L116.444,292 L116.444,280.8 L120.924,280.8 C121.958672,280.8 122.838663,281.162663 123.564,281.888 C124.289337,282.613337 124.652,283.487995 124.652,284.512 C124.652,285.205337 124.454669,285.847997 124.06,286.44 C123.665331,287.032003 123.14267,287.477332 122.492,287.776 L124.972,292 L122.588,292 Z M118.652,282.864 L118.652,286.176 L120.924,286.176 C121.340002,286.176 121.697332,286.013335 121.996,285.688 C122.294668,285.362665 122.444,284.970669 122.444,284.512 C122.444,284.053331 122.294668,283.664002 121.996,283.344 C121.697332,283.023998 121.340002,282.864 120.924,282.864 L118.652,282.864 Z M129.976,289.888 L134.696,289.888 L134.696,292 L127.768,292 L127.768,280.8 L134.616,280.8 L134.616,282.912 L129.976,282.912 L129.976,285.296 L134.216,285.296 L134.216,287.376 L129.976,287.376 L129.976,289.888 Z M141.924,280.8 C143.001339,280.8 143.907996,281.162663 144.644,281.888 C145.380004,282.613337 145.748,283.503995 145.748,284.56 C145.748,285.616005 145.380004,286.506663 144.644,287.232 C143.907996,287.957337 143.001339,288.32 141.924,288.32 L139.956,288.32 L139.956,292 L137.748,292 L137.748,280.8 L141.924,280.8 Z M141.924,286.256 C142.393336,286.256 142.782665,286.093335 143.092,285.768 C143.401335,285.442665 143.556,285.040002 143.556,284.56 C143.556,284.069331 143.401335,283.664002 143.092,283.344 C142.782665,283.023998 142.393336,282.864 141.924,282.864 L139.956,282.864 L139.956,286.256 L141.924,286.256 Z M150.896,289.888 L155.168,289.888 L155.168,292 L148.688,292 L148.688,280.8 L150.896,280.8 L150.896,289.888 Z M166.78,280.8 L162.94,287.632 L162.94,292 L160.748,292 L160.748,287.632 L156.924,280.8 L159.42,280.8 L161.852,285.472 L164.284,280.8 L166.78,280.8 Z" id="SEND-REPLY" fill="#F2F3F9"></path>
            <g id="atoms-/-icon-weather">
                <g id="Group-11" fill="#464769">
                    <rect id="Rectangle" fill-rule="nonzero" x="0" y="0" width="40" height="40" rx="14.3999996"></rect>
                </g>
                <g id="Group-3-Copy" transform="translate(10.000000, 10.000000)" fill="#E6E6E6">
                    <polygon id="Rectangle" transform="translate(9.950263, 9.876338) rotate(-18.520000) translate(-9.950263, -9.876338) " points="8.5511724 8.50416975 11.2843153 8.51583176 11.3493535 11.2485062 8.56826836 11.225811"></polygon>
                    <path d="M19.1649449,7.24807016 C17.099514,0.379217982 14.1211497,-1.22631957 7.25148773,0.838867845 C0.381825738,2.90405526 -1.2239011,5.87559451 0.835055087,12.7509206 C2.89401127,19.6262467 5.87885027,21.2253104 12.7485123,19.1601229 C19.6181743,17.0949355 21.2239011,14.155766 19.1649449,7.24807016 Z M15.6880283,11.708616 L14.3930873,12.1423701 L14.839842,13.48895 C15.0115091,14.0247415 14.7240555,14.599581 14.1923715,14.7837383 C14.0779316,14.823032 13.9571559,14.8405974 13.8362627,14.8355299 C13.399452,14.8274449 13.0153169,14.5445679 12.8780064,14.1298702 L12.4312517,12.7897643 L9.75719856,13.6831682 L10.2104279,15.0232742 C10.3820951,15.5590657 10.0946414,16.1339052 9.56295741,16.3180625 C9.44851754,16.3573562 9.32774181,16.3749215 9.20684864,16.3698541 C8.76937888,16.3637215 8.38423364,16.0801007 8.2485923,15.6641944 L7.80183766,14.3240885 L6.50689666,14.7578426 C6.39235151,14.7966999 6.27165763,14.8142533 6.15078788,14.8096341 C5.71331813,14.8035016 5.32817289,14.5198807 5.19253155,14.1039745 C5.0208644,13.568183 5.30831803,12.9933435 5.84000204,12.8091861 L7.13494304,12.375432 L6.27380728,9.78585532 L4.97886628,10.2196094 C4.86442641,10.2589031 4.74365068,10.2764684 4.62275751,10.2714009 C4.18528775,10.2652684 3.80014251,9.98164759 3.66450117,9.5657413 C3.49649151,9.03023681 3.78271177,8.45786376 4.31197167,8.27095295 L5.60691266,7.83719886 L5.16015802,6.49709292 C5.07470248,5.99344495 5.36923271,5.50270462 5.85391958,5.34116138 C6.33860645,5.17961813 6.86870954,5.3955131 7.10256952,5.84969875 L7.54932416,7.18980468 L10.2233773,6.28992678 L9.77014797,4.94982084 C9.68469244,4.44617288 9.97922266,3.95543255 10.4639095,3.79388931 C10.9485964,3.63234606 11.4786995,3.84824102 11.7125595,4.30242667 L12.1593141,5.64253261 L13.4542551,5.20877851 C13.8172733,5.02190468 14.2562113,5.06566677 14.5751775,5.32053442 C14.8941437,5.57540207 15.0336364,5.99383085 14.9314021,6.38908214 C14.8291677,6.78433343 14.5042777,7.08267485 14.1017256,7.15096103 L12.8067846,7.58471513 L13.6679204,10.1742918 L14.9628614,9.74053773 C15.3258796,9.55366389 15.7648176,9.59742599 16.0837838,9.85229364 C16.40275,10.1071613 16.5422427,10.5255901 16.4400084,10.9208413 C16.337774,11.3160926 16.012884,11.6144341 15.6103319,11.6827202 L15.6880283,11.708616 Z" id="Shape" fill-rule="nonzero"></path>
                </g>
            </g>
            <g id="atoms-/-icon-locationn" transform="translate(0.000000, 89.000000)">
                <g id="Group-10">
                    <rect id="Rectangle-Copy-5" fill="#464769" fill-rule="nonzero" x="0" y="0" width="40" height="40" rx="14.3999996"></rect>
                    <path d="M20,9.77777778 C15.828254,9.77777778 12.4444444,13.1217778 12.4444444,17.2444444 C12.4444444,22.8444444 20,31.1111111 20,31.1111111 C20,31.1111111 27.5555556,22.8444444 27.5555556,17.2444444 C27.5555556,13.1217778 24.171746,9.77777778 20,9.77777778 Z M20,19.9111111 C18.5104762,19.9111111 17.3015873,18.7164444 17.3015873,17.2444444 C17.3015873,15.7724444 18.5104762,14.5777778 20,14.5777778 C21.4895238,14.5777778 22.6984127,15.7724444 22.6984127,17.2444444 C22.6984127,18.7164444 21.4895238,19.9111111 20,19.9111111 Z" id="Shape" fill="#E6E6E6" fill-rule="nonzero"></path>
                </g>
            </g>
            <path d="M76.032,196.984 L76.032,197.848 C76.032,199.448008 75.5200051,200.743995 74.496,201.736 C73.4719949,202.728005 72.1493414,203.224 70.528,203.224 C68.7999914,203.224 67.3680057,202.661339 66.232,201.536 C65.0959943,200.410661 64.528,199.037341 64.528,197.416 C64.528,195.783992 65.090661,194.402672 66.216,193.272 C67.341339,192.141328 68.7359917,191.576 70.4,191.576 C71.4453386,191.576 72.3999957,191.813331 73.264,192.288 C74.1280043,192.762669 74.7999976,193.394663 75.28,194.184 L73.392,195.272 C73.125332,194.813331 72.7226694,194.440001 72.184,194.152 C71.6453306,193.863999 71.0453366,193.72 70.384,193.72 C69.317328,193.72 68.4400034,194.06933 67.752,194.768 C67.0639966,195.46667 66.72,196.349328 66.72,197.416 C66.72,198.472005 67.0693298,199.343997 67.768,200.032 C68.4666702,200.720003 69.3919942,201.064 70.544,201.064 C71.3973376,201.064 72.1039972,200.874669 72.664,200.496 C73.2240028,200.117331 73.6053323,199.597337 73.808,198.936 L70.416,198.936 L70.416,196.984 L76.032,196.984 Z M81.308,200.888 L86.028,200.888 L86.028,203 L79.1,203 L79.1,191.8 L85.948,191.8 L85.948,193.912 L81.308,193.912 L81.308,196.296 L85.548,196.296 L85.548,198.376 L81.308,198.376 L81.308,200.888 Z M96.488,191.8 L96.488,193.912 L93.464,193.912 L93.464,203 L91.256,203 L91.256,193.912 L88.248,193.912 L88.248,191.8 L96.488,191.8 Z M111.408,193.912 L106.928,193.912 L106.928,196.568 L111.28,196.568 L111.28,198.68 L106.928,198.68 L106.928,203 L104.72,203 L104.72,191.8 L111.408,191.8 L111.408,193.912 Z M123.948,201.544 C122.817328,202.664006 121.441341,203.224 119.82,203.224 C118.198659,203.224 116.825339,202.661339 115.7,201.536 C114.574661,200.410661 114.012,199.032008 114.012,197.4 C114.012,195.767992 114.574661,194.389339 115.7,193.264 C116.825339,192.138661 118.198659,191.576 119.82,191.576 C121.441341,191.576 122.817328,192.138661 123.948,193.264 C125.078672,194.389339 125.644,195.767992 125.644,197.4 C125.644,199.032008 125.078672,200.413328 123.948,201.544 Z M117.244,200.04 C117.937337,200.72267 118.795995,201.064 119.82,201.064 C120.844005,201.064 121.702663,200.720003 122.396,200.032 C123.089337,199.343997 123.436,198.466672 123.436,197.4 C123.436,196.333328 123.089337,195.453337 122.396,194.76 C121.702663,194.066663 120.844005,193.72 119.82,193.72 C118.795995,193.72 117.937337,194.066663 117.244,194.76 C116.550663,195.453337 116.204,196.333328 116.204,197.4 C116.204,198.466672 116.550663,199.346663 117.244,200.04 Z M134.84,203 L132.584,199.112 L130.904,199.112 L130.904,203 L128.696,203 L128.696,191.8 L133.176,191.8 C134.210672,191.8 135.090663,192.162663 135.816,192.888 C136.541337,193.613337 136.904,194.487995 136.904,195.512 C136.904,196.205337 136.706669,196.847997 136.312,197.44 C135.917331,198.032003 135.39467,198.477332 134.744,198.776 L137.224,203 L134.84,203 Z M130.904,193.864 L130.904,197.176 L133.176,197.176 C133.592002,197.176 133.949332,197.013335 134.248,196.688 C134.546668,196.362665 134.696,195.970669 134.696,195.512 C134.696,195.053331 134.546668,194.664002 134.248,194.344 C133.949332,194.023998 133.592002,193.864 133.176,193.864 L130.904,193.864 Z M142.228,200.888 L146.948,200.888 L146.948,203 L140.02,203 L140.02,191.8 L146.868,191.8 L146.868,193.912 L142.228,193.912 L142.228,196.296 L146.468,196.296 L146.468,198.376 L142.228,198.376 L142.228,200.888 Z M155.232,203.224 C153.546658,203.224 152.154672,202.664006 151.056,201.544 C149.957328,200.423994 149.408,199.042675 149.408,197.4 C149.408,195.746658 149.957328,194.362672 151.056,193.248 C152.154672,192.133328 153.546658,191.576 155.232,191.576 C156.245338,191.576 157.181329,191.813331 158.04,192.288 C158.898671,192.762669 159.567998,193.405329 160.048,194.216 L158.144,195.32 C157.866665,194.818664 157.472003,194.426668 156.96,194.144 C156.447997,193.861332 155.872003,193.72 155.232,193.72 C154.143995,193.72 153.26667,194.06133 152.6,194.744 C151.93333,195.42667 151.6,196.311995 151.6,197.4 C151.6,198.477339 151.93333,199.35733 152.6,200.04 C153.26667,200.72267 154.143995,201.064 155.232,201.064 C155.872003,201.064 156.450664,200.922668 156.968,200.64 C157.485336,200.357332 157.877332,199.970669 158.144,199.48 L160.048,200.584 C159.567998,201.394671 158.901338,202.037331 158.048,202.512 C157.194662,202.986669 156.256005,203.224 155.232,203.224 Z M170.06,203 L169.388,200.984 L164.924,200.984 L164.252,203 L161.868,203 L165.788,191.8 L168.524,191.8 L172.46,203 L170.06,203 Z M165.628,198.92 L168.7,198.92 L167.164,194.344 L165.628,198.92 Z M178.616,203.224 C177.506661,203.224 176.573337,202.976002 175.816,202.48 C175.058663,201.983998 174.525335,201.309338 174.216,200.456 L176.104,199.352 C176.541336,200.493339 177.399994,201.064 178.68,201.064 C179.29867,201.064 179.751999,200.952001 180.04,200.728 C180.328001,200.503999 180.472,200.221335 180.472,199.88 C180.472,199.485331 180.296002,199.178668 179.944,198.96 C179.591998,198.741332 178.962671,198.504001 178.056,198.248 C177.554664,198.098666 177.130668,197.949334 176.784,197.8 C176.437332,197.650666 176.090668,197.450668 175.744,197.2 C175.397332,196.949332 175.133334,196.632002 174.952,196.248 C174.770666,195.863998 174.68,195.416003 174.68,194.904 C174.68,193.890662 175.039996,193.08267 175.76,192.48 C176.480004,191.87733 177.346662,191.576 178.36,191.576 C179.266671,191.576 180.063997,191.797331 180.752,192.24 C181.440003,192.682669 181.975998,193.298663 182.36,194.088 L180.504,195.16 C180.055998,194.199995 179.341338,193.72 178.36,193.72 C177.901331,193.72 177.541335,193.823999 177.28,194.032 C177.018665,194.240001 176.888,194.509332 176.888,194.84 C176.888,195.192002 177.034665,195.477332 177.328,195.696 C177.621335,195.914668 178.183996,196.151999 179.016,196.408 C179.357335,196.514667 179.615999,196.597333 179.792,196.656 C179.968001,196.714667 180.207998,196.805333 180.512,196.928 C180.816002,197.050667 181.050666,197.165333 181.216,197.272 C181.381334,197.378667 181.570666,197.522666 181.784,197.704 C181.997334,197.885334 182.159999,198.071999 182.272,198.264 C182.384001,198.456001 182.48,198.687999 182.56,198.96 C182.64,199.232001 182.68,199.527998 182.68,199.848 C182.68,200.882672 182.304004,201.703997 181.552,202.312 C180.799996,202.920003 179.821339,203.224 178.616,203.224 Z M192.628,191.8 L192.628,193.912 L189.604,193.912 L189.604,203 L187.396,203 L187.396,193.912 L184.388,193.912 L184.388,191.8 L192.628,191.8 Z" id="GET-FORECASTE" fill="#F2F3F9"></path>
            <g id="atoms-/-icon-forecaste" transform="translate(0.000000, 177.000000)">
                <g id="Group-12" fill="#464769">
                    <rect id="Rectangle-Copy-13" fill-rule="nonzero" x="0" y="0" width="40" height="40" rx="14.3999996"></rect>
                </g>
                <g id="Group-3-Copy" transform="translate(9.000000, 9.000000)">
                    <g id="3-accuweather">
                        <polygon id="Path" fill="#E6E6E6" points="19.5020474 13.2276018 21.8589948 10.9303035 19.4810896 8.61204737 20.3629297 5.40711473 17.1983005 4.62200296 16.3922309 1.46221021 13.2259896 2.35372317 10.9303035 0 8.61204737 2.37790526 5.40711473 1.49606514 4.62522724 4.6606943 1.46543449 5.46676388 2.35694745 8.63139304 0 10.9303035 2.37790526 13.2469474 1.49606514 16.4486558 4.6606943 17.2337676 5.46676388 20.3951725 8.63139304 19.5020474 10.9286913 21.8589948 13.2453353 19.4810896 16.4470437 20.3629297 17.2321554 17.1983005 20.3935603 16.3922309"></polygon>
                        <circle id="Oval" fill="#2D2E3D" cx="11.0632154" cy="10.7489297" r="7.60607254"></circle>
                        <circle id="Oval" fill="#E6E6E6" cx="10.9977202" cy="10.6834345" r="6.59772021"></circle>
                    </g>
                </g>
            </g>
            <g id="atoms-/-icon-reply" transform="translate(0.000000, 266.000000)">
                <g id="Group-12">
                    <rect id="Rectangle-Copy-13" fill="#464769" fill-rule="nonzero" x="0" y="0" width="40" height="40" rx="14.3999996"></rect>
                    <g id="ic_reply_48px" transform="translate(10.666667, 11.555556)" fill="#E6E6E6">
                        <path d="M7.60493827,4.5037037 L7.60493827,2.2288677 C7.60493827,1.73181144 7.20199456,1.32886773 6.7049383,1.32886773 C6.46066996,1.32886773 6.22689365,1.42815534 6.05728125,1.60393546 L0.603004793,7.25654924 C0.266547556,7.60524129 0.266547556,8.15772168 0.603004793,8.50641372 L6.05728125,14.1590275 C6.40242179,14.5167186 6.97217942,14.5268929 7.32987054,14.1817523 C7.50565066,14.0121399 7.60493827,13.7783636 7.60493827,13.5340953 L7.60493827,11.1466667 C13.037037,11.1466667 16.8395062,12.9481481 19.5555556,16.8888889 C18.4691358,11.2592593 15.2098765,5.62962963 7.60493827,4.5037037 Z" id="Path"></path>
                    </g>
                </g>
            </g>
            <path d="M597.653923,148.976337 C598.252853,148.976337 598.43139,149.200195 598.43139,149.476337 C598.43139,149.75248 598.207532,149.976337 597.93139,149.976337 L350.649274,149.976337 C346.590524,149.976337 342.980078,152.554857 341.663206,156.394037 L330.023707,190.327573 C328.568216,194.570877 324.577723,197.42082 320.091736,197.42082 L249.46599,197.42082 C249.189847,197.42082 248.96599,197.196963 248.96599,196.92082 C248.96599,196.644678 249.189847,196.42082 249.46599,196.42082 L320.091736,196.42082 C324.150487,196.42082 327.760932,193.8423 329.077805,190.00312 L340.717304,156.069585 C342.172794,151.826281 346.163287,148.976337 350.649274,148.976337 L597.653923,148.976337 Z" id="Path-4" fill="#464769" fill-rule="nonzero"></path>
            <path d="M249.489827,97 C249.219303,97 249,96.7669427 249,96.4794521 C249,96.1919614 249.219303,95.9589041 249.489827,95.9589041 L435.078236,95.9589041 C440.201789,95.9589041 445.110597,93.7717115 448.702149,89.8885656 L506.51531,27.381638 C510.291045,23.2993564 515.451586,21 520.837886,21 L597.510173,21 C597.780697,21 598,21.2330573 598,21.5205479 C598,21.8080386 597.780697,22.0410959 597.510173,22.0410959 L520.837886,22.0410959 C515.714332,22.0410959 510.805525,24.2282885 507.213972,28.1114344 L449.400812,90.618362 C445.625077,94.7006436 440.464535,97 435.078236,97 L249.489827,97 Z" id="Path-10" fill="#464769" fill-rule="nonzero" transform="translate(423.500000, 59.000000) scale(-1, 1) translate(-423.500000, -59.000000) "></path>
            <path d="M249.304616,102 C249.028473,102 248.804616,101.776142 248.804616,101.5 C248.804616,101.223858 249.028473,101 249.304616,101 L546.645944,101 C550.320861,101 553.728347,102.921271 555.6303,106.065725 L561.180433,115.241626 C562.901248,118.086608 565.984211,119.824901 569.309136,119.824901 L596.979712,119.824901 C597.255855,119.824901 597.479712,120.048759 597.479712,120.324901 C597.479712,120.601043 597.255855,120.824901 596.979712,120.824901 L569.309136,120.824901 C565.634219,120.824901 562.226733,118.90363 560.32478,115.759176 L554.774647,106.583275 C553.053832,103.738293 549.970869,102 546.645944,102 L249.304616,102 Z" id="Path-13" fill="#464769" fill-rule="nonzero" transform="translate(423.142164, 110.912450) scale(-1, -1) translate(-423.142164, -110.912450) "></path>
            <path d="M249,287.5 C248.723858,287.5 248.5,287.276142 248.5,287 C248.5,286.723858 248.723858,286.5 249,286.5 L443.443707,286.5 C452.134451,286.5 459.776212,280.748757 462.181801,272.397579 L484.958778,193.325622 C487.48773,184.546179 495.521376,178.5 504.657799,178.5 L597.426502,178.5 C597.702645,178.5 597.926502,178.723858 597.926502,179 C597.926502,179.276142 597.702645,179.5 597.426502,179.5 L504.657799,179.5 C495.967055,179.5 488.325294,185.251243 485.919706,193.602421 L463.142729,272.674378 C460.613777,281.453821 452.580131,287.5 443.443707,287.5 L249,287.5 Z" id="Path-10-Copy" fill="#464769" fill-rule="nonzero" transform="translate(423.213251, 233.000000) scale(-1, -1) translate(-423.213251, -233.000000) "></path>
        </g>
    </g>
</svg>