<svg xmlns="http://www.w3.org/2000/svg" width="351" height="221" viewBox="0 0 351 221">
    <defs>
        <linearGradient id="a" x1="0%" x2="69.935%" y1="50.121%" y2="49.687%">
            <stop offset="0%" stop-color="#FFF" stop-opacity="0"/>
            <stop offset="100%" stop-color="#B1C5FF"/>
        </linearGradient>
        <linearGradient id="b" x1="0%" x2="69.935%" y1="50.001%" y2="49.998%">
            <stop offset="0%" stop-color="#FFF" stop-opacity="0"/>
            <stop offset="100%" stop-color="#B1C5FF"/>
        </linearGradient>
        <linearGradient id="c" x1="0%" x2="69.935%" y1="50.337%" y2="49.127%">
            <stop offset="0%" stop-color="#FFF" stop-opacity="0"/>
            <stop offset="100%" stop-color="#B1C5FF"/>
        </linearGradient>
        <linearGradient id="d" x1="0%" x2="69.935%" y1="50.12%" y2="49.689%">
            <stop offset="0%" stop-color="#FFF" stop-opacity="0"/>
            <stop offset="100%" stop-color="#B1C5FF"/>
        </linearGradient>
        <linearGradient id="e" x1="0%" x2="69.935%" y1="50.001%" y2="49.998%">
            <stop offset="0%" stop-color="#FFF" stop-opacity="0"/>
            <stop offset="100%" stop-color="#B1C5FF"/>
        </linearGradient>
    </defs>
    <g fill="none" fill-rule="nonzero">
        <path fill="url(#a)" d="M318.363.238h-3.903a.651.651 0 0 0 0 1.305h3.903a.651.651 0 0 0 0-1.305zm-7.805 0h-3.903a.651.651 0 0 0 0 1.305h3.903a.651.651 0 0 0 0-1.305zm-7.805 0h-3.902a.651.651 0 0 0 0 1.305h3.902a.651.651 0 0 0 0-1.305zm-7.805 0h-3.902a.651.651 0 0 0 0 1.305h3.902a.651.651 0 0 0 0-1.305zm-7.805 0h-3.902a.651.651 0 0 0 0 1.305h3.902a.651.651 0 0 0 0-1.305zm-7.805 0h-3.902a.651.651 0 0 0 0 1.305h3.902a.651.651 0 0 0 0-1.305zm-7.805 0h-3.902a.651.651 0 0 0 0 1.305h3.902a.651.651 0 0 0 0-1.305zm-7.804 0h-3.903a.651.651 0 0 0 0 1.305h3.903a.651.651 0 0 0 0-1.305zm-7.805 0h-2.27l-.18.148-1.443 1.185a.654.654 0 0 0-.09.919.65.65 0 0 0 .915.09l1.443-1.185-.412.148h2.037a.651.651 0 0 0 0-1.305zm-6.912 3.814l-3.019 2.48a.654.654 0 0 0-.09.918.65.65 0 0 0 .915.091l3.019-2.48a.654.654 0 0 0 .09-.918.65.65 0 0 0-.915-.091zm-6.038 4.96l-3.019 2.48a.654.654 0 0 0-.09.918.65.65 0 0 0 .914.092l3.02-2.48a.654.654 0 0 0 .09-.919.65.65 0 0 0-.915-.09zm-6.038 4.96l-3.019 2.48a.654.654 0 0 0-.09.919.65.65 0 0 0 .914.091l3.02-2.48a.654.654 0 0 0 .09-.918.65.65 0 0 0-.915-.091zm-6.038 4.961l-3.019 2.48a.654.654 0 0 0-.091.918.65.65 0 0 0 .915.092l3.02-2.48a.654.654 0 0 0 .09-.919.65.65 0 0 0-.915-.09zm-6.038 4.96l-.299.246.412.505v-.653h-3.516a.651.651 0 0 0 0 1.305h3.749l.18-.147.298-.246a.654.654 0 0 0 .091-.918.65.65 0 0 0-.915-.091zm-7.305.098h-3.903a.651.651 0 0 0 0 1.305h3.903a.651.651 0 0 0 0-1.305zm-7.805 0h-3.903a.651.651 0 0 0 0 1.305h3.903a.651.651 0 0 0 0-1.305zm-7.805 0h-3.902a.651.651 0 0 0 0 1.305h3.902a.651.651 0 0 0 0-1.305zm-7.805 0h-3.902a.651.651 0 0 0 0 1.305h3.902a.651.651 0 0 0 0-1.305zm-7.805 0h-3.902a.651.651 0 0 0 0 1.305h3.902a.651.651 0 0 0 0-1.305zm-7.805 0h-3.902a.651.651 0 0 0 0 1.305h3.902a.651.651 0 0 0 0-1.305zm-7.805 0h-3.902a.651.651 0 0 0 0 1.305h3.902a.651.651 0 0 0 0-1.305zm-7.804 0h-3.903a.651.651 0 0 0 0 1.305h3.903a.651.651 0 0 0 0-1.305zm-7.805 0h-3.903a.651.651 0 0 0 0 1.305h3.903a.651.651 0 0 0 0-1.305zm-7.805 0h-3.903a.651.651 0 0 0 0 1.305h3.903a.651.651 0 0 0 0-1.305zm-7.805 0h-3.903a.651.651 0 0 0 0 1.305h3.903a.651.651 0 0 0 0-1.305zm-7.805 0h-3.902a.651.651 0 0 0 0 1.305h3.902a.651.651 0 0 0 0-1.305zm-7.805 0h-3.902a.651.651 0 0 0 0 1.305h3.902a.651.651 0 0 0 0-1.305zm-7.805 0h-3.902a.651.651 0 0 0 0 1.305h3.902a.651.651 0 0 0 0-1.305zm-7.805 0h-3.902a.651.651 0 0 0 0 1.305h3.902a.651.651 0 0 0 0-1.305zm-7.804 0h-3.903a.651.651 0 0 0 0 1.305h3.903a.651.651 0 0 0 0-1.305zm-7.805 0h-3.903a.651.651 0 0 0 0 1.305h3.903a.651.651 0 0 0 0-1.305zm-7.805 0h-3.903a.651.651 0 0 0 0 1.305h3.903a.651.651 0 0 0 0-1.305zm-7.805 0h-3.903a.651.651 0 0 0 0 1.305h3.903a.651.651 0 0 0 0-1.305zm-7.805 0H65.36a.651.651 0 0 0 0 1.305h3.902a.651.651 0 0 0 0-1.305zm-7.805 0h-3.902a.651.651 0 0 0 0 1.305h3.902a.651.651 0 0 0 0-1.305zm-7.805 0H49.75a.651.651 0 0 0 0 1.305h3.902a.651.651 0 0 0 0-1.305zm-7.805 0h-3.902a.651.651 0 0 0 0 1.305h3.902a.651.651 0 0 0 0-1.305zm-7.804 0H34.14a.651.651 0 0 0 0 1.305h3.903a.651.651 0 0 0 0-1.305zm-7.805 0h-3.903a.651.651 0 0 0 0 1.305h3.903a.651.651 0 0 0 0-1.305zm-7.805 0H18.53a.651.651 0 0 0 0 1.305h3.903a.651.651 0 0 0 0-1.305zm-7.805 0h-3.903a.651.651 0 0 0 0 1.305h3.903a.651.651 0 0 0 0-1.305zm-7.805 0H2.921a.651.651 0 0 0 0 1.305h3.902a.651.651 0 0 0 0-1.305z" transform="matrix(-1 0 0 1 340 0)"/>
        <path fill="url(#b)" d="M.65 72.305h3.903a.651.651 0 0 0 0-1.305H.65a.651.651 0 0 0 0 1.305zm7.805 0h3.903a.651.651 0 0 0 0-1.305H8.455a.651.651 0 0 0 0 1.305zm7.805 0h3.903a.651.651 0 0 0 0-1.305H16.26a.651.651 0 0 0 0 1.305zm7.805 0h3.902a.651.651 0 0 0 0-1.305h-3.902a.651.651 0 0 0 0 1.305zm7.805 0h3.902a.651.651 0 0 0 0-1.305H31.87a.651.651 0 0 0 0 1.305zm7.805 0h3.902a.651.651 0 0 0 0-1.305h-3.902a.651.651 0 0 0 0 1.305zm7.805 0h3.902a.651.651 0 0 0 0-1.305H47.48a.651.651 0 0 0 0 1.305zm7.805 0h3.902a.651.651 0 0 0 0-1.305h-3.902a.651.651 0 0 0 0 1.305zm7.804 0h3.903a.651.651 0 0 0 0-1.305h-3.903a.651.651 0 0 0 0 1.305zm7.805 0h3.903a.651.651 0 0 0 0-1.305h-3.903a.651.651 0 0 0 0 1.305zm7.805 0h3.903a.651.651 0 0 0 0-1.305h-3.903a.651.651 0 0 0 0 1.305zm7.805 0h3.903a.651.651 0 0 0 0-1.305h-3.903a.651.651 0 0 0 0 1.305zm7.805 0h3.902a.651.651 0 0 0 0-1.305H94.31a.651.651 0 0 0 0 1.305zm7.805 0h3.902a.651.651 0 0 0 0-1.305h-3.902a.651.651 0 0 0 0 1.305zm7.805 0h3.902a.651.651 0 0 0 0-1.305h-3.902a.651.651 0 0 0 0 1.305zm7.805 0h3.902a.651.651 0 0 0 0-1.305h-3.902a.651.651 0 0 0 0 1.305zm7.804 0h3.903a.651.651 0 0 0 0-1.305h-3.903a.651.651 0 0 0 0 1.305zm7.805 0h3.903a.651.651 0 0 0 0-1.305h-3.903a.651.651 0 0 0 0 1.305zm7.805 0h3.903a.651.651 0 0 0 0-1.305h-3.903a.651.651 0 0 0 0 1.305zm7.805 0h3.903a.651.651 0 0 0 0-1.305h-3.903a.651.651 0 0 0 0 1.305zm7.805 0h3.902a.651.651 0 0 0 0-1.305h-3.902a.651.651 0 0 0 0 1.305zm7.805 0h3.902a.651.651 0 0 0 0-1.305h-3.902a.651.651 0 0 0 0 1.305zm7.805 0h3.902a.651.651 0 0 0 0-1.305h-3.902a.651.651 0 0 0 0 1.305zm7.805 0h3.902a.651.651 0 0 0 0-1.305h-3.902a.651.651 0 0 0 0 1.305zm7.804 0h3.903a.651.651 0 0 0 0-1.305h-3.903a.651.651 0 0 0 0 1.305zm7.805 0h3.903a.651.651 0 0 0 0-1.305h-3.903a.651.651 0 0 0 0 1.305zm7.805 0h3.903a.651.651 0 0 0 0-1.305h-3.903a.651.651 0 0 0 0 1.305zm7.805 0h3.903a.651.651 0 0 0 0-1.305h-3.903a.651.651 0 0 0 0 1.305zm7.805 0h3.902a.651.651 0 0 0 0-1.305h-3.902a.651.651 0 0 0 0 1.305z" transform="matrix(-1 0 0 1 340 0)"/>
        <g>
            <path fill="url(#c)" d="M.65 63.175h3.902a.65.65 0 1 0 0-1.3H.65a.65.65 0 1 0 0 1.3zm7.804 0h3.901a.65.65 0 1 0 0-1.3H8.454a.65.65 0 1 0 0 1.3zm7.803 0h3.902a.65.65 0 1 0 0-1.3h-3.902a.65.65 0 1 0 0 1.3zm7.803 0h3.902a.65.65 0 1 0 0-1.3H24.06a.65.65 0 1 0 0 1.3zm7.804 0h3.901a.65.65 0 1 0 0-1.3h-3.901a.65.65 0 1 0 0 1.3zm7.803 0h3.902a.65.65 0 1 0 0-1.3h-3.902a.65.65 0 1 0 0 1.3zm7.804 0h3.901a.65.65 0 1 0 0-1.3h-3.901a.65.65 0 1 0 0 1.3zm7.803 0h3.902a.65.65 0 1 0 0-1.3h-3.902a.65.65 0 1 0 0 1.3zm7.803 0h3.902a.65.65 0 1 0 0-1.3h-3.902a.65.65 0 1 0 0 1.3zm7.804 0h3.901a.65.65 0 1 0 0-1.3h-3.901a.65.65 0 1 0 0 1.3zm7.803 0h3.902a.65.65 0 1 0 0-1.3h-3.902a.65.65 0 1 0 0 1.3zm7.803 0h3.902a.65.65 0 1 0 0-1.3h-3.902a.65.65 0 1 0 0 1.3zm7.804 0h3.901a.65.65 0 1 0 0-1.3h-3.901a.65.65 0 1 0 0 1.3zm7.803 0h3.902a.65.65 0 1 0 0-1.3h-3.902a.65.65 0 1 0 0 1.3zm7.803 0h3.902a.65.65 0 1 0 0-1.3h-3.902a.65.65 0 1 0 0 1.3zm7.804 0h3.902a.65.65 0 1 0 0-1.3H117.7a.65.65 0 1 0 0 1.3zm7.803 0h3.902a.65.65 0 1 0 0-1.3h-3.902a.65.65 0 1 0 0 1.3zm7.804 0h3.901a.65.65 0 1 0 0-1.3h-3.901a.65.65 0 1 0 0 1.3zm7.803 0h3.902a.65.65 0 1 0 0-1.3h-3.902a.65.65 0 1 0 0 1.3zm7.803 0h3.902a.65.65 0 1 0 0-1.3h-3.902a.65.65 0 1 0 0 1.3zm7.804 0h3.901a.65.65 0 1 0 0-1.3h-3.901a.65.65 0 1 0 0 1.3zm7.803 0h3.902a.65.65 0 1 0 0-1.3h-3.902a.65.65 0 1 0 0 1.3zm7.803 0h3.902a.65.65 0 1 0 0-1.3h-3.902a.65.65 0 1 0 0 1.3zm7.804 0h3.901a.65.65 0 1 0 0-1.3h-3.901a.65.65 0 1 0 0 1.3zm7.803 0h3.902a.65.65 0 1 0 0-1.3h-3.902a.65.65 0 1 0 0 1.3zm7.804 0h3.901a.65.65 0 1 0 0-1.3h-3.901a.65.65 0 1 0 0 1.3zm7.803 0h3.902a.65.65 0 1 0 0-1.3h-3.902a.65.65 0 1 0 0 1.3zm7.803 0h3.902a.65.65 0 1 0 0-1.3h-3.902a.65.65 0 1 0 0 1.3zm7.804 0h3.901a.65.65 0 1 0 0-1.3h-3.901a.65.65 0 1 0 0 1.3zm7.803 0h3.902a.65.65 0 1 0 0-1.3h-3.902a.65.65 0 1 0 0 1.3zm7.803 0h3.902a.65.65 0 1 0 0-1.3h-3.902a.65.65 0 1 0 0 1.3zm7.804 0h3.901a.65.65 0 1 0 0-1.3h-3.901a.65.65 0 1 0 0 1.3zm7.803 0h3.902a.65.65 0 1 0 0-1.3h-3.902a.65.65 0 1 0 0 1.3zm7.804 0h3.901a.65.65 0 1 0 0-1.3h-3.901a.65.65 0 1 0 0 1.3zm7.803 0h3.902a.65.65 0 1 0 0-1.3h-3.902a.65.65 0 1 0 0 1.3zm7.803 0h3.902a.65.65 0 1 0 0-1.3h-3.902a.65.65 0 1 0 0 1.3zm7.804 0h3.901a.65.65 0 1 0 0-1.3h-3.901a.65.65 0 1 0 0 1.3zm7.803 0h3.902a.65.65 0 1 0 0-1.3h-3.902a.65.65 0 1 0 0 1.3zm7.803 0h3.902a.65.65 0 1 0 0-1.3h-3.902a.65.65 0 1 0 0 1.3zm7.804 0h3.901a.65.65 0 1 0 0-1.3h-3.901a.65.65 0 1 0 0 1.3zm7.803 0h3.902a.65.65 0 1 0 0-1.3h-3.902a.65.65 0 1 0 0 1.3zm7.803 0h3.902a.65.65 0 1 0 0-1.3h-3.902a.65.65 0 1 0 0 1.3zm7.804 0h3.902a.65.65 0 1 0 0-1.3h-3.902a.65.65 0 1 0 0 1.3zm7.803 0h3.902a.65.65 0 1 0 0-1.3h-3.902a.65.65 0 1 0 0 1.3zm7.804 0h.877l-.455-.186 2.159 2.117a.65.65 0 0 0 .91-.928l-2.159-2.117-.19-.186H344a.65.65 0 1 0 0 1.3zm5.367 4.662l2.786 2.73a.65.65 0 0 0 .91-.928l-2.786-2.73a.65.65 0 0 0-.91.928zm5.571 5.46l2.786 2.731a.65.65 0 0 0 .91-.928l-2.785-2.73a.65.65 0 0 0-.91.928zm5.572 5.462l2.786 2.73a.65.65 0 0 0 .91-.928l-2.785-2.73a.65.65 0 0 0-.911.928zm5.572 5.461l2.785 2.73a.65.65 0 0 0 .91-.927l-2.785-2.731a.65.65 0 0 0-.91.928zm5.571 5.461l2.786 2.73a.65.65 0 0 0 .91-.927l-2.785-2.73a.65.65 0 0 0-.91.927zm5.572 5.461l2.786 2.731a.65.65 0 0 0 .91-.928l-2.786-2.73a.65.65 0 0 0-.91.927zm5.571 5.462l2.786 2.73a.65.65 0 0 0 .91-.928l-2.785-2.73a.65.65 0 0 0-.91.928zm5.572 5.46l2.786 2.731a.65.65 0 0 0 .91-.928l-2.786-2.73a.65.65 0 0 0-.91.928zm5.571 5.462l2.786 2.73a.65.65 0 0 0 .91-.928l-2.785-2.73a.65.65 0 0 0-.91.928z" transform="rotate(180 175.5 110.5)"/>
            <path fill="url(#d)" d="M318.301 0H314.4a.65.65 0 1 0 0 1.3h3.901a.65.65 0 1 0 0-1.3zm-7.803 0h-3.902a.65.65 0 1 0 0 1.3h3.902a.65.65 0 1 0 0-1.3zm-7.804 0h-3.901a.65.65 0 1 0 0 1.3h3.901a.65.65 0 1 0 0-1.3zm-7.803 0h-3.902a.65.65 0 1 0 0 1.3h3.902a.65.65 0 1 0 0-1.3zm-7.803 0h-3.902a.65.65 0 1 0 0 1.3h3.902a.65.65 0 1 0 0-1.3zm-7.804 0h-3.901a.65.65 0 1 0 0 1.3h3.901a.65.65 0 1 0 0-1.3zm-7.803 0h-3.902a.65.65 0 1 0 0 1.3h3.902a.65.65 0 1 0 0-1.3zm-7.803 0h-3.902a.65.65 0 1 0 0 1.3h3.902a.65.65 0 1 0 0-1.3zm-7.804 0h-2.269l-.18.147-1.442 1.181a.65.65 0 1 0 .824 1.006l1.443-1.181-.412.147h2.036a.65.65 0 1 0 0-1.3zm-6.91 3.8l-3.018 2.47a.65.65 0 1 0 .824 1.007l3.018-2.472a.65.65 0 1 0-.824-1.005zm-6.037 4.942l-3.018 2.471a.65.65 0 1 0 .824 1.006l3.018-2.471a.65.65 0 1 0-.824-1.006zm-6.037 4.942l-3.018 2.472a.65.65 0 1 0 .824 1.005l3.019-2.47a.65.65 0 1 0-.825-1.007zm-6.036 4.943l-3.019 2.471a.65.65 0 1 0 .824 1.006l3.019-2.472a.65.65 0 1 0-.824-1.005zm-6.037 4.942l-.3.245.413.503v-.65h-3.516a.65.65 0 1 0 0 1.3h3.748l.18-.148.299-.244a.65.65 0 1 0-.824-1.006zm-7.304.098h-3.902a.65.65 0 1 0 0 1.3h3.902a.65.65 0 1 0 0-1.3zm-7.804 0h-3.901a.65.65 0 1 0 0 1.3h3.901a.65.65 0 1 0 0-1.3zm-7.803 0h-3.902a.65.65 0 1 0 0 1.3h3.902a.65.65 0 1 0 0-1.3zm-7.803 0H190.2a.65.65 0 1 0 0 1.3h3.902a.65.65 0 1 0 0-1.3zm-7.804 0h-3.901a.65.65 0 1 0 0 1.3h3.901a.65.65 0 1 0 0-1.3zm-7.803 0h-3.902a.65.65 0 1 0 0 1.3h3.902a.65.65 0 1 0 0-1.3zm-7.804 0h-3.901a.65.65 0 1 0 0 1.3h3.901a.65.65 0 1 0 0-1.3zm-7.803 0h-3.902a.65.65 0 1 0 0 1.3h3.902a.65.65 0 1 0 0-1.3zm-7.803 0h-3.902a.65.65 0 1 0 0 1.3h3.902a.65.65 0 1 0 0-1.3zm-7.804 0h-3.901a.65.65 0 1 0 0 1.3h3.901a.65.65 0 1 0 0-1.3zm-7.803 0h-3.902a.65.65 0 1 0 0 1.3h3.902a.65.65 0 1 0 0-1.3zm-7.803 0h-3.902a.65.65 0 1 0 0 1.3h3.902a.65.65 0 1 0 0-1.3zm-7.804 0h-3.901a.65.65 0 1 0 0 1.3h3.901a.65.65 0 1 0 0-1.3zm-7.803 0h-3.902a.65.65 0 1 0 0 1.3h3.902a.65.65 0 1 0 0-1.3zm-7.804 0h-3.901a.65.65 0 1 0 0 1.3h3.901a.65.65 0 1 0 0-1.3zm-7.803 0H96.56a.65.65 0 1 0 0 1.3h3.902a.65.65 0 1 0 0-1.3zm-7.803 0h-3.902a.65.65 0 1 0 0 1.3h3.902a.65.65 0 1 0 0-1.3zm-7.804 0h-3.901a.65.65 0 1 0 0 1.3h3.901a.65.65 0 1 0 0-1.3zm-7.803 0H73.15a.65.65 0 1 0 0 1.3h3.902a.65.65 0 1 0 0-1.3zm-7.803 0h-3.902a.65.65 0 1 0 0 1.3h3.902a.65.65 0 1 0 0-1.3zm-7.804 0h-3.901a.65.65 0 1 0 0 1.3h3.901a.65.65 0 1 0 0-1.3zm-7.803 0H49.74a.65.65 0 1 0 0 1.3h3.902a.65.65 0 1 0 0-1.3zm-7.803 0h-3.902a.65.65 0 1 0 0 1.3h3.902a.65.65 0 1 0 0-1.3zm-7.804 0h-3.902a.65.65 0 1 0 0 1.3h3.902a.65.65 0 1 0 0-1.3zm-7.803 0H26.33a.65.65 0 1 0 0 1.3h3.902a.65.65 0 1 0 0-1.3zm-7.804 0h-3.901a.65.65 0 1 0 0 1.3h3.901a.65.65 0 1 0 0-1.3zm-7.803 0h-3.902a.65.65 0 1 0 0 1.3h3.902a.65.65 0 1 0 0-1.3zm-7.803 0H2.92a.65.65 0 1 0 0 1.3h3.902a.65.65 0 1 0 0-1.3z" transform="rotate(180 175.5 110.5)"/>
            <path fill="url(#e)" d="M239.65 150.3h3.902a.65.65 0 1 0 0-1.3h-3.902a.65.65 0 1 0 0 1.3zm7.804 0h3.901a.65.65 0 1 0 0-1.3h-3.901a.65.65 0 1 0 0 1.3zm7.803 0h3.902a.65.65 0 1 0 0-1.3h-3.902a.65.65 0 1 0 0 1.3zm7.803 0h3.902a.65.65 0 1 0 0-1.3h-3.902a.65.65 0 1 0 0 1.3zm7.804 0h3.901a.65.65 0 1 0 0-1.3h-3.901a.65.65 0 1 0 0 1.3zm7.803 0h3.902a.65.65 0 1 0 0-1.3h-3.902a.65.65 0 1 0 0 1.3zm7.804 0h3.901a.65.65 0 1 0 0-1.3h-3.901a.65.65 0 1 0 0 1.3zm7.803 0h3.902a.65.65 0 1 0 0-1.3h-3.902a.65.65 0 1 0 0 1.3zm7.803 0h3.902a.65.65 0 1 0 0-1.3h-3.902a.65.65 0 1 0 0 1.3zm7.804 0h3.901a.65.65 0 1 0 0-1.3h-3.901a.65.65 0 1 0 0 1.3zm7.803 0h3.902a.65.65 0 1 0 0-1.3h-3.902a.65.65 0 1 0 0 1.3zm7.803 0h3.902a.65.65 0 1 0 0-1.3h-3.902a.65.65 0 1 0 0 1.3zm7.804 0h3.901a.65.65 0 1 0 0-1.3h-3.901a.65.65 0 1 0 0 1.3zm7.803 0h3.902a.65.65 0 1 0 0-1.3h-3.902a.65.65 0 1 0 0 1.3zm7.803 0h3.902a.65.65 0 1 0 0-1.3h-3.902a.65.65 0 1 0 0 1.3zm7.804 0h3.902a.65.65 0 1 0 0-1.3H356.7a.65.65 0 1 0 0 1.3zm7.803 0h3.902a.65.65 0 1 0 0-1.3h-3.902a.65.65 0 1 0 0 1.3zm7.804 0h3.901a.65.65 0 1 0 0-1.3h-3.901a.65.65 0 1 0 0 1.3zm7.803 0h3.902a.65.65 0 1 0 0-1.3h-3.902a.65.65 0 1 0 0 1.3zm7.803 0h3.902a.65.65 0 1 0 0-1.3h-3.902a.65.65 0 1 0 0 1.3zm7.804 0h3.901a.65.65 0 1 0 0-1.3h-3.901a.65.65 0 1 0 0 1.3zm7.803 0h3.902a.65.65 0 1 0 0-1.3h-3.902a.65.65 0 1 0 0 1.3zm7.803 0h3.902a.65.65 0 1 0 0-1.3h-3.902a.65.65 0 1 0 0 1.3zm7.804 0h3.901a.65.65 0 1 0 0-1.3h-3.901a.65.65 0 1 0 0 1.3zm7.803 0h3.902a.65.65 0 1 0 0-1.3h-3.902a.65.65 0 1 0 0 1.3zm7.804 0h3.901a.65.65 0 1 0 0-1.3h-3.901a.65.65 0 1 0 0 1.3zm7.803 0h3.902a.65.65 0 1 0 0-1.3h-3.902a.65.65 0 1 0 0 1.3zm7.803 0h3.902a.65.65 0 1 0 0-1.3h-3.902a.65.65 0 1 0 0 1.3zm7.804 0h3.901a.65.65 0 1 0 0-1.3h-3.901a.65.65 0 1 0 0 1.3z" transform="matrix(1 0 0 -1 -350.697 221)"/>
        </g>
    </g>
</svg>
